<svg xmlns="http://www.w3.org/2000/svg" width="119.127" height="119.128" viewBox="0 0 119.127 119.128">
  <g id="Grupo_243984" data-name="Grupo 243984" transform="translate(-530 -6591.275)">
    <path id="Trazado_243967" data-name="Trazado 243967" d="M258.5,60.954A59.564,59.564,0,1,1,198.937,1.39,59.564,59.564,0,0,1,258.5,60.954" transform="translate(390.626 6589.885)" fill="#fff59d"/>
    <path id="Trazado_243968" data-name="Trazado 243968" d="M238.523,30.966a4.433,4.433,0,1,1-4.433-4.433,4.433,4.433,0,0,1,4.433,4.433" transform="translate(390.626 6589.885)" fill="#8bb0bf"/>
    <path id="Trazado_243969" data-name="Trazado 243969" d="M167.4,39.062a2.441,2.441,0,0,1,0,4.883,2.332,2.332,0,0,1-2.314-2.442,2.416,2.416,0,0,1,2.314-2.441" transform="translate(390.626 6589.885)" fill="#fff"/>
    <path id="Trazado_243970" data-name="Trazado 243970" d="M211.859,27.625a4.746,4.746,0,0,1,1.413,3.469,4.881,4.881,0,0,1-4.883,4.883H189.114a4.883,4.883,0,0,1,0-9.766H194a4.883,4.883,0,0,1,9.766,0h4.626a4.965,4.965,0,0,1,3.47,1.414" transform="translate(390.626 6589.885)" fill="#fff"/>
    <path id="Trazado_243971" data-name="Trazado 243971" d="M193.933,39.9h19.275a4.881,4.881,0,0,0,4.883-4.883h5.269a4.333,4.333,0,0,1,4.369,4.369V71.894A12.882,12.882,0,0,0,224.9,97.337a3.528,3.528,0,0,1-1.671.257H183.91a4.333,4.333,0,0,1-4.369-4.37V39.511a4.333,4.333,0,0,1,4.369-4.369h5.268a4.744,4.744,0,0,0,4.755,4.755" transform="translate(390.626 6589.885)" fill="#fff"/>
    <path id="Trazado_243972" data-name="Trazado 243972" d="M227.665,72.1a12.85,12.85,0,1,1,0,25.7,21.08,21.08,0,0,1-2.827-.257A12.882,12.882,0,0,1,227.665,72.1" transform="translate(390.626 6589.885)" fill="#8bb0bf"/>
    <path id="Trazado_243973" data-name="Trazado 243973" d="M213.272,32.636a1.7,1.7,0,0,1-1.67-1.67,3.693,3.693,0,0,0-.9-2.313,3.094,3.094,0,0,0-2.313-.9h-4.883a1.7,1.7,0,0,1-1.67-1.67,3.213,3.213,0,1,0-6.426,0,1.7,1.7,0,0,1-1.67,1.67h-4.626a3.181,3.181,0,0,0-3.212,3.213,1.671,1.671,0,0,1-3.342,0,6.364,6.364,0,0,1,6.426-6.426h3.469a6.445,6.445,0,0,1,6.168-4.882,6.332,6.332,0,0,1,6.168,4.882h3.6a6.029,6.029,0,0,1,4.5,1.928,6.543,6.543,0,0,1,1.928,4.5,1.6,1.6,0,0,1-1.543,1.67" transform="translate(390.626 6589.885)" fill="#144677"/>
    <path id="Trazado_243974" data-name="Trazado 243974" d="M187.572,55.124a8.1,8.1,0,1,1,0-16.191,1.67,1.67,0,0,1,0,3.34,4.884,4.884,0,0,0,0,9.767,1.7,1.7,0,0,1,1.67,1.67,1.569,1.569,0,0,1-1.67,1.414" transform="translate(390.626 6589.885)" fill="#1e81ce"/>
    <path id="Trazado_243975" data-name="Trazado 243975" d="M187.572,50.369a1.569,1.569,0,0,1-1.157-.514l-1.67-1.671a1.635,1.635,0,1,1,2.313-2.312l.514.514,3.727-3.727a1.635,1.635,0,1,1,2.312,2.313l-4.883,4.883a1.567,1.567,0,0,1-1.156.514" transform="translate(390.626 6589.885)" fill="#a5d6a7"/>
    <path id="Trazado_243976" data-name="Trazado 243976" d="M203.635,47.156H197.21a1.67,1.67,0,0,1,0-3.341h6.425a1.7,1.7,0,0,1,1.671,1.671,1.794,1.794,0,0,1-1.671,1.67" transform="translate(390.626 6589.885)" fill="#1e81ce"/>
    <path id="Trazado_243977" data-name="Trazado 243977" d="M210.06,47.156h-1.67a1.67,1.67,0,1,1,0-3.341h1.67a1.7,1.7,0,0,1,1.67,1.671,1.794,1.794,0,0,1-1.67,1.67" transform="translate(390.626 6589.885)" fill="#1e81ce"/>
    <path id="Trazado_243978" data-name="Trazado 243978" d="M216.485,51.911H197.21a1.67,1.67,0,1,1,0-3.341h19.275a1.7,1.7,0,0,1,1.67,1.671,1.794,1.794,0,0,1-1.67,1.67" transform="translate(390.626 6589.885)" fill="#1e81ce"/>
    <path id="Trazado_243979" data-name="Trazado 243979" d="M187.572,72.858a8.145,8.145,0,0,1-8.1-8.1,8.061,8.061,0,0,1,8.1-8.1,1.67,1.67,0,0,1,0,3.34,4.884,4.884,0,0,0,0,9.767,1.7,1.7,0,0,1,1.67,1.67,1.569,1.569,0,0,1-1.67,1.414" transform="translate(390.626 6589.885)" fill="#1e81ce"/>
    <path id="Trazado_243980" data-name="Trazado 243980" d="M187.572,67.975a1.57,1.57,0,0,1-1.157-.515l-1.67-1.542a1.635,1.635,0,1,1,2.313-2.312l.514.513,3.727-3.726a1.635,1.635,0,1,1,2.312,2.313l-4.883,4.883a2.072,2.072,0,0,1-1.156.386" transform="translate(390.626 6589.885)" fill="#a5d6a7"/>
    <path id="Trazado_243981" data-name="Trazado 243981" d="M203.635,64.762H197.21a1.67,1.67,0,0,1,0-3.341h6.425a1.7,1.7,0,0,1,1.671,1.67,1.8,1.8,0,0,1-1.671,1.671" transform="translate(390.626 6589.885)" fill="#1e81ce"/>
    <path id="Trazado_243982" data-name="Trazado 243982" d="M210.06,64.762h-1.67a1.67,1.67,0,1,1,0-3.341h1.67a1.7,1.7,0,0,1,1.67,1.67,1.8,1.8,0,0,1-1.67,1.671" transform="translate(390.626 6589.885)" fill="#1e81ce"/>
    <path id="Trazado_243983" data-name="Trazado 243983" d="M210.06,69.645H197.21a1.67,1.67,0,0,1,0-3.341h12.85a1.7,1.7,0,0,1,1.67,1.671,1.794,1.794,0,0,1-1.67,1.67" transform="translate(390.626 6589.885)" fill="#1e81ce"/>
    <path id="Trazado_243984" data-name="Trazado 243984" d="M165.084,92.133a4.884,4.884,0,1,1,4.883-4.883,5.054,5.054,0,0,1-4.883,4.883m0-6.425a1.671,1.671,0,1,0,1.671,1.67,1.8,1.8,0,0,0-1.671-1.67" transform="translate(390.626 6589.885)" fill="#144677"/>
    <path id="Trazado_243985" data-name="Trazado 243985" d="M167.4,45.487a3.984,3.984,0,1,1,3.983-3.983,4,4,0,0,1-3.983,3.983m0-4.755a.771.771,0,1,0,.77.772.74.74,0,0,0-.77-.772" transform="translate(390.626 6589.885)" fill="#144677"/>
    <path id="Trazado_243986" data-name="Trazado 243986" d="M231.616,34.307a5.655,5.655,0,1,1,5.654-5.655,5.705,5.705,0,0,1-5.654,5.655m0-8.1a2.441,2.441,0,1,0,2.442,2.441,2.363,2.363,0,0,0-2.442-2.441" transform="translate(390.626 6589.885)" fill="#144677"/>
    <path id="Trazado_243987" data-name="Trazado 243987" d="M218.412,95.344H179.091a6.033,6.033,0,0,1-6.04-6.039V35.463a6.033,6.033,0,0,1,6.04-6.039h5.268a1.7,1.7,0,0,1,1.671,1.67,3.183,3.183,0,0,0,3.212,3.213h19.276a3.183,3.183,0,0,0,3.212-3.213,1.7,1.7,0,0,1,1.671-1.67h5.268a6.033,6.033,0,0,1,6.04,6.039V67.974a1.7,1.7,0,0,1-1.67,1.67,1.818,1.818,0,0,1-1.8-1.67V35.463a2.852,2.852,0,0,0-2.827-2.827h-3.855a6.328,6.328,0,0,1-6.168,4.754H189.114a6.358,6.358,0,0,1-6.168-4.754h-3.855a2.852,2.852,0,0,0-2.827,2.827V89.305a2.852,2.852,0,0,0,2.827,2.827h39.321a3.03,3.03,0,0,0,1.028-.257A1.587,1.587,0,1,1,220.6,94.83a4.222,4.222,0,0,1-2.185.514" transform="translate(390.626 6589.885)" fill="#144677"/>
    <path id="Trazado_243988" data-name="Trazado 243988" d="M222.91,95.345a12.687,12.687,0,0,1-3.085-.385,13.863,13.863,0,0,1-8.1-5.011A14.531,14.531,0,0,1,223.038,66.3a14.424,14.424,0,0,1,14.521,14.52A14.615,14.615,0,0,1,222.91,95.345m0-25.7A11.326,11.326,0,0,0,211.6,80.954a11.168,11.168,0,0,0,8.739,10.922,15.8,15.8,0,0,0,2.441.257A11.326,11.326,0,0,0,234.09,80.824a11.107,11.107,0,0,0-11.18-11.179" transform="translate(390.626 6589.885)" fill="#144677"/>
    <path id="Trazado_243989" data-name="Trazado 243989" d="M200.422,79.282H182.689a1.67,1.67,0,1,1,0-3.341h17.733a1.7,1.7,0,0,1,1.67,1.671,1.9,1.9,0,0,1-1.67,1.67" transform="translate(390.626 6589.885)" fill="#1e81ce"/>
    <path id="Trazado_243990" data-name="Trazado 243990" d="M200.422,84.037H182.689a1.671,1.671,0,1,1,0-3.341h17.733a1.7,1.7,0,0,1,1.67,1.67,1.787,1.787,0,0,1-1.67,1.671" transform="translate(390.626 6589.885)" fill="#1e81ce"/>
  </g>
</svg>
