<svg id="Grupo_243448" data-name="Grupo 243448" xmlns="http://www.w3.org/2000/svg" xmlns:xlink="http://www.w3.org/1999/xlink" width="401.971" height="706.218" viewBox="0 0 401.971 706.218">
  <defs>
    <clipPath id="clip-path">
      <rect id="Rectángulo_316451" data-name="Rectángulo 316451" width="401.971" height="706.218" fill="none"/>
    </clipPath>
    <clipPath id="clip-path-2">
      <rect id="Rectángulo_316450" data-name="Rectángulo 316450" width="18.466" height="36.256" transform="translate(29.863 399.041)" fill="none"/>
    </clipPath>
    <clipPath id="clip-path-5">
      <rect id="Rectángulo_316453" data-name="Rectángulo 316453" width="18.466" height="36.256" transform="translate(29.794 482.483)" fill="none"/>
    </clipPath>
    <clipPath id="clip-path-8">
      <rect id="Rectángulo_316456" data-name="Rectángulo 316456" width="18.466" height="36.256" transform="translate(29.691 565.924)" fill="none"/>
    </clipPath>
    <clipPath id="clip-path-11">
      <rect id="Rectángulo_316459" data-name="Rectángulo 316459" width="18.466" height="36.256" transform="translate(28.902 649.367)" fill="none"/>
    </clipPath>
  </defs>
  <g id="Grupo_243423" data-name="Grupo 243423">
    <g id="Grupo_243422" data-name="Grupo 243422" clip-path="url(#clip-path)">
      <path id="Trazado_243820" data-name="Trazado 243820" d="M378.187,175.378A175.377,175.377,0,1,1,202.81,0,175.377,175.377,0,0,1,378.187,175.378" fill="#d6f2ff"/>
      <path id="Trazado_243821" data-name="Trazado 243821" d="M250.974,351.513H11.764s18.018-12.186,85.043-20.363,154.167,20.363,154.167,20.363" fill="#8bb0bf"/>
      <path id="Trazado_243822" data-name="Trazado 243822" d="M343.427,167.013a54.831,54.831,0,0,1,5.725,4.713c5.043,5.386,4.5,11.749-1.24,16.388-1,.811-1.854,1.227-1.6,3.038.734,5.16-2.031,8.663-7.6,10.217-1.836.512-3.615.319-3.406,3.41.171,2.537-5.542,6.137-8.752,6.158-4.806.031-8.71-1.681-11.136-6.055-.823-1.485-1.611-2.989-2.415-4.485-.626-1.462-.22-3-.343-4.5a8.484,8.484,0,0,1,1.1-4.449,4.688,4.688,0,0,1,1.113-1.223c.219-1.17,3.366.209,2.005-2.329a10.047,10.047,0,0,1-2.367-3.446c-.3-1.047-.974-1.927-1.353-2.944-.075-4.424.715-8.608,3.364-12.293a10.31,10.31,0,0,1,1.727-2.132c1.031-.839,2.344-1.92,3.5-1.067,1.53,1.128-.06,2.333-.664,3.332-4.005,6.619-4.244,10.578-.892,14.786,1.888,2.37,4.2,3.528,7.232,2.858,2.911-.644,3.162-3.18,3.745-5.454.228-.892.309-1.81.452-2.717,1.5-9.577-3.293-17.042-12.668-19.859-3.093-.93-5.39.186-7.321,2.451a29.852,29.852,0,0,0-5.7,10.272c-2.431,7.567-7.412,12.164-14.8,15.04-8.543,3.325-16.791,7.414-25.211,11.077-4.23,1.839-7.582.925-11.022-1.372-6.764-4.516-13.766-8.678-20.252-13.607a19.9,19.9,0,0,0-2.646-1.815c-.4,1.47.343,2.638.456,3.876A7.282,7.282,0,0,0,236,191.043c6.632,4.64,12.816,9.962,20.5,12.95a10.653,10.653,0,0,0,7.961.05c11.381-4.116,21.6-10.6,32.5-15.674,4.307-2,5.016-1.854,8.052,1.631.182,2.553-1.669,3.347-3.564,4.1-.706-2.833-2.437-1.664-3.936-.941-9.211,4.444-18.469,8.8-27.58,13.439-6.375,3.248-12.236,2.59-18.316-.824-6.383-3.585-12.343-7.8-18.8-12.22,1.171,12.372.735,24.114-3.236,35.43-6.431,18.321-18.538,32.411-33.666,44.108-13.741,10.626-29.108,17.606-46.383,20.158-1.542.228-2.949.343-2.907,2.725.157,9.046.063,18.1.063,27.535,6.169-2.217,12.1-4.3,18.394-4.809,14.859-1.208,28.722,1.659,41.05,10.417a20.052,20.052,0,0,1,6.847,7.473c1.891,3.941.582,6-3.78,6-24.163,0-48.327-.077-72.49.012-2.813.011-3.525-.842-3.471-3.56.27-13.653.321-27.31.53-40.965.035-2.3.149-3.921-3.1-3.9-3.225.015-2.82,1.8-2.792,3.8.188,13.522.246,27.049.607,40.567.09,3.36-.995,4.08-4.162,4.066-23.9-.1-47.8-.016-71.7-.006-4.631,0-6.086-2.478-3.633-6.584,2.99-5,7.614-8.3,12.741-10.8,16.517-8.064,33.421-9.227,50.7-2.527a18.192,18.192,0,0,0,1.87.558c.113.031.255-.046.667-.133,0-9.491-.035-19.044.032-28.6.012-1.724-.761-2.155-2.271-2.451-19.62-3.84-36.54-12.735-50.4-27.231-1.423-1.488-2.119-1.242-3.215.306-3.721,5.253-7.621,10.357-12.8,14.341a26.33,26.33,0,0,1-7.186,4c-6.974,2.5-12.65-1.261-13.154-8.757-.107-1.592.189-2.9-2.213-3.209-4.615-.593-8.245-2.986-9.382-7.767-1.186-4.99,1.4-8.57,5.165-11.478.6-.466,1.2-.936,1.842-1.434a69.47,69.47,0,0,1-5.888-4.111c-3.3-2.83-3.725-6.075-1.58-9.862,3.773-6.663,12.231-8.356,19.179-3.941.994.632,1.988,2.459,3.249,1.363a6.033,6.033,0,0,0,1.592-3.922c.1-1.8-1.864-1.529-2.962-1.868a147.181,147.181,0,0,1-20.091-7.983,39.338,39.338,0,0,1-9.41-6.389c-6.3-5.686-6.071-11.83.721-17,11.506-8.76,23.933-16.112,36.311-23.525a13.6,13.6,0,0,0,5.94-6.412c6.058-13.665,14.62-25.729,24.176-37.152,10.547-12.608,20.419-25.7,26.98-40.93,8.425-19.551,8.572-38.941-1.514-58.044-.793-1.5-1.41-3.1-2.094-4.659-.258-.589-.472-1.2-.731-1.861,1.549-.8,2.566.334,3.629.857A126.894,126.894,0,0,1,132.491,49.9c25.073,25.058,49.326,50.914,71.688,78.455a139.561,139.561,0,0,1,22.94,41.467,10.209,10.209,0,0,0,3.621,4.924c8.657,6.615,17.41,13.081,26.683,18.824a7.129,7.129,0,0,0,7.629.444c9.109-4.341,18.38-8.347,27.633-12.381a13.274,13.274,0,0,0,7.262-7.322c2.465-5.81,5.269-11.431,9.631-16.132,3.65-3.934,6.132-4.441,11.243-2.816,4.693,1.491,7.71,5.3,11.672,7.78a13.461,13.461,0,0,0,2.764.761c.968.277,1.929.575,2.9.858,1,.334,2.041.493,3.048.794a3.738,3.738,0,0,1,2.227,1.459" fill="#12263f"/>
      <path id="Trazado_243823" data-name="Trazado 243823" d="M333.689,165.507c-.627.083-1.082-.094-1.2-.789,3.206-3.277,6.375-6.592,9.626-9.825q28.2-28.043,56.414-56.066c.929-.925,1.809-1.653,2.92-.484,1.18,1.243.087,2.114-.724,2.932-13.964,14.075-27.317,28.731-40.918,43.151-6.452,6.84-12.712,13.86-19.066,20.792-.568.62-1.182,1.2-1.774,1.794-.446-.05-.937.04-1.249-.413.425-1.665,1.763-2.709,2.8-3.924,3.776-4.441,7.928-8.541,11.9-12.807,6.35-6.824,12.8-13.556,19.005-20.515,3.1-2.7,5.517-6.061,8.456-8.92,6.491-6.473,12.538-13.372,17.823-18.431-4.769,4.966-11.181,10.909-17.282,17.164q-20.236,20.141-40.357,40.4a45.467,45.467,0,0,0-4.627,4.893,2.526,2.526,0,0,1-1.744,1.053" fill="#503110"/>
      <path id="Trazado_243824" data-name="Trazado 243824" d="M313.519,181.688a1.738,1.738,0,0,1,1.512,2.375c-.2,1.875-1.642,2.9-2.82,4.086q-9.932,9.979-19.909,19.911a51.916,51.916,0,0,0-4.3,5.063c-1.227,1.581-1.407,3.032.161,4.461,2.2,1.856,3.6.166,4.98-1.188,5.95-5.836,11.123-12.418,17.292-18.042.907-.827,1.393-2.3,3.011-2.15A6.8,6.8,0,0,1,313,200.4c-6.557,6.237-12.23,13.291-18.354,19.929-3.1,3.361-5.3,3.559-8.552.37-3.464-3.4-4.9-5.894-1.418-9.472,5.565-5.725,10.872-11.7,16.77-17.115l3.289-3.57c-.154-1.724,1.261-2.507,2.151-3.609,2.269-1.672,3.482-4.685,6.631-5.243" fill="#523313"/>
      <path id="Trazado_243825" data-name="Trazado 243825" d="M44.014,207.1c-.535-20.159,6.7-37.942,16.722-54.893,7.388-12.495,17.445-22.939,26.206-34.379,8.241-10.76,15.439-22.118,19.573-35.216,4.8-15.2,3.76-29.955-2.7-44.443-1.3-2.907-3.4-5.526-3.695-9.46a165.983,165.983,0,0,1,16.025,11.408c13.97,11.229,25.7,24.7,37.763,37.829,12.6,13.712,25.05,27.566,37.544,41.377,10.239,11.319,19.64,23.241,26.351,37.068a30.35,30.35,0,0,1,2.891,7.282,83.37,83.37,0,0,1,4.925,31.247c-.464,16.737-4.323,32.383-14.341,46.231-16.115,22.275-37.372,36.691-64.507,41.352-22.187,3.811-43.623.109-62.985-11.438C65.931,260.423,52.606,245.5,46.748,224.938A86.286,86.286,0,0,1,44.014,207.1" fill="#baeaff"/>
      <path id="Trazado_243826" data-name="Trazado 243826" d="M44.014,207.1c1.171,5.687,2.149,11.423,3.555,17.051,2.712,10.847,8.4,20.15,15.684,28.489a84.632,84.632,0,0,0,48.308,27.936c15.915,3.174,31.784,3.041,47.513-2.01,12.671-4.07,23.615-10.87,34-18.964a80.861,80.861,0,0,0,13.653-14c8.381-10.646,14.8-22.354,16.337-36.239.69-6.225,1.778-12.394,1.513-18.7a88.492,88.492,0,0,0-3.345-22.36,12.507,12.507,0,0,1-.541-4.632c4.148,6.836,5.944,14.479,7.428,22.188,3.169,16.469,2.357,32.712-4.6,48.11-6.545,14.487-16.823,26.227-29.356,35.9s-26.485,16.431-42.128,19.337a98.706,98.706,0,0,1-40.542-1.131c-15.972-3.668-30.083-10.868-41.834-22.259C54.916,251.536,44.608,234.9,44.012,213.6c-.061-2.157-1.451-4.344,0-6.5" fill="#8bb0bf"/>
      <path id="Trazado_243827" data-name="Trazado 243827" d="M313.519,181.688l-6.166,5.846c-.532.123-1.192.178-1.485-.237-2.533-3.589-5.159-2.472-8.357-.72-9.441,5.17-19.412,9.251-29.25,13.6-5.868,2.593-11.392,3.085-17.113-.829-5.295-3.623-10.89-6.817-16.137-10.537a11.341,11.341,0,0,1-3.375-3.754c-.471-1.882-.943-3.764-1.666-6.652,2.26,1.535,3.843,2.521,5.328,3.636,7.04,5.285,14.54,9.869,21.952,14.592a7.169,7.169,0,0,0,7.309.574c11.045-4.542,21.878-9.539,32.718-14.531a9.088,9.088,0,0,0,4.513-4.7c2.242-4.742,4.345-9.566,6.871-14.154,3.94-7.158,8.278-8.115,15.221-3.754,9.211,5.785,11.969,15.054,7.459,25.07-1.535,3.409-6.356,4.371-9.8,1.957a11.538,11.538,0,0,1-3.573-14.727c1.082-2.018,2.488-3.862,3.479-5.964-4.309,2.232-6.376,6.04-7.054,10.694a15.941,15.941,0,0,1-.87,4.591" fill="#baeaff"/>
      <path id="Trazado_243828" data-name="Trazado 243828" d="M32.231,278.886c-2-2.856-1.592-6.29,1.23-9.419,2.126-2.357,4.852-3.984,7.427-5.782,1.28-.893,2.6-1.706,2.947-3.747-4.012.589-6.789,3.021-9.583,5.249a12.024,12.024,0,0,1-11.082,2.332c-5.659-1.461-7.019-6.47-3-10.746,3.777-4.013,8.8-4.919,13.939-5.478,1.658-.18,3.425.1,4.832-1.254-1.079-2.064-2.974-1.269-4.525-1.264-5.334.019-10.43-.865-15.075-3.618-3.646-2.161-3.937-4.957-.892-7.947,3.422-3.361,7.779-3.959,12.278-1.616a28.7,28.7,0,0,1,6.779,5.32c1.265,1.249,2.493,2.77,5.371,1.92-4.174-3.424-3.5-7.162-1.008-12.021,2.71,9.775,7.44,17.543,12.512,25.13-.358,3.85-2.95,6.584-5.04,9.458-3.956,5.44-9.329,9.4-14.907,13.058a2.321,2.321,0,0,1-2.208.425" fill="#baeaff"/>
      <path id="Trazado_243829" data-name="Trazado 243829" d="M137.212,335.537c.015-12.711.112-25.422-.019-38.132-.028-2.749,1.361-2.717,3.351-2.978,2.94-.386,2.07,1.629,2.079,2.95.071,9.7.187,19.395.026,29.089-.059,3.5.729,4.088,3.891,2.486,12.052-6.106,24.741-8.665,38.035-5.2,8.189,2.137,16.533,4.379,21.962,11.821-1.477,1.454-3.384,1.259-5.19,1.262q-29.477.057-58.955,0c-1.812,0-3.712.153-5.18-1.3" fill="#baeaff"/>
      <path id="Trazado_243830" data-name="Trazado 243830" d="M55.074,335.557c5.384-7.254,13.548-9.613,21.618-11.7,13.246-3.424,25.957-1.19,38.1,4.876,4.107,2.051,4.113,1.982,4.111-2.671,0-8.387.031-16.773.049-25.16,1.814-1.235,3.591-.451,5.373.1q.033,17.273.064,34.545c-1.483,1.424-3.376,1.279-5.192,1.283q-30.259.068-60.52-.012c-1.232,0-2.992.8-3.6-1.258" fill="#baeaff"/>
      <path id="Trazado_243831" data-name="Trazado 243831" d="M11.6,206.686a112.94,112.94,0,0,0,21.19,8.2c7.144,2.1,7.574,2.568,7.131,10.933-10.745-2.742-21.181-5.974-30.23-12.6a20.7,20.7,0,0,1-2.9-2.657c-3-3.24-3-5.194.218-8.4,6.941-6.9,15.25-11.985,23.367-17.3,4.251-2.783,8.714-5.245,13.6-8.158-.482,4-1.725,6.619-4.682,8.692-8.052,5.645-16.06,11.366-23.632,17.658-1.294,1.075-2.512,2.241-4.059,3.628" fill="#baeaff"/>
      <path id="Trazado_243832" data-name="Trazado 243832" d="M380.186,120.81q-4.178,4.419-8.356,8.839a49.832,49.832,0,0,0-6.727,6.686c-2.5,2.863-5.263,5.457-7.812,8.261-5.934,6.531-12.4,12.557-18.268,19.154-.864.972-1.573,2.388-3.254,2.3a4.08,4.08,0,0,1-2.08-.539c13.393-14.027,27.2-27.647,41.005-41.261q2.73-2.692,5.471-5.376c1.463.63.066,1.292.021,1.939" fill="#fff59d"/>
      <path id="Trazado_243833" data-name="Trazado 243833" d="M231.636,185.057A197.69,197.69,0,0,0,254.483,200a9.3,9.3,0,0,0,7.836,1.023c10.784-3.328,20.73-8.552,30.847-13.378a49.919,49.919,0,0,0,7.628-3.925c1.256-.888,2.845-.979,3.794,1.1.5,1.1,1.818,1.819,2.766,2.711l-2.616,3c-2.284-3.354-4.825-2.529-7.964-1.006-10.916,5.3-21.334,11.625-32.8,15.79a8.722,8.722,0,0,1-6.043.209c-8.265-2.666-14.743-8.233-21.676-13.086-2.645-1.851-5.282-3.542-4.614-7.388" fill="#8bb0bf"/>
      <path id="Trazado_243834" data-name="Trazado 243834" d="M18.693,206.053A151.776,151.776,0,0,1,40.72,188.84a130.391,130.391,0,0,0-1.863,22.5c.033,2.215-1.026,1.8-2.453,1.419a104.891,104.891,0,0,1-17.711-6.7" fill="#fafdfd"/>
      <path id="Trazado_243835" data-name="Trazado 243835" d="M137.212,335.537l69.325.04c2.01,2.233,1.7,3.287-1.49,3.273q-32.452-.144-64.906-.159c-2.394,0-3.5-.664-2.929-3.154" fill="#8bb0bf"/>
      <path id="Trazado_243836" data-name="Trazado 243836" d="M55.074,335.557l69.317-.013c.408,2.081-.133,3.144-2.568,3.144q-32.664,0-65.326.158c-3.279.013-3.414-1.126-1.423-3.289" fill="#8bb0bf"/>
      <path id="Trazado_243837" data-name="Trazado 243837" d="M287.452,218.266c-2.694-1.888-1.892-3.81-.162-5.878,6.824-8.155,14.628-15.355,22.142-22.838,1.852-1.844,3.734-3.657,5.6-5.485l2.415,3.535c.488,1.841-1.6,1.951-2.1,3.127l-.779.67q-11.022,12.669-22.975,24.465c-1.135,1.122-2.038,2.858-4.14,2.4" fill="#fff59d"/>
      <path id="Trazado_243838" data-name="Trazado 243838" d="M335.77,166.047c4.873-5.064,9.775-10.1,14.6-15.209,1.317-1.392,2.759-2.645,4.065-4.06,4.982-5.4,10.174-10.6,15.3-15.864.576-.591,1.061-1.4,2.09-1.265-6.827,7.954-14.218,15.389-21.3,23.106-4.252,4.631-8.538,9.231-12.807,13.844a2.77,2.77,0,0,1-1.951-.552" fill="#fff59d"/>
      <path id="Trazado_243839" data-name="Trazado 243839" d="M335.638,177.942c-.044-3.411,2.67-6.929-.83-10.228,9.1.131,16.289,7.5,14.254,14.185-5.007,2.211-9.988.743-13.424-3.957" fill="#baeaff"/>
      <path id="Trazado_243840" data-name="Trazado 243840" d="M32.231,278.886c9.381-5.719,17.017-13.124,22.155-22.941,2.582,2.069,2.12,4.023.365,6.591A86.956,86.956,0,0,1,41.8,277.562c-3.564,3.277-6.675,3.6-9.569,1.324" fill="#8bb0bf"/>
      <path id="Trazado_243841" data-name="Trazado 243841" d="M287.452,218.266c4.644-3.845,8.608-8.37,12.818-12.658,4.706-4.792,8.652-10.364,14.3-14.211q-.556,2.4-1.114,4.8-10.226,10.877-20.437,21.76c-1.822,1.954-3.576,2.612-5.564.3" fill="#fff59d"/>
      <path id="Trazado_243842" data-name="Trazado 243842" d="M327,191.308a8.8,8.8,0,0,0,6.114-4.521c.861-1.6,1.521-1.748,2.884-.522a8.2,8.2,0,0,0,3.394,1.873c3.943.953,4.262,3.265,2.741,6.447-4.358,3.146-8.8,1.959-13.158.1A2.911,2.911,0,0,1,327,191.308" fill="#baeaff"/>
      <path id="Trazado_243843" data-name="Trazado 243843" d="M316.7,193.7c1.7-2.975,3.673-1.92,4.951.095a16.661,16.661,0,0,0,8.136,6.879c2.038.8,2.414,2.121,1.724,4-5.749,2.621-11.908-.635-14.237-7.508a14.248,14.248,0,0,1-.574-3.465" fill="#baeaff"/>
      <path id="Trazado_243844" data-name="Trazado 243844" d="M327,191.308c4.073,5.577,9.687,4.036,15.132,3.276a9.349,9.349,0,0,1-13.02,3.508,11.512,11.512,0,0,1-5.552-6.277c1.138-.96,2.331-.424,3.44-.507" fill="#8bb0bf"/>
      <path id="Trazado_243845" data-name="Trazado 243845" d="M316.7,193.7a10,10,0,0,1,.96,1.591c2.98,7.9,5.587,9.678,13.852,9.382-3.43,4.44-10.932,3.542-14.035-1.74-1.714-2.918-2.4-6-.777-9.233" fill="#8bb0bf"/>
      <path id="Trazado_243846" data-name="Trazado 243846" d="M335.638,177.942a17.077,17.077,0,0,0,13.425,3.957c-2.034,4.228-5.192,5.192-10.332,3.022-3.146-1.329-4.842-3.422-3.093-6.979" fill="#8bb0bf"/>
      <path id="Trazado_243847" data-name="Trazado 243847" d="M124.326,301c-1.817,1.385-3.577-.354-5.374-.1a32.072,32.072,0,0,1-.047-4.315c.133-1.16-.97-3.319,1.527-3.086,1.825.17,4.6-.336,4.07,3.186a37.9,37.9,0,0,0-.176,4.311" fill="#8bb0bf"/>
      <path id="Trazado_243848" data-name="Trazado 243848" d="M315.346,190.726c.14-1.419,1.677-1.9,2.1-3.127,1.007.173,1.445.942,2.126,1.734l-4.228,1.393" fill="#a49d85"/>
      <path id="Trazado_243849" data-name="Trazado 243849" d="M380.186,120.81c-.266-.644.816-1.3-.021-1.939,6.064-6.669,12.948-12.5,19.38-18.808-6.475,6.9-12.517,14.194-19.359,20.747" fill="#fff59d"/>
      <path id="Trazado_243850" data-name="Trazado 243850" d="M195.334,200.777C188.6,210.11,180.275,217.5,169.415,221.7a89.765,89.765,0,0,1-9.336,3.029,7.7,7.7,0,0,0-5.6,5.014c-2.078,5.489-3.675,10.994-.27,16.576-1.156,1.4-2.505,1.165-3.911.465-2.918-4.328-1.787-8.976-1.068-13.592.169-.648.287-1.312.516-1.942,1.52-3.472-.453-3.2-2.943-3-16.879,1.375-33.441-.112-49.494-5.816-2.176-1.434-4.58-2.476-7.067-3.955.653,4.128,2.634,7.531,4.322,11.043,5.3,10.226,12.079,19.148,22.091,25.242,1.12.682,2.13,1.521,3.25,2.2A8.9,8.9,0,0,0,122.4,258.3c12.882,4.466,24.672,1.9,35.7-5.526a12.774,12.774,0,0,1,2.72-2.11,17.217,17.217,0,0,0,1.744-.876c1.794-1.158,3.6-2.415,5.784-1.033s2.151,3.51,1.437,5.607c-.588,1.726.135,2.329,1.6,2.847.982.346,2.107,1.14,1.879,2.256-.357,1.752-1.718.188-2.586.456a2.277,2.277,0,0,1-.782-.043c-5.112-.391-5.109-.39-3.677-5.557.169-.611.284-1.237.507-2.224-2.092.278-3.192,1.562-4.394,2.614-11.227,9.828-34.956,13.631-49.251,2.729-9.992-7.62-18.441-16.8-23.049-28.86-1.59-4.161-2.953-8.409-4.5-12.589a13.762,13.762,0,0,0-2.045-4.22,78.245,78.245,0,0,1-7.828-11.733c-2.1-1.66-2.63-4.161-3.377-6.51-.671-2.113-1.691-2.444-3.374-1.018-.8.676-1.6,1.355-2.425,1.989s-1.549,2.308-2.838,1.172c-1.059-.934-.793-2.455-.159-3.674,1.7-3.263,4.621-5.274,7.6-7.2a21.415,21.415,0,0,1,8.121-2.766c1.517-.269,2.991-.063,3.314,1.831.28,1.646-.574,2.7-2.058,3.378-4.646,2.107-4.631,2.118-2.846,6.78.558,1.457,1.306,2.878,1.059,4.527a38.023,38.023,0,0,0,22.356,20.918c24.185,8.77,48.3,8.8,71.789-2.446a42.178,42.178,0,0,0,18.756-16.823c.251-2.154,1.622-3.82,2.493-5.7,2.525-5.458,4.979-10.929,5.777-16.985.137-1.033.116-2.737,1.686-2.551,1.1.131,1.152,1.629,1.178,2.657.211,8.567-1.328,16.59-7.379,23.169" fill="#12263f"/>
      <path id="Trazado_243851" data-name="Trazado 243851" d="M95.426,188.043c-4.411-8.95-6.392-18.29-4.011-28.163,2.27-9.409,6.849-17.22,16.941-19.735,9.137-2.277,18.347,2.826,23.992,12.559.913,1.574,1.671,3.237,2.684,5.218,1.843-2.786,3.312-5.481,5.5-7.687,11.5-11.575,28.271-7.552,33.4,8.005,2.845,8.638,2.149,17.013-1.345,25.276-4.44,11.63-16.7,17.345-27.352,12.713-4.09-1.778-7.008-4.952-9.567-8.871-5.357,8.166-11.208,15.181-21.735,14.295-8.761-.737-14.462-6.18-18.507-13.61" fill="#0a4b7d"/>
      <path id="Trazado_243852" data-name="Trazado 243852" d="M116.652,94.764c.236,1.922-.7,3.68-1.681,5.379a155.932,155.932,0,0,1-19.224,25.729c-1.053,1.173-2.249,3.1-4.205,1.924-1.773-1.062-.939-3.076-.786-4.707a8.336,8.336,0,0,1,.763-2.631c4.717-10.28,10.479-19.9,18.123-28.305,1.315-1.445,2.913-2.974,5.1-1.969,1.756.808,1.946,2.644,1.913,4.58" fill="#f9fdfd"/>
      <path id="Trazado_243853" data-name="Trazado 243853" d="M96.816,137.682c1.751-6.075,5.183-11.379,12.118-13.573,1.887-.6,4.224-2.67,5.733-1.107,2.019,2.09,3.1,5.118,3.693,8.123.26,1.306-.751,1.573-1.608,1.781-6.429,1.555-12.5,3.872-17.693,8.112-.518.423-1.22.87-1.737.3-.756-.829-.435-1.983-.506-3.64" fill="#093043"/>
      <path id="Trazado_243854" data-name="Trazado 243854" d="M169.585,143.8c-6.568-3.921-12.928-5.135-19.518-5.445-2.071-.1-2.479-1.071-1.99-3.1,1.939-8.059,1.862-8.061,9.689-4.975,5.828,2.3,10.595,5.536,11.819,13.523" fill="#0b3143"/>
      <path id="Trazado_243855" data-name="Trazado 243855" d="M160.818,250.658c-.249.9-.535,1.775-1.563,2.1-1.272-.08-2.008-1.143-3.049-1.651a15.852,15.852,0,0,0-1.827-.932,12.994,12.994,0,0,0-5.082-.179c-1.924.234-3.347.94-2.492,3.337.311.87.569,1.9-.386,2.488s-1.76-.2-2.455-.738a16.374,16.374,0,0,0-10.162-3.655c-4.68-.044-8.5,1.38-10.812,5.728a5.519,5.519,0,0,1-1.552,1.753c-.961.036-1.355-.66-1.748-1.356-1.006-1.96.406-3.261,1.408-4.52,4.056-5.1,9.582-6.443,15.78-5.911a10.513,10.513,0,0,0,9.907-.608,3.546,3.546,0,0,1,3.673-.277l3.759.091a15.7,15.7,0,0,1,6.6,4.335" fill="#6a283c"/>
      <path id="Trazado_243856" data-name="Trazado 243856" d="M91.078,136.625c.048,3.537-2.055,6.639-4.224,6.633-2.069,0-4.965-3.468-4.725-5.983a5.1,5.1,0,0,1,5.232-4.857c3.029-.161,3.233,2.444,3.717,4.207" fill="#f1fdfd"/>
      <path id="Trazado_243857" data-name="Trazado 243857" d="M137.005,248.023c-7.651-.242-14.209,1.5-17.315,9.525-7.68-3.266-13.211-8.971-18.054-15.572-2.839-3.87-6.6-7.1-7.906-11.976,1.168-1,2.507-.619,3.757-.35a188.548,188.548,0,0,0,26.419,3.393c7.851-.327,10.247,5.553,12.759,11.267.514,1.168,1.037,2.4.34,3.713" fill="#144677"/>
      <path id="Trazado_243858" data-name="Trazado 243858" d="M121.438,258.9c1.406-9.035,15.408-12.364,24.655-3.272.144-.166.362-.31.417-.5.52-1.8-2.816-2.736-1.386-4.349,1.814-2.048,4.571-2.337,7.274-2.115,1.04.086,2.114.072,2.849,1.013-.393,1.708.241,1.767,1.45.9l2.558,2.171c-5.607,6.229-13.434,7.212-20.977,8.523a26.374,26.374,0,0,1-16.84-2.373" fill="#f395bb"/>
      <path id="Trazado_243859" data-name="Trazado 243859" d="M96.923,221.167c17.915,6.454,36.357,7.663,55.48,5.395a14.032,14.032,0,0,1-1.7,5.09,8.457,8.457,0,0,1-4.709,1.725c-15.129.294-30.23.125-45.17-2.7-3.46-.655-5.267-5.135-3.9-9.511" fill="#f5fafc"/>
      <path id="Trazado_243860" data-name="Trazado 243860" d="M137.005,248.023c-1.165-2.622-2.366-5.229-3.485-7.871a9.444,9.444,0,0,0-9.046-6.167c.772-.933,1.859-.821,2.892-.852,7.3-.217,14.619.469,21.9-.56.407-.057.722.263,1.061.453a25.94,25.94,0,0,0,.132,13.207,23.9,23.9,0,0,0-3.974,1.527c-3.156,1.888-6.264,2.136-9.478.263" fill="#436b92"/>
      <path id="Trazado_243861" data-name="Trazado 243861" d="M150.325,233.026c-8.579,1.345-17.235.609-25.851.959A186.562,186.562,0,0,1,93.73,230a51.825,51.825,0,0,1-5.179-13.46l8.372,4.627c-.168,2.445,1.346,4.487,1.625,6.838.2,1.668,1.556,1.737,2.924,1.987,16.332,2.981,32.756,2.962,49.227,1.66q-.187.687-.374,1.374" fill="#d2edf8"/>
      <path id="Trazado_243862" data-name="Trazado 243862" d="M115.149,141.635c5.527.519,9.324,3.831,12.514,7.956,8.772,11.34,9.737,29.135,2.263,40.145-3.486,2.307-6.945,4.671-11.31,4.99-7.978.583-17.445-3.49-21.294-14.585-3.377-9.733-3.221-19.3,1.939-28.4A21.586,21.586,0,0,1,112.479,141.4a3.43,3.43,0,0,1,2.67.236" fill="#fdfefe"/>
      <path id="Trazado_243863" data-name="Trazado 243863" d="M165.57,149.244c9.153,8.217,10.351,24.893,2.577,36.461a37.513,37.513,0,0,1-2.745,3.255c-6.832,4.778-13.813,4.734-20.854.538-3.427-2.042-5.28-5.332-6.416-9.005-.452-1.459-.7-3.2,1.532-3.717,1.621.338,2.091,1.856,2.968,2.947,2.541,3.163,5.632,3.133,8.056-.11,2.531-3.389,2.613-9.474.175-13.015-2.018-2.931-4.5-3.176-7.3-.8a8.489,8.489,0,0,0-2.734,5.086c-.65,1.693-.069,4.824-2.522,4.5-1.815-.24-.666-3.121-.757-4.792a76.152,76.152,0,0,1,.306-10,19.714,19.714,0,0,1,13.05-13.381c4.66-1.63,9.176-1.785,13.2,1.705a1.757,1.757,0,0,0,1.466.33" fill="#fefefe"/>
      <path id="Trazado_243864" data-name="Trazado 243864" d="M115.149,141.635c-8.322,1.529-15.434,8.577-17.7,17.45-1.6,6.262-1.143,11.966.136,18.047,2.955,14.042,17.85,21.459,29.929,13.081.833-.577,1.46-1.045,2.415-.477-6.1,10.176-17.457,11.983-26.311,4.186-11.963-10.534-14.24-33.046-4.439-45.615,3.985-5.111,9.085-8.2,15.973-6.672" fill="#e3f4fa"/>
      <path id="Trazado_243865" data-name="Trazado 243865" d="M138.676,159.828c.349,5.019-1.607,9.958-.47,15.226,2.262-1.114.312-3.83,1.987-5a5.735,5.735,0,0,1,.089,7.1c-1.711.172-1.675,1.31-1.451,2.582.961,5.467,8.007,11.223,13.705,11.67,4.583.36,8.678-1.122,12.867-2.447-4.2,4.746-9.366,7.248-15.712,5.832-6.747-1.505-10.639-6.368-13.093-12.509a5.178,5.178,0,0,1-.017-2.7,40.445,40.445,0,0,0-.1-15.643,4.575,4.575,0,0,1,.655-4.12,1.051,1.051,0,0,1,1.539.007" fill="#e6f6fa"/>
      <path id="Trazado_243866" data-name="Trazado 243866" d="M138.676,159.828l-1.539-.007A21.866,21.866,0,0,1,148,146.657c6.041-3.239,12.4-2.205,17.567,2.586-.409.914-1.057,1.173-1.826.486-5.784-5.165-11.4-2.382-16.859.512-3.917,2.075-6.195,5.769-8.209,9.587" fill="#def1f7"/>
      <path id="Trazado_243867" data-name="Trazado 243867" d="M156.7,250.583c-.041.819.414,1.9-.9,2.109a1.752,1.752,0,0,1-1.993-1.369c-.394-1.236.507-1.494,1.447-1.643l1.45.9" fill="#fddaf0"/>
      <path id="Trazado_243868" data-name="Trazado 243868" d="M124.377,174.205a12.928,12.928,0,0,1-2.855,8c-2.952,3.476-6.841,3.376-9.7-.185-3.384-4.208-3.408-12.379-.049-16.623,3.069-3.879,7.8-3.665,10.431.56a14.688,14.688,0,0,1,2.176,8.246" fill="#144677"/>
      <path id="Trazado_243869" data-name="Trazado 243869" d="M140.281,177.154q-.045-3.548-.089-7.1c.855-3.908,3.828-7.192,6.716-7.031,3.97.222,5.506,3.2,6.352,6.5,1.019,3.965.673,7.878-1.994,11.176-3.868,4.782-7.914,3.437-10.985-3.546" fill="#144677"/>
      <path id="Trazado_243870" data-name="Trazado 243870" d="M114,174.552c.174-.608-1.75-.483-.511-1.464,1.82-1.1,2.656-3.013,3.837-4.641,3.532,2.093,4.461,6.869,1.851,9.781-1.638,1.826-3.318,1.763-4.9-.128a3.84,3.84,0,0,1-.272-3.548" fill="#071b29"/>
      <path id="Trazado_243871" data-name="Trazado 243871" d="M117.326,168.447c-.344,2.32.17,5.349-3.837,4.642a10.347,10.347,0,0,1-1.279-2.334c-.476-1.882-.222-3.759,1.751-4.608,2.045-.881,2.515,1.116,3.365,2.3" fill="#e8f3f6"/>
      <path id="Trazado_243872" data-name="Trazado 243872" d="M114,174.552c1.277,1.091,1.033,2.3.273,3.547a1.673,1.673,0,0,1-2.189-1.6c-.127-1.309.724-1.84,1.916-1.948" fill="#c5dce7"/>
      <path id="Trazado_243873" data-name="Trazado 243873" d="M143.97,173.778l1.544-1.056a7.17,7.17,0,0,1,1.844-4.183,5.381,5.381,0,0,1,2.1,8.08c-1.312,2.022-2.913,2.589-4.705.465a4.612,4.612,0,0,1-.778-3.306" fill="#0b1c2b"/>
      <path id="Trazado_243874" data-name="Trazado 243874" d="M147.358,168.539c-.028,1.651-.115,3.276-1.842,4.182-1.184-.211-2.251-.6-2.644-1.893-.527-1.74-.41-3.532,1.231-4.437,2.019-1.114,2.56.814,3.255,2.148" fill="#e0f1f4"/>
      <path id="Trazado_243875" data-name="Trazado 243875" d="M143.97,173.778c1.64.777,1.135,2.058.778,3.306-2.9-.481-2.731-1.684-.778-3.306" fill="#cae5f0"/>
      <path id="Trazado_243876" data-name="Trazado 243876" d="M388.279,437.717H70.028a12.729,12.729,0,0,1-12.692-12.692V406.762A12.729,12.729,0,0,1,70.028,394.07H388.279a12.729,12.729,0,0,1,12.692,12.692v18.263a12.729,12.729,0,0,1-12.692,12.692" fill="#12263f"/>
      <path id="Trazado_243877" data-name="Trazado 243877" d="M78.665,416.237A38.047,38.047,0,1,1,40.618,378.19a38.047,38.047,0,0,1,38.047,38.047" fill="#baeaff"/>
      <circle id="Elipse_4266" data-name="Elipse 4266" cx="38.047" cy="38.047" r="38.047" transform="translate(-5.153 444.525) rotate(-76.717)" fill="none" stroke="#12263f" stroke-miterlimit="10" stroke-width="3.219"/>
      <g id="Grupo_243421" data-name="Grupo 243421" style="isolation: isolate">
        <g id="Grupo_243420" data-name="Grupo 243420">
          <g id="Grupo_243419" data-name="Grupo 243419" clip-path="url(#clip-path-2)">
            <g id="Grupo_243418" data-name="Grupo 243418" style="isolation: isolate">
              <g id="Grupo_243417" data-name="Grupo 243417">
                <g id="Grupo_243416" data-name="Grupo 243416" clip-path="url(#clip-path-2)">
                  <text id="_1" data-name="1" transform="translate(29.863 426.574)" fill="#12263f" font-size="32.185" font-family="Roboto-Bold, Roboto" font-weight="700"><tspan x="0" y="0">1</tspan></text>
                </g>
              </g>
            </g>
          </g>
        </g>
      </g>
    </g>
  </g>
  <text id="Fase_I:_Definición_de_alcance_" data-name="Fase I: Definición de alcance " transform="translate(115.984 419.661)" fill="#fff" font-size="16" font-family="Roboto-Bold, Roboto" font-weight="700"><tspan x="0" y="0" letter-spacing="-0.041em">F</tspan><tspan y="0" letter-spacing="-0.025em">ase </tspan><tspan y="0" letter-spacing="-0.024em">I</tspan><tspan y="0" letter-spacing="-0.025em">: </tspan><tspan y="0" letter-spacing="-0.024em">D</tspan><tspan y="0" letter-spacing="-0.025em">efinición de alcance</tspan><tspan y="0"> </tspan></text>
  <g id="Grupo_243431" data-name="Grupo 243431">
    <g id="Grupo_243430" data-name="Grupo 243430" clip-path="url(#clip-path)">
      <path id="Trazado_243878" data-name="Trazado 243878" d="M388.21,521.159H69.959a12.729,12.729,0,0,1-12.692-12.692V490.2a12.729,12.729,0,0,1,12.692-12.692H388.21A12.729,12.729,0,0,1,400.9,490.2v18.263a12.729,12.729,0,0,1-12.692,12.692" fill="#12263f"/>
      <path id="Trazado_243879" data-name="Trazado 243879" d="M78.6,499.678a38.047,38.047,0,1,1-38.047-38.047A38.047,38.047,0,0,1,78.6,499.678" fill="#baeaff"/>
      <circle id="Elipse_4267" data-name="Elipse 4267" cx="38.047" cy="38.047" r="38.047" transform="translate(-5.222 527.966) rotate(-76.717)" fill="none" stroke="#12263f" stroke-miterlimit="10" stroke-width="3.219"/>
      <g id="Grupo_243429" data-name="Grupo 243429" style="isolation: isolate">
        <g id="Grupo_243428" data-name="Grupo 243428">
          <g id="Grupo_243427" data-name="Grupo 243427" clip-path="url(#clip-path-5)">
            <g id="Grupo_243426" data-name="Grupo 243426" style="isolation: isolate">
              <g id="Grupo_243425" data-name="Grupo 243425">
                <g id="Grupo_243424" data-name="Grupo 243424" clip-path="url(#clip-path-5)">
                  <text id="_2" data-name="2" transform="translate(29.794 510.016)" fill="#12263f" font-size="32.185" font-family="Roboto-Bold, Roboto" font-weight="700"><tspan x="0" y="0">2</tspan></text>
                </g>
              </g>
            </g>
          </g>
        </g>
      </g>
    </g>
  </g>
  <text id="Fase_II:_Cuantificación" data-name="Fase II: Cuantificación" transform="translate(115.915 504.081)" fill="#fff" font-size="16" font-family="Roboto-Bold, Roboto" font-weight="700"><tspan x="0" y="0" letter-spacing="-0.041em">F</tspan><tspan y="0" letter-spacing="-0.025em">ase </tspan><tspan y="0" letter-spacing="-0.024em">II</tspan><tspan y="0" letter-spacing="-0.025em">: C</tspan><tspan y="0" letter-spacing="-0.024em">u</tspan><tspan y="0" letter-spacing="-0.025em">an</tspan><tspan y="0" letter-spacing="-0.024em">t</tspan><tspan y="0" letter-spacing="-0.025em">ificació</tspan><tspan y="0">n</tspan></text>
  <g id="Grupo_243439" data-name="Grupo 243439">
    <g id="Grupo_243438" data-name="Grupo 243438" clip-path="url(#clip-path)">
      <path id="Trazado_243880" data-name="Trazado 243880" d="M388.108,604.6H69.857a12.729,12.729,0,0,1-12.692-12.692V573.645a12.729,12.729,0,0,1,12.692-12.692H388.108A12.729,12.729,0,0,1,400.8,573.645v18.263A12.729,12.729,0,0,1,388.108,604.6" fill="#12263f"/>
      <path id="Trazado_243881" data-name="Trazado 243881" d="M78.493,583.12a38.047,38.047,0,1,1-38.047-38.047A38.047,38.047,0,0,1,78.493,583.12" fill="#baeaff"/>
      <circle id="Elipse_4268" data-name="Elipse 4268" cx="38.047" cy="38.047" r="38.047" transform="translate(2.399 545.073)" fill="none" stroke="#12263f" stroke-miterlimit="10" stroke-width="3.219"/>
      <g id="Grupo_243437" data-name="Grupo 243437" style="isolation: isolate">
        <g id="Grupo_243436" data-name="Grupo 243436">
          <g id="Grupo_243435" data-name="Grupo 243435" clip-path="url(#clip-path-8)">
            <g id="Grupo_243434" data-name="Grupo 243434" style="isolation: isolate">
              <g id="Grupo_243433" data-name="Grupo 243433">
                <g id="Grupo_243432" data-name="Grupo 243432" clip-path="url(#clip-path-8)">
                  <text id="_3" data-name="3" transform="translate(29.691 593.457)" fill="#12263f" font-size="32.185" font-family="Roboto-Bold, Roboto" font-weight="700"><tspan x="0" y="0">3</tspan></text>
                </g>
              </g>
            </g>
          </g>
        </g>
      </g>
    </g>
  </g>
  <text id="Fase_III:_Evaluación_de_sostenibilidad" data-name="Fase III: Evaluación de sostenibilidad" transform="translate(116.69 588.451)" fill="#fff" font-size="16" font-family="Roboto-Bold, Roboto" font-weight="700"><tspan x="0" y="0" letter-spacing="-0.041em">F</tspan><tspan y="0" letter-spacing="-0.025em">ase </tspan><tspan y="0" letter-spacing="-0.024em">II</tspan><tspan y="0" letter-spacing="-0.025em">I: </tspan><tspan y="0" letter-spacing="-0.037em">E</tspan><tspan y="0" letter-spacing="-0.032em">v</tspan><tspan y="0" letter-spacing="-0.025em">al</tspan><tspan y="0" letter-spacing="-0.024em">u</tspan><tspan y="0" letter-spacing="-0.025em">ación de sos</tspan><tspan y="0" letter-spacing="-0.024em">t</tspan><tspan y="0" letter-spacing="-0.025em">eni</tspan><tspan y="0" letter-spacing="-0.024em">b</tspan><tspan y="0" letter-spacing="-0.025em">ilida</tspan><tspan y="0">d</tspan></text>
  <g id="Grupo_243447" data-name="Grupo 243447">
    <g id="Grupo_243446" data-name="Grupo 243446" clip-path="url(#clip-path)">
      <path id="Trazado_243882" data-name="Trazado 243882" d="M387.318,688.042H69.067A12.729,12.729,0,0,1,56.375,675.35V657.087A12.729,12.729,0,0,1,69.067,644.4H387.318a12.729,12.729,0,0,1,12.692,12.692V675.35a12.729,12.729,0,0,1-12.692,12.692" fill="#12263f"/>
      <path id="Trazado_243883" data-name="Trazado 243883" d="M77.7,666.562a38.047,38.047,0,1,1-38.047-38.047A38.047,38.047,0,0,1,77.7,666.562" fill="#baeaff"/>
      <circle id="Elipse_4269" data-name="Elipse 4269" cx="38.047" cy="38.047" r="38.047" transform="translate(1.609 628.515)" fill="none" stroke="#12263f" stroke-miterlimit="10" stroke-width="3.219"/>
      <g id="Grupo_243445" data-name="Grupo 243445" style="isolation: isolate">
        <g id="Grupo_243444" data-name="Grupo 243444">
          <g id="Grupo_243443" data-name="Grupo 243443" clip-path="url(#clip-path-11)">
            <g id="Grupo_243442" data-name="Grupo 243442" style="isolation: isolate">
              <g id="Grupo_243441" data-name="Grupo 243441">
                <g id="Grupo_243440" data-name="Grupo 243440" clip-path="url(#clip-path-11)">
                  <text id="_4" data-name="4" transform="translate(28.901 676.9)" fill="#12263f" font-size="32.185" font-family="Roboto-Bold, Roboto" font-weight="700"><tspan x="0" y="0">4</tspan></text>
                </g>
              </g>
            </g>
          </g>
        </g>
      </g>
    </g>
  </g>
  <text id="Fase_IV:_Formulación_de_respuesta" data-name="Fase IV: Formulación de respuesta" transform="translate(115.9 671.903)" fill="#fff" font-size="16" font-family="Roboto-Bold, Roboto" font-weight="700"><tspan x="0" y="0" letter-spacing="-0.041em">F</tspan><tspan y="0" letter-spacing="-0.025em">ase </tspan><tspan y="0" letter-spacing="-0.024em">IV</tspan><tspan y="0" letter-spacing="-0.025em">: </tspan><tspan y="0" letter-spacing="-0.035em">F</tspan><tspan y="0" letter-spacing="-0.025em">o</tspan><tspan y="0" letter-spacing="-0.024em">rm</tspan><tspan y="0" letter-spacing="-0.025em">ulación de </tspan><tspan y="0" letter-spacing="-0.034em">r</tspan><tspan y="0" letter-spacing="-0.025em">es</tspan><tspan y="0" letter-spacing="-0.024em">pu</tspan><tspan y="0" letter-spacing="-0.025em">es</tspan><tspan y="0" letter-spacing="-0.024em">t</tspan><tspan y="0">a</tspan></text>
</svg>
