<svg xmlns="http://www.w3.org/2000/svg" width="392.254" height="133.092" viewBox="0 0 392.254 133.092">
  <g id="Grupo_243984" data-name="Grupo 243984" transform="translate(-914.705 -1168.033)">
    <path id="Trazado_243587" data-name="Trazado 243587" d="M809.757,250.711q-36.113,0-72.224,0c-2.669,0-2.531.278-2.532-2.5q0-64.072,0-128.141c0-2.436,0-2.441,2.443-2.441H882.072c2.743,0,2.527-.114,2.527,2.532q0,64.071,0,128.14c0,2.634.125,2.414-2.44,2.414q-36.2,0-72.4,0" transform="translate(179.705 1050.41)" fill="#1e447f"/>
    <path id="Trazado_243588" data-name="Trazado 243588" d="M900.248,184.066q0-25.623,0-51.245c0-.537.014-1.075.013-1.612,0-.768.413-1.043,1.137-1.024a.886.886,0,0,1,.984,1c.005.478.017.956.017,1.433q0,51.6,0,103.207c0,.418-.015.836-.006,1.254.015.723-.269,1.1-1.053,1.094-.758,0-1.1-.32-1.084-1.068.011-.537-.009-1.075-.009-1.612V184.066" transform="translate(179.705 1050.41)" fill="#144677"/>
    <path id="Trazado_243589" data-name="Trazado 243589" d="M923.046,231.308a5.89,5.89,0,0,1-6.2-4.927c-.068-.559-.27-1.323.632-1.381.7-.045,1.609-.426,1.946.683a6.189,6.189,0,0,0,.378,1,3.072,3.072,0,0,0,3.231,1.752,3.448,3.448,0,0,0,1.525-6.186,15.745,15.745,0,0,0-3.333-1.269,5.458,5.458,0,0,1-3.856-4.3,5.783,5.783,0,0,1,2.841-6.069,5.644,5.644,0,0,1,6.746,1.026,5.131,5.131,0,0,1,1.151,2.2c.144.545.476,1.193-.29,1.557a1.98,1.98,0,0,1-2.337-.635c-.113-.207-.158-.453-.276-.657a2.585,2.585,0,0,0-2.865-1.345,2.787,2.787,0,0,0-2.186,2.324,2.526,2.526,0,0,0,1.245,2.739,8.609,8.609,0,0,0,1.481.616c.674.238,1.377.4,2.037.668a6.473,6.473,0,0,1,1.911,10.642,6.08,6.08,0,0,1-3.782,1.567" transform="translate(179.705 1050.41)" fill="#144677"/>
    <path id="Trazado_243590" data-name="Trazado 243590" d="M1109.511,216.837a5.8,5.8,0,0,1,4.88-1.652,5.44,5.44,0,0,1,5.3,4.705c.542,3.32.23,6.676.265,10.017.011,1.054-.782,1.013-1.519,1.029s-1.289-.145-1.283-1.063c.016-2.21-.014-4.42,0-6.63a10.372,10.372,0,0,0-.329-2.837,3.231,3.231,0,0,0-3.217-2.607,3.409,3.409,0,0,0-3.67,2.263,9.3,9.3,0,0,0-.57,3.335c0,2.031.013,4.062-.015,6.092a1.486,1.486,0,0,1-2.311,1.326.812.812,0,0,1-.464-.7,8.877,8.877,0,0,1-.039-.894c0-4.061-.013-8.123,0-12.184.006-1.58.414-1.919,1.915-1.707.6.085.6.085,1.058,1.511" transform="translate(179.705 1050.41)" fill="#144677"/>
    <path id="Trazado_243591" data-name="Trazado 243591" d="M960.824,216.829a5.974,5.974,0,0,1,4.93-1.642,5.4,5.4,0,0,1,5.06,3.863,8.154,8.154,0,0,1,.443,2.458c0,2.687.013,5.373,0,8.06,0,.454.141,1.05-.443,1.238a2.545,2.545,0,0,1-2.08-.089c-.417-.238-.288-.751-.29-1.155-.014-2.329-.013-4.657-.014-6.986a7.162,7.162,0,0,0-.354-2.467,3.245,3.245,0,0,0-3.251-2.316,3.42,3.42,0,0,0-3.475,2.036,6.531,6.531,0,0,0-.528,2.795c-.019,2.328-.041,4.656-.036,6.985,0,.864-.291,1.325-1.241,1.335-1.322.015-1.555-.128-1.561-1.5q-.03-6.269,0-12.538c0-.682-.184-1.488.93-1.587,1.166-.1,1.4.026,1.909,1.514" transform="translate(179.705 1050.41)" fill="#144677"/>
    <path id="Trazado_243592" data-name="Trazado 243592" d="M977.653,143.324a6.182,6.182,0,0,1,5.831-1.389,5.464,5.464,0,0,1,4.3,4.722,67.457,67.457,0,0,1,.229,9.662c-.01,1.066-.29,1.175-1.52,1.2-.912.015-1.29-.338-1.278-1.256.028-2.15-.005-4.3.006-6.45a10.362,10.362,0,0,0-.291-2.662,3.334,3.334,0,0,0-3.3-2.748,3.419,3.419,0,0,0-3.708,2.471,10.443,10.443,0,0,0-.485,3.352c.017,2.03,0,4.061-.011,6.091,0,.4.065.928-.432,1.069a2.512,2.512,0,0,1-2.081-.088c-.485-.319-.3-.991-.3-1.516-.01-4-.019-8,.008-12,.005-.647-.3-1.507.783-1.714,1.142-.219,1.649.026,2.256,1.263" transform="translate(179.705 1050.41)" fill="#144677"/>
    <path id="Trazado_243593" data-name="Trazado 243593" d="M988.885,179.963a11.927,11.927,0,0,1,2.29-1.272c3.979-1.219,7.654,1.085,7.994,5.272.245,3.028.076,6.089.107,9.136.01,1.09-.742,1.017-1.474,1.042-.825.028-1.385-.141-1.372-1.162.034-2.39.006-4.78,0-7.17a6.74,6.74,0,0,0-.344-2.469,3.739,3.739,0,0,0-6.745-.124,7.237,7.237,0,0,0-.515,2.8c0,2.21,0,4.421-.029,6.631a1.574,1.574,0,0,1-2.448,1.35c-.495-.312-.367-.845-.37-1.3-.015-2.151-.008-4.3-.008-6.452,0-1.972-.026-3.944.016-5.915.013-.587-.3-1.382.657-1.622,1.051-.264,1.635.035,2.241,1.257" transform="translate(179.705 1050.41)" fill="#144677"/>
    <path id="Trazado_243594" data-name="Trazado 243594" d="M927.11,143.368a6.307,6.307,0,0,1,5.112-1.587,5.47,5.47,0,0,1,4.969,4.238,10.81,10.81,0,0,1,.375,2.831c-.022,2.269,0,4.538-.006,6.806-.007,1.763-.068,1.832-1.376,1.845-1.356.013-1.446-.079-1.457-1.764-.015-2.149-.008-4.3-.008-6.448a7.456,7.456,0,0,0-.287-2.3,3.279,3.279,0,0,0-3.417-2.589,3.351,3.351,0,0,0-3.531,2.462,14.18,14.18,0,0,0-.526,4.246c-.039,1.67.012,3.343-.023,5.014-.025,1.228-.2,1.37-1.321,1.376s-1.332-.137-1.339-1.349c-.024-4.239-.015-8.478,0-12.717,0-.574-.093-1.219.77-1.371,1.065-.186,1.535.046,2.069,1.3" transform="translate(179.705 1050.41)" fill="#144677"/>
    <path id="Trazado_243595" data-name="Trazado 243595" d="M1044.4,143.346a6.014,6.014,0,0,1,4.936-1.57,5.481,5.481,0,0,1,5.084,4.327,11.281,11.281,0,0,1,.359,2.835c-.02,2.149,0,4.3,0,6.447,0,2.056-.058,2.131-1.466,2.117-1.329-.013-1.368-.064-1.375-2.031q-.012-3.133,0-6.268a7.326,7.326,0,0,0-.272-2.122,3.648,3.648,0,0,0-7-.14,12.39,12.39,0,0,0-.507,3.71c0,1.79.017,3.583-.012,5.372-.022,1.362-.179,1.5-1.393,1.476-1.122-.021-1.262-.124-1.27-1.427q-.038-6.179,0-12.358c0-.654-.248-1.5.854-1.657s1.457.031,2.068,1.289" transform="translate(179.705 1050.41)" fill="#144677"/>
    <path id="Trazado_243596" data-name="Trazado 243596" d="M1073.464,179.927a6.481,6.481,0,0,1,5.65-1.331,5.46,5.46,0,0,1,4.39,4.409,16.636,16.636,0,0,1,.313,4.094c-.011,1.849.015,3.7-.01,5.548-.019,1.363-.153,1.481-1.383,1.488-1.272.008-1.428-.112-1.445-1.419-.028-2.267-.02-4.534-.008-6.8a7.377,7.377,0,0,0-.359-2.466,3.061,3.061,0,0,0-3.058-2.292c-1.875-.1-2.993.478-3.66,1.959a10.654,10.654,0,0,0-.688,4.209c-.044,1.789.007,3.581-.024,5.371-.023,1.292-.948,1.845-2.146,1.357a.829.829,0,0,1-.5-.854c-.025-.6-.027-1.193-.027-1.789,0-3.759-.013-7.52.01-11.279a1.485,1.485,0,0,1,2.293-1.345c.413.224.18.791.654,1.142" transform="translate(179.705 1050.41)" fill="#144677"/>
    <path id="Trazado_243597" data-name="Trazado 243597" d="M1047.148,227.9c.468.45.966.295,1.416.3,1.371.024,2.743-.01,4.114.017a1.486,1.486,0,0,1,1.339,2.294.9.9,0,0,1-.916.411c-2.922.009-5.844,0-8.766.005-.693,0-.9-.384-.943-1.02a3.413,3.413,0,0,1,.74-2.318c1.769-2.472,3.5-4.976,5.238-7.469.273-.391.565-.771.806-1.181.469-.8.358-1.028-.616-1.066-1.37-.053-2.743-.035-4.114-.032-.751,0-1.049-.364-1.07-1.1-.03-1.119.146-1.4,1.277-1.414,2.325-.033,4.651,0,6.977-.01.723,0,1.088.271,1.106,1.046a4.489,4.489,0,0,1-.787,3.021c-1.674,2.246-3.239,4.573-4.834,6.878a5.478,5.478,0,0,0-.967,1.635" transform="translate(179.705 1050.41)" fill="#144677"/>
    <path id="Trazado_243598" data-name="Trazado 243598" d="M1014.426,181.2c-1.668,0-3.2.019-4.74-.006-1.366-.022-1.674-.432-1.468-1.736.079-.5.313-.765.8-.767q3.854-.011,7.706,0a.722.722,0,0,1,.81.752,4.361,4.361,0,0,1-.61,3.07c-1.733,2.358-3.376,4.782-5.04,7.189a3.941,3.941,0,0,0-.88,1.559c.337.489.859.288,1.295.3,1.553.032,3.106.03,4.66.02.809,0,1.007.466.991,1.156-.015.669.055,1.386-.933,1.388-2.927.005-5.855,0-8.782.012-.8,0-.984-.452-1.015-1.149a3.35,3.35,0,0,1,.8-2.126q2.784-3.957,5.538-7.936a3.6,3.6,0,0,0,.862-1.721" transform="translate(179.705 1050.41)" fill="#144677"/>
    <path id="Trazado_243599" data-name="Trazado 243599" d="M1096.066,187.511c0-1.73-.009-3.459,0-5.189.005-.675-.143-1.176-.958-1.19-.861-.014-.875-.641-.862-1.263.011-.542-.018-1.156.756-1.166.927-.011.958-.611,1.062-1.312a4.143,4.143,0,0,1,3.968-3.9c.564-.073,1.08-.138,1.269.589a1.554,1.554,0,0,1-.694,1.958,3.371,3.371,0,0,0-1.152.449,1.644,1.644,0,0,0-.552,1.614c.119.651.689.518,1.145.577,1.194.155,1.316.322,1.3,1.385-.011.75-.334,1.014-1.074,1.093-1.36.147-1.375.2-1.381,1.647-.015,2.982-.005,5.964-.006,8.946,0,.358.012.717-.007,1.074-.059,1.188-.188,1.306-1.376,1.314-1.212.008-1.4-.119-1.421-1.258-.036-1.789-.01-3.579-.01-5.368Z" transform="translate(179.705 1050.41)" fill="#144677"/>
    <path id="Trazado_243600" data-name="Trazado 243600" d="M1077.435,210.295c1.186.008,1.315.118,1.359,1.327.031.834.022,1.671.012,2.506-.008.68.167,1.2.978,1.168.945-.036,1.229.436,1.2,1.328-.023.8-.274,1.247-1.129,1.229-1.054-.023-1.057.713-1.056,1.469.006,3.4.015,6.8-.008,10.2-.009,1.291-.191,1.428-1.455,1.41-1.192-.018-1.336-.116-1.346-1.336-.026-3.341,0-6.682-.015-10.023,0-1.389-.006-1.454-1.331-1.727-.841-.173-.828-.7-.842-1.314-.016-.658.1-1.237.928-1.205,1.07.04,1.3-.556,1.255-1.469-.038-.714-.023-1.432,0-2.147.04-1.3.175-1.427,1.448-1.418" transform="translate(179.705 1050.41)" fill="#144677"/>
    <path id="Trazado_243601" data-name="Trazado 243601" d="M932.274,224.235c0-1.667-.019-3.335.008-5,.014-.825-.151-1.423-1.148-1.393-.916.027-1.02-.571-1.035-1.3-.016-.794.237-1.265,1.1-1.231.892.035,1.1-.5,1.074-1.262-.021-.714-.015-1.43,0-2.144.039-1.436.21-1.614,1.481-1.6,1.195.011,1.307.129,1.341,1.524q.027,1.159.006,2.322c-.013.693.192,1.184.988,1.155.958-.036,1.21.469,1.193,1.342-.016.808-.3,1.236-1.139,1.215-1.062-.027-1.047.713-1.046,1.464.006,3.4.015,6.789-.008,10.184-.008,1.315-.18,1.449-1.427,1.431-1.159-.016-1.353-.161-1.378-1.337-.039-1.786-.01-3.573-.01-5.36Z" transform="translate(179.705 1050.41)" fill="#144677"/>
    <path id="Trazado_243602" data-name="Trazado 243602" d="M1010.765,150.973c0-1.668-.009-3.337,0-5.005.006-.782-.069-1.461-1.109-1.4-.9.049-1.074-.49-1.073-1.255s.157-1.312,1.061-1.27c1.031.047,1.138-.608,1.122-1.406-.017-.894.006-1.788.017-2.681.012-.976.724-.937,1.389-.935s1.379-.054,1.39.929c.01.894.033,1.788.017,2.681-.014.792.078,1.459,1.114,1.41.885-.041,1.09.476,1.083,1.25-.006.751-.152,1.319-1.059,1.274-1.011-.051-1.142.572-1.139,1.379q.021,5,0,10.01c-.008,1.467-.14,1.576-1.476,1.553-1.187-.02-1.305-.106-1.327-1.345-.03-1.728-.007-3.456-.007-5.184Z" transform="translate(179.705 1050.41)" fill="#144677"/>
    <path id="Trazado_243603" data-name="Trazado 243603" d="M1039.8,187.623c0-1.73-.016-3.46.007-5.19.01-.782-.223-1.28-1.1-1.231-.906.052-1.08-.485-1.076-1.25,0-.746.127-1.322,1.051-1.269.864.05,1.152-.407,1.126-1.206-.026-.774-.015-1.551.006-2.326.036-1.391.134-1.49,1.364-1.5,1.277-.009,1.4.1,1.439,1.419.024.775.023,1.551.007,2.327-.016.738.12,1.328,1.046,1.275.847-.048,1.148.365,1.148,1.186s-.164,1.414-1.165,1.351c-.944-.06-1.03.574-1.028,1.293q.008,4.384,0,8.769c0,.418.007.835,0,1.253-.035,1.529-.295,1.726-1.8,1.618-.786-.057-1.017-.447-1.013-1.151.012-1.79,0-3.579,0-5.369Z" transform="translate(179.705 1050.41)" fill="#144677"/>
    <path id="Trazado_243604" data-name="Trazado 243604" d="M941.8,151.033c0-1.671-.017-3.342.007-5.013.012-.884-.132-1.546-1.25-1.477-.9.056-1.053-.548-1.068-1.291-.016-.8.256-1.262,1.124-1.221.974.047,1.211-.537,1.19-1.372-.019-.776-.026-1.553.012-2.327.056-1.167.258-1.338,1.4-1.315,1.04.021,1.2.166,1.254,1.263a21.369,21.369,0,0,1,.005,2.148c-.051.962.143,1.65,1.318,1.634.862-.011.858.652.868,1.267.011.654-.106,1.246-.935,1.209-1.1-.048-1.259.583-1.252,1.48.023,2.983.008,5.968.007,8.952,0,.477-.028.956-.006,1.432.041.887-.449,1.112-1.232,1.105-1.129-.01-1.382-.126-1.409-1.1-.05-1.789-.014-3.581-.014-5.371Z" transform="translate(179.705 1050.41)" fill="#144677"/>
    <path id="Trazado_243605" data-name="Trazado 243605" d="M920.765,147.418c0,2.857.01,5.714-.01,8.571,0,.5.2,1.175-.46,1.4a3.136,3.136,0,0,1-2.1-.037c-.292-.109-.329-.473-.337-.775q-.021-.8-.021-1.606,0-8.124.005-16.249c0-1.618.2-1.746,1.7-1.719.936.016,1.234.432,1.227,1.311-.025,3.035-.01,6.071-.01,9.106Z" transform="translate(179.705 1050.41)" fill="#144677"/>
    <path id="Trazado_243606" data-name="Trazado 243606" d="M1123.822,179.855a6.23,6.23,0,0,1,2.432-1.3c.59-.1.874.052.947.692.168,1.472-.009,1.858-1.379,2.354-1.611.582-2.064,1.893-2.118,3.393-.067,1.9-.027,3.812-.032,5.718,0,.715-.033,1.432,0,2.145.045.891-.3,1.29-1.233,1.295-1.411.007-1.6-.111-1.6-1.635-.017-3.4-.006-6.792-.006-10.187,0-.775-.018-1.55.01-2.324.018-.508-.118-1.1.625-1.3a1.817,1.817,0,0,1,2.1.693c.062.1.114.2.254.454" transform="translate(179.705 1050.41)" fill="#144677"/>
    <path id="Trazado_243607" data-name="Trazado 243607" d="M966.314,149.8c0-2.089-.014-4.177.008-6.265.005-.5-.194-1.216.494-1.374s1.577-.5,2.052.443c.277.547.549.52.953.182a3.548,3.548,0,0,1,.735-.506c.584-.274,1.169-.681,1.853-.337.28.141.378,1.78.2,2.243-.153.4-.507.489-.845.572-1.986.485-2.6,1.92-2.612,3.76-.017,2.506,0,5.013-.025,7.519-.016,1.4-.177,1.476-1.568,1.479-.918,0-1.271-.358-1.256-1.272.035-2.147.011-4.3.01-6.444" transform="translate(179.705 1050.41)" fill="#144677"/>
    <path id="Trazado_243608" data-name="Trazado 243608" d="M1014.63,216.673a7.182,7.182,0,0,1,2.079-1.339c.876-.224,1.2-.011,1.286.9.13,1.312.01,1.574-1.284,2.073a3.127,3.127,0,0,0-2.067,3.218c-.03,2.681,0,5.362-.043,8.042-.017,1.2-.213,1.345-1.35,1.371-1.258.028-1.456-.119-1.462-1.4q-.033-6.255,0-12.51c0-.642-.311-1.5.791-1.689,1.131-.191,1.516.032,2.046,1.339" transform="translate(179.705 1050.41)" fill="#144677"/>
    <path id="Trazado_243609" data-name="Trazado 243609" d="M943.247,179.952a6.2,6.2,0,0,1,2.431-1.382c.6-.115.883.046.974.671.2,1.386-.027,1.868-1.341,2.391a3.048,3.048,0,0,0-2,3.076c-.03,2.324-.023,4.648-.033,6.972,0,.417.007.834-.01,1.251-.019.472.026,1.031-.6,1.14a2.743,2.743,0,0,1-1.917-.132c-.4-.237-.3-.746-.3-1.155-.011-1.608-.006-3.217-.006-4.826,0-2.622-.01-5.244.011-7.866.005-.553-.167-1.231.711-1.4,1.047-.2,1.554.045,2.085,1.259" transform="translate(179.705 1050.41)" fill="#144677"/>
    <path id="Trazado_243610" data-name="Trazado 243610" d="M1076.647,147.125c0-2.865-.016-5.73.006-8.6.011-1.384.4-1.672,1.721-1.507.564.072.879.313.9.891.012.3.029.6.029.9q0,8.5,0,17.014c0,1.51-.12,1.63-1.206,1.673-1.238.05-1.428-.1-1.44-1.417-.025-2.984-.008-5.968-.008-8.954" transform="translate(179.705 1050.41)" fill="#144677"/>
    <path id="Trazado_243611" data-name="Trazado 243611" d="M1038.7,222.943c0-2.142-.025-4.284.009-6.426.017-1.065.2-1.187,1.284-1.207,1.2-.023,1.491.149,1.5,1.211q.048,6.6,0,13.209c-.008,1.06-.3,1.231-1.5,1.208-1.086-.022-1.264-.143-1.28-1.212-.033-2.261-.009-4.522-.009-6.783" transform="translate(179.705 1050.41)" fill="#144677"/>
    <path id="Trazado_243612" data-name="Trazado 243612" d="M1005.329,186.564c0,2.089.023,4.177-.009,6.265-.017,1.184-.184,1.3-1.374,1.308s-1.4-.122-1.406-1.278q-.039-6.444,0-12.889c.006-1.186.176-1.3,1.377-1.3,1.222,0,1.388.108,1.405,1.27.031,2.207.009,4.415.009,6.623" transform="translate(179.705 1050.41)" fill="#144677"/>
    <path id="Trazado_243613" data-name="Trazado 243613" d="M1085.708,223.306c0,2.086.021,4.173-.008,6.259-.017,1.211-.214,1.376-1.319,1.372s-1.323-.18-1.33-1.378q-.035-6.438,0-12.876a1.438,1.438,0,0,1,2.217-1.26c.533.284.43.808.433,1.266.013,2.206.006,4.411.006,6.617" transform="translate(179.705 1050.41)" fill="#144677"/>
    <path id="Trazado_243614" data-name="Trazado 243614" d="M1020.5,149.994c0,2.029.024,4.058-.007,6.086-.02,1.29-.156,1.4-1.274,1.418-1.16.018-1.356-.118-1.363-1.315q-.036-6.444,0-12.888c.007-1.089.213-1.234,1.258-1.251,1.135-.019,1.353.144,1.373,1.327.036,2.207.01,4.415.011,6.623" transform="translate(179.705 1050.41)" fill="#144677"/>
    <path id="Trazado_243615" data-name="Trazado 243615" d="M1049.54,186.409c0,2.149.027,4.3-.012,6.447-.019,1.143-.252,1.306-1.418,1.277-1.049-.027-1.2-.131-1.209-1.292q-.036-6.447,0-12.9c.008-1.158.156-1.251,1.223-1.272,1.174-.022,1.384.122,1.4,1.288.039,2.148.012,4.3.012,6.447" transform="translate(179.705 1050.41)" fill="#144677"/>
    <path id="Trazado_243616" data-name="Trazado 243616" d="M1005.338,175.284c-.007,1.453-.127,1.584-1.439,1.575-1.29-.009-1.388-.124-1.38-1.635.008-1.446.137-1.587,1.44-1.578,1.281.009,1.385.133,1.379,1.638" transform="translate(179.705 1050.41)" fill="#144677"/>
    <path id="Trazado_243617" data-name="Trazado 243617" d="M1041.519,211.963c-.017,1.409-.165,1.562-1.488,1.539-1.241-.022-1.353-.162-1.339-1.681.013-1.4.164-1.554,1.483-1.538,1.229.014,1.362.18,1.344,1.68" transform="translate(179.705 1050.41)" fill="#144677"/>
    <path id="Trazado_243618" data-name="Trazado 243618" d="M1083.036,211.709c.037-1.247.25-1.456,1.446-1.425,1.127.029,1.278.252,1.232,1.8-.037,1.278-.216,1.455-1.428,1.419-1.121-.033-1.3-.286-1.25-1.792" transform="translate(179.705 1050.41)" fill="#144677"/>
    <path id="Trazado_243619" data-name="Trazado 243619" d="M1020.508,138.684c-.009,1.311-.208,1.532-1.368,1.527-1.139,0-1.3-.2-1.3-1.582,0-1.42.135-1.6,1.265-1.617,1.218-.023,1.413.21,1.4,1.672" transform="translate(179.705 1050.41)" fill="#144677"/>
    <path id="Trazado_243620" data-name="Trazado 243620" d="M1049.546,175.242c0,1.443-.164,1.634-1.416,1.61-1.131-.021-1.243-.164-1.244-1.591s.112-1.583,1.224-1.609c1.261-.029,1.433.16,1.436,1.59" transform="translate(179.705 1050.41)" fill="#144677"/>
    <path id="Trazado_243621" data-name="Trazado 243621" d="M875.424,182.859a30.73,30.73,0,0,1-1.033,8.414,21.169,21.169,0,0,1-13.35,14.65,29.378,29.378,0,0,1-21.532-.05,20.888,20.888,0,0,1-13.134-14.4,29.137,29.137,0,0,1-.063-16.094c2.16-7.738,7.242-12.793,14.838-15.2a29.379,29.379,0,0,1,18.843.169c9.191,3.175,14.036,9.873,15.219,19.381.147,1.182.164,2.382.212,3.13" transform="translate(179.705 1050.41)" fill="#fff"/>
    <path id="Trazado_243622" data-name="Trazado 243622" d="M823.687,167.4c0,1.553-.011,3.1.005,4.658a4.813,4.813,0,0,1-.761,2.717,2.588,2.588,0,0,1-2.359,1.349c-1.492-.034-2.986-.025-4.478,0a4.718,4.718,0,0,1-2.949-1.135c-1.191-.9-2.317-1.885-3.519-2.768a16.69,16.69,0,0,0-10.223-3.247,6.1,6.1,0,0,0-2.276.417,2.784,2.784,0,0,0-.778,4.9,8.5,8.5,0,0,0,3.409,1.511c2.244.609,4.5,1.166,6.737,1.812a50,50,0,0,1,7.541,2.8,25.391,25.391,0,0,1,4.72,2.895c6.294,4.879,7.215,15.969-.746,21.464a19,19,0,0,1-6.7,2.881,26.325,26.325,0,0,1-8.731.365,13.905,13.905,0,0,1-6.764-2.633,10.312,10.312,0,0,0-2.262-1.434c-1.509-.59-2.6-.15-3.035,1.381a2.367,2.367,0,0,1-2.46,1.907c-1.79.048-3.584.1-5.373.039a2.134,2.134,0,0,1-2.347-2.367c-.059-3.343-.03-6.688,0-10.032a4.606,4.606,0,0,1,.566-2.056,2.662,2.662,0,0,1,2.681-1.694,26.091,26.091,0,0,0,3.581-.006,5.66,5.66,0,0,1,4.27,1.475q1.438,1.21,2.937,2.35a17.078,17.078,0,0,0,9.672,3.311,6.322,6.322,0,0,0,3.143-.561,2.49,2.49,0,0,0,.62-4.365,8.071,8.071,0,0,0-2.661-1.439,51.657,51.657,0,0,0-4.988-1.425,48.134,48.134,0,0,1-12.47-4.845,13.818,13.818,0,0,1-6.84-8.579A13.139,13.139,0,0,1,786.87,161.9c4.358-2.665,9.157-3.26,14.146-2.784a15.072,15.072,0,0,1,7.875,3.146,7.128,7.128,0,0,0,1.687.994,2,2,0,0,0,2.995-1.449,2.212,2.212,0,0,1,2.32-1.809c1.791-.014,3.583-.068,5.374-.033,1.707.033,2.369.705,2.411,2.411.04,1.671.008,3.344.009,5.016" transform="translate(179.705 1050.41)" fill="#fff"/>
    <path id="Trazado_243623" data-name="Trazado 243623" d="M762.863,158.539c4.239,0,8.478-.007,12.716,0,2.208,0,2.768.55,2.785,2.72q.027,3.492,0,6.985c-.017,2.157-.6,2.717-2.8,2.745-1.194.016-2.39.044-3.582-.007-.834-.036-1.176.22-1.144,1.109.06,1.669.016,3.342.016,5.014q0,7.791,0,15.582c0,2.01-.221,1.855,1.781,1.866,1.134.007,2.27-.032,3.4.014,1.606.064,2.289.721,2.315,2.323q.068,3.939,0,7.88c-.03,1.6-.718,2.252-2.348,2.256q-13.164.025-26.328,0c-1.564,0-2.2-.609-2.234-2.158q-.082-4.027,0-8.059c.029-1.551.662-2.165,2.192-2.236,1.192-.056,2.388-.006,3.582-.019,2.216-.022,2.046.284,2.049-1.972q.012-8.6,0-17.194,0-1.343,0-2.686c0-1.789.129-1.7-1.79-1.707-1.194,0-2.388.024-3.581-.01-1.869-.052-2.44-.617-2.464-2.513q-.049-3.761,0-7.522c.029-1.862.607-2.4,2.53-2.407,4.3-.016,8.6-.005,12.895-.005" transform="translate(179.705 1050.41)" fill="#fff"/>
    <path id="Trazado_243624" data-name="Trazado 243624" d="M826.565,210.17c-.366,1.151-.667,2.169-1.019,3.169-.189.539-.193.926.465,1.067a46.792,46.792,0,0,1,8.2,2.516c.606.252.866-.115,1.147-.525a52.534,52.534,0,0,0,2.974-4.893c.833-1.559.837-1.557,3-1.329a44.4,44.4,0,0,1-4.46,7.911,22.882,22.882,0,0,1,5.913,4.413,47.432,47.432,0,0,0,6.366-6.079,32.046,32.046,0,0,0,3.918-5.109c.8-1.381,1.815-1.461,3.341-1.1a54.219,54.219,0,0,1-15.692,16.583,52.929,52.929,0,0,1-28.656,9.513c-23.395.817-40.69-12.931-48.139-26.022,2.061-.488,2.06-.488,3.177,1.133a54.508,54.508,0,0,0,9.319,10.357c.682.589,1.108.643,1.749-.049a20.149,20.149,0,0,1,5.1-3.613,56.462,56.462,0,0,1-4.441-7.753c1.849-.622,2.059-.543,2.924,1.052q1.368,2.519,2.972,4.894c.379.558.708.852,1.45.536a39.229,39.229,0,0,1,7.685-2.354c.931-.187.945-.641.664-1.389a9.14,9.14,0,0,1-.783-2.886c2.02-.31,2.02-.31,2.579,1.437.019.057.027.116.045.173.624,1.945.622,1.93,2.659,1.676a70.652,70.652,0,0,1,8.738-.715c.926,0,1.263-.278,1.223-1.217-.024-.555-.395-1.386.681-1.532,1.158-.157,1.466.039,1.45,1.3-.021,1.665.313,1.4,1.545,1.44a66.166,66.166,0,0,1,9.259.887c.88.152,1.372-.007,1.561-.9a10.528,10.528,0,0,1,.33-1.021c.568-1.757.568-1.757,2.756-1.564" transform="translate(179.705 1050.41)" fill="#fff"/>
    <path id="Trazado_243625" data-name="Trazado 243625" d="M778.745,154.862a40.456,40.456,0,0,1,3.967-7.009c.5-.708.458-1.07-.351-1.491a14.964,14.964,0,0,1-4.177-3.05c-.636-.69-1.071-.682-1.759-.081a55.039,55.039,0,0,0-8.066,8.618,9.732,9.732,0,0,0-1.136,1.606,2.448,2.448,0,0,1-3.2,1.45c.608-2.531,6.147-9.257,11.128-13.43a54.085,54.085,0,0,1,63.925-4.346A54.023,54.023,0,0,1,856.4,154.788a2.64,2.64,0,0,1-3.434-1.22,46.791,46.791,0,0,0-8.631-9.776,4.916,4.916,0,0,0-1.636-1.184,22.751,22.751,0,0,1-5.771,4.292,59.118,59.118,0,0,1,4.371,7.8c-2.042.557-2.05.561-2.924-1.094a51.994,51.994,0,0,0-3.065-5.051c-.3-.439-.58-.67-1.17-.418a60.444,60.444,0,0,1-8.738,2.687c.186,1.438.935,2.647,1.029,3.987a2.167,2.167,0,0,1-1.1.184,1.047,1.047,0,0,1-1.3-.887c-.161-.635-.4-1.25-.581-1.88-.186-.653-.5-.986-1.27-.871a67.849,67.849,0,0,1-10.164.87c-.578,0-.91.214-.886.836.009.238.005.478-.007.716-.064,1.2-.2,1.29-1.36,1.222-.631-.037-.843-.32-.811-.9a5.343,5.343,0,0,0,0-.537c-.063-1.283-.064-1.317-1.262-1.341a61.983,61.983,0,0,1-6.432-.431c-1.126-.14-2.256-.254-3.373-.444a.876.876,0,0,0-1.165.757c-.1.4-.257.794-.385,1.192-.595,1.848-.594,1.849-2.629,1.521.108-1.324.786-2.5,1.017-3.793-.211-.484-.7-.4-1.067-.492a45.108,45.108,0,0,1-7.336-2.3,1.089,1.089,0,0,0-1.61.48c-.975,1.5-1.939,3.011-2.785,4.593-.95,1.775-.955,1.772-3.184,1.557" transform="translate(179.705 1050.41)" fill="#fefeff"/>
    <path id="Trazado_243626" data-name="Trazado 243626" d="M964.1,179.812c-.006-.4.069-.9-.469-1.041a3.459,3.459,0,0,0-1.945.009c-.588.186-.246.867-.612,1.334-4.4-2.647-8.255-2.36-11.082.773a8.551,8.551,0,0,0-.559,10.312,7.493,7.493,0,0,0,4.31,3.03,7.725,7.725,0,0,0,7.215-1.547,1.406,1.406,0,0,1,.181,1.2c-.858,3.522-5.475,5.116-8.153,2.662a3.772,3.772,0,0,0-3.736-.915,2.95,2.95,0,0,0,.914,1.948c2.174,2.593,5.057,3.058,8.142,2.427a6.834,6.834,0,0,0,5.471-5.526,11.539,11.539,0,0,0,.335-2.838c-.013-2.509,0-5.018,0-7.528,0-1.433.006-2.867-.012-4.3m-7.881,12.073a5.369,5.369,0,0,1-5.349-5.542,5.237,5.237,0,1,1,10.469.185,5.313,5.313,0,0,1-5.12,5.357" transform="translate(179.705 1050.41)" fill="#144677"/>
    <path id="Trazado_243627" data-name="Trazado 243627" d="M927.488,173.274a10.525,10.525,0,0,0-10.632,10.521c-.012,6.642,5.314,10.99,10.361,10.737a10.631,10.631,0,0,0,.271-21.258m-.327,18.332c-4.174-.068-7.233-3.477-7.151-7.968a7.466,7.466,0,0,1,7.372-7.431,7.6,7.6,0,0,1,7.365,7.842,7.438,7.438,0,0,1-7.586,7.557" transform="translate(179.705 1050.41)" fill="#144677"/>
    <path id="Trazado_243628" data-name="Trazado 243628" d="M989.9,229.5q.006-8.865-.005-17.73c0-1.365-.146-1.475-1.387-1.478-1.261,0-1.4.111-1.417,1.446-.026,1.644-.006,3.29-.006,5.238-2.09-1.423-4.036-2.237-6.273-2a7.767,7.767,0,0,0-5.446,3.1,8.564,8.564,0,0,0,.007,10.038,7.95,7.95,0,0,0,11.449,1.231c.122.288.177.392.21.5.313,1.033.712,1.21,1.967,1.081.985-.1.9-.778.9-1.431m-8.1-.976a5.272,5.272,0,0,1-5.15-5.51,5.189,5.189,0,0,1,5.329-5.295,5.406,5.406,0,0,1-.179,10.8" transform="translate(179.705 1050.41)" fill="#144677"/>
    <path id="Trazado_243629" data-name="Trazado 243629" d="M1035.457,228.671q0-8.058,0-16.114c0-.476-.009-.954-.024-1.431-.007-.241-.039-.513-.269-.626a2.71,2.71,0,0,0-2.085-.076c-.577.193-.429.79-.436,1.245-.02,1.311.006,2.625-.02,3.938-.008.376.176.844-.3,1.1-4.66-2.591-8.237-2.248-11.119,1.056a8.5,8.5,0,0,0-.3,10.3c2.683,3.5,6.461,3.979,11.495,1.457.04.035.1.064.116.107.4,1.277.668,1.413,1.986,1.3,1.252-.1.889-1.019.961-1.728a5.321,5.321,0,0,0,0-.537m-7.989-.145a5.279,5.279,0,0,1-5.253-5.588,5.241,5.241,0,1,1,5.253,5.588" transform="translate(179.705 1050.41)" fill="#144677"/>
    <path id="Trazado_243630" data-name="Trazado 243630" d="M954.73,217.039c-.007-1.6-.527-1.935-2.086-1.73-.972.127-.524,1.077-.986,1.447-4.974-2.624-8.9-2.162-11.514,1.325a8.511,8.511,0,0,0,.4,10.44c2.993,3.276,6.858,3.605,11.045.863.523.487.087,1.41,1.063,1.55,1.548.224,2.076-.131,2.082-1.729q.023-6.083,0-12.166m-7.966,11.489a5.206,5.206,0,0,1-5.272-5.362,5.152,5.152,0,0,1,5.156-5.443,5.4,5.4,0,0,1,.116,10.8" transform="translate(179.705 1050.41)" fill="#144677"/>
    <path id="Trazado_243631" data-name="Trazado 243631" d="M1008.533,217.037c-.005-1.652-.415-1.912-2.042-1.733-.991.109-.62,1-1,1.424-5.063-2.533-8.828-2.134-11.422,1.192a8.575,8.575,0,0,0,.267,10.6c2.944,3.234,6.675,3.563,11.1.884.464,1.412.464,1.412,1.06,1.514,1.617.276,2.031-.054,2.035-1.71q.018-6.084,0-12.169m-7.982,11.49a5.249,5.249,0,0,1-5.266-5.557,5.164,5.164,0,0,1,5.363-5.247,5.286,5.286,0,0,1,5.1,5.548,5.232,5.232,0,0,1-5.2,5.256" transform="translate(179.705 1050.41)" fill="#144677"/>
    <path id="Trazado_243632" data-name="Trazado 243632" d="M1006.668,143.7c-.007-1.589-.361-1.777-1.938-1.682-.958.057-.72.957-1.167,1.314-4.948-2.521-8.667-2.146-11.3,1.114a8.68,8.68,0,0,0-.142,10.321,8.017,8.017,0,0,0,4.766,2.937,8.147,8.147,0,0,0,6.647-1.693c.141.178.242.254.273.353.356,1.107.563,1.193,1.731,1.148.924-.035,1.045-.608,1.094-1.3.022-.3.043-.6.043-.892,0-3.872.016-7.745,0-11.617m-8,11.4a5.072,5.072,0,0,1-5.235-5.343,5.216,5.216,0,0,1,5.16-5.457,5.439,5.439,0,0,1,5.308,5.408,5.226,5.226,0,0,1-5.233,5.392" transform="translate(179.705 1050.41)" fill="#144677"/>
    <path id="Trazado_243633" data-name="Trazado 243633" d="M952.831,150.767c3.165-.038,6.33,0,9.495-.026,1.438-.011,1.5-.116,1.477-1.555a7.957,7.957,0,0,0-8.975-7.6,7.656,7.656,0,0,0-6.64,5.971,7.994,7.994,0,0,0,2.842,8.682c4.031,3.257,10.572,1.59,12.1-3.565a3.784,3.784,0,0,0-3.926,1.116c-2.019,2.171-5.83,1.633-7.516-.853-.363-.536-.886-1.173-.629-1.789.31-.741,1.164-.376,1.768-.384m-1.609-3.345a5.021,5.021,0,0,1,5.077-3.155,4.4,4.4,0,0,1,4.212,3.954c-2.919,0-5.817,0-8.714,0-.549,0-.729-.259-.575-.8" transform="translate(179.705 1050.41)" fill="#144677"/>
    <path id="Trazado_243634" data-name="Trazado 243634" d="M1035.7,180.152c-.01-1.379-.221-1.439-1.59-1.507-1.1-.056-1.235.635-1.33,1.6-4.478-2.793-8.361-2.519-11.213.629a8.558,8.558,0,0,0-.491,10.449,7.549,7.549,0,0,0,4.537,2.987,7.663,7.663,0,0,0,6.817-1.579c.2.18.322.239.365.332.468,1.018.874,1.2,2.026,1.069.983-.11.884-.815.886-1.453.01-4.177.022-8.353-.007-12.53m-8.02,11.738a5.322,5.322,0,0,1-5.2-5.643,5.017,5.017,0,0,1,5.375-5.172,5.278,5.278,0,0,1,5.093,5.548,5.46,5.46,0,0,1-5.267,5.267" transform="translate(179.705 1050.41)" fill="#144677"/>
    <path id="Trazado_243635" data-name="Trazado 243635" d="M982.724,192.336c.035-4,.027-8,.013-12-.005-1.62-.171-1.647-1.731-1.7-1.152-.039-1.011.879-1.283,1.49-4.572-2.693-8.36-2.371-11.216.88a8.568,8.568,0,0,0-.268,10.458c2.706,3.435,6.425,3.888,11.371,1.387a1.8,1.8,0,0,0,2.415,1.246c1.065-.256.693-1.133.7-1.764m-7.95-.452a5.369,5.369,0,0,1-5.283-5.6,5.1,5.1,0,0,1,5.378-5.209,5.163,5.163,0,0,1,5.09,5.516,5.33,5.33,0,0,1-5.185,5.292" transform="translate(179.705 1050.41)" fill="#144677"/>
    <path id="Trazado_243636" data-name="Trazado 243636" d="M1073.4,143.658c-.007-1.53-.277-1.645-1.8-1.648-1.03,0-.955.84-1.24,1.385-4.771-2.649-8.584-2.25-11.367,1.108a8.635,8.635,0,0,0,.038,10.474c2.74,3.258,6.638,3.641,11.284,1.1.53.3-.012,1.185.81,1.4,1.512.394,2.273-.09,2.278-1.635q.021-6.091,0-12.182m-7.893,11.444a5.14,5.14,0,0,1-5.344-5.439,5.225,5.225,0,0,1,5.264-5.365,5.369,5.369,0,0,1,5.2,5.491,5.188,5.188,0,0,1-5.121,5.313" transform="translate(179.705 1050.41)" fill="#144677"/>
    <path id="Trazado_243637" data-name="Trazado 243637" d="M1071.727,229.075c.034-4.062.027-8.124.011-12.187a1.558,1.558,0,0,0-2.378-1.479c-.563.273-.224,1.042-.771,1.285-4.344-2.575-8.369-2.158-11.117,1.136a8.476,8.476,0,0,0,.068,10.6c2.743,3.212,6.9,3.639,11.108,1.038.586,1.423.983,1.654,2.244,1.449,1.215-.2.83-1.153.835-1.84m-7.854-.547a5.429,5.429,0,0,1-5.364-5.55,5.3,5.3,0,0,1,5.254-5.255,5.4,5.4,0,0,1,.11,10.8" transform="translate(179.705 1050.41)" fill="#144677"/>
    <path id="Trazado_243638" data-name="Trazado 243638" d="M1030.969,141.466c-4.234-.066-7.995,3.8-8,8.225a8.02,8.02,0,1,0,16.034-.051,8.223,8.223,0,0,0-8.038-8.174m.092,13.614c-2.749.228-5.183-2.153-5.2-5.4a5.137,5.137,0,1,1,10.257.047,5.113,5.113,0,0,1-5.062,5.351" transform="translate(179.705 1050.41)" fill="#144677"/>
    <path id="Trazado_243639" data-name="Trazado 243639" d="M1096.17,214.9a8.221,8.221,0,0,0-.079,16.432,8.217,8.217,0,0,0,.079-16.432m0,13.617a5.409,5.409,0,1,1,5.142-5.307,5.145,5.145,0,0,1-5.142,5.307" transform="translate(179.705 1050.41)" fill="#144677"/>
    <path id="Trazado_243640" data-name="Trazado 243640" d="M1060.038,178.254a8.174,8.174,0,0,0-.019,16.345,8.279,8.279,0,0,0,8.025-8.379c-.022-4.54-4.048-8.216-8.006-7.966m.018,13.612a5.479,5.479,0,1,1,5.111-5.56,5.252,5.252,0,0,1-5.111,5.56" transform="translate(179.705 1050.41)" fill="#144677"/>
    <path id="Trazado_243641" data-name="Trazado 243641" d="M1110.73,178.208a8.324,8.324,0,0,0-8.292,7.905c-.116,4.022,3.079,8.428,7.865,8.489a8.132,8.132,0,0,0,8.057-8.088c.325-4.42-3.649-8.175-7.63-8.306m-2.1,13.315a5.449,5.449,0,0,1-3.244-5.976,5.222,5.222,0,0,1,4.572-4.581,5.042,5.042,0,0,1,5.207,3.291,5.989,5.989,0,0,1,.306,2.111,5.069,5.069,0,0,1-6.841,5.155" transform="translate(179.705 1050.41)" fill="#144677"/>
    <path id="Trazado_243642" data-name="Trazado 243642" d="M857.555,183.625a41.756,41.756,0,0,1-.584,6.721,16.89,16.89,0,0,1-.438,1.732c-1.36,4.223-4.427,5.22-8.31,4.384a5.192,5.192,0,0,1-3.539-3.047,13.084,13.084,0,0,1-1.244-4.638,46.423,46.423,0,0,1,.235-12.3,13.405,13.405,0,0,1,.668-2.4,5.725,5.725,0,0,1,5.99-4.144c3.15,0,5.1,1.389,6.135,4.463a16.382,16.382,0,0,1,.694,2.952,49.571,49.571,0,0,1,.393,6.28" transform="translate(179.705 1050.41)" fill="#1e447f"/>
    <path id="Trazado_243643" data-name="Trazado 243643" d="M796.308,232.208c5.508-5.766,23.135-5.3,27.411-.018-7.444,2.542-18.943,2.68-27.411.018" transform="translate(179.705 1050.41)" fill="#1e447f"/>
    <path id="Trazado_243644" data-name="Trazado 243644" d="M822.2,216.116a31.164,31.164,0,0,1-5.576,9.307,1.812,1.812,0,0,1-2.015.719,8.308,8.308,0,0,0-2.308-.2c-.96.016-1.2-.43-1.185-1.314.041-2.861.025-5.723.009-8.584,0-.679.087-1.155.95-1.118a72.824,72.824,0,0,1,9.6.906,2.2,2.2,0,0,1,.526.286" transform="translate(179.705 1050.41)" fill="#1f457f"/>
    <path id="Trazado_243645" data-name="Trazado 243645" d="M797.938,216.092a7.484,7.484,0,0,1,3-.607c2.238-.327,4.5-.423,6.752-.559.851-.051,1.3.115,1.285,1.131-.057,2.914-.046,5.83,0,8.745.013.881-.356,1.15-1.162,1.134a5.623,5.623,0,0,0-1.773.134,2.469,2.469,0,0,1-2.906-1.046,33.07,33.07,0,0,1-5.193-8.932" transform="translate(179.705 1050.41)" fill="#1e447f"/>
    <path id="Trazado_243646" data-name="Trazado 243646" d="M786.739,218.984a44.986,44.986,0,0,1,8.207-2.562c.619-.151.857.184,1.055.674a36.588,36.588,0,0,0,5.726,9.716c-1.159.456-2.205.844-3.231,1.28a1.572,1.572,0,0,1-1.513-.205,36.052,36.052,0,0,1-10.244-8.9" transform="translate(179.705 1050.41)" fill="#1f447f"/>
    <path id="Trazado_243647" data-name="Trazado 243647" d="M818.355,226.809a35.242,35.242,0,0,0,5.767-9.669c.233-.568.505-.856,1.2-.688a47.694,47.694,0,0,1,7.78,2.391c.185.334-.005.51-.145.68a36.685,36.685,0,0,1-9.407,8.166,2.27,2.27,0,0,1-2.489.151,23.467,23.467,0,0,0-2.707-1.031" transform="translate(179.705 1050.41)" fill="#1e447f"/>
    <path id="Trazado_243648" data-name="Trazado 243648" d="M779.21,223.76a17.084,17.084,0,0,1,4.795-3.565.732.732,0,0,1,1.072.215c.369.467.757.919,1.151,1.366a38.228,38.228,0,0,0,8.348,7.218c.295.185.658.3.828.677-.028.08-.035.2-.1.266-1.654,1.6-1.652,1.594-3.785.781a51.1,51.1,0,0,1-10.723-5.627,4.767,4.767,0,0,1-1.586-1.331" transform="translate(179.705 1050.41)" fill="#1f457f"/>
    <path id="Trazado_243649" data-name="Trazado 243649" d="M824.683,229.833c.161-.478.514-.611.813-.8a38.814,38.814,0,0,0,9.088-8.041c.937-1.115.635-1.315,2.294-.377a16.833,16.833,0,0,1,3.6,2.645c.464.457.409.754-.107,1.124a53.294,53.294,0,0,1-13.133,6.861,1.165,1.165,0,0,1-1.429-.346c-.353-.4-.769-.736-1.123-1.068" transform="translate(179.705 1050.41)" fill="#1f457f"/>
    <path id="Trazado_243650" data-name="Trazado 243650" d="M796.059,132.79a52.723,52.723,0,0,1,27.895-.047,6.079,6.079,0,0,1-2.317,1.782,23.159,23.159,0,0,1-9.108,2.392,27.245,27.245,0,0,1-13.136-1.963,11.412,11.412,0,0,1-3.334-2.164" transform="translate(179.705 1050.41)" fill="#1e447f"/>
    <path id="Trazado_243651" data-name="Trazado 243651" d="M822.006,149.14a64.248,64.248,0,0,1-9.692.914c-.763.012-1.218-.1-1.2-1.048.05-2.916.033-5.834.008-8.751-.006-.718.167-1.145.979-1.1a4.959,4.959,0,0,0,.887-.089c3.053-.38,3.058-.385,4.9,2.025a32.21,32.21,0,0,1,4.028,7.13,1.012,1.012,0,0,1,.095.916" transform="translate(179.705 1050.41)" fill="#1f457f"/>
    <path id="Trazado_243652" data-name="Trazado 243652" d="M797.891,149.1a30.126,30.126,0,0,1,5.758-9.645,1.787,1.787,0,0,1,1.749-.6c1.116.172,2.244.263,3.42.4a12.93,12.93,0,0,1,.132,3.2c.027,2.147-.042,4.3.03,6.441.033.995-.366,1.189-1.248,1.167a68.6,68.6,0,0,1-9.841-.958" transform="translate(179.705 1050.41)" fill="#1e447f"/>
    <path id="Trazado_243653" data-name="Trazado 243653" d="M818.376,138.237c1.282-.51,2.338-.9,3.364-1.35a1.355,1.355,0,0,1,1.333.2A35.4,35.4,0,0,1,833.37,146a26.571,26.571,0,0,1-5.623,1.94c-1.028.266-2.149.956-3.093.539-.877-.387-.966-1.687-1.394-2.586a34.658,34.658,0,0,0-4.884-7.656" transform="translate(179.705 1050.41)" fill="#1e447f"/>
    <path id="Trazado_243654" data-name="Trazado 243654" d="M801.788,138.215A35.072,35.072,0,0,0,796,147.924c-.214.517-.506.776-1.083.643a39.657,39.657,0,0,1-7.893-2.429c-.067-.556.262-.774.48-1.03a37.067,37.067,0,0,1,8.892-7.662,2.446,2.446,0,0,1,2.788-.236,18.133,18.133,0,0,0,2.607,1" transform="translate(179.705 1050.41)" fill="#1e447f"/>
    <path id="Trazado_243655" data-name="Trazado 243655" d="M840.921,141.258a17.031,17.031,0,0,1-4.625,3.483.91.91,0,0,1-1.364-.274,38.507,38.507,0,0,0-10.112-8.912.5.5,0,0,1,.085-.559c1.534-1.543,1.536-1.548,3.65-.733a52.165,52.165,0,0,1,10.91,5.742,4.326,4.326,0,0,1,1.456,1.253" transform="translate(179.705 1050.41)" fill="#1f457f"/>
    <path id="Trazado_243656" data-name="Trazado 243656" d="M779.157,141.133a45.123,45.123,0,0,1,8.715-5.267c1.505-.707,3.081-1.259,4.594-1.948a1.514,1.514,0,0,1,2.151.482,3.277,3.277,0,0,0,.786.647.9.9,0,0,1-.526.782,37.483,37.483,0,0,0-9.436,8.365c-.6.742-1.083.909-1.911.385a16.112,16.112,0,0,1-4.373-3.446" transform="translate(179.705 1050.41)" fill="#1f457f"/>
    <path id="Trazado_244944" data-name="Trazado 244944" d="M809.757,250.711q-36.113,0-72.224,0c-2.669,0-2.531.278-2.532-2.5q0-64.072,0-128.141c0-2.436,0-2.441,2.443-2.441H882.072c2.743,0,2.527-.114,2.527,2.532q0,64.071,0,128.14c0,2.634.125,2.414-2.44,2.414q-36.2,0-72.4,0" transform="translate(179.705 1050.41)" fill="#1e447f"/>
    <path id="Trazado_244945" data-name="Trazado 244945" d="M900.248,184.066q0-25.623,0-51.245c0-.537.014-1.075.013-1.612,0-.768.413-1.043,1.137-1.024a.886.886,0,0,1,.984,1c.005.478.017.956.017,1.433q0,51.6,0,103.207c0,.418-.015.836-.006,1.254.015.723-.269,1.1-1.053,1.094-.758,0-1.1-.32-1.084-1.068.011-.537-.009-1.075-.009-1.612V184.066" transform="translate(179.705 1050.41)" fill="#144677"/>
    <path id="Trazado_244946" data-name="Trazado 244946" d="M923.046,231.308a5.89,5.89,0,0,1-6.2-4.927c-.068-.559-.27-1.323.632-1.381.7-.045,1.609-.426,1.946.683a6.189,6.189,0,0,0,.378,1,3.072,3.072,0,0,0,3.231,1.752,3.448,3.448,0,0,0,1.525-6.186,15.745,15.745,0,0,0-3.333-1.269,5.458,5.458,0,0,1-3.856-4.3,5.783,5.783,0,0,1,2.841-6.069,5.644,5.644,0,0,1,6.746,1.026,5.131,5.131,0,0,1,1.151,2.2c.144.545.476,1.193-.29,1.557a1.98,1.98,0,0,1-2.337-.635c-.113-.207-.158-.453-.276-.657a2.585,2.585,0,0,0-2.865-1.345,2.787,2.787,0,0,0-2.186,2.324,2.526,2.526,0,0,0,1.245,2.739,8.609,8.609,0,0,0,1.481.616c.674.238,1.377.4,2.037.668a6.473,6.473,0,0,1,1.911,10.642,6.08,6.08,0,0,1-3.782,1.567" transform="translate(179.705 1050.41)" fill="#144677"/>
    <path id="Trazado_244947" data-name="Trazado 244947" d="M1109.511,216.837a5.8,5.8,0,0,1,4.88-1.652,5.44,5.44,0,0,1,5.3,4.705c.542,3.32.23,6.676.265,10.017.011,1.054-.782,1.013-1.519,1.029s-1.289-.145-1.283-1.063c.016-2.21-.014-4.42,0-6.63a10.372,10.372,0,0,0-.329-2.837,3.231,3.231,0,0,0-3.217-2.607,3.409,3.409,0,0,0-3.67,2.263,9.3,9.3,0,0,0-.57,3.335c0,2.031.013,4.062-.015,6.092a1.486,1.486,0,0,1-2.311,1.326.812.812,0,0,1-.464-.7,8.877,8.877,0,0,1-.039-.894c0-4.061-.013-8.123,0-12.184.006-1.58.414-1.919,1.915-1.707.6.085.6.085,1.058,1.511" transform="translate(179.705 1050.41)" fill="#144677"/>
    <path id="Trazado_244948" data-name="Trazado 244948" d="M960.824,216.829a5.974,5.974,0,0,1,4.93-1.642,5.4,5.4,0,0,1,5.06,3.863,8.154,8.154,0,0,1,.443,2.458c0,2.687.013,5.373,0,8.06,0,.454.141,1.05-.443,1.238a2.545,2.545,0,0,1-2.08-.089c-.417-.238-.288-.751-.29-1.155-.014-2.329-.013-4.657-.014-6.986a7.162,7.162,0,0,0-.354-2.467,3.245,3.245,0,0,0-3.251-2.316,3.42,3.42,0,0,0-3.475,2.036,6.531,6.531,0,0,0-.528,2.795c-.019,2.328-.041,4.656-.036,6.985,0,.864-.291,1.325-1.241,1.335-1.322.015-1.555-.128-1.561-1.5q-.03-6.269,0-12.538c0-.682-.184-1.488.93-1.587,1.166-.1,1.4.026,1.909,1.514" transform="translate(179.705 1050.41)" fill="#144677"/>
    <path id="Trazado_244949" data-name="Trazado 244949" d="M977.653,143.324a6.182,6.182,0,0,1,5.831-1.389,5.464,5.464,0,0,1,4.3,4.722,67.457,67.457,0,0,1,.229,9.662c-.01,1.066-.29,1.175-1.52,1.2-.912.015-1.29-.338-1.278-1.256.028-2.15-.005-4.3.006-6.45a10.362,10.362,0,0,0-.291-2.662,3.334,3.334,0,0,0-3.3-2.748,3.419,3.419,0,0,0-3.708,2.471,10.443,10.443,0,0,0-.485,3.352c.017,2.03,0,4.061-.011,6.091,0,.4.065.928-.432,1.069a2.512,2.512,0,0,1-2.081-.088c-.485-.319-.3-.991-.3-1.516-.01-4-.019-8,.008-12,.005-.647-.3-1.507.783-1.714,1.142-.219,1.649.026,2.256,1.263" transform="translate(179.705 1050.41)" fill="#144677"/>
    <path id="Trazado_244950" data-name="Trazado 244950" d="M988.885,179.963a11.927,11.927,0,0,1,2.29-1.272c3.979-1.219,7.654,1.085,7.994,5.272.245,3.028.076,6.089.107,9.136.01,1.09-.742,1.017-1.474,1.042-.825.028-1.385-.141-1.372-1.162.034-2.39.006-4.78,0-7.17a6.74,6.74,0,0,0-.344-2.469,3.739,3.739,0,0,0-6.745-.124,7.237,7.237,0,0,0-.515,2.8c0,2.21,0,4.421-.029,6.631a1.574,1.574,0,0,1-2.448,1.35c-.495-.312-.367-.845-.37-1.3-.015-2.151-.008-4.3-.008-6.452,0-1.972-.026-3.944.016-5.915.013-.587-.3-1.382.657-1.622,1.051-.264,1.635.035,2.241,1.257" transform="translate(179.705 1050.41)" fill="#144677"/>
    <path id="Trazado_244951" data-name="Trazado 244951" d="M927.11,143.368a6.307,6.307,0,0,1,5.112-1.587,5.47,5.47,0,0,1,4.969,4.238,10.81,10.81,0,0,1,.375,2.831c-.022,2.269,0,4.538-.006,6.806-.007,1.763-.068,1.832-1.376,1.845-1.356.013-1.446-.079-1.457-1.764-.015-2.149-.008-4.3-.008-6.448a7.456,7.456,0,0,0-.287-2.3,3.279,3.279,0,0,0-3.417-2.589,3.351,3.351,0,0,0-3.531,2.462,14.18,14.18,0,0,0-.526,4.246c-.039,1.67.012,3.343-.023,5.014-.025,1.228-.2,1.37-1.321,1.376s-1.332-.137-1.339-1.349c-.024-4.239-.015-8.478,0-12.717,0-.574-.093-1.219.77-1.371,1.065-.186,1.535.046,2.069,1.3" transform="translate(179.705 1050.41)" fill="#144677"/>
    <path id="Trazado_244952" data-name="Trazado 244952" d="M1044.4,143.346a6.014,6.014,0,0,1,4.936-1.57,5.481,5.481,0,0,1,5.084,4.327,11.281,11.281,0,0,1,.359,2.835c-.02,2.149,0,4.3,0,6.447,0,2.056-.058,2.131-1.466,2.117-1.329-.013-1.368-.064-1.375-2.031q-.012-3.133,0-6.268a7.326,7.326,0,0,0-.272-2.122,3.648,3.648,0,0,0-7-.14,12.39,12.39,0,0,0-.507,3.71c0,1.79.017,3.583-.012,5.372-.022,1.362-.179,1.5-1.393,1.476-1.122-.021-1.262-.124-1.27-1.427q-.038-6.179,0-12.358c0-.654-.248-1.5.854-1.657s1.457.031,2.068,1.289" transform="translate(179.705 1050.41)" fill="#144677"/>
    <path id="Trazado_244953" data-name="Trazado 244953" d="M1073.464,179.927a6.481,6.481,0,0,1,5.65-1.331,5.46,5.46,0,0,1,4.39,4.409,16.636,16.636,0,0,1,.313,4.094c-.011,1.849.015,3.7-.01,5.548-.019,1.363-.153,1.481-1.383,1.488-1.272.008-1.428-.112-1.445-1.419-.028-2.267-.02-4.534-.008-6.8a7.377,7.377,0,0,0-.359-2.466,3.061,3.061,0,0,0-3.058-2.292c-1.875-.1-2.993.478-3.66,1.959a10.654,10.654,0,0,0-.688,4.209c-.044,1.789.007,3.581-.024,5.371-.023,1.292-.948,1.845-2.146,1.357a.829.829,0,0,1-.5-.854c-.025-.6-.027-1.193-.027-1.789,0-3.759-.013-7.52.01-11.279a1.485,1.485,0,0,1,2.293-1.345c.413.224.18.791.654,1.142" transform="translate(179.705 1050.41)" fill="#144677"/>
    <path id="Trazado_244954" data-name="Trazado 244954" d="M1047.148,227.9c.468.45.966.295,1.416.3,1.371.024,2.743-.01,4.114.017a1.486,1.486,0,0,1,1.339,2.294.9.9,0,0,1-.916.411c-2.922.009-5.844,0-8.766.005-.693,0-.9-.384-.943-1.02a3.413,3.413,0,0,1,.74-2.318c1.769-2.472,3.5-4.976,5.238-7.469.273-.391.565-.771.806-1.181.469-.8.358-1.028-.616-1.066-1.37-.053-2.743-.035-4.114-.032-.751,0-1.049-.364-1.07-1.1-.03-1.119.146-1.4,1.277-1.414,2.325-.033,4.651,0,6.977-.01.723,0,1.088.271,1.106,1.046a4.489,4.489,0,0,1-.787,3.021c-1.674,2.246-3.239,4.573-4.834,6.878a5.478,5.478,0,0,0-.967,1.635" transform="translate(179.705 1050.41)" fill="#144677"/>
    <path id="Trazado_244955" data-name="Trazado 244955" d="M1014.426,181.2c-1.668,0-3.2.019-4.74-.006-1.366-.022-1.674-.432-1.468-1.736.079-.5.313-.765.8-.767q3.854-.011,7.706,0a.722.722,0,0,1,.81.752,4.361,4.361,0,0,1-.61,3.07c-1.733,2.358-3.376,4.782-5.04,7.189a3.941,3.941,0,0,0-.88,1.559c.337.489.859.288,1.295.3,1.553.032,3.106.03,4.66.02.809,0,1.007.466.991,1.156-.015.669.055,1.386-.933,1.388-2.927.005-5.855,0-8.782.012-.8,0-.984-.452-1.015-1.149a3.35,3.35,0,0,1,.8-2.126q2.784-3.957,5.538-7.936a3.6,3.6,0,0,0,.862-1.721" transform="translate(179.705 1050.41)" fill="#144677"/>
    <path id="Trazado_244956" data-name="Trazado 244956" d="M1096.066,187.511c0-1.73-.009-3.459,0-5.189.005-.675-.143-1.176-.958-1.19-.861-.014-.875-.641-.862-1.263.011-.542-.018-1.156.756-1.166.927-.011.958-.611,1.062-1.312a4.143,4.143,0,0,1,3.968-3.9c.564-.073,1.08-.138,1.269.589a1.554,1.554,0,0,1-.694,1.958,3.371,3.371,0,0,0-1.152.449,1.644,1.644,0,0,0-.552,1.614c.119.651.689.518,1.145.577,1.194.155,1.316.322,1.3,1.385-.011.75-.334,1.014-1.074,1.093-1.36.147-1.375.2-1.381,1.647-.015,2.982-.005,5.964-.006,8.946,0,.358.012.717-.007,1.074-.059,1.188-.188,1.306-1.376,1.314-1.212.008-1.4-.119-1.421-1.258-.036-1.789-.01-3.579-.01-5.368Z" transform="translate(179.705 1050.41)" fill="#144677"/>
    <path id="Trazado_244957" data-name="Trazado 244957" d="M1077.435,210.295c1.186.008,1.315.118,1.359,1.327.031.834.022,1.671.012,2.506-.008.68.167,1.2.978,1.168.945-.036,1.229.436,1.2,1.328-.023.8-.274,1.247-1.129,1.229-1.054-.023-1.057.713-1.056,1.469.006,3.4.015,6.8-.008,10.2-.009,1.291-.191,1.428-1.455,1.41-1.192-.018-1.336-.116-1.346-1.336-.026-3.341,0-6.682-.015-10.023,0-1.389-.006-1.454-1.331-1.727-.841-.173-.828-.7-.842-1.314-.016-.658.1-1.237.928-1.205,1.07.04,1.3-.556,1.255-1.469-.038-.714-.023-1.432,0-2.147.04-1.3.175-1.427,1.448-1.418" transform="translate(179.705 1050.41)" fill="#144677"/>
    <path id="Trazado_244958" data-name="Trazado 244958" d="M932.274,224.235c0-1.667-.019-3.335.008-5,.014-.825-.151-1.423-1.148-1.393-.916.027-1.02-.571-1.035-1.3-.016-.794.237-1.265,1.1-1.231.892.035,1.1-.5,1.074-1.262-.021-.714-.015-1.43,0-2.144.039-1.436.21-1.614,1.481-1.6,1.195.011,1.307.129,1.341,1.524q.027,1.159.006,2.322c-.013.693.192,1.184.988,1.155.958-.036,1.21.469,1.193,1.342-.016.808-.3,1.236-1.139,1.215-1.062-.027-1.047.713-1.046,1.464.006,3.4.015,6.789-.008,10.184-.008,1.315-.18,1.449-1.427,1.431-1.159-.016-1.353-.161-1.378-1.337-.039-1.786-.01-3.573-.01-5.36Z" transform="translate(179.705 1050.41)" fill="#144677"/>
    <path id="Trazado_244959" data-name="Trazado 244959" d="M1010.765,150.973c0-1.668-.009-3.337,0-5.005.006-.782-.069-1.461-1.109-1.4-.9.049-1.074-.49-1.073-1.255s.157-1.312,1.061-1.27c1.031.047,1.138-.608,1.122-1.406-.017-.894.006-1.788.017-2.681.012-.976.724-.937,1.389-.935s1.379-.054,1.39.929c.01.894.033,1.788.017,2.681-.014.792.078,1.459,1.114,1.41.885-.041,1.09.476,1.083,1.25-.006.751-.152,1.319-1.059,1.274-1.011-.051-1.142.572-1.139,1.379q.021,5,0,10.01c-.008,1.467-.14,1.576-1.476,1.553-1.187-.02-1.305-.106-1.327-1.345-.03-1.728-.007-3.456-.007-5.184Z" transform="translate(179.705 1050.41)" fill="#144677"/>
    <path id="Trazado_244960" data-name="Trazado 244960" d="M1039.8,187.623c0-1.73-.016-3.46.007-5.19.01-.782-.223-1.28-1.1-1.231-.906.052-1.08-.485-1.076-1.25,0-.746.127-1.322,1.051-1.269.864.05,1.152-.407,1.126-1.206-.026-.774-.015-1.551.006-2.326.036-1.391.134-1.49,1.364-1.5,1.277-.009,1.4.1,1.439,1.419.024.775.023,1.551.007,2.327-.016.738.12,1.328,1.046,1.275.847-.048,1.148.365,1.148,1.186s-.164,1.414-1.165,1.351c-.944-.06-1.03.574-1.028,1.293q.008,4.384,0,8.769c0,.418.007.835,0,1.253-.035,1.529-.295,1.726-1.8,1.618-.786-.057-1.017-.447-1.013-1.151.012-1.79,0-3.579,0-5.369Z" transform="translate(179.705 1050.41)" fill="#144677"/>
    <path id="Trazado_244961" data-name="Trazado 244961" d="M941.8,151.033c0-1.671-.017-3.342.007-5.013.012-.884-.132-1.546-1.25-1.477-.9.056-1.053-.548-1.068-1.291-.016-.8.256-1.262,1.124-1.221.974.047,1.211-.537,1.19-1.372-.019-.776-.026-1.553.012-2.327.056-1.167.258-1.338,1.4-1.315,1.04.021,1.2.166,1.254,1.263a21.369,21.369,0,0,1,.005,2.148c-.051.962.143,1.65,1.318,1.634.862-.011.858.652.868,1.267.011.654-.106,1.246-.935,1.209-1.1-.048-1.259.583-1.252,1.48.023,2.983.008,5.968.007,8.952,0,.477-.028.956-.006,1.432.041.887-.449,1.112-1.232,1.105-1.129-.01-1.382-.126-1.409-1.1-.05-1.789-.014-3.581-.014-5.371Z" transform="translate(179.705 1050.41)" fill="#144677"/>
    <path id="Trazado_244962" data-name="Trazado 244962" d="M920.765,147.418c0,2.857.01,5.714-.01,8.571,0,.5.2,1.175-.46,1.4a3.136,3.136,0,0,1-2.1-.037c-.292-.109-.329-.473-.337-.775q-.021-.8-.021-1.606,0-8.124.005-16.249c0-1.618.2-1.746,1.7-1.719.936.016,1.234.432,1.227,1.311-.025,3.035-.01,6.071-.01,9.106Z" transform="translate(179.705 1050.41)" fill="#144677"/>
    <path id="Trazado_244963" data-name="Trazado 244963" d="M1123.822,179.855a6.23,6.23,0,0,1,2.432-1.3c.59-.1.874.052.947.692.168,1.472-.009,1.858-1.379,2.354-1.611.582-2.064,1.893-2.118,3.393-.067,1.9-.027,3.812-.032,5.718,0,.715-.033,1.432,0,2.145.045.891-.3,1.29-1.233,1.295-1.411.007-1.6-.111-1.6-1.635-.017-3.4-.006-6.792-.006-10.187,0-.775-.018-1.55.01-2.324.018-.508-.118-1.1.625-1.3a1.817,1.817,0,0,1,2.1.693c.062.1.114.2.254.454" transform="translate(179.705 1050.41)" fill="#144677"/>
    <path id="Trazado_244964" data-name="Trazado 244964" d="M966.314,149.8c0-2.089-.014-4.177.008-6.265.005-.5-.194-1.216.494-1.374s1.577-.5,2.052.443c.277.547.549.52.953.182a3.548,3.548,0,0,1,.735-.506c.584-.274,1.169-.681,1.853-.337.28.141.378,1.78.2,2.243-.153.4-.507.489-.845.572-1.986.485-2.6,1.92-2.612,3.76-.017,2.506,0,5.013-.025,7.519-.016,1.4-.177,1.476-1.568,1.479-.918,0-1.271-.358-1.256-1.272.035-2.147.011-4.3.01-6.444" transform="translate(179.705 1050.41)" fill="#144677"/>
    <path id="Trazado_244965" data-name="Trazado 244965" d="M1014.63,216.673a7.182,7.182,0,0,1,2.079-1.339c.876-.224,1.2-.011,1.286.9.13,1.312.01,1.574-1.284,2.073a3.127,3.127,0,0,0-2.067,3.218c-.03,2.681,0,5.362-.043,8.042-.017,1.2-.213,1.345-1.35,1.371-1.258.028-1.456-.119-1.462-1.4q-.033-6.255,0-12.51c0-.642-.311-1.5.791-1.689,1.131-.191,1.516.032,2.046,1.339" transform="translate(179.705 1050.41)" fill="#144677"/>
    <path id="Trazado_244966" data-name="Trazado 244966" d="M943.247,179.952a6.2,6.2,0,0,1,2.431-1.382c.6-.115.883.046.974.671.2,1.386-.027,1.868-1.341,2.391a3.048,3.048,0,0,0-2,3.076c-.03,2.324-.023,4.648-.033,6.972,0,.417.007.834-.01,1.251-.019.472.026,1.031-.6,1.14a2.743,2.743,0,0,1-1.917-.132c-.4-.237-.3-.746-.3-1.155-.011-1.608-.006-3.217-.006-4.826,0-2.622-.01-5.244.011-7.866.005-.553-.167-1.231.711-1.4,1.047-.2,1.554.045,2.085,1.259" transform="translate(179.705 1050.41)" fill="#144677"/>
    <path id="Trazado_244967" data-name="Trazado 244967" d="M1076.647,147.125c0-2.865-.016-5.73.006-8.6.011-1.384.4-1.672,1.721-1.507.564.072.879.313.9.891.012.3.029.6.029.9q0,8.5,0,17.014c0,1.51-.12,1.63-1.206,1.673-1.238.05-1.428-.1-1.44-1.417-.025-2.984-.008-5.968-.008-8.954" transform="translate(179.705 1050.41)" fill="#144677"/>
    <path id="Trazado_244968" data-name="Trazado 244968" d="M1038.7,222.943c0-2.142-.025-4.284.009-6.426.017-1.065.2-1.187,1.284-1.207,1.2-.023,1.491.149,1.5,1.211q.048,6.6,0,13.209c-.008,1.06-.3,1.231-1.5,1.208-1.086-.022-1.264-.143-1.28-1.212-.033-2.261-.009-4.522-.009-6.783" transform="translate(179.705 1050.41)" fill="#144677"/>
    <path id="Trazado_244969" data-name="Trazado 244969" d="M1005.329,186.564c0,2.089.023,4.177-.009,6.265-.017,1.184-.184,1.3-1.374,1.308s-1.4-.122-1.406-1.278q-.039-6.444,0-12.889c.006-1.186.176-1.3,1.377-1.3,1.222,0,1.388.108,1.405,1.27.031,2.207.009,4.415.009,6.623" transform="translate(179.705 1050.41)" fill="#144677"/>
    <path id="Trazado_244970" data-name="Trazado 244970" d="M1085.708,223.306c0,2.086.021,4.173-.008,6.259-.017,1.211-.214,1.376-1.319,1.372s-1.323-.18-1.33-1.378q-.035-6.438,0-12.876a1.438,1.438,0,0,1,2.217-1.26c.533.284.43.808.433,1.266.013,2.206.006,4.411.006,6.617" transform="translate(179.705 1050.41)" fill="#144677"/>
    <path id="Trazado_244971" data-name="Trazado 244971" d="M1020.5,149.994c0,2.029.024,4.058-.007,6.086-.02,1.29-.156,1.4-1.274,1.418-1.16.018-1.356-.118-1.363-1.315q-.036-6.444,0-12.888c.007-1.089.213-1.234,1.258-1.251,1.135-.019,1.353.144,1.373,1.327.036,2.207.01,4.415.011,6.623" transform="translate(179.705 1050.41)" fill="#144677"/>
    <path id="Trazado_244972" data-name="Trazado 244972" d="M1049.54,186.409c0,2.149.027,4.3-.012,6.447-.019,1.143-.252,1.306-1.418,1.277-1.049-.027-1.2-.131-1.209-1.292q-.036-6.447,0-12.9c.008-1.158.156-1.251,1.223-1.272,1.174-.022,1.384.122,1.4,1.288.039,2.148.012,4.3.012,6.447" transform="translate(179.705 1050.41)" fill="#144677"/>
    <path id="Trazado_244973" data-name="Trazado 244973" d="M1005.338,175.284c-.007,1.453-.127,1.584-1.439,1.575-1.29-.009-1.388-.124-1.38-1.635.008-1.446.137-1.587,1.44-1.578,1.281.009,1.385.133,1.379,1.638" transform="translate(179.705 1050.41)" fill="#144677"/>
    <path id="Trazado_244974" data-name="Trazado 244974" d="M1041.519,211.963c-.017,1.409-.165,1.562-1.488,1.539-1.241-.022-1.353-.162-1.339-1.681.013-1.4.164-1.554,1.483-1.538,1.229.014,1.362.18,1.344,1.68" transform="translate(179.705 1050.41)" fill="#144677"/>
    <path id="Trazado_244975" data-name="Trazado 244975" d="M1083.036,211.709c.037-1.247.25-1.456,1.446-1.425,1.127.029,1.278.252,1.232,1.8-.037,1.278-.216,1.455-1.428,1.419-1.121-.033-1.3-.286-1.25-1.792" transform="translate(179.705 1050.41)" fill="#144677"/>
    <path id="Trazado_244976" data-name="Trazado 244976" d="M1020.508,138.684c-.009,1.311-.208,1.532-1.368,1.527-1.139,0-1.3-.2-1.3-1.582,0-1.42.135-1.6,1.265-1.617,1.218-.023,1.413.21,1.4,1.672" transform="translate(179.705 1050.41)" fill="#144677"/>
    <path id="Trazado_244977" data-name="Trazado 244977" d="M1049.546,175.242c0,1.443-.164,1.634-1.416,1.61-1.131-.021-1.243-.164-1.244-1.591s.112-1.583,1.224-1.609c1.261-.029,1.433.16,1.436,1.59" transform="translate(179.705 1050.41)" fill="#144677"/>
    <path id="Trazado_244978" data-name="Trazado 244978" d="M875.424,182.859a30.73,30.73,0,0,1-1.033,8.414,21.169,21.169,0,0,1-13.35,14.65,29.378,29.378,0,0,1-21.532-.05,20.888,20.888,0,0,1-13.134-14.4,29.137,29.137,0,0,1-.063-16.094c2.16-7.738,7.242-12.793,14.838-15.2a29.379,29.379,0,0,1,18.843.169c9.191,3.175,14.036,9.873,15.219,19.381.147,1.182.164,2.382.212,3.13" transform="translate(179.705 1050.41)" fill="#fff"/>
    <path id="Trazado_244979" data-name="Trazado 244979" d="M823.687,167.4c0,1.553-.011,3.1.005,4.658a4.813,4.813,0,0,1-.761,2.717,2.588,2.588,0,0,1-2.359,1.349c-1.492-.034-2.986-.025-4.478,0a4.718,4.718,0,0,1-2.949-1.135c-1.191-.9-2.317-1.885-3.519-2.768a16.69,16.69,0,0,0-10.223-3.247,6.1,6.1,0,0,0-2.276.417,2.784,2.784,0,0,0-.778,4.9,8.5,8.5,0,0,0,3.409,1.511c2.244.609,4.5,1.166,6.737,1.812a50,50,0,0,1,7.541,2.8,25.391,25.391,0,0,1,4.72,2.895c6.294,4.879,7.215,15.969-.746,21.464a19,19,0,0,1-6.7,2.881,26.325,26.325,0,0,1-8.731.365,13.905,13.905,0,0,1-6.764-2.633,10.312,10.312,0,0,0-2.262-1.434c-1.509-.59-2.6-.15-3.035,1.381a2.367,2.367,0,0,1-2.46,1.907c-1.79.048-3.584.1-5.373.039a2.134,2.134,0,0,1-2.347-2.367c-.059-3.343-.03-6.688,0-10.032a4.606,4.606,0,0,1,.566-2.056,2.662,2.662,0,0,1,2.681-1.694,26.091,26.091,0,0,0,3.581-.006,5.66,5.66,0,0,1,4.27,1.475q1.438,1.21,2.937,2.35a17.078,17.078,0,0,0,9.672,3.311,6.322,6.322,0,0,0,3.143-.561,2.49,2.49,0,0,0,.62-4.365,8.071,8.071,0,0,0-2.661-1.439,51.657,51.657,0,0,0-4.988-1.425,48.134,48.134,0,0,1-12.47-4.845,13.818,13.818,0,0,1-6.84-8.579A13.139,13.139,0,0,1,786.87,161.9c4.358-2.665,9.157-3.26,14.146-2.784a15.072,15.072,0,0,1,7.875,3.146,7.128,7.128,0,0,0,1.687.994,2,2,0,0,0,2.995-1.449,2.212,2.212,0,0,1,2.32-1.809c1.791-.014,3.583-.068,5.374-.033,1.707.033,2.369.705,2.411,2.411.04,1.671.008,3.344.009,5.016" transform="translate(179.705 1050.41)" fill="#fff"/>
    <path id="Trazado_244980" data-name="Trazado 244980" d="M762.863,158.539c4.239,0,8.478-.007,12.716,0,2.208,0,2.768.55,2.785,2.72q.027,3.492,0,6.985c-.017,2.157-.6,2.717-2.8,2.745-1.194.016-2.39.044-3.582-.007-.834-.036-1.176.22-1.144,1.109.06,1.669.016,3.342.016,5.014q0,7.791,0,15.582c0,2.01-.221,1.855,1.781,1.866,1.134.007,2.27-.032,3.4.014,1.606.064,2.289.721,2.315,2.323q.068,3.939,0,7.88c-.03,1.6-.718,2.252-2.348,2.256q-13.164.025-26.328,0c-1.564,0-2.2-.609-2.234-2.158q-.082-4.027,0-8.059c.029-1.551.662-2.165,2.192-2.236,1.192-.056,2.388-.006,3.582-.019,2.216-.022,2.046.284,2.049-1.972q.012-8.6,0-17.194,0-1.343,0-2.686c0-1.789.129-1.7-1.79-1.707-1.194,0-2.388.024-3.581-.01-1.869-.052-2.44-.617-2.464-2.513q-.049-3.761,0-7.522c.029-1.862.607-2.4,2.53-2.407,4.3-.016,8.6-.005,12.895-.005" transform="translate(179.705 1050.41)" fill="#fff"/>
    <path id="Trazado_244981" data-name="Trazado 244981" d="M826.565,210.17c-.366,1.151-.667,2.169-1.019,3.169-.189.539-.193.926.465,1.067a46.792,46.792,0,0,1,8.2,2.516c.606.252.866-.115,1.147-.525a52.534,52.534,0,0,0,2.974-4.893c.833-1.559.837-1.557,3-1.329a44.4,44.4,0,0,1-4.46,7.911,22.882,22.882,0,0,1,5.913,4.413,47.432,47.432,0,0,0,6.366-6.079,32.046,32.046,0,0,0,3.918-5.109c.8-1.381,1.815-1.461,3.341-1.1a54.219,54.219,0,0,1-15.692,16.583,52.929,52.929,0,0,1-28.656,9.513c-23.395.817-40.69-12.931-48.139-26.022,2.061-.488,2.06-.488,3.177,1.133a54.508,54.508,0,0,0,9.319,10.357c.682.589,1.108.643,1.749-.049a20.149,20.149,0,0,1,5.1-3.613,56.462,56.462,0,0,1-4.441-7.753c1.849-.622,2.059-.543,2.924,1.052q1.368,2.519,2.972,4.894c.379.558.708.852,1.45.536a39.229,39.229,0,0,1,7.685-2.354c.931-.187.945-.641.664-1.389a9.14,9.14,0,0,1-.783-2.886c2.02-.31,2.02-.31,2.579,1.437.019.057.027.116.045.173.624,1.945.622,1.93,2.659,1.676a70.652,70.652,0,0,1,8.738-.715c.926,0,1.263-.278,1.223-1.217-.024-.555-.395-1.386.681-1.532,1.158-.157,1.466.039,1.45,1.3-.021,1.665.313,1.4,1.545,1.44a66.166,66.166,0,0,1,9.259.887c.88.152,1.372-.007,1.561-.9a10.528,10.528,0,0,1,.33-1.021c.568-1.757.568-1.757,2.756-1.564" transform="translate(179.705 1050.41)" fill="#fff"/>
    <path id="Trazado_244982" data-name="Trazado 244982" d="M778.745,154.862a40.456,40.456,0,0,1,3.967-7.009c.5-.708.458-1.07-.351-1.491a14.964,14.964,0,0,1-4.177-3.05c-.636-.69-1.071-.682-1.759-.081a55.039,55.039,0,0,0-8.066,8.618,9.732,9.732,0,0,0-1.136,1.606,2.448,2.448,0,0,1-3.2,1.45c.608-2.531,6.147-9.257,11.128-13.43a54.085,54.085,0,0,1,63.925-4.346A54.023,54.023,0,0,1,856.4,154.788a2.64,2.64,0,0,1-3.434-1.22,46.791,46.791,0,0,0-8.631-9.776,4.916,4.916,0,0,0-1.636-1.184,22.751,22.751,0,0,1-5.771,4.292,59.118,59.118,0,0,1,4.371,7.8c-2.042.557-2.05.561-2.924-1.094a51.994,51.994,0,0,0-3.065-5.051c-.3-.439-.58-.67-1.17-.418a60.444,60.444,0,0,1-8.738,2.687c.186,1.438.935,2.647,1.029,3.987a2.167,2.167,0,0,1-1.1.184,1.047,1.047,0,0,1-1.3-.887c-.161-.635-.4-1.25-.581-1.88-.186-.653-.5-.986-1.27-.871a67.849,67.849,0,0,1-10.164.87c-.578,0-.91.214-.886.836.009.238.005.478-.007.716-.064,1.2-.2,1.29-1.36,1.222-.631-.037-.843-.32-.811-.9a5.343,5.343,0,0,0,0-.537c-.063-1.283-.064-1.317-1.262-1.341a61.983,61.983,0,0,1-6.432-.431c-1.126-.14-2.256-.254-3.373-.444a.876.876,0,0,0-1.165.757c-.1.4-.257.794-.385,1.192-.595,1.848-.594,1.849-2.629,1.521.108-1.324.786-2.5,1.017-3.793-.211-.484-.7-.4-1.067-.492a45.108,45.108,0,0,1-7.336-2.3,1.089,1.089,0,0,0-1.61.48c-.975,1.5-1.939,3.011-2.785,4.593-.95,1.775-.955,1.772-3.184,1.557" transform="translate(179.705 1050.41)" fill="#fefeff"/>
    <path id="Trazado_244983" data-name="Trazado 244983" d="M964.1,179.812c-.006-.4.069-.9-.469-1.041a3.459,3.459,0,0,0-1.945.009c-.588.186-.246.867-.612,1.334-4.4-2.647-8.255-2.36-11.082.773a8.551,8.551,0,0,0-.559,10.312,7.493,7.493,0,0,0,4.31,3.03,7.725,7.725,0,0,0,7.215-1.547,1.406,1.406,0,0,1,.181,1.2c-.858,3.522-5.475,5.116-8.153,2.662a3.772,3.772,0,0,0-3.736-.915,2.95,2.95,0,0,0,.914,1.948c2.174,2.593,5.057,3.058,8.142,2.427a6.834,6.834,0,0,0,5.471-5.526,11.539,11.539,0,0,0,.335-2.838c-.013-2.509,0-5.018,0-7.528,0-1.433.006-2.867-.012-4.3m-7.881,12.073a5.369,5.369,0,0,1-5.349-5.542,5.237,5.237,0,1,1,10.469.185,5.313,5.313,0,0,1-5.12,5.357" transform="translate(179.705 1050.41)" fill="#144677"/>
    <path id="Trazado_244984" data-name="Trazado 244984" d="M927.488,173.274a10.525,10.525,0,0,0-10.632,10.521c-.012,6.642,5.314,10.99,10.361,10.737a10.631,10.631,0,0,0,.271-21.258m-.327,18.332c-4.174-.068-7.233-3.477-7.151-7.968a7.466,7.466,0,0,1,7.372-7.431,7.6,7.6,0,0,1,7.365,7.842,7.438,7.438,0,0,1-7.586,7.557" transform="translate(179.705 1050.41)" fill="#144677"/>
    <path id="Trazado_244985" data-name="Trazado 244985" d="M989.9,229.5q.006-8.865-.005-17.73c0-1.365-.146-1.475-1.387-1.478-1.261,0-1.4.111-1.417,1.446-.026,1.644-.006,3.29-.006,5.238-2.09-1.423-4.036-2.237-6.273-2a7.767,7.767,0,0,0-5.446,3.1,8.564,8.564,0,0,0,.007,10.038,7.95,7.95,0,0,0,11.449,1.231c.122.288.177.392.21.5.313,1.033.712,1.21,1.967,1.081.985-.1.9-.778.9-1.431m-8.1-.976a5.272,5.272,0,0,1-5.15-5.51,5.189,5.189,0,0,1,5.329-5.295,5.406,5.406,0,0,1-.179,10.8" transform="translate(179.705 1050.41)" fill="#144677"/>
    <path id="Trazado_244986" data-name="Trazado 244986" d="M1035.457,228.671q0-8.058,0-16.114c0-.476-.009-.954-.024-1.431-.007-.241-.039-.513-.269-.626a2.71,2.71,0,0,0-2.085-.076c-.577.193-.429.79-.436,1.245-.02,1.311.006,2.625-.02,3.938-.008.376.176.844-.3,1.1-4.66-2.591-8.237-2.248-11.119,1.056a8.5,8.5,0,0,0-.3,10.3c2.683,3.5,6.461,3.979,11.495,1.457.04.035.1.064.116.107.4,1.277.668,1.413,1.986,1.3,1.252-.1.889-1.019.961-1.728a5.321,5.321,0,0,0,0-.537m-7.989-.145a5.279,5.279,0,0,1-5.253-5.588,5.241,5.241,0,1,1,5.253,5.588" transform="translate(179.705 1050.41)" fill="#144677"/>
    <path id="Trazado_244987" data-name="Trazado 244987" d="M954.73,217.039c-.007-1.6-.527-1.935-2.086-1.73-.972.127-.524,1.077-.986,1.447-4.974-2.624-8.9-2.162-11.514,1.325a8.511,8.511,0,0,0,.4,10.44c2.993,3.276,6.858,3.605,11.045.863.523.487.087,1.41,1.063,1.55,1.548.224,2.076-.131,2.082-1.729q.023-6.083,0-12.166m-7.966,11.489a5.206,5.206,0,0,1-5.272-5.362,5.152,5.152,0,0,1,5.156-5.443,5.4,5.4,0,0,1,.116,10.8" transform="translate(179.705 1050.41)" fill="#144677"/>
    <path id="Trazado_244988" data-name="Trazado 244988" d="M1008.533,217.037c-.005-1.652-.415-1.912-2.042-1.733-.991.109-.62,1-1,1.424-5.063-2.533-8.828-2.134-11.422,1.192a8.575,8.575,0,0,0,.267,10.6c2.944,3.234,6.675,3.563,11.1.884.464,1.412.464,1.412,1.06,1.514,1.617.276,2.031-.054,2.035-1.71q.018-6.084,0-12.169m-7.982,11.49a5.249,5.249,0,0,1-5.266-5.557,5.164,5.164,0,0,1,5.363-5.247,5.286,5.286,0,0,1,5.1,5.548,5.232,5.232,0,0,1-5.2,5.256" transform="translate(179.705 1050.41)" fill="#144677"/>
    <path id="Trazado_244989" data-name="Trazado 244989" d="M1006.668,143.7c-.007-1.589-.361-1.777-1.938-1.682-.958.057-.72.957-1.167,1.314-4.948-2.521-8.667-2.146-11.3,1.114a8.68,8.68,0,0,0-.142,10.321,8.017,8.017,0,0,0,4.766,2.937,8.147,8.147,0,0,0,6.647-1.693c.141.178.242.254.273.353.356,1.107.563,1.193,1.731,1.148.924-.035,1.045-.608,1.094-1.3.022-.3.043-.6.043-.892,0-3.872.016-7.745,0-11.617m-8,11.4a5.072,5.072,0,0,1-5.235-5.343,5.216,5.216,0,0,1,5.16-5.457,5.439,5.439,0,0,1,5.308,5.408,5.226,5.226,0,0,1-5.233,5.392" transform="translate(179.705 1050.41)" fill="#144677"/>
    <path id="Trazado_244990" data-name="Trazado 244990" d="M952.831,150.767c3.165-.038,6.33,0,9.495-.026,1.438-.011,1.5-.116,1.477-1.555a7.957,7.957,0,0,0-8.975-7.6,7.656,7.656,0,0,0-6.64,5.971,7.994,7.994,0,0,0,2.842,8.682c4.031,3.257,10.572,1.59,12.1-3.565a3.784,3.784,0,0,0-3.926,1.116c-2.019,2.171-5.83,1.633-7.516-.853-.363-.536-.886-1.173-.629-1.789.31-.741,1.164-.376,1.768-.384m-1.609-3.345a5.021,5.021,0,0,1,5.077-3.155,4.4,4.4,0,0,1,4.212,3.954c-2.919,0-5.817,0-8.714,0-.549,0-.729-.259-.575-.8" transform="translate(179.705 1050.41)" fill="#144677"/>
    <path id="Trazado_244991" data-name="Trazado 244991" d="M1035.7,180.152c-.01-1.379-.221-1.439-1.59-1.507-1.1-.056-1.235.635-1.33,1.6-4.478-2.793-8.361-2.519-11.213.629a8.558,8.558,0,0,0-.491,10.449,7.549,7.549,0,0,0,4.537,2.987,7.663,7.663,0,0,0,6.817-1.579c.2.18.322.239.365.332.468,1.018.874,1.2,2.026,1.069.983-.11.884-.815.886-1.453.01-4.177.022-8.353-.007-12.53m-8.02,11.738a5.322,5.322,0,0,1-5.2-5.643,5.017,5.017,0,0,1,5.375-5.172,5.278,5.278,0,0,1,5.093,5.548,5.46,5.46,0,0,1-5.267,5.267" transform="translate(179.705 1050.41)" fill="#144677"/>
    <path id="Trazado_244992" data-name="Trazado 244992" d="M982.724,192.336c.035-4,.027-8,.013-12-.005-1.62-.171-1.647-1.731-1.7-1.152-.039-1.011.879-1.283,1.49-4.572-2.693-8.36-2.371-11.216.88a8.568,8.568,0,0,0-.268,10.458c2.706,3.435,6.425,3.888,11.371,1.387a1.8,1.8,0,0,0,2.415,1.246c1.065-.256.693-1.133.7-1.764m-7.95-.452a5.369,5.369,0,0,1-5.283-5.6,5.1,5.1,0,0,1,5.378-5.209,5.163,5.163,0,0,1,5.09,5.516,5.33,5.33,0,0,1-5.185,5.292" transform="translate(179.705 1050.41)" fill="#144677"/>
    <path id="Trazado_244993" data-name="Trazado 244993" d="M1073.4,143.658c-.007-1.53-.277-1.645-1.8-1.648-1.03,0-.955.84-1.24,1.385-4.771-2.649-8.584-2.25-11.367,1.108a8.635,8.635,0,0,0,.038,10.474c2.74,3.258,6.638,3.641,11.284,1.1.53.3-.012,1.185.81,1.4,1.512.394,2.273-.09,2.278-1.635q.021-6.091,0-12.182m-7.893,11.444a5.14,5.14,0,0,1-5.344-5.439,5.225,5.225,0,0,1,5.264-5.365,5.369,5.369,0,0,1,5.2,5.491,5.188,5.188,0,0,1-5.121,5.313" transform="translate(179.705 1050.41)" fill="#144677"/>
    <path id="Trazado_244994" data-name="Trazado 244994" d="M1071.727,229.075c.034-4.062.027-8.124.011-12.187a1.558,1.558,0,0,0-2.378-1.479c-.563.273-.224,1.042-.771,1.285-4.344-2.575-8.369-2.158-11.117,1.136a8.476,8.476,0,0,0,.068,10.6c2.743,3.212,6.9,3.639,11.108,1.038.586,1.423.983,1.654,2.244,1.449,1.215-.2.83-1.153.835-1.84m-7.854-.547a5.429,5.429,0,0,1-5.364-5.55,5.3,5.3,0,0,1,5.254-5.255,5.4,5.4,0,0,1,.11,10.8" transform="translate(179.705 1050.41)" fill="#144677"/>
    <path id="Trazado_244995" data-name="Trazado 244995" d="M1030.969,141.466c-4.234-.066-7.995,3.8-8,8.225a8.02,8.02,0,1,0,16.034-.051,8.223,8.223,0,0,0-8.038-8.174m.092,13.614c-2.749.228-5.183-2.153-5.2-5.4a5.137,5.137,0,1,1,10.257.047,5.113,5.113,0,0,1-5.062,5.351" transform="translate(179.705 1050.41)" fill="#144677"/>
    <path id="Trazado_244996" data-name="Trazado 244996" d="M1096.17,214.9a8.221,8.221,0,0,0-.079,16.432,8.217,8.217,0,0,0,.079-16.432m0,13.617a5.409,5.409,0,1,1,5.142-5.307,5.145,5.145,0,0,1-5.142,5.307" transform="translate(179.705 1050.41)" fill="#144677"/>
    <path id="Trazado_244997" data-name="Trazado 244997" d="M1060.038,178.254a8.174,8.174,0,0,0-.019,16.345,8.279,8.279,0,0,0,8.025-8.379c-.022-4.54-4.048-8.216-8.006-7.966m.018,13.612a5.479,5.479,0,1,1,5.111-5.56,5.252,5.252,0,0,1-5.111,5.56" transform="translate(179.705 1050.41)" fill="#144677"/>
    <path id="Trazado_244998" data-name="Trazado 244998" d="M1110.73,178.208a8.324,8.324,0,0,0-8.292,7.905c-.116,4.022,3.079,8.428,7.865,8.489a8.132,8.132,0,0,0,8.057-8.088c.325-4.42-3.649-8.175-7.63-8.306m-2.1,13.315a5.449,5.449,0,0,1-3.244-5.976,5.222,5.222,0,0,1,4.572-4.581,5.042,5.042,0,0,1,5.207,3.291,5.989,5.989,0,0,1,.306,2.111,5.069,5.069,0,0,1-6.841,5.155" transform="translate(179.705 1050.41)" fill="#144677"/>
    <path id="Trazado_244999" data-name="Trazado 244999" d="M857.555,183.625a41.756,41.756,0,0,1-.584,6.721,16.89,16.89,0,0,1-.438,1.732c-1.36,4.223-4.427,5.22-8.31,4.384a5.192,5.192,0,0,1-3.539-3.047,13.084,13.084,0,0,1-1.244-4.638,46.423,46.423,0,0,1,.235-12.3,13.405,13.405,0,0,1,.668-2.4,5.725,5.725,0,0,1,5.99-4.144c3.15,0,5.1,1.389,6.135,4.463a16.382,16.382,0,0,1,.694,2.952,49.571,49.571,0,0,1,.393,6.28" transform="translate(179.705 1050.41)" fill="#1e447f"/>
    <path id="Trazado_245000" data-name="Trazado 245000" d="M796.308,232.208c5.508-5.766,23.135-5.3,27.411-.018-7.444,2.542-18.943,2.68-27.411.018" transform="translate(179.705 1050.41)" fill="#1e447f"/>
    <path id="Trazado_245001" data-name="Trazado 245001" d="M822.2,216.116a31.164,31.164,0,0,1-5.576,9.307,1.812,1.812,0,0,1-2.015.719,8.308,8.308,0,0,0-2.308-.2c-.96.016-1.2-.43-1.185-1.314.041-2.861.025-5.723.009-8.584,0-.679.087-1.155.95-1.118a72.824,72.824,0,0,1,9.6.906,2.2,2.2,0,0,1,.526.286" transform="translate(179.705 1050.41)" fill="#1f457f"/>
    <path id="Trazado_245002" data-name="Trazado 245002" d="M797.938,216.092a7.484,7.484,0,0,1,3-.607c2.238-.327,4.5-.423,6.752-.559.851-.051,1.3.115,1.285,1.131-.057,2.914-.046,5.83,0,8.745.013.881-.356,1.15-1.162,1.134a5.623,5.623,0,0,0-1.773.134,2.469,2.469,0,0,1-2.906-1.046,33.07,33.07,0,0,1-5.193-8.932" transform="translate(179.705 1050.41)" fill="#1e447f"/>
    <path id="Trazado_245003" data-name="Trazado 245003" d="M786.739,218.984a44.986,44.986,0,0,1,8.207-2.562c.619-.151.857.184,1.055.674a36.588,36.588,0,0,0,5.726,9.716c-1.159.456-2.205.844-3.231,1.28a1.572,1.572,0,0,1-1.513-.205,36.052,36.052,0,0,1-10.244-8.9" transform="translate(179.705 1050.41)" fill="#1f447f"/>
    <path id="Trazado_245004" data-name="Trazado 245004" d="M818.355,226.809a35.242,35.242,0,0,0,5.767-9.669c.233-.568.505-.856,1.2-.688a47.694,47.694,0,0,1,7.78,2.391c.185.334-.005.51-.145.68a36.685,36.685,0,0,1-9.407,8.166,2.27,2.27,0,0,1-2.489.151,23.467,23.467,0,0,0-2.707-1.031" transform="translate(179.705 1050.41)" fill="#1e447f"/>
    <path id="Trazado_245005" data-name="Trazado 245005" d="M779.21,223.76a17.084,17.084,0,0,1,4.795-3.565.732.732,0,0,1,1.072.215c.369.467.757.919,1.151,1.366a38.228,38.228,0,0,0,8.348,7.218c.295.185.658.3.828.677-.028.08-.035.2-.1.266-1.654,1.6-1.652,1.594-3.785.781a51.1,51.1,0,0,1-10.723-5.627,4.767,4.767,0,0,1-1.586-1.331" transform="translate(179.705 1050.41)" fill="#1f457f"/>
    <path id="Trazado_245006" data-name="Trazado 245006" d="M824.683,229.833c.161-.478.514-.611.813-.8a38.814,38.814,0,0,0,9.088-8.041c.937-1.115.635-1.315,2.294-.377a16.833,16.833,0,0,1,3.6,2.645c.464.457.409.754-.107,1.124a53.294,53.294,0,0,1-13.133,6.861,1.165,1.165,0,0,1-1.429-.346c-.353-.4-.769-.736-1.123-1.068" transform="translate(179.705 1050.41)" fill="#1f457f"/>
    <path id="Trazado_245007" data-name="Trazado 245007" d="M796.059,132.79a52.723,52.723,0,0,1,27.895-.047,6.079,6.079,0,0,1-2.317,1.782,23.159,23.159,0,0,1-9.108,2.392,27.245,27.245,0,0,1-13.136-1.963,11.412,11.412,0,0,1-3.334-2.164" transform="translate(179.705 1050.41)" fill="#1e447f"/>
    <path id="Trazado_245008" data-name="Trazado 245008" d="M822.006,149.14a64.248,64.248,0,0,1-9.692.914c-.763.012-1.218-.1-1.2-1.048.05-2.916.033-5.834.008-8.751-.006-.718.167-1.145.979-1.1a4.959,4.959,0,0,0,.887-.089c3.053-.38,3.058-.385,4.9,2.025a32.21,32.21,0,0,1,4.028,7.13,1.012,1.012,0,0,1,.095.916" transform="translate(179.705 1050.41)" fill="#1f457f"/>
    <path id="Trazado_245009" data-name="Trazado 245009" d="M797.891,149.1a30.126,30.126,0,0,1,5.758-9.645,1.787,1.787,0,0,1,1.749-.6c1.116.172,2.244.263,3.42.4a12.93,12.93,0,0,1,.132,3.2c.027,2.147-.042,4.3.03,6.441.033.995-.366,1.189-1.248,1.167a68.6,68.6,0,0,1-9.841-.958" transform="translate(179.705 1050.41)" fill="#1e447f"/>
    <path id="Trazado_245010" data-name="Trazado 245010" d="M818.376,138.237c1.282-.51,2.338-.9,3.364-1.35a1.355,1.355,0,0,1,1.333.2A35.4,35.4,0,0,1,833.37,146a26.571,26.571,0,0,1-5.623,1.94c-1.028.266-2.149.956-3.093.539-.877-.387-.966-1.687-1.394-2.586a34.658,34.658,0,0,0-4.884-7.656" transform="translate(179.705 1050.41)" fill="#1e447f"/>
    <path id="Trazado_245011" data-name="Trazado 245011" d="M801.788,138.215A35.072,35.072,0,0,0,796,147.924c-.214.517-.506.776-1.083.643a39.657,39.657,0,0,1-7.893-2.429c-.067-.556.262-.774.48-1.03a37.067,37.067,0,0,1,8.892-7.662,2.446,2.446,0,0,1,2.788-.236,18.133,18.133,0,0,0,2.607,1" transform="translate(179.705 1050.41)" fill="#1e447f"/>
    <path id="Trazado_245012" data-name="Trazado 245012" d="M840.921,141.258a17.031,17.031,0,0,1-4.625,3.483.91.91,0,0,1-1.364-.274,38.507,38.507,0,0,0-10.112-8.912.5.5,0,0,1,.085-.559c1.534-1.543,1.536-1.548,3.65-.733a52.165,52.165,0,0,1,10.91,5.742,4.326,4.326,0,0,1,1.456,1.253" transform="translate(179.705 1050.41)" fill="#1f457f"/>
    <path id="Trazado_245013" data-name="Trazado 245013" d="M779.157,141.133a45.123,45.123,0,0,1,8.715-5.267c1.505-.707,3.081-1.259,4.594-1.948a1.514,1.514,0,0,1,2.151.482,3.277,3.277,0,0,0,.786.647.9.9,0,0,1-.526.782,37.483,37.483,0,0,0-9.436,8.365c-.6.742-1.083.909-1.911.385a16.112,16.112,0,0,1-4.373-3.446" transform="translate(179.705 1050.41)" fill="#1f457f"/>
  </g>
</svg>
