<svg id="Grupo_243371" data-name="Grupo 243371" xmlns="http://www.w3.org/2000/svg" xmlns:xlink="http://www.w3.org/1999/xlink" width="20.119" height="25.14" viewBox="0 0 20.119 25.14">
  <defs>
    <clipPath id="clip-path">
      <rect id="Rectángulo_316432" data-name="Rectángulo 316432" width="20.119" height="25.14" fill="none"/>
    </clipPath>
  </defs>
  <g id="Grupo_243370" data-name="Grupo 243370" clip-path="url(#clip-path)">
    <path id="Trazado_243724" data-name="Trazado 243724" d="M41.249,58.3c.091,0,.265-.009.439-.02a7.449,7.449,0,0,0,4.648-2.039A7.537,7.537,0,0,0,48.7,50.8a8.959,8.959,0,0,0-.157-1.668,10.806,10.806,0,0,0-.574-2,15.028,15.028,0,0,0-1.379-2.67,22.892,22.892,0,0,0-2.674-3.373,29.414,29.414,0,0,0-2.643-2.472c-.074-.061-.121-.073-.2-.007-.349.309-.706.61-1.054.921a27.271,27.271,0,0,0-2.483,2.541,20.837,20.837,0,0,0-1.972,2.68,14.638,14.638,0,0,0-1.311,2.683,10.339,10.339,0,0,0-.6,2.785,7.531,7.531,0,0,0,.057,1.6,7.267,7.267,0,0,0,.664,2.192A7.539,7.539,0,0,0,41.249,58.3" transform="translate(-31.113 -35.681)" fill="#3fd5fe"/>
    <path id="Trazado_243725" data-name="Trazado 243725" d="M20.119,15.049a10.123,10.123,0,0,1-1.382,5.09,10.085,10.085,0,0,1-6.671,4.8,10.125,10.125,0,0,1-3.053.148,9.793,9.793,0,0,1-2.494-.593,10.259,10.259,0,0,1-2.445-1.339,10.086,10.086,0,0,1-3.589-4.98,9.355,9.355,0,0,1-.371-1.586,10.79,10.79,0,0,1-.064-2.578A12.984,12.984,0,0,1,.9,10.538,19.172,19.172,0,0,1,3.42,6.1a28.81,28.81,0,0,1,4.12-4.423C8.108,1.178,8.689.694,9.3.25a1.254,1.254,0,0,1,1.512.006,27.793,27.793,0,0,1,2.52,2.118q1.055.985,2.007,2.069a24.165,24.165,0,0,1,2.343,3.112,17.379,17.379,0,0,1,1.7,3.484,12.057,12.057,0,0,1,.644,2.809c.04.4.059.8.088,1.2m-9.983,7.566c.091,0,.265-.009.439-.02a7.449,7.449,0,0,0,4.648-2.039,7.537,7.537,0,0,0,2.358-5.433,8.959,8.959,0,0,0-.157-1.668,10.806,10.806,0,0,0-.574-2,15.028,15.028,0,0,0-1.379-2.67A22.892,22.892,0,0,0,12.8,5.411a29.413,29.413,0,0,0-2.643-2.472c-.074-.061-.121-.073-.2-.007-.349.309-.706.61-1.054.921A27.272,27.272,0,0,0,6.422,6.394a20.838,20.838,0,0,0-1.972,2.68,14.639,14.639,0,0,0-1.311,2.683,10.339,10.339,0,0,0-.6,2.785,7.531,7.531,0,0,0,.057,1.6,7.267,7.267,0,0,0,.664,2.192,7.539,7.539,0,0,0,6.878,4.281" transform="translate(0 0)"/>
    <path id="Trazado_243726" data-name="Trazado 243726" d="M118.776,192.1a1.3,1.3,0,0,1-.918-.274,1.267,1.267,0,0,1,.148-2.089,1.227,1.227,0,0,1,.566-.165,4.339,4.339,0,0,0,1.255-.2,3.75,3.75,0,0,0,1.583-1.032,3.668,3.668,0,0,0,.924-1.841,4.677,4.677,0,0,0,.067-.732,1.263,1.263,0,0,1,2.3-.689,1.47,1.47,0,0,1,.23.95,6.681,6.681,0,0,1-.259,1.558,6.322,6.322,0,0,1-3.284,3.878,6.049,6.049,0,0,1-1.99.587c-.206.024-.414.034-.622.05" transform="translate(-108.587 -170.721)"/>
  </g>
</svg>
