<svg id="Grupo_243387" data-name="Grupo 243387" xmlns="http://www.w3.org/2000/svg" xmlns:xlink="http://www.w3.org/1999/xlink" width="973.559" height="402.642" viewBox="0 0 973.559 402.642">
  <defs>
    <clipPath id="clip-path">
      <rect id="Rectángulo_316433" data-name="Rectángulo 316433" width="973.559" height="402.642" fill="none"/>
    </clipPath>
  </defs>
  <text id="FUENTE" transform="translate(34.049 34.825)" fill="#12263f" font-size="16" font-family="Roboto-Bold, Roboto" font-weight="700"><tspan x="0" y="0" letter-spacing="-0.024em">F</tspan><tspan y="0" letter-spacing="-0.025em">UE</tspan><tspan y="0" letter-spacing="-0.039em">N</tspan><tspan y="0" letter-spacing="-0.024em">T</tspan><tspan y="0">E</tspan></text>
  <text id="EXTRACCIONES" transform="translate(243.265 34.825)" fill="#12263f" font-size="16" font-family="Roboto-Bold, Roboto" font-weight="700"><tspan x="0" y="0" letter-spacing="-0.024em">E</tspan><tspan y="0" letter-spacing="-0.025em">X</tspan><tspan y="0" letter-spacing="-0.024em">T</tspan><tspan y="0" letter-spacing="-0.025em">R</tspan><tspan y="0" letter-spacing="-0.035em">A</tspan><tspan y="0" letter-spacing="-0.025em">CCION</tspan><tspan y="0" letter-spacing="-0.024em">E</tspan><tspan y="0">S</tspan></text>
  <g id="Grupo_243380" data-name="Grupo 243380">
    <g id="Grupo_243379" data-name="Grupo 243379" clip-path="url(#clip-path)">
      <text id="HUELLA_HÍDRICA" data-name="HUELLA HÍDRICA" transform="translate(467.459 14.449)" fill="#12263f" font-size="16" font-family="Roboto-Bold, Roboto" font-weight="700"><tspan x="0" y="0" letter-spacing="-0.025em">HU</tspan><tspan y="0" letter-spacing="-0.024em">EL</tspan><tspan y="0" letter-spacing="-0.015em">L</tspan><tspan y="0" letter-spacing="-0.024em">A</tspan><tspan y="0" xml:space="preserve" letter-spacing="-0.025em"> H</tspan><tspan y="0" letter-spacing="-0.024em">ÍD</tspan><tspan y="0" letter-spacing="-0.025em">R</tspan><tspan y="0" letter-spacing="-0.024em">I</tspan><tspan y="0" letter-spacing="-0.025em">C</tspan><tspan y="0">A</tspan></text>
    </g>
  </g>
  <text id="_TOTAL_DE_LA_PRODUCCIÓN" data-name=" TOTAL DE LA PRODUCCIÓN" transform="translate(430.353 33.649)" fill="#12263f" font-size="16" font-family="Roboto-Bold, Roboto" font-weight="700"><tspan x="0" y="0" letter-spacing="-0.054em"> </tspan><tspan y="0" letter-spacing="-0.038em">T</tspan><tspan y="0" letter-spacing="-0.066em">O</tspan><tspan y="0" letter-spacing="-0.083em">T</tspan><tspan y="0" letter-spacing="-0.024em">AL</tspan><tspan y="0" letter-spacing="-0.025em"> </tspan><tspan y="0" letter-spacing="-0.024em">DE</tspan><tspan y="0" letter-spacing="-0.025em"> </tspan><tspan y="0" letter-spacing="-0.015em">L</tspan><tspan y="0" letter-spacing="-0.024em">A</tspan><tspan y="0" xml:space="preserve" letter-spacing="-0.025em"> PRO</tspan><tspan y="0" letter-spacing="-0.024em">D</tspan><tspan y="0" letter-spacing="-0.025em">UCC</tspan><tspan y="0" letter-spacing="-0.024em">I</tspan><tspan y="0" letter-spacing="-0.025em">Ó</tspan><tspan y="0">N</tspan></text>
  <g id="Grupo_243382" data-name="Grupo 243382">
    <g id="Grupo_243381" data-name="Grupo 243381" clip-path="url(#clip-path)">
      <text id="HUELLA_HÍDRICA-2" data-name="HUELLA HÍDRICA" transform="translate(834.068 16.175)" fill="#12263f" font-size="16" font-family="Roboto-Bold, Roboto" font-weight="700"><tspan x="0" y="0" letter-spacing="-0.025em">HU</tspan><tspan y="0" letter-spacing="-0.024em">EL</tspan><tspan y="0" letter-spacing="-0.015em">L</tspan><tspan y="0" letter-spacing="-0.024em">A</tspan><tspan y="0" xml:space="preserve" letter-spacing="-0.025em"> H</tspan><tspan y="0" letter-spacing="-0.024em">ÍD</tspan><tspan y="0" letter-spacing="-0.025em">R</tspan><tspan y="0" letter-spacing="-0.024em">I</tspan><tspan y="0" letter-spacing="-0.025em">C</tspan><tspan y="0">A</tspan></text>
      <text id="_TOTAL_DEL_CONSUMO" data-name=" TOTAL DEL CONSUMO" transform="translate(814.517 35.375)" fill="#12263f" font-size="16" font-family="Roboto-Bold, Roboto" font-weight="700"><tspan x="0" y="0" letter-spacing="-0.054em"> </tspan><tspan y="0" letter-spacing="-0.038em">T</tspan><tspan y="0" letter-spacing="-0.066em">O</tspan><tspan y="0" letter-spacing="-0.083em">T</tspan><tspan y="0" letter-spacing="-0.024em">AL</tspan><tspan y="0" letter-spacing="-0.025em"> </tspan><tspan y="0" letter-spacing="-0.024em">DEL</tspan><tspan y="0" xml:space="preserve" letter-spacing="-0.025em"> CON</tspan><tspan y="0" letter-spacing="-0.024em">S</tspan><tspan y="0" letter-spacing="-0.025em">U</tspan><tspan y="0" letter-spacing="-0.024em">M</tspan><tspan y="0">O</tspan></text>
    </g>
  </g>
  <text id="COMERCIO" transform="translate(673.905 34.825)" fill="#12263f" font-size="16" font-family="Roboto-Bold, Roboto" font-weight="700"><tspan x="0" y="0" letter-spacing="-0.025em">CO</tspan><tspan y="0" letter-spacing="-0.024em">ME</tspan><tspan y="0" letter-spacing="-0.025em">RC</tspan><tspan y="0" letter-spacing="-0.024em">I</tspan><tspan y="0">O</tspan></text>
  <line id="Línea_463" data-name="Línea 463" y1="6.5" transform="translate(712.563 329.974)" fill="none" stroke="#bfb876" stroke-miterlimit="10" stroke-width="4"/>
  <line id="Línea_464" data-name="Línea 464" y1="173.513" transform="translate(712.563 143.608)" fill="none" stroke="#bfb876" stroke-miterlimit="10" stroke-width="4" stroke-dasharray="12.853 12.853"/>
  <line id="Línea_465" data-name="Línea 465" y1="6.5" transform="translate(712.563 130.681)" fill="none" stroke="#bfb876" stroke-miterlimit="10" stroke-width="4"/>
  <g id="Grupo_243384" data-name="Grupo 243384">
    <g id="Grupo_243383" data-name="Grupo 243383" clip-path="url(#clip-path)">
      <path id="Trazado_243728" data-name="Trazado 243728" d="M920.524,402.642H865a24.956,24.956,0,0,1-24.957-24.957V122.01H945.481V377.685a24.957,24.957,0,0,1-24.957,24.957" fill="#144677"/>
      <path id="Trazado_243729" data-name="Trazado 243729" d="M945.48,346.11H840.042V87.684a22.207,22.207,0,0,1,22.207-22.206h61.025A22.206,22.206,0,0,1,945.48,87.684Z" fill="#35b0e5"/>
      <path id="Trazado_243730" data-name="Trazado 243730" d="M122.319,233.961H0V90.548A24.689,24.689,0,0,1,24.689,65.859H97.63a24.689,24.689,0,0,1,24.689,24.689Z" fill="#12263f"/>
      <path id="Trazado_243731" data-name="Trazado 243731" d="M101.089,402.642H21.23A21.23,21.23,0,0,1,0,381.412V233.961H122.319V381.412a21.23,21.23,0,0,1-21.23,21.23" fill="#a5d6a7"/>
      <rect id="Rectángulo_316435" data-name="Rectángulo 316435" width="100.34" height="100.34" transform="translate(476.459 106.007)" fill="#baeaff"/>
      <path id="Trazado_243732" data-name="Trazado 243732" d="M357.607,402.642H244.348A18.653,18.653,0,0,1,225.7,383.989V355.127a18.654,18.654,0,0,1,18.653-18.654H357.607a18.654,18.654,0,0,1,18.653,18.654v28.862a18.653,18.653,0,0,1-18.653,18.653" fill="#009688"/>
      <path id="Trazado_243733" data-name="Trazado 243733" d="M359.714,295.09H242.241A16.546,16.546,0,0,1,225.7,278.544V245.467a16.546,16.546,0,0,1,16.546-16.546H359.714a16.546,16.546,0,0,1,16.546,16.546v33.077a16.546,16.546,0,0,1-16.546,16.546" fill="#009688"/>
      <path id="Trazado_243734" data-name="Trazado 243734" d="M363.518,106.007H238.437A12.742,12.742,0,0,1,225.7,93.265V78.6a12.742,12.742,0,0,1,12.742-12.742H363.518A12.742,12.742,0,0,1,376.26,78.6V93.265a12.742,12.742,0,0,1-12.742,12.742" fill="#009688"/>
      <path id="Trazado_243735" data-name="Trazado 243735" d="M361.616,187.539H240.339A14.644,14.644,0,0,1,225.7,172.9v-10.86a14.644,14.644,0,0,1,14.644-14.644H361.616a14.644,14.644,0,0,1,14.644,14.644V172.9a14.644,14.644,0,0,1-14.644,14.644" fill="#009688"/>
      <path id="Trazado_243736" data-name="Trazado 243736" d="M554.321,402.642H498.936a22.477,22.477,0,0,1-22.478-22.477V193.99H576.8V380.165a22.477,22.477,0,0,1-22.477,22.477" fill="#00574f"/>
      <path id="Trazado_243737" data-name="Trazado 243737" d="M576.8,148.783H476.459V86.021a20.162,20.162,0,0,1,20.162-20.162h60.016A20.162,20.162,0,0,1,576.8,86.021Z" fill="#8bb0bf"/>
      <path id="Trazado_243738" data-name="Trazado 243738" d="M753.218,130.681h-80.5a12.868,12.868,0,0,1-12.868-12.868V78.727a12.868,12.868,0,0,1,12.868-12.868h80.5a12.868,12.868,0,0,1,12.868,12.868v39.086a12.868,12.868,0,0,1-12.868,12.868" fill="#fff59d"/>
      <path id="Trazado_243739" data-name="Trazado 243739" d="M749.923,402.642H676.01a16.163,16.163,0,0,1-16.163-16.162V344.141a16.163,16.163,0,0,1,16.163-16.162h73.913a16.162,16.162,0,0,1,16.162,16.162V386.48a16.162,16.162,0,0,1-16.162,16.162" fill="#fff59d"/>
      <path id="Trazado_243740" data-name="Trazado 243740" d="M752.995,254.325H672.937a13.091,13.091,0,0,1-13.09-13.09V230.653a13.09,13.09,0,0,1,13.09-13.09h80.058a13.09,13.09,0,0,1,13.09,13.09v10.582a13.091,13.091,0,0,1-13.09,13.09" fill="#fff59d"/>
    </g>
  </g>
  <text id="Agua_" data-name="Agua " transform="translate(43.501 134.869)" fill="#fff" font-size="16" font-family="Roboto-Regular, Roboto"><tspan x="0" y="0" letter-spacing="-0.025em">Agu</tspan><tspan y="0" letter-spacing="-0.024em">a</tspan><tspan y="0"> </tspan></text>
  <text id="superficiales_y_" data-name="superficiales y " transform="translate(12.877 154.069)" fill="#fff" font-size="16" font-family="Roboto-Regular, Roboto"><tspan x="0" y="0" letter-spacing="-0.024em">s</tspan><tspan y="0" letter-spacing="-0.025em">up</tspan><tspan y="0" letter-spacing="-0.024em">e</tspan><tspan y="0" letter-spacing="-0.017em">r</tspan><tspan y="0" letter-spacing="-0.025em">fic</tspan><tspan y="0" letter-spacing="-0.024em">iales </tspan><tspan y="0" letter-spacing="-0.025em">y</tspan><tspan y="0"> </tspan></text>
  <text id="subterraáneas" transform="translate(12.813 173.268)" fill="#fff" font-size="16" font-family="Roboto-Regular, Roboto"><tspan x="0" y="0" letter-spacing="-0.024em">s</tspan><tspan y="0" letter-spacing="-0.025em">ub</tspan><tspan y="0" letter-spacing="-0.024em">te</tspan><tspan y="0" letter-spacing="-0.025em">r</tspan><tspan y="0" letter-spacing="-0.044em">r</tspan><tspan y="0" letter-spacing="-0.024em">aánea</tspan><tspan y="0">s</tspan></text>
  <text id="Africultura_de_" data-name="Africultura de " transform="translate(255.742 365.204)" fill="#fff" font-size="16" font-family="Roboto-Regular, Roboto"><tspan x="0" y="0" letter-spacing="-0.025em">Afr</tspan><tspan y="0" letter-spacing="-0.024em">i</tspan><tspan y="0" letter-spacing="-0.025em">cu</tspan><tspan y="0" letter-spacing="-0.024em">lt</tspan><tspan y="0" letter-spacing="-0.025em">u</tspan><tspan y="0" letter-spacing="-0.044em">r</tspan><tspan y="0" letter-spacing="-0.024em">a de</tspan><tspan y="0"> </tspan></text>
  <text id="secano_" data-name="secano " transform="translate(276.109 384.405)" fill="#fff" font-size="16" font-family="Roboto-Regular, Roboto"><tspan x="0" y="0" letter-spacing="-0.024em">se</tspan><tspan y="0" letter-spacing="-0.025em">c</tspan><tspan y="0" letter-spacing="-0.024em">an</tspan><tspan y="0" letter-spacing="-0.025em">o</tspan><tspan y="0"> </tspan></text>
  <text id="Africultura_de_2" data-name="Africultura de " transform="translate(255.742 256.42)" fill="#fff" font-size="16" font-family="Roboto-Regular, Roboto"><tspan x="0" y="0" letter-spacing="-0.025em">Afr</tspan><tspan y="0" letter-spacing="-0.024em">i</tspan><tspan y="0" letter-spacing="-0.025em">cu</tspan><tspan y="0" letter-spacing="-0.024em">lt</tspan><tspan y="0" letter-spacing="-0.025em">u</tspan><tspan y="0" letter-spacing="-0.044em">r</tspan><tspan y="0" letter-spacing="-0.024em">a de</tspan><tspan y="0"> </tspan></text>
  <text id="riego" transform="translate(283.837 275.621)" fill="#fff" font-size="16" font-family="Roboto-Regular, Roboto"><tspan x="0" y="0" letter-spacing="-0.025em">r</tspan><tspan y="0" letter-spacing="-0.024em">ie</tspan><tspan y="0" letter-spacing="-0.025em">g</tspan><tspan y="0">o</tspan></text>
  <text id="Agua_doméstica" data-name="Agua doméstica" transform="translate(245.246 172.485)" fill="#fff" font-size="16" font-family="Roboto-Regular, Roboto"><tspan x="0" y="0" letter-spacing="-0.025em">Agu</tspan><tspan y="0" letter-spacing="-0.024em">a</tspan><tspan y="0" letter-spacing="-0.025em"> </tspan><tspan y="0" letter-spacing="-0.024em">d</tspan><tspan y="0" letter-spacing="-0.025em">om</tspan><tspan y="0" letter-spacing="-0.024em">ésti</tspan><tspan y="0" letter-spacing="-0.025em">c</tspan><tspan y="0">a</tspan></text>
  <text id="Industrial" transform="translate(267.998 90.613)" fill="#fff" font-size="16" font-family="Roboto-Regular, Roboto"><tspan x="0" y="0" letter-spacing="-0.024em">Ind</tspan><tspan y="0" letter-spacing="-0.025em">u</tspan><tspan y="0" letter-spacing="-0.024em">st</tspan><tspan y="0" letter-spacing="-0.025em">r</tspan><tspan y="0" letter-spacing="-0.024em">ia</tspan><tspan y="0">l</tspan></text>
  <text id="Aguas_" data-name="Aguas " transform="translate(504.829 101.093)" fill="#fff" font-size="16" font-family="Roboto-Regular, Roboto"><tspan x="0" y="0" letter-spacing="-0.025em">Agu</tspan><tspan y="0" letter-spacing="-0.024em">as</tspan><tspan y="0"> </tspan></text>
  <text id="grises" transform="translate(505.997 120.292)" fill="#fff" font-size="16" font-family="Roboto-Regular, Roboto"><tspan x="0" y="0" letter-spacing="-0.025em">gr</tspan><tspan y="0" letter-spacing="-0.024em">ise</tspan><tspan y="0">s</tspan></text>
  <text id="Interna_" data-name="Interna " transform="translate(869.021 198.389)" fill="#fff" font-size="16" font-family="Roboto-Regular, Roboto"><tspan x="0" y="0" letter-spacing="-0.024em">Inte</tspan><tspan y="0" letter-spacing="-0.025em">r</tspan><tspan y="0" letter-spacing="-0.024em">na</tspan><tspan y="0"> </tspan></text>
  <text id="_84_" data-name="(84 %)" transform="translate(873.182 217.588)" fill="#fff" font-size="16" font-family="Roboto-Regular, Roboto"><tspan x="0" y="0" letter-spacing="-0.024em">(</tspan><tspan y="0" letter-spacing="-0.025em">84 %</tspan><tspan y="0">)</tspan></text>
  <text id="Externa_" data-name="Externa " transform="translate(867.102 368.996)" fill="#fff" font-size="16" font-family="Roboto-Regular, Roboto"><tspan x="0" y="0" letter-spacing="-0.025em">E</tspan><tspan y="0" letter-spacing="-0.024em">xte</tspan><tspan y="0" letter-spacing="-0.025em">r</tspan><tspan y="0" letter-spacing="-0.024em">na</tspan><tspan y="0"> </tspan></text>
  <text id="_16_" data-name="(16 %)" transform="translate(873.182 388.197)" fill="#fff" font-size="16" font-family="Roboto-Regular, Roboto"><tspan x="0" y="0" letter-spacing="-0.024em">(</tspan><tspan y="0" letter-spacing="-0.025em">16 %</tspan><tspan y="0">)</tspan></text>
  <text id="Aguas_2" data-name="Aguas " transform="translate(503.838 292.405)" fill="#fff" font-size="16" font-family="Roboto-Regular, Roboto"><tspan x="0" y="0" letter-spacing="-0.025em">Agu</tspan><tspan y="0" letter-spacing="-0.024em">as</tspan><tspan y="0"> </tspan></text>
  <text id="verdes" transform="translate(503.054 311.605)" fill="#fff" font-size="16" font-family="Roboto-Regular, Roboto"><tspan x="0" y="0" letter-spacing="-0.031em">v</tspan><tspan y="0" letter-spacing="-0.024em">e</tspan><tspan y="0" letter-spacing="-0.034em">r</tspan><tspan y="0" letter-spacing="-0.024em">de</tspan><tspan y="0">s</tspan></text>
  <text id="Aguas_3" data-name="Aguas " transform="translate(503.821 165.876)" fill="#144677" font-size="16" font-family="Roboto-Regular, Roboto"><tspan x="0" y="0" letter-spacing="-0.025em">Agu</tspan><tspan y="0" letter-spacing="-0.024em">as</tspan><tspan y="0"> </tspan></text>
  <text id="azules" transform="translate(503.581 185.077)" fill="#144677" font-size="16" font-family="Roboto-Regular, Roboto"><tspan x="0" y="0" letter-spacing="-0.024em">az</tspan><tspan y="0" letter-spacing="-0.025em">u</tspan><tspan y="0" letter-spacing="-0.024em">le</tspan><tspan y="0">s</tspan></text>
  <text id="Exportación_" data-name="Exportación " transform="translate(672.413 84.037)" fill="#144677" font-size="16" font-family="Roboto-Regular, Roboto"><tspan x="0" y="0" letter-spacing="-0.025em">E</tspan><tspan y="0" letter-spacing="-0.024em">x</tspan><tspan y="0" letter-spacing="-0.025em">po</tspan><tspan y="0">r</tspan><tspan y="0" letter-spacing="-0.024em">ta</tspan><tspan y="0" letter-spacing="-0.025em">c</tspan><tspan y="0" letter-spacing="-0.024em">i</tspan><tspan y="0" letter-spacing="-0.025em">ó</tspan><tspan y="0" letter-spacing="-0.024em">n</tspan><tspan y="0"> </tspan></text>
  <text id="de_agua_de_" data-name="de agua de " transform="translate(675.693 103.237)" fill="#144677" font-size="16" font-family="Roboto-Regular, Roboto"><tspan x="0" y="0" letter-spacing="-0.024em">de</tspan><tspan y="0" letter-spacing="-0.025em"> </tspan><tspan y="0" letter-spacing="-0.024em">a</tspan><tspan y="0" letter-spacing="-0.025em">gu</tspan><tspan y="0" letter-spacing="-0.024em">a</tspan><tspan y="0" letter-spacing="-0.025em"> </tspan><tspan y="0" letter-spacing="-0.024em">de</tspan><tspan y="0"> </tspan></text>
  <text id="productos" transform="translate(678.541 122.436)" fill="#144677" font-size="16" font-family="Roboto-Regular, Roboto"><tspan x="0" y="0" letter-spacing="-0.025em">p</tspan><tspan y="0" letter-spacing="-0.034em">r</tspan><tspan y="0" letter-spacing="-0.025em">o</tspan><tspan y="0" letter-spacing="-0.024em">d</tspan><tspan y="0" letter-spacing="-0.025em">uc</tspan><tspan y="0" letter-spacing="-0.034em">t</tspan><tspan y="0" letter-spacing="-0.025em">o</tspan><tspan y="0">s</tspan></text>
  <text id="Reexportación" transform="translate(663.71 241.605)" fill="#144677" font-size="16" font-family="Roboto-Regular, Roboto"><tspan x="0" y="0" letter-spacing="-0.024em">Reex</tspan><tspan y="0" letter-spacing="-0.025em">po</tspan><tspan y="0">r</tspan><tspan y="0" letter-spacing="-0.024em">ta</tspan><tspan y="0" letter-spacing="-0.025em">c</tspan><tspan y="0" letter-spacing="-0.024em">i</tspan><tspan y="0" letter-spacing="-0.025em">ó</tspan><tspan y="0">n</tspan></text>
  <text id="Importación_" data-name="Importación " transform="translate(671.342 350.933)" fill="#144677" font-size="16" font-family="Roboto-Regular, Roboto"><tspan x="0" y="0" letter-spacing="-0.024em">I</tspan><tspan y="0" letter-spacing="-0.025em">mpo</tspan><tspan y="0">r</tspan><tspan y="0" letter-spacing="-0.024em">ta</tspan><tspan y="0" letter-spacing="-0.025em">c</tspan><tspan y="0" letter-spacing="-0.024em">i</tspan><tspan y="0" letter-spacing="-0.025em">ó</tspan><tspan y="0" letter-spacing="-0.024em">n</tspan><tspan y="0"> </tspan></text>
  <text id="de_agua_en_" data-name="de agua en " transform="translate(675.39 370.132)" fill="#144677" font-size="16" font-family="Roboto-Regular, Roboto"><tspan x="0" y="0" letter-spacing="-0.024em">de a</tspan><tspan y="0" letter-spacing="-0.025em">gu</tspan><tspan y="0" letter-spacing="-0.024em">a</tspan><tspan y="0" letter-spacing="-0.025em"> </tspan><tspan y="0" letter-spacing="-0.024em">en</tspan><tspan y="0"> </tspan></text>
  <text id="productos-2" data-name="productos" transform="translate(678.142 389.332)" fill="#144677" font-size="16" font-family="Roboto-Regular, Roboto"><tspan x="0" y="0" letter-spacing="-0.025em">p</tspan><tspan y="0" letter-spacing="-0.034em">r</tspan><tspan y="0" letter-spacing="-0.025em">o</tspan><tspan y="0" letter-spacing="-0.024em">d</tspan><tspan y="0" letter-spacing="-0.025em">uc</tspan><tspan y="0" letter-spacing="-0.034em">t</tspan><tspan y="0" letter-spacing="-0.025em">o</tspan><tspan y="0">s</tspan></text>
  <text id="Humedas_" data-name="Humedas " transform="translate(28.206 313.365)" fill="#144677" font-size="16" font-family="Roboto-Regular, Roboto"><tspan x="0" y="0" letter-spacing="-0.024em">H</tspan><tspan y="0" letter-spacing="-0.025em">um</tspan><tspan y="0" letter-spacing="-0.024em">edas</tspan><tspan y="0"> </tspan></text>
  <text id="del_suelo" data-name="del suelo" transform="translate(31.005 332.565)" fill="#144677" font-size="16" font-family="Roboto-Regular, Roboto"><tspan x="0" y="0" letter-spacing="-0.024em">del s</tspan><tspan y="0" letter-spacing="-0.025em">u</tspan><tspan y="0" letter-spacing="-0.024em">el</tspan><tspan y="0">o</tspan></text>
  <g id="Grupo_243386" data-name="Grupo 243386">
    <g id="Grupo_243385" data-name="Grupo 243385" clip-path="url(#clip-path)">
      <line id="Línea_466" data-name="Línea 466" x2="100.097" transform="translate(122.319 369.558)" fill="none" stroke="#a5d6a7" stroke-miterlimit="10" stroke-width="3"/>
      <line id="Línea_467" data-name="Línea 467" x2="97.996" transform="translate(122.319 276.5)" fill="none" stroke="#a5d6a7" stroke-miterlimit="10" stroke-width="3"/>
      <line id="Línea_468" data-name="Línea 468" x2="101.215" y2="40.139" transform="translate(119.1 207.11)" fill="none" stroke="#12263f" stroke-miterlimit="10" stroke-width="3"/>
      <line id="Línea_469" data-name="Línea 469" x1="100.485" transform="translate(120.982 167.465)" fill="none" stroke="#12263f" stroke-miterlimit="10" stroke-width="3"/>
      <line id="Línea_470" data-name="Línea 470" x1="103.901" transform="translate(119.1 85.933)" fill="none" stroke="#12263f" stroke-miterlimit="10" stroke-width="3"/>
      <line id="Línea_471" data-name="Línea 471" x2="89.639" y2="23.566" transform="translate(374.977 86.487)" fill="none" stroke="#009688" stroke-miterlimit="10" stroke-width="2"/>
      <line id="Línea_472" data-name="Línea 472" y1="58.653" x2="94.418" transform="translate(372.588 108.812)" fill="none" stroke="#009688" stroke-miterlimit="10" stroke-width="2"/>
      <path id="Trazado_243741" data-name="Trazado 243741" d="M473.164,173.781l-96.9,87.561L465.9,109.5" fill="none" stroke="#009688" stroke-miterlimit="10" stroke-width="2"/>
      <line id="Línea_473" data-name="Línea 473" x1="89.523" transform="translate(376.259 261.342)" fill="none" stroke="#009688" stroke-miterlimit="10" stroke-width="2"/>
      <line id="Línea_474" data-name="Línea 474" x2="92.422" transform="translate(376.26 370.124)" fill="none" stroke="#009688" stroke-miterlimit="10" stroke-width="2"/>
      <line id="Línea_475" data-name="Línea 475" x2="77.234" transform="translate(576.799 98.27)" fill="none" stroke="#8bb0bf" stroke-miterlimit="10" stroke-width="3"/>
      <line id="Línea_476" data-name="Línea 476" x2="256.978" transform="translate(576.799 138.876)" fill="none" stroke="#8bb0bf" stroke-miterlimit="10" stroke-width="3"/>
      <line id="Línea_477" data-name="Línea 477" y1="56.175" x2="79.572" transform="translate(576.799 114.629)" fill="none" stroke="#baeaff" stroke-miterlimit="10" stroke-width="3"/>
      <line id="Línea_478" data-name="Línea 478" x2="261.769" transform="translate(573.663 170.804)" fill="none" stroke="#baeaff" stroke-miterlimit="10" stroke-width="3"/>
      <line id="Línea_479" data-name="Línea 479" x2="255.644" y2="0.131" transform="translate(576.799 297.327)" fill="none" stroke="#00574f" stroke-miterlimit="10" stroke-width="3"/>
      <path id="Trazado_243742" data-name="Trazado 243742" d="M225.656,249.534l-9.419-12.473-6.092,14.394Z" fill="#12263f"/>
      <path id="Trazado_243743" data-name="Trazado 243743" d="M226.313,276.5l-13.536-7.815v15.63Z" fill="#a5d6a7"/>
      <path id="Trazado_243744" data-name="Trazado 243744" d="M225.695,167.465l-13.536-7.815v15.63Z" fill="#12263f"/>
      <path id="Trazado_243745" data-name="Trazado 243745" d="M225.537,85.933,212,78.118v15.63Z" fill="#12263f"/>
      <path id="Trazado_243746" data-name="Trazado 243746" d="M660.591,111.425l-15.483,2.139L654.7,125.9Z" fill="#baeaff"/>
      <path id="Trazado_243747" data-name="Trazado 243747" d="M660.516,97.857,646.98,90.042v15.63Z" fill="#8bb0bf"/>
      <path id="Trazado_243748" data-name="Trazado 243748" d="M840.043,138.876l-13.536-7.815v15.63Z" fill="#8bb0bf"/>
      <path id="Trazado_243749" data-name="Trazado 243749" d="M840.043,170.8l-13.536-7.815v15.63Z" fill="#baeaff"/>
      <path id="Trazado_243750" data-name="Trazado 243750" d="M842.2,297.458l-13.536-7.815v15.63Z" fill="#00574f"/>
      <path id="Trazado_243751" data-name="Trazado 243751" d="M225.695,369.558l-13.536-7.815v15.63Z" fill="#a5d6a7"/>
      <path id="Trazado_243752" data-name="Trazado 243752" d="M476.607,370.124l-13.536-7.815v15.63Z" fill="#009688"/>
      <path id="Trazado_243753" data-name="Trazado 243753" d="M476.459,261.342l-13.536-7.815v15.63Z" fill="#009688"/>
      <path id="Trazado_243754" data-name="Trazado 243754" d="M476.459,170.8l-15.25,3.425L471.8,185.723Z" fill="#009688"/>
      <path id="Trazado_243755" data-name="Trazado 243755" d="M476.752,104.252l-15.62-.548,7.335,13.8Z" fill="#009688"/>
    </g>
  </g>
</svg>
