<svg id="Grupo_243454" data-name="Grupo 243454" xmlns="http://www.w3.org/2000/svg" xmlns:xlink="http://www.w3.org/1999/xlink" width="1031.675" height="549.756" viewBox="0 0 1031.675 549.756">
  <defs>
    <clipPath id="clip-path">
      <rect id="Rectángulo_316461" data-name="Rectángulo 316461" width="1031.675" height="549.756" fill="none"/>
    </clipPath>
  </defs>
  <text id="MATERIAS_PRIMAS" data-name="MATERIAS PRIMAS" transform="translate(25.961 202.944)" fill="#12263f" font-size="16" font-family="Roboto-Bold, Roboto" font-weight="700"><tspan x="0" y="0" letter-spacing="-0.016em">M</tspan><tspan y="0" letter-spacing="-0.083em">A</tspan><tspan y="0" letter-spacing="-0.024em">TE</tspan><tspan y="0" letter-spacing="-0.025em">R</tspan><tspan y="0" letter-spacing="-0.016em">I</tspan><tspan y="0" letter-spacing="-0.024em">AS</tspan><tspan y="0" xml:space="preserve" letter-spacing="-0.025em"> PR</tspan><tspan y="0" letter-spacing="-0.024em">I</tspan><tspan y="0" letter-spacing="-0.016em">M</tspan><tspan y="0" letter-spacing="-0.024em">A</tspan><tspan y="0">S</tspan></text>
  <text id="ACV_de_la_cuna_a_la_puerta" data-name="ACV de la cuna a la puerta" transform="translate(124.681 426.208)" fill="#12263f" font-size="16" font-family="Roboto-Bold, Roboto" font-weight="700"><tspan x="0" y="0" letter-spacing="-0.035em">A</tspan><tspan y="0" letter-spacing="-0.025em">C</tspan><tspan y="0" letter-spacing="-0.024em">V</tspan><tspan y="0" xml:space="preserve" letter-spacing="-0.025em"> de la cuna a la </tspan><tspan y="0" letter-spacing="-0.024em">pu</tspan><tspan y="0" letter-spacing="-0.025em">e</tspan><tspan y="0">r</tspan><tspan y="0" letter-spacing="-0.024em">t</tspan><tspan y="0">a</tspan></text>
  <g id="Grupo_243451" data-name="Grupo 243451">
    <g id="Grupo_243450" data-name="Grupo 243450" clip-path="url(#clip-path)">
      <text id="ACV_de_la_cuna_a_la_tumba" data-name="ACV de la cuna a la tumba" transform="translate(426.883 545.42)" fill="#12263f" font-size="16" font-family="Roboto-Bold, Roboto" font-weight="700"><tspan x="0" y="0" letter-spacing="-0.035em">A</tspan><tspan y="0" letter-spacing="-0.025em">C</tspan><tspan y="0" letter-spacing="-0.024em">V</tspan><tspan y="0" xml:space="preserve" letter-spacing="-0.025em"> de la cuna a la </tspan><tspan y="0" letter-spacing="-0.024em">tumb</tspan><tspan y="0">a</tspan></text>
    </g>
  </g>
  <text id="INDUSTRIA_" data-name="INDUSTRIA " transform="translate(278.163 197.775)" fill="#12263f" font-size="16" font-family="Roboto-Bold, Roboto" font-weight="700"><tspan x="0" y="0" letter-spacing="-0.024em">I</tspan><tspan y="0" letter-spacing="-0.025em">N</tspan><tspan y="0" letter-spacing="-0.024em">D</tspan><tspan y="0" letter-spacing="-0.025em">U</tspan><tspan y="0" letter-spacing="-0.024em">ST</tspan><tspan y="0" letter-spacing="-0.025em">R</tspan><tspan y="0" letter-spacing="-0.016em">I</tspan><tspan y="0" letter-spacing="-0.024em">A</tspan><tspan y="0"> </tspan></text>
  <text id="PROCESADORA" transform="translate(264.531 216.975)" fill="#12263f" font-size="16" font-family="Roboto-Bold, Roboto" font-weight="700"><tspan x="0" y="0" letter-spacing="-0.025em">PROC</tspan><tspan y="0" letter-spacing="-0.024em">ESAD</tspan><tspan y="0" letter-spacing="-0.025em">OR</tspan><tspan y="0">A</tspan></text>
  <text id="DISTRIBUCIÓN" transform="translate(491.042 202.415)" fill="#12263f" font-size="16" font-family="Roboto-Bold, Roboto" font-weight="700"><tspan x="0" y="0" letter-spacing="-0.024em">DIST</tspan><tspan y="0" letter-spacing="-0.025em">RIBUC</tspan><tspan y="0" letter-spacing="-0.024em">I</tspan><tspan y="0" letter-spacing="-0.025em">Ó</tspan><tspan y="0">N</tspan></text>
  <text id="USO_CONSUMO" data-name="USO / CONSUMO" transform="translate(698.738 203.647)" fill="#12263f" font-size="16" font-family="Roboto-Bold, Roboto" font-weight="700"><tspan x="0" y="0" letter-spacing="-0.025em">U</tspan><tspan y="0" letter-spacing="-0.024em">S</tspan><tspan y="0" letter-spacing="-0.025em">O / CON</tspan><tspan y="0" letter-spacing="-0.024em">S</tspan><tspan y="0" letter-spacing="-0.025em">U</tspan><tspan y="0" letter-spacing="-0.024em">M</tspan><tspan y="0">O</tspan></text>
  <text id="DISPOSICIÓN_" data-name="DISPOSICIÓN " transform="translate(918.946 197.599)" fill="#12263f" font-size="16" font-family="Roboto-Bold, Roboto" font-weight="700"><tspan x="0" y="0" letter-spacing="-0.024em">DIS</tspan><tspan y="0" letter-spacing="-0.025em">PO</tspan><tspan y="0" letter-spacing="-0.024em">SI</tspan><tspan y="0" letter-spacing="-0.025em">C</tspan><tspan y="0" letter-spacing="-0.024em">I</tspan><tspan y="0" letter-spacing="-0.025em">ÓN</tspan><tspan y="0"> </tspan></text>
  <text id="_FINAL" data-name=" FINAL" transform="translate(944.723 216.799)" fill="#12263f" font-size="16" font-family="Roboto-Bold, Roboto" font-weight="700"><tspan x="0" y="0" letter-spacing="-0.025em"> </tspan><tspan y="0" letter-spacing="-0.024em">FI</tspan><tspan y="0" letter-spacing="-0.016em">N</tspan><tspan y="0" letter-spacing="-0.024em">A</tspan><tspan y="0">L</tspan></text>
  <g id="Grupo_243453" data-name="Grupo 243453">
    <g id="Grupo_243452" data-name="Grupo 243452" clip-path="url(#clip-path)">
      <path id="Trazado_243884" data-name="Trazado 243884" d="M139.9,34.648S91.521,27,99.153,75.03C147.611,82.594,139.9,34.648,139.9,34.648" fill="#a5d6a7"/>
      <path id="Trazado_243885" data-name="Trazado 243885" d="M55.62,27.3S104,19.651,96.364,67.679C47.906,75.243,55.62,27.3,55.62,27.3" fill="#a5d6a7"/>
      <path id="Trazado_243886" data-name="Trazado 243886" d="M137.824,29.886S87.551,21.87,95.482,72.227C145.84,80.158,137.824,29.886,137.824,29.886Z" fill="none" stroke="#3f3e40" stroke-linecap="round" stroke-linejoin="round" stroke-width="3.981"/>
      <line id="Línea_480" data-name="Línea 480" x1="29.205" y2="29.205" transform="translate(95.482 43.022)" fill="none" stroke="#3f3e40" stroke-linecap="round" stroke-linejoin="round" stroke-width="3.981"/>
      <path id="Trazado_243887" data-name="Trazado 243887" d="M51.445,29.886s50.272-8.016,42.341,42.341C43.428,80.158,51.445,29.886,51.445,29.886Z" fill="none" stroke="#3f3e40" stroke-linecap="round" stroke-linejoin="round" stroke-width="3.981"/>
      <line id="Línea_481" data-name="Línea 481" x2="27.505" y2="27.505" transform="translate(66.28 44.721)" fill="none" stroke="#3f3e40" stroke-linecap="round" stroke-linejoin="round" stroke-width="3.981"/>
      <path id="Trazado_243888" data-name="Trazado 243888" d="M97.774,93.613a160.036,160.036,0,0,1-1.985-22.287H93.478c-.392,12.659-1.544,20.47-2.494,24.92A48.95,48.95,0,0,0,97.774,93.613Z" fill="none" stroke="#3f3e40" stroke-linecap="round" stroke-linejoin="round" stroke-width="3.981"/>
      <path id="Trazado_243889" data-name="Trazado 243889" d="M71.821,103.491,55.813,93.806A10.591,10.591,0,0,0,41.24,97.267a6.041,6.041,0,0,0,1.975,8.314l13.477,8.331,17.861,11c13.689,8.434,32.478,8.708,45.871,2a50.181,50.181,0,0,1,28.5-4.906V90.22l-12.1-6.7c-13.5-7.545-30.752,5.277-30.752,5.277C99.5,93.125,93.954,95.919,86.3,97.375c-2.845.541-6.352.5-8.96,1.658-3.239,1.434-5.857,3.884-6.675,7.428a7.032,7.032,0,0,0,2.648,7.043c2.9,1.962,7.27,1.271,10.5.856a96.459,96.459,0,0,0,23.274-6.163l.29-.116" fill="none" stroke="#3f3e40" stroke-linecap="round" stroke-linejoin="round" stroke-width="3.981"/>
      <path id="Trazado_243890" data-name="Trazado 243890" d="M78.062,98.753,60.683,88.564A9.366,9.366,0,0,0,47.8,91.624l-.474,1.023" fill="none" stroke="#3f3e40" stroke-linecap="round" stroke-linejoin="round" stroke-width="3.981"/>
      <path id="Trazado_243891" data-name="Trazado 243891" d="M88.111,97.03,68.219,85.293A9.368,9.368,0,0,0,56.186,87.18" fill="none" stroke="#3f3e40" stroke-linecap="round" stroke-linejoin="round" stroke-width="3.981"/>
      <path id="Trazado_243892" data-name="Trazado 243892" d="M295.338,131.311H257.651V53.879L295.338,92.6Z" fill="#fff59d"/>
      <path id="Trazado_243893" data-name="Trazado 243893" d="M341.412,131.311H299.487V53.879L341.412,92.6Z" fill="#fff59d"/>
      <path id="Trazado_243894" data-name="Trazado 243894" d="M295.338,13.5a11.872,11.872,0,0,0,9.51,11.786,11.083,11.083,0,0,0,10.8,9.37,10.675,10.675,0,0,0,6.512-2.217,13.39,13.39,0,0,0,11.673,6.986A13.714,13.714,0,0,0,347.3,25.482v-.008c.088,0,.175.008.263.008" fill="none" stroke="#3f3e40" stroke-linecap="round" stroke-linejoin="round" stroke-width="4.148"/>
      <path id="Trazado_243895" data-name="Trazado 243895" d="M312.453,16.738a14.663,14.663,0,1,1,29.327,0v.022a11.3,11.3,0,0,1,19.6,7.185V40.584" fill="none" stroke="#3f3e40" stroke-linecap="round" stroke-linejoin="round" stroke-width="4.148"/>
      <path id="Trazado_243896" data-name="Trazado 243896" d="M305.61,131.311H263.685V53.879L305.61,92.6Z" fill="none" stroke="#3f3e40" stroke-linecap="round" stroke-linejoin="round" stroke-width="4.148"/>
      <path id="Trazado_243897" data-name="Trazado 243897" d="M347.446,131.311H305.521V53.879L347.446,92.6Z" fill="none" stroke="#3f3e40" stroke-linecap="round" stroke-linejoin="round" stroke-width="4.148"/>
      <rect id="Rectángulo_316462" data-name="Rectángulo 316462" width="27.086" height="68.475" transform="translate(347.446 62.836)" fill="none" stroke="#3f3e40" stroke-linecap="round" stroke-linejoin="round" stroke-width="4.148"/>
      <rect id="Rectángulo_316463" data-name="Rectángulo 316463" width="35.528" height="15.054" transform="translate(343.225 47.782)" fill="none" stroke="#3f3e40" stroke-linecap="round" stroke-linejoin="round" stroke-width="4.148"/>
      <line id="Línea_482" data-name="Línea 482" y2="47.858" transform="translate(273.708 83.453)" fill="none" stroke="#3f3e40" stroke-linecap="round" stroke-linejoin="round" stroke-width="4.148"/>
      <line id="Línea_483" data-name="Línea 483" y2="47.858" transform="translate(315.457 83.453)" fill="none" stroke="#3f3e40" stroke-linecap="round" stroke-linejoin="round" stroke-width="4.148"/>
      <line id="Línea_484" data-name="Línea 484" x2="140.64" transform="translate(249.072 131.311)" fill="none" stroke="#3f3e40" stroke-linecap="round" stroke-linejoin="round" stroke-width="4.148"/>
      <path id="Trazado_243898" data-name="Trazado 243898" d="M716.551,77.134a41.889,41.889,0,1,1,41.889,41.889,41.889,41.889,0,0,1-41.889-41.889" fill="#fff59d"/>
      <path id="Trazado_243899" data-name="Trazado 243899" d="M753.573,51.591,697.287,86.27a5.188,5.188,0,0,0,2.722,9.605H816.24a5.188,5.188,0,0,0,2.722-9.605L762.676,51.591A8.679,8.679,0,0,0,753.573,51.591Z" fill="none" stroke="#3f3e40" stroke-linecap="round" stroke-linejoin="round" stroke-width="4.313"/>
      <path id="Trazado_243900" data-name="Trazado 243900" d="M769.567,24.783a11.442,11.442,0,1,0-11.442,11.442v13.9" fill="none" stroke="#3f3e40" stroke-linecap="round" stroke-linejoin="round" stroke-width="4.313"/>
      <path id="Trazado_243901" data-name="Trazado 243901" d="M802.509,105.258a52.779,52.779,0,0,1-88.083,1.036" fill="none" stroke="#3f3e40" stroke-linecap="round" stroke-linejoin="round" stroke-width="4.313"/>
      <path id="Trazado_243902" data-name="Trazado 243902" d="M778.664,28.091a52.851,52.851,0,0,1,31.351,38.995" fill="none" stroke="#3f3e40" stroke-linecap="round" stroke-linejoin="round" stroke-width="4.313"/>
      <path id="Trazado_243903" data-name="Trazado 243903" d="M817.155,53.794l-7.124,13.291-13.292-7.124" fill="none" stroke="#3f3e40" stroke-linecap="round" stroke-linejoin="round" stroke-width="4.313"/>
      <path id="Trazado_243904" data-name="Trazado 243904" d="M735.083,28.65a52.848,52.848,0,0,0-31.351,38.994" fill="none" stroke="#3f3e40" stroke-linecap="round" stroke-linejoin="round" stroke-width="4.313"/>
      <path id="Trazado_243905" data-name="Trazado 243905" d="M732.964,43.53,735.083,28.6l-14.93-2.119" fill="none" stroke="#3f3e40" stroke-linecap="round" stroke-linejoin="round" stroke-width="4.313"/>
      <path id="Trazado_243906" data-name="Trazado 243906" d="M712.091,121.141l2.3-14.9,14.9,2.3" fill="none" stroke="#3f3e40" stroke-linecap="round" stroke-linejoin="round" stroke-width="4.313"/>
      <path id="Trazado_243907" data-name="Trazado 243907" d="M513.214,109.918l-7.4-23.77a3.693,3.693,0,0,1,5.187-4.4l19.36,9.749a3.694,3.694,0,0,1,1.149,5.7l-11.962,14.02a3.693,3.693,0,0,1-6.336-1.3" fill="#a5d6a7"/>
      <path id="Trazado_243908" data-name="Trazado 243908" d="M582.222,69.371h-24.2c-6.913,0-12.516,2.477-12.516,9.39,0,2.206,0,5.278,3.877,7.319.389.2.828.291,1.23.467l12.3,5.382,9.8,17.8c.757,2.434,6.042,6.039,7.823,4.292A50.5,50.5,0,0,0,594.667,82.77s-1.324-13.4-12.445-13.4" fill="#a5d6a7"/>
      <path id="Trazado_243909" data-name="Trazado 243909" d="M591.092,59.648a50.846,50.846,0,0,0-19.034-23.186h-.476a21.148,21.148,0,0,0-21.148,21.149,5.549,5.549,0,0,0,5.549,5.549h29.951a5.546,5.546,0,0,0,5.158-3.512" fill="#a5d6a7"/>
      <path id="Trazado_243910" data-name="Trazado 243910" d="M532.776,29.37a8.825,8.825,0,0,0-1.169,4.391v3.087a8.875,8.875,0,0,0,5.419,8.176,14.841,14.841,0,0,1,12.328-8.176V33.761a8.83,8.83,0,0,0-1.97-5.568c-1.069-.067-2.147-.106-3.233-.106a50.817,50.817,0,0,0-11.375,1.283" fill="#a5d6a7"/>
      <path id="Trazado_243911" data-name="Trazado 243911" d="M493.477,78.761q0,1.425.08,2.83l17.877-8.222a14.772,14.772,0,0,0,8.167-9.877l5.249-21.258a14.76,14.76,0,0,0-1.016-9.906,50.683,50.683,0,0,0-30.357,46.433" fill="#a5d6a7"/>
      <path id="Trazado_243912" data-name="Trazado 243912" d="M489.858,75.866a50.674,50.674,0,1,1,50.673,50.674A50.674,50.674,0,0,1,489.858,75.866Z" fill="none" stroke="#3f3e40" stroke-linecap="round" stroke-linejoin="round" stroke-width="3.981"/>
      <path id="Trazado_243913" data-name="Trazado 243913" d="M509.594,107.022l-7.4-23.77a3.693,3.693,0,0,1,5.187-4.4l19.36,9.749a3.694,3.694,0,0,1,1.149,5.7l-11.962,14.02A3.693,3.693,0,0,1,509.594,107.022Z" fill="none" stroke="#3f3e40" stroke-linecap="round" stroke-linejoin="round" stroke-width="3.981"/>
      <path id="Trazado_243914" data-name="Trazado 243914" d="M578.6,66.476H554.4c-6.913,0-12.516,2.477-12.516,9.39,0,2.206,0,5.279,3.877,7.319.389.2.828.291,1.23.467l12.3,5.382,9.8,17.8c.757,2.434,6.042,6.039,7.823,4.292a50.5,50.5,0,0,0,14.131-31.255S589.723,66.476,578.6,66.476Z" fill="none" stroke="#3f3e40" stroke-linecap="round" stroke-linejoin="round" stroke-width="3.981"/>
      <path id="Trazado_243915" data-name="Trazado 243915" d="M587.472,56.753a50.846,50.846,0,0,0-19.034-23.186h-.476a21.148,21.148,0,0,0-21.148,21.149,5.549,5.549,0,0,0,5.549,5.549h29.951A5.548,5.548,0,0,0,587.472,56.753Z" fill="none" stroke="#3f3e40" stroke-linecap="round" stroke-linejoin="round" stroke-width="3.981"/>
      <path id="Trazado_243916" data-name="Trazado 243916" d="M529.156,26.475a8.825,8.825,0,0,0-1.169,4.391v3.087a8.875,8.875,0,0,0,5.419,8.176,14.841,14.841,0,0,1,12.328-8.176V30.866a8.83,8.83,0,0,0-1.97-5.568c-1.069-.067-2.147-.106-3.233-.106A50.817,50.817,0,0,0,529.156,26.475Z" fill="none" stroke="#3f3e40" stroke-linecap="round" stroke-linejoin="round" stroke-width="3.981"/>
      <path id="Trazado_243917" data-name="Trazado 243917" d="M489.858,75.866q0,1.425.08,2.83l17.877-8.222a14.772,14.772,0,0,0,8.167-9.877l5.249-21.258a14.76,14.76,0,0,0-1.016-9.906A50.683,50.683,0,0,0,489.858,75.866Z" fill="none" stroke="#3f3e40" stroke-linecap="round" stroke-linejoin="round" stroke-width="3.981"/>
      <path id="Trazado_243918" data-name="Trazado 243918" d="M1007.476,22.192H937.371l-11.2,47.341h92.513Zm-10.19,37.7H947.561V31.835h49.725Z" fill="#a5d6a7"/>
      <path id="Trazado_243919" data-name="Trazado 243919" d="M963.221,83.328l-14.865,25.747a8.954,8.954,0,0,0,7.755,13.432h29.73a8.955,8.955,0,0,0,7.755-13.432L978.731,83.328a8.955,8.955,0,0,0-15.51,0" fill="#a5d6a7"/>
      <path id="Trazado_243920" data-name="Trazado 243920" d="M998.464,132.109H937.215a10.2,10.2,0,0,1-10.2-10.2V65.933h81.651v55.975A10.2,10.2,0,0,1,998.464,132.109Z" fill="none" stroke="#3f3e40" stroke-linecap="round" stroke-linejoin="round" stroke-width="3.981"/>
      <path id="Trazado_243921" data-name="Trazado 243921" d="M1002.893,18.592H932.787l-11.2,47.341H1014.1Z" fill="none" stroke="#3f3e40" stroke-linecap="round" stroke-linejoin="round" stroke-width="3.981"/>
      <rect id="Rectángulo_316464" data-name="Rectángulo 316464" width="49.725" height="28.056" transform="translate(942.977 27.948)" fill="none" stroke="#3f3e40" stroke-linecap="round" stroke-linejoin="round" stroke-width="3.981"/>
      <path id="Trazado_243922" data-name="Trazado 243922" d="M981.237,93.113l8.047,13.939a6.552,6.552,0,0,1-5.675,9.828h-9.8" fill="none" stroke="#3f3e40" stroke-linecap="round" stroke-linejoin="round" stroke-width="3.62"/>
      <path id="Trazado_243923" data-name="Trazado 243923" d="M953.194,93.055l8.33-14.428a6.553,6.553,0,0,1,11.349,0l5.4,9.266" fill="none" stroke="#3f3e40" stroke-linecap="round" stroke-linejoin="round" stroke-width="3.62"/>
      <path id="Trazado_243924" data-name="Trazado 243924" d="M967.2,116.881H950.787a6.553,6.553,0,0,1-5.675-9.829l5.1-8.835" fill="none" stroke="#3f3e40" stroke-linecap="round" stroke-linejoin="round" stroke-width="3.62"/>
      <path id="Trazado_243925" data-name="Trazado 243925" d="M959.641,109.323l7.558,7.558-7.558,7.558" fill="none" stroke="#3f3e40" stroke-linecap="round" stroke-linejoin="round" stroke-width="3.62"/>
      <path id="Trazado_243926" data-name="Trazado 243926" d="M991.454,95.821,981.13,93.055l-2.767,10.324" fill="none" stroke="#3f3e40" stroke-linecap="round" stroke-linejoin="round" stroke-width="3.62"/>
      <path id="Trazado_243927" data-name="Trazado 243927" d="M963.518,90.288l-10.324,2.766L950.427,82.73" fill="none" stroke="#3f3e40" stroke-linecap="round" stroke-linejoin="round" stroke-width="3.62"/>
      <path id="Trazado_243928" data-name="Trazado 243928" d="M110.106,309.187c-13.177-16.35-13.7-19.321-13.7-19.321s-.523,2.971-13.7,19.321c0,0-14.061,14.061-6.837,29.6h0a22.165,22.165,0,0,0,41.066,0h0c7.225-15.536-6.836-29.6-6.836-29.6" fill="#baeaff"/>
      <path id="Trazado_243929" data-name="Trazado 243929" d="M105.845,310.406c-13.1-16.257-13.621-19.21-13.621-19.21s-.52,2.953-13.622,19.21c0,0-13.98,13.98-6.8,29.427h0a22.038,22.038,0,0,0,40.83,0h0C119.825,324.386,105.845,310.406,105.845,310.406Z" fill="none" stroke="#3f3e40" stroke-linecap="round" stroke-linejoin="round" stroke-width="3.981"/>
      <path id="Trazado_243930" data-name="Trazado 243930" d="M92.224,345.418A15.663,15.663,0,0,1,76.56,329.755" fill="none" stroke="#3f3e40" stroke-linecap="round" stroke-linejoin="round" stroke-width="3.981"/>
      <path id="Trazado_243931" data-name="Trazado 243931" d="M345.683,299.713c-16.087-19.96-16.725-23.588-16.725-23.588s-.639,3.628-16.726,23.588c0,0-17.166,17.166-8.346,36.133l0,0a27.06,27.06,0,0,0,50.135,0l0,0c8.82-18.967-8.346-36.133-8.346-36.133" fill="#baeaff"/>
      <path id="Trazado_243932" data-name="Trazado 243932" d="M340.481,301.2c-15.994-19.846-16.629-23.452-16.629-23.452s-.635,3.606-16.63,23.452c0,0-17.067,17.067-8.3,35.925h0a26.9,26.9,0,0,0,49.846,0h0C357.548,318.269,340.481,301.2,340.481,301.2Z" fill="none" stroke="#3f3e40" stroke-linecap="round" stroke-linejoin="round" stroke-width="4.313"/>
      <path id="Trazado_243933" data-name="Trazado 243933" d="M323.852,343.946a19.123,19.123,0,0,1-19.123-19.123" fill="none" stroke="#3f3e40" stroke-linecap="round" stroke-linejoin="round" stroke-width="4.313"/>
      <path id="Trazado_243934" data-name="Trazado 243934" d="M569.659,287.066c-20.24-25.114-21.043-29.678-21.043-29.678s-.8,4.564-21.044,29.678c0,0-21.6,21.6-10.5,45.462l.005,0a34.045,34.045,0,0,0,63.077,0l.006,0c11.1-23.864-10.5-45.462-10.5-45.462" fill="#baeaff"/>
      <path id="Trazado_243935" data-name="Trazado 243935" d="M563.114,288.939c-20.124-24.97-20.922-29.507-20.922-29.507s-.8,4.537-20.923,29.507c0,0-21.473,21.474-10.44,45.2l.005,0a33.85,33.85,0,0,0,62.715,0l.005,0C584.587,310.413,563.114,288.939,563.114,288.939Z" fill="none" stroke="#3f3e40" stroke-linecap="round" stroke-linejoin="round" stroke-width="4.313"/>
      <path id="Trazado_243936" data-name="Trazado 243936" d="M542.192,342.718a24.061,24.061,0,0,1-24.061-24.06" fill="none" stroke="#3f3e40" stroke-linecap="round" stroke-linejoin="round" stroke-width="4.313"/>
      <path id="Trazado_243937" data-name="Trazado 243937" d="M785.107,277.513C762.5,249.46,761.6,244.363,761.6,244.363s-.9,5.1-23.506,33.15c0,0-24.125,24.125-11.729,50.781l.006,0a38.029,38.029,0,0,0,70.457,0l.006,0c12.4-26.656-11.729-50.781-11.729-50.781" fill="#baeaff"/>
      <path id="Trazado_243938" data-name="Trazado 243938" d="M777.8,279.605c-22.478-27.892-23.37-32.959-23.37-32.959s-.893,5.067-23.371,32.959c0,0-23.986,23.986-11.661,50.489l.005,0a37.811,37.811,0,0,0,70.053,0l.006,0C801.782,303.591,777.8,279.605,777.8,279.605Z" fill="none" stroke="#3f3e40" stroke-linecap="round" stroke-linejoin="round" stroke-width="4.313"/>
      <path id="Trazado_243939" data-name="Trazado 243939" d="M754.425,339.676A26.875,26.875,0,0,1,727.55,312.8" fill="none" stroke="#3f3e40" stroke-linecap="round" stroke-linejoin="round" stroke-width="4.313"/>
      <path id="Trazado_243940" data-name="Trazado 243940" d="M1007.851,269.366c-25.367-31.475-26.374-37.193-26.374-37.193s-1.006,5.718-26.372,37.193c0,0-27.068,27.067-13.16,56.975l.006,0a42.668,42.668,0,0,0,79.052,0l.007,0c13.907-29.908-13.159-56.975-13.159-56.975" fill="#baeaff"/>
      <path id="Trazado_243941" data-name="Trazado 243941" d="M999.648,271.714c-25.22-31.294-26.221-36.979-26.221-36.979s-1,5.685-26.221,36.979c0,0-26.912,26.912-13.084,56.647l.006,0a42.423,42.423,0,0,0,78.6,0l.006,0C1026.56,298.626,999.648,271.714,999.648,271.714Z" fill="none" stroke="#3f3e40" stroke-linecap="round" stroke-linejoin="round" stroke-width="4.313"/>
      <path id="Trazado_243942" data-name="Trazado 243942" d="M973.427,339.112a30.153,30.153,0,0,1-30.154-30.154" fill="none" stroke="#3f3e40" stroke-linecap="round" stroke-linejoin="round" stroke-width="4.313"/>
      <path id="Trazado_243943" data-name="Trazado 243943" d="M24.351,368.015v14.43H400.6V369.094" fill="none" stroke="#3f3e40" stroke-linecap="round" stroke-linejoin="round" stroke-width="4.313"/>
      <path id="Trazado_243944" data-name="Trazado 243944" d="M2.157,483.133v14.431l1027.362-.54V483.673" fill="none" stroke="#3f3e40" stroke-linecap="round" stroke-linejoin="round" stroke-width="4.313"/>
      <path id="Trazado_243945" data-name="Trazado 243945" d="M202.472,229.057l24.466-25.926L202.472,177.2" fill="none" stroke="#3f3e40" stroke-linecap="round" stroke-linejoin="round" stroke-width="4.313"/>
      <path id="Trazado_243946" data-name="Trazado 243946" d="M419.159,229.338l24.466-25.926-24.466-25.927" fill="none" stroke="#3f3e40" stroke-linecap="round" stroke-linejoin="round" stroke-width="4.313"/>
      <path id="Trazado_243947" data-name="Trazado 243947" d="M632.65,228.963l24.466-25.926L632.65,177.11" fill="none" stroke="#3f3e40" stroke-linecap="round" stroke-linejoin="round" stroke-width="4.313"/>
      <path id="Trazado_243948" data-name="Trazado 243948" d="M856.495,228.338l24.466-25.926-24.466-25.927" fill="none" stroke="#3f3e40" stroke-linecap="round" stroke-linejoin="round" stroke-width="4.313"/>
    </g>
  </g>
</svg>
