<svg xmlns="http://www.w3.org/2000/svg" width="1240.343" height="826.666" viewBox="0 0 1240.343 826.666">
  <g id="Grupo_243984" data-name="Grupo 243984" transform="translate(-206.007 -2402.001)">
    <rect id="Rectángulo_316137" data-name="Rectángulo 316137" width="1240.343" height="618.966" transform="translate(206.007 2402.001)" fill="#baeaff"/>
    <rect id="Rectángulo_316138" data-name="Rectángulo 316138" width="1240.343" height="618.966" transform="translate(206.007 2402.001)" fill="#baeaff"/>
    <rect id="Rectángulo_316139" data-name="Rectángulo 316139" width="1240.343" height="618.966" transform="translate(206.007 2402.001)" fill="none"/>
    <rect id="Rectángulo_316140" data-name="Rectángulo 316140" width="413.334" height="474.3" transform="translate(619.387 2754.143)" fill="#465860"/>
    <rect id="Rectángulo_316141" data-name="Rectángulo 316141" width="306.584" height="2.583" transform="translate(1031.232 2830.059)" fill="#00344d"/>
    <rect id="Rectángulo_316142" data-name="Rectángulo 316142" width="2.747" height="66.133" transform="translate(1068.32 2831.352)" fill="#00344d"/>
    <rect id="Rectángulo_316143" data-name="Rectángulo 316143" width="2.747" height="66.133" transform="translate(1297.983 2831.352)" fill="#00344d"/>
    <path id="Trazado_243147" data-name="Trazado 243147" d="M1214.5,470.167,1188.664,455.7l-25.836,14.467L1136.993,455.7l-25.835,14.467L1085.323,455.7l-25.831,14.467L1033.661,455.7l-25.829,14.467L982,455.7l-25.832,14.467L930.336,455.7l-25.831,14.467L878.673,455.7l-25.83,14.467L827.01,455.7V826.667h413.333V455.7Z" transform="translate(206.007 2402)" fill="#144677"/>
    <path id="Trazado_243148" data-name="Trazado 243148" d="M413.675,478.98c-.17-47.745-45.607-86.406-101.638-86.406a115.268,115.268,0,0,0-48.422,10.45c-26.816-29.851-69.038-49.107-116.543-49.107C66.157,353.917.543,409.767.343,478.726V826.667H413.677V478.98Z" transform="translate(206.007 2402)" fill="#12263f"/>
    <path id="Trazado_243149" data-name="Trazado 243149" d="M1135.2,590.292h-77.983L1135.2,461.4Zm-73.4-2.583h70.816V470.665Z" transform="translate(206.007 2402)" fill="#fff"/>
    <path id="Trazado_243150" data-name="Trazado 243150" d="M1133.91,589H1185.8l-51.892-85.767Z" transform="translate(206.007 2402)" fill="#35b0e5"/>
    <rect id="Rectángulo_316144" data-name="Rectángulo 316144" width="2.583" height="149.833" transform="translate(1338.625 2868.034)" fill="#fff"/>
    <path id="Trazado_243151" data-name="Trazado 243151" d="M1104.46,652.55l-16.533-37.2h91.966l-14.466,37.2" transform="translate(206.007 2402)" fill="#fff"/>
    <path id="Trazado_243152" data-name="Trazado 243152" d="M1108.077,772.492h69.888a9.669,9.669,0,0,0,9.668-9.668V726.361a33.425,33.425,0,0,0-33.425-33.425H909.187c46.408,49.723,116.019,79.556,198.89,79.556" transform="translate(206.007 2402)" fill="#009688"/>
    <path id="Trazado_243153" data-name="Trazado 243153" d="M1110.918,760.891h76.714v1.934a9.668,9.668,0,0,1-9.667,9.668h-69.888c-77.986,0-144.223-26.426-190.437-70.979,49.313,37.495,115.994,59.377,193.278,59.377" transform="translate(206.007 2402)" fill="#baeaff"/>
    <path id="Trazado_243154" data-name="Trazado 243154" d="M1177.965,773.784h-69.889c-75.663,0-143.614-25.336-191.333-71.34a1.292,1.292,0,0,1,1.678-1.958c50.864,38.672,117.428,59.113,192.5,59.113h76.715a1.291,1.291,0,0,1,1.292,1.291v1.935a10.972,10.972,0,0,1-10.96,10.959M936.039,715.813c45.694,35.87,105.875,55.388,172.037,55.388h69.889a8.385,8.385,0,0,0,8.376-8.376v-.643h-75.423c-66.544,0-126.485-15.963-174.879-46.369" transform="translate(206.007 2402)" fill="#fff"/>
    <path id="Trazado_243155" data-name="Trazado 243155" d="M1146.2,746.8a5.8,5.8,0,1,0,5.8-5.8,5.8,5.8,0,0,0-5.8,5.8" transform="translate(206.007 2402)" fill="#fff"/>
    <path id="Trazado_243156" data-name="Trazado 243156" d="M1045.043,793.907l61.429-34.542L1062.717,743.9Z" transform="translate(206.007 2402)" fill="#009688"/>
    <path id="Trazado_243157" data-name="Trazado 243157" d="M885.27,707.9c-.51.568-.968,1.164-1.427,1.759A29.749,29.749,0,0,1,915.2,687.291a29.751,29.751,0,0,1,18.892-33.565c-.542.52-1.086,1.039-1.6,1.607a29.821,29.821,0,0,0-1.376,38.191c.529.415-7.552,9.411-8.021,8.929A29.824,29.824,0,0,0,885.27,707.9" transform="translate(206.007 2402)" fill="#009688"/>
    <rect id="Rectángulo_316145" data-name="Rectángulo 316145" width="2.583" height="263.5" transform="translate(1114.502 2663.588)" fill="#fff"/>
    <rect id="Rectángulo_316146" data-name="Rectángulo 316146" width="2.583" height="142.275" transform="translate(1115.605 2664.67) rotate(-56.864)" fill="#00344d"/>
    <path id="Trazado_243158" data-name="Trazado 243158" d="M1044.789,427.886h13.072c.016-1.155-9.519-83.578-9.519-83.578l-14.506,1.716,17.979,77.751c-3.423.771-7.026,3.126-7.026,4.111" transform="translate(206.007 2402)" fill="#00344d"/>
    <path id="Trazado_243159" data-name="Trazado 243159" d="M1037.106,344.308l-14.657,1.716,11.177,77.751c-3.49.771-7.3,3.126-7.386,4.111h13.072c.117-1.155-2.206-83.578-2.206-83.578" transform="translate(206.007 2402)" fill="#00344d"/>
    <path id="Trazado_243160" data-name="Trazado 243160" d="M1021.165,351.77l30.885-.234s-.5-28.712-.5-38.281c0-4.133-5.166-9.3-22.733-5.166-9.785,2.3-7.654,43.681-7.654,43.681" transform="translate(206.007 2402)" fill="#8bb0bf"/>
    <path id="Trazado_243161" data-name="Trazado 243161" d="M1043.376,292.063a5.513,5.513,0,0,0-9.673-3.878c-1.383,1.583-2.228,10.739-1.413,13.038.423,1.191,1.614,1.7,3.009,1.834l-.069,4.08c-.028,1.7,1.369,2.743,3.024,3.126,4,.925,4.967-14.937,5.122-18.2" transform="translate(206.007 2402)" fill="#fff"/>
    <path id="Trazado_243162" data-name="Trazado 243162" d="M1039.153,283.289c-8.469-.941-9.223,5.016-7.233,6.2,3.86,2.3,10.333,2.067,10.333,2.067s-1.033,7.233,1.033,6.2c3.811-1.906,5.167-13.434-4.133-14.467" transform="translate(206.007 2402)" fill="#00344d"/>
    <path id="Trazado_243163" data-name="Trazado 243163" d="M992.641,317.8c-.506-1.938,9.112-5.859,11.453-2.346,2.3,3.454-10.54,5.856-11.453,2.346" transform="translate(206.007 2402)" fill="#fff"/>
    <path id="Trazado_243164" data-name="Trazado 243164" d="M1050.123,311.23c-1.437-11.493-51.325,2.8-51.325,2.8l1.435,4.919s50.717-1.1,49.89-7.717" transform="translate(206.007 2402)" fill="#8bb0bf"/>
    <path id="Trazado_243165" data-name="Trazado 243165" d="M906.993,530.255l-4.346,11.5c2.389.333,5.4-2.179,7.064-5.754,1.664,3.575,4.675,6.087,7.064,5.754l-4.314-11.5Z" transform="translate(206.007 2402)" fill="#fff"/>
    <path id="Trazado_243166" data-name="Trazado 243166" d="M912.3,530.255c2.428-4.725,5.67-12.735,5.67-21.822,0-14.527-3.71-26.3-8.286-26.3s-8.285,11.776-8.285,26.3c0,9.087,3.242,17.1,5.67,21.822Z" transform="translate(206.007 2402)" fill="#009688"/>
    <path id="Trazado_243167" data-name="Trazado 243167" d="M909.692,499.15a8.891,8.891,0,0,1-6.056-2.254l1.743-1.908a7.013,7.013,0,0,0,9.26-.336l1.87,1.782a9.569,9.569,0,0,1-6.817,2.716" transform="translate(206.007 2402)" fill="#fff"/>
    <rect id="Rectángulo_316147" data-name="Rectángulo 316147" width="413.333" height="41.428" transform="translate(206.35 2937.689)" fill="#35b0e5"/>
    <path id="Trazado_243168" data-name="Trazado 243168" d="M826.861,680.45H156.376V608.419l-4.033-4.034.021-.009-99.479-.236.158,82.252a97.5,97.5,0,0,0,97.391,97.391H826.862Z" transform="translate(206.007 2402)" fill="#35b0e5"/>
    <path id="Trazado_243169" data-name="Trazado 243169" d="M662.56,726.519l-11.5-4.346c-.333,2.389,2.179,5.4,5.754,7.064-3.575,1.664-6.087,4.675-5.754,7.064l11.5-4.314Z" transform="translate(206.007 2402)" fill="#fff"/>
    <path id="Trazado_243170" data-name="Trazado 243170" d="M662.56,731.827c4.725,2.428,12.736,5.67,21.822,5.67,14.527,0,26.3-3.71,26.3-8.286s-11.776-8.285-26.3-8.285c-9.087,0-17.1,3.242-21.822,5.67Z" transform="translate(206.007 2402)" fill="#00344d"/>
    <path id="Trazado_243171" data-name="Trazado 243171" d="M696.382,736.034c-3.085-2.938-3.938-9.068-.46-12.871l1.905,1.743a7.014,7.014,0,0,0,.338,9.258Z" transform="translate(206.007 2402)" fill="#fff"/>
    <path id="Trazado_243172" data-name="Trazado 243172" d="M622.556,697.586l-11.5-4.346c-.333,2.389,2.179,5.4,5.754,7.064-3.575,1.663-6.087,4.675-5.754,7.064l11.5-4.314Z" transform="translate(206.007 2402)" fill="#fff"/>
    <path id="Trazado_243173" data-name="Trazado 243173" d="M622.556,702.894c4.725,2.428,12.736,5.67,21.822,5.67,14.527,0,26.3-3.71,26.3-8.286s-11.776-8.285-26.3-8.285c-9.086,0-17.1,3.242-21.822,5.67Z" transform="translate(206.007 2402)" fill="#00344d"/>
    <path id="Trazado_243174" data-name="Trazado 243174" d="M656.377,707.1c-3.085-2.938-3.938-9.068-.46-12.871l1.905,1.743a7.014,7.014,0,0,0,.338,9.258Z" transform="translate(206.007 2402)" fill="#fff"/>
    <path id="Trazado_243175" data-name="Trazado 243175" d="M582.552,755.452l-11.5-4.346c-.333,2.389,2.179,5.4,5.754,7.064-3.575,1.664-6.087,4.675-5.754,7.064l11.5-4.314Z" transform="translate(206.007 2402)" fill="#fff"/>
    <path id="Trazado_243176" data-name="Trazado 243176" d="M582.552,760.761c4.725,2.428,12.735,5.67,21.822,5.67,14.527,0,26.3-3.71,26.3-8.286s-11.776-8.285-26.3-8.285c-9.087,0-17.1,3.242-21.822,5.67Z" transform="translate(206.007 2402)" fill="#00344d"/>
    <path id="Trazado_243177" data-name="Trazado 243177" d="M616.373,764.967c-3.085-2.938-3.938-9.068-.462-12.871l1.907,1.743a7.013,7.013,0,0,0,.338,9.258Z" transform="translate(206.007 2402)" fill="#fff"/>
    <path id="Trazado_243178" data-name="Trazado 243178" d="M127.5,345.351h-7.312a23.406,23.406,0,0,1-23.337-23.337V314.7a23.406,23.406,0,0,1,23.337-23.337H127.5A23.406,23.406,0,0,1,150.833,314.7v7.312A23.406,23.406,0,0,1,127.5,345.351" transform="translate(206.007 2402)" fill="#009688"/>
    <rect id="Rectángulo_316148" data-name="Rectángulo 316148" width="2.847" height="71.498" transform="translate(328.423 2716.215)" fill="#fff"/>
    <rect id="Rectángulo_316149" data-name="Rectángulo 316149" width="2.846" height="16.673" transform="matrix(0.707, -0.707, 0.707, 0.707, 316.881, 2729.392)" fill="#fff"/>
    <path id="Trazado_243179" data-name="Trazado 243179" d="M226.339,371.871a28.229,28.229,0,1,0,28.229-28.229,28.23,28.23,0,0,0-28.229,28.229" transform="translate(206.007 2402)" fill="#009688"/>
    <rect id="Rectángulo_316150" data-name="Rectángulo 316150" width="2.583" height="64.872" transform="translate(459.198 2772.656)" fill="#fff"/>
    <rect id="Rectángulo_316151" data-name="Rectángulo 316151" width="15.128" height="2.582" transform="translate(459.921 2785.891) rotate(-45)" fill="#fff"/>
    <rect id="Rectángulo_316152" data-name="Rectángulo 316152" width="2.583" height="23.182" transform="translate(443.348 2780.486) rotate(-44.397)" fill="#fff"/>
    <path id="Trazado_243180" data-name="Trazado 243180" d="M29.345,395.256a28.229,28.229,0,1,0,28.229-28.229,28.229,28.229,0,0,0-28.229,28.229" transform="translate(206.007 2402)" fill="#009688"/>
    <rect id="Rectángulo_316153" data-name="Rectángulo 316153" width="2.583" height="64.872" transform="translate(262.204 2796.041)" fill="#fff"/>
    <rect id="Rectángulo_316154" data-name="Rectángulo 316154" width="15.128" height="2.582" transform="matrix(0.707, -0.707, 0.707, 0.707, 262.928, 2809.275)" fill="#fff"/>
    <rect id="Rectángulo_316155" data-name="Rectángulo 316155" width="2.583" height="23.181" transform="translate(246.355 2803.872) rotate(-44.395)" fill="#fff"/>
    <path id="Trazado_243181" data-name="Trazado 243181" d="M655.218,413.392v-69.75h23.25v125.55H802.985v23.25H678.468V508.2a34.4,34.4,0,0,1-34.358,34.359H490.918v-23.25H644.11A11.121,11.121,0,0,0,655.218,508.2V436.642" transform="translate(206.007 2402)" fill="#fff"/>
    <path id="Trazado_243182" data-name="Trazado 243182" d="M512.272,694.228l-2.085-1.527c5.84-7.975,9.189-20.16,9.189-33.434h2.584c0,13.81-3.532,26.552-9.688,34.961" transform="translate(206.007 2402)" fill="#fff"/>
    <path id="Trazado_243183" data-name="Trazado 243183" d="M551.714,694.228c-6.156-8.409-9.688-21.151-9.688-34.961h2.584c0,13.274,3.349,25.459,9.189,33.434Z" transform="translate(206.007 2402)" fill="#fff"/>
    <rect id="Rectángulo_316156" data-name="Rectángulo 316156" width="2.583" height="40.3" transform="translate(736.709 3061.268)" fill="#fff"/>
    <rect id="Rectángulo_316157" data-name="Rectángulo 316157" width="23.25" height="87.317" transform="translate(726.892 2963.875)" fill="#fff"/>
    <path id="Trazado_243184" data-name="Trazado 243184" d="M568.935,571.97H491.952a18.859,18.859,0,0,1-18.859-18.858V494.728a18.859,18.859,0,0,1,18.859-18.858h76.983a18.858,18.858,0,0,1,18.858,18.858v58.384a18.858,18.858,0,0,1-18.858,18.858" transform="translate(206.007 2402)" fill="#35b0e5"/>
    <path id="Trazado_243185" data-name="Trazado 243185" d="M520.236,514.954,514.6,511.64l5.725-9.736a11.212,11.212,0,0,1,19.331,0l5.724,9.736-5.637,3.314-5.724-9.735a4.673,4.673,0,0,0-8.056,0Z" transform="translate(206.007 2402)" fill="#fff"/>
    <path id="Trazado_243186" data-name="Trazado 243186" d="M545.884,518.86l-12.611-5.713,12.713-8.131Z" transform="translate(206.007 2402)" fill="#fff"/>
    <path id="Trazado_243187" data-name="Trazado 243187" d="M535.179,546.864l-.309-6.533,11.283-.532a4.672,4.672,0,0,0,3.752-7.128l-5.95-9.6,5.559-3.446,5.95,9.6a11.212,11.212,0,0,1-9,17.107Z" transform="translate(206.007 2402)" fill="#fff"/>
    <path id="Trazado_243188" data-name="Trazado 243188" d="M528.538,543.688l11.3-8,.6,15.078Z" transform="translate(206.007 2402)" fill="#fff"/>
    <path id="Trazado_243189" data-name="Trazado 243189" d="M526.2,546.84l-11.294-.044a11.212,11.212,0,0,1-9.733-16.7l5.529-9.848,5.7,3.2-5.53,9.849a4.671,4.671,0,0,0,4.055,6.959l11.295.044Z" transform="translate(206.007 2402)" fill="#fff"/>
    <path id="Trazado_243190" data-name="Trazado 243190" d="M516.918,516.3l.794,13.822-13.1-7.485Z" transform="translate(206.007 2402)" fill="#fff"/>
    <rect id="Rectángulo_316158" data-name="Rectángulo 316158" width="111.327" height="91.913" transform="translate(716.343 2664.063)" fill="#00344d"/>
    <path id="Trazado_243191" data-name="Trazado 243191" d="M678.053,197.367,630.205,261.31H621.7v92.665h114.19V262.063Z" transform="translate(206.007 2402)" fill="#009688"/>
    <path id="Trazado_243192" data-name="Trazado 243192" d="M689.481,197.367H553.857l-62.064,71.626H629.529l48.524-69.315,57.833,69.315h13.007Z" transform="translate(206.007 2402)" fill="#35b0e5"/>
    <path id="Trazado_243193" data-name="Trazado 243193" d="M531.372,318.07h24.79V292.737a12.395,12.395,0,1,0-24.79,0Z" transform="translate(206.007 2402)" fill="#fff"/>
    <rect id="Rectángulo_316160" data-name="Rectángulo 316160" width="2.583" height="56.61" transform="translate(748.482 2672.9)" fill="#00344d"/>
    <rect id="Rectángulo_316161" data-name="Rectángulo 316161" width="36.167" height="2.583" transform="translate(731.69 2699.915)" fill="#00344d"/>
    <path id="Trazado_243194" data-name="Trazado 243194" d="M531.372,294.2v23.87h24.79V294.2c0-7.654-5.549-13.858-12.4-13.858s-12.394,6.2-12.394,13.858" transform="translate(206.007 2402)" fill="none"/>
    <path id="Trazado_243195" data-name="Trazado 243195" d="M560.177,327.944H527.356V317h32.821Zm-29.967-2.855h27.112v-5.233H530.21Z" transform="translate(206.007 2402)" fill="#fff"/>
    <path id="Trazado_243196" data-name="Trazado 243196" d="M575.8,318.07h24.79V292.737a12.395,12.395,0,1,0-24.79,0Z" transform="translate(206.007 2402)" fill="#fff"/>
    <rect id="Rectángulo_316163" data-name="Rectángulo 316163" width="2.583" height="56.61" transform="translate(792.915 2672.9)" fill="#00344d"/>
    <rect id="Rectángulo_316164" data-name="Rectángulo 316164" width="36.167" height="2.583" transform="translate(776.123 2699.915)" fill="#00344d"/>
    <path id="Trazado_243197" data-name="Trazado 243197" d="M575.8,294.2v23.87h24.79V294.2c0-7.654-5.549-13.858-12.395-13.858s-12.4,6.2-12.4,13.858" transform="translate(206.007 2402)" fill="none"/>
    <path id="Trazado_243198" data-name="Trazado 243198" d="M604.61,327.944H571.789V317H604.61Zm-29.966-2.855h27.112v-5.233H574.644Z" transform="translate(206.007 2402)" fill="#fff"/>
    <path id="Trazado_243199" data-name="Trazado 243199" d="M695.672,318.07h24.79V292.737a12.395,12.395,0,1,0-24.79,0Z" transform="translate(206.007 2402)" fill="#fff"/>
    <rect id="Rectángulo_316166" data-name="Rectángulo 316166" width="2.583" height="56.61" transform="translate(912.782 2672.9)" fill="#00344d"/>
    <rect id="Rectángulo_316167" data-name="Rectángulo 316167" width="36.167" height="2.583" transform="translate(895.99 2699.915)" fill="#00344d"/>
    <path id="Trazado_243200" data-name="Trazado 243200" d="M695.672,294.2v23.87h24.79V294.2c0-7.654-5.55-13.858-12.395-13.858s-12.4,6.2-12.4,13.858" transform="translate(206.007 2402)" fill="none"/>
    <path id="Trazado_243201" data-name="Trazado 243201" d="M724.341,327.808h-32.55V317.137h32.55Zm-29.966-2.583h27.383v-5.5H694.375Z" transform="translate(206.007 2402)" fill="#00344d"/>
    <path id="Trazado_243202" data-name="Trazado 243202" d="M684.435,355.268H649.417V296.414c0-10.71,7.854-19.423,17.508-19.423s17.51,8.713,17.51,19.423ZM652,352.685h29.852V296.414c0-9.285-6.7-16.84-14.925-16.84S652,287.129,652,296.414Z" transform="translate(206.007 2402)" fill="#00344d"/>
    <rect id="Rectángulo_316168" data-name="Rectángulo 316168" width="103.333" height="2.583" transform="translate(770.034 2607.376)" fill="#00344d"/>
    <rect id="Rectángulo_316169" data-name="Rectángulo 316169" width="103.333" height="2.583" transform="translate(742.65 2633.467)" fill="#00344d"/>
    <rect id="Rectángulo_316170" data-name="Rectángulo 316170" width="103.333" height="2.583" transform="translate(756.342 2620.422)" fill="#00344d"/>
    <rect id="Rectángulo_316171" data-name="Rectángulo 316171" width="103.333" height="2.583" transform="translate(728.959 2646.513)" fill="#00344d"/>
    <rect id="Rectángulo_316172" data-name="Rectángulo 316172" width="103.333" height="2.583" transform="translate(715.267 2659.559)" fill="#00344d"/>
    <rect id="Rectángulo_316173" data-name="Rectángulo 316173" width="413.333" height="2.583" transform="translate(620.717 2754.626)" fill="#00344d"/>
    <path id="Trazado_243203" data-name="Trazado 243203" d="M790.705,318.31h-6.634A21.236,21.236,0,0,1,762.9,297.136V290.5a21.237,21.237,0,0,1,21.174-21.175h6.634A21.237,21.237,0,0,1,811.879,290.5v6.634a21.236,21.236,0,0,1-21.174,21.174" transform="translate(206.007 2402)" fill="#009688"/>
    <rect id="Rectángulo_316174" data-name="Rectángulo 316174" width="2.583" height="64.872" transform="translate(992.103 2692.059)" fill="#00344d"/>
    <rect id="Rectángulo_316175" data-name="Rectángulo 316175" width="2.584" height="15.128" transform="matrix(0.707, -0.707, 0.707, 0.707, 981.629, 2704.015)" fill="#00344d"/>
    <path id="Trazado_243204" data-name="Trazado 243204" d="M475.619,324.564h-5.053a16.175,16.175,0,0,1-16.128-16.127v-5.053a16.175,16.175,0,0,1,16.128-16.128h5.053a16.174,16.174,0,0,1,16.127,16.128v5.053a16.174,16.174,0,0,1-16.127,16.127" transform="translate(206.007 2402)" fill="#009688"/>
    <rect id="Rectángulo_316176" data-name="Rectángulo 316176" width="1.968" height="49.41" transform="translate(678.115 2705.047)" fill="#00344d"/>
    <rect id="Rectángulo_316177" data-name="Rectángulo 316177" width="1.968" height="11.522" transform="translate(670.139 2714.153) rotate(-45)" fill="#00344d"/>
    <path id="Trazado_243205" data-name="Trazado 243205" d="M166.579,368.781h-6.634a21.236,21.236,0,0,1-21.174-21.174v-6.634A21.236,21.236,0,0,1,159.945,319.8h6.634a21.236,21.236,0,0,1,21.174,21.174v6.634a21.236,21.236,0,0,1-21.174,21.174" transform="translate(206.007 2402)" fill="#009688"/>
    <rect id="Rectángulo_316178" data-name="Rectángulo 316178" width="2.583" height="64.872" transform="translate(367.977 2742.53)" fill="#fff"/>
    <rect id="Rectángulo_316179" data-name="Rectángulo 316179" width="2.582" height="15.128" transform="translate(357.504 2754.485) rotate(-45)" fill="#fff"/>
    <path id="Trazado_243206" data-name="Trazado 243206" d="M120.761,416.062h-5.028a16.094,16.094,0,0,1-16.046-16.046v-5.027a16.093,16.093,0,0,1,16.046-16.046h5.028a16.093,16.093,0,0,1,16.046,16.046v5.027a16.094,16.094,0,0,1-16.046,16.046" transform="translate(206.007 2402)" fill="#009688"/>
    <rect id="Rectángulo_316180" data-name="Rectángulo 316180" width="1.958" height="49.16" transform="translate(323.275 2796.654)" fill="#fff"/>
    <rect id="Rectángulo_316181" data-name="Rectángulo 316181" width="1.957" height="11.464" transform="translate(315.338 2805.714) rotate(-45.004)" fill="#fff"/>
    <rect id="Rectángulo_316182" data-name="Rectángulo 316182" width="413.333" height="13.019" transform="translate(206.35 2884.513)" fill="#12263f"/>
    <path id="Trazado_243207" data-name="Trazado 243207" d="M.343,500.5c22.963,0,22.963,20,45.925,20s22.962-20,45.924-20,22.963,20,45.926,20,22.961-20,45.923-20,22.962,20,45.923,20,22.963-20,45.926-20,22.963,20,45.925,20,22.965-20,45.931-20,22.965,20,45.93,20V540.1H.343Z" transform="translate(206.007 2402)" fill="#35b0e5"/>
    <rect id="Rectángulo_316183" data-name="Rectángulo 316183" width="413.333" height="8.094" transform="translate(206.35 2979.117)" fill="#12263f"/>
    <path id="Trazado_243208" data-name="Trazado 243208" d="M156.376,599.366l-5.568-5.8,4.268-5.306.394-.49-.394-.41-5.173-5.38,4.661-5.794-5.37,5.589-.2.205.2.245,4.463,5.545c-1.323,1.377-5.478,5.708-5.567,5.795l.591.736,4.071,5.064-3.194,3.327c1.262-1.574,2.484-3.1,2.675-3.327-.247-.259-4.051-4.219-5.567-5.8l4.267-5.306.394-.49-.394-.41-5.173-5.38,4.661-5.794-5.37,5.589-.2.205.2.245,4.463,5.545c-1.323,1.377-5.477,5.708-5.566,5.795l.591.736,4.07,5.064-3.194,3.327c1.262-1.574,2.484-3.1,2.675-3.327-.247-.259-4.051-4.219-5.567-5.8l4.267-5.306.4-.49-.4-.41-5.173-5.38,4.661-5.794-5.37,5.589-.2.205.2.245,4.464,5.545c-1.324,1.377-5.478,5.708-5.567,5.795l.591.736,4.07,5.064-3.194,3.327c1.262-1.574,2.484-3.1,2.676-3.327l-5.568-5.8,4.267-5.306.4-.49-.4-.41-5.173-5.38,4.662-5.794-5.371,5.589-.2.205.2.245,4.464,5.545c-1.324,1.377-5.478,5.708-5.567,5.795l.591.736,4.071,5.064-3.2,3.327c1.263-1.574,2.484-3.1,2.676-3.327l-5.568-5.8,4.268-5.306.394-.49-.4-.41-5.172-5.38,4.661-5.794-5.37,5.589-.2.205.2.245,4.463,5.545c-1.324,1.377-5.478,5.708-5.567,5.795l.591.736,4.071,5.064-3.2,3.327c1.263-1.574,2.485-3.1,2.676-3.327-.247-.259-4.051-4.219-5.567-5.8l4.267-5.306.394-.49-.394-.41-5.173-5.38,4.661-5.794-5.37,5.589-.2.205.2.245,4.463,5.545c-1.323,1.377-5.477,5.708-5.566,5.795l.59.736,4.071,5.064-3.194,3.327c1.262-1.574,2.484-3.1,2.675-3.327-.247-.259-4.051-4.219-5.567-5.8l4.267-5.306.394-.49-.394-.41-5.173-5.38,4.661-5.794-5.37,5.589-.2.205.2.245,4.464,5.545c-1.324,1.377-5.478,5.708-5.567,5.795l.591.736,4.07,5.064-3.194,3.327c1.262-1.574,2.484-3.1,2.676-3.327l-5.568-5.8,4.267-5.306.4-.49-.4-.41-5.173-5.38,4.661-5.794-5.37,5.589-.2.205.2.245,4.464,5.545c-1.324,1.377-5.478,5.708-5.567,5.795l.591.736,4.07,5.064-3.194,3.327c1.263-1.574,2.484-3.1,2.676-3.327l-5.568-5.8,4.268-5.306.394-.49-.4-.41-5.173-5.38,4.662-5.794-5.371,5.589-.2.205.2.245,4.464,5.545c-1.324,1.377-5.478,5.708-5.567,5.795l.591.736,4.071,5.064-3.195,3.327c1.263-1.574,2.484-3.1,2.676-3.327l-5.568-5.8,4.268-5.306.394-.49-.394-.41-5.173-5.38,4.661-5.794-5.37,5.589-.2.205.2.245,4.463,5.545c-1.323,1.377-5.478,5.708-5.567,5.795l.591.736,4.071,5.064-3.195,3.327c1.263-1.574,2.485-3.1,2.676-3.327-.247-.259-4.051-4.219-5.567-5.8l4.267-5.306.394-.49-.394-.41-5.173-5.38,4.661-5.794-5.37,5.589-.2.205.2.245,4.463,5.545c-1.323,1.377-5.477,5.708-5.566,5.795l.591.736,4.07,5.064-3.194,3.327c1.262-1.574,2.484-3.1,2.675-3.327-.247-.259-4.051-4.219-5.567-5.8l4.267-5.306.4-.49-.4-.41-5.173-5.38,4.661-5.794-5.37,5.589-.2.205.2.245,4.464,5.545c-1.324,1.377-5.478,5.708-5.567,5.795l.591.736,4.07,5.064-3.194,3.327c1.263-1.574,2.484-3.1,2.676-3.327l-5.568-5.8,4.267-5.306.4-.49-.4-.41-5.173-5.38,4.662-5.794-5.371,5.589-.2.205.2.245,4.464,5.545c-1.324,1.377-5.478,5.708-5.567,5.795l.591.736,4.071,5.064-3.195,3.327c1.263-1.574,2.484-3.1,2.676-3.327l-5.568-5.8,4.268-5.306.394-.49-.395-.41-5.172-5.38,4.661-5.794-5.371,5.589-.2.205.2.245,4.463,5.545c-1.323,1.377-5.478,5.708-5.567,5.795l.591.736,4.071,5.064-3.2,3.327c1.263-1.574,2.485-3.1,2.676-3.327l-5.568-5.8,4.268-5.306.394-.49-.394-.41-5.173-5.38,4.661-5.794-5.37,5.589-.2.205.2.245,4.463,5.545c-1.323,1.377-5.477,5.708-5.566,5.795l.591.736,4.07,5.064-3.194,3.327c1.262-1.574,2.484-3.1,2.675-3.327-.247-.259-4.051-4.219-5.567-5.8l4.267-5.306.4-.49-.4-.41-5.173-5.38,4.661-5.794-5.37,5.589-.2.205.2.245,4.464,5.545c-1.324,1.377-5.478,5.708-5.567,5.795l.591.736,4.07,5.064-3.194,3.327c1.262-1.574,2.484-3.1,2.676-3.327l-5.568-5.8,4.267-5.306.395-.49-.395-.41-5.173-5.38,4.662-5.794-5.371,5.589-.2.205.2.245,4.464,5.545c-1.324,1.377-5.478,5.708-5.567,5.795l.591.736,4.07,5.064-3.194,3.327c1.263-1.574,2.484-3.1,2.676-3.327l-5.568-5.8,4.268-5.306.394-.49-.395-.41-5.173-5.38,4.662-5.794-5.371,5.589-.2.205.2.245,4.464,5.545c-1.324,1.377-5.478,5.708-5.567,5.795l.591.736,4.071,5.064-3.195,3.327c1.263-1.574,2.484-3.1,2.676-3.327l-5.568-5.8,4.268-5.306.394-.49-.394-.41-5.173-5.38,4.661-5.794-5.37,5.589-.2.205.2.245,4.463,5.545c-1.323,1.377-5.478,5.708-5.567,5.795l.591.736,4.071,5.064-3.195,3.327c1.263-1.574,2.485-3.1,2.676-3.327-.247-.259-4.051-4.219-5.567-5.8l4.267-5.306.394-.49-.394-.41-5.173-5.38,4.661-5.794-5.37,5.589-.2.205.2.245,4.463,5.545c-1.323,1.377-5.477,5.708-5.566,5.795l.591.736,4.07,5.064-3.194,3.327c1.262-1.574,2.484-3.1,2.675-3.327-.247-.259-4.051-4.219-5.567-5.8l4.267-5.306.395-.49-.395-.41-5.173-5.38,4.661-5.794-5.37,5.589-.2.205.2.245,4.464,5.545c-1.324,1.377-5.478,5.708-5.567,5.795l.591.736,4.07,5.064L66.7,602.693c1.263-1.574,2.484-3.1,2.676-3.327l-5.568-5.8,4.267-5.306.395-.49-.395-.41-5.173-5.38,4.662-5.794-5.371,5.589-.2.205.2.245,4.464,5.545c-1.324,1.377-5.478,5.708-5.567,5.795l.591.736,4.071,5.064-3.195,3.327c1.263-1.574,2.484-3.1,2.676-3.327l-5.568-5.8,4.268-5.306.394-.49-.4-.41-5.172-5.38,4.661-5.794-5.37,5.589-.2.205.2.245,4.463,5.545c-1.323,1.377-5.478,5.708-5.567,5.795l.591.736,4.071,5.064-3.194,3.327c1.262-1.574,2.484-3.1,2.675-3.327-.247-.259-4.051-4.219-5.568-5.8l4.268-5.306.394-.49-.394-.41-5.173-5.38,4.661-5.794-5.37,5.589-.2.205.2.245,4.463,5.545c-1.323,1.377-5.477,5.708-5.566,5.795l.59.736,4.071,5.064-4.583,4.774,2.561,2.25c.185-.225.878-1.088,1.716-2.133l2.427,2.133c.184-.225.877-1.088,1.715-2.133l2.428,2.133c.184-.225.877-1.088,1.715-2.133l2.427,2.133c.185-.225.878-1.088,1.716-2.133l2.427,2.133c.185-.225.878-1.088,1.716-2.133l2.427,2.133c.185-.225.878-1.088,1.716-2.133L80.3,606.39c.184-.225.877-1.088,1.715-2.133l2.428,2.133c.184-.225.877-1.088,1.715-2.133l2.427,2.133c.185-.225.878-1.088,1.716-2.133l2.427,2.133c.185-.225.878-1.088,1.716-2.133l2.427,2.133c.184-.225.877-1.088,1.715-2.133l2.428,2.133c.184-.225.877-1.088,1.715-2.133l2.428,2.133c.184-.225.877-1.088,1.715-2.133l2.427,2.133c.185-.225.878-1.088,1.716-2.133l2.427,2.133c.184-.225.878-1.088,1.716-2.133l2.427,2.133c.184-.225.877-1.088,1.715-2.133l2.428,2.133c.184-.225.877-1.088,1.715-2.133l2.427,2.133c.185-.225.878-1.088,1.716-2.133l2.427,2.133c.185-.225.878-1.088,1.716-2.133l2.427,2.133c.184-.225.877-1.088,1.715-2.133l2.428,2.133c.184-.225.877-1.088,1.715-2.133l2.427,2.133c.185-.225.878-1.088,1.716-2.133l2.427,2.133c.185-.225.878-1.088,1.716-2.133l2.427,2.133c.531-.65,5.253-6.55,5.646-7.024" transform="translate(206.007 2402)" fill="#35b0e5"/>
    <path id="Trazado_243209" data-name="Trazado 243209" d="M826.949,783.784l5.8-5.568,5.306,4.268.49.394.41-.394,5.38-5.173,5.794,4.661-5.589-5.37-.205-.2-.245.2-5.545,4.463c-1.377-1.323-5.708-5.478-5.795-5.567l-.736.591-5.064,4.071-3.327-3.194c1.574,1.262,3.1,2.484,3.327,2.675.259-.247,4.219-4.051,5.8-5.567l5.306,4.267.49.394.41-.394,5.38-5.173,5.794,4.661-5.589-5.37-.205-.2-.245.2-5.545,4.463c-1.377-1.323-5.708-5.477-5.795-5.566l-.736.591-5.064,4.07-3.327-3.194c1.574,1.262,3.1,2.484,3.327,2.675.259-.247,4.219-4.051,5.8-5.567l5.306,4.267.49.4.41-.4,5.38-5.173,5.794,4.661-5.589-5.37-.205-.2-.245.2-5.545,4.464c-1.377-1.324-5.708-5.478-5.795-5.567l-.736.591-5.064,4.07-3.327-3.194c1.574,1.262,3.1,2.484,3.327,2.676l5.8-5.568,5.306,4.267.49.4.41-.4,5.38-5.173,5.794,4.662-5.589-5.371-.205-.2-.245.2-5.545,4.464c-1.377-1.324-5.708-5.478-5.795-5.567l-.736.591-5.064,4.071-3.327-3.2c1.574,1.263,3.1,2.484,3.327,2.676l5.8-5.568,5.306,4.268.49.394.41-.4,5.38-5.172,5.794,4.661-5.589-5.37-.205-.2-.245.2-5.545,4.463c-1.377-1.324-5.708-5.478-5.795-5.567l-.736.591-5.064,4.071-3.327-3.2c1.574,1.263,3.1,2.485,3.327,2.676.259-.247,4.219-4.051,5.8-5.567l5.306,4.267.49.394.41-.394,5.38-5.173,5.794,4.661-5.589-5.37-.205-.2-.245.2-5.545,4.463c-1.377-1.323-5.708-5.477-5.795-5.566l-.736.59-5.064,4.071-3.327-3.194c1.574,1.262,3.1,2.484,3.327,2.675.259-.247,4.219-4.051,5.8-5.567l5.306,4.267.49.394.41-.394,5.38-5.173,5.794,4.661-5.589-5.37-.205-.2-.245.2-5.545,4.464c-1.377-1.324-5.708-5.478-5.795-5.567l-.736.591-5.064,4.07-3.327-3.194c1.574,1.262,3.1,2.484,3.327,2.676l5.8-5.568,5.306,4.267.49.4.41-.4,5.38-5.173,5.794,4.661-5.589-5.37-.205-.2-.245.2-5.545,4.464c-1.377-1.324-5.708-5.478-5.795-5.567l-.736.591-5.064,4.07-3.327-3.194c1.574,1.263,3.1,2.484,3.327,2.676l5.8-5.568,5.306,4.268.49.394.41-.4,5.38-5.173,5.794,4.662-5.589-5.371-.205-.2-.245.2-5.545,4.464c-1.377-1.324-5.708-5.478-5.795-5.567l-.736.591-5.064,4.071-3.327-3.2c1.574,1.263,3.1,2.484,3.327,2.676l5.8-5.568,5.306,4.268.49.394.41-.394,5.38-5.173,5.794,4.661-5.589-5.37-.205-.2-.245.2-5.545,4.463c-1.377-1.323-5.708-5.478-5.795-5.567l-.736.591-5.064,4.071-3.327-3.2c1.574,1.263,3.1,2.485,3.327,2.676.259-.247,4.219-4.051,5.8-5.567l5.306,4.267.49.394.41-.394,5.38-5.173,5.794,4.661-5.589-5.37-.205-.2-.245.2-5.545,4.463c-1.377-1.323-5.708-5.477-5.795-5.566l-.736.591-5.064,4.07-3.327-3.194c1.574,1.262,3.1,2.484,3.327,2.675.259-.247,4.219-4.051,5.8-5.567l5.306,4.267.49.395.41-.395,5.38-5.173,5.794,4.661-5.589-5.37-.205-.2-.245.2-5.545,4.464c-1.377-1.324-5.708-5.478-5.795-5.567l-.736.591-5.064,4.07-3.327-3.194c1.574,1.263,3.1,2.484,3.327,2.676l5.8-5.568,5.306,4.267.49.395.41-.395,5.38-5.173,5.794,4.662-5.589-5.371-.205-.2-.245.2-5.545,4.464c-1.377-1.324-5.708-5.478-5.795-5.567l-.736.591-5.064,4.071-3.327-3.2c1.574,1.263,3.1,2.484,3.327,2.676l5.8-5.568,5.306,4.268.49.394.41-.395,5.38-5.172,5.794,4.661-5.589-5.371-.205-.2-.245.2-5.545,4.463c-1.377-1.323-5.708-5.478-5.795-5.567l-.736.591-5.064,4.071-3.327-3.2c1.574,1.263,3.1,2.485,3.327,2.676l5.8-5.568,5.306,4.268.49.394.41-.394,5.38-5.173,5.794,4.661-5.589-5.37-.205-.2-.245.2-5.545,4.463c-1.377-1.323-5.708-5.477-5.795-5.566l-.736.591-5.064,4.07-3.327-3.194c1.574,1.262,3.1,2.484,3.327,2.675.259-.247,4.219-4.051,5.8-5.567l5.306,4.267.49.4.41-.4,5.38-5.173,5.794,4.661-5.589-5.37-.205-.2-.245.2-5.545,4.464c-1.377-1.324-5.708-5.478-5.795-5.567l-.736.591-5.064,4.07-3.327-3.194c1.574,1.262,3.1,2.484,3.327,2.676l5.8-5.568,5.306,4.267.49.4.41-.4,5.38-5.173,5.794,4.662-5.589-5.371-.205-.2-.245.2-5.545,4.464c-1.377-1.324-5.708-5.478-5.795-5.567l-.736.591-5.064,4.07-3.327-3.194c1.574,1.263,3.1,2.484,3.327,2.676l5.8-5.568,5.306,4.268.49.394.41-.395,5.38-5.173,5.794,4.662-5.589-5.371-.205-.2-.245.2-5.545,4.464c-1.377-1.324-5.708-5.478-5.795-5.567l-.736.591-5.064,4.071-3.327-3.195c1.574,1.263,3.1,2.484,3.327,2.676l5.8-5.568,5.306,4.268.49.394.41-.394,5.38-5.173,5.794,4.661-5.589-5.37-.205-.2-.245.2-5.545,4.463c-1.377-1.323-5.708-5.478-5.795-5.567l-.736.591-5.064,4.071-3.327-3.2c1.574,1.263,3.1,2.485,3.327,2.676.259-.247,4.219-4.051,5.8-5.567l5.306,4.267.49.394.41-.394,5.38-5.173,5.794,4.661-5.589-5.37-.205-.2-.245.2-5.545,4.463c-1.377-1.323-5.708-5.477-5.795-5.566l-.736.591-5.064,4.07-3.327-3.194c1.574,1.262,3.1,2.484,3.327,2.675.259-.247,4.219-4.051,5.8-5.567l5.306,4.267.49.4.41-.4,5.38-5.173,5.794,4.661-5.589-5.37-.205-.2-.245.2-5.545,4.464c-1.377-1.324-5.708-5.478-5.795-5.567l-.736.591-5.064,4.07-3.327-3.194c1.574,1.263,3.1,2.484,3.327,2.676l5.8-5.568,5.306,4.267.49.4.41-.4,5.38-5.173,5.794,4.662-5.589-5.371-.205-.2-.245.2-5.545,4.464c-1.377-1.324-5.708-5.478-5.795-5.567l-.736.591-5.064,4.071-3.327-3.2c1.574,1.263,3.1,2.484,3.327,2.676l5.8-5.568,5.306,4.268.49.394.41-.4,5.38-5.172,5.794,4.661-5.589-5.37-.205-.2-.245.2-5.545,4.463c-1.377-1.323-5.708-5.478-5.795-5.567l-.736.591-5.064,4.071-3.327-3.194c1.574,1.262,3.1,2.484,3.327,2.675.259-.247,4.219-4.051,5.8-5.568l5.306,4.268.49.394.41-.394,5.38-5.173,5.794,4.661-5.589-5.37-.205-.2-.245.2-5.545,4.463c-1.377-1.323-5.708-5.477-5.795-5.566l-.736.59-5.064,4.071-4.774-4.583-2.25,2.561c.225.185,1.088.878,2.133,1.716-.459.522-2.134,2.427-2.133,2.427.225.184,1.088.877,2.133,1.715-.459.523-2.134,2.428-2.133,2.428.225.184,1.088.877,2.133,1.715-.459.522-2.134,2.427-2.133,2.427.225.185,1.088.878,2.133,1.716-.459.522-2.134,2.427-2.133,2.427.225.185,1.088.878,2.133,1.716-.459.522-2.134,2.427-2.133,2.427.225.185,1.088.878,2.133,1.716-.459.522-2.134,2.427-2.133,2.427.225.184,1.088.877,2.133,1.715-.459.522-2.134,2.428-2.133,2.428.225.184,1.088.877,2.133,1.715-.459.522-2.134,2.427-2.133,2.427.225.185,1.088.878,2.133,1.716-.459.522-2.134,2.427-2.133,2.427.225.185,1.088.878,2.133,1.716-.459.522-2.134,2.427-2.133,2.427.225.184,1.088.877,2.133,1.715-.459.523-2.134,2.428-2.133,2.428.225.184,1.088.877,2.133,1.715-.459.522-2.134,2.428-2.133,2.428.225.184,1.088.877,2.133,1.715-.459.522-2.134,2.427-2.133,2.427.225.185,1.088.878,2.133,1.716-.459.522-2.134,2.427-2.133,2.427.225.184,1.088.878,2.133,1.716-.459.522-2.134,2.427-2.133,2.427.225.184,1.088.877,2.133,1.715-.459.522-2.134,2.428-2.133,2.428.225.184,1.088.877,2.133,1.715-.459.522-2.134,2.427-2.133,2.427.225.185,1.088.878,2.133,1.716-.459.522-2.134,2.427-2.133,2.427.225.185,1.088.878,2.133,1.716-.459.522-2.134,2.427-2.133,2.427.225.184,1.088.877,2.133,1.715-.459.523-2.134,2.428-2.133,2.428.225.184,1.088.877,2.133,1.715-.459.522-2.134,2.427-2.133,2.427.225.185,1.088.878,2.133,1.716-.459.522-2.134,2.427-2.133,2.427.225.185,1.088.878,2.133,1.716-.459.522-2.134,2.427-2.133,2.427.65.531,6.55,5.253,7.024,5.646" transform="translate(206.007 2402)" fill="#35b0e5"/>
    <text id="CICLO_" data-name="CICLO " transform="translate(269.189 2473.927)" fill="#144677" font-size="27" font-family="Roboto-Regular, Roboto"><tspan x="0" y="0">CIC</tspan><tspan y="0" letter-spacing="-0.031em">L</tspan><tspan y="0">O </tspan></text>
    <text id="HIDROLÓGICO" transform="translate(269.189 2497.93)" fill="#144677" font-size="27" font-family="Roboto-Regular, Roboto"><tspan x="0" y="0">HIDRO</tspan><tspan y="0" letter-spacing="-0.032em">L</tspan><tspan y="0">ÓGICO</tspan></text>
    <path id="Trazado_243210" data-name="Trazado 243210" d="M299.6,76.037A23.295,23.295,0,1,1,276.31,52.743,23.294,23.294,0,0,1,299.6,76.037" transform="translate(206.007 2402)" fill="#144677"/>
    <path id="Trazado_243211" data-name="Trazado 243211" d="M276.645,89.675c-6.571,0-11.341-4.411-11.341-10.487S275.7,60.914,276.137,60.4l.508-.593.508.593c.442.517,10.832,12.719,10.832,18.791s-4.769,10.487-11.34,10.487m0-27.8c-2.1,2.549-10,12.451-10,17.312,0,5.3,4.207,9.149,10,9.149s10-3.848,10-9.149c0-4.864-7.9-14.763-10-17.312" transform="translate(206.007 2402)" fill="#fff"/>
    <path id="Trazado_243212" data-name="Trazado 243212" d="M955.141,581.7l-25.833-14.467L903.476,581.7l-25.835-14.467-25.2,14.113-1.263-2.253,26.463-14.821,25.835,14.467,25.832-14.467,25.833,14.467,25.833-14.467,26.467,14.821-1.263,2.253-25.2-14.113Z" transform="translate(206.007 2402)" fill="#fff"/>
    <path id="Trazado_243213" data-name="Trazado 243213" d="M1057.441,510.914l-25.833-14.467-25.832,14.467-25.835-14.467-25.2,14.113-1.262-2.253,26.463-14.821,25.835,14.467,25.832-14.467,25.833,14.467,25.833-14.467,26.466,14.821-1.262,2.253-25.2-14.113Z" transform="translate(206.007 2402)" fill="#fff"/>
    <path id="Trazado_243214" data-name="Trazado 243214" d="M1154.514,658.612l-25.833-14.467-25.832,14.467-25.835-14.467-25.2,14.113L1050.551,656l26.463-14.821,25.835,14.467,25.832-14.467,25.833,14.467,25.833-14.467L1206.814,656l-1.263,2.253-25.2-14.113Z" transform="translate(206.007 2402)" fill="#fff"/>
    <path id="Trazado_243215" data-name="Trazado 243215" d="M793.425,737.731l-25.833-14.467-25.2,14.113-1.262-2.253L767.592,720.3l25.833,14.467L819.26,720.3l26.465,14.821-1.263,2.253-25.2-14.113Z" transform="translate(206.007 2402)" fill="#fff"/>
    <path id="Trazado_243216" data-name="Trazado 243216" d="M418.41,738.312l-25.833-14.467-25.2,14.113-1.262-2.253,26.464-14.821,25.833,14.467,25.833-14.467,26.466,14.821-1.263,2.253-25.2-14.113Z" transform="translate(206.007 2402)" fill="#fff"/>
    <path id="Trazado_243217" data-name="Trazado 243217" d="M103.225,724.255l-2.254-1.262,14.115-25.2-14.469-25.835,14.469-25.833-14.115-25.2,2.254-1.263,14.822,26.463-14.469,25.833,14.469,25.835Z" transform="translate(206.007 2402)" fill="#fff"/>
    <text id="Precipitación" transform="translate(251.236 2646.317)" fill="#144677" font-size="14" font-family="Roboto-Regular, Roboto"><tspan x="0" y="0" letter-spacing="-0.049em">P</tspan><tspan y="0" letter-spacing="-0.059em">r</tspan><tspan y="0" letter-spacing="-0.049em">e</tspan><tspan y="0" letter-spacing="-0.05em">c</tspan><tspan y="0" letter-spacing="-0.049em">i</tspan><tspan y="0" letter-spacing="-0.05em">p</tspan><tspan y="0" letter-spacing="-0.049em">ita</tspan><tspan y="0" letter-spacing="-0.05em">c</tspan><tspan y="0" letter-spacing="-0.049em">i</tspan><tspan y="0" letter-spacing="-0.05em">ó</tspan><tspan y="0">n</tspan></text>
    <text id="Evaporización" transform="translate(543.486 2685.055)" fill="#00344d" font-size="14" font-family="Roboto-Regular, Roboto"><tspan x="0" y="0" letter-spacing="-0.037em">E</tspan><tspan y="0" letter-spacing="-0.032em">v</tspan><tspan y="0" letter-spacing="-0.024em">a</tspan><tspan y="0" letter-spacing="-0.025em">por</tspan><tspan y="0" letter-spacing="-0.024em">iza</tspan><tspan y="0" letter-spacing="-0.025em">c</tspan><tspan y="0" letter-spacing="-0.024em">i</tspan><tspan y="0" letter-spacing="-0.025em">ó</tspan><tspan y="0">n</tspan></text>
    <text id="Evotranspiración" transform="translate(535.633 2701.855)" fill="#00344d" font-size="14" font-family="Roboto-Regular, Roboto"><tspan x="0" y="0" letter-spacing="-0.037em">E</tspan><tspan y="0" letter-spacing="-0.032em">v</tspan><tspan y="0" letter-spacing="-0.025em">o</tspan><tspan y="0" letter-spacing="-0.024em">t</tspan><tspan y="0" letter-spacing="-0.044em">r</tspan><tspan y="0" letter-spacing="-0.024em">ans</tspan><tspan y="0" letter-spacing="-0.025em">p</tspan><tspan y="0" letter-spacing="-0.024em">i</tspan><tspan y="0" letter-spacing="-0.044em">r</tspan><tspan y="0" letter-spacing="-0.024em">a</tspan><tspan y="0" letter-spacing="-0.025em">c</tspan><tspan y="0" letter-spacing="-0.024em">i</tspan><tspan y="0" letter-spacing="-0.025em">ó</tspan><tspan y="0">n</tspan></text>
    <text id="Evaporación" transform="translate(1336.712 2645.631)" fill="#00344d" font-size="14" font-family="Roboto-Regular, Roboto"><tspan x="0" y="0" letter-spacing="-0.037em">E</tspan><tspan y="0" letter-spacing="-0.032em">v</tspan><tspan y="0" letter-spacing="-0.024em">a</tspan><tspan y="0" letter-spacing="-0.025em">po</tspan><tspan y="0" letter-spacing="-0.044em">r</tspan><tspan y="0" letter-spacing="-0.024em">a</tspan><tspan y="0" letter-spacing="-0.025em">c</tspan><tspan y="0" letter-spacing="-0.024em">i</tspan><tspan y="0" letter-spacing="-0.025em">ó</tspan><tspan y="0">n</tspan></text>
    <text id="Reutilización_y_vertido_de_" data-name="Reutilización y vertido de " transform="translate(848.757 3009.379)" fill="#fff" font-size="14" font-family="Roboto-Regular, Roboto"><tspan x="0" y="0" letter-spacing="-0.024em">Re</tspan><tspan y="0" letter-spacing="-0.025em">u</tspan><tspan y="0" letter-spacing="-0.024em">tiliza</tspan><tspan y="0" letter-spacing="-0.025em">c</tspan><tspan y="0" letter-spacing="-0.024em">i</tspan><tspan y="0" letter-spacing="-0.025em">ó</tspan><tspan y="0" letter-spacing="-0.024em">n </tspan><tspan y="0" letter-spacing="-0.025em">y</tspan><tspan y="0" letter-spacing="-0.024em"> </tspan><tspan y="0" letter-spacing="-0.031em">v</tspan><tspan y="0" letter-spacing="-0.024em">e</tspan><tspan y="0">r</tspan><tspan y="0" letter-spacing="-0.024em">tid</tspan><tspan y="0" letter-spacing="-0.025em">o</tspan><tspan y="0" xml:space="preserve" letter-spacing="-0.024em"> de</tspan><tspan y="0"> </tspan></text>
    <text id="aguas_residuales" data-name="aguas residuales" transform="translate(873.313 3026.18)" fill="#fff" font-size="14" font-family="Roboto-Regular, Roboto"><tspan x="0" y="0" letter-spacing="-0.024em">a</tspan><tspan y="0" letter-spacing="-0.025em">gu</tspan><tspan y="0" letter-spacing="-0.024em">as</tspan><tspan y="0" letter-spacing="-0.025em"> </tspan><tspan y="0" letter-spacing="-0.034em">r</tspan><tspan y="0" letter-spacing="-0.024em">esid</tspan><tspan y="0" letter-spacing="-0.025em">u</tspan><tspan y="0" letter-spacing="-0.024em">ale</tspan><tspan y="0">s</tspan></text>
    <text id="Acuífero" transform="translate(434.259 3140.279)" fill="#fff" font-size="14" font-family="Roboto-Regular, Roboto"><tspan x="0" y="0" letter-spacing="-0.025em">Acuí</tspan><tspan y="0" letter-spacing="-0.036em">f</tspan><tspan y="0" letter-spacing="-0.024em">e</tspan><tspan y="0" letter-spacing="-0.034em">r</tspan><tspan y="0">o</tspan></text>
    <text id="Intrusión_de_agua_salada" data-name="Intrusión de agua salada" transform="translate(870.793 3211.105)" fill="#fff" font-size="14" font-family="Roboto-Regular, Roboto"><tspan x="0" y="0" letter-spacing="-0.024em">Int</tspan><tspan y="0" letter-spacing="-0.025em">ru</tspan><tspan y="0" letter-spacing="-0.024em">si</tspan><tspan y="0" letter-spacing="-0.025em">ó</tspan><tspan y="0" letter-spacing="-0.024em">n</tspan><tspan y="0" letter-spacing="-0.025em"> </tspan><tspan y="0" letter-spacing="-0.024em">de a</tspan><tspan y="0" letter-spacing="-0.025em">gu</tspan><tspan y="0" letter-spacing="-0.024em">a</tspan><tspan y="0" letter-spacing="-0.025em"> </tspan><tspan y="0" letter-spacing="-0.024em">salad</tspan><tspan y="0">a</tspan></text>
    <text id="Océano" transform="translate(1165.646 3033.067)" fill="#fff" font-size="14" font-family="Roboto-Regular, Roboto"><tspan x="0" y="0" letter-spacing="-0.024em">O</tspan><tspan y="0" letter-spacing="-0.025em">c</tspan><tspan y="0" letter-spacing="-0.024em">éan</tspan><tspan y="0">o</tspan></text>
    <text id="Infiltración-Recarga" transform="translate(407.574 3026.571)" fill="#fff" font-size="14" font-family="Roboto-Regular, Roboto"><tspan x="0" y="0" letter-spacing="-0.024em">In</tspan><tspan y="0" letter-spacing="-0.025em">fi</tspan><tspan y="0" letter-spacing="-0.024em">lt</tspan><tspan y="0" letter-spacing="-0.044em">r</tspan><tspan y="0" letter-spacing="-0.024em">a</tspan><tspan y="0" letter-spacing="-0.025em">c</tspan><tspan y="0" letter-spacing="-0.024em">i</tspan><tspan y="0" letter-spacing="-0.025em">ó</tspan><tspan y="0" letter-spacing="-0.024em">n-Re</tspan><tspan y="0" letter-spacing="-0.025em">c</tspan><tspan y="0" letter-spacing="-0.024em">a</tspan><tspan y="0" letter-spacing="-0.034em">r</tspan><tspan y="0" letter-spacing="-0.025em">g</tspan><tspan y="0">a</tspan></text>
    <text id="Bosque_-_humedad_" data-name="Bosque - humedad " transform="translate(479.171 2846.405)" fill="#fff" font-size="14" font-family="Roboto-Regular, Roboto"><tspan x="0" y="0" letter-spacing="-0.025em">Bo</tspan><tspan y="0" letter-spacing="-0.024em">s</tspan><tspan y="0" letter-spacing="-0.025em">qu</tspan><tspan y="0" letter-spacing="-0.024em">e</tspan><tspan y="0" letter-spacing="-0.025em"> </tspan><tspan y="0" letter-spacing="-0.024em">- h</tspan><tspan y="0" letter-spacing="-0.025em">um</tspan><tspan y="0" letter-spacing="-0.024em">edad</tspan><tspan y="0"> </tspan></text>
    <text id="del_suelo" data-name="del suelo" transform="translate(508.15 2863.205)" fill="#fff" font-size="14" font-family="Roboto-Regular, Roboto"><tspan x="0" y="0" letter-spacing="-0.024em">del s</tspan><tspan y="0" letter-spacing="-0.025em">u</tspan><tspan y="0" letter-spacing="-0.024em">el</tspan><tspan y="0">o</tspan></text>
    <text id="Cultivos-humedad_" data-name="Cultivos-humedad " transform="translate(636.055 2781.432)" fill="#fff" font-size="14" font-family="Roboto-Regular, Roboto"><tspan x="0" y="0" letter-spacing="-0.024em">C</tspan><tspan y="0" letter-spacing="-0.025em">u</tspan><tspan y="0" letter-spacing="-0.024em">lti</tspan><tspan y="0" letter-spacing="-0.032em">v</tspan><tspan y="0" letter-spacing="-0.025em">o</tspan><tspan y="0" letter-spacing="-0.024em">s-h</tspan><tspan y="0" letter-spacing="-0.025em">um</tspan><tspan y="0" letter-spacing="-0.024em">edad</tspan><tspan y="0"> </tspan></text>
    <text id="del_suelo-2" data-name="del suelo" transform="translate(664.671 2798.231)" fill="#fff" font-size="14" font-family="Roboto-Regular, Roboto"><tspan x="0" y="0" letter-spacing="-0.024em">del s</tspan><tspan y="0" letter-spacing="-0.025em">u</tspan><tspan y="0" letter-spacing="-0.024em">el</tspan><tspan y="0">o</tspan></text>
    <text id="Extracción" transform="translate(637.007 3037.085)" fill="#fff" font-size="14" font-family="Roboto-Regular, Roboto"><tspan x="0" y="0" letter-spacing="-0.025em">E</tspan><tspan y="0" letter-spacing="-0.024em">xt</tspan><tspan y="0" letter-spacing="-0.044em">r</tspan><tspan y="0" letter-spacing="-0.024em">a</tspan><tspan y="0" letter-spacing="-0.025em">cc</tspan><tspan y="0" letter-spacing="-0.024em">i</tspan><tspan y="0" letter-spacing="-0.025em">ó</tspan><tspan y="0">n</tspan></text>
    <path id="Trazado_243218" data-name="Trazado 243218" d="M116.579,255.712H46.237a15.486,15.486,0,0,1,0-30.971h70.342a15.486,15.486,0,1,1,0,30.971Z" transform="translate(206.007 2402)" fill="none" stroke="#144677" stroke-miterlimit="10" stroke-width="1"/>
    <path id="Trazado_243219" data-name="Trazado 243219" d="M1202.33,254.7h-70.342a15.486,15.486,0,0,1,0-30.971h70.342a15.486,15.486,0,1,1,0,30.971Z" transform="translate(206.007 2402)" fill="none" stroke="#009688" stroke-miterlimit="10" stroke-width="1.086"/>
    <path id="Rectángulo_316186" data-name="Rectángulo 316186" d="M13.981,0H68.6A13.982,13.982,0,0,1,82.584,13.982V16.99A13.981,13.981,0,0,1,68.6,30.971H13.981A13.981,13.981,0,0,1,0,16.99V13.981A13.981,13.981,0,0,1,13.981,0Z" transform="translate(626.631 3017.695)" fill="none" stroke="#fff59d" stroke-miterlimit="10" stroke-width="1"/>
    <path id="Rectángulo_316187" data-name="Rectángulo 316187" d="M13.981,0H68.6A13.982,13.982,0,0,1,82.584,13.982v3.007A13.982,13.982,0,0,1,68.6,30.971H13.981A13.981,13.981,0,0,1,0,16.99V13.981A13.981,13.981,0,0,1,13.981,0Z" transform="translate(1147.319 3013.293)" fill="none" stroke="#fff" stroke-miterlimit="10" stroke-width="1.012"/>
    <rect id="Rectángulo_316188" data-name="Rectángulo 316188" width="82.584" height="30.971" rx="13.981" transform="translate(417.905 3120.115)" fill="none" stroke="#fff" stroke-miterlimit="10" stroke-width="1.012"/>
    <path id="Trazado_243220" data-name="Trazado 243220" d="M804.439,820.43H667.859a15.486,15.486,0,0,1,0-30.971h136.58a15.486,15.486,0,1,1,0,30.971Z" transform="translate(206.007 2402)" fill="none" stroke="#fff59d" stroke-miterlimit="10" stroke-width="1.424"/>
    <path id="Rectángulo_316189" data-name="Rectángulo 316189" d="M18.795,0h129.96A18.795,18.795,0,0,1,167.55,18.795v8.034a18.8,18.8,0,0,1-18.8,18.8H18.8A18.8,18.8,0,0,1,0,26.829V18.795A18.795,18.795,0,0,1,18.795,0Z" transform="translate(837.36 2990.211)" fill="none" stroke="#fff59d" stroke-miterlimit="10" stroke-width="1.729"/>
    <path id="Trazado_243221" data-name="Trazado 243221" d="M307.066,635.819H209.307a15.485,15.485,0,0,1,0-30.971h97.759a15.485,15.485,0,1,1,0,30.971Z" transform="translate(206.007 2402)" fill="none" stroke="#fff59d" stroke-miterlimit="10" stroke-width="1.249"/>
    <rect id="Rectángulo_316190" data-name="Rectángulo 316190" width="129.996" height="42.964" rx="20.66" transform="translate(518.596 2667.887)" fill="none" stroke="#009688" stroke-miterlimit="10" stroke-width="1.086"/>
    <path id="Rectángulo_316191" data-name="Rectángulo 316191" d="M20.9,0h91.215a20.9,20.9,0,0,1,20.9,20.9v1.167a20.9,20.9,0,0,1-20.9,20.9H20.9A20.9,20.9,0,0,1,0,22.065V20.9A20.9,20.9,0,0,1,20.9,0Z" transform="translate(468.769 2827.324)" fill="none" stroke="#fff" stroke-miterlimit="10" stroke-width="1.012"/>
    <path id="Rectángulo_316192" data-name="Rectángulo 316192" d="M20.9,0h91.215a20.9,20.9,0,0,1,20.9,20.9v1.167a20.9,20.9,0,0,1-20.9,20.9H20.9A20.9,20.9,0,0,1,0,22.066V20.9A20.9,20.9,0,0,1,20.9,0Z" transform="translate(624.417 2763.129)" fill="none" stroke="#fff" stroke-miterlimit="10" stroke-width="1.012"/>
    <path id="Trazado_243222" data-name="Trazado 243222" d="M718.969,126.153h-197.6l.916-1.862a36.589,36.589,0,0,1,33.029-20.6,36.957,36.957,0,0,1,7.747.818A42.893,42.893,0,0,1,645.893,93.45a74.1,74.1,0,0,1,12.461-1.057c24.3,0,47.051,12.178,59.37,31.781Z" transform="translate(206.007 2402)" fill="#fff"/>
    <path id="Trazado_243223" data-name="Trazado 243223" d="M1106.239,179.641h-197.6l.915-1.861a36.592,36.592,0,0,1,33.03-20.6,37.025,37.025,0,0,1,7.747.818,42.893,42.893,0,0,1,82.828-11.058,73.994,73.994,0,0,1,12.461-1.058c24.3,0,47.051,12.178,59.37,31.782Zm-193.377-2.583H1101.51c-12.109-17.695-33.3-28.594-55.886-28.594a71.434,71.434,0,0,0-13.067,1.207l-1.091.2-.365-1.049a40.309,40.309,0,0,0-78.3,10.851l-.094,1.568-1.519-.393a34.345,34.345,0,0,0-8.6-1.09,33.992,33.992,0,0,0-29.726,17.3" transform="translate(206.007 2402)" fill="#fff"/>
    <path id="Trazado_243224" data-name="Trazado 243224" d="M189.664,338.538l-2.54-.47,2.451-13.263,2.54.469Zm4.9-26.527-2.539-.469,2.451-13.264,2.539.47Zm4.9-26.526-2.539-.47,2.45-13.264,2.54.47Zm4.9-26.527-2.54-.47,2.451-13.264,2.54.47Z" transform="translate(206.007 2402)" fill="#fff"/>
    <path id="Trazado_243225" data-name="Trazado 243225" d="M219.07,361.117l-2.54-.469,1.722-9.317,2.54.47Zm4.173-22.579-2.54-.47,2.451-13.263,2.54.469Zm4.9-26.527-2.54-.469,2.451-13.264,2.539.47Zm4.9-26.526-2.539-.47,2.451-13.264,2.539.47Zm4.9-26.527-2.54-.47,2.451-13.264,2.54.47Z" transform="translate(206.007 2402)" fill="#fff"/>
    <path id="Trazado_243226" data-name="Trazado 243226" d="M261.723,312.011l-2.539-.469,2.451-13.264,2.539.47Zm4.9-26.526-2.539-.47,2.451-13.264,2.54.47Zm4.9-26.527-2.54-.47,2.451-13.264,2.54.47Z" transform="translate(206.007 2402)" fill="#fff"/>
    <path id="Trazado_243227" data-name="Trazado 243227" d="M295.538,309.655,293,309.179l2.055-10.934,2.538.476Zm4.546-24.189-2.538-.478,2.492-13.255,2.538.478Zm4.983-26.512-2.538-.478,2.491-13.256,2.538.478Z" transform="translate(206.007 2402)" fill="#fff"/>
    <path id="Trazado_243228" data-name="Trazado 243228" d="M155.88,338.5l-2.54-.474,2.481-13.259,2.54.475Zm4.961-26.516-2.54-.475,2.48-13.258,2.54.475Zm4.96-26.516-2.54-.475,2.48-13.258,2.54.475Zm4.961-26.516-2.54-.475,2.48-13.258,2.54.475Z" transform="translate(206.007 2402)" fill="#fff"/>
    <path id="Trazado_243229" data-name="Trazado 243229" d="M137.857,238.226a37.68,37.68,0,0,1,43.251-19.88A44.111,44.111,0,0,1,266.8,206.471a76.955,76.955,0,0,1,14.107-1.3c26.35,0,49.365,13.284,61.791,33.058Z" transform="translate(206.007 2402)" fill="#8bb0bf"/>
    <line id="Línea_423" data-name="Línea 423" x2="60.393" transform="translate(428.206 3206.944)" fill="none" stroke="#fff59d" stroke-miterlimit="10" stroke-width="4"/>
    <path id="Trazado_243230" data-name="Trazado 243230" d="M271.073,815.049l13.108-10.1-13.108-10.1" transform="translate(206.007 2402)" fill="none" stroke="#fff59d" stroke-miterlimit="10" stroke-width="4"/>
    <line id="Línea_424" data-name="Línea 424" x2="60.393" transform="translate(700.552 3206.944)" fill="none" stroke="#fff59d" stroke-miterlimit="10" stroke-width="4"/>
    <path id="Trazado_243231" data-name="Trazado 243231" d="M545.537,815.049l13.108-10.1-13.108-10.1" transform="translate(206.007 2402)" fill="none" stroke="#fff59d" stroke-miterlimit="10" stroke-width="4"/>
    <line id="Línea_425" data-name="Línea 425" y2="111.198" transform="translate(821.654 2956.768)" fill="none" stroke="#fff59d" stroke-miterlimit="10" stroke-width="4"/>
    <path id="Trazado_243232" data-name="Trazado 243232" d="M625.751,568.43l-10.1-13.108-10.1,13.108" transform="translate(206.007 2402)" fill="none" stroke="#fff59d" stroke-miterlimit="10" stroke-width="4"/>
    <path id="Trazado_243233" data-name="Trazado 243233" d="M605.543,652.713l10.1,13.108,10.1-13.108" transform="translate(206.007 2402)" fill="none" stroke="#fff59d" stroke-miterlimit="10" stroke-width="4"/>
    <line id="Línea_426" data-name="Línea 426" y2="59.983" transform="translate(386.597 2998.787)" fill="none" stroke="#fff59d" stroke-miterlimit="10" stroke-width="4"/>
    <path id="Trazado_243234" data-name="Trazado 243234" d="M170.485,644.072l10.1,13.108,10.1-13.108" transform="translate(206.007 2402)" fill="none" stroke="#fff59d" stroke-miterlimit="10" stroke-width="4"/>
    <line id="Línea_427" data-name="Línea 427" y2="59.983" transform="translate(578.604 2998.787)" fill="none" stroke="#fff59d" stroke-miterlimit="10" stroke-width="4"/>
    <path id="Trazado_243235" data-name="Trazado 243235" d="M362.493,644.072l10.1,13.108,10.1-13.108" transform="translate(206.007 2402)" fill="none" stroke="#fff59d" stroke-miterlimit="10" stroke-width="4"/>
    <line id="Línea_428" data-name="Línea 428" y1="59.983" transform="translate(606.622 2999.197)" fill="none" stroke="#fff59d" stroke-miterlimit="10" stroke-width="4"/>
    <path id="Trazado_243236" data-name="Trazado 243236" d="M410.719,609.9l-10.1-13.108-10.1,13.108" transform="translate(206.007 2402)" fill="none" stroke="#fff59d" stroke-miterlimit="10" stroke-width="4"/>
    <path id="Trazado_243237" data-name="Trazado 243237" d="M671.607,355.268V503.793c0,6.3-.941,16.477-6.913,23.071-6.358,7.02-20.863,9.154-30.148,9.154H585.672" transform="translate(206.007 2402)" fill="none" stroke="#35b0e5" stroke-miterlimit="10" stroke-width="2"/>
    <path id="Trazado_243238" data-name="Trazado 243238" d="M662.418,355.268V495.251c0,6.3.875,18.454-5.1,25.049-6.358,7.02-22.678,7.175-31.963,7.175H587.793" transform="translate(206.007 2402)" fill="none" stroke="#009688" stroke-miterlimit="10" stroke-width="3"/>
    <line id="Línea_429" data-name="Línea 429" y1="103.076" transform="translate(534.7 2717.49)" fill="none" stroke="#009688" stroke-miterlimit="10" stroke-width="4"/>
    <path id="Trazado_243239" data-name="Trazado 243239" d="M338.8,327.044l-10.1-13.108-10.1,13.108" transform="translate(206.007 2402)" fill="none" stroke="#009688" stroke-miterlimit="10" stroke-width="4"/>
    <line id="Línea_430" data-name="Línea 430" y1="39.002" transform="translate(632.521 2718.267)" fill="none" stroke="#009688" stroke-miterlimit="10" stroke-width="4"/>
    <path id="Trazado_243240" data-name="Trazado 243240" d="M436.618,327.821l-10.1-13.108-10.1,13.108" transform="translate(206.007 2402)" fill="none" stroke="#009688" stroke-miterlimit="10" stroke-width="4"/>
    <line id="Línea_431" data-name="Línea 431" y1="103.076" transform="translate(1404.925 2670.092)" fill="none" stroke="#009688" stroke-miterlimit="10" stroke-width="4"/>
    <path id="Trazado_243241" data-name="Trazado 243241" d="M1209.021,279.8l-10.1-13.108-10.1,13.108" transform="translate(206.007 2402)" fill="none" stroke="#009688" stroke-miterlimit="10" stroke-width="4"/>
    <line id="Línea_432" data-name="Línea 432" y1="103.076" transform="translate(1341.139 2670.092)" fill="none" stroke="#009688" stroke-miterlimit="10" stroke-width="4"/>
    <path id="Trazado_243242" data-name="Trazado 243242" d="M1145.235,279.8l-10.1-13.108-10.1,13.108" transform="translate(206.007 2402)" fill="none" stroke="#009688" stroke-miterlimit="10" stroke-width="4"/>
    <line id="Línea_433" data-name="Línea 433" y1="103.076" transform="translate(1373.166 2752.334)" fill="none" stroke="#009688" stroke-miterlimit="10" stroke-width="4"/>
    <path id="Trazado_243243" data-name="Trazado 243243" d="M1177.263,361.755l-10.1-13.108-10.1,13.108" transform="translate(206.007 2402)" fill="none" stroke="#009688" stroke-miterlimit="10" stroke-width="4"/>
    <line id="Línea_434" data-name="Línea 434" y2="97.119" transform="translate(287.415 2663.176)" fill="none" stroke="#144677" stroke-miterlimit="10" stroke-width="4"/>
    <path id="Trazado_243244" data-name="Trazado 243244" d="M71.3,345.6l10.1,13.108,10.1-13.108" transform="translate(206.007 2402)" fill="none" stroke="#144677" stroke-miterlimit="10" stroke-width="4"/>
  </g>
</svg>
