<svg id="Grupo_242805" data-name="Grupo 242805" xmlns="http://www.w3.org/2000/svg" xmlns:xlink="http://www.w3.org/1999/xlink" width="295" height="246.611" viewBox="0 0 295 246.611">
  <defs>
    <clipPath id="clip-path">
      <rect id="Rectángulo_316201" data-name="Rectángulo 316201" width="295" height="246.611" fill="none"/>
    </clipPath>
  </defs>
  <g id="Grupo_242804" data-name="Grupo 242804" clip-path="url(#clip-path)">
    <path id="Trazado_243247" data-name="Trazado 243247" d="M244.336,122.168A122.168,122.168,0,1,1,122.168,0,122.167,122.167,0,0,1,244.336,122.168" transform="translate(0 0)" fill="#2160bb"/>
    <path id="Trazado_243248" data-name="Trazado 243248" d="M299.342,174.3l0,.007-24.91-4.258-31.637,9.359-13.512-4.986c-1.882.468-3.567.935-5.09,1.406h0s-48.794,7.8-42.917,50.978l27.268.653a21.249,21.249,0,0,0,1.36,3.175l9.766,32.284h79.918l.743-26.339,24.253,15.608a4.749,4.749,0,0,0,7.3-3.555c1.027-11.209,2.266-30.936,2.284-31.447,1.277-35.881-34.826-42.885-34.826-42.885" transform="translate(-39.2 -36.872)" fill="#5e80e6"/>
    <path id="Trazado_243249" data-name="Trazado 243249" d="M218.058,247.794a.531.531,0,0,1-.514-.4l-4.859-18.931a.531.531,0,0,1,1.029-.265l4.859,18.931a.533.533,0,0,1-.382.647.558.558,0,0,1-.133.016" transform="translate(-46.114 -49.395)" fill="#121936"/>
    <path id="Trazado_243250" data-name="Trazado 243250" d="M333.1,248.682a.534.534,0,0,1-.323-.11l-14.9-11.462a7.357,7.357,0,0,1-3.249-5.4l-1.535-15.045a.532.532,0,0,1,.475-.583.537.537,0,0,1,.582.475l1.536,15.045a6.32,6.32,0,0,0,2.808,4.646l14.929,11.484a.531.531,0,0,1-.324.952" transform="translate(-67.889 -46.853)" fill="#121936"/>
    <path id="Trazado_243251" data-name="Trazado 243251" d="M273.315,106.227h0l-7.363-.256a8.823,8.823,0,0,0-8.251,5.04l1.426-20.9s-7.366,4.266-17.035-1.32c0,0-11.119-3.689-14.6,4.911-.009.085-.02.171-.026.257l-2.14,31.073c-.783,11.367,6.982,21.281,17.653,23.063l2.486,12.338A17.075,17.075,0,0,0,265.618,173.6l.384-.078c9.252-1.864,17.157-8.856,15.322-17.961l-7.273-30.2,1.7.06a9.622,9.622,0,0,0,9.921-9.255l.025-.7a8.839,8.839,0,0,0-8.481-9.092Z" transform="translate(-48.846 -19.082)" fill="#ffaa89"/>
    <path id="Trazado_243252" data-name="Trazado 243252" d="M248.081,161.737s18.662-2.219,20.665-9.327h0s2.519,9.916-18.932,18.883Z" transform="translate(-53.793 -32.363)" fill="#ff6a48"/>
    <path id="Trazado_243253" data-name="Trazado 243253" d="M287.556,141.683a15.491,15.491,0,0,1,1.41-5.887l-8.1-.282Z" transform="translate(-60.901 -29.384)" fill="#121936"/>
    <path id="Trazado_243254" data-name="Trazado 243254" d="M272.73,78.675s5.049-8.808-8.456-15.168S245.8,69.08,245.8,69.08s-1.612-10.931-17.956-5.636S226,89,226,89c.108-.357.23-.691.361-1.013,3.483-8.6,14.6-4.911,14.6-4.911,9.669,5.586,17.035,1.32,17.035,1.32l-1.266,18.56c-.548,3.71-1.279,8.62-1.8,12.132a3.54,3.54,0,0,1-4.827,2.76l-11.7-4.712a3.542,3.542,0,0,0-1.761-.229l-9.241,1.147a3.544,3.544,0,0,0-3.1,3.24l-.7,8.859a16.637,16.637,0,0,0,16.956,17.934l5.158-.115a3.536,3.536,0,0,0,1.033-.179l1.3-.074a18.953,18.953,0,0,0,16.212-26.661,3.542,3.542,0,0,1-.659-2.194l.536-13.539a3.439,3.439,0,0,0-.119-1.052c.264-.015.529-.022.8-.013l7.363.256,3.906.135a8.742,8.742,0,0,1,5.7,2.394c2.339-5.871,4.381-11.661,4.977-15.257,1.611-9.73-14.042-9.109-14.042-9.109" transform="translate(-47.718 -13.366)" fill="#121936"/>
    <path id="Trazado_243255" data-name="Trazado 243255" d="M291.662,125.765a.521.521,0,0,1-.289-.086l-3.08-2.008a.532.532,0,0,1-.1-.8l3.292-3.662a.531.531,0,0,1,.79.71l-2.877,3.2,2.56,1.67a.531.531,0,0,1-.291.976" transform="translate(-62.46 -25.81)" fill="#ff6a48"/>
    <path id="Trazado_243256" data-name="Trazado 243256" d="M229.687,114.91a2,2,0,1,0,2.374-1.539,2,2,0,0,0-2.374,1.539" transform="translate(-49.795 -24.573)" fill="#121936"/>
    <path id="Trazado_243257" data-name="Trazado 243257" d="M248.037,115.345a2,2,0,1,0,1.981-2.018,2,2,0,0,0-1.981,2.018" transform="translate(-53.783 -24.573)" fill="#121936"/>
    <path id="Trazado_243258" data-name="Trazado 243258" d="M252.068,118.555a2.85,2.85,0,0,0-3.528.015" transform="translate(-53.892 -25.573)" fill="#ffa386"/>
    <path id="Trazado_243259" data-name="Trazado 243259" d="M248.394,118.955a.531.531,0,0,1-.325-.952,3.358,3.358,0,0,1,4.19,0,.531.531,0,0,1-.673.822,2.314,2.314,0,0,0-2.868.023.53.53,0,0,1-.324.11" transform="translate(-53.745 -25.427)" fill="#ff6a48"/>
    <path id="Trazado_243260" data-name="Trazado 243260" d="M229.674,119.517a.531.531,0,0,1-.36-.921,3.058,3.058,0,0,1,3.994-.261.531.531,0,0,1-.651.84,1.99,1.99,0,0,0-2.623.2.53.53,0,0,1-.36.141" transform="translate(-49.686 -25.524)" fill="#ff6a48"/>
    <path id="Trazado_243261" data-name="Trazado 243261" d="M228.348,119.8c-3.7,0-6.71-3.447-6.71-7.684s3.01-7.684,6.71-7.684,6.71,3.447,6.71,7.684-3.01,7.684-6.71,7.684m0-14.306c-3.114,0-5.648,2.971-5.648,6.622s2.534,6.622,5.648,6.622S234,115.767,234,112.116s-2.534-6.622-5.648-6.622" transform="translate(-48.059 -22.645)" fill="#fff"/>
    <path id="Trazado_243262" data-name="Trazado 243262" d="M238.865,110.021v6.948h-3.611a1.68,1.68,0,0,0-1.68,1.68v.76a3.29,3.29,0,0,0,3.29,3.29h3.29" transform="translate(-50.647 -23.856)" fill="#ffaa89"/>
    <path id="Trazado_243263" data-name="Trazado 243263" d="M240.006,123.083h-3.29a3.826,3.826,0,0,1-3.821-3.821v-.76a2.213,2.213,0,0,1,2.211-2.211h3.081v-6.417a.531.531,0,1,1,1.062,0v7.479h-4.143a1.15,1.15,0,0,0-1.148,1.149v.76a2.762,2.762,0,0,0,2.758,2.759h3.29a.531.531,0,0,1,0,1.062" transform="translate(-50.5 -23.709)" fill="#ff6a48"/>
    <path id="Trazado_243264" data-name="Trazado 243264" d="M249.02,119.182c-3.7,0-6.71-3.447-6.71-7.684s3.01-7.684,6.71-7.684,6.71,3.447,6.71,7.684-3.01,7.684-6.71,7.684m0-14.306c-3.114,0-5.648,2.971-5.648,6.622s2.534,6.622,5.648,6.622,5.648-2.971,5.648-6.622-2.534-6.622-5.648-6.622" transform="translate(-52.541 -22.511)" fill="#fff"/>
    <path id="Trazado_243265" data-name="Trazado 243265" d="M255.357,103.161a5.119,5.119,0,0,1-2.095-.385c-.721-.234-1.451-.452-2.093-.618s-1.386-.334-2.13-.482a5.1,5.1,0,0,1-2.013-.684c-.49-.377-.541-1.1.325-1.754a5.875,5.875,0,0,1,4.777-.544,5.7,5.7,0,0,1,3.852,2.79c.413.984,0,1.588-.623,1.676" transform="translate(-53.488 -21.347)" fill="#121936"/>
    <path id="Trazado_243266" data-name="Trazado 243266" d="M226.421,100.767a3.528,3.528,0,0,0,1.667.006c.587-.087,1.179-.157,1.7-.2s1.114-.064,1.708-.071a3.523,3.523,0,0,0,1.643-.269c.428-.25.563-.878-.02-1.591a4.313,4.313,0,0,0-3.614-1.262,4.23,4.23,0,0,0-3.341,1.814c-.449.8-.206,1.394.26,1.573" transform="translate(-48.988 -21.112)" fill="#121936"/>
    <path id="Trazado_243267" data-name="Trazado 243267" d="M242.083,113.188h-2.736a.531.531,0,1,1,0-1.062h2.736a.531.531,0,0,1,0,1.062" transform="translate(-51.784 -24.313)" fill="#fff"/>
    <path id="Trazado_243268" data-name="Trazado 243268" d="M258.621,112.427a.531.531,0,0,1-.049-1.06l16.259-1.534a.531.531,0,0,1,.1,1.057l-16.258,1.534-.05,0" transform="translate(-55.963 -23.815)" fill="#fff"/>
    <path id="Trazado_243269" data-name="Trazado 243269" d="M245.541,137.759h-.062l-6.375-.081a.531.531,0,0,1,.007-1.062h.006l6.375.081a3.866,3.866,0,0,0,3.783-2.96l1.034.242a4.928,4.928,0,0,1-4.769,3.78" transform="translate(-51.733 -28.999)" fill="#ff6a48"/>
    <path id="Trazado_243270" data-name="Trazado 243270" d="M245.943,167.932,237.774,175l1.219,16.7a1.03,1.03,0,0,0,1.713.695l15.026-13.387Z" transform="translate(-51.558 -36.414)" fill="#fff"/>
    <path id="Trazado_243271" data-name="Trazado 243271" d="M286.561,162.284,259.843,177.7l10.727,18.014a1.572,1.572,0,0,0,2.366.4L298.927,174.1Z" transform="translate(-56.343 -35.189)" fill="#fff"/>
    <path id="Trazado_243272" data-name="Trazado 243272" d="M244.121,193.744l7.068,14.374L266.5,199l-9.8-16.462Z" transform="translate(-52.934 -39.581)" fill="#121936"/>
    <path id="Trazado_243273" data-name="Trazado 243273" d="M117.493,96.393l-16.534.116-21.586,0,.05-8a17.02,17.02,0,0,0-.273-3.148c-2.882-15.824-26.048-15.916-29.1-.125a16.967,16.967,0,0,0-.307,3.22v9.626h.009l.04,7.175c.042,7.585-4.853,14.07-11.206,15.479a10.169,10.169,0,0,0,1.53.073c1.167.031,2.094,0,2.094,0l61.664.08c7.594-.052,13.712-7.053,13.665-15.635Z" transform="translate(-8.363 -15.924)" fill="#121936"/>
    <path id="Trazado_243274" data-name="Trazado 243274" d="M174.831,96.246a22.871,22.871,0,0,0-14.9-21.438,16.823,16.823,0,0,0-6.9-1.521l-51.261.059,0-.006H73.829c-.374,0-.743.016-1.111.04h-.952v.031c.071.009.141.021.211.031a16.884,16.884,0,0,1,14.61,15.726h-.009V248.5A14.083,14.083,0,0,0,100.735,262.5H174.8V198.219h.029Z" transform="translate(-15.561 -15.891)" fill="#fff"/>
    <path id="Trazado_243275" data-name="Trazado 243275" d="M170.19,182.762H110.045a.531.531,0,1,1,0-1.062H170.19a.531.531,0,0,1,0,1.062" transform="translate(-23.747 -39.399)" fill="#121936"/>
    <path id="Trazado_243276" data-name="Trazado 243276" d="M156.682,171.913H131.345a.531.531,0,1,1,0-1.062h25.337a.531.531,0,1,1,0,1.062" transform="translate(-28.365 -37.047)" fill="#121936"/>
    <path id="Trazado_243277" data-name="Trazado 243277" d="M170.19,198.687H110.045a.531.531,0,1,1,0-1.062H170.19a.531.531,0,0,1,0,1.062" transform="translate(-23.747 -42.852)" fill="#121936"/>
    <path id="Trazado_243278" data-name="Trazado 243278" d="M170.19,214.611H110.045a.531.531,0,1,1,0-1.062H170.19a.531.531,0,0,1,0,1.062" transform="translate(-23.747 -46.305)" fill="#121936"/>
    <path id="Trazado_243279" data-name="Trazado 243279" d="M170.19,229.515H110.045a.531.531,0,1,1,0-1.062H170.19a.531.531,0,0,1,0,1.062" transform="translate(-23.747 -49.537)" fill="#121936"/>
    <path id="Trazado_243280" data-name="Trazado 243280" d="M138.189,97.276h0a2.059,2.059,0,0,0-4.019.637,2.059,2.059,0,0,1-3.729,1.212,2.059,2.059,0,0,0-3.626,1.847h0a2.059,2.059,0,0,1-3.173,2.3,2.059,2.059,0,0,0-2.877,2.877,2.058,2.058,0,0,1-2.3,3.172,2.059,2.059,0,0,0-1.847,3.626,2.059,2.059,0,0,1-1.212,3.729,2.059,2.059,0,0,0-.637,4.019,2.058,2.058,0,0,1,0,3.921,2.059,2.059,0,0,0,.637,4.019,2.059,2.059,0,0,1,1.212,3.729,2.059,2.059,0,0,0,1.847,3.626,2.058,2.058,0,0,1,2.3,3.172,2.059,2.059,0,0,0,2.877,2.877,2.059,2.059,0,0,1,3.173,2.3h0a2.059,2.059,0,0,0,3.626,1.848,2.059,2.059,0,0,1,3.729,1.212,2.059,2.059,0,0,0,4.019.637,2.059,2.059,0,0,1,3.921,0,2.059,2.059,0,0,0,4.019-.637,2.059,2.059,0,0,1,3.729-1.212,2.059,2.059,0,0,0,3.626-1.848,2.058,2.058,0,0,1,3.172-2.3,2.059,2.059,0,0,0,2.877-2.877,2.058,2.058,0,0,1,2.3-3.172,2.059,2.059,0,0,0,1.847-3.626,2.059,2.059,0,0,1,1.212-3.729,2.059,2.059,0,0,0,.637-4.019,2.059,2.059,0,0,1,0-3.921,2.059,2.059,0,0,0-.637-4.019,2.059,2.059,0,0,1-1.212-3.729,2.059,2.059,0,0,0-1.847-3.626,2.058,2.058,0,0,1-2.3-3.172,2.059,2.059,0,0,0-2.877-2.877,2.058,2.058,0,0,1-3.172-2.3,2.059,2.059,0,0,0-3.626-1.847,2.059,2.059,0,0,1-3.729-1.212,2.059,2.059,0,0,0-4.019-.637,2.059,2.059,0,0,1-3.921,0" transform="translate(-24.575 -20.782)" fill="#ffd066"/>
    <path id="Trazado_243281" data-name="Trazado 243281" d="M113.7,104.733a.527.527,0,0,1-.331-.116l-5.011-3.99a.531.531,0,0,1,.662-.831l5.011,3.991a.531.531,0,0,1-.331.946" transform="translate(-23.453 -21.614)" fill="#121936"/>
    <path id="Trazado_243282" data-name="Trazado 243282" d="M101.077,129.692a.531.531,0,0,1-.121-1.048l6.236-1.464a.531.531,0,0,1,.243,1.035l-6.236,1.463a.547.547,0,0,1-.122.014" transform="translate(-21.802 -27.574)" fill="#121936"/>
    <path id="Trazado_243283" data-name="Trazado 243283" d="M108.453,116.737a.524.524,0,0,1-.142-.02l-6.174-1.706a.531.531,0,1,1,.283-1.024l6.174,1.706a.531.531,0,0,1-.141,1.043" transform="translate(-22.062 -24.712)" fill="#121936"/>
    <path id="Trazado_243284" data-name="Trazado 243284" d="M184.934,129.35a.531.531,0,0,1-.042-1.06l6.384-.517a.531.531,0,1,1,.086,1.058l-6.384.518-.044,0" transform="translate(-39.985 -27.705)" fill="#121936"/>
    <path id="Trazado_243285" data-name="Trazado 243285" d="M183.907,116.737a.531.531,0,0,1-.141-1.043l6.174-1.706a.531.531,0,0,1,.283,1.024l-6.174,1.706a.52.52,0,0,1-.142.02" transform="translate(-39.763 -24.713)" fill="#121936"/>
    <path id="Trazado_243286" data-name="Trazado 243286" d="M188.549,142.193a.529.529,0,0,1-.245-.06l-5.684-2.954a.531.531,0,1,1,.489-.942l5.684,2.953a.531.531,0,0,1-.244,1" transform="translate(-39.536 -29.962)" fill="#121936"/>
    <path id="Trazado_243287" data-name="Trazado 243287" d="M159.244,125.615a16.137,16.137,0,1,1-16.138-16.138A16.138,16.138,0,0,1,159.244,125.615Z" transform="translate(-27.531 -23.739)" fill="none" stroke="#121936" stroke-miterlimit="10" stroke-width="2.034"/>
    <path id="Trazado_243288" data-name="Trazado 243288" d="M139.416,133a6.311,6.311,0,0,0,6.333,4.442V117.081c-1.107,4.606-3.514,6.777-5.354,9.6a7.965,7.965,0,0,0-.978,6.325" transform="translate(-30.174 -25.387)" fill="#121936"/>
    <path id="Trazado_243289" data-name="Trazado 243289" d="M152.928,126.68c-1.841-2.822-4.248-4.993-5.354-9.6v20.365a6.311,6.311,0,0,0,6.333-4.442,7.966,7.966,0,0,0-.978-6.325" transform="translate(-31.999 -25.388)" fill="#121936"/>
    <path id="Trazado_243290" data-name="Trazado 243290" d="M141.314,134.9a3.782,3.782,0,0,0,5.045,4.388,5.421,5.421,0,0,1-5.045-4.388" transform="translate(-30.62 -29.252)" fill="#ffd066"/>
    <path id="Trazado_243291" data-name="Trazado 243291" d="M166.621,257.952v23.466a16.819,16.819,0,0,0,16.818,16.818h3.122a20.209,20.209,0,0,0,20.209-20.21A14.225,14.225,0,0,1,221,263.8h5.849a12.089,12.089,0,0,1,3.828.622V263.8h.138v-8.824a11.384,11.384,0,0,0-11.384-11.384H152.905v.016a14.357,14.357,0,0,1,13.716,14.342" transform="translate(-33.155 -52.82)" fill="#f4f2ed"/>
    <line id="Línea_435" data-name="Línea 435" transform="translate(288.21 246.611)" fill="none" stroke="#faf8f3" stroke-linecap="round" stroke-linejoin="round" stroke-width="0"/>
    <path id="Trazado_243292" data-name="Trazado 243292" d="M330.235,289.841l-.122-9.061A11.384,11.384,0,0,0,318.729,269.4H252.206v.622a12.1,12.1,0,0,1,8.27,11.477v5.716a17.815,17.815,0,0,0,17.815,17.815H342.9a15.693,15.693,0,0,1-12.661-15.185" transform="translate(-54.687 -58.415)" fill="#faf8f3"/>
    <path id="Trazado_243293" data-name="Trazado 243293" d="M90.634,297.122a12.711,12.711,0,0,0,.285,2.676,14.748,14.748,0,0,1-.25-2.792Z" transform="translate(-19.653 -64.401)" fill="#121936"/>
    <line id="Línea_436" data-name="Línea 436" transform="translate(223.604 246.611)" fill="none" stroke="#121936" stroke-linecap="round" stroke-linejoin="round" stroke-width="0"/>
    <path id="Trazado_243294" data-name="Trazado 243294" d="M225.521,281.617V275.9a12.1,12.1,0,0,0-12.1-12.1h-5.849a14.225,14.225,0,0,0-14.225,14.225,20.209,20.209,0,0,1-20.209,20.209h-3.122A16.819,16.819,0,0,1,153.2,281.418V257.953a14.357,14.357,0,0,0-13.716-14.342c-.213-.009-.427-.016-.641-.016a17.549,17.549,0,0,0-17.549,17.549v19.211a17.882,17.882,0,0,1-17.882,17.882A12.7,12.7,0,0,1,91,288.216a13.743,13.743,0,0,0,13.813,11.215H243.335a17.814,17.814,0,0,1-17.815-17.815" transform="translate(-19.732 -52.82)" fill="#121936"/>
    <path id="Trazado_243295" data-name="Trazado 243295" d="M102.5,205.513c-2.516-5.39-8.267-1.431-12.018.477-1.7,1.037-3.263,1.963-4.732,2.818a17.521,17.521,0,0,0,.139-6.106,2.412,2.412,0,0,0-.992-1.694,1.551,1.551,0,0,0-1.426.028,3.942,3.942,0,0,0-1.1.934c-3.03,3.346-9.832,14.819-9.832,14.819a30.862,30.862,0,0,0-2.559,8.9c-1.17,8.865,6.9,16.968,15.391,15.208A6.553,6.553,0,0,0,88,239.826l14.282-10.249c2.73-1.74,3.029-6.091.491-6.133,2.429-.724,4.773-2.432,3.381-5.464-.585-1.753-1.941-2.012-3.386-1.786,2.2-.72,4.179-1.869,3.2-4.462-.674-2.94-3.055-3.036-5.281-2.508,1.438-.674,2.53-1.775,1.808-3.711" transform="translate(-15.149 -43.551)" fill="#ffa386"/>
    <path id="Trazado_243296" data-name="Trazado 243296" d="M82.169,214.73a.531.531,0,0,1-.268-.99l7.72-4.5a.531.531,0,0,1,.534.918l-7.72,4.5a.53.53,0,0,1-.266.072" transform="translate(-17.702 -45.356)" fill="#ff6a48"/>
    <path id="Trazado_243297" data-name="Trazado 243297" d="M101.961,215.033a.531.531,0,0,1-.275-.986,63.9,63.9,0,0,1,6.305-3.458.531.531,0,1,1,.28,1.025,62.373,62.373,0,0,0-6.036,3.343.531.531,0,0,1-.274.076" transform="translate(-21.993 -45.659)" fill="#ff6a48"/>
    <path id="Trazado_243298" data-name="Trazado 243298" d="M105.626,223.758a.531.531,0,0,1-.266-.991l4.856-2.812a.531.531,0,0,1,.532.919l-4.856,2.812a.528.528,0,0,1-.265.071" transform="translate(-22.788 -47.679)" fill="#ff6a48"/>
    <path id="Trazado_243299" data-name="Trazado 243299" d="M107.472,232.154a.531.531,0,0,1-.256-1l2.649-1.457a.531.531,0,0,1,.511.93l-2.649,1.457a.528.528,0,0,1-.255.066" transform="translate(-23.188 -49.793)" fill="#ff6a48"/>
    <path id="Trazado_243300" data-name="Trazado 243300" d="M233.449,169.218l3.256,2.793a2.037,2.037,0,0,1,.154,2.875l-2.924,3.411a2.037,2.037,0,0,1-2.865.286l-3.256-2.793a2.036,2.036,0,0,1-.154-2.875l2.925-3.411a2.037,2.037,0,0,1,2.865-.286" transform="translate(-49.252 -36.592)" fill="#ff6a48"/>
    <rect id="Rectángulo_316200" data-name="Rectángulo 316200" width="46.392" height="8.267" transform="matrix(0.651, -0.759, 0.759, 0.651, 149.785, 169.715)" fill="#ffd066"/>
    <path id="Trazado_243301" data-name="Trazado 243301" d="M190.35,216.766l6.16,5.282c.027.023.122.1-.023.091l-9.682,4.992,3.458-10.329a.058.058,0,0,1,.086-.036" transform="translate(-40.506 -47.001)" fill="#ffaa89"/>
    <path id="Trazado_243302" data-name="Trazado 243302" d="M188.088,225.278l2.2,1.891c.009.009.044.038-.008.033l-3.466,1.786,1.237-3.7c.005-.014.022-.021.031-.013" transform="translate(-40.509 -48.848)" fill="#233863"/>
    <path id="Trazado_243303" data-name="Trazado 243303" d="M226.9,185.359a.265.265,0,0,1-.2-.439l4.344-5.065a.266.266,0,0,1,.4.346l-4.343,5.064a.266.266,0,0,1-.2.093" transform="translate(-49.142 -38.979)" fill="#fff"/>
    <path id="Trazado_243304" data-name="Trazado 243304" d="M213.272,192.171a.266.266,0,0,1-.2-.439l12.525-14.6a.266.266,0,0,1,.4.346l-12.524,14.6a.266.266,0,0,1-.2.093" transform="translate(-46.188 -38.388)" fill="#fff"/>
    <path id="Trazado_243305" data-name="Trazado 243305" d="M302.165,235.981,248.579,200.54l-12.422-9.733a23.385,23.385,0,0,0-12.044-4.857l-14.232-1.457a10.6,10.6,0,0,0-5.928,1.119l-6.756,3.477a3.035,3.035,0,0,0-1.639,2.9l.053.793-.519.247a4.073,4.073,0,0,0-2.321,3.689l.009,2.8-.466,1.093a4.2,4.2,0,0,0,.728,4.444l10.49,11.77a1.655,1.655,0,0,0,2.428.046,4.726,4.726,0,0,0,.275-6.241l-3.245-4.029,10.867,6.432a13.092,13.092,0,0,0,5.875,1.8l6.7.411,6.929,7.909L274.921,273.3a29.068,29.068,0,0,0,48.617-9.484l3.8-8.322Z" transform="translate(-41.628 -39.992)" fill="#ffaa89"/>
    <path id="Trazado_243306" data-name="Trazado 243306" d="M196.7,195.083a.531.531,0,0,1-.161-1.037l8.074-2.577a.531.531,0,0,1,.323,1.013l-8.074,2.577a.526.526,0,0,1-.161.025" transform="translate(-42.536 -41.512)" fill="#ff6a48"/>
    <path id="Trazado_243307" data-name="Trazado 243307" d="M193.262,203.268a.531.531,0,0,1-.131-1.046l10.035-2.553a.531.531,0,1,1,.262,1.028l-10.035,2.554a.54.54,0,0,1-.132.016" transform="translate(-41.791 -43.292)" fill="#ff6a48"/>
    <path id="Trazado_243308" data-name="Trazado 243308" d="M205.333,212.493a.528.528,0,0,1-.4-.177l-2.023-2.26a.531.531,0,0,1,.792-.709l2.022,2.261a.531.531,0,0,1-.4.885" transform="translate(-43.97 -45.356)" fill="#ff6a48"/>
    <path id="Trazado_243309" data-name="Trazado 243309" d="M235.826,224.075a.531.531,0,0,1-.02-1.061l7.913-.311a.531.531,0,1,1,.042,1.061l-7.913.31h-.021" transform="translate(-51.02 -48.29)" fill="#ff6a48"/>
  </g>
</svg>
