<svg xmlns="http://www.w3.org/2000/svg" width="715" height="402" viewBox="0 0 715 402">
  <g id="Grupo_243986" data-name="Grupo 243986" transform="translate(-650 -1567)">
    <path id="Trazado_243312" data-name="Trazado 243312" d="M470,432V68q0-.935.091-1.863t.274-1.844q.182-.915.453-1.809t.628-1.755q.357-.863.8-1.686t.959-1.6q.519-.776,1.111-1.5t1.252-1.381q.66-.66,1.381-1.252t1.5-1.111q.777-.519,1.6-.959t1.686-.8q.862-.357,1.756-.628t1.808-.453q.916-.182,1.845-.274T489,49h677q.933,0,1.862.091t1.845.274q.915.181,1.808.453t1.756.628q.862.357,1.685.8t1.6.959q.775.518,1.5,1.111t1.382,1.252q.66.66,1.252,1.381t1.111,1.5q.519.775.958,1.6t.8,1.686q.357.863.628,1.755t.453,1.809q.181.915.274,1.844T1185,68V432q0,.933-.091,1.862t-.274,1.845q-.183.915-.453,1.808t-.628,1.756q-.359.863-.8,1.685t-.958,1.6q-.519.775-1.111,1.5t-1.252,1.382q-.66.66-1.382,1.252t-1.5,1.111q-.777.519-1.6.958t-1.685.8q-.862.357-1.756.628t-1.808.453q-.917.182-1.845.273T1166,451H489q-.933,0-1.862-.092t-1.845-.273q-.915-.183-1.808-.453t-1.756-.628q-.863-.358-1.686-.8t-1.6-.958q-.775-.519-1.5-1.111t-1.381-1.252q-.66-.66-1.252-1.382t-1.111-1.5q-.519-.777-.959-1.6t-.8-1.686q-.357-.862-.628-1.756t-.453-1.808q-.182-.916-.274-1.845T470,432" transform="translate(180 1518)" fill="#fff"/>
    <path id="Trazado_243321" data-name="Trazado 243321" d="M630.3,218.061a38.39,38.39,0,0,1-34.034-40.819c.036-.532.086-1.064.145-1.6s.13-1.061.211-1.588a38.388,38.388,0,0,1,42.2-32.3c39,4.357,75.486,47.063,75.486,47.063s-46.225,33.462-84.012,29.24" transform="translate(180 1518)" fill="#b0e590"/>
    <path id="Trazado_243322" data-name="Trazado 243322" d="M781.776,224.282c-45.593-13.748-76.3-67.076-107.242-78.246,0,0,81.407-44.943,136.679-29.9a56.034,56.034,0,0,1,39.92,66.519c-.171.758-.362,1.516-.567,2.269s-.424,1.505-.66,2.245c-9.027,28.494-39.245,45.82-68.13,37.109" transform="translate(180 1518)" fill="#b0e590"/>
    <path id="Trazado_243323" data-name="Trazado 243323" d="M884.17,225.677a19.336,19.336,0,0,1,4.564,26.376c-.15.222-.3.441-.465.659s-.324.431-.492.64a19.336,19.336,0,0,1-26.543,3.459c-15.912-11.723-21.071-39.539-21.071-39.539s28.589-2.953,44.007,8.4" transform="translate(180 1518)" fill="#b0e590"/>
    <path id="Trazado_243324" data-name="Trazado 243324" d="M896.435,186.664a16.374,16.374,0,0,1,9.889,20.4c-.07.217-.144.432-.224.646s-.162.426-.251.636a16.373,16.373,0,0,1-20.792,9.029c-15.7-5.814-26.407-27.245-26.407-27.245s22.577-9.1,37.785-3.463" transform="translate(180 1518)" fill="#b0e590"/>
    <path id="Trazado_243325" data-name="Trazado 243325" d="M893.678,148.854a15.054,15.054,0,0,1,16.09,13.244c.024.208.044.416.06.626s.028.418.035.627a15.054,15.054,0,0,1-13.9,15.523c-15.343,1.165-32.515-12.627-32.515-12.627s15.369-16.264,30.235-17.393" transform="translate(180 1518)" fill="#b0e590"/>
    <path id="Trazado_243326" data-name="Trazado 243326" d="M881.349,118.3a13.311,13.311,0,0,1,16.542,8.122c.064.173.123.349.18.526s.109.354.157.533a13.31,13.31,0,0,1-8.805,16.188c-12.966,4.127-30.552-4.246-30.552-4.246s9.915-17.125,22.478-21.123" transform="translate(180 1518)" fill="#b0e590"/>
    <path id="Trazado_243327" data-name="Trazado 243327" d="M854.026,97.474a12.048,12.048,0,0,1,16.4,3.058c.1.136.192.275.285.415s.181.283.266.427a12.047,12.047,0,0,1-3.74,16.253c-10.3,6.749-27.665,3.725-27.665,3.725s4.479-17.338,14.459-23.878" transform="translate(180 1518)" fill="#b0e590"/>
    <path id="Trazado_243328" data-name="Trazado 243328" d="M633.694,211.279A38.39,38.39,0,0,1,599.66,170.46c.036-.532.086-1.064.145-1.6s.13-1.061.211-1.588a38.388,38.388,0,0,1,42.2-32.3c39,4.357,75.486,47.063,75.486,47.063S671.481,215.5,633.694,211.279Z" transform="translate(180 1518)" fill="none" stroke="#04294f" stroke-linecap="round" stroke-miterlimit="10" stroke-width="3.204"/>
    <path id="Trazado_243329" data-name="Trazado 243329" d="M631.243,196.5a26.9,26.9,0,0,1-3.481-2.113,36.78,36.78,0,0,1-3.2-2.546,37.685,37.685,0,0,1-5.512-6.09l-.3-.419-.154-.21-.141-.214-.575-.86c-.187-.292-.363-.587-.547-.88l-.271-.442-.255-.451a38.3,38.3,0,0,1-1.863-3.713,41.518,41.518,0,0,1-2.275-6.858l-13.01-1.24c.036-.532.086-1.063.145-1.6s.13-1.062.211-1.588l12.963,1.663a41.52,41.52,0,0,1,3.732-6.191,38.647,38.647,0,0,1,2.636-3.207l.35-.384.36-.371c.245-.245.482-.5.728-.737l.752-.713.186-.176.194-.172.388-.343a37.825,37.825,0,0,1,6.72-4.723,36.948,36.948,0,0,1,3.681-1.776,27.1,27.1,0,0,1,3.861-1.295,27.317,27.317,0,0,0-3.734,1.57,36.283,36.283,0,0,0-3.5,2.023,36.975,36.975,0,0,0-6.2,5.085l-.348.359-.175.178-.169.187-.67.738c-.22.25-.431.508-.644.761l-.32.382-.307.393a36.289,36.289,0,0,0-2.286,3.248,39.4,39.4,0,0,0-2.825,5.474l23.16,2.967a44.428,44.428,0,0,1,3.8-4.732q1.119-1.2,2.309-2.325c.8-.739,1.613-1.464,2.458-2.147s1.705-1.342,2.586-1.97,1.785-1.223,2.7-1.79,1.854-1.1,2.809-1.6,1.921-.97,2.916-1.368c-.953.492-1.866,1.051-2.763,1.631s-1.768,1.2-2.619,1.84-1.678,1.313-2.483,2.006-1.581,1.417-2.336,2.158-1.478,1.516-2.18,2.3-1.364,1.607-2,2.44a42.373,42.373,0,0,0-2.634,3.886l21.168,2.714a25.37,25.37,0,0,1,2.025-2.006c.77-.665,1.565-1.292,2.386-1.872s1.666-1.114,2.528-1.614,1.738-.967,2.626-1.4a53.2,53.2,0,0,1,11.086-3.923,52.7,52.7,0,0,0-10.5,4.988c-.815.509-1.61,1.049-2.385,1.611s-1.516,1.161-2.234,1.779-1.39,1.282-2.03,1.962c-.25.275-.49.553-.725.835l32.923,4.22-33.043-3.151c.169.329.34.653.524.975.474.8.988,1.6,1.548,2.36s1.154,1.509,1.784,2.229,1.288,1.421,1.971,2.1a50.671,50.671,0,0,0,4.356,3.83,50.052,50.052,0,0,0,4.781,3.35,50.506,50.506,0,0,1-5.132-2.853,51.327,51.327,0,0,1-4.816-3.419q-1.155-.933-2.253-1.95c-.728-.676-1.428-1.391-2.108-2.133s-1.309-1.533-1.913-2.351a25.323,25.323,0,0,1-1.533-2.4l-21.245-2.027a42.339,42.339,0,0,0,1.711,4.373c.44.953.912,1.9,1.417,2.821s1.043,1.838,1.618,2.726,1.171,1.766,1.8,2.623,1.293,1.689,1.981,2.5,1.4,1.606,2.148,2.372,1.513,1.512,2.334,2.2c-.883-.61-1.723-1.284-2.542-1.978s-1.615-1.428-2.387-2.182-1.518-1.536-2.241-2.341-1.416-1.639-2.088-2.494-1.306-1.738-1.922-2.636-1.189-1.83-1.74-2.776a44.552,44.552,0,0,1-2.665-5.457L615.1,171.931a39.313,39.313,0,0,0,1.546,5.961,36.993,36.993,0,0,0,1.513,3.674l.211.45.229.443c.153.293.3.592.461.885l.49.87.123.216.13.214.262.424a36.841,36.841,0,0,0,4.922,6.329,35.937,35.937,0,0,0,2.963,2.743,26.783,26.783,0,0,0,3.3,2.356" transform="translate(180 1518)" fill="#04294f"/>
    <path id="Trazado_243330" data-name="Trazado 243330" d="M785.173,217.5c-45.593-13.748-76.3-67.076-107.242-78.246,0,0,81.407-44.943,136.679-29.9a56.037,56.037,0,0,1,39.921,66.52c-.172.757-.363,1.516-.568,2.269s-.424,1.5-.66,2.245C844.276,208.884,814.058,226.21,785.173,217.5Z" transform="translate(180 1518)" fill="none" stroke="#04294f" stroke-linecap="round" stroke-miterlimit="10" stroke-width="3.204"/>
    <path id="Trazado_243331" data-name="Trazado 243331" d="M796.444,198.753a38.941,38.941,0,0,0,5.739-1.426,52.947,52.947,0,0,0,5.5-2.129,53.788,53.788,0,0,0,10.081-5.946l.584-.437.292-.219.282-.229,1.134-.916c.375-.31.737-.635,1.1-.953l.547-.477.53-.5a53.782,53.782,0,0,0,4.029-4.174,57.446,57.446,0,0,0,5.3-7.258l-32.739-9.484a64.717,64.717,0,0,1-6.549,5.974q-1.884,1.482-3.853,2.833c-1.32.888-2.656,1.747-4.026,2.543s-2.761,1.555-4.175,2.264-2.848,1.36-4.3,1.973-2.923,1.172-4.411,1.678-2.989.966-4.515,1.317c1.485-.493,2.929-1.1,4.353-1.731s2.82-1.333,4.19-2.068,2.716-1.514,4.033-2.333,2.6-1.688,3.856-2.589,2.471-1.855,3.661-2.83,2.327-2.012,3.438-3.068a61.9,61.9,0,0,0,4.672-5.014l-29.923-8.669a37.162,37.162,0,0,1-3.372,2.438,43.968,43.968,0,0,1-3.862,2.162c-1.321.644-2.655,1.238-4.008,1.764s-2.723,1-4.1,1.434a78,78,0,0,1-16.873,3.167,73.046,73.046,0,0,0,8.289-1.976,74.334,74.334,0,0,0,7.972-2.858c1.291-.554,2.559-1.156,3.8-1.79s2.446-1.333,3.621-2.065,2.292-1.537,3.368-2.374c.421-.338.831-.687,1.234-1.041L714.8,140.266l46.955,11.966c-.168-.509-.344-1.016-.538-1.522a41.167,41.167,0,0,0-1.7-3.753c-.641-1.225-1.327-2.436-2.074-3.616s-1.539-2.338-2.372-3.469A76.83,76.83,0,0,0,743.5,127.46a77.892,77.892,0,0,1,12.939,11.285q1.458,1.6,2.812,3.314c.9,1.141,1.748,2.329,2.56,3.55s1.546,2.505,2.234,3.823a37.326,37.326,0,0,1,1.67,3.811l30.189,7.693a61.584,61.584,0,0,0-1.487-6.69q-.632-2.211-1.408-4.388c-.533-1.442-1.093-2.882-1.721-4.295s-1.294-2.809-2.011-4.185-1.486-2.726-2.295-4.056-1.661-2.632-2.565-3.9-1.844-2.519-2.874-3.7c1.137,1.076,2.2,2.239,3.225,3.425s2.008,2.421,2.95,3.683,1.844,2.555,2.707,3.879,1.676,2.684,2.452,4.065,1.494,2.8,2.181,4.236,1.3,2.907,1.886,4.394a64.83,64.83,0,0,1,2.618,8.468l33.029,8.419a57.394,57.394,0,0,0-.89-8.944,53.043,53.043,0,0,0-1.359-5.638l-.2-.7-.228-.691c-.155-.459-.3-.921-.468-1.381l-.512-1.361-.127-.343-.142-.336-.28-.674a53.95,53.95,0,0,0-5.679-10.232,53.148,53.148,0,0,0-3.657-4.623,39.608,39.608,0,0,0-4.225-4.139,39.558,39.558,0,0,1,4.546,3.832,53.831,53.831,0,0,1,4.04,4.39,55.28,55.28,0,0,1,6.584,10.022l.339.673.174.336.158.342.635,1.37c.2.459.392.927.592,1.392l.291.7.266.708a56.332,56.332,0,0,1,1.855,5.77,60.686,60.686,0,0,1,1.738,10.407l18.487,4.71c-.172.757-.362,1.515-.567,2.269s-.425,1.505-.66,2.245l-18.324-5.311a60.734,60.734,0,0,1-6.773,8.088,56.132,56.132,0,0,1-4.525,4.037l-.588.475-.606.454c-.405.3-.8.606-1.213.9l-1.243.859-.309.215-.32.2-.634.407a55.174,55.174,0,0,1-10.755,5.3,53.957,53.957,0,0,1-5.708,1.736,39.394,39.394,0,0,1-5.861,1" transform="translate(180 1518)" fill="#04294f"/>
    <path id="Trazado_243332" data-name="Trazado 243332" d="M887.566,218.9a19.336,19.336,0,0,1,4.564,26.376c-.15.222-.3.441-.465.659s-.324.431-.492.64a19.336,19.336,0,0,1-26.543,3.459c-15.912-11.723-21.071-39.539-21.071-39.539S872.148,207.537,887.566,218.9Z" transform="translate(180 1518)" fill="none" stroke="#04294f" stroke-linecap="round" stroke-miterlimit="10" stroke-width="3.204"/>
    <path id="Trazado_243333" data-name="Trazado 243333" d="M899.831,179.882a16.376,16.376,0,0,1,9.89,20.4q-.105.324-.224.645c-.08.214-.163.426-.251.636a16.373,16.373,0,0,1-20.792,9.029c-15.7-5.814-26.407-27.245-26.407-27.245S884.624,174.248,899.831,179.882Z" transform="translate(180 1518)" fill="none" stroke="#04294f" stroke-linecap="round" stroke-miterlimit="10" stroke-width="3.204"/>
    <path id="Trazado_243334" data-name="Trazado 243334" d="M897.075,142.071a15.054,15.054,0,0,1,16.09,13.244c.024.208.044.416.06.626s.028.419.035.627a15.055,15.055,0,0,1-13.905,15.523c-15.343,1.165-32.515-12.627-32.515-12.627S882.209,143.2,897.075,142.071Z" transform="translate(180 1518)" fill="none" stroke="#04294f" stroke-linecap="round" stroke-miterlimit="10" stroke-width="3.204"/>
    <path id="Trazado_243335" data-name="Trazado 243335" d="M884.746,111.513a13.313,13.313,0,0,1,16.542,8.122c.064.174.123.349.18.526s.109.355.157.533a13.311,13.311,0,0,1-8.8,16.189c-12.966,4.126-30.552-4.246-30.552-4.246S872.183,115.512,884.746,111.513Z" transform="translate(180 1518)" fill="none" stroke="#04294f" stroke-linecap="round" stroke-miterlimit="10" stroke-width="3.204"/>
    <path id="Trazado_243336" data-name="Trazado 243336" d="M857.422,90.691a12.049,12.049,0,0,1,16.4,3.059c.1.135.192.275.285.415s.181.283.266.427a12.046,12.046,0,0,1-3.74,16.252c-10.3,6.75-27.665,3.726-27.665,3.726S847.442,97.232,857.422,90.691Z" transform="translate(180 1518)" fill="none" stroke="#04294f" stroke-linecap="round" stroke-miterlimit="10" stroke-width="3.204"/>
    <path id="Trazado_243337" data-name="Trazado 243337" d="M803.4,285.067a38.39,38.39,0,0,0-34.034,40.819c.036.532.086,1.064.145,1.6s.13,1.061.211,1.588a38.388,38.388,0,0,0,42.2,32.3c39-4.357,75.486-47.063,75.486-47.063s-46.225-33.462-84.012-29.24" transform="translate(180 1518)" fill="#b0e590"/>
    <path id="Trazado_243338" data-name="Trazado 243338" d="M954.88,278.847c-45.593,13.748-76.3,67.076-107.242,78.246,0,0,81.407,44.943,136.679,29.9a56.034,56.034,0,0,0,39.92-66.519c-.171-.758-.362-1.516-.567-2.269s-.424-1.5-.66-2.245c-9.027-28.494-39.245-45.82-68.13-37.109" transform="translate(180 1518)" fill="#b0e590"/>
    <path id="Trazado_243339" data-name="Trazado 243339" d="M1057.273,277.451a19.336,19.336,0,0,0,4.564-26.376c-.15-.222-.305-.441-.465-.659s-.324-.431-.492-.64a19.336,19.336,0,0,0-26.543-3.459c-15.912,11.723-21.071,39.539-21.071,39.539s28.589,2.953,44.007-8.4" transform="translate(180 1518)" fill="#b0e590"/>
    <path id="Trazado_243340" data-name="Trazado 243340" d="M1069.538,316.464a16.375,16.375,0,0,0,9.89-20.4q-.1-.324-.224-.645c-.08-.214-.163-.426-.251-.636a16.373,16.373,0,0,0-20.792-9.029c-15.7,5.814-26.407,27.245-26.407,27.245s22.577,9.1,37.784,3.463" transform="translate(180 1518)" fill="#b0e590"/>
    <path id="Trazado_243341" data-name="Trazado 243341" d="M1066.781,354.275a15.054,15.054,0,0,0,16.09-13.244c.024-.208.044-.416.06-.626s.027-.418.034-.627a15.053,15.053,0,0,0-13.9-15.523c-15.343-1.165-32.515,12.627-32.515,12.627s15.369,16.264,30.235,17.393" transform="translate(180 1518)" fill="#b0e590"/>
    <path id="Trazado_243342" data-name="Trazado 243342" d="M1054.452,384.832a13.311,13.311,0,0,0,16.542-8.122c.064-.173.123-.349.18-.526s.109-.354.157-.533a13.311,13.311,0,0,0-8.805-16.188c-12.966-4.127-30.552,4.246-30.552,4.246s9.915,17.125,22.478,21.123" transform="translate(180 1518)" fill="#b0e590"/>
    <path id="Trazado_243343" data-name="Trazado 243343" d="M1027.129,405.654a12.048,12.048,0,0,0,16.4-3.058c.1-.136.192-.275.285-.415s.18-.283.266-.427a12.047,12.047,0,0,0-3.74-16.253c-10.3-6.749-27.665-3.725-27.665-3.725s4.479,17.338,14.459,23.878" transform="translate(180 1518)" fill="#b0e590"/>
    <path id="Trazado_243344" data-name="Trazado 243344" d="M806.566,274.071a38.39,38.39,0,0,0-34.034,40.819c.036.532.086,1.064.145,1.6s.13,1.061.211,1.588a38.388,38.388,0,0,0,42.2,32.3c39-4.357,75.486-47.063,75.486-47.063S844.353,269.849,806.566,274.071Z" transform="translate(180 1518)" fill="none" stroke="#04294f" stroke-linecap="round" stroke-miterlimit="10" stroke-width="3.204"/>
    <path id="Trazado_243345" data-name="Trazado 243345" d="M804.115,288.854a26.9,26.9,0,0,0-3.481,2.113,36.8,36.8,0,0,0-3.2,2.546,37.687,37.687,0,0,0-5.512,6.09l-.3.419-.154.21-.141.214-.575.86c-.187.292-.363.587-.547.88l-.271.442-.255.451a38.3,38.3,0,0,0-1.863,3.713,41.519,41.519,0,0,0-2.275,6.858l-13.01,1.24c.036.532.087,1.063.145,1.6s.13,1.062.211,1.588l12.963-1.663a41.509,41.509,0,0,0,3.732,6.191,38.642,38.642,0,0,0,2.636,3.207l.35.384.36.371c.245.245.482.5.728.737l.752.713.186.176.194.172.388.343a37.826,37.826,0,0,0,6.72,4.723,36.955,36.955,0,0,0,3.681,1.776,27.1,27.1,0,0,0,3.861,1.295,27.311,27.311,0,0,1-3.734-1.57,36.28,36.28,0,0,1-3.5-2.023,36.976,36.976,0,0,1-6.2-5.085l-.348-.359-.175-.178-.169-.187-.67-.738c-.22-.25-.431-.508-.644-.761l-.32-.382-.307-.393a36.289,36.289,0,0,1-2.286-3.248,39.405,39.405,0,0,1-2.825-5.474l23.16-2.967a44.434,44.434,0,0,0,3.8,4.732q1.119,1.2,2.309,2.325c.8.739,1.613,1.464,2.458,2.147s1.705,1.342,2.586,1.97,1.785,1.223,2.7,1.79,1.854,1.1,2.809,1.6,1.921.97,2.916,1.368c-.953-.492-1.866-1.051-2.763-1.631s-1.768-1.2-2.619-1.84-1.678-1.313-2.483-2.006-1.581-1.417-2.336-2.158-1.478-1.516-2.18-2.3-1.364-1.607-2-2.44a42.363,42.363,0,0,1-2.634-3.886l21.168-2.714a25.37,25.37,0,0,0,2.025,2.006c.77.665,1.565,1.292,2.386,1.872s1.666,1.114,2.528,1.614,1.738.967,2.626,1.4a53.2,53.2,0,0,0,11.086,3.923,52.7,52.7,0,0,1-10.5-4.988c-.815-.509-1.61-1.049-2.385-1.611s-1.516-1.161-2.234-1.779-1.39-1.282-2.03-1.962c-.25-.275-.49-.553-.725-.835l32.923-4.22-33.043,3.151c.169-.329.34-.653.524-.975.474-.8.988-1.6,1.548-2.36s1.154-1.509,1.784-2.229,1.288-1.421,1.971-2.1a50.671,50.671,0,0,1,4.356-3.83,50.037,50.037,0,0,1,4.781-3.35,50.493,50.493,0,0,0-5.132,2.853,51.329,51.329,0,0,0-4.816,3.419q-1.155.933-2.253,1.95c-.728.676-1.428,1.391-2.108,2.133s-1.309,1.533-1.913,2.351a25.323,25.323,0,0,0-1.533,2.4l-21.245,2.027a42.341,42.341,0,0,1,1.711-4.373c.44-.953.912-1.9,1.417-2.821s1.043-1.838,1.618-2.726,1.171-1.766,1.8-2.623,1.293-1.689,1.981-2.5,1.4-1.606,2.148-2.372,1.513-1.512,2.334-2.2c-.883.61-1.723,1.284-2.542,1.978s-1.615,1.428-2.386,2.182-1.519,1.536-2.242,2.341-1.416,1.639-2.088,2.494-1.306,1.738-1.922,2.636-1.189,1.83-1.74,2.776a44.553,44.553,0,0,0-2.665,5.457l-23.244,2.217a39.313,39.313,0,0,1,1.546-5.961,37,37,0,0,1,1.513-3.674l.211-.45.229-.443c.153-.293.3-.592.461-.885l.49-.87.123-.216.13-.214.262-.424a36.836,36.836,0,0,1,4.922-6.329,35.944,35.944,0,0,1,2.963-2.743,26.782,26.782,0,0,1,3.3-2.356" transform="translate(180 1518)" fill="#04294f"/>
    <path id="Trazado_243346" data-name="Trazado 243346" d="M958.045,267.85C912.452,281.6,881.747,334.926,850.8,346.1c0,0,81.407,44.943,136.679,29.9a56.037,56.037,0,0,0,39.921-66.52c-.172-.757-.363-1.516-.568-2.269s-.424-1.505-.66-2.245C1017.148,276.465,986.93,259.139,958.045,267.85Z" transform="translate(180 1518)" fill="none" stroke="#04294f" stroke-linecap="round" stroke-miterlimit="10" stroke-width="3.204"/>
    <path id="Trazado_243347" data-name="Trazado 243347" d="M969.317,286.6a38.943,38.943,0,0,1,5.739,1.426,52.948,52.948,0,0,1,5.5,2.129,53.786,53.786,0,0,1,10.081,5.946l.584.437.292.219.282.229,1.134.916c.375.31.737.635,1.1.953l.547.477.53.5A53.771,53.771,0,0,1,999.133,304a57.439,57.439,0,0,1,5.3,7.258l-32.739,9.484a64.714,64.714,0,0,0-6.549-5.974q-1.884-1.482-3.853-2.833c-1.32-.888-2.656-1.747-4.026-2.543s-2.761-1.555-4.175-2.264-2.848-1.36-4.3-1.973-2.923-1.172-4.411-1.678-2.989-.966-4.515-1.317c1.485.493,2.929,1.1,4.353,1.731s2.82,1.333,4.19,2.068,2.716,1.514,4.033,2.333,2.6,1.688,3.856,2.589,2.471,1.855,3.661,2.83,2.327,2.012,3.438,3.068a61.881,61.881,0,0,1,4.672,5.014l-29.923,8.669a37.163,37.163,0,0,0-3.372-2.438,43.95,43.95,0,0,0-3.862-2.162c-1.321-.644-2.655-1.238-4.008-1.764s-2.723-1.005-4.1-1.434a78,78,0,0,0-16.873-3.167,73.049,73.049,0,0,1,8.289,1.976,74.331,74.331,0,0,1,7.972,2.858c1.291.554,2.559,1.156,3.8,1.79s2.446,1.333,3.621,2.065,2.292,1.537,3.368,2.374c.421.338.831.687,1.234,1.041l-46.542,13.482,46.955-11.966c-.168.509-.344,1.016-.538,1.522a41.172,41.172,0,0,1-1.7,3.753c-.641,1.225-1.327,2.436-2.074,3.616s-1.539,2.338-2.372,3.469a76.724,76.724,0,0,1-11.565,12.412,77.892,77.892,0,0,0,12.939-11.285q1.458-1.6,2.812-3.314c.9-1.141,1.748-2.329,2.56-3.55s1.546-2.505,2.234-3.823a37.313,37.313,0,0,0,1.67-3.811l30.189-7.693a61.584,61.584,0,0,1-1.487,6.69q-.632,2.211-1.408,4.388c-.533,1.442-1.093,2.882-1.721,4.295s-1.294,2.809-2.011,4.185-1.486,2.726-2.295,4.056-1.661,2.632-2.565,3.9-1.844,2.519-2.874,3.7c1.137-1.076,2.2-2.239,3.225-3.425s2.008-2.421,2.95-3.683,1.844-2.555,2.707-3.879,1.676-2.684,2.452-4.065,1.494-2.8,2.181-4.236,1.3-2.907,1.886-4.394a64.841,64.841,0,0,0,2.618-8.468l33.029-8.419a57.4,57.4,0,0,1-.89,8.944,53.027,53.027,0,0,1-1.359,5.638l-.2.7-.228.691c-.155.459-.3.921-.468,1.381l-.512,1.361-.127.343-.142.336-.28.674a53.946,53.946,0,0,1-5.679,10.232,53.161,53.161,0,0,1-3.657,4.623,39.6,39.6,0,0,1-4.225,4.139,39.561,39.561,0,0,0,4.546-3.832,53.83,53.83,0,0,0,4.04-4.39,55.279,55.279,0,0,0,6.584-10.022l.339-.673.174-.336.158-.342.635-1.37c.205-.459.392-.927.592-1.392l.291-.7.266-.708a56.33,56.33,0,0,0,1.855-5.77,60.674,60.674,0,0,0,1.738-10.407l18.487-4.71c-.172-.757-.362-1.515-.567-2.269s-.425-1.505-.66-2.245l-18.324,5.311a60.733,60.733,0,0,0-6.773-8.088,56.121,56.121,0,0,0-4.525-4.037l-.588-.475-.606-.454c-.4-.3-.8-.606-1.213-.9l-1.243-.859-.309-.215-.32-.2-.634-.407a55.175,55.175,0,0,0-10.755-5.3,53.956,53.956,0,0,0-5.708-1.736,39.394,39.394,0,0,0-5.861-1" transform="translate(180 1518)" fill="#04294f"/>
    <path id="Trazado_243348" data-name="Trazado 243348" d="M1060.439,266.455A19.337,19.337,0,0,0,1065,240.079c-.15-.222-.305-.441-.465-.659s-.324-.431-.492-.64a19.336,19.336,0,0,0-26.543-3.459c-15.912,11.723-21.071,39.539-21.071,39.539S1045.021,277.813,1060.439,266.455Z" transform="translate(180 1518)" fill="none" stroke="#04294f" stroke-linecap="round" stroke-miterlimit="10" stroke-width="3.204"/>
    <path id="Trazado_243349" data-name="Trazado 243349" d="M1072.7,305.468a16.376,16.376,0,0,0,9.89-20.4q-.105-.324-.224-.645c-.08-.214-.163-.426-.251-.636a16.374,16.374,0,0,0-20.792-9.029c-15.7,5.814-26.407,27.245-26.407,27.245S1057.5,311.1,1072.7,305.468Z" transform="translate(180 1518)" fill="none" stroke="#04294f" stroke-linecap="round" stroke-miterlimit="10" stroke-width="3.204"/>
    <path id="Trazado_243350" data-name="Trazado 243350" d="M1069.947,343.278a15.054,15.054,0,0,0,16.09-13.244c.024-.208.044-.416.06-.626s.028-.419.035-.627a15.055,15.055,0,0,0-13.9-15.523c-15.343-1.165-32.515,12.627-32.515,12.627S1055.081,342.149,1069.947,343.278Z" transform="translate(180 1518)" fill="none" stroke="#04294f" stroke-linecap="round" stroke-miterlimit="10" stroke-width="3.204"/>
    <path id="Trazado_243351" data-name="Trazado 243351" d="M1057.618,373.836a13.311,13.311,0,0,0,16.542-8.122c.064-.173.123-.349.18-.526s.109-.354.157-.533a13.31,13.31,0,0,0-8.8-16.188c-12.966-4.127-30.552,4.246-30.552,4.246S1045.055,369.838,1057.618,373.836Z" transform="translate(180 1518)" fill="none" stroke="#04294f" stroke-linecap="round" stroke-miterlimit="10" stroke-width="3.204"/>
    <path id="Trazado_243352" data-name="Trazado 243352" d="M1030.3,394.658a12.048,12.048,0,0,0,16.395-3.058c.1-.136.192-.275.285-.415s.181-.283.266-.427a12.047,12.047,0,0,0-3.74-16.253c-10.3-6.749-27.665-3.725-27.665-3.725S1020.315,388.118,1030.3,394.658Z" transform="translate(180 1518)" fill="none" stroke="#04294f" stroke-linecap="round" stroke-miterlimit="10" stroke-width="3.204"/>
    <path id="Trazado_243353" data-name="Trazado 243353" d="M519.594,287.606A32.8,32.8,0,0,1,556.9,251.8,32.4,32.4,0,0,1,546.93,278.3C539.844,285.1,529.295,289.1,519.594,287.606Z" transform="translate(180 1518)" fill="none" stroke="#04294f" stroke-linecap="round" stroke-linejoin="round" stroke-width="3.204"/>
    <path id="Trazado_243354" data-name="Trazado 243354" d="M520.661,286.417q12.849-12.615,25.7-25.228" transform="translate(180 1518)" fill="none" stroke="#04294f" stroke-linecap="round" stroke-linejoin="round" stroke-width="3.204"/>
    <path id="Trazado_243355" data-name="Trazado 243355" d="M530.893,277.191l9.025-.882" transform="translate(180 1518)" fill="none" stroke="#04294f" stroke-linecap="round" stroke-linejoin="round" stroke-width="3.204"/>
    <path id="Trazado_243356" data-name="Trazado 243356" d="M538.38,260.767q-.053,2.988-.1,5.975" transform="translate(180 1518)" fill="none" stroke="#04294f" stroke-linecap="round" stroke-linejoin="round" stroke-width="3.204"/>
    <path id="Trazado_243357" data-name="Trazado 243357" d="M1077.77,121.128a32.8,32.8,0,0,1,51.239,7,32.4,32.4,0,0,1-26.968,8.649C1092.316,135.437,1082.625,129.659,1077.77,121.128Z" transform="translate(180 1518)" fill="none" stroke="#04294f" stroke-linecap="round" stroke-miterlimit="10" stroke-width="3.204"/>
    <path id="Trazado_243358" data-name="Trazado 243358" d="M1079.364,121.225,1115.1,125.7" transform="translate(180 1518)" fill="none" stroke="#04294f" stroke-linecap="round" stroke-miterlimit="10" stroke-width="3.204"/>
    <path id="Trazado_243359" data-name="Trazado 243359" d="M1092.949,123.513l6.3,6.525" transform="translate(180 1518)" fill="none" stroke="#04294f" stroke-linecap="round" stroke-miterlimit="10" stroke-width="3.204"/>
    <path id="Trazado_243360" data-name="Trazado 243360" d="M1110.471,119.178l-4.748,3.629" transform="translate(180 1518)" fill="none" stroke="#04294f" stroke-linecap="round" stroke-miterlimit="10" stroke-width="3.204"/>
    <path id="Trazado_243361" data-name="Trazado 243361" d="M965.234,209.361a32.8,32.8,0,0,0,42.748-29.1,32.4,32.4,0,0,0-27.995,4.279C971.876,190.068,965.777,199.56,965.234,209.361Z" transform="translate(180 1518)" fill="none" stroke="#04294f" stroke-linecap="round" stroke-miterlimit="10" stroke-width="3.204"/>
    <path id="Trazado_243362" data-name="Trazado 243362" d="M966.618,208.564l30-19.932" transform="translate(180 1518)" fill="none" stroke="#04294f" stroke-linecap="round" stroke-miterlimit="10" stroke-width="3.204"/>
    <path id="Trazado_243363" data-name="Trazado 243363" d="M977.759,200.46q1.365-4.325,2.729-8.648" transform="translate(180 1518)" fill="none" stroke="#04294f" stroke-linecap="round" stroke-miterlimit="10" stroke-width="3.204"/>
    <path id="Trazado_243364" data-name="Trazado 243364" d="M995.376,196.529l-5.868-1.132" transform="translate(180 1518)" fill="none" stroke="#04294f" stroke-linecap="round" stroke-miterlimit="10" stroke-width="3.204"/>
    <path id="Trazado_243365" data-name="Trazado 243365" d="M623.371,343.984a35.254,35.254,0,0,0,54.141-12.6,34.827,34.827,0,0,0-29.726-6.566C637.511,327.218,627.716,334.369,623.371,343.984Z" transform="translate(180 1518)" fill="none" stroke="#04294f" stroke-linecap="round" stroke-miterlimit="10" stroke-width="3.444"/>
    <path id="Trazado_243366" data-name="Trazado 243366" d="M625.067,343.721l37.8-8.351" transform="translate(180 1518)" fill="none" stroke="#04294f" stroke-linecap="round" stroke-miterlimit="10" stroke-width="3.444"/>
    <path id="Trazado_243367" data-name="Trazado 243367" d="M639.379,339.917l6.09-7.612" transform="translate(180 1518)" fill="none" stroke="#04294f" stroke-linecap="round" stroke-miterlimit="10" stroke-width="3.444"/>
    <path id="Trazado_243368" data-name="Trazado 243368" d="M658.565,342.808l-5.444-3.41" transform="translate(180 1518)" fill="none" stroke="#04294f" stroke-linecap="round" stroke-miterlimit="10" stroke-width="3.444"/>
  </g>
</svg>
