<svg xmlns="http://www.w3.org/2000/svg" width="715" height="402" viewBox="0 0 715 402">
  <g id="Grupo_243986" data-name="Grupo 243986" transform="translate(3115.5 9456.479)">
    <path id="Trazado_243410" data-name="Trazado 243410" d="M470.5,1108.522v-364q0-.933.091-1.863t.274-1.844q.182-.915.453-1.809t.628-1.755q.357-.862.8-1.685t.959-1.6q.519-.776,1.111-1.5t1.252-1.381q.66-.66,1.381-1.252t1.5-1.111q.777-.519,1.6-.959t1.686-.8q.862-.357,1.756-.628t1.808-.453q.916-.182,1.845-.274t1.862-.091h677q.933,0,1.862.091t1.845.274q.915.181,1.808.453t1.756.628q.862.357,1.685.8t1.6.959q.775.517,1.5,1.111t1.382,1.252q.66.66,1.252,1.381t1.111,1.5q.519.775.958,1.6t.8,1.685q.357.863.628,1.755t.453,1.809q.181.915.274,1.844t.091,1.863v364q0,.933-.091,1.862t-.274,1.845q-.183.915-.453,1.808t-.628,1.756q-.359.863-.8,1.685t-.958,1.6q-.519.775-1.111,1.5t-1.252,1.382q-.66.66-1.382,1.252t-1.5,1.111q-.777.519-1.6.958t-1.685.8q-.862.357-1.756.628t-1.808.453q-.917.181-1.845.273t-1.862.092h-677q-.933,0-1.862-.092t-1.845-.273q-.915-.183-1.808-.453t-1.756-.628q-.863-.359-1.686-.8t-1.6-.958q-.775-.519-1.5-1.111t-1.381-1.252q-.66-.66-1.252-1.382t-1.111-1.5q-.519-.777-.959-1.6t-.8-1.686q-.357-.862-.628-1.756t-.453-1.808q-.182-.916-.274-1.845t-.091-1.862" transform="translate(-3586 -10182)" fill="#fff"/>
    <path id="Trazado_243419" data-name="Trazado 243419" d="M685.424,852.4c-43.969-54.558-45.714-64.471-45.714-64.471s-1.745,9.913-45.715,64.471c0,0-46.918,46.918-22.811,98.76l.012,0a73.961,73.961,0,0,0,137.028,0l.011,0c24.107-51.842-22.811-98.76-22.811-98.76" transform="translate(-3586 -10182)" fill="#baeaff"/>
    <path id="Trazado_243420" data-name="Trazado 243420" d="M671.205,856.469c-43.716-54.244-45.451-64.1-45.451-64.1s-1.736,9.856-45.452,64.1c0,0-46.648,46.649-22.68,98.192l.012-.005a73.536,73.536,0,0,0,136.24,0l.011.005C717.853,903.118,671.205,856.469,671.205,856.469Z" transform="translate(-3586 -10182)" fill="none" stroke="#04294f" stroke-linecap="round" stroke-miterlimit="10" stroke-width="3.204"/>
    <path id="Trazado_243421" data-name="Trazado 243421" d="M625.754,973.3a52.268,52.268,0,0,1-52.268-52.268" transform="translate(-3586 -10182)" fill="none" stroke="#04294f" stroke-linecap="round" stroke-miterlimit="10" stroke-width="3.204"/>
    <path id="Trazado_243422" data-name="Trazado 243422" d="M887.236,850.782c-43.969-54.558-45.714-64.471-45.714-64.471s-1.745,9.913-45.715,64.471c0,0-46.918,46.918-22.811,98.76l.012-.005a73.96,73.96,0,0,0,137.028,0l.011.005c24.107-51.842-22.811-98.76-22.811-98.76" transform="translate(-3586 -10182)" fill="#b0e590"/>
    <path id="Trazado_243423" data-name="Trazado 243423" d="M873.018,854.851c-43.716-54.244-45.451-64.1-45.451-64.1s-1.736,9.856-45.452,64.1c0,0-46.648,46.649-22.68,98.192l.012-.005a73.536,73.536,0,0,0,136.24,0l.011.005C919.666,901.5,873.018,854.851,873.018,854.851Z" transform="translate(-3586 -10182)" fill="none" stroke="#04294f" stroke-linecap="round" stroke-miterlimit="10" stroke-width="3.204"/>
    <path id="Trazado_243424" data-name="Trazado 243424" d="M827.566,971.679A52.268,52.268,0,0,1,775.3,919.411" transform="translate(-3586 -10182)" fill="none" stroke="#04294f" stroke-linecap="round" stroke-miterlimit="10" stroke-width="3.204"/>
    <path id="Trazado_243425" data-name="Trazado 243425" d="M1089.048,853c-43.969-54.558-45.714-64.471-45.714-64.471s-1.745,9.913-45.715,64.471c0,0-46.918,46.918-22.811,98.76l.012-.005a73.961,73.961,0,0,0,137.028,0l.011.005c24.107-51.842-22.811-98.76-22.811-98.76" transform="translate(-3586 -10182)" fill="#c6c6c6"/>
    <path id="Trazado_243426" data-name="Trazado 243426" d="M1074.83,857.071c-43.716-54.244-45.451-64.1-45.451-64.1s-1.735,9.856-45.452,64.1c0,0-46.648,46.649-22.68,98.192l.012-.005a73.536,73.536,0,0,0,136.24,0l.011.005C1121.478,903.72,1074.83,857.071,1074.83,857.071Z" transform="translate(-3586 -10182)" fill="none" stroke="#04294f" stroke-linecap="round" stroke-miterlimit="10" stroke-width="3.204"/>
    <path id="Trazado_243427" data-name="Trazado 243427" d="M1029.379,973.9a52.268,52.268,0,0,1-52.268-52.268" transform="translate(-3586 -10182)" fill="none" stroke="#04294f" stroke-linecap="round" stroke-miterlimit="10" stroke-width="3.204"/>
    <text id="huella_" data-name="huella " transform="translate(-2982.23 -9287.147)" fill="#12263f" font-size="16" font-family="Roboto-Bold, Roboto" font-weight="700"><tspan x="0" y="0" letter-spacing="-0.024em">hu</tspan><tspan y="0" letter-spacing="-0.025em">ella</tspan><tspan y="0"> </tspan></text>
    <text id="hidríca_" data-name="hidríca " transform="translate(-2984.902 -9267.947)" fill="#12263f" font-size="16" font-family="Roboto-Bold, Roboto" font-weight="700"><tspan x="0" y="0" letter-spacing="-0.025em">hid</tspan><tspan y="0" letter-spacing="-0.024em">rí</tspan><tspan y="0" letter-spacing="-0.025em">ca</tspan><tspan y="0"> </tspan></text>
    <text id="Azul" transform="translate(-2975.75 -9248.748)" fill="#12263f" font-size="16" font-family="Roboto-Bold, Roboto" font-weight="700"><tspan x="0" y="0" letter-spacing="-0.019em">A</tspan><tspan y="0" letter-spacing="-0.024em">z</tspan><tspan y="0" letter-spacing="-0.025em">u</tspan><tspan y="0">l</tspan></text>
    <text id="Agua_dulce_" data-name="Agua dulce " transform="translate(-2998.758 -9146.092)" fill="#12263f" font-size="16" font-family="Roboto-Bold, Roboto" font-weight="700"><tspan x="0" y="0" letter-spacing="-0.024em">Ag</tspan><tspan y="0" letter-spacing="-0.025em">ua d</tspan><tspan y="0" letter-spacing="-0.024em">u</tspan><tspan y="0" letter-spacing="-0.025em">lce</tspan><tspan y="0"> </tspan></text>
    <text id="extraída" transform="translate(-2988.022 -9126.892)" fill="#12263f" font-size="16" font-family="Roboto-Bold, Roboto" font-weight="700"><tspan x="0" y="0" letter-spacing="-0.025em">e</tspan><tspan y="0" letter-spacing="-0.024em">xt</tspan><tspan y="0" letter-spacing="-0.039em">r</tspan><tspan y="0" letter-spacing="-0.025em">a</tspan><tspan y="0" letter-spacing="-0.024em">í</tspan><tspan y="0" letter-spacing="-0.025em">d</tspan><tspan y="0">a</tspan></text>
    <text id="Agua_de_" data-name="Agua de " transform="translate(-2786.342 -9146.508)" fill="#12263f" font-size="16" font-family="Roboto-Bold, Roboto" font-weight="700"><tspan x="0" y="0" letter-spacing="-0.024em">Ag</tspan><tspan y="0" letter-spacing="-0.025em">ua d</tspan><tspan y="0" letter-spacing="-0.024em">e</tspan><tspan y="0"> </tspan></text>
    <text id="lluvia" transform="translate(-2776.182 -9127.308)" fill="#12263f" font-size="16" font-family="Roboto-Bold, Roboto" font-weight="700"><tspan x="0" y="0" letter-spacing="-0.025em">lluvi</tspan><tspan y="0">a</tspan></text>
    <text id="Agua_dulce_para_" data-name="Agua dulce para " transform="translate(-2612.021 -9146.508)" fill="#12263f" font-size="16" font-family="Roboto-Bold, Roboto" font-weight="700"><tspan x="0" y="0" letter-spacing="-0.024em">Agu</tspan><tspan y="0" letter-spacing="-0.025em">a d</tspan><tspan y="0" letter-spacing="-0.024em">u</tspan><tspan y="0" letter-spacing="-0.025em">lce </tspan><tspan y="0" letter-spacing="-0.024em">p</tspan><tspan y="0" letter-spacing="-0.025em">a</tspan><tspan y="0" letter-spacing="-0.039em">r</tspan><tspan y="0" letter-spacing="-0.025em">a</tspan><tspan y="0"> </tspan></text>
    <text id="diluir_" data-name="diluir " transform="translate(-2573.91 -9127.308)" fill="#12263f" font-size="16" font-family="Roboto-Bold, Roboto" font-weight="700"><tspan x="0" y="0" letter-spacing="-0.025em">dil</tspan><tspan y="0" letter-spacing="-0.024em">u</tspan><tspan y="0" letter-spacing="-0.025em">i</tspan><tspan y="0" letter-spacing="-0.024em">r</tspan><tspan y="0"> </tspan></text>
    <text id="contaminación" transform="translate(-2607.526 -9108.107)" fill="#12263f" font-size="16" font-family="Roboto-Bold, Roboto" font-weight="700"><tspan x="0" y="0" letter-spacing="-0.025em">con</tspan><tspan y="0" letter-spacing="-0.024em">t</tspan><tspan y="0" letter-spacing="-0.025em">a</tspan><tspan y="0" letter-spacing="-0.024em">m</tspan><tspan y="0" letter-spacing="-0.025em">inació</tspan><tspan y="0">n</tspan></text>
    <text id="huella_2" data-name="huella " transform="translate(-2780.006 -9287.147)" fill="#12263f" font-size="16" font-family="Roboto-Bold, Roboto" font-weight="700"><tspan x="0" y="0" letter-spacing="-0.024em">hu</tspan><tspan y="0" letter-spacing="-0.025em">ella</tspan><tspan y="0"> </tspan></text>
    <text id="hidríca_2" data-name="hidríca " transform="translate(-2782.678 -9267.947)" fill="#12263f" font-size="16" font-family="Roboto-Bold, Roboto" font-weight="700"><tspan x="0" y="0" letter-spacing="-0.025em">hid</tspan><tspan y="0" letter-spacing="-0.024em">rí</tspan><tspan y="0" letter-spacing="-0.025em">ca</tspan><tspan y="0"> </tspan></text>
    <text id="verde" transform="translate(-2777.222 -9248.748)" fill="#12263f" font-size="16" font-family="Roboto-Bold, Roboto" font-weight="700"><tspan x="0" y="0" letter-spacing="-0.031em">v</tspan><tspan y="0" letter-spacing="-0.024em">e</tspan><tspan y="0" letter-spacing="-0.034em">r</tspan><tspan y="0" letter-spacing="-0.025em">d</tspan><tspan y="0">e</tspan></text>
    <text id="huella_3" data-name="huella " transform="translate(-2578.63 -9286.716)" fill="#12263f" font-size="16" font-family="Roboto-Bold, Roboto" font-weight="700"><tspan x="0" y="0" letter-spacing="-0.024em">hu</tspan><tspan y="0" letter-spacing="-0.025em">ella</tspan><tspan y="0"> </tspan></text>
    <text id="hidríca_3" data-name="hidríca " transform="translate(-2581.302 -9267.516)" fill="#12263f" font-size="16" font-family="Roboto-Bold, Roboto" font-weight="700"><tspan x="0" y="0" letter-spacing="-0.025em">hid</tspan><tspan y="0" letter-spacing="-0.024em">rí</tspan><tspan y="0" letter-spacing="-0.025em">ca</tspan><tspan y="0"> </tspan></text>
    <text id="Gris" transform="translate(-2570.646 -9248.316)" fill="#12263f" font-size="16" font-family="Roboto-Bold, Roboto" font-weight="700"><tspan x="0" y="0" letter-spacing="-0.025em">G</tspan><tspan y="0" letter-spacing="-0.024em">r</tspan><tspan y="0" letter-spacing="-0.025em">i</tspan><tspan y="0">s</tspan></text>
  </g>
</svg>
