<svg id="Grupo_243902" data-name="Grupo 243902" xmlns="http://www.w3.org/2000/svg" xmlns:xlink="http://www.w3.org/1999/xlink" width="338.076" height="414.232" viewBox="0 0 338.076 414.232">
  <defs>
    <clipPath id="clip-path">
      <rect id="Rectángulo_316728" data-name="Rectángulo 316728" width="338.076" height="414.232" fill="none"/>
    </clipPath>
    <clipPath id="clip-path-3">
      <rect id="Rectángulo_316724" data-name="Rectángulo 316724" width="59.928" height="85.296" transform="translate(250.033 284.916)" fill="none"/>
    </clipPath>
    <clipPath id="clip-path-4">
      <rect id="Rectángulo_316725" data-name="Rectángulo 316725" width="2.759" height="2.664" transform="translate(211.958 362.831)" fill="none"/>
    </clipPath>
    <clipPath id="clip-path-5">
      <rect id="Rectángulo_316726" data-name="Rectángulo 316726" width="71.517" height="75.643" transform="translate(266.559 253.911)" fill="none"/>
    </clipPath>
  </defs>
  <g id="Grupo_243901" data-name="Grupo 243901" clip-path="url(#clip-path)">
    <g id="Grupo_243900" data-name="Grupo 243900">
      <g id="Grupo_243899" data-name="Grupo 243899" clip-path="url(#clip-path)">
        <path id="Trazado_244833" data-name="Trazado 244833" d="M192.972,197.268c-14.262-43.684,8.007-82.325-7.5-137.1-9.522-33.621-58.839-43.592-58.839-43.592-60.337-3.934-71.113,38.317-77.2,76.8-2.865,18.1-27.8,85.173-30.727,112.445-3.135,27.218,11.651,33.931-8.6,57.18C5.95,267.778-.959,278.64.111,284.65s5.327,11.871,11.714,13.66c-6,8.11-4.229,19.716,2.581,27.279S32.1,336.977,42.811,337.56s21.368-1.749,31.6-4.714c35.228-10.207,68.045-28.528,91.6-54.49s43.059-43.274,26.961-81.088" fill="#1a2e35"/>
        <path id="Trazado_244834" data-name="Trazado 244834" d="M134.657,32.33l-3.775-3.6L90.09,45.172A11.387,11.387,0,0,0,79.337,56.2l5.22,79.311c-.051,9.013-.795,71.512-.795,71.512l8.859,13.654c13.062,17.246,39.934,15.827,50.276-3.175a14.528,14.528,0,0,0,1.442-3.437,26.986,26.986,0,0,0,.607-2.973c1.214-10.693,2.251-10.749,2.251-10.749.727-11.741,0-25.774,0-25.664,0,0,24.984-2.872,31.739-34.943,3.359-15.95,2.725-37.892,1.781-59.489C179.411,50.356,158.68,32.3,134.657,32.33" fill="#ffc19d"/>
        <path id="Trazado_244835" data-name="Trazado 244835" d="M131.427,103.253a4.151,4.151,0,0,1-4.208,3.983,3.971,3.971,0,0,1-4.086-3.952,4.152,4.152,0,0,1,4.2-3.985,3.972,3.972,0,0,1,4.092,3.954" fill="#1a2e35"/>
        <path id="Trazado_244836" data-name="Trazado 244836" d="M172.449,103.253a4.151,4.151,0,0,1-4.208,3.983,3.971,3.971,0,0,1-4.086-3.952,4.152,4.152,0,0,1,4.2-3.985,3.973,3.973,0,0,1,4.092,3.954" fill="#1a2e35"/>
        <path id="Trazado_244837" data-name="Trazado 244837" d="M176.452,88.785c-.541.516-3.566-1.965-8.028-2.178-4.454-.276-7.844,1.855-8.3,1.285-.226-.254.347-1.2,1.824-2.171a11.416,11.416,0,0,1,6.678-1.7,10.943,10.943,0,0,1,6.356,2.411c1.319,1.121,1.735,2.122,1.47,2.351" fill="#1a2e35"/>
        <path id="Trazado_244838" data-name="Trazado 244838" d="M131.176,89.248c-.593.456-3.35-2.323-7.764-2.991-4.4-.733-7.992,1.039-8.388.425-.2-.276.464-1.162,2.039-1.971a11.384,11.384,0,0,1,6.817-1,10.947,10.947,0,0,1,6.075,3.051c1.193,1.25,1.507,2.289,1.221,2.49" fill="#1a2e35"/>
        <path id="Trazado_244839" data-name="Trazado 244839" d="M146.762,121.725c-.008-.254,2.789-.594,7.312-.944,1.145-.061,2.235-.233,2.465-1,.31-.81-.1-2.061-.59-3.414q-1.4-4.216-2.935-8.845c-4.059-12.585-6.937-22.912-6.429-23.07s4.212,9.913,8.271,22.5q1.459,4.653,2.79,8.888c.367,1.317,1.034,2.823.367,4.5a2.867,2.867,0,0,1-1.957,1.572,7.726,7.726,0,0,1-1.949.171c-4.534.017-7.341-.1-7.345-.358" fill="#1a2e35"/>
        <path id="Trazado_244840" data-name="Trazado 244840" d="M147.2,174.675a82.351,82.351,0,0,1-42.717-13.719s10.471,22.987,42.979,21.583Z" fill="#ff9c6a"/>
        <path id="Trazado_244841" data-name="Trazado 244841" d="M144.337,132.383a8.047,8.047,0,0,0-7.057-3.347,7.348,7.348,0,0,0-5.205,2.465,4.655,4.655,0,0,0-.62,5.3c1.12,1.753,3.615,2.27,5.775,1.772a16.926,16.926,0,0,0,5.873-3.117,4.933,4.933,0,0,0,1.34-1.256,1.494,1.494,0,0,0,.077-1.661" fill="#ff9c6a"/>
        <path id="Trazado_244842" data-name="Trazado 244842" d="M133.478,124.153c.728-.006.494,4.837,4.467,8.482s9.154,3.371,9.158,4.05c.053.308-1.2.883-3.378.833a12.075,12.075,0,0,1-7.659-3.107,10.51,10.51,0,0,1-3.435-7.1c-.083-2.033.517-3.206.847-3.161" fill="#1a2e35"/>
        <path id="Trazado_244843" data-name="Trazado 244843" d="M135.447,71.856c-.619,1.134-4.941-.111-10.216-.281-5.274-.276-9.684.6-10.206-.582-.228-.562.673-1.58,2.541-2.483a17.767,17.767,0,0,1,15.559.657c1.784,1.058,2.6,2.148,2.322,2.689" fill="#1a2e35"/>
        <path id="Trazado_244844" data-name="Trazado 244844" d="M175.81,69.617c-.835.973-3.856-.231-7.55-.467-3.684-.364-6.86.339-7.526-.757-.291-.531.254-1.521,1.669-2.412a10.952,10.952,0,0,1,12.147.987c1.255,1.107,1.631,2.172,1.26,2.649" fill="#1a2e35"/>
        <path id="Trazado_244845" data-name="Trazado 244845" d="M80.152,112.918S103,120.03,115.934,63.633c4.421-19.285,27.085-32.185,27.085-32.185l-12.037-4.9S85.92,39.246,85.163,39.815,73.794,63.12,73.794,63.12Z" fill="#1a2e35"/>
        <path id="Trazado_244846" data-name="Trazado 244846" d="M90.155,110.817c.114-2.408-2.383-8.223-4.743-8.713-6.3-1.308-17.769-1.372-18.684,14.747-1.25,22.035,21.131,18.745,21.205,18.115.059-.492,1.825-15.835,2.222-24.149" fill="#ffc19d"/>
        <path id="Trazado_244847" data-name="Trazado 244847" d="M81.676,126.236c-.093-.076-.4.247-1.064.507a3.835,3.835,0,0,1-2.873-.1c-2.28-.985-4.03-4.793-3.911-8.769a12.677,12.677,0,0,1,1.386-5.436c.764-1.575,1.87-2.642,3.054-2.783a1.96,1.96,0,0,1,2.206,1.18c.261.634.1,1.066.21,1.109.058.059.494-.341.368-1.26a2.456,2.456,0,0,0-.789-1.431,2.9,2.9,0,0,0-2.091-.683c-1.706.023-3.324,1.5-4.2,3.191a13.051,13.051,0,0,0-1.679,6.066c-.111,4.448,1.926,8.732,5.059,9.833a4.119,4.119,0,0,0,3.544-.385c.713-.5.857-.991.783-1.035" fill="#ff9c6a"/>
        <path id="Trazado_244848" data-name="Trazado 244848" d="M90.159,110.655a32.169,32.169,0,0,0,3.3-.666,19.911,19.911,0,0,0,7.847-4.554,27.29,27.29,0,0,0,4.093-4.793,36.89,36.89,0,0,0,3.33-6.441c1.95-4.746,3.2-10.279,4.746-16.024s3.226-11.175,5.068-16a91.96,91.96,0,0,1,5.742-12.449,66.378,66.378,0,0,1,5.047-7.742c.651-.876,1.218-1.509,1.579-1.955a4.965,4.965,0,0,1,.588-.65,5.015,5.015,0,0,1-.5.724c-.331.469-.868,1.123-1.488,2.016a75.3,75.3,0,0,0-4.867,7.808,96.441,96.441,0,0,0-5.6,12.439c-1.806,4.814-3.463,10.227-5.007,15.963s-2.812,11.284-4.813,16.076a36.693,36.693,0,0,1-3.426,6.507,27.293,27.293,0,0,1-4.218,4.83,19.532,19.532,0,0,1-8.064,4.466,12.182,12.182,0,0,1-3.362.446" fill="#1a2e35"/>
        <path id="Trazado_244849" data-name="Trazado 244849" d="M168.981,224.9s-35.539-6.27-32.107,39.314c2.056,27.294,10.069,73.981,14.509,103.833,1.534,10.313,4.9,28.793,18.546,39.636l99.937-24.26.7-28.076-59.295-.072-13.725-82.27Z" fill="#1a2e35"/>
        <path id="Trazado_244850" data-name="Trazado 244850" d="M208.012,265.982c-4.928-9.653-16.216-25.038-20.332-30.8l-40.22-46.734c0,13.4-39.6,4.968-63.44-3.681,0,0-21.531,16.628-32.488,28.844C40.025,226.443,79.374,387.1,79.374,387.1,73.638,398.53,67.346,403.47,61.36,414.232H213.93l-.52-5.583-9.219-42.471,10.365-44.055c3.628-18.106,1.908-39.585-6.544-56.141" fill="#375a64"/>
        <path id="Trazado_244851" data-name="Trazado 244851" d="M337.867,310.114A73.663,73.663,0,0,1,264.2,383.777c-18.609,0-36.1-6.53-49.067-17.912-15.381-13.5-24.6-33.677-24.6-55.751a73.663,73.663,0,1,1,147.326,0" fill="#baeaff"/>
        <path id="Trazado_244852" data-name="Trazado 244852" d="M337.7,316.537c.086-.855.158-1.7.207-2.551q.093-1.346.135-2.685-.042,1.34-.135,2.685c-.049.85-.121,1.7-.207,2.551" fill="#1a2e35"/>
        <g id="Grupo_243892" data-name="Grupo 243892" opacity="0.3">
          <g id="Grupo_243891" data-name="Grupo 243891">
            <g id="Grupo_243890" data-name="Grupo 243890" clip-path="url(#clip-path-3)">
              <path id="Trazado_244853" data-name="Trazado 244853" d="M288.727,352.156c-2.364,2.425-3.381,5.839-4.537,9.041s-2.715,6.539-5.635,8.221-7.468.648-8.237-2.658c-.419-1.8.347-3.662.291-5.509-.074-2.4-1.52-4.535-1.938-6.9a18.16,18.16,0,0,1,.39-6.115c1.853-11.073,1.49-23.084-4.271-32.609a7.258,7.258,0,0,0-2.758-2.94,4.139,4.139,0,0,0-4.514.648c-.749.68-1.255,1.636-2.111,2.166-1.861,1.152-4.4-.439-5.076-2.533s-.074-4.379.529-6.505l2.244-7.911a6.99,6.99,0,0,1,1.957-3.74c1.583-1.258,3.9-.874,5.709-1.763,2.371-1.165,3.239-4.109,4.985-6.117s6-2.16,6.1.509c6.156-8.527,12.9,7.284,18.763,7.355,1.7.02,3.463-.466,5.069.1,2.835.993,3.693,4.565,4.127,7.587l2.16,15.048c.275,1.911.693,4.058,2.293,5.087,1.228.789,2.853.693,4.1,1.456,3.287,2.016,1.009,7.474-2.342,9.425s-7.671,2.747-9.737,6.066c-1.557,2.5-1.368,5.829-3,8.282-1.165,1.756-3.094,2.81-4.56,4.314" fill="#ff735d"/>
            </g>
          </g>
        </g>
        <path id="Trazado_244854" data-name="Trazado 244854" d="M288.727,352.156c-2.364,2.425-3.381,5.839-4.537,9.041s-2.715,6.539-5.635,8.221-7.468.648-8.237-2.658c-.419-1.8.347-3.662.291-5.509-.074-2.4-1.52-4.535-1.938-6.9a18.16,18.16,0,0,1,.39-6.115c1.853-11.073,1.49-23.084-4.271-32.609a7.258,7.258,0,0,0-2.758-2.94,4.139,4.139,0,0,0-4.514.648c-.749.68-1.255,1.636-2.111,2.166-1.861,1.152-4.4-.439-5.076-2.533s-.074-4.379.529-6.505l2.244-7.911a6.99,6.99,0,0,1,1.957-3.74c1.583-1.258,3.9-.874,5.709-1.763,2.371-1.165,3.239-4.109,4.985-6.117s6-2.16,6.1.509c6.156-8.527,12.9,7.284,18.763,7.355,1.7.02,3.463-.466,5.069.1,2.835.993,3.693,4.565,4.127,7.587l2.16,15.048c.275,1.911.693,4.058,2.293,5.087,1.228.789,2.853.693,4.1,1.456,3.287,2.016,1.009,7.474-2.342,9.425s-7.671,2.747-9.737,6.066c-1.557,2.5-1.368,5.829-3,8.282-1.165,1.756-3.094,2.81-4.56,4.314" fill="#00574f"/>
        <path id="Trazado_244855" data-name="Trazado 244855" d="M301.585,357.875c-1.2-.064-2.458-.922-3.5-.308a3.988,3.988,0,0,0-1.209,1.719,4.1,4.1,0,0,1-2.106,1.971,2.486,2.486,0,0,1-2.685-.583,1.918,1.918,0,0,1,.138-2.645,13.106,13.106,0,0,1,1.172-.639c1.842-1.183,1.329-4.154,2.855-5.692.9-.907,2.2-1.751,3.172-2.658.747-.7,1.089-1.3,2.209-1.3,4.9-.012,5.053,10.412-.046,10.139" fill="#00574f"/>
        <g id="Grupo_243895" data-name="Grupo 243895" opacity="0.3">
          <g id="Grupo_243894" data-name="Grupo 243894">
            <g id="Grupo_243893" data-name="Grupo 243893" clip-path="url(#clip-path-4)">
              <path id="Trazado_244856" data-name="Trazado 244856" d="M211.958,362.83q.788.809,1.605,1.588c.379.366.761.72,1.154,1.076-.393-.356-.775-.71-1.154-1.076q-.817-.78-1.605-1.588" fill="#1a2e35"/>
            </g>
          </g>
        </g>
        <path id="Trazado_244857" data-name="Trazado 244857" d="M336.785,322.886q.306-1.591.532-3.177-.227,1.587-.532,3.177c-.044.343-.111.682-.178,1.02-.322,1.631-.7,3.229-1.108,4.82.41-1.591.786-3.189,1.108-4.82.067-.338.134-.677.178-1.02" fill="#1a2e35"/>
        <path id="Trazado_244858" data-name="Trazado 244858" d="M337.153,297.277q.238,1.5.414,3.009-.175-1.509-.414-3.009s.014-.01,0-.012h0Z" fill="#1a2e35"/>
        <g id="Grupo_243898" data-name="Grupo 243898" opacity="0.3">
          <g id="Grupo_243897" data-name="Grupo 243897">
            <g id="Grupo_243896" data-name="Grupo 243896" clip-path="url(#clip-path-5)">
              <path id="Trazado_244859" data-name="Trazado 244859" d="M336.785,322.886q.306-1.591.532-3.177t.379-3.173c.086-.854.158-1.7.207-2.55q.093-1.344.135-2.686a74.152,74.152,0,0,0-.177-7.984q-.118-1.523-.294-3.031t-.414-3.009l0-.01h0c-.228-.772-.48-1.536-.77-2.3-2.735-7.276-7.565-13.514-10.756-20.588-1.043-2.3-1.835-4.192-4.308-5.094-3.658-1.341-6,.474-7.959-3.705-.527-1.123-1.606-2.28-2.786-1.908.12.835.252,1.673.37,2.52a1.166,1.166,0,0,1-.01.532c-.166.535-1,.529-1.394.136a4.861,4.861,0,0,1-.747-1.517,3.732,3.732,0,0,0-5.346-1.53,2.16,2.16,0,0,0-.86-1.963,2.53,2.53,0,0,1-3.516,1.424c-.077-.754,1.2-.636,1.751-1.155.513-.492.189-1.38-.231-1.96a8.006,8.006,0,0,0-4.588-2.954c-1.151-.252-2.443-.278-3.33-1.084-.514-.464-.811-1.129-1.339-1.584-1.125-.987-2.849-.625-4.274-.155-1.947.644-4,1.534-5,3.359s-.147,4.708,1.893,4.857a3.9,3.9,0,0,1,1.557.126,1.919,1.919,0,0,1,.734,2,5.458,5.458,0,0,0-.1,2.245c.215.72,1.191,1.254,1.714.715,1.118-.724,1.306-2.274,1.322-3.616s.052-2.849,1.017-3.759,3.084-.142,2.677,1.134c-.244.752-1.213,1.142-1.333,1.929s.744,1.408,1.529,1.526a8.428,8.428,0,0,1,2.346.344c.73.337,1.136,1.472.474,1.934-1.167.909-3.267-1.457-4.029-.19-.207.322-.148.746-.256,1.112-.317,1.125-1.808,1.266-2.957,1.184a6.2,6.2,0,0,1-3.282-.9,2.213,2.213,0,0,1-.572-3.057,1.288,1.288,0,0,0-1.88.306,3.881,3.881,0,0,0-.546,2.1c-1.136-.5-2.4.311-3.28,1.192s-1.776,1.951-3,2.084-2.744-.676-3.562.276c-1.067,1.243.872,3.468-.2,4.7-.612.691-1.706.45-2.624.523-2.432.209-3.91,3.479-2.7,5.619a4.528,4.528,0,0,0,6.367,1.235c1.394-.972,2.2-2.57,3.318-3.85s2.957-2.262,4.444-1.484a4.923,4.923,0,0,1,1.429,1.372q.955,1.206,1.91,2.425a2.172,2.172,0,0,1,.668,1.793c-.149.515-.63.844-.9,1.3-.759,1.316.978,3.053,2.389,2.531a2.9,2.9,0,0,0,1.319-3.846c-.858-1.914-3.381-3.284-2.9-5.347,1.6-.871,3.524.759,4.005,2.538s.128,3.682.473,5.484,1.938,3.667,3.679,3.162c-.126-1.527-.243-3.041-.371-4.555,1.159-.571,1.872,1.9,3.147,1.76.779-.087,1.082-1.141.9-1.928a10.41,10.41,0,0,1-.6-2.311,2.42,2.42,0,0,1,3.221-1.919,3.689,3.689,0,0,1,2.083,3.536,6.933,6.933,0,0,0,.037,1.741c.3,1.223,1.6,1.83,2.629,2.518s1.979,2.075,1.284,3.125c-.316.458-.926.834-.844,1.384.082.489.706.819.609,1.308-.076.323-.451.479-.774.549-.818.165-1.662.107-2.466.324a2.164,2.164,0,0,0-1.713,1.625c-.139,1.183,1.112,2.012,1.562,3.106.435,1.044.1,2.249.284,3.375a11.7,11.7,0,0,0,1.222,2.9c1.379,3.011,1.154,6.49,1.463,9.8.133,1.493.577,3.216,1.943,3.764a4.341,4.341,0,0,0,2.379,0c2.211-.421,4.515-.887,6.28-2.294s2.806-4.085,1.659-6.044a1.184,1.184,0,0,0-.608-.594,2.123,2.123,0,0,0-1.152.173,3.084,3.084,0,0,1-3.054-1.331,9.364,9.364,0,0,1-1.325-3.278c-.333-1.265-.663-2.542-1.005-3.821a2.008,2.008,0,0,1,2.4.716,13.806,13.806,0,0,1,1.256,2.429c1.276,2.507,3.891,4.016,6.538,4.879a6.921,6.921,0,0,1,1.951.834c1.839,1.346,1.821,4.505,3.832,5.58a13.667,13.667,0,0,1,1.736.779,3.485,3.485,0,0,1,1.066,2.61,38.151,38.151,0,0,0,.319,5.417c.376,1.772,1.513,3.535,3.248,3.9a4.2,4.2,0,0,0,3.167-.741l0-.012c.41-1.591.786-3.189,1.108-4.82.067-.338.134-.677.178-1.02" fill="#ff735d"/>
            </g>
          </g>
        </g>
        <path id="Trazado_244860" data-name="Trazado 244860" d="M336.785,322.886q.306-1.591.532-3.177t.379-3.173c.086-.854.158-1.7.207-2.55q.093-1.344.135-2.686a74.152,74.152,0,0,0-.177-7.984q-.118-1.523-.294-3.031t-.414-3.009l0-.01h0c-.228-.772-.48-1.536-.77-2.3-2.735-7.276-7.565-13.514-10.756-20.588-1.043-2.3-1.835-4.192-4.308-5.094-3.658-1.341-6,.474-7.959-3.705-.527-1.123-1.606-2.28-2.786-1.908.12.835.252,1.673.37,2.52a1.166,1.166,0,0,1-.01.532c-.166.535-1,.529-1.394.136a4.861,4.861,0,0,1-.747-1.517,3.732,3.732,0,0,0-5.346-1.53,2.16,2.16,0,0,0-.86-1.963,2.53,2.53,0,0,1-3.516,1.424c-.077-.754,1.2-.636,1.751-1.155.513-.492.189-1.38-.231-1.96a8.006,8.006,0,0,0-4.588-2.954c-1.151-.252-2.443-.278-3.33-1.084-.514-.464-.811-1.129-1.339-1.584-1.125-.987-2.849-.625-4.274-.155-1.947.644-4,1.534-5,3.359s-.147,4.708,1.893,4.857a3.9,3.9,0,0,1,1.557.126,1.919,1.919,0,0,1,.734,2,5.458,5.458,0,0,0-.1,2.245c.215.72,1.191,1.254,1.714.715,1.118-.724,1.306-2.274,1.322-3.616s.052-2.849,1.017-3.759,3.084-.142,2.677,1.134c-.244.752-1.213,1.142-1.333,1.929s.744,1.408,1.529,1.526a8.428,8.428,0,0,1,2.346.344c.73.337,1.136,1.472.474,1.934-1.167.909-3.267-1.457-4.029-.19-.207.322-.148.746-.256,1.112-.317,1.125-1.808,1.266-2.957,1.184a6.2,6.2,0,0,1-3.282-.9,2.213,2.213,0,0,1-.572-3.057,1.288,1.288,0,0,0-1.88.306,3.881,3.881,0,0,0-.546,2.1c-1.136-.5-2.4.311-3.28,1.192s-1.776,1.951-3,2.084-2.744-.676-3.562.276c-1.067,1.243.872,3.468-.2,4.7-.612.691-1.706.45-2.624.523-2.432.209-3.91,3.479-2.7,5.619a4.528,4.528,0,0,0,6.367,1.235c1.394-.972,2.2-2.57,3.318-3.85s2.957-2.262,4.444-1.484a4.923,4.923,0,0,1,1.429,1.372q.955,1.206,1.91,2.425a2.172,2.172,0,0,1,.668,1.793c-.149.515-.63.844-.9,1.3-.759,1.316.978,3.053,2.389,2.531a2.9,2.9,0,0,0,1.319-3.846c-.858-1.914-3.381-3.284-2.9-5.347,1.6-.871,3.524.759,4.005,2.538s.128,3.682.473,5.484,1.938,3.667,3.679,3.162c-.126-1.527-.243-3.041-.371-4.555,1.159-.571,1.872,1.9,3.147,1.76.779-.087,1.082-1.141.9-1.928a10.41,10.41,0,0,1-.6-2.311,2.42,2.42,0,0,1,3.221-1.919,3.689,3.689,0,0,1,2.083,3.536,6.933,6.933,0,0,0,.037,1.741c.3,1.223,1.6,1.83,2.629,2.518s1.979,2.075,1.284,3.125c-.316.458-.926.834-.844,1.384.082.489.706.819.609,1.308-.076.323-.451.479-.774.549-.818.165-1.662.107-2.466.324a2.164,2.164,0,0,0-1.713,1.625c-.139,1.183,1.112,2.012,1.562,3.106.435,1.044.1,2.249.284,3.375a11.7,11.7,0,0,0,1.222,2.9c1.379,3.011,1.154,6.49,1.463,9.8.133,1.493.577,3.216,1.943,3.764a4.341,4.341,0,0,0,2.379,0c2.211-.421,4.515-.887,6.28-2.294s2.806-4.085,1.659-6.044a1.184,1.184,0,0,0-.608-.594,2.123,2.123,0,0,0-1.152.173,3.084,3.084,0,0,1-3.054-1.331,9.364,9.364,0,0,1-1.325-3.278c-.333-1.265-.663-2.542-1.005-3.821a2.008,2.008,0,0,1,2.4.716,13.806,13.806,0,0,1,1.256,2.429c1.276,2.507,3.891,4.016,6.538,4.879a6.921,6.921,0,0,1,1.951.834c1.839,1.346,1.821,4.505,3.832,5.58a13.667,13.667,0,0,1,1.736.779,3.485,3.485,0,0,1,1.066,2.61,38.151,38.151,0,0,0,.319,5.417c.376,1.772,1.513,3.535,3.248,3.9a4.2,4.2,0,0,0,3.167-.741l0-.012c.41-1.591.786-3.189,1.108-4.82.067-.338.134-.677.178-1.02" fill="#00574f"/>
        <path id="Trazado_244861" data-name="Trazado 244861" d="M257.8,251.812c-1.605.589-2.693,2.085-4.05,3.141s-3.52,1.572-4.615.254a3.16,3.16,0,0,1-.552-2.362,5.747,5.747,0,0,1,1.446-3.221c.828-.911,1.939-1.537,2.681-2.52s.95-2.6-.03-3.322c-.529-.392-1.286-.429-1.728-.921-.793-.884.2-2.406,1.366-2.609s2.3.358,3.444.661c4.138,1.1,7.773-1.085,11.383-2.784,2.808-1.322,8.45-2.423,10.922-.016.986.96,1.053,2.94-.177,3.561-.551.278-1.225.231-1.751.555-.63.389-.866,1.186-1.3,1.791-1.135,1.571-3.547,1.746-4.631,3.355-.652.968-.712,2.321-1.576,3.1a4,4,0,0,1-2.587.725l-5.728.243a8.257,8.257,0,0,0-2.514.369" fill="#00574f"/>
        <path id="Trazado_244862" data-name="Trazado 244862" d="M200.8,274.755c1.583-.91,3.945-.589,4.7,1.086.537,1.2.081,2.6-.367,3.841q-.906,2.51-1.825,5.017a2.8,2.8,0,0,0-.238,1.565c.287,1.2,2.091,1.334,2.96.488a4.954,4.954,0,0,0,1.117-3.425,6.906,6.906,0,0,1,.742-3.573c1.693-2.548,5.673-1.325,8.388-2.666,1.686-.829,2.709-2.577,3.9-4.049s2.973-2.828,4.788-2.384c.613.145,1.174.5,1.8.6,1.82.3,3.4-2.186,2.382-3.745a4.65,4.65,0,0,1-.635-1,1.574,1.574,0,0,1,.934-1.717,4.312,4.312,0,0,1,2.047-.249c1.6.049,3.189.109,4.782.17,1.758.069,4.121-.4,4.224-2.181.092-1.544-1.777-2.617-1.779-4.168a5.13,5.13,0,0,0,.022-1.134c-.28-1.049-1.764-.942-2.769-.608a2.264,2.264,0,0,0-3.18-1.78c-1.068.588-1.449,1.918-2,3.009-1.309,2.648-3.914,4.338-6.386,5.9a4.248,4.248,0,0,1-2.714.917c-.96-.141-1.75-1.375-1.147-2.14.413-.525,1.3-.7,1.353-1.368.047-.839-1.361-1.057-1.481-1.892,1.006-2.2,3.793-2.642,6.028-3.484a12.87,12.87,0,0,0,6.553-5.537,1.729,1.729,0,0,0,.336-1.339c-.182-.641-.93-.886-1.583-1.015-1.528-.327-3.481-.5-4.33.851a18.024,18.024,0,0,0-.754,2.432c-1.018,2.318-4.332,1.941-6.609,2.993a18.552,18.552,0,0,1-2.593,1.329,8.484,8.484,0,0,1-3.143-.1c-.186-.025-.373-.037-.561-.05q-1.209,1.15-2.36,2.365t-2.248,2.477a75,75,0,0,0-9.089,13.007q-1.357,2.448-2.536,5.019t-2.172,5.256a21.454,21.454,0,0,0,2.223-4.383,8.73,8.73,0,0,1,3.222-4.329" fill="#00574f"/>
        <path id="Trazado_244863" data-name="Trazado 244863" d="M208.5,359.044l.011,0c.615.74,1.248,1.447,1.9,2.144q.764.832,1.55,1.64t1.605,1.588c.379.366.761.72,1.154,1.077-.032-.14-.066-.268-.1-.408-.887-3.87.036-9.018,3.806-10.1a7.951,7.951,0,0,0,2.139-.655c1.813-1.168,1.165-4.446,2.977-5.614,1.02-.647,2.347-.323,3.508-.6,2.089-.519,3.2-2.892,3.476-5.067s-.006-4.422.657-6.508c1.016-3.155,4.136-5.942,3.293-9.137-.947-3.568-5.685-3.96-8.659-6.062-4.15-2.941-4.419-8.979-6.59-13.636-1.946-4.165-7.381-9.4-12.335-9.236a5.958,5.958,0,0,0-6.043,4.463c-.144-.053-.277-.1-.421-.156-1.243-.392-2.717-.756-3.2-1.966-.566-1.408.6-3.1.008-4.493-.308-.727-1.008-1.156-1.536-1.733s-.89-1.509-.379-2.111c.422-.51,1.246-.468,1.75-.913a1.231,1.231,0,0,0,.266-1.462c-.994-1.832-3.081,1.087-3.952,1.7a6.332,6.332,0,0,1-.694.444l0,.012c-.039.137-.076.263-.1.4-.1.434-.191.882-.286,1.325s-.2.881-.285,1.324c-.072.362-.131.721-.2,1.082s-.138.724-.2,1.082c-.035.175-.067.338-.091.515a76.068,76.068,0,0,0-.023,24.285,72.509,72.509,0,0,0,2.509,10.527c.444,1.481.961,2.952,1.518,4.407.691,1.8,1.435,3.567,2.27,5.3.767,1.654,1.61,3.286,2.521,4.871a73.641,73.641,0,0,0,4.054,6.375q1.937,2.745,4.125,5.3" fill="#00574f"/>
        <path id="Trazado_244864" data-name="Trazado 244864" d="M220.709,378.379s25.073,14.691,27.184,16.1,5.815,4.511,13.283,3.983c5.847-.414,18.973-1.969,21.495-3.294,2.093-1.1,15.25-12.073,19.675-15.782a2.706,2.706,0,0,0,.594-3.456,4.326,4.326,0,0,0-3.148-2.23c-4.036-.558-5.78.906-8.558,3.169-2.236,1.821-5.871,4.38-7.035,5.273s-4.68,1.382-4.68,1.382l-29.137-2.856s-21.927-7.917-22.008-7.511-7.665,5.222-7.665,5.222" fill="#ffc19d"/>
        <path id="Trazado_244865" data-name="Trazado 244865" d="M179.356,358.621l42.281-.815c6.893-1.424,11.2-2.65,17,.982s16.544,14.561,21.054,15.818,13.568.443,17.532,4.618c3.108,3.275.936,7.724-3.39,8.691-6.805,1.522-21.805-4.46-21.805-4.46s-1.771.063-5.027.469a63.971,63.971,0,0,1-9.835-.209,45.7,45.7,0,0,0-11.765,1.338c-5.872,1.3-32.844,7.479-32.844,7.479Z" fill="#ffc19d"/>
        <path id="Trazado_244866" data-name="Trazado 244866" d="M272.946,377.044a1.567,1.567,0,0,1,.469-.021,4.731,4.731,0,0,1,1.317.285,7.151,7.151,0,0,1,3.658,3.26,4.456,4.456,0,0,1,.521,1.6,4.521,4.521,0,0,1-.273,1.814,6.455,6.455,0,0,1-2.455,3.1,8.914,8.914,0,0,1-4.125,1.427,18.139,18.139,0,0,1-4.653-.2,48.908,48.908,0,0,1-8.6-2.393c-2.577-.917-4.888-1.745-6.872-2.3a33.142,33.142,0,0,0-4.763-1.005,15.718,15.718,0,0,1-1.78-.218,1.555,1.555,0,0,1,.465-.027c.3.008.758-.01,1.336.044a27.861,27.861,0,0,1,4.838.851c2.013.512,4.352,1.311,6.933,2.2a51.2,51.2,0,0,0,8.522,2.331,17.953,17.953,0,0,0,4.52.2,8.494,8.494,0,0,0,3.907-1.315c2.191-1.441,3.279-4.194,2.151-5.956a7.156,7.156,0,0,0-3.406-3.24,8.176,8.176,0,0,0-1.711-.453" fill="#ff9c6a"/>
        <path id="Trazado_244867" data-name="Trazado 244867" d="M64.981,206.665a43.671,43.671,0,0,0-22.825,17.143c-6.98,10.726-9.107,29.431-7.121,43.13,4.221,29.125,17.592,78.328,25.1,109.9.584,2.461,1.307,5.355,2.254,8.485,3.811,12.584,15.432,22.021,29.6,26.394a59.388,59.388,0,0,0,30.384,1L212.342,392,199.1,351.618l-79.488,1.3-16.5-108.291Z" fill="#375a64"/>
        <path id="Trazado_244868" data-name="Trazado 244868" d="M105.058,371.359a3.265,3.265,0,0,1,.338-.885c.246-.557.64-1.345,1.163-2.3a49.39,49.39,0,0,1,10.613-13.2c.821-.715,1.5-1.27,2-1.629a3.352,3.352,0,0,1,.793-.521c.05.065-.972.933-2.539,2.422a61.892,61.892,0,0,0-10.543,13.114c-1.119,1.85-1.746,3.037-1.82,3" fill="#1a2e35"/>
        <path id="Trazado_244869" data-name="Trazado 244869" d="M91.015,235.082a10.363,10.363,0,0,1-1.157-1.2c-.352-.4-.792-.886-1.343-1.409s-1.13-1.165-1.862-1.778c-.71-.638-1.491-1.331-2.39-2-.863-.716-1.864-1.377-2.9-2.1a49.314,49.314,0,0,0-7.209-3.877,49.245,49.245,0,0,0-7.795-2.5c-1.236-.245-2.406-.507-3.521-.632-1.108-.181-2.149-.263-3.1-.332-.95-.1-1.815-.082-2.573-.108s-1.412-.015-1.946.01a10.122,10.122,0,0,1-1.667,0,10.356,10.356,0,0,1,1.656-.2,17.278,17.278,0,0,1,1.956-.1c.763,0,1.635-.047,2.6.032.962.045,2.015.107,3.137.271,1.129.108,2.314.356,3.567.591a46.9,46.9,0,0,1,7.9,2.494,46.8,46.8,0,0,1,7.271,3.957c1.038.739,2.039,1.42,2.9,2.158.9.694,1.671,1.41,2.371,2.071.723.637,1.295,1.3,1.823,1.848a17.366,17.366,0,0,1,1.285,1.477,10.22,10.22,0,0,1,1,1.333" fill="#1a2e35"/>
        <path id="Trazado_244870" data-name="Trazado 244870" d="M61.36,381.723s.094.272.255.808l.715,2.383a41.674,41.674,0,0,0,4.1,8.637,30.025,30.025,0,0,0,1.894,2.7,36.138,36.138,0,0,0,2.351,2.778,40.84,40.84,0,0,0,6.28,5.357,51.907,51.907,0,0,0,18.6,7.669,74.154,74.154,0,0,0,11.706,1.561,43.222,43.222,0,0,0,12.758-.77c8.726-1.788,18.037-3.928,27.871-6.156,19.664-4.489,41.391-9.544,64.394-14.943l-.187.333c-2-6.109-4.126-12.582-6.276-19.138L198.857,351.7l.25.177-79.489,1.266-.191,0-.029-.189c-3.873-25.676-7.086-46.98-9.335-61.88-1.107-7.438-1.974-13.275-2.569-17.266l-.66-4.543c-.145-1.028-.2-1.561-.2-1.561s.1.526.269,1.551.409,2.555.724,4.533c.621,3.987,1.531,9.818,2.688,17.248,2.292,14.893,5.569,36.188,9.518,61.852l-.22-.186L199.1,351.36l.191,0,.061.181c2.276,6.942,4.6,14.042,6.964,21.241,2.15,6.556,4.271,13.029,6.275,19.139l.087.268-.274.064c-23.007,5.392-44.738,10.429-64.41,14.89-9.841,2.215-19.151,4.338-27.9,6.109a43.528,43.528,0,0,1-12.858.748,74.367,74.367,0,0,1-11.759-1.6A52.061,52.061,0,0,1,76.8,404.611a40.839,40.839,0,0,1-6.294-5.423,35.5,35.5,0,0,1-2.349-2.81,29.769,29.769,0,0,1-1.887-2.726,40.566,40.566,0,0,1-4.036-8.707c-.311-1.051-.52-1.861-.67-2.4s-.207-.821-.207-.821" fill="#1a2e35"/>
        <path id="Trazado_244871" data-name="Trazado 244871" d="M90.264,158.024c-2.751-7.269-5.835-14.556-6.508-22.226l-37.11,71.961c3.553-4.825,10.579-6.228,16.917-6.428s12.974.352,18.746-2.061c7.626-3.188,11.949-11.048,12.564-18.722s-1.858-15.255-4.609-22.524" fill="#1a2e35"/>
        <path id="Trazado_244872" data-name="Trazado 244872" d="M52.956,203.41a1.326,1.326,0,0,1,.285.022l.828.116c.763.119,1.826.283,3.175.494L68.9,205.951c2.461.4,5.15.893,8.06,1.121a23.345,23.345,0,0,0,9.168-.858,16.358,16.358,0,0,0,7.987-6.06,23.855,23.855,0,0,0,3.956-10.142,30.9,30.9,0,0,0-.547-10.946,61.027,61.027,0,0,0-3.151-9.8c-2.5-6.088-5.177-11.411-6.89-16.114A47.094,47.094,0,0,1,84.553,141.7a28.79,28.79,0,0,1-.185-3.212c.007-.344.012-.62.016-.837a1.125,1.125,0,0,1,.023-.284,1.17,1.17,0,0,1,.03.285c.01.216.021.491.036.834.03.731.1,1.812.282,3.19a49.072,49.072,0,0,0,3.075,11.342c1.749,4.664,4.457,9.957,6.99,16.065a60.65,60.65,0,0,1,3.206,9.871,31.274,31.274,0,0,1,.564,11.131,24.283,24.283,0,0,1-4.058,10.362,16.78,16.78,0,0,1-8.249,6.218,23.661,23.661,0,0,1-9.354.834c-2.939-.25-5.632-.763-8.088-1.189-4.882-.871-8.846-1.576-11.632-2.074-1.342-.25-2.4-.448-3.158-.588-.336-.069-.6-.123-.819-.168a1.08,1.08,0,0,1-.276-.074" fill="#1a2e35"/>
        <path id="Trazado_244873" data-name="Trazado 244873" d="M193.521,229.994c-.028-.03.5-.43,1.315-1.37a15.643,15.643,0,0,0,2.734-4.662,22.311,22.311,0,0,0,1.376-8.424A51.374,51.374,0,0,0,197.14,204.3c-.494-2.059-1.082-4.2-1.53-6.479l-.716-3.472q-.3-1.782-.6-3.629a154.787,154.787,0,0,1-1.538-15.855c-.539-11.217.035-23.554.733-36.463.341-6.46.677-12.766.835-18.858s.126-11.973-.137-17.564a134.5,134.5,0,0,0-4.372-29.346A86.926,86.926,0,0,0,182.4,54.064c-1.092-2.1-2.1-3.639-2.766-4.7-.318-.516-.566-.917-.746-1.208-.165-.274-.239-.422-.239-.422s.1.128.283.392l.79,1.181a52.632,52.632,0,0,1,2.855,4.655,84.622,84.622,0,0,1,7.584,18.571,132.949,132.949,0,0,1,4.5,29.421c.277,5.605.321,11.5.168,17.6s-.484,12.412-.825,18.872c-.7,12.91-1.284,25.226-.773,36.415a156.373,156.373,0,0,0,1.485,15.811q.3,1.841.588,3.619.355,1.764.7,3.462c.435,2.268,1.012,4.412,1.495,6.477a51.092,51.092,0,0,1,1.739,11.318,22.28,22.28,0,0,1-1.478,8.5,15.24,15.24,0,0,1-2.844,4.658,10.986,10.986,0,0,1-1.02.993c-.242.21-.374.307-.374.307" fill="#1a2e35"/>
        <path id="Trazado_244874" data-name="Trazado 244874" d="M41.44,209.279s.1-.158.3-.448.524-.732.919-1.282a21.924,21.924,0,0,0,1.434-2.121l.851-1.395.47-.77.438-.853c.587-1.176,1.3-2.453,1.881-3.947.3-.741.656-1.5.95-2.314s.577-1.672.881-2.555a74.911,74.911,0,0,0,2.779-12.361,121.214,121.214,0,0,0-.594-32.93c-.791-6.168-2.4-12.525-3.155-19.294a41.031,41.031,0,0,1,.021-10.374,27.367,27.367,0,0,1,1.241-5.182,30.853,30.853,0,0,1,2.28-4.893c3.663-6.3,9.016-11.092,14.145-15.485,5.2-4.352,10.162-8.6,14.726-12.84A319.35,319.35,0,0,0,104.09,56.562c6.224-7.068,10.928-13.073,14.137-17.248,1.6-2.09,2.824-3.73,3.647-4.846.409-.542.723-.961.95-1.261.215-.283.337-.42.337-.42s-.093.158-.294.451c-.217.307-.518.737-.908,1.291-.8,1.137-1.991,2.8-3.571,4.907-3.16,4.216-7.825,10.261-14.021,17.369A311.387,311.387,0,0,1,81.332,80.587C76.775,84.84,71.8,89.112,66.611,93.464c-5.116,4.389-10.42,9.151-14.024,15.356a30.52,30.52,0,0,0-2.241,4.806,26.907,26.907,0,0,0-1.219,5.083,40.625,40.625,0,0,0-.025,10.246c.735,6.716,2.34,13.086,3.122,19.281a120.423,120.423,0,0,1,.484,33.048,74.3,74.3,0,0,1-2.868,12.4l-.9,2.56c-.3.818-.666,1.575-.975,2.316a43.312,43.312,0,0,1-1.931,3.946l-.45.85q-.248.4-.482.767-.468.743-.875,1.388a20.583,20.583,0,0,1-1.479,2.1l-.963,1.253c-.219.28-.341.415-.341.415" fill="#375a64"/>
      </g>
    </g>
  </g>
</svg>
