<svg xmlns="http://www.w3.org/2000/svg" xmlns:xlink="http://www.w3.org/1999/xlink" width="535" height="727.28" viewBox="0 0 535 727.28">
  <defs>
    <clipPath id="clip-path">
      <rect id="Rectángulo_316113" data-name="Rectángulo 316113" width="459.749" height="727.28" fill="none"/>
    </clipPath>
    <clipPath id="clip-path-3">
      <rect id="Rectángulo_316108" data-name="Rectángulo 316108" width="276.924" height="194.746" transform="translate(100.593 192.828)" fill="none"/>
    </clipPath>
    <clipPath id="clip-path-4">
      <rect id="Rectángulo_316109" data-name="Rectángulo 316109" width="151.087" height="83.2" transform="translate(208.934 304.378)" fill="none"/>
    </clipPath>
    <clipPath id="clip-path-5">
      <rect id="Rectángulo_316110" data-name="Rectángulo 316110" width="295.284" height="290.885" transform="translate(82.233 92.936)" fill="none"/>
    </clipPath>
    <clipPath id="clip-path-7">
      <rect id="Rectángulo_316114" data-name="Rectángulo 316114" width="280.957" height="73.604" transform="translate(0 0)" fill="none"/>
    </clipPath>
  </defs>
  <g id="Grupo_243993" data-name="Grupo 243993" transform="translate(-570 -505)">
    <g id="Grupo_242716" data-name="Grupo 242716" transform="translate(570 505)">
      <g id="Grupo_242715" data-name="Grupo 242715" clip-path="url(#clip-path)">
        <g id="Grupo_242712" data-name="Grupo 242712">
          <g id="Grupo_242711" data-name="Grupo 242711" clip-path="url(#clip-path)">
            <path id="Trazado_243012" data-name="Trazado 243012" d="M285.431,174.025c0-.1-.009-.206,0-.314l-.008.139c0,.044.008.118.011.175" fill="#baeaff"/>
            <path id="Trazado_243013" data-name="Trazado 243013" d="M285.467,174.531c.006.038.013.07.02.11-.029-.256-.047-.459-.056-.616,0,.078,0,.161,0,.237Z" fill="#baeaff"/>
            <path id="Trazado_243014" data-name="Trazado 243014" d="M285.967,177.1a3.109,3.109,0,0,0-.135-.5c.129.567.309,1.231.531,1.958-.148-.477-.287-.96-.4-1.457" fill="#baeaff"/>
            <path id="Trazado_243015" data-name="Trazado 243015" d="M285.675,175.984c.038.175.081.348.129.517a1,1,0,0,0,.028.1c-.167-.734-.269-1.335-.328-1.8,0,.034.006.051.009.1a8.617,8.617,0,0,0,.162,1.085" fill="#baeaff"/>
            <path id="Trazado_243016" data-name="Trazado 243016" d="M286.466,178.9c-.039-.122-.067-.228-.1-.345.024.077.039.159.064.236.012.038.026.072.039.109" fill="#baeaff"/>
            <path id="Trazado_243017" data-name="Trazado 243017" d="M287.884,182.677c-.3-.739-.585-1.487-.84-2.254-.221-.531-.407-1-.578-1.52.31.975.707,2.078,1.227,3.32.06.155.129.3.191.454" fill="#baeaff"/>
            <path id="Trazado_243018" data-name="Trazado 243018" d="M289.108,185.408c-.324-.648-.621-1.317-.911-1.991.105.248.2.5.315.746q.3.626.6,1.245" fill="#baeaff"/>
            <path id="Trazado_243019" data-name="Trazado 243019" d="M288.2,183.418c-.106-.246-.211-.491-.312-.74.041.1.074.21.116.311.061.147.134.284.2.429" fill="#baeaff"/>
            <path id="Trazado_243020" data-name="Trazado 243020" d="M289.139,185.475c-.011-.022-.021-.044-.032-.067.006.011.01.023.016.034l.016.033" fill="#baeaff"/>
            <path id="Trazado_243021" data-name="Trazado 243021" d="M282.958,176.957c.223-.257.423-.5.609-.724-.187.229-.386.468-.609.724" fill="#baeaff"/>
            <path id="Trazado_243022" data-name="Trazado 243022" d="M283.708,176.059c.145-.181.28-.355.4-.52-.124.165-.258.338-.4.52" fill="#baeaff"/>
            <path id="Trazado_243023" data-name="Trazado 243023" d="M285.487,174.641c.007.057.009.1.017.16-.005-.061-.011-.125-.017-.16" fill="#baeaff"/>
            <path id="Trazado_243024" data-name="Trazado 243024" d="M283.567,176.233l.141-.174-.141.174" fill="#baeaff"/>
            <path id="Trazado_243025" data-name="Trazado 243025" d="M281.6,178.445c.085-.089.157-.169.238-.255-.079.085-.154.166-.238.255" fill="#baeaff"/>
            <path id="Trazado_243026" data-name="Trazado 243026" d="M281.837,178.19c.09-.1.183-.194.267-.285-.086.093-.176.189-.267.285" fill="#baeaff"/>
            <path id="Trazado_243027" data-name="Trazado 243027" d="M282.1,177.9c.3-.326.582-.635.832-.922-.249.283-.524.589-.832.922" fill="#baeaff"/>
            <path id="Trazado_243028" data-name="Trazado 243028" d="M285.588,173.119v0c.027-.069.048-.121,0,0" fill="#baeaff"/>
            <path id="Trazado_243029" data-name="Trazado 243029" d="M284.112,175.539l.114-.15-.114.15" fill="#baeaff"/>
            <path id="Trazado_243030" data-name="Trazado 243030" d="M285.293,173.74l.063-.118c-.022.041-.042.081-.063.118" fill="#baeaff"/>
            <path id="Trazado_243031" data-name="Trazado 243031" d="M284.6,174.859c.046-.067.085-.128.127-.191-.042.063-.082.125-.127.191" fill="#baeaff"/>
            <path id="Trazado_243032" data-name="Trazado 243032" d="M284.226,175.389c.138-.186.263-.362.377-.53-.113.166-.238.342-.377.53" fill="#baeaff"/>
            <path id="Trazado_243033" data-name="Trazado 243033" d="M320.571,241.373l-.088-.156-.353-.622-.717-1.24a7.586,7.586,0,0,0-.46-.717l.359.61Z" fill="#baeaff"/>
            <path id="Trazado_243034" data-name="Trazado 243034" d="M285.005,174.241l-.044.07c.009-.015.022-.033.031-.048l.013-.022" fill="#baeaff"/>
            <path id="Trazado_243035" data-name="Trazado 243035" d="M280.056,180.01c-.1.1-.2.2-.308.3l.112-.106Z" fill="#baeaff"/>
            <path id="Trazado_243036" data-name="Trazado 243036" d="M279.748,180.313l-.945.9-1.075,1,.337-.3c.625-.578,1.181-1.106,1.683-1.594" fill="#baeaff"/>
            <path id="Trazado_243037" data-name="Trazado 243037" d="M282.958,176.957l-.022.026.005-.006.017-.02" fill="#baeaff"/>
            <path id="Trazado_243038" data-name="Trazado 243038" d="M284.961,174.311c-.069.111-.149.234-.231.357.043-.064.089-.131.129-.193l.1-.164" fill="#baeaff"/>
            <path id="Trazado_243039" data-name="Trazado 243039" d="M281.6,178.445c-.245.256-.505.524-.784.8l-.758.759q.879-.864,1.542-1.564" fill="#baeaff"/>
            <path id="Trazado_243040" data-name="Trazado 243040" d="M289.461,186.145c-.157-.372-.223-.471-.321-.67.107.223.214.448.321.67" fill="#baeaff"/>
            <path id="Trazado_243041" data-name="Trazado 243041" d="M277.555,182.373l.174-.161-1.684,1.522.026-.022,1.484-1.339" fill="#baeaff"/>
            <path id="Trazado_243042" data-name="Trazado 243042" d="M399.7,197.268a43.794,43.794,0,0,0-2.724-9.794,43.013,43.013,0,0,0-2.014-4.3,45.5,45.5,0,0,0-8.437-10.8,58.881,58.881,0,0,0-14.779-9.854,34.035,34.035,0,0,1-3.431-6.58,55.319,55.319,0,0,1-1.986-6.961,55.92,55.92,0,0,1-1.049-7.387c-.328-2.528-.563-5.121-.738-7.754-.106-1.316-.127-2.647-.277-3.97s-.287-2.665-.429-3.984c-.317-2.653-.534-5.338-1.037-7.907-1.065-5.139-2.2-10.055-4.449-14.181a135.871,135.871,0,0,1,12.129,7.231q.025-4.415-.15-8.985c-.253-3.057-.56-6.2-1-9.329-2.429-2.842-4.494-5.365-6.434-7.566l-2.7-3.189-2.49-2.873c-1.573-1.855-3.024-3.575-4.507-5.2s-2.875-3.257-4.481-4.806a65.128,65.128,0,0,0-11.93-9.529c-1.306-.8-2.7-1.619-4.2-2.441s-3.183-1.6-4.946-2.407q-1.328-.6-2.748-1.2-1.461-.572-3.022-1.137c-2.087-.749-4.27-1.515-6.725-2.164q-2.058-1.516-4.056-2.815c-1.354-.848-2.716-1.6-4.033-2.3a47.808,47.808,0,0,0-7.686-3.308,38.4,38.4,0,0,0-7.054-1.729,31.437,31.437,0,0,0-6.28-.408,30.877,30.877,0,0,0-5.463.674,24.82,24.82,0,0,0-4.689,1.58,23.8,23.8,0,0,0-7.228,4.96c-3.988,3.938-6.656,8.774-9.357,13.341s-5.368,8.914-8.986,12.2a179.668,179.668,0,0,0-18.277-7.2c-3.055-1.023-6.008-2.023-9.049-2.913q-4.554-1.379-9.383-2.473l1.972,3.937c-3.063,7.006-5,11.441-7.095,14.387a15.065,15.065,0,0,1-7.593,5.715c-2.334.954-5.233,1.77-8.935,3.172.12-.165.244-.323.363-.49,7.7-10.707,13.334-24.562,15.243-34.182a40.069,40.069,0,0,0-24.225,2.106,71.061,71.061,0,0,0-10.279,5.181c-1.644.973-3.258,1.991-4.852,3.022l-4.967,3.2c-6.684,4.325-12.974,8.228-20.643,10.51-7.679,2.335-16.77,3.08-29.7,1.947a129.07,129.07,0,0,0,14.237-9.448,31.985,31.985,0,0,0,7.51-8.527,104.937,104.937,0,0,0,5.157-10.522,94.109,94.109,0,0,1,7.971-14.332c-5-.338-10.153-.486-15.427-.414q3.255-4.9,6.919-9.785c-4.612-2.273-4.677-6.8-3.963-11.729.17-1.228.5-2.531.736-3.793.126-.634.243-1.265.343-1.888a8.468,8.468,0,0,0,.118-.92c-.012-.294-.023-.576-.035-.845A10.959,10.959,0,0,0,134.518,0l-5.07,2.675-5.1,2.834c-3.392,1.906-6.726,3.908-10.024,5.96a226.986,226.986,0,0,0-19.047,13.29,36.724,36.724,0,0,1,7.837-2.2,13.786,13.786,0,0,1,5.275.05,6.046,6.046,0,0,1,4.728,4.69c1.2,4.572-.233,11.351.287,16.692a180.058,180.058,0,0,0-18.082,11.1c3.272-.322,7.959-1.844,10.825-1.576,2.91.272,3.894,2.272.555,8.762a21.059,21.059,0,0,0-4.749,4.086c-1.435,1.654-2.861,3.421-4.3,5.212a37.323,37.323,0,0,1-4.81,5,19.583,19.583,0,0,1-2.977,2.045,18.759,18.759,0,0,1-3.534,1.6,155.231,155.231,0,0,1-4.311-23.448A30.121,30.121,0,0,1,72.71,72.644a66.579,66.579,0,0,1-7.156,5.7c-2.5,1.845-5.25,3.581-7.858,5.474-5.342,3.7-10.467,7.86-14.226,12.977a25.7,25.7,0,0,0-4.948,18.533c.1.619.195,1.256.345,1.909-6.97.9-13.959,2.1-20.915,3.591a179.976,179.976,0,0,0-2.913,28.269q-3.226-1.919-6.429-3.94a198.3,198.3,0,0,0-2.737,35.23,37.943,37.943,0,0,0,4.617,11.231,21.885,21.885,0,0,0,5.766,6.246c4.053,2.887,8.206,3.678,11.837,4.638.9,3.3,1.987,6.517,3.091,9.567,1.154,3.026,2.257,5.919,3.269,8.574A49.121,49.121,0,0,1,36.72,227.9a11.672,11.672,0,0,1,.106,5.722A193.1,193.1,0,0,1,20.25,221.554c.33,5.267.8,10.6,1.555,15.928-.059-5.7,2.8-3.1,6.378.928,3.634,4.038,8.2,9.417,11.124,10.136,1.479,3.948,2.893,7.2,4.121,9.951,1.2,2.769,2.3,4.991,3.2,6.885a84.962,84.962,0,0,1,3.644,8.341,43.383,43.383,0,0,1,1.517,7.009c.476,2.873.978,6.71,2.459,12.587a67.113,67.113,0,0,1,7.137,5.644c1.113,1.011,2.179,2.062,3.224,3.124,1.064,1.045,2.093,2.113,3.1,3.191s1.977,2.166,2.928,3.251l2.856,3.172c1.864,2.091,3.639,4.131,5.422,5.93a59.753,59.753,0,0,0,5.123,4.809,21.082,21.082,0,0,0,4.838,3.006c3.09,1.3,5.966.905,8.615-1.909,13.3,15.979,31.625,28.764,51.546,37.348a168.937,168.937,0,0,0,30.746,9.892c2.574.615,5.252,1.1,7.83,1.564l3.8.664,3.815.537q7.636,1.064,14.962,1.508a179.6,179.6,0,0,0,16.883-9.323,80.893,80.893,0,0,0,29.225,1.422,84.448,84.448,0,0,0,23.358-6.971c3.609-1.623,7.132-3.437,10.661-5.409,3.509-1.935,7.14-4.087,11.1-6.461,7.9-4.8,17.017-10.345,28.474-18.346-.4,2.057-.858,4.145-1.335,6.212,3.331-4.406,6.566-9.031,9.615-13.871,1.522-2.409,3.008-4.912,4.422-7.416,1.423-2.553,2.8-5.117,4.014-7.68,9.492-5.855,14.943-12.082,18.515-17.753a48.022,48.022,0,0,0,2.344-4.2c.35-.7.65-1.362.957-2.046s.607-1.425.893-2.137c1.153-2.87,2.156-5.748,3.165-8.627a144.52,144.52,0,0,1,6.606-17.783c.725-1.54,1.564-3.082,2.445-4.679.857-1.608,1.814-3.245,2.892-4.923s2.306-3.381,3.587-5.188,2.681-3.684,4.249-5.637q.923-1.7,1.751-3.365c.527-1.129,1-2.262,1.454-3.377q1.357-3.351,2.357-6.568a64.642,64.642,0,0,0,2.33-12.433,54.294,54.294,0,0,0-.439-11.218M270.147,137.9c-.209,5.043.223,7.068,1.793,8.086,1.526.984,4.136.887,7.126,1.116,2.918.26,6.188.772,8.4,2.555a9.328,9.328,0,0,1,1.447,1.57,4.548,4.548,0,0,1,.917,1.979c.054.3.1.6.13.909a65.912,65.912,0,0,0-15.309-3.2,114.241,114.241,0,0,0-13.446-.375,58.673,58.673,0,0,1,3.781-6.265,61.45,61.45,0,0,1,5.156-6.379m-33.541,22.367a28.515,28.515,0,0,0,2.244-9.164,32.89,32.89,0,0,0,6.856-17.52c.454-6.463-1.157-12.86-7.056-15.444,4.381-1.555,7.566-1.185,9.946-.031a15.414,15.414,0,0,1,5.339,4.911c1.354,1.8,2.465,3.456,3.8,4.159,1.353.73,2.83.46,5.308-1.189a92.957,92.957,0,0,0-3.9,15.521,13.135,13.135,0,0,1,.822,3.578c.109,1.365.1,2.559.089,3.741q-.018.714-.037,1.453c0,.11,0,.2,0,.3-.942.028-1.884.052-2.821.09,5.008,2.224,6.917,7.759,7.977,13.19l3.5-2.6c1.492,2.193,4.585,5.929,6.05,10.815a16.812,16.812,0,0,1,.669,7.424,9.018,9.018,0,0,1-3.212,5.757,23.693,23.693,0,0,0-4.924-6.7,4.559,4.559,0,0,1-3.1,3.019,5.309,5.309,0,0,1-1.237.155c-1.216-2.085-2.421-4.193-3.6-6.347q-1.465-2.678-2.886-5.427-.757-1.378-1.522-2.773-1.4-2.633-2.631-5.445h0l.011.024.162.372h-.011l-.045,0c-.048-.067-.408.086-.713.24a11.636,11.636,0,0,0-1.371.919,20.2,20.2,0,0,0-1.6,1.375c-.284.265-.615.565-.894.854-.3.3-.517.578-.864.919q-.473.494-.887,1.005c-.265.338-.522.687-.843,1.065a13.021,13.021,0,0,0-1.477,2.31,8.515,8.515,0,0,0-1.058,2.618,9.284,9.284,0,0,1-4.72-1.743c.155-1.45-.117-3.366.093-5.144a4.239,4.239,0,0,1,3.337-4.018,6.077,6.077,0,0,1-1.163-.9,10.356,10.356,0,0,1-.773-.819.391.391,0,0,1-.054-.081c0-.006-.015-.029-.005-.021l.953-.835-2.1,1.824q-1.525,1.324-3.083,2.6l-1.838,1.529c-.143-.5-.287-1.03-.43-1.583.089-.039.18-.062.268-.106a7.8,7.8,0,0,0,3.428-3.881m-11.9,6.3-.081-.021c-.064-.016-.121-.033-.174-.051l-.075-.026.26.076Zm-13.3-.531.144-.048.038-.011-.257.087Zm97-5.949c-.489.8-.87,1.582-1.364,2.38s-.947,1.562-1.406,2.264a9.93,9.93,0,0,1-2.811,3.138,3.209,3.209,0,0,1-3.41-.039,10.573,10.573,0,0,0-.145,5.076,19.326,19.326,0,0,0,1.565,5.061c.688,1.717,1.451,3.478,2.313,5.261.825,1.784,1.476,3.593,2.107,5.379l.427,1.334c.116.441.195.877.275,1.309a18.447,18.447,0,0,1,.288,2.537,11.4,11.4,0,0,1-.137,2.376,8.04,8.04,0,0,1-.833,2.111,7.473,7.473,0,0,1-3.707,3.182,18.9,18.9,0,0,1-7.277,1.163,85.66,85.66,0,0,1,4.574,7.878,16.038,16.038,0,0,1,.733,2.363,11.857,11.857,0,0,1,.189,2.121,9.837,9.837,0,0,1-.709,3.675,12.248,12.248,0,0,1-4.858,5.116,49.513,49.513,0,0,1-7.072,3.1c-2.463.887-4.822,1.653-6.725,2.577,2.038,2.19,4.041,4.4,6.009,6.67a10.935,10.935,0,0,1-5.994,9.5,12.368,12.368,0,0,1-12.463-.579c-3.835.577-7.337,2.393-11.084,5.081a134.938,134.938,0,0,0-11.65,9.929c-4.112,3.77-8.575,7.746-13.4,11.413a81.127,81.127,0,0,1-15.232,9.36,24.313,24.313,0,0,0-6.166-2.388,7.5,7.5,0,0,0-4.3.17c-2.439.882-4.2,3.08-6.108,5.808s-3.9,5.8-6.9,8.338a16.782,16.782,0,0,1-5.326,3.083,19.43,19.43,0,0,1-3.42.877,22.955,22.955,0,0,1-3.991.186,27.1,27.1,0,0,0-4.96-3.041c-.909-.438-1.866-.821-2.841-1.21s-1.976-.777-3-1.134c-4.118-1.412-8.571-2.76-12.753-4.4-8.349-3.25-15.457-8.08-14.92-15.469a18.31,18.31,0,0,0,12.041,2.562,29.639,29.639,0,0,0,5.745-1.234c1.873-.577,3.665-1.207,5.442-1.892,3.55-1.353,6.855-2.6,10.1-2.926a13.964,13.964,0,0,1,4.836.384,16.153,16.153,0,0,1,5.018,2.528c-.807-2.46.673-3.625,3.014-4.318,2.374-.76,5.635-1.046,8.625-1.733a19.945,19.945,0,0,0,4.109-1.278,6.765,6.765,0,0,0,2.792-2.025c1.26-1.706,1.022-3.987-1.274-7.538a30.98,30.98,0,0,1-11.5,3.059,35.623,35.623,0,0,1-5.864-.107c-.972-.1-1.952-.219-2.923-.378q-1.439-.282-2.88-.626c-7.7-1.854-14.8-5.907-21.294-10.518-6.455-4.727-12.352-9.986-18.367-15.085a126.1,126.1,0,0,0-20.517-14.281,19.241,19.241,0,0,0,3.761-1.793A14.845,14.845,0,0,0,125.6,212.2a11.472,11.472,0,0,0,2.954-5.26c.985-3.8.175-8.035-1.294-12.535-1.448-4.5-3.557-9.293-5.48-13.84-1.943-4.528-3.7-8.793-4.746-11.715l6.878-.679c1.405-4.178,2.67-7.657,3.094-11.69.483-4.044.008-8.631-.968-15.353a43.908,43.908,0,0,1-.867-4.677c2.39-8.869,6.215-17.616,12.594-24.093,6.314-6.434,15.057-10.622,25.5-9.468,1.3.051,2.506.035,3.676-.014q-1.66,1.614-3.351,3.472c3.729,2.354,7.38,4.854,10.962,7.394a17.019,17.019,0,0,0-6.711,1.607,12.781,12.781,0,0,0-4.332,3.373,14.393,14.393,0,0,0-2.337,4.478,26.115,26.115,0,0,0-.9,5.171c-.1,1.823-.1,3.7-.073,5.6.093,1.949.115,3.879.156,5.9a48.465,48.465,0,0,1-1.419,12.983c-.282,2.429-2.212,5.79-4.042,10.5a48.334,48.334,0,0,0-3.731,17.615,34.781,34.781,0,0,0,5.606,19.6,23.643,23.643,0,0,0,3.126,3.776,26.09,26.09,0,0,0,3.7,2.912,18.64,18.64,0,0,0,4.173,1.863,14.784,14.784,0,0,0,4.5.75q.878,1.634,1.873,3.14a27.294,27.294,0,0,0,2.136,2.721,27.8,27.8,0,0,0,2.313,2.395q1.212,1.056,2.475,1.978a27.107,27.107,0,0,0,10.616,4.63c7.261,1.452,14.366-.055,20.635-2.609,6.307-2.566,11.814-6.16,16.8-9.164,5.064-3.016,9.554-5.335,14.8-6.082a9.157,9.157,0,0,0,9.264-.971A15.53,15.53,0,0,0,257.7,199.8c1.011-2.129,1.7-3.586,3.581-3.783q1.34.757,2.757,1.459l.7.34.6.381,1.229.75q1.242.739,2.536,1.44c.062.03.115.063.175.092-.189.3-.377.6-.586.89,1.5.646,3.027,1.236,4.58,1.783l.454.314a9.89,9.89,0,0,1,2,1.712l1.84,1.8a1.889,1.889,0,0,1,.346.383l-1.959-3.325a68.829,68.829,0,0,0,14.835,2.849q-6.453-4.272-13.069-8.257a18.358,18.358,0,0,0,6.068-8.265,22.868,22.868,0,0,0,.944-2.695l.408-1.4.314-1.4c.19-.94.438-1.9.573-2.854s.3-1.934.447-2.9c.5-3.865.88-7.706,1.782-11.6a39.48,39.48,0,0,1,4.983-12.165c-.365-.152-.728-.282-1.092-.424a7.476,7.476,0,0,1,2.326-1.707,5.527,5.527,0,0,1,4.552.366,36.229,36.229,0,0,0,5.226,2.454,11.169,11.169,0,0,0,7.554-.156,15.6,15.6,0,0,0-3.4,4.215" transform="translate(435.861 436.225) rotate(180)" fill="#baeaff"/>
            <path id="Trazado_243043" data-name="Trazado 243043" d="M276.045,183.734l-.308.27.249-.216Z" fill="#baeaff"/>
            <path id="Trazado_243044" data-name="Trazado 243044" d="M285.392,173.611v0l-.007.02c-.235.589-.194.486-.151.38h0l.152-.38a2.023,2.023,0,0,1-.088.25,2.063,2.063,0,0,0,.09-.249l0-.017.041-.1-.041.1" fill="#baeaff"/>
            <path id="Trazado_243045" data-name="Trazado 243045" d="M285.234,174.006h0c.055-.139.027-.069,0,0" fill="#baeaff"/>
            <path id="Trazado_243046" data-name="Trazado 243046" d="M285.239,174v0l0,0,.008-.015.016-.031.031-.064,0-.01,0,.011Z" fill="#baeaff"/>
            <path id="Trazado_243047" data-name="Trazado 243047" d="M285.293,173.74c-.081.152-.175.321-.288.5.1-.154.182-.3.262-.451.008-.014.017-.035.026-.05" fill="#baeaff"/>
            <path id="Trazado_243048" data-name="Trazado 243048" d="M285.434,173.53a.18.18,0,0,1,0-.023v.023Z" fill="#baeaff"/>
            <path id="Trazado_243049" data-name="Trazado 243049" d="M285.434,173.535v0h0" fill="#baeaff"/>
            <rect id="Rectángulo_316107" data-name="Rectángulo 316107" width="0.002" height="0.004" transform="translate(285.235 174.002)" fill="#baeaff"/>
            <path id="Trazado_243050" data-name="Trazado 243050" d="M285.393,173.606a.126.126,0,0,0,.006-.018c.011-.046.013-.059.02-.088l.014-.03a.085.085,0,0,0,0,.027v-.028c.029-.06.059-.125.075-.156l.008-.019c-.019.042-.056.113-.083.169v0l-.012.023c.032-.147.018-.094.012-.033a.888.888,0,0,1,.018-.115c-.006.043-.022.1-.034.157s-.036.076-.062.126c.021-.041.04-.073.059-.113-.008.035-.012.066-.021.1" fill="#baeaff"/>
            <path id="Trazado_243051" data-name="Trazado 243051" d="M285.428,173.684c0,.009,0,.018,0,.027l.006-.11c.008-.086,0-.047,0-.066v0a.815.815,0,0,1-.007.146" fill="#baeaff"/>
            <path id="Trazado_243052" data-name="Trazado 243052" d="M285.433,173.459v0" fill="#baeaff"/>
            <path id="Trazado_243053" data-name="Trazado 243053" d="M285.542,173.237c-.042.1-.077.19-.108.27.047-.12.08-.2.108-.272l.019-.045.017-.044.008-.022v0c-.028.071-.056.14,0,0v.005l0-.008h0l-.006.012-.067.163.009-.02Z" fill="#baeaff"/>
            <path id="Trazado_243054" data-name="Trazado 243054" d="M387.375,239.934a157.5,157.5,0,1,1-157.5-157.5,157.5,157.5,0,0,1,157.5,157.5" fill="#aaebf8"/>
            <path id="Trazado_243055" data-name="Trazado 243055" d="M377.517,239.933c0,.783-.01,1.577-.02,2.36-.01.643-.02,1.286-.04,1.929-.01.211-.01.421-.02.632-.031.9-.071,1.818-.121,2.722.01.01,0,.01,0,.01-.01.392-.04.784-.06,1.175a.28.28,0,0,1-.01.091c-.01.331-.03.663-.06.994-.031.563-.071,1.115-.121,1.667-.06.834-.131,1.658-.211,2.481a2.126,2.126,0,0,1-.03.251q-.135,1.416-.3,2.833c-.1.944-.221,1.888-.352,2.822s-.261,1.868-.4,2.8c-.07.482-.15.964-.231,1.446q-.24,1.447-.512,2.893c-.11.643-.231,1.285-.361,1.918-.1.492-.191.975-.3,1.457s-.191.934-.3,1.4c-.151.7-.3,1.4-.472,2.079-.2.853-.4,1.707-.623,2.551,0,.02-.01.03-.01.05-.231.884-.462,1.768-.7,2.641-.171.643-.351,1.276-.542,1.909-.121.462-.261.914-.4,1.376-.161.552-.331,1.105-.5,1.657q-1.341,4.308-2.943,8.487c-.2.542-.412,1.075-.633,1.617-.191.5-.391.994-.592,1.476-.231.573-.462,1.135-.7,1.7v.01c-.051.11-.1.221-.141.321-.412.984-.844,1.949-1.286,2.913-.381.854-.773,1.7-1.175,2.551-.412.874-.843,1.758-1.275,2.631a.208.208,0,0,0-.03.051c-.442.883-.9,1.777-1.366,2.651l-.121.241c-.171.332-.351.663-.522.984-.3.573-.613,1.135-.924,1.7-.352.622-.7,1.245-1.055,1.858-.462.8-.924,1.607-1.4,2.39a1.366,1.366,0,0,1-.08.131l-.241.392a2.459,2.459,0,0,1-.131.221c-.311.522-.622,1.034-.954,1.546-.311.512-.643,1.035-.974,1.537-.231.382-.472.753-.723,1.125-.372.582-.754,1.155-1.145,1.727q-.859,1.281-1.748,2.531c-.813,1.175-1.657,2.33-2.521,3.475q-.918,1.236-1.868,2.441c-.261.342-.522.673-.793,1-.1.131-.211.262-.312.392-.17.211-.331.412-.5.613-.01.03-.02.05-.05.06a.052.052,0,0,1-.02.04l-.382.472c-.05.061-.1.121-.14.171a.625.625,0,0,0-.041.05,2.108,2.108,0,0,0-.14.171c-.03.03-.061.07-.091.1-.642.774-1.3,1.547-1.948,2.31-.311.372-.633.734-.954,1.1-.251.3-.513.593-.774.884-.06.07-.12.141-.18.2-.754.854-1.527,1.7-2.31,2.521q-.934,1.01-1.9,1.988c-.351.362-.7.724-1.054,1.075q-.5.513-.995,1l-.16.16c-.231.231-.462.462-.7.683q-1.794,1.762-3.676,3.455c-.362.332-.724.653-1.085.974q-2.4,2.156-4.9,4.189c-.272.231-.553.452-.824.663-.783.632-1.577,1.255-2.37,1.868-.523.411-1.055.813-1.587,1.205-.251.2-.5.392-.764.572-.221.171-.452.342-.683.5-.18.13-.351.261-.532.381-.4.3-.8.593-1.215.874-.321.231-.633.452-.954.673-.643.452-1.286.894-1.939,1.326q-1.069.723-2.139,1.416c-.331.221-.663.442-.994.643q-.693.451-1.386.873c-1.045.653-2.089,1.286-3.144,1.909-.773.452-1.557.9-2.34,1.346q-3.119,1.763-6.328,3.364-2.2,1.1-4.459,2.15l-2.019.9c-.221.1-.432.191-.653.282-1.165.512-2.34,1-3.515,1.476-.783.322-1.567.633-2.36.934-.954.372-1.919.733-2.883,1.085a.487.487,0,0,1-.07.03c-.944.332-1.888.663-2.842.984l-1.356.452a1.415,1.415,0,0,0-.2.071c-.111.03-.221.07-.332.1-.411.141-.823.271-1.245.392q-1.341.422-2.682.813a.5.5,0,0,1-.13.04c-.975.282-1.959.553-2.953.824-.583.161-1.155.311-1.738.452-.421.111-.853.221-1.275.321-1.005.252-2.019.482-3.033.714h-.01c-.111.03-.231.06-.342.08l-1.386.3c-.763.161-1.527.322-2.3.462a.037.037,0,0,1-.03.01c-.623.121-1.246.241-1.868.352s-1.246.221-1.878.321c-.472.081-.944.161-1.417.231-.542.091-1.094.171-1.637.241-.291.05-.592.091-.884.131l-.652.09c-.171.03-.332.05-.5.07l-.512.061-1.185.15c-.321.041-.643.081-.964.111s-.653.07-.974.11h-.01c-.111.01-.221.02-.332.041q-4.986.511-10.074.693-1.085.045-2.169.06c-.372.01-.753.02-1.125.02-.693.02-1.386.02-2.079.02q-5.332,0-10.576-.372h-.01c-.141-.01-.281-.02-.432-.04s-.331-.02-.5-.04a3.245,3.245,0,0,1-.432-.03l-.422-.03-.371-.03a.131.131,0,0,1-.061-.01l-.381-.031c-.282-.02-.563-.05-.844-.08l-.3-.03a.283.283,0,0,1-.091-.01c-.532-.05-1.054-.1-1.587-.161-1.657-.171-3.294-.381-4.931-.612-.944-.131-1.9-.282-2.832-.442-.663-.1-1.326-.211-1.989-.322s-1.346-.241-2.009-.371c-.492-.091-.994-.191-1.476-.292-.623-.12-1.225-.251-1.838-.381-.7-.151-1.416-.3-2.119-.472h-.01c-.955-.211-1.909-.442-2.853-.683-.823-.211-1.647-.422-2.46-.643-1.005-.271-2.009-.553-3-.844-.311-.09-.632-.181-.944-.281l-.251-.07c-.08-.03-.17-.051-.251-.081-3.907-1.185-7.754-2.531-11.51-4.027-.663-.261-1.326-.532-1.989-.8q-.888-.361-1.777-.753-.844-.346-1.657-.723h-.021c-.16-.08-.311-.151-.472-.221-.08-.03-.17-.07-.251-.11h-.01c-.12-.051-.241-.111-.361-.171-.954-.432-1.9-.874-2.843-1.326-.894-.432-1.777-.864-2.661-1.316-.523-.251-1.035-.522-1.547-.793-.422-.211-.844-.432-1.255-.663q-.693-.361-1.356-.723a146.807,146.807,0,0,1-16.643-10.6c-.994-.734-1.988-1.477-2.963-2.24-1-.773-2.008-1.577-3-2.38s-1.968-1.628-2.932-2.461-1.929-1.677-2.873-2.531c-.05-.04-.1-.091-.15-.131-.854-.773-1.688-1.556-2.522-2.35-.06-.06-.13-.12-.2-.191-.9-.863-1.788-1.727-2.662-2.611s-1.758-1.788-2.611-2.692a1.94,1.94,0,0,1-.141-.15c-.773-.814-1.526-1.627-2.28-2.461a2.87,2.87,0,0,1-.231-.261c-.13-.141-.251-.281-.381-.422-.071-.081-.151-.161-.211-.241-.382-.432-.764-.864-1.145-1.306-1.376-1.587-2.712-3.2-4.028-4.841l-1.175-1.506c-.422-.543-.834-1.085-1.245-1.638-.733-.974-1.447-1.948-2.16-2.942-.412-.573-.813-1.145-1.215-1.728a147.343,147.343,0,0,1-7.824-12.6c-.593-1.074-1.185-2.169-1.748-3.264-.321-.613-.643-1.235-.954-1.858-.432-.864-.864-1.727-1.275-2.611-.422-.864-.824-1.748-1.226-2.632-.311-.683-.612-1.356-.9-2.039-.02-.04-.04-.08-.06-.13s-.03-.081-.05-.131c-.271-.612-.532-1.225-.784-1.848-.381-.894-.753-1.8-1.094-2.7q-.092-.227-.181-.452l-.181-.453c-.07-.19-.15-.381-.221-.582-.361-.964-.723-1.928-1.084-2.913a.983.983,0,0,0-.051-.15c-.211-.613-.432-1.226-.643-1.838-.261-.754-.512-1.507-.753-2.27-.14-.4-.271-.814-.392-1.226-.02-.07-.05-.15-.07-.22-.161-.523-.321-1.045-.482-1.577-.03-.091-.06-.191-.09-.282-.362-1.2-.7-2.41-1.025-3.625-.08-.281-.15-.553-.221-.834-.06-.221-.12-.452-.17-.673-.131-.5-.262-.994-.382-1.5a2.716,2.716,0,0,1-.07-.272v-.01c-.021-.08-.041-.16-.061-.251a2.38,2.38,0,0,1-.09-.361c-.01-.03-.01-.061-.02-.091-.332-1.335-.633-2.691-.914-4.047-.121-.583-.241-1.165-.352-1.748-.13-.653-.251-1.306-.371-1.958q-.227-1.206-.422-2.411c-.06-.311-.111-.633-.161-.954-.08-.482-.15-.974-.221-1.466-.09-.593-.171-1.175-.251-1.768-.02-.121-.04-.231-.05-.342s-.03-.22-.05-.331c-.041-.291-.071-.572-.111-.864-.06-.492-.12-.974-.181-1.466a1.958,1.958,0,0,0-.02-.241c-.05-.452-.1-.914-.15-1.376l-.151-1.487c-.07-.763-.141-1.526-.191-2.29-.04-.381-.07-.773-.09-1.155q-.091-.918-.121-1.838c-.04-.592-.07-1.185-.1-1.787a1.294,1.294,0,0,1-.01-.2c-.05-1.185-.091-2.371-.111-3.556-.02-.532-.03-1.054-.04-1.587-.01-.572-.01-1.134-.01-1.707a147.6,147.6,0,0,1,79.707-131.11c1.295-.683,2.6-1.336,3.927-1.979a146.82,146.82,0,0,1,50.118-13.91c4.57-.422,9.21-.643,13.89-.643,1.175,0,2.35.01,3.515.04h.02c3.325.081,6.629.271,9.893.573h.011a146.731,146.731,0,0,1,76.562,29.98c.081.06.151.121.231.181a148.41,148.41,0,0,1,38.247,44.071c.02.011.02.031.03.051q2.214,4.368,4.288,8.788c.02.05.051.09.071.141.311.662.612,1.315.914,1.978q.618,1.326,1.2,2.652c.713,1.577,1.406,3.153,2.079,4.74.311.693.613,1.386.9,2.089v.01a.772.772,0,0,1,.141.041v.01H368c.03.1.07.2.1.3h.01a2.272,2.272,0,0,1,.08.241,2.154,2.154,0,0,1,.091.241.6.6,0,0,1,.05.121c.02.05.04.11.06.16.141.382.271.754.4,1.135a.3.3,0,0,1,.04.1l.422,1.175c.3.853.593,1.717.884,2.591.161.482.311.964.462,1.446a1.416,1.416,0,0,1,.09.292c.312.984.613,1.968.9,2.962.271.914.523,1.828.774,2.742.04.121.07.241.1.372.181.673.352,1.336.522,2.009.342,1.305.653,2.621.944,3.937.221,1,.442,2,.643,3,0,.02.01.04.01.07.211,1.025.412,2.059.593,3.094s.361,2.079.522,3.113.311,2.059.452,3.094a.06.06,0,0,1,.01.04,1.4,1.4,0,0,1,.03.271c.111.8.211,1.617.312,2.431.241,2.018.431,4.037.582,6.076.06.623.1,1.245.131,1.868.03.422.06.844.07,1.276.05.813.09,1.627.12,2.45.031.754.051,1.517.071,2.28.03,1.135.04,2.27.04,3.4" fill="#41c2b3"/>
            <path id="Trazado_243056" data-name="Trazado 243056" d="M366.941,185.486c-.171.542-.362,1.085-.573,1.617-.03.08-.07.161-.1.251a38.94,38.94,0,0,1-2.822,5.594c-.1.171-.2.342-.312.513a1.841,1.841,0,0,1-.14.231,76.689,76.689,0,0,1-4.781,6.719,212.22,212.22,0,0,1-15.025,17.064c-.1.111-.211.221-.322.332-.723.743-1.446,1.486-2.189,2.219-.171.181-.362.372-.543.553-5.192,5.162-10.576,10.154-16.029,15.035-.131.11-.251.231-.382.341-1.024.914-2.039,1.818-3.063,2.722-16.773,14.825-34.269,29.127-53.182,41.029-.11.07-.231.14-.341.211q-2.637,1.656-5.323,3.254c-.151.09-.3.191-.452.271h-.01c-.211.131-.432.261-.643.392h-.01a221.791,221.791,0,0,1-22.568,11.64q-4.444,1.974-8.979,3.716c-.231.1-.452.191-.683.272h-.01a250.746,250.746,0,0,1-31.6,9.692c-8.346,2.008-16.783,3.646-25.249,5.012-3.666.592-7.362,1.134-11.068,1.556-.252.03-.5.061-.764.091a128.52,128.52,0,0,1-16.532.863,77.366,77.366,0,0,1-19.605-2.671A73.587,73.587,0,0,1,96.184,299.05a3.96,3.96,0,0,1-.312-.271c-.01-.021-.01-.021-.02-.01-.763-.643-1.516-1.306-2.26-1.979-.381-.894-.753-1.8-1.094-2.7q-.092-.225-.181-.452c-.06-.15-.121-.3-.181-.452-.07-.191-.151-.381-.221-.582-.361-.964-.723-1.929-1.085-2.913a.92.92,0,0,0-.05-.151c-.211-.612-.432-1.225-.643-1.838-.261-.753-.512-1.506-.753-2.269-.14-.4-.271-.814-.392-1.226-.02-.07-.05-.15-.07-.221-.161-.522-.321-1.044-.482-1.577q-.708-2.349-1.336-4.74c-.06-.221-.12-.452-.171-.673-.13-.5-.261-.994-.381-1.5-.03-.09-.05-.18-.071-.271v-.01c-.02-.08-.04-.161-.06-.251a3.563,3.563,0,0,1-.08-.352l-.01-.01c-.01-.03-.01-.06-.02-.09-.332-1.336-.633-2.692-.914-4.047-.121-.583-.241-1.166-.352-1.748-.13-.653-.251-1.306-.371-1.959-.131-.693-.251-1.386-.372-2.079-.02-.11-.04-.221-.05-.331-.06-.311-.111-.633-.161-.954-.08-.482-.151-.974-.221-1.467-.09-.592-.171-1.175-.251-1.767-.02-.121-.04-.231-.05-.342s-.03-.221-.05-.331c-.041-.292-.071-.573-.111-.864-.06-.492-.12-.974-.181-1.466a1.942,1.942,0,0,0-.02-.241c-.05-.452-.1-.914-.15-1.376-.051-.493-.1-.995-.151-1.487-.07-.763-.141-1.526-.191-2.29-.04-.382-.07-.773-.09-1.155q-.091-.919-.121-1.838c-.04-.592-.07-1.185-.1-1.788a1.275,1.275,0,0,1-.01-.2c-.05-1.186-.091-2.371-.111-3.556-.02-.532-.03-1.055-.04-1.587A158.242,158.242,0,0,1,94.1,229.447a116.256,116.256,0,0,1,32.149-21.373,108.908,108.908,0,0,1,42-9.581,1.487,1.487,0,0,1,.221-.011c23.11-.441,46.813,6.278,68.99-.271,13.067-3.856,24.366-12.022,36.639-17.948A113.046,113.046,0,0,1,312.3,169.677q4.369-.422,8.758-.512,3.526-.075,7.051.06c.161.01.311.01.472.02a113.546,113.546,0,0,1,34.088,6.73c.02.05.051.09.071.14.311.663.612,1.316.914,1.979q.616,1.326,1.2,2.651,1.07,2.366,2.079,4.741" fill="#65d7fd"/>
            <path id="Trazado_243057" data-name="Trazado 243057" d="M364.862,180.745q-4.5,1.853-8.919,3.887c-.14.06-.281.12-.412.191-5.051,2.31-10.013,4.791-14.894,7.4l-.573.3c-.01-.01-.02-.01-.02.01-1.989,1.065-3.957,2.15-5.916,3.274q-8.842,5-17.365,10.546c-.814.523-1.617,1.055-2.431,1.587-.01,0-.02.01-.03.02q-3.826,2.517-7.613,5.123c-.442.3-.884.612-1.316.924q-8.994,6.252-17.707,12.946c-.21.151-.421.311-.632.472-.884.673-1.778,1.356-2.662,2.039q-8.979,6.96-17.727,14.182a.01.01,0,0,0-.01.01c-.161.13-.311.261-.472.391q-5.272,4.339-10.476,8.738c-9.812,8.276-19.575,16.713-29.819,24.457h-.01c-.3.231-.583.442-.874.662,0,0,.01.011-.01.011h-.01a196.569,196.569,0,0,1-24.939,16.12,126.691,126.691,0,0,1-14.131,6.488c-13.891,5.383-28.795,8.226-43.4,6.84a72.644,72.644,0,0,1-9.682-1.557c-.392-.1-.793-.181-1.185-.291a.075.075,0,0,1-.05-.01,66.675,66.675,0,0,1-8.105-2.6l-1.3-.542a59.414,59.414,0,0,1-6.358-3.033c-.231-.121-.462-.241-.683-.362a68.874,68.874,0,0,1-8.426-5.454,73.049,73.049,0,0,1-22.036-26.756q-.227-1.2-.422-2.41c-.06-.312-.11-.633-.161-.955-.08-.482-.15-.974-.221-1.466-.09-.593-.17-1.175-.251-1.768-.02-.12-.04-.231-.05-.341s-.03-.221-.05-.332c-.04-.291-.071-.572-.111-.863-.06-.492-.12-.975-.181-1.467a1.974,1.974,0,0,0-.02-.241c-.05-.452-.1-.914-.15-1.376l-.151-1.486c-.07-.764-.14-1.527-.191-2.29-.04-.382-.07-.774-.09-1.155.04,0,.09.01.13.01a13.512,13.512,0,0,1,4.882,1.446,17.589,17.589,0,0,1,5.474,4.228c4.439,5.193,6.1,13.359,12.584,15.629,1.828.642,3.817.693,5.705,1.165,6.639,1.677,11.108,8.446,17.777,9.872a3.188,3.188,0,0,0,.312.071c8.386,1.557,15.608-5.9,23.914-7.834,7.663-1.778,15.608,1.295,23.472,1.064,9.6-.281,18.289-5.393,26.465-10.355,7.884-4.77,15.909-9.682,21.774-16.732,3.124-3.737,5.585-8.035,9.18-11.34,4.349-3.987,10.144-6.3,14.162-10.606,4.69-5.042,6.368-12.153,10.465-17.677,4.189-5.644,10.586-9.22,16.783-12.635,9.431-5.182,18.943-10.4,29.007-14.181.231-.091.452-.181.683-.261q2.59-.965,5.242-1.778,1.07-.332,2.14-.633l.331-.09a125.9,125.9,0,0,1,13.639-2.893c.111-.01.231-.03.342-.05,4.118-.653,8.246-1.165,12.374-1.687,6.769-.854,15.828-2.381,21.373.492a8.7,8.7,0,0,1,2.822,2.259q.618,1.326,1.2,2.652" fill="#a1d2f9"/>
            <path id="Trazado_243058" data-name="Trazado 243058" d="M377.517,239.933c0,.783-.01,1.577-.02,2.36-.01.643-.02,1.286-.04,1.929-.01.211-.01.421-.02.632-.031.9-.071,1.818-.121,2.722.01.01,0,.01,0,.01-.01.392-.04.784-.06,1.175a.28.28,0,0,1-.01.091c-.01.331-.03.663-.06.994-.031.563-.071,1.115-.121,1.667-.06.834-.131,1.658-.211,2.481a2.126,2.126,0,0,1-.03.251q-.135,1.416-.3,2.833c-.1.944-.221,1.888-.352,2.822s-.261,1.868-.4,2.8c-.07.482-.15.964-.231,1.446q-.24,1.447-.512,2.893c-.11.643-.231,1.285-.361,1.918-.1.492-.191.975-.3,1.457s-.191.934-.3,1.4c-.151.7-.3,1.4-.472,2.079-.2.853-.4,1.707-.623,2.551,0,.02-.01.03-.01.05-.231.884-.462,1.768-.7,2.641-.171.643-.351,1.276-.542,1.909-.121.462-.261.914-.4,1.376-.161.552-.331,1.105-.5,1.657q-1.341,4.308-2.943,8.487c-.2.542-.412,1.075-.633,1.617-.191.5-.391.994-.592,1.476-.231.573-.462,1.135-.7,1.7v.01c-.051.11-.1.221-.141.321-.412.984-.844,1.949-1.286,2.913-.381.854-.773,1.7-1.175,2.551-.412.874-.843,1.758-1.275,2.631a.208.208,0,0,0-.03.051c-.442.883-.9,1.777-1.366,2.651l-.121.241c-.171.332-.351.663-.522.984-.3.573-.613,1.135-.924,1.7-.352.622-.7,1.245-1.055,1.858-.462.8-.924,1.607-1.4,2.39a1.366,1.366,0,0,1-.08.131l-.241.392a2.459,2.459,0,0,1-.131.221c-.311.522-.622,1.034-.954,1.546-.311.512-.643,1.035-.974,1.537-.231.382-.472.753-.723,1.125-.372.582-.754,1.155-1.145,1.727q-.859,1.281-1.748,2.531c-.813,1.175-1.657,2.33-2.521,3.475q-.918,1.236-1.868,2.441c-.261.342-.522.673-.793,1-.1.131-.211.262-.312.392-.17.211-.331.412-.5.613-.01.03-.02.05-.05.06a.052.052,0,0,1-.02.04l-.382.472c-.05.061-.1.121-.14.171a.625.625,0,0,0-.041.05,2.108,2.108,0,0,0-.14.171c-.03.03-.061.07-.091.1-.642.774-1.3,1.547-1.948,2.31-.311.372-.633.734-.954,1.1-.251.3-.513.593-.774.884-.06.07-.12.141-.18.2-.754.854-1.527,1.7-2.31,2.521q-.934,1.01-1.9,1.988c-.351.362-.7.724-1.054,1.075q-.5.513-.995,1l-.16.16c-.231.231-.462.462-.7.683q-1.794,1.762-3.676,3.455c-.362.332-.724.653-1.085.974q-2.4,2.156-4.9,4.189c-.272.231-.553.452-.824.663-.783.632-1.577,1.255-2.37,1.868-.523.411-1.055.813-1.587,1.205-.251.2-.5.392-.764.572-.221.171-.452.342-.683.5-.18.13-.351.261-.532.381-.4.3-.8.593-1.215.874-.321.231-.633.452-.954.673-.643.452-1.286.894-1.939,1.326q-1.069.723-2.139,1.416c-.331.221-.663.442-.994.643q-.693.451-1.386.873c-1.045.653-2.089,1.286-3.144,1.909-.773.452-1.557.9-2.34,1.346q-3.119,1.763-6.328,3.364-2.2,1.1-4.459,2.15l-2.019.9c-.221.1-.432.191-.653.282-1.165.512-2.34,1-3.515,1.476-.783.322-1.567.633-2.36.934-.954.372-1.919.733-2.883,1.085a.487.487,0,0,1-.07.03c-.944.332-1.888.663-2.842.984l-1.356.452a1.415,1.415,0,0,0-.2.071c-.111.03-.221.07-.332.1-.411.141-.823.271-1.245.392q-1.341.422-2.682.813a.5.5,0,0,1-.13.04c-.975.282-1.959.553-2.953.824-.583.161-1.155.311-1.738.452-.421.111-.853.221-1.275.321-1.005.252-2.019.482-3.033.714h-.01c-.111.03-.231.06-.342.08l-1.386.3c-.763.161-1.527.322-2.3.462a.037.037,0,0,1-.03.01c-.623.121-1.246.241-1.868.352s-1.246.221-1.878.321c-.472.081-.944.161-1.417.231-.542.091-1.094.171-1.637.241-.291.05-.592.091-.884.131l-.652.09c-.171.03-.332.05-.5.07l-.512.061-1.185.15c-.321.041-.643.081-.964.111s-.653.07-.974.11h-.01c-.111.01-.221.02-.332.041q-4.986.511-10.074.693-1.085.045-2.169.06c-.372.01-.753.02-1.125.02-.693.02-1.386.02-2.079.02q-5.332,0-10.576-.372h-.01c-.141-.01-.281-.02-.432-.04s-.331-.02-.5-.04a3.245,3.245,0,0,1-.432-.03l-.422-.03-.371-.03a.131.131,0,0,1-.061-.01l-.381-.031c-.282-.02-.563-.05-.844-.08l-.3-.03a.283.283,0,0,1-.091-.01c-.532-.05-1.054-.1-1.587-.161-1.657-.171-3.294-.381-4.931-.612-.944-.131-1.9-.282-2.832-.442-.663-.1-1.326-.211-1.989-.322s-1.346-.241-2.009-.371c-.492-.091-.994-.191-1.476-.292-.623-.12-1.225-.251-1.838-.381-.7-.151-1.416-.3-2.119-.472h-.01c-.955-.211-1.909-.442-2.853-.683-.823-.211-1.647-.422-2.46-.643-1.005-.271-2.009-.553-3-.844-.311-.09-.632-.181-.944-.281l-.251-.07-.01-.01a2.26,2.26,0,0,1-.241-.071c-3.907-1.185-7.754-2.531-11.51-4.027-.663-.261-1.326-.532-1.989-.8q-.888-.361-1.777-.753-.844-.346-1.657-.723h-.021c-.16-.08-.311-.151-.472-.221-.08-.03-.17-.07-.251-.11h-.01c-.12-.051-.241-.111-.361-.171-.954-.432-1.9-.874-2.843-1.326-.894-.432-1.777-.864-2.661-1.316-.523-.251-1.035-.522-1.547-.793-.422-.211-.844-.432-1.255-.663q-.693-.361-1.356-.723a146.807,146.807,0,0,1-16.643-10.6c-.994-.734-1.988-1.477-2.963-2.24-1-.773-2.008-1.577-3-2.38s-1.968-1.628-2.932-2.461-1.929-1.677-2.873-2.531c-.05-.04-.1-.091-.15-.131-.854-.773-1.688-1.556-2.522-2.35-.06-.06-.13-.12-.2-.191-.9-.863-1.788-1.727-2.662-2.611s-1.758-1.788-2.611-2.692a1.94,1.94,0,0,1-.141-.15c-.773-.814-1.526-1.627-2.28-2.461a2.87,2.87,0,0,1-.231-.261c-.13-.141-.251-.281-.381-.422-.071-.081-.151-.161-.211-.241-.382-.432-.764-.864-1.145-1.306-1.376-1.587-2.712-3.2-4.028-4.841l-1.175-1.506c-.422-.543-.834-1.085-1.245-1.638-.733-.974-1.447-1.948-2.16-2.942-.412-.573-.813-1.145-1.215-1.728a147.343,147.343,0,0,1-7.824-12.6c-.593-1.074-1.185-2.169-1.748-3.264-.321-.613-.643-1.235-.954-1.858-.432-.864-.864-1.727-1.275-2.611-.422-.864-.824-1.748-1.226-2.632-.311-.683-.612-1.356-.9-2.039-.02-.04-.04-.08-.06-.13s-.04-.081-.06-.131c-.271-.612-.532-1.225-.774-1.848-.381-.894-.753-1.8-1.094-2.7q-.092-.227-.181-.452l-.181-.453c-.07-.19-.15-.381-.221-.582-.361-.964-.723-1.928-1.084-2.913a.983.983,0,0,0-.051-.15c-.211-.613-.432-1.226-.643-1.838-.261-.754-.512-1.507-.753-2.27-.14-.4-.271-.814-.392-1.226-.02-.07-.05-.15-.07-.22-.161-.523-.321-1.045-.482-1.577-.03-.091-.06-.191-.09-.282-.362-1.2-.7-2.41-1.025-3.625-.08-.281-.15-.553-.221-.834-.06-.221-.12-.452-.17-.673-.131-.5-.262-.994-.382-1.5a2.716,2.716,0,0,1-.07-.272v-.01l-.01-.01a1.846,1.846,0,0,1-.051-.241,2.38,2.38,0,0,1-.09-.361l-.01-.01c0-.03-.01-.051-.01-.081-.332-1.335-.633-2.691-.914-4.047-.121-.583-.241-1.165-.352-1.748-.13-.653-.251-1.306-.371-1.958-.131-.693-.251-1.386-.372-2.079-.02-.111-.04-.221-.05-.332-.06-.311-.111-.633-.161-.954-.08-.482-.15-.974-.221-1.466-.09-.593-.171-1.175-.251-1.768-.02-.121-.04-.231-.05-.342s-.03-.22-.05-.331c-.041-.291-.071-.572-.111-.864-.06-.492-.12-.974-.181-1.466a1.958,1.958,0,0,0-.02-.241c-.05-.452-.1-.914-.15-1.376l-.151-1.487a66.042,66.042,0,0,0,9.873,12.987c.874.914,1.8,1.8,2.742,2.662a65.56,65.56,0,0,0,10.2,7.6c.01,0,.02.011.03.011a71.927,71.927,0,0,0,12.846,6.146h.01a77.912,77.912,0,0,0,11.711,3.275,85.739,85.739,0,0,0,12.926,1.586q3.646.182,7.3.061a91.767,91.767,0,0,0,10.486-.944h.01q4.278-.633,8.467-1.658c.673-.16,1.335-.331,2-.512h.01c24.7-6.588,46.261-22.237,63.918-40.757,11.51-12.083,21.644-25.511,34.028-36.72a132.324,132.324,0,0,1,34.109-22.357.611.611,0,0,1,.12-.05c2.852-1.3,5.755-2.491,8.688-3.566q1.234-.452,2.471-.873c.582-.2,1.165-.392,1.747-.583q4.716-1.537,9.6-2.642c.161-.04.311-.08.472-.11a98.972,98.972,0,0,1,34.158-1.778c.633.091,1.276.181,1.909.282.311.662.612,1.315.914,1.978q.618,1.326,1.2,2.652c.713,1.577,1.406,3.153,2.079,4.74.311.693.613,1.386.9,2.089v.01a.772.772,0,0,1,.141.041v.01c.04.1.08.2.11.3l.09.241a2.154,2.154,0,0,1,.091.241.6.6,0,0,1,.05.121c.02.05.04.11.06.16.141.382.271.754.4,1.135a.3.3,0,0,1,.04.1l.422,1.175c.3.853.593,1.717.884,2.591.161.482.311.964.462,1.446a1.416,1.416,0,0,1,.09.292c.312.984.613,1.968.9,2.962.271.914.523,1.828.774,2.742.04.121.07.241.1.372.181.673.352,1.336.522,2.009.342,1.305.653,2.621.944,3.937.221,1,.442,2,.643,3,0,.02.01.04.01.07.211,1.025.412,2.059.593,3.094s.361,2.079.522,3.113.311,2.059.452,3.094a.06.06,0,0,1,.01.04,1.4,1.4,0,0,1,.03.271c.111.8.211,1.617.312,2.431.241,2.018.431,4.037.582,6.076.06.623.1,1.245.131,1.868.03.422.06.844.07,1.276.05.813.09,1.627.12,2.45.031.754.051,1.517.071,2.28.03,1.135.04,2.27.04,3.4" fill="#23bafd"/>
            <g id="Grupo_242704" data-name="Grupo 242704" opacity="0.5" style="mix-blend-mode: multiply;isolation: isolate">
              <g id="Grupo_242703" data-name="Grupo 242703">
                <g id="Grupo_242702" data-name="Grupo 242702" clip-path="url(#clip-path-3)">
                  <path id="Trazado_243059" data-name="Trazado 243059" d="M377.517,239.933c0,.783-.01,1.577-.02,2.36-.01.643-.02,1.286-.04,1.929-.01.211-.01.421-.02.632-.031.9-.071,1.818-.121,2.722.01.01,0,.01,0,.01-.01.392-.04.784-.06,1.175a.28.28,0,0,1-.01.091c-.01.331-.03.663-.06.994-.031.563-.071,1.115-.121,1.667-.06.834-.131,1.658-.211,2.481a2.126,2.126,0,0,1-.03.251q-.135,1.416-.3,2.833c-.1.944-.221,1.888-.352,2.822s-.261,1.868-.4,2.8c-.07.482-.15.964-.231,1.446q-.24,1.447-.512,2.893c-.11.643-.231,1.285-.361,1.918-.1.492-.191.975-.3,1.457s-.191.934-.3,1.4c-.151.7-.3,1.4-.472,2.079-.2.853-.4,1.707-.623,2.551,0,.02-.01.03-.01.05-.231.884-.462,1.768-.7,2.641-.171.643-.351,1.276-.542,1.909-.121.462-.261.914-.4,1.376-.161.552-.331,1.105-.5,1.657q-1.341,4.308-2.943,8.487c-.2.542-.412,1.075-.633,1.617-.191.5-.391.994-.592,1.476-.231.573-.462,1.135-.7,1.7v.01c-.051.11-.1.221-.141.321-.412.984-.844,1.949-1.286,2.913-.381.854-.773,1.7-1.175,2.551-.412.874-.843,1.758-1.275,2.631a.208.208,0,0,0-.03.051c-.442.883-.9,1.777-1.366,2.651l-.121.241c-.171.332-.351.663-.522.984-.3.573-.613,1.135-.924,1.7-.352.622-.7,1.245-1.055,1.858-.462.8-.924,1.607-1.4,2.39a1.366,1.366,0,0,1-.08.131c-.07.11-.141.231-.2.341a.193.193,0,0,1-.04.051,2.459,2.459,0,0,1-.131.221c-.311.522-.633,1.034-.954,1.546s-.643,1.035-.974,1.537c-.231.382-.472.753-.723,1.125-.372.582-.754,1.155-1.145,1.727q-.859,1.281-1.748,2.531c-.813,1.175-1.657,2.33-2.521,3.475q-.918,1.236-1.868,2.441c-.261.342-.522.673-.793,1-.1.131-.2.262-.312.392-.16.211-.321.412-.5.613-.01.03-.02.05-.05.06-.08.111-.171.211-.261.321-.091.131-.191.241-.281.362a.625.625,0,0,0-.041.05,2.108,2.108,0,0,0-.14.171c-.03.03-.061.07-.091.1-.642.774-1.3,1.547-1.948,2.31-.311.372-.633.734-.954,1.1-.251.3-.513.593-.774.884-.06.07-.12.141-.18.2-.754.854-1.527,1.7-2.31,2.521q-.934,1.01-1.9,1.988c-.351.362-.7.724-1.054,1.075q-.5.513-.995,1c-.03.03-.05.06-.08.07-.261.261-.522.512-.783.773q-1.794,1.762-3.676,3.455c-.362.332-.724.653-1.085.974q-2.4,2.156-4.9,4.189c-.272.221-.543.442-.824.663-.783.632-1.577,1.255-2.37,1.868-.523.411-1.055.813-1.587,1.205-.251.2-.5.392-.764.572-.4.3-.8.593-1.215.884s-.8.593-1.215.874c-.954.683-1.918,1.346-2.893,2q-1.069.723-2.139,1.416c-.331.221-.663.442-.994.643q-.693.451-1.386.873c-1.045.653-2.089,1.286-3.144,1.909-.773.452-1.557.9-2.34,1.346q-3.119,1.763-6.328,3.364-2.2,1.1-4.459,2.15l-2.019.9c-.221.091-.432.191-.653.282-1.165.512-2.34,1-3.515,1.476-.783.322-1.567.633-2.36.934-.954.372-1.919.733-2.883,1.085a.487.487,0,0,1-.07.03c-.944.332-1.888.663-2.842.984l-1.356.452a1.415,1.415,0,0,0-.2.071c-.07.02-.151.04-.221.06a.355.355,0,0,1-.111.04c-.411.141-.823.271-1.245.392q-1.341.422-2.682.813a.5.5,0,0,1-.13.04c-.975.282-1.959.553-2.953.824-.583.161-1.155.311-1.738.452-.421.111-.853.221-1.275.321-1.005.252-2.019.482-3.033.714h-.01c-.111.03-.231.06-.342.08l-1.386.3c-.763.161-1.527.322-2.3.462a.037.037,0,0,1-.03.01c-.623.121-1.246.241-1.868.352s-1.246.221-1.878.321c-.472.081-.944.161-1.417.231-.542.091-1.094.171-1.637.241-.291.05-.592.091-.884.131l-.652.09c-.171.03-.332.05-.5.07l-.512.061-1.185.15c-.321.041-.643.081-.964.111s-.653.07-.974.11h-.01c-.111.01-.221.02-.332.041q-4.986.511-10.074.693-1.085.045-2.169.06c-.372.01-.743.02-1.125.02-.693.02-1.386.02-2.079.02q-5.332,0-10.576-.372h-.01c-.141-.01-.281-.02-.432-.04s-.331-.02-.5-.04l-.432-.03-.422-.03-.371-.03a.131.131,0,0,1-.061-.01l-.381-.031c-.282-.02-.563-.05-.844-.08l-.3-.03a.283.283,0,0,1-.091-.01c-.532-.05-1.054-.1-1.587-.161-1.657-.171-3.294-.381-4.931-.612-.944-.131-1.9-.282-2.832-.442-.663-.1-1.326-.211-1.989-.322s-1.346-.241-2.009-.371c-.492-.091-.994-.191-1.476-.292-.623-.12-1.225-.251-1.838-.381-.7-.151-1.416-.3-2.119-.472h-.01c-.955-.211-1.909-.442-2.853-.683-.823-.211-1.647-.422-2.46-.643-1.005-.271-2.009-.553-3-.844-.311-.09-.632-.181-.944-.281l-.251-.07-.01-.01a2.26,2.26,0,0,1-.241-.071c-3.907-1.185-7.754-2.531-11.51-4.027-.663-.261-1.326-.532-1.989-.8q-.888-.361-1.777-.753-.844-.346-1.657-.723h-.021c-.16-.08-.311-.151-.472-.221-.08-.03-.17-.07-.251-.11h-.01c-.12-.051-.241-.111-.361-.171-.954-.432-1.9-.874-2.843-1.326-.894-.432-1.777-.864-2.661-1.316-.523-.251-1.035-.522-1.547-.793-.422-.211-.844-.432-1.255-.663q-.693-.361-1.356-.723a146.807,146.807,0,0,1-16.643-10.6c-.994-.734-1.988-1.477-2.963-2.24-1-.773-2.008-1.577-3-2.38s-1.968-1.628-2.932-2.461-1.929-1.677-2.873-2.531c-.05-.04-.1-.091-.15-.131-.854-.773-1.688-1.556-2.522-2.35-.06-.06-.13-.12-.2-.191-.9-.863-1.788-1.727-2.662-2.611s-1.758-1.788-2.611-2.692a1.94,1.94,0,0,1-.141-.15c-.773-.814-1.526-1.627-2.28-2.461a2.87,2.87,0,0,1-.231-.261c-.13-.141-.251-.281-.381-.422-.071-.081-.151-.161-.211-.241-.382-.432-.764-.864-1.145-1.306-1.376-1.587-2.712-3.2-4.028-4.841l-1.175-1.506c-.422-.543-.834-1.085-1.245-1.638-.733-.974-1.447-1.948-2.16-2.942-.412-.573-.813-1.145-1.215-1.728a147.343,147.343,0,0,1-7.824-12.6,118.182,118.182,0,0,0,49.545,21.5,127.65,127.65,0,0,0,29.2,2.039c15.206-.7,30.633-4.319,44.112-11.249a80.982,80.982,0,0,0,18.269-12.715c.573-.533,1.146-1.075,1.708-1.648q2.214-2.184,4.238-4.58a88.8,88.8,0,0,0,10.275-15.376c.452-.824.884-1.658,1.316-2.5.492-.975.984-1.949,1.446-2.943h.01C269.3,266,274.67,245.929,284.372,229.467c.693-1.185,1.416-2.35,2.159-3.495a64.9,64.9,0,0,1,16.352-17.616c9.169-6.629,20.107-10.235,31.245-12.545,1.949-.412,3.907-.773,5.866-1.105a119.232,119.232,0,0,1,17.315-1.848h.01c.613-.02,1.215-.03,1.828-.03h.01c1.436,0,2.863.04,4.289.121a61.985,61.985,0,0,1,6.689.753c.161.482.311.964.462,1.446a1.416,1.416,0,0,1,.09.292c.312.984.613,1.968.9,2.962.271.914.523,1.828.774,2.742.04.121.07.241.1.372.181.673.352,1.336.522,2.009.342,1.305.653,2.621.944,3.937.221,1,.442,2,.643,3,0,.02.01.04.01.07.211,1.025.412,2.059.593,3.094s.361,2.079.522,3.113.311,2.059.452,3.094a.06.06,0,0,1,.01.04,1.4,1.4,0,0,1,.03.271c.111.8.211,1.617.312,2.431.241,2.018.431,4.037.582,6.076.06.623.1,1.245.131,1.868.03.422.06.844.07,1.276.05.813.09,1.627.12,2.45.031.754.051,1.517.071,2.28.03,1.135.04,2.27.04,3.4" fill="#23bafd"/>
                </g>
              </g>
            </g>
            <g id="Grupo_242707" data-name="Grupo 242707" opacity="0.31" style="mix-blend-mode: multiply;isolation: isolate">
              <g id="Grupo_242706" data-name="Grupo 242706">
                <g id="Grupo_242705" data-name="Grupo 242705" clip-path="url(#clip-path-4)">
                  <path id="Trazado_243060" data-name="Trazado 243060" d="M360.021,309.709A147.852,147.852,0,0,1,208.934,386.1c10.787-11.249,19.113-24.788,29.237-36.719,17.557-20.66,41.189-36.64,67.654-42.566a99.839,99.839,0,0,1,54.2,2.893" fill="#0098e3"/>
                </g>
              </g>
            </g>
            <path id="Trazado_243061" data-name="Trazado 243061" d="M368.1,187.936c-.04-.01-.08-.03-.121-.04-.562-.191-1.135-.372-1.707-.542a78.389,78.389,0,0,0-10.737-2.532,92.272,92.272,0,0,0-49.816,5.976,102.675,102.675,0,0,0-11.812,5.776c-.13.08-.271.15-.4.231-16.372,9.4-30.905,23.431-42.555,41.2-3.094,4.7-5.976,9.672-8.758,14.463-4.791,8.255-9.743,16.783-15.89,24.265-.14.171-.281.342-.432.512h-.009a89.578,89.578,0,0,1-34.34,25.089c-.4.171-.8.342-1.205.5a91.206,91.206,0,0,1-33.918,6.649,84.9,84.9,0,0,1-10.124-.6c-1.4-.171-2.792-.372-4.178-.6a88.1,88.1,0,0,1-18.621-5.373l-1.295-.542q-3.225-1.386-6.358-3.034c-.231-.12-.462-.241-.683-.361a93.4,93.4,0,0,1-28.655-23.743v-.01l-.01-.011a2.02,2.02,0,0,1-.05-.241,2.38,2.38,0,0,1-.09-.361l.01.01a92.488,92.488,0,0,0,20.368,18.9,91.561,91.561,0,0,0,24.869,11.992.075.075,0,0,0,.05.01,83.069,83.069,0,0,0,10.566,2.511c1.366.241,2.732.442,4.108.6a91.627,91.627,0,0,0,78.662-30.714h.01c.02,0,.01-.01.01-.01.391-.442.763-.884,1.125-1.325,6.136-7.473,11.078-16,15.859-24.236,2.792-4.8,5.674-9.772,8.768-14.483a136.811,136.811,0,0,1,23.984-27.831,114.372,114.372,0,0,1,19.043-13.639c.181-.111.371-.221.552-.322l.01-.01a103.512,103.512,0,0,1,11.289-5.494,92.557,92.557,0,0,1,50.329-5.935,81.935,81.935,0,0,1,10.425,2.47c.493.151.985.312,1.477.472v.01a.822.822,0,0,1,.14.041v.01h.01c.031.1.071.2.1.3" fill="#84dffd"/>
            <path id="Trazado_243062" data-name="Trazado 243062" d="M370.687,195.439q-3.812-1.055-7.694-1.747c-1.878-.342-3.776-.623-5.674-.834h-.01a89.952,89.952,0,0,0-17.245-.332c-.01,0-.01,0-.02.01a86.118,86.118,0,0,0-17.868,3.234,88.739,88.739,0,0,0-27.65,13.851,2.04,2.04,0,0,1-.181.13,90.108,90.108,0,0,0-10.907,9.6,86.1,86.1,0,0,0-10.787,13.6,120.924,120.924,0,0,0-6.006,10.7.01.01,0,0,0-.01.01c-1.457,2.882-2.853,5.795-4.219,8.667-2.159,4.53-4.389,9.22-6.85,13.68A127.176,127.176,0,0,1,232.3,296.267c-1.044,1.005-2.1,1.979-3.153,2.923-8.668,7.714-17.537,13.147-26.476,16.221-1.295.442-2.6.843-3.906,1.185a64.027,64.027,0,0,1-16.412,2.039,102.213,102.213,0,0,1-22.578-2.823c-6.137-1.4-12.143-3.163-17.888-4.991-.8-.261-1.607-.512-2.41-.774-1.185-.391-2.381-.773-3.566-1.165-12.986-4.218-26.284-8.557-39.733-9.832-.562-.061-1.134-.111-1.7-.151-.02-.04-.04-.08-.06-.131s-.04-.08-.06-.13h.01c.492.04.984.08,1.476.13.01-.01.01-.01.02.01,13.589,1.236,27.008,5.6,40.114,9.863,1.2.392,2.391.784,3.576,1.165.753.241,1.517.492,2.28.734,6,1.908,12.283,3.756,18.7,5.182,12.565,2.792,25.652,3.947,38.156.633,1.155-.3,2.31-.653,3.465-1.045,8.879-2.963,17.687-8.276,26.295-15.849h.01q1.838-1.626,3.666-3.374a126.94,126.94,0,0,0,23.21-30.2c2.461-4.459,4.691-9.139,6.85-13.669,1.286-2.7,2.591-5.444,3.968-8.166a126.18,126.18,0,0,1,6.277-11.228A87.451,87.451,0,0,1,283.418,219a92.439,92.439,0,0,1,10.6-9.31c.11-.08.231-.161.341-.251a88.877,88.877,0,0,1,27.751-13.911,86.969,86.969,0,0,1,18.53-3.3,90.508,90.508,0,0,1,18.511.6h.01q2,.27,3.977.632,3.766.678,7.463,1.688a1.407,1.407,0,0,1,.09.291" fill="#84dffd"/>
            <path id="Trazado_243063" data-name="Trazado 243063" d="M376.191,220.146a89,89,0,0,0-30.483-2.611c-.954.07-1.9.16-2.842.271-1.235.14-2.471.311-3.7.5a91.088,91.088,0,0,0-38.658,15.538,81.02,81.02,0,0,0-11.741,10.134c-8.608,9.009-15.236,19.846-21.624,30.412l-.633,1.055c-1.225,2.038-2.5,4.147-3.766,6.207-.312.5-.623,1-.934,1.516q-1.869,3.013-3.877,6.107a215.532,215.532,0,0,1-14.513,19.956,133.941,133.941,0,0,1-18.2,18.39,91.56,91.56,0,0,1-24.517,14.7,88.578,88.578,0,0,1-28.544,5.946c-1.587.07-3.184.111-4.791.111a113.032,113.032,0,0,1-21.935-2.21,144.747,144.747,0,0,1-25.461-7.643c-.131-.141-.251-.281-.382-.422a145.59,145.59,0,0,0,25.893,7.824,111.008,111.008,0,0,0,26.525,2.1,88.681,88.681,0,0,0,28.6-5.936,91.569,91.569,0,0,0,24.647-14.824,131.458,131.458,0,0,0,16.451-16.391,216.567,216.567,0,0,0,17.536-24.105c.714-1.115,1.417-2.23,2.1-3.335h.01c.391-.643.783-1.285,1.175-1.918,1.255-2.059,2.531-4.168,3.766-6.207.291-.482.573-.954.864-1.436,6.317-10.456,12.906-21.152,21.423-30.081a81.446,81.446,0,0,1,11.621-10.054,91.009,91.009,0,0,1,34.921-15.025c1.3-.261,2.6-.492,3.9-.693,1.386-.221,2.772-.4,4.158-.553.864-.1,1.738-.18,2.6-.251a92.133,92.133,0,0,1,11.148-.241,88.188,88.188,0,0,1,19.224,2.893,1.4,1.4,0,0,1,.03.271" fill="#84dffd"/>
            <path id="Trazado_243064" data-name="Trazado 243064" d="M376.854,254a2.152,2.152,0,0,1-.03.251A111.927,111.927,0,0,0,264.636,291.56c-7.171,8.638-13.177,18.521-18.982,28.082-9.21,15.176-18.742,30.875-33.1,41.611a69.812,69.812,0,0,1-37.011,13.469c-1.778.13-3.556.191-5.323.191h-.272c-.16-.081-.311-.151-.472-.221-.08-.03-.17-.071-.251-.111,15.407.211,30.935-4.379,43.188-13.539,14.312-10.7,23.824-26.374,33.034-41.53,5.805-9.572,11.811-19.465,19-28.112A112.186,112.186,0,0,1,376.854,254" fill="#84dffd"/>
            <path id="Trazado_243065" data-name="Trazado 243065" d="M365.936,297.365c-.05.111-.1.221-.141.321a53.006,53.006,0,0,1-24.325,3.074c-6.78-.774-13.409-2.853-19.817-4.861-3.344-1.055-6.8-2.14-10.234-3.024-12.4-3.193-22.578-2.751-30.252,1.326-9.28,4.942-14.6,14.754-18.59,23.7-2.27,5.092-4.359,10.365-6.368,15.468-2.491,6.3-5.072,12.825-8.015,19.052-6.327,13.389-13.489,23.211-21.9,30.011a51.587,51.587,0,0,1-7,4.771h-.01c-.14-.01-.281-.021-.432-.04a50.508,50.508,0,0,0,7.292-4.922c8.367-6.779,15.508-16.572,21.815-29.92,2.943-6.227,5.514-12.745,8.015-19.053,2.009-5.1,4.1-10.375,6.368-15.467,4-8.989,9.35-18.852,18.711-23.824,7.723-4.108,17.968-4.56,30.422-1.346,3.445.884,6.9,1.969,10.245,3.024,6.4,2.008,13.016,4.077,19.776,4.851a52.982,52.982,0,0,0,24.436-3.144" fill="#84dffd"/>
            <path id="Trazado_243066" data-name="Trazado 243066" d="M360.663,308.484c-.04.08-.08.161-.121.241-9.481-.834-18.831-4.279-27.951-7.633-1.446-.532-2.873-1.055-4.3-1.577-12.7-4.58-29.036-9.009-42.655-2.551-13.107,6.207-19.234,20.479-21.715,28.434a163,163,0,0,0-4.67,21.7c-.8,4.751-1.637,9.662-2.732,14.443-2.43,10.566-6.016,18.9-10.857,25.2h-.01c-.111.01-.221.02-.331.04,4.891-6.3,8.506-14.653,10.957-25.3,1.1-4.76,1.919-9.682,2.722-14.432a165.765,165.765,0,0,1,4.68-21.735c2.5-7.985,8.658-22.327,21.845-28.584,13.71-6.5,30.1-2.049,42.847,2.551,1.426.512,2.862,1.044,4.3,1.567,9.14,3.364,18.511,6.819,27.992,7.633" fill="#84dffd"/>
            <path id="Trazado_243067" data-name="Trazado 243067" d="M344.021,333.583c-.08.09-.151.181-.231.271-2.29.231-4.58.382-6.83.533-2.45.17-4.991.341-7.482.592C308.718,337.118,291,345.374,279.6,358.24c-4.53,5.112-8.176,11.058-11.7,16.813-1.838,2.993-3.7,6.027-5.7,8.969h-.01c-.11.03-.231.061-.341.081,2.049-3.013,3.957-6.117,5.825-9.18,3.535-5.765,7.191-11.721,11.731-16.854,11.45-12.906,29.217-21.2,50.038-23.331,2.49-.261,5.042-.432,7.5-.6,2.33-.16,4.7-.321,7.071-.552" fill="#84dffd"/>
            <g id="Grupo_242710" data-name="Grupo 242710" style="mix-blend-mode: multiply;isolation: isolate">
              <g id="Grupo_242709" data-name="Grupo 242709">
                <g id="Grupo_242708" data-name="Grupo 242708" clip-path="url(#clip-path-5)">
                  <path id="Trazado_243068" data-name="Trazado 243068" d="M196.67,383.821h-.01c-.251-.281-.482-.573-.713-.874-3.063-3.967-3.887-10.747.462-13.237.954-.543,2.049-.8,2.963-1.4,3.324-2.179,2.822-7.472,5.614-10.314,2.23-2.27,6.147-2.491,7.955-5.113,1.858-2.7.512-6.428,1.245-9.621.794-3.455,3.867-5.806,6.328-8.367s6.227-6.87,4.168-9.752a22.585,22.585,0,0,0-16.492-9.25c-4.118-.3-9.471-.151-10.927-4.028-.593-1.587-.232-3.4-.694-5.032-1.476-5.213-9.049-4.77-13.6-7.7-5.755-3.706-6.93-13.278-13.629-14.7-5.514-1.185-10.013,4.228-13.047,8.989-2.551.351-4.258-2.411-5.514-4.65s-3.846-4.631-6.026-3.275a7.716,7.716,0,0,1-14.643.764c-.854-2.19-.844-4.972-2.752-6.338-1.2-.853-2.853-.884-4.008-1.8-3.726-2.932,1.135-11.128-3.264-12.916-4.379-1.777-7.181,7.573-11.711,6.207a5.058,5.058,0,0,1-2.39-1.918c-4.369-5.655-4.54-14.493.351-19.706s14.584-5.162,18.782.633c.7.974,1.386,2.169,2.571,2.42,1.8.382,3.184-1.787,3.083-3.625s-1.084-3.516-1.315-5.344c-.5-3.917,2.45-7.442,5.654-9.762s6.93-4.078,9.321-7.232c3.957-5.222,3.6-13.458,9.009-17.154,2.21-1.5,4.962-1.9,7.563-2.5s5.333-1.577,6.85-3.786.984-5.9-1.557-6.73c-1.939-.632-3.937.573-5.866,1.246s-4.75.281-5.082-1.728c-.211-1.285.774-2.44,1.758-3.294a24.345,24.345,0,0,1,12.685-5.765c3.857-.532,7.925-.141,11.52-1.627s6.428-5.986,4.369-9.281c-1.687-2.7-5.433-2.993-8.617-2.993.974-3.354,3.264-6.267,3.826-9.7s-1.978-7.814-5.373-7.04c-1.908.442-3.1,2.249-4.53,3.585s-3.947,2.14-5.172.613c-1.426-1.768.522-4.249.663-6.508.271-4.078-5.916-5.876-9.09-3.315s-3.786,7.131-3.756,11.209c.02,3.505-.1,7.814-3.214,9.4-1.185.612-2.611.673-3.706,1.416-3.867,2.621-.533,10.666-4.881,12.374-3.355,1.315-5.926-3.4-5.806-7s.824-7.994-2.079-10.144c-1.366-1.014-3.244-1.2-4.539-2.3-2.863-2.481-.894-7.171,1.486-10.124a63.72,63.72,0,0,1,16.07-14.222c6.307-3.907,13.569-6.96,17.757-13.087-.211-2.059-3.043-2.772-4.982-2.018s-3.445,2.34-5.393,3.053-4.771-.1-4.871-2.18c-.071-1.4,1.125-2.48,2.219-3.354q3.8-3.043,7.593-6.077c1.979-1.586,4.138-3.485,4.279-6.016a3.588,3.588,0,0,0-1.627-3,147.6,147.6,0,0,0-79.707,131.11c0,.573,0,1.135.01,1.708.01.532.02,1.054.041,1.587,4.7,4.539,6.267,11.51,8.195,17.837,2.049,6.7,5.695,13.981,12.485,15.769,2.149.572,4.429.512,6.6,1.014,9.7,2.24,13.991,14.463,23.261,18.079,2.33.914,4.882,1.225,7.131,2.32s4.249,3.334,3.907,5.815c-.271,1.949-1.908,3.535-2.059,5.494-.14,1.758.934,3.365,1.3,5.092.432,2.009-.131,4.078-.121,6.137.031,6.558,5.725,11.661,11.47,14.834s12.244,5.575,16.351,10.7c3.817,4.761,4.9,11.068,6.78,16.873a59.716,59.716,0,0,0,9.572,18.109Z" fill="#1faa8c"/>
                  <path id="Trazado_243069" data-name="Trazado 243069" d="M215.984,92.937c-.673,1.165-2.631,1.758-4.168,2.009-3.415.572-6.91,1.938-8.929,4.75-1.376,1.909-1.928,4.289-3.053,6.358s-3.264,3.957-5.584,3.546c-1.869-.332-3.154-2.009-4.761-3.044-2.32-1.5-5.313-1.577-8.025-1.034s-5.263,1.677-7.925,2.45c-2.119.623-6.2.824-7.673-1.124a146.8,146.8,0,0,1,50.118-13.911" fill="#1faa8c"/>
                  <path id="Trazado_243070" data-name="Trazado 243070" d="M377.517,239.933c0,.783-.01,1.577-.02,2.36-.01.643-.02,1.286-.04,1.929-.01.211-.01.421-.02.632-.031.9-.071,1.818-.121,2.722.01.01,0,.01,0,.01a17.834,17.834,0,0,1-2.209,2.561c-.754.724-1.587,1.427-2.411,2.13l-.241.211c-.171.15-.352.3-.522.462a2.165,2.165,0,0,0-.241.21c-1.919,1.708-3.586,3.546-3.827,6.027-.171,1.747.452,3.465.8,5.182,1.005,4.982-.331,10.1-1.667,15.006a12.2,12.2,0,0,1-2.31,5.182c-1.275,1.426-3.525,2.159-5.132,1.145-1.788-1.115-1.938-3.606-1.9-5.7q.21-10.637.432-21.272c-2.4-1.487-4.51,2.35-4.711,5.162a149.412,149.412,0,0,0-.06,20.339c.241,3.6.723,7.452,3.143,10.114a18.276,18.276,0,0,1,2.863,3.133,4.168,4.168,0,0,1,.412,1.1c.03.09.04.181.06.261.02.141.04.271.05.412a1.231,1.231,0,0,1,.01.271,7.484,7.484,0,0,1-2.28,5.253,16.56,16.56,0,0,1-2.631,2.1h-.01c-.1.07-.191.141-.291.2h-.011c-.04.03-.06.05-.1.08-.181.121-.362.241-.552.352a3.459,3.459,0,0,1-.312.191.265.265,0,0,1-.06.05c-.864.552-1.738,1.1-2.551,1.717-7.553,5.625-9.893,15.568-14.362,23.954-.041.091-.091.171-.141.262-.09.17-.181.341-.281.512-.051.09-.091.171-.141.261a31.831,31.831,0,0,1-3.967,5.655c-6.76,7.552-17.5,10.395-24.728,17.516-3.495,3.435-6.177,7.874-10.5,10.174s-11.2.793-11.842-4.068c-.351-2.711,1.356-5.212,2.983-7.412,2.822-3.817,5.625-7.623,8.447-11.44.11-.15.231-.311.341-.462q.211-.285.422-.572c.111-.151.231-.312.342-.462q4.67-6.328,9.35-12.665a6.005,6.005,0,0,0,1.276-2.471c.271-1.768-1.075-3.324-1.918-4.9-2.5-4.62.17-11.641,4.911-13.891.311-.733.633-1.476.944-2.219.2-.673-.321-1.216-1-1.457a2.141,2.141,0,0,0-1.226-.09,7.7,7.7,0,0,0-1.446.572,4.925,4.925,0,0,1-1.657.533,2.83,2.83,0,0,1-.723-.041,3.246,3.246,0,0,1-1.115-.441c-1.286-.784-2.33-2.321-3.626-3.245-2.471-1.767-5.9-1.215-8.728-.12s-5.574,2.682-8.607,2.792a10.922,10.922,0,0,1-7.172-2.641c-.07-.061-.13-.121-.2-.171-.031-.02-.051-.05-.081-.07a2.3,2.3,0,0,0-.191-.161,15.469,15.469,0,0,1-2.48-2.832c-.02-.031-.051-.071-.071-.1-.05-.07-.09-.151-.14-.221-.02-.02-.03-.05-.05-.07-.041-.071-.091-.141-.141-.221-2.029-3.234-3.053-7-4.048-10.707-.17-.632-.331-1.255-.5-1.888-.03-.1-.05-.191-.08-.291-.01-.03-.01-.05-.02-.08-.03-.1-.051-.2-.081-.292a59.124,59.124,0,0,1-1.325-6.277c-.031-.181-.061-.372-.081-.552q-.135-1.024-.211-2.049a24.542,24.542,0,0,1-.04-2.712c0-.121,0-.231.01-.342a.972.972,0,0,1,.01-.17c0-.121.01-.241.02-.352v-.01A30.651,30.651,0,0,1,281.9,249.284a5.974,5.974,0,0,0,2.28-1.848c.673-1.135.422-2.562.4-3.887-.121-6.207,6.217-11.691,12.344-10.7a18.686,18.686,0,0,1,2.741.713c.1.041.2.071.3.1.08.03.16.05.241.08.1.03.2.06.3.1a14.365,14.365,0,0,0,4.118.853c3.124.03,5.9-1.838,8.748-3.113s6.559-1.878,8.808.291a7.417,7.417,0,0,1,1.8,3.314c.04.141.081.282.121.422.191.653.361,1.316.542,1.949a21.522,21.522,0,0,0,12.585,13.458c.161.071.291.131.452.191h.02c.341.131.683.251,1.034.372.2.06.392.12.593.18a19.926,19.926,0,0,0,9.26.573,10.053,10.053,0,0,0,3.254-1.135,2.987,2.987,0,0,0,.382-.241,4.777,4.777,0,0,0,.673-.512c.08-.081.161-.161.231-.241a4.146,4.146,0,0,0,.944-1.547c.814-2.521-1.075-5.012-2.541-7.221s-2.481-5.524-.432-7.212c1.015-.843,2.451-.914,3.716-1.315,3.546-1.125,5.715-5.093,5.434-8.809a11.916,11.916,0,0,0-3.063-6.829c-.081-.1-.161-.191-.251-.292-.161-.17-.322-.341-.483-.5-.09-.1-.19-.191-.291-.291a16.183,16.183,0,0,0-1.577-1.306c-2.27-1.627-5.785-2.551-7.593-.412a5.686,5.686,0,0,0-.984,1.989c-.03.1-.06.2-.09.311-.041.151-.091.3-.131.452-.03.1-.06.211-.08.312a4.421,4.421,0,0,1-1.768,2.892,3.05,3.05,0,0,1-3.264-.4,2.81,2.81,0,0,1-.281-.21,4.907,4.907,0,0,1-1.145-1.356,1.062,1.062,0,0,1-.081-.151c-.05-.09-.1-.191-.14-.281-.061-.131-.111-.261-.161-.392a1.462,1.462,0,0,1-.121-.281c-.522-1.376-.733-2.883-1.255-4.269-2.169-5.815-9.26-8.366-15.437-7.834a23.345,23.345,0,0,0-5.293,1.1c-.733.241-1.457.512-2.17.824-.01,0-.02.01-.03.02a25.72,25.72,0,0,0-7.613,5.122c-.552.542-1.085,1.1-1.577,1.687a23.973,23.973,0,0,0-4.208,7.011c-.753,1.968-1.306,4.108-2.732,5.654-2.159,2.32-5.9,2.632-8.808,1.406a9.013,9.013,0,0,1-1.959-1.124c-.13-.091-.251-.191-.371-.292a7.037,7.037,0,0,1-.764-.693,1.912,1.912,0,0,1-.15-.14,10.612,10.612,0,0,1-2.943-6.478c-.01-.121-.01-.241-.02-.352v-.12a2.186,2.186,0,0,1,0-.362,7.9,7.9,0,0,1,.281-2.109,9.5,9.5,0,0,1,9.692-6.8,2,2,0,0,1,.352.04,2.57,2.57,0,0,1,.271.04l.331.061a2.771,2.771,0,0,1,.392.09c-.07-.07-.141-.14-.211-.221-.06-.06-.11-.12-.171-.181s-.09-.1-.14-.15l-.161-.191c-2.752-3.375-2.772-8.567-.552-12.293a2.475,2.475,0,0,1,.261-.412c.12-.2.261-.392.4-.583a6.438,6.438,0,0,1,.411-.5l.01-.01a8.729,8.729,0,0,1,2.742-2.139c1.8-.894,3.978-1.356,5.143-2.983.964-1.366.944-3.124,1.225-4.791.04-.241.08-.482.141-.713a5.524,5.524,0,0,1,.381-1.125,3.8,3.8,0,0,1,.492-.814,4.816,4.816,0,0,1,.945-1.024,9.138,9.138,0,0,1,5.242-1.778,12.332,12.332,0,0,1,1.607-.01c.2.01.4.03.6.05.663.051,1.336.131,2.009.211.492.061.994.121,1.486.181a15.169,15.169,0,0,0,5.474-.151,8.662,8.662,0,0,0,4.128-2.491,6.33,6.33,0,0,0,.542-.642,2.229,2.229,0,0,0,.191-.231,4.428,4.428,0,0,0,.412-.583,9.015,9.015,0,0,0,1.406-6.147,8.683,8.683,0,0,0-.171-.873c-.06-.261-.13-.523-.211-.784-.592-1.988-1.516-3.917-1.466-5.976.08-3.254,2.551-5.956,3.294-9.119.9-3.807-.783-7.764-3.023-10.958s-5.092-6-6.98-9.421c-1.718-3.114-2.34-7.4-.322-10.1.081.06.151.121.231.181a148.41,148.41,0,0,1,38.247,44.071c.02.011.02.031.03.051q2.214,4.368,4.288,8.788c.02.05.051.09.071.141.311.662.612,1.315.914,1.978q.618,1.326,1.2,2.652c.713,1.577,1.406,3.153,2.079,4.74.311.693.613,1.386.9,2.089v.01a.772.772,0,0,1,.141.041v.01H368c.03.1.07.2.1.3h.01a2.272,2.272,0,0,1,.08.241,2.154,2.154,0,0,1,.091.241.6.6,0,0,1,.05.121c.02.05.04.11.06.16.141.382.271.754.4,1.135a.3.3,0,0,1,.04.1l.422,1.175c.3.853.593,1.717.884,2.591.161.482.311.964.462,1.446a1.416,1.416,0,0,1,.09.292c.312.984.613,1.968.9,2.962.271.914.523,1.828.774,2.742.04.121.07.241.1.372.181.673.352,1.336.522,2.009.342,1.305.653,2.621.944,3.937.221,1,.442,2,.643,3,0,.02.01.04.01.07.211,1.025.412,2.059.593,3.094s.361,2.079.522,3.113.311,2.059.452,3.094a.06.06,0,0,1,.01.04,1.4,1.4,0,0,1,.03.271c.111.8.211,1.617.312,2.431.241,2.018.431,4.037.582,6.076.06.623.1,1.245.131,1.868.03.422.06.844.07,1.276.05.813.09,1.627.12,2.45.031.754.051,1.517.071,2.28.03,1.135.04,2.27.04,3.4" fill="#1faa8c"/>
                  <path id="Trazado_243071" data-name="Trazado 243071" d="M291.162,122.787c-1.188,4.021.047,8.389,2.006,12.1,1.2,2.272,2.693,4.453,3.234,6.964.854,3.962-.786,7.98-1.38,11.989s.518,9.016,4.372,10.272c2.082.678,4.383.028,6.526.482,3.425.724,5.6,3.975,7.627,6.83a5.65,5.65,0,0,0,2.126,2.06,3.753,3.753,0,0,0,4.353-1.446,7.271,7.271,0,0,0,1.081-4.743c-.3-4.659-2.876-8.854-5.721-12.555-.79-1.028-1.589-2.576-.65-3.47.717-.682,1.871-.359,2.858-.418a4.334,4.334,0,0,0,3.7-4.019,8.006,8.006,0,0,0-1.941-5.473c-2.222-2.86-5.432-4.757-8.11-7.195s-4.948-5.9-4.3-9.468c.228-1.245.8-2.415.949-3.672,1.224-10.534-14.812-4.724-16.73,1.767" fill="#1faa8c"/>
                </g>
              </g>
            </g>
            <path id="Trazado_243072" data-name="Trazado 243072" d="M261.651,442.926c1.4-4.653,6.028-8.127,6.117-12.987.034-1.884-.691-4.058-2.478-4.657-1.913-.643-3.951.952-4.709,2.822s-.661,3.961-.934,5.961c-.311,2.28-1.272,4.671-3.285,5.786s-5.14.163-5.5-2.111c-.1-.632,0-1.346-.4-1.851a1.508,1.508,0,0,0-2-.145,3.292,3.292,0,0,0-1.124,1.854c-.653,2.3-.333,4.779-.932,7.091s-2.767,4.594-5.066,3.946a4.1,4.1,0,0,1-2.616-3.974,12,12,0,0,1,1.35-4.877q2.115-4.834,4.229-9.669a9.442,9.442,0,0,0,1.089-4.058,3.231,3.231,0,0,0-2.337-3.148c-2.073-.373-3.545,1.959-4.167,3.971a30.592,30.592,0,0,0-1.265,6.6,3.452,3.452,0,0,1-.951,2.633c-1.055.78-2.664-.067-3.166-1.279a7.421,7.421,0,0,1-.069-3.886,37.725,37.725,0,0,0-1.074-15.713c-.5-1.729-1.642-3.775-3.427-3.554-1.918.236-2.42,2.767-2.338,4.7a59.388,59.388,0,0,0,3.29,17.144,16.9,16.9,0,0,1,1.16,4.345,4.814,4.814,0,0,1-1.484,4.08,2.865,2.865,0,0,1-4.011-.3c-.763-1.077-.463-2.537-.514-3.857s-.96-2.914-2.25-2.633c-1.176.256-1.466,1.813-1.288,3s.533,2.536-.188,3.5c-.817,1.092-2.6.936-3.659.079a9.513,9.513,0,0,1-2.209-3.4,26.415,26.415,0,0,0-4.7-6.681c-1.573-1.626-3.53-3.117-5.79-3.206s-4.672,1.842-4.307,4.075a6.181,6.181,0,0,0,2.187,3.2,5.624,5.624,0,0,1,2.074,3.26c.127,1.311-1.177,2.762-2.389,2.245-.344-.147-.645-.431-1.019-.447-.805-.035-1.08,1.069-.99,1.87.43,3.827,2.836,7.139,5.486,9.934s5.65,5.309,7.762,8.529c1.92,2.928,3.018,6.31,4.664,9.4s4.069,6.042,7.433,7.013c3.667,1.058,7.542-.452,11.006-2.056,6.618-3.066,13.279-6.788,18.1-12.382a19.706,19.706,0,0,0,3.181-4.515c.839-1.882-.91-2.453-.171-4.294,1.031-2.567,2.457-7.34,3.67-11.358" fill="#3aa3f4"/>
            <path id="Trazado_243073" data-name="Trazado 243073" d="M259.5,418.945c.247-1.645.077-3.65-1.362-4.487a3.179,3.179,0,0,0-3.529.529,7.585,7.585,0,0,0-1.987,3.2,26.549,26.549,0,0,0-1.638,7.272c-.092,1.136-.442,3.088-.013,4.162.549,1.376.44,1.047,1.763.354,3.689-1.934,6.176-7.118,6.766-11.028" fill="#56baff"/>
            <path id="Trazado_243074" data-name="Trazado 243074" d="M219.066,417.49c-.582-1.3-1.531-2.644-2.944-2.827a3.153,3.153,0,0,0-3.156,2.266,6.423,6.423,0,0,0,.3,4.124c.513,1.437,4.058,8,6.2,7.3,2.471-.8.265-9.379-.4-10.867" fill="#56baff"/>
            <path id="Trazado_243075" data-name="Trazado 243075" d="M181.99,429.342c-3.364,4.779,6.27,11.762,9.671,6.044,3.2-5.377-6.615-10.386-9.671-6.044" fill="#56baff"/>
            <path id="Trazado_243076" data-name="Trazado 243076" d="M283.12,438.645a7.214,7.214,0,0,0,2.342-4.381,3.414,3.414,0,0,0-5.4-3.389,8.156,8.156,0,0,0-2.136,2.167c-1.2,1.651-4.456,6.421-2.747,8.529,1.783,2.2,6.563-1.557,7.942-2.926" fill="#3aa3f4"/>
            <path id="Trazado_243077" data-name="Trazado 243077" d="M246.849,406.365a4.312,4.312,0,0,0,.037-2.273,1.875,1.875,0,0,0-1.662-1.366c-.958.007-1.63.931-2.051,1.791-.712,1.456-2.894,6.523-.618,7.338,2.493.892,3.937-3.926,4.294-5.49" fill="#3aa3f4"/>
            <path id="Trazado_243078" data-name="Trazado 243078" d="M222.358,401.733a1.869,1.869,0,0,1-.4,1.858c-.775.6-1.892-.161-2.392-1.006-.489-.826-1.69-4.976-.1-5.389,1.4-.364,2.7,3.557,2.894,4.537" fill="#56baff"/>
            <path id="Trazado_243079" data-name="Trazado 243079" d="M208.9,438.945c.755,2.293,1.258,4.7,2.485,6.782a4.017,4.017,0,0,0,1.384,1.52,1.8,1.8,0,0,0,1.959-.04,2.579,2.579,0,0,0,.645-2.26,16.408,16.408,0,0,0-8.423-13.073c-.687-.371-2.17-.865-2.448.3-.2.835.772,1.029,1.308,1.47a11.379,11.379,0,0,1,3.09,5.306" fill="#e8f9ff"/>
            <path id="Trazado_243080" data-name="Trazado 243080" d="M243.186,458.252a4.155,4.155,0,0,0,.377,3.774,3.024,3.024,0,0,0,3.046.917,4.274,4.274,0,0,0,2.555-2.042,7.418,7.418,0,0,0,.892-3.207,5.427,5.427,0,0,0-.625-3.3c-2.42-3.833-5.58,1.62-6.245,3.856" fill="#e8f9ff"/>
            <path id="Trazado_243081" data-name="Trazado 243081" d="M228.6,427.214a2.374,2.374,0,1,0,.184-.087" fill="#56baff"/>
            <path id="Trazado_243082" data-name="Trazado 243082" d="M241.339,408.557c-1.089-6.541-3.41-12.8-5.241-19.176s-3.185-13.046-2.27-19.614l-4.92-.074c1.557,5.625.833,11.644-.615,17.3s-3.6,11.113-4.942,16.793a28.085,28.085,0,0,0-.853,9.807,13.648,13.648,0,0,0,4.264,8.685,9.1,9.1,0,0,0,9.22,1.788,9.816,9.816,0,0,0,5.329-6.7,21.226,21.226,0,0,0,.028-8.806" fill="#56baff"/>
            <path id="Trazado_243083" data-name="Trazado 243083" d="M224.352,412.93c.225,2.675,1.008,5.488,3.053,7.227s5.615,1.823,7.129-.394c1.1-1.61.8-3.823-.042-5.583s-2.141-3.26-3.062-4.979a17.1,17.1,0,0,1-1.78-8.274c.006-.842.943-6.663-1.524-5.852-1.414.465-2.594,6.965-2.924,8.35a30.169,30.169,0,0,0-.85,9.505" fill="#3aa3f4"/>
            <path id="Trazado_243084" data-name="Trazado 243084" d="M226.149,414.291a8.081,8.081,0,0,0,3.617,4.973,2.64,2.64,0,0,0,1.11.381,1.222,1.222,0,0,0,1.051-.429c.417-.551.125-1.343-.236-1.933-1.249-2.038-3.211-3.667-3.973-5.933-.234-.7-.29-1.843-.786-2.408a.647.647,0,0,0-1.126.109,6.746,6.746,0,0,0-.065,2.634,12.485,12.485,0,0,0,.408,2.606" fill="#7acbfb"/>
            <path id="Trazado_243085" data-name="Trazado 243085" d="M229.862,727.28c91.949,0,156.2-6.917,190.636-11.919a34.424,34.424,0,0,0,29.451-34.079V542.166H9.776V681.282a34.423,34.423,0,0,0,29.45,34.079c34.44,5,98.687,11.919,190.636,11.919" fill="#baeaff"/>
            <path id="Trazado_243086" data-name="Trazado 243086" d="M228.885,549.253c83.874,0,164.968,5.755,208.354,10.562a20.268,20.268,0,0,0,22.51-20.143V497.1a20.277,20.277,0,0,0-17.414-20.066c-39.66-5.691-133.222-12.719-138.975-11.173-7.186,1.93-13.279,6.733-18.4,12.135-3.274,3.456-6.247,7.207-9.768,10.411s-7.713,5.887-12.412,6.653-9.927-.69-12.823-4.457a12.338,12.338,0,0,1-2.268-7.419c-.154-8.189,5.263-16.141,9.324-19.734s8.8-7.1,10.184-12.344a6.394,6.394,0,0,0-.878-5.822,3.7,3.7,0,0,0-2.606-1.369c-3.056-.168-4.467,3.3-5.379,6.091a54.155,54.155,0,0,1-7.353,14.558,10.7,10.7,0,0,1-3.847,3.7,4.207,4.207,0,0,1-4.957-.739c-.586-.71-.832-1.641-1.349-2.4s-1.541-1.353-2.342-.9c-1.15.649-.57,2.427-1.014,3.671a2.763,2.763,0,0,1-3.75,1.234,5.016,5.016,0,0,1-2.423-3.561c-.534-2.485.041-5.054.415-7.568.439-2.954.545-6.2-1.6-8.529a4.271,4.271,0,0,0-5.035-1.108c-2.153,1.108-2.373,3.776-1.992,6,.414,2.414,1.341,4.859.219,7.244a3.2,3.2,0,0,1-2.887,1.941c-1.79-.047-2.548-1.583-3.159-2.971a56.327,56.327,0,0,0-5.378-10.264c-2.379-3.324-5.62-6.18-9.581-7.269a6.487,6.487,0,0,0-4.066.08c-2.97,1.153-2.94,4.094-1.763,6.129a13.6,13.6,0,0,0,3.135,3.358l10.08,8.6c1.3,1.107,2.663,2.311,2.844,4.117a2.479,2.479,0,0,1-1.276,2.516c-2.268,1.094-4.336-2.349-6.64-1.265a2.51,2.51,0,0,0-1.309,2.607c.278,2.322,2.635,3.609,4.453,4.464a10.407,10.407,0,0,1,2.506,1.66c2.232,1.987,6.4,5.322,6.4,10.737v.1a8.984,8.984,0,0,1-10.234,8.876c-.112-.016-.223-.032-.335-.051-4.7-.766-8.89-3.449-12.411-6.653s-6.494-6.955-9.769-10.411c-5.118-5.4-11.21-10.205-18.4-12.136-5.8-1.558-106.809,6.477-148.158,12.529A20.261,20.261,0,0,0,.046,498.326L0,539.383a20.263,20.263,0,0,0,22.466,20.17c43.559-4.752,124.062-10.3,206.419-10.3" fill="#144677"/>
          </g>
        </g>
        <text id="Agua_dulce:_" data-name="Agua dulce: " transform="translate(105.922 526.864)" fill="#fff" font-size="16" font-family="Roboto-Bold, Roboto" font-weight="700"><tspan x="0" y="0" letter-spacing="-0.024em">Agu</tspan><tspan y="0" letter-spacing="-0.025em">a d</tspan><tspan y="0" letter-spacing="-0.024em">u</tspan><tspan y="0" letter-spacing="-0.025em">lce:</tspan><tspan y="0"> </tspan></text>
        <text id="aproximadamente_" data-name="aproximadamente " transform="translate(190.234 526.864)" fill="#fff" font-size="16" font-family="Roboto-Regular, Roboto"><tspan x="0" y="0" letter-spacing="-0.024em">a</tspan><tspan y="0" letter-spacing="-0.025em">p</tspan><tspan y="0" letter-spacing="-0.034em">r</tspan><tspan y="0" letter-spacing="-0.035em">o</tspan><tspan y="0" letter-spacing="-0.024em">xi</tspan><tspan y="0" letter-spacing="-0.025em">m</tspan><tspan y="0" letter-spacing="-0.024em">ada</tspan><tspan y="0" letter-spacing="-0.025em">m</tspan><tspan y="0" letter-spacing="-0.024em">ente</tspan><tspan y="0"> </tspan></text>
        <text id="_2.5_" data-name="2.5 %" transform="translate(316.994 526.864)" fill="#fff" font-size="16" font-family="Roboto-Bold, Roboto" font-weight="700"><tspan x="0" y="0" letter-spacing="-0.024em">2.5</tspan><tspan y="0" letter-spacing="-0.025em"> </tspan><tspan y="0">%</tspan></text>
        <text id="De_este_total:" data-name="De este total:" transform="translate(93.01 581.28)" fill="#144677" font-size="16" font-family="Roboto-Regular, Roboto"><tspan x="0" y="0" letter-spacing="-0.024em">De este </tspan><tspan y="0" letter-spacing="-0.034em">t</tspan><tspan y="0" letter-spacing="-0.025em">o</tspan><tspan y="0" letter-spacing="-0.024em">tal</tspan><tspan y="0">:</tspan></text>
        <text id="_2_3_se_encuentra_en_las_regiones_polares" data-name="• 2/3 se encuentra en las regiones polares" transform="translate(93.01 619.68)" fill="#144677" font-size="16" font-family="Roboto-Regular, Roboto"><tspan x="0" y="0" letter-spacing="-0.024em">• </tspan><tspan y="0" letter-spacing="-0.025em">2/3</tspan><tspan y="0" xml:space="preserve" letter-spacing="-0.024em"> se en</tspan><tspan y="0" letter-spacing="-0.025em">cu</tspan><tspan y="0" letter-spacing="-0.024em">ent</tspan><tspan y="0" letter-spacing="-0.044em">r</tspan><tspan y="0" letter-spacing="-0.024em">a en las</tspan><tspan y="0" letter-spacing="-0.025em"> </tspan><tspan y="0" letter-spacing="-0.034em">r</tspan><tspan y="0" letter-spacing="-0.024em">e</tspan><tspan y="0" letter-spacing="-0.025em">g</tspan><tspan y="0" letter-spacing="-0.024em">i</tspan><tspan y="0" letter-spacing="-0.025em">o</tspan><tspan y="0" letter-spacing="-0.024em">nes</tspan><tspan y="0" xml:space="preserve" letter-spacing="-0.025em"> po</tspan><tspan y="0" letter-spacing="-0.024em">la</tspan><tspan y="0" letter-spacing="-0.034em">r</tspan><tspan y="0" letter-spacing="-0.024em">e</tspan><tspan y="0">s</tspan></text>
        <text id="_El_resto_forma_los_sistemas_de_agua_subterránea_" data-name="• El resto forma los sistemas de agua subterránea, " transform="translate(93.01 658.08)" fill="#144677" font-size="16" font-family="Roboto-Regular, Roboto"><tspan x="0" y="0" letter-spacing="-0.024em">• </tspan><tspan y="0" letter-spacing="-0.025em">E</tspan><tspan y="0" letter-spacing="-0.024em">l</tspan><tspan y="0" letter-spacing="-0.025em"> </tspan><tspan y="0" letter-spacing="-0.034em">r</tspan><tspan y="0" letter-spacing="-0.024em">es</tspan><tspan y="0" letter-spacing="-0.034em">t</tspan><tspan y="0" letter-spacing="-0.025em">o</tspan><tspan y="0" letter-spacing="-0.024em"> </tspan><tspan y="0" letter-spacing="-0.025em">form</tspan><tspan y="0" letter-spacing="-0.024em">a l</tspan><tspan y="0" letter-spacing="-0.025em">o</tspan><tspan y="0" letter-spacing="-0.024em">s</tspan><tspan y="0" letter-spacing="-0.025em"> </tspan><tspan y="0" letter-spacing="-0.024em">siste</tspan><tspan y="0" letter-spacing="-0.025em">m</tspan><tspan y="0" letter-spacing="-0.024em">as</tspan><tspan y="0" letter-spacing="-0.025em"> </tspan><tspan y="0" letter-spacing="-0.024em">de</tspan><tspan y="0" letter-spacing="-0.025em"> </tspan><tspan y="0" letter-spacing="-0.024em">a</tspan><tspan y="0" letter-spacing="-0.025em">gu</tspan><tspan y="0" letter-spacing="-0.024em">a</tspan><tspan y="0" letter-spacing="-0.025em"> </tspan><tspan y="0" letter-spacing="-0.024em">s</tspan><tspan y="0" letter-spacing="-0.025em">ub</tspan><tspan y="0" letter-spacing="-0.024em">te</tspan><tspan y="0" letter-spacing="-0.025em">r</tspan><tspan y="0" letter-spacing="-0.044em">r</tspan><tspan y="0" letter-spacing="-0.024em">ánea</tspan><tspan y="0" letter-spacing="-0.025em">,</tspan><tspan y="0"> </tspan></text>
        <text id="quedando_menos_del_1_en_agua_de_ríos_lagos_" data-name="quedando menos del 1% en agua de ríos, lagos, " transform="translate(93.01 677.28)" fill="#144677" font-size="16" font-family="Roboto-Regular, Roboto"><tspan x="0" y="0" letter-spacing="-0.025em">qu</tspan><tspan y="0" letter-spacing="-0.024em">edand</tspan><tspan y="0" letter-spacing="-0.025em">o</tspan><tspan y="0" letter-spacing="-0.024em"> </tspan><tspan y="0" letter-spacing="-0.025em">m</tspan><tspan y="0" letter-spacing="-0.024em">en</tspan><tspan y="0" letter-spacing="-0.025em">o</tspan><tspan y="0" letter-spacing="-0.024em">s</tspan><tspan y="0" letter-spacing="-0.025em"> </tspan><tspan y="0" letter-spacing="-0.024em">del </tspan><tspan y="0" letter-spacing="-0.025em">1%</tspan><tspan y="0" xml:space="preserve" letter-spacing="-0.024em"> en a</tspan><tspan y="0" letter-spacing="-0.025em">gu</tspan><tspan y="0" letter-spacing="-0.024em">a de </tspan><tspan y="0" letter-spacing="-0.025em">río</tspan><tspan y="0" letter-spacing="-0.024em">s</tspan><tspan y="0" letter-spacing="-0.025em">,</tspan><tspan y="0" xml:space="preserve" letter-spacing="-0.024em"> la</tspan><tspan y="0" letter-spacing="-0.025em">go</tspan><tspan y="0" letter-spacing="-0.024em">s</tspan><tspan y="0" letter-spacing="-0.025em">,</tspan><tspan y="0"> </tspan></text>
        <text id="pantanos_y_agua_atmosférica" data-name="pantanos y agua atmosférica" transform="translate(93.01 696.48)" fill="#144677" font-size="16" font-family="Roboto-Regular, Roboto"><tspan x="0" y="0" letter-spacing="-0.025em">p</tspan><tspan y="0" letter-spacing="-0.024em">an</tspan><tspan y="0" letter-spacing="-0.034em">tanos</tspan><tspan y="0" letter-spacing="-0.024em"> </tspan><tspan y="0" letter-spacing="-0.025em">y </tspan><tspan y="0" letter-spacing="-0.024em">a</tspan><tspan y="0" letter-spacing="-0.025em">gu</tspan><tspan y="0" letter-spacing="-0.024em">a</tspan><tspan y="0" letter-spacing="-0.025em"> </tspan><tspan y="0" letter-spacing="-0.024em">at</tspan><tspan y="0" letter-spacing="-0.025em">mo</tspan><tspan y="0" letter-spacing="-0.024em">s</tspan><tspan y="0" letter-spacing="-0.036em">f</tspan><tspan y="0" letter-spacing="-0.024em">é</tspan><tspan y="0" letter-spacing="-0.025em">r</tspan><tspan y="0" letter-spacing="-0.024em">i</tspan><tspan y="0" letter-spacing="-0.025em">c</tspan><tspan y="0">a</tspan></text>
        <g id="Grupo_242714" data-name="Grupo 242714">
          <g id="Grupo_242713" data-name="Grupo 242713" clip-path="url(#clip-path)">
            <path id="Trazado_243087" data-name="Trazado 243087" d="M60.761,602.666c.1,1.083.2,2.073.3,3.062.025.25.178.35.427.39,2.354.377,4.706.769,7.059,1.15a2.064,2.064,0,0,1,1.9,2.181c0,1.848-.006,3.7.006,5.544a.783.783,0,0,1-.445.762q-2.755,1.578-5.5,3.177a2.588,2.588,0,0,1-1.376.359c-1.054-.013-2.108-.035-3.16,0a58.433,58.433,0,0,1-6.717-.424,10.266,10.266,0,0,1-2.746-.848c-.606-.224-1.215-.448-1.8-.721a22.666,22.666,0,0,0-4.76-1.282c-1.225-.275-2.455-.525-3.682-.788-.47-.1-.582-.242-.583-.732,0-1.468-.008-2.937.007-4.405a1.488,1.488,0,0,1,.16-.841,5.892,5.892,0,0,0,.734-1.985,3.542,3.542,0,0,0,.184-1.226c-.09-1.781-.22-3.56-.35-5.339a.734.734,0,0,0-.2-.384,1.94,1.94,0,0,1-.493-1.76,8.154,8.154,0,0,1,1.725-3.51,4.787,4.787,0,0,1,3.071-1.518,17.432,17.432,0,0,1,5.229.106c1.52.195,3.044.394,4.572.468.954.047,1.921-.216,2.877-.187a7.975,7.975,0,0,1,2.3.447,13.313,13.313,0,0,0,1.947.465,31.787,31.787,0,0,1,3.716.779,6.8,6.8,0,0,1,4.326,3.628c.245.512.554.995.847,1.483a.587.587,0,0,1-.026.736c-.2.247-.391.5-.6.733a1.74,1.74,0,0,1-1.713.57c-.683-.119-1.389-.1-2.08-.189a2.448,2.448,0,0,1-.9-.275,1.565,1.565,0,0,0-1.093-.173c-1.02.173-2.04.352-3.147.544m-19.869-3.161c.625-.24.879-.09.936.567a5.746,5.746,0,0,0,1.327,3.4,3.737,3.737,0,0,1,.81,2.056c.135,1.142.281,2.283.452,3.421a.592.592,0,0,0,.343.372,4.53,4.53,0,0,0,2.253.151,1.876,1.876,0,0,0,.3-.116l-.442-.06c-.81-.1-1.11-.435-1.015-1.241a7.345,7.345,0,0,1,.337-1.278c.318-1.026.677-2.04.964-3.074a5.279,5.279,0,0,0-.059-3c-.166-.545-.326-1.091-.472-1.641a.5.5,0,0,1,.341-.694c.3-.077.531.07.642.431.153.495.286,1,.442,1.491a6.371,6.371,0,0,1,.293,2.471c-.021.247-.06.492-.09.735a10.411,10.411,0,0,0,6.01-.817c-.047-.126-.1-.255-.144-.383-.3-.794-.6-1.585-.888-2.382a.488.488,0,0,1,.287-.684.5.5,0,0,1,.669.333c.019.047.034.1.052.143.423,1.1.824,2.2,1.281,3.287a8.444,8.444,0,0,0,.767,1.3c.5.76,1.044,1.489,1.508,2.268a13.034,13.034,0,0,0,2.084,2.743,1.335,1.335,0,0,0,.689.435,20.073,20.073,0,0,0,2.275.021,2.489,2.489,0,0,0,.684-.238c-.005-.049-.011-.1-.016-.148a3.7,3.7,0,0,0-1.059-.16,1.045,1.045,0,0,1-1.122-.628,8.366,8.366,0,0,1-1.519-4.805c.027-1.337-.1-2.676-.161-4.015a.48.48,0,0,1,.416-.548.458.458,0,0,1,.572.368,1.913,1.913,0,0,1,.063.3c.064.576.124,1.152.185,1.733l2.62-.525a.38.38,0,0,0-.015-.081c-.184-.423-.144-.672.134-.825s.514-.055.776.326a2.443,2.443,0,0,0,2.025,1.091c.607.028,1.216.07,1.818.153a.621.621,0,0,0,.623-.194c-.184-.26-.435-.461-.446-.675-.011-.2.236-.406.405-.663a6.025,6.025,0,0,0-3.294-3.4c.093.408.214.813.27,1.227a.434.434,0,0,1-.449.505.479.479,0,0,1-.55-.453,1.474,1.474,0,0,0-.141-.541.57.57,0,0,0-.421-.234.524.524,0,0,0-.4.271.846.846,0,0,0,.1.527c.156.346.124.607-.136.768s-.524.083-.749-.221a1.488,1.488,0,0,1,.463-2.2l.334-.194-1.8-.341c-.288.611-.52.671-1.072.308a7.03,7.03,0,0,0-5.077-1.274c-.488.076-.983.12-1.476.154A21.006,21.006,0,0,1,49.9,594.7a16.972,16.972,0,0,0-5.114-.17,3.679,3.679,0,0,0-2.706,1.369,17.383,17.383,0,0,0-1.285,2.527,1.027,1.027,0,0,0,.1,1.079m13.839,8.831a7.274,7.274,0,0,1,.718.338.819.819,0,0,1-.058,1.489,2.587,2.587,0,0,1-1.049.295,18.65,18.65,0,0,1-2.385-.16A1.1,1.1,0,0,1,51,609.043a6.024,6.024,0,0,1,.109-.632l-2.826.239a3.474,3.474,0,0,1,.173.767c0,.527-.377.888-1.052,1.021a6.087,6.087,0,0,1-2.973-.129,1.374,1.374,0,0,1-.885-.608c-.044-.077-.206-.112-.318-.124-.629-.068-1.263-.1-1.889-.19-.413-.059-.548-.022-.6.406-.047.375-.018.758-.039,1.136-.013.212.081.282.276.318.448.082.894.182,1.338.286,2.538.589,5.153.891,7.538,2.04a5.635,5.635,0,0,0,.6.237,11.579,11.579,0,0,0,3.024.966c1.392.09,2.775.333,4.166.384,1.875.069,3.755.021,5.633.011a1.234,1.234,0,0,0,.578-.147q2.675-1.527,5.33-3.084a.532.532,0,0,0,.217-.383c.021-.682.012-1.366.009-2.049,0-.785-.3-1.113-1.086-1.242-1.338-.218-2.676-.443-4.015-.662-.845-.139-1.691-.271-2.609-.418.151.259.273.45.376.65a.667.667,0,0,0,.62.383,3.855,3.855,0,0,1,1.315.319,1.01,1.01,0,0,1,.076,1.81,2.254,2.254,0,0,1-.866.371c-.687.084-1.384.1-2.077.122a2.513,2.513,0,0,1-2.085-.915c-.6-.7-1.158-1.437-1.718-2.171a.407.407,0,0,0-.462-.206,13.411,13.411,0,0,1-1.543.216c-.381.027-.522.234-.6.571m-1.722,9.426a54.962,54.962,0,0,0,10.254.487c0-.276-.005-.539,0-.8a.486.486,0,0,1,.5-.543c.3-.012.492.191.515.533.008.121.012.242.018.376a.542.542,0,0,0,.131-.03q2.4-1.387,4.8-2.781a.341.341,0,0,0,.165-.224c.014-.565.008-1.13.008-1.767-.221.125-.383.215-.543.308-1.482.855-2.955,1.726-4.45,2.556a2.384,2.384,0,0,1-1.114.31,71.676,71.676,0,0,1-7.755-.172,14.064,14.064,0,0,1-5.231-1.148,2.18,2.18,0,0,0-.245-.1c-1.016-.394-2.008-.869-3.053-1.159-1.377-.383-2.795-.62-4.2-.919-.69-.147-1.38-.291-2.119-.447,0,.607.011,1.161-.006,1.715-.007.252.077.346.328.4,1.205.242,2.406.508,3.608.764l2.179.466c.1-.561.269-.748.6-.72s.471.233.462.738c0,.241.1.329.3.406,1.18.462,2.356.933,3.535,1.4a1.934,1.934,0,0,0,.275.061c0-.186,0-.336,0-.486.014-.375.2-.587.5-.591s.51.224.519.613c.005.252,0,.505,0,.763m-6.071-10.035c1.5-.143,2.909-.272,4.318-.421a.384.384,0,0,0,.24-.259c.091-.419.151-.845.215-1.27.061-.4.112-.809.169-1.223-.331.027-.6.07-.86.066-.887-.012-1.774-.028-2.659-.072a.365.365,0,0,0-.447.319c-.158.558-.346,1.109-.533,1.659-.125.367-.268.728-.443,1.2m7.518,1.683c-.859-.57-.953-.938-.552-1.8a7.679,7.679,0,0,1,1.591-2.249,1.62,1.62,0,0,0,.141-.17l-1.007-1.49c-.43.148-.867.317-1.316.444a.484.484,0,0,0-.4.458,22.076,22.076,0,0,1-.846,4.343,1.644,1.644,0,0,0-.051.3,6.209,6.209,0,0,0,2.438.162m-11.19-.818c-.021-.2-.032-.322-.045-.443-.086-.766-.208-1.53-.25-2.3a4.084,4.084,0,0,0-1.288-2.572c.053,1.714.424,3.4-.417,5.092l2,.221m13.382-2.045c-.146-.218-.246-.367-.368-.551l-.641.7,1.009-.144" fill="#144677"/>
            <path id="Trazado_243088" data-name="Trazado 243088" d="M56.648,606.547l-1.009.144.641-.7c.122.184.222.333.368.551" fill="#144677"/>
            <path id="Trazado_243089" data-name="Trazado 243089" d="M66.862,598.848a.505.505,0,1,1-.521.491.505.505,0,0,1,.521-.491" fill="#144677"/>
            <path id="Trazado_243090" data-name="Trazado 243090" d="M67.062,669.864c0-.688.006-1.343,0-2,0-.323.074-.572.443-.6.305-.02.47.2.473.613,0,.642,0,1.284,0,2.017.282-.125.513-.213.731-.328a.455.455,0,1,1,.455.786,3.7,3.7,0,0,1-.846.363c-.294.068-.353.208-.345.478.017.579,0,1.159,0,1.739,0,.308-.1.538-.447.556-.3.016-.463-.187-.465-.571,0-.7,0-1.39,0-2.089l-.317-.1a3.06,3.06,0,0,1-2.29-2.5c-.043-.224-.114-.3-.339-.3a6.868,6.868,0,0,0-4.623,1.546,3.738,3.738,0,0,0-.7.763.871.871,0,0,0,.311,1.428,14.067,14.067,0,0,0,1.412.612c1.382.594,2.775,1.164,4.139,1.8a6.713,6.713,0,0,1,1.373.926,3.466,3.466,0,0,1,.8,4.969c-.212.339-.448.662-.648,1.007a1.639,1.639,0,0,0,.661,2.542c.087.053.181.1.265.157a.452.452,0,0,1-.421.789c-1.314-.625-2.223-1.833-1.524-3.382.322-.713.779-1.363,1.138-2.061a2.34,2.34,0,0,0-.413-2.912,3.109,3.109,0,0,0-.694-.61c-.925-.528-1.85-1.067-2.815-1.514-.945-.436-1.944-.752-2.908-1.148a5.276,5.276,0,0,1-1.083-.583,1.568,1.568,0,0,1-.469-2.243,13.4,13.4,0,0,1,.995-1.295c-.194-.034-.4-.079-.612-.107a12.592,12.592,0,0,0-7.345,1.072A7.75,7.75,0,0,0,49.4,670.75a2.332,2.332,0,0,0-.827,1.69,1.229,1.229,0,0,0,.627,1.237c.424.238.882.416,1.329.611a17.7,17.7,0,0,1,1.941.847,2.09,2.09,0,0,1,.291,3.642,12.963,12.963,0,0,1-2.214,1.318c-.673.349-1.386.619-2.083.921a1.833,1.833,0,0,1-.364.122.431.431,0,0,1-.543-.312.4.4,0,0,1,.247-.536c.353-.159.715-.293,1.067-.455.852-.393,1.709-.777,2.546-1.2a3.759,3.759,0,0,0,.9-.663,1.2,1.2,0,0,0-.211-2.019,6.732,6.732,0,0,0-1.042-.5c-.63-.262-1.29-.462-1.9-.766a2.425,2.425,0,0,1-1.062-3.72,5.806,5.806,0,0,1,2.6-2.172c.251-.124.511-.233.869-.395a31.876,31.876,0,0,0-5.386-.882c.123.579.275,1.121.345,1.674a7.914,7.914,0,0,1,.126,1.989,2.907,2.907,0,0,1-2.249,2.52c-.258.076-.353.167-.342.439.022.566.009,1.134.006,1.7,0,.441-.137.624-.449.628s-.459-.179-.46-.611c0-.606.008-1.212-.011-1.817a.384.384,0,0,0-.2-.288,3.192,3.192,0,0,1-2.365-3.963c.12-.719.273-1.433.42-2.2-.308.042-.6.079-.885.121s-.513-.049-.58-.364c-.059-.292.1-.485.454-.543.441-.073.986-.008,1.3-.247s.338-.782.536-1.17a6.158,6.158,0,0,1,.688-1.112,1.267,1.267,0,0,1,2.181,0,8.927,8.927,0,0,1,1,1.858c.154.361.322.518.719.437-.107-.4-.231-.8-.317-1.211a5.2,5.2,0,0,1,.181-2.743c.135-.417.331-.553.625-.456s.371.326.241.732a4.6,4.6,0,0,0,.253,3.529.61.61,0,0,0,.495.356c1.7.341,3.4.69,5.1,1.065a2.128,2.128,0,0,0,1.98-.633,4.538,4.538,0,0,0-6.434-6.339.9.9,0,0,1-.493.244.5.5,0,0,1-.375-.309.667.667,0,0,1,.181-.525,5.175,5.175,0,0,1,4.062-1.345,5.434,5.434,0,0,1,4.118,8.365c-.041.064-.076.129-.138.234.556.027,1.077.025,1.592.083.755.084,1.507.189,2.252.329.468.087.785-.2,1.132-.386.232-.121.042-.711-.224-.783a3.088,3.088,0,0,1-2.343-3.368,14.932,14.932,0,0,1,1.431-5.222,4.142,4.142,0,0,1,.816-1.11,1.121,1.121,0,0,1,1.691.02,5.623,5.623,0,0,1,.974,1.464,15.134,15.134,0,0,1,1.268,4.953,3.1,3.1,0,0,1-2.346,3.26c-.313.085-.313.085-.262.428l2.549-.246c.152-.7.27-1.446.486-2.167a22.644,22.644,0,0,1,.942-2.608,3.839,3.839,0,0,1,.861-1.168,1.084,1.084,0,0,1,1.6,0,5.133,5.133,0,0,1,.97,1.373,15.893,15.893,0,0,1,1.328,4.978c.007.064.007.129.008.193.007.387-.146.6-.439.6s-.446-.2-.481-.577a13.635,13.635,0,0,0-1.458-5.207,4.056,4.056,0,0,0-.714-.768,3.724,3.724,0,0,0-.748.776,12.252,12.252,0,0,0-1.422,4.934,3.71,3.71,0,0,0,.19,1.324,1.812,1.812,0,0,0,1.513,1.212M44.076,672.8a2.021,2.021,0,0,0,1.716-2.019,11.864,11.864,0,0,0-.381-2.508,20.4,20.4,0,0,0-1.088-3.083c-.376-.827-.863-.811-1.323-.023a6.8,6.8,0,0,0-.731,1.61c-.325,1.189-.616,2.392-.821,3.606a2.063,2.063,0,0,0,1.719,2.409q0-1.041,0-2.081a.4.4,0,0,1,.411-.459.423.423,0,0,1,.49.427,3.819,3.819,0,0,1,.007.386V672.8m16.861-6.925v-.449c0-.554,0-1.108,0-1.661a.448.448,0,1,1,.9,0c.006.451,0,.9,0,1.352,0,.249,0,.5,0,.758a2.128,2.128,0,0,0,1.74-2.135,7.722,7.722,0,0,0-.152-1.3,12.97,12.97,0,0,0-1.375-4.158c-.48-.824-.842-.846-1.3-.029a12.571,12.571,0,0,0-1.542,5.568,2.057,2.057,0,0,0,1.729,2.053" fill="#144677"/>
            <path id="Trazado_243091" data-name="Trazado 243091" d="M67.483,658.076c-.54,0-1.081.013-1.621,0A1.509,1.509,0,0,1,64.38,656.8a1.553,1.553,0,0,1,.962-1.674.624.624,0,0,0,.3-.328,1.921,1.921,0,0,1,3.7.018.566.566,0,0,0,.282.3,1.554,1.554,0,0,1,.98,1.7,1.525,1.525,0,0,1-1.538,1.255c-.527.012-1.055,0-1.583,0h0m.027-.911v-.005c.539,0,1.079.015,1.618-.006a.575.575,0,0,0,.575-.6.589.589,0,0,0-.582-.595c-.5-.038-.581-.114-.634-.614-.069-.651-.415-1.013-.978-1.021a.979.979,0,0,0-1.014,1.028.565.565,0,0,1-.592.606c-.421.037-.641.281-.622.632s.269.565.688.572c.513.009,1.027,0,1.541,0" fill="#144677"/>
            <path id="Trazado_243092" data-name="Trazado 243092" d="M42.519,658.078c-.514,0-1.029.008-1.544,0a1.53,1.53,0,0,1-1.563-1.272,1.554,1.554,0,0,1,1-1.688.573.573,0,0,0,.272-.314,1.921,1.921,0,0,1,3.685-.025.677.677,0,0,0,.325.356,1.551,1.551,0,0,1,.944,1.684,1.5,1.5,0,0,1-1.457,1.254c-.553.019-1.106,0-1.66,0Zm.008-.913v0c.539,0,1.079.013,1.618-.005a.579.579,0,0,0,.594-.583.591.591,0,0,0-.565-.611c-.553-.051-.582-.08-.646-.637a.988.988,0,0,0-1.006-1,.968.968,0,0,0-.985,1.011c-.029.38-.184.586-.581.622-.439.04-.648.26-.64.615s.264.584.708.59c.5.008,1,0,1.5,0" fill="#144677"/>
            <path id="Trazado_243093" data-name="Trazado 243093" d="M61.005,682.4a2.759,2.759,0,0,1,.546-1.655c.313-.439.661-.853.987-1.284a7.425,7.425,0,0,0,.554-.786,1.278,1.278,0,0,0-.321-1.728,8.189,8.189,0,0,0-1.189-.707c-.269-.144-.451-.308-.318-.635.116-.284.369-.364.706-.189a9.159,9.159,0,0,1,1.267.727,2.206,2.206,0,0,1,.606,3.045c-.248.417-.576.787-.866,1.179-.266.362-.548.714-.79,1.092a1.465,1.465,0,0,0-.226,1.178.435.435,0,0,1-.359.607c-.323.061-.471-.145-.534-.424-.037-.162-.05-.33-.063-.42" fill="#144677"/>
            <path id="Trazado_243094" data-name="Trazado 243094" d="M56.891,669.818a2.026,2.026,0,0,1-.252.311c-1.123.991-1.124,1.838.121,2.67a26.992,26.992,0,0,0,2.618,1.386c.1.053.217.082.319.137a.449.449,0,0,1-.332.83,10.741,10.741,0,0,1-3.709-2.082c-1.249-1.231-.873-2.757.564-3.752.294-.2.676.044.671.5" fill="#144677"/>
            <path id="Trazado_243095" data-name="Trazado 243095" d="M45.655,681.311c.1.11.29.218.318.358a.6.6,0,0,1-.144.495c-.221.189-.521.281-.761.451-.776.549-1.547,1.1-2.305,1.679-.309.234-.539.282-.741.057-.255-.284-.117-.508.113-.728a13.62,13.62,0,0,1,3.205-2.2,2.927,2.927,0,0,1,.315-.11" fill="#144677"/>
            <path id="Trazado_243096" data-name="Trazado 243096" d="M63.415,671.055c-.1.349-.213.535-.5.535a.406.406,0,0,1-.44-.467c.007-.27.18-.464.441-.414.181.035.333.225.5.346" fill="#144677"/>
            <path id="Trazado_243097" data-name="Trazado 243097" d="M68.553,681.555c.4.034.551.188.554.459a.4.4,0,0,1-.413.454.387.387,0,0,1-.438-.458c.03-.182.217-.339.3-.455" fill="#144677"/>
            <path id="Trazado_243098" data-name="Trazado 243098" d="M49.067,677.321c-.019.279-.14.457-.421.464a.4.4,0,0,1-.447-.454.4.4,0,0,1,.432-.432.411.411,0,0,1,.436.422" fill="#144677"/>
            <path id="Trazado_243099" data-name="Trazado 243099" d="M39.923,676.35c.289.01.453.151.464.422a.4.4,0,0,1-.432.469.391.391,0,0,1-.427-.434.407.407,0,0,1,.4-.457" fill="#144677"/>
            <path id="Trazado_243100" data-name="Trazado 243100" d="M70.3,676.333c.084.115.274.265.308.445.053.273-.123.461-.424.464a.391.391,0,0,1-.425-.436c-.006-.272.14-.425.541-.473" fill="#144677"/>
            <path id="Trazado_243101" data-name="Trazado 243101" d="M42.526,679.9a.411.411,0,0,1,.427.444.431.431,0,1,1-.86-.008.41.41,0,0,1,.433-.436" fill="#144677"/>
            <line id="Línea_422" data-name="Línea 422" x2="335.13" transform="translate(93.747 630.737)" fill="none" stroke="#144677" stroke-miterlimit="10" stroke-width="1"/>
            <circle id="Elipse_4259" data-name="Elipse 4259" cx="20.638" cy="20.638" r="20.638" transform="translate(34.372 585.702)" fill="none" stroke="#144677" stroke-miterlimit="10" stroke-width="1.218"/>
            <circle id="Elipse_4260" data-name="Elipse 4260" cx="20.638" cy="20.638" r="20.638" transform="translate(34.372 648.324)" fill="none" stroke="#144677" stroke-miterlimit="10" stroke-width="1.218"/>
          </g>
        </g>
      </g>
    </g>
    <g id="Grupo_242719" data-name="Grupo 242719" transform="translate(824.043 813)">
      <g id="Grupo_242718" data-name="Grupo 242718">
        <g id="Grupo_242717" data-name="Grupo 242717" clip-path="url(#clip-path-7)">
          <path id="Trazado_243102" data-name="Trazado 243102" d="M266.012,0H33.4A14.945,14.945,0,0,0,18.458,14.946v3.4L0,36.8,18.458,55.26v3.4A14.945,14.945,0,0,0,33.4,73.6H266.012a14.946,14.946,0,0,0,14.946-14.945V14.946A14.946,14.946,0,0,0,266.012,0" fill="#144677"/>
        </g>
      </g>
      <text id="Océanos:_" data-name="Océanos: " transform="translate(54.309 31.878)" fill="#fff" font-size="16" font-family="Roboto-Bold, Roboto" font-weight="700"><tspan x="0" y="0" letter-spacing="-0.025em">Océanos:</tspan><tspan y="0"> </tspan></text>
      <text id="aproximadamente_2" data-name="aproximadamente " transform="translate(54.309 51.078)" fill="#fff" font-size="16" font-family="Roboto-Regular, Roboto"><tspan x="0" y="0" letter-spacing="-0.024em">a</tspan><tspan y="0" letter-spacing="-0.025em">p</tspan><tspan y="0" letter-spacing="-0.034em">r</tspan><tspan y="0" letter-spacing="-0.035em">o</tspan><tspan y="0" letter-spacing="-0.024em">xi</tspan><tspan y="0" letter-spacing="-0.025em">m</tspan><tspan y="0" letter-spacing="-0.024em">ada</tspan><tspan y="0" letter-spacing="-0.025em">m</tspan><tspan y="0" letter-spacing="-0.024em">ente</tspan><tspan y="0"> </tspan></text>
      <text id="_97.5_" data-name="97.5 %" transform="translate(181.062 51.078)" fill="#fff" font-size="16" font-family="Roboto-Bold, Roboto" font-weight="700"><tspan x="0" y="0" letter-spacing="-0.024em">97</tspan><tspan y="0" letter-spacing="-0.025em">.</tspan><tspan y="0" letter-spacing="-0.024em">5</tspan><tspan y="0" letter-spacing="-0.025em"> </tspan><tspan y="0">%</tspan></text>
    </g>
  </g>
</svg>
