<svg xmlns="http://www.w3.org/2000/svg" xmlns:xlink="http://www.w3.org/1999/xlink" width="291.053" height="296.054" viewBox="0 0 291.053 296.054">
  <defs>
    <clipPath id="clip-path">
      <rect id="Rectángulo_316607" data-name="Rectángulo 316607" width="291.053" height="296.054" fill="none"/>
    </clipPath>
    <clipPath id="clip-path-2">
      <path id="Trazado_244181" data-name="Trazado 244181" d="M195.771,30.71c-.615,2.787-3.531,2.3-5.261,3.5-1.066.74-2,.884-2.119,2.511a5.678,5.678,0,0,1-4.318,5.227c-5.494,1.5-9.6,5.159-14.089,8.326a8.807,8.807,0,0,1-5.144,1.546,20.284,20.284,0,0,1-5.71-.969,10.654,10.654,0,0,0-2.9-.521c-1.877.013-2.754,1.143-3.188,3.985a2.2,2.2,0,0,1-2.269,2.019c-.272.029-.54.043-.806.046a11.909,11.909,0,0,1-4.99-1.254,3.863,3.863,0,0,0-1.653-.406,3.532,3.532,0,0,0-2.442,1.166c-2.417,2.318-5.191,4.236-7.655,6.474a8.258,8.258,0,0,0-2.945,6.3,10.06,10.06,0,0,0,.169,1.814,4.838,4.838,0,0,1,.077.866c0,1.8-.848,3.768-1.328,5.61a5.85,5.85,0,0,0-.278,1.422,1.866,1.866,0,0,0,.627,1.381,1.762,1.762,0,0,1,.538,1.277,3.383,3.383,0,0,1-.5,1.619c-.462.831-1.186,1-2.512.99q-.418-.022-.808-.019c-3.2.021-5.035,1.292-6.494,4.362-2.207,4.663-6.093,7.436-10.737,9.265-1.11.433-1.623.684-1.623,1.108,0,.351.352.82,1.008,1.61.075.089.123.185.19.276l.533.814a8.881,8.881,0,0,1,.872,4.271c0,1.1-.089,2.215-.113,3.307,0,.016-.01.027-.011.043l-2.026-3.095a1.846,1.846,0,0,1,.233.5,1.742,1.742,0,0,1,.037.219c-.345-1.019-1.652-1.622-2.233-2.342-1.3-1.576-2.889-2.931-4.208-4.538l-1.066-1.626c.059.09.115.18.17.264l.876,1.339c-.265-.324-.537-.642-.773-.992-.377-.556-.748-1.431-2.125-1.13a1.815,1.815,0,0,0-.79,1.492,2.994,2.994,0,0,0,.462,1.486,24.431,24.431,0,0,1,3.189,7.362,7.374,7.374,0,0,1,.176.951c0,.079-.013.136-.048.159-2.407,1.561-2.907,4.621-5.119,6.33a1.6,1.6,0,0,1-.908.414.59.59,0,0,1-.15-.038l-1.283-1.959a6.052,6.052,0,0,1,.338.646,5.505,5.505,0,0,0,.312.572l.449.685a2.258,2.258,0,0,1-.7-.97c-.279-.563-.551-1.367-1.677-1.259a.828.828,0,0,0-.541.829,4.174,4.174,0,0,0,.234,1.1,2.12,2.12,0,0,1,.094.6,2.146,2.146,0,0,1-.756,1.482,3.953,3.953,0,0,0-.074,6.023l1.637,2.5A8.734,8.734,0,0,1,93.9,126.7a5.347,5.347,0,0,0,1.4,2.474l3.887,5.935c-.234,1.146.2,2.53-1.3,3.288a.44.44,0,0,0-.2.426,1.925,1.925,0,0,0,.441,1.106c1.3,1.491,1.612,3.424,2.4,5.148a3.576,3.576,0,0,1,.351,1.429c0,1.112-.77,1.838-1.987,2.337-1.179.473-2.276.841-2.27,1.587a2.016,2.016,0,0,0,.757,1.268l1.3,1.981a8.237,8.237,0,0,1,.136,1.614c0,.087,0,.174,0,.259,0,.1,0,.206,0,.309a35.417,35.417,0,0,0,1.013,7.468,13.063,13.063,0,0,1,.324,2.8,7.522,7.522,0,0,1-2.48,5.825,2.232,2.232,0,0,0-.869,1.677,3,3,0,0,0,.357,1.292,8.563,8.563,0,0,0,1.24,1.811l3.715,5.672a3.416,3.416,0,0,1-.97,1.787c-2.83,2.687-4.8,6.089-7.054,9.252a2.126,2.126,0,0,0-.239.906c-.582,3.522-2.55,5.359-5.692,5.38a9.638,9.638,0,0,1-1.5-.115l-.02,0-.041-.007h-.005l-.056-.009-.013,0-.048-.008-.017,0-.044-.007-.015,0-.047-.008-.043-.008-.019,0-.062-.011a4.724,4.724,0,0,0-.915-.082,6.793,6.793,0,0,0-3.02.841,9.526,9.526,0,0,0-4.809,8.423,9,9,0,0,0,.535,3.123c.2.547.736,1.233.733,1.869a.99.99,0,0,1-.316.727,1.282,1.282,0,0,1-.928.339,5.378,5.378,0,0,1-1.6-.345l-.043-.014-.022-.007-.022-.007L75.8,214.4l-.026-.008-.075-.022-.009,0-.037-.01h0a3.739,3.739,0,0,0-1.007-.141c-2.086.014-2.91,2.148-4.23,3.447q0,.589,0,1.17c-.022-.007-.04-.017-.062-.025l.062.1c0,.063,0,.128,0,.191.059.019.111.046.169.067l5.923,9.043c2.055.685,3.435,2.244,4.871,3.722,1.908,1.945,3.919,3.695,6.868,3.755a1.025,1.025,0,0,1,.708.26l1.033,1.577c1.622,2.475,3.774,3.975,6.721,3.955a13.821,13.821,0,0,0,1.825-.166l4.278,6.532a.82.82,0,0,0,.292.266,10.575,10.575,0,0,0,4.3,1.207,4.631,4.631,0,0,1,3.019,1,4.2,4.2,0,0,0,2.457.774c1.172.043,2.348.049,3.527.041.644,0,1.29-.013,1.935-.021.848-.017,1.7-.023,2.594-.029a1.182,1.182,0,0,0,1.049-.45,1.254,1.254,0,0,0,.116-.2,1.863,1.863,0,0,0,.1-.275,3.218,3.218,0,0,0,.074-.353,3.226,3.226,0,0,1,.078-.365,2.358,2.358,0,0,1,.126-.346,1.649,1.649,0,0,1,.157-.274,1.465,1.465,0,0,1,1.272-.59,4.135,4.135,0,0,1,1.037.149,7.035,7.035,0,0,1,4.468,2.855,6.186,6.186,0,0,0,5.416,3.087,5.74,5.74,0,0,1,2.725,1.174,7.764,7.764,0,0,0,3.524,1.35,5.327,5.327,0,0,0,2.479-.83,3.855,3.855,0,0,1,1.686.768c1.136.658,2.02,1.975,3.452,1.965a4.743,4.743,0,0,1,1.26.1l.754,1.151a5.452,5.452,0,0,0,1.579,1.508,4.178,4.178,0,0,0,1.027,1.64l5.573,8.506A3.426,3.426,0,0,0,160.64,273c1.869.711,3.947,1.27,5.817,3.285l5.689,8.685a1.375,1.375,0,0,0,.326.327,2.949,2.949,0,0,0,.506.587l5.618,8.577a6.789,6.789,0,0,0,1.746,1.521,5.882,5.882,0,0,0,3.6,1.121,20.249,20.249,0,0,0,3.869-.6,6.238,6.238,0,0,1,1.2-.121,7.988,7.988,0,0,1,2.782.506,5.91,5.91,0,0,0,2.051.4,3.953,3.953,0,0,0,2.916-1.313,2.22,2.22,0,0,1,2.1-.675,2.306,2.306,0,0,0,1.749-1.149,3.919,3.919,0,0,1,2.974-1.769,4.584,4.584,0,0,1,3.176,1.647c.446.462,4.955,1.541,6.577,1.49a1.641,1.641,0,0,0,.654-.584c.133-.189.253-.4.4-.6a2.33,2.33,0,0,1,1.3-.951,5.035,5.035,0,0,1,1.479-.253c1.771-.012,2.808,1.179,3.975,2.289a7.056,7.056,0,0,0,1.436,1.143c-2.016,3.3-4.042,6.578-6.005,9.9-.5.858-1.509,1.674-1.513,2.707a1.917,1.917,0,0,0,.371,1.091,3.228,3.228,0,0,0,.435.474l5.658,8.636a3.808,3.808,0,0,0,3.234,1.57,3.913,3.913,0,0,0,1.323-.226,4.535,4.535,0,0,1,1.53-.311c1.563-.01,2.418,1.118,3.385,2.35.232.291.468.582.7.873l.927,1.415a1.234,1.234,0,0,0,1.174.636,1,1,0,0,0,.58-.385,1.036,1.036,0,0,0,.1-.175,1.448,1.448,0,0,0,.079-.218,2.508,2.508,0,0,0,.071-.377c.037-.319.035-.659.07-.96.007-.059.016-.115.026-.169q2.338-12.346,4.575-24.7,1.876-10.35,3.7-20.724.1-.538.159-1.069a14.975,14.975,0,0,0,.11-1.741q0-.336-.016-.668a10.535,10.535,0,0,0-.37-2.322,9.3,9.3,0,0,0-1.184-2.6l-1.673-2.554a2.712,2.712,0,0,1-.09-.552c0-.053,0-.106,0-.159a3.1,3.1,0,0,1,.023-.366,3.846,3.846,0,0,1,.12-.6l0-.006,0,0a3.48,3.48,0,0,0,.1-.513,3.145,3.145,0,0,0,.023-.373c0-.056,0-.112,0-.168a2.927,2.927,0,0,0-.105-.65,2.742,2.742,0,0,0-.347-.766l-6.155-9.4a2.746,2.746,0,0,1,.347.766c.022.076.023.158.038.236a2.761,2.761,0,0,0-1.67-1.79q-.005-.256-.005-.514c0-.518.016-1.05.054-1.6.095-1.339.151-2.384.248-3.212a8.2,8.2,0,0,1,.225-1.246,3.6,3.6,0,0,1,.189-.526,2.484,2.484,0,0,1,.233-.4c.7-.979,2.1-1.289,5.176-1.91.539-.107,1.113-.008,1.548-.445a2.041,2.041,0,0,1,1.4-.726,2.162,2.162,0,0,1,1.476.741,3.765,3.765,0,0,0,1.71.767,3.475,3.475,0,0,0,.846.11,1.585,1.585,0,0,0,1.364-.636,1.687,1.687,0,0,0,.154-.268,2.074,2.074,0,0,0,.111-.307,2.664,2.664,0,0,0,.08-.409,3.625,3.625,0,0,0,.023-.4q0-.128-.007-.262c0-.025,0-.049,0-.074s0-.036,0-.056c0-.088-.006-.177-.006-.265,0-.339.027-.681.027-1.02,0-.089,0-.177-.006-.266,0-.017,0-.035,0-.053a8.409,8.409,0,0,0-.266-1.738,3.926,3.926,0,0,0-.483-1.105l-6.155-9.4a3.944,3.944,0,0,1,.483,1.105,6.585,6.585,0,0,1,.138.654c-.461-2.13-1.729-2.952-4.451-3.03l-.128,0c.034-.086.059-.182.1-.263a3.848,3.848,0,0,1,.357-.62,3.673,3.673,0,0,1,3.171-1.455,8.507,8.507,0,0,1,1.856.214l.38.081.04.008.115.023.132.026h0l.05.01.017,0,.048.009.019,0,.066.013h0l.045.008.022,0,.127.024h.005l.055.01.012,0,.037.007.031.005.026,0,.041.007.026,0,.042.007.016,0,.051.009.034.005.034.006.061.01h0l.05.008.018,0,.031,0,.036.006.032.005.035.005.037.006.031,0,.056.009h.01l.06.01h.007l.122.019.012,0,.063.009h0l.054.008.013,0a45.809,45.809,0,0,0,6.9.4c1.534-.01,3.069-.064,4.6-.117,1.592-.055,3.18-.111,4.769-.122.838-.005,1.677,0,2.663.029a1.283,1.283,0,0,0,1.048-.357.549.549,0,0,0,.05-.086.509.509,0,0,0,.029-.08.529.529,0,0,0,.018-.089.691.691,0,0,0,0-.071c0-.015,0-.029,0-.045a.918.918,0,0,0-.037-.207,1.963,1.963,0,0,0-.251-.515l-.269-.411a2.01,2.01,0,0,1-.235-.485,1.174,1.174,0,0,1-.044-.259c0-.014,0-.028,0-.041a.84.84,0,0,1,.007-.123.926.926,0,0,1,.08-.281,1.034,1.034,0,0,1,.1-.17,2.113,2.113,0,0,1,.82-.624c.6,0,1.036.641,1.426,1.107a6.207,6.207,0,0,0,1.907,1.762,2.9,2.9,0,0,0,1.191.372.756.756,0,0,0,.649-.328,1.143,1.143,0,0,0,.1-.181,1.7,1.7,0,0,0,.09-.25,2.727,2.727,0,0,0,.077-.394,2.692,2.692,0,0,1,.082-.4,2.59,2.59,0,0,1,.14-.383,2.545,2.545,0,0,1,.235-.405,4.034,4.034,0,0,1,1.88-1.307,8.086,8.086,0,0,0,4.047-2.683,2.127,2.127,0,0,1,.166-.192,8.746,8.746,0,0,1,.4,2.618,7.974,7.974,0,0,1-.1,1.23,4.513,4.513,0,0,0-.065.772,3.669,3.669,0,0,0,1.161,2.69s.006,0,.008,0l5.514,8.418a4.1,4.1,0,0,0,.569.688,1.179,1.179,0,0,0,.855.316,2.394,2.394,0,0,0,1.394-.526,2.979,2.979,0,0,0,.573-.6,2.47,2.47,0,0,0,.368-.769,2.621,2.621,0,0,0,.079-.4,3.026,3.026,0,0,0,.021-.363c0-.055,0-.111,0-.167a4.553,4.553,0,0,0-.172-.987c-.051-.184-.113-.369-.183-.554-.972-2.532-2.194-5.006-2.918-7.6q-.124-.443-.227-.89c-.031-.129-.063-.259-.1-.386-.532-1.9-1.7-3.561-2.227-5.449a7.055,7.055,0,0,1-.263-1.553c-.005-.1-.008-.208-.008-.314,0-.063,0-.127,0-.191,0-.014,0-.028,0-.041s0-.044,0-.066a1.245,1.245,0,0,0-.044-.269,1.438,1.438,0,0,0-.181-.386l-6.155-9.4a1.413,1.413,0,0,1,.18.387,1.209,1.209,0,0,1,.039.237c-.241-.724-1.117-1.191-1.689-1.738-.016-.014-.028-.029-.044-.044,1.388-1.3,2.788-2.59,4.187-3.883a9.523,9.523,0,0,0,1.286-1.382,3.483,3.483,0,0,0,.323-.545,2.425,2.425,0,0,0,.135-.363,1.892,1.892,0,0,0,.06-.3A1.713,1.713,0,0,0,279,195.5c0-.032,0-.065,0-.1a1.86,1.86,0,0,0-.07-.418,2.466,2.466,0,0,0-.317-.67l-1.407-2.148c-.027-.1-.054-.205-.082-.307a4.155,4.155,0,0,0-.145-.44,10.047,10.047,0,0,0-.749-1.864l-4.827-7.369c-.048-.149-.111-.293-.154-.444a9.907,9.907,0,0,1-.371-2.169q-.007-.152-.01-.305c0-.022,0-.042,0-.064,0-.279.04-.6.04-.881,0-.044,0-.087,0-.129a1.376,1.376,0,0,0-.044-.3.677.677,0,0,0-.084-.192l-.727-1.11a5.556,5.556,0,0,1-.427-1.036,6.278,6.278,0,0,1-.221-1.4c-.007-.127-.01-.255-.01-.383a11.372,11.372,0,0,1,.09-1.377c.125-1.045.35-2.1.474-3.14.04-.332.069-.662.082-.991,0-.045.007-.09.012-.135.024-.2.069-.4.092-.592a1.79,1.79,0,0,0,.014-.21c0-.023,0-.045,0-.068a.919.919,0,0,0-.027-.186,12.236,12.236,0,0,1-.328-2.16q-.012-.226-.012-.448a7.174,7.174,0,0,1,.048-.831,5.95,5.95,0,0,1,.177-.909,5.336,5.336,0,0,1,.289-.788,5.156,5.156,0,0,1,.48-.828,6.648,6.648,0,0,1,2.1-1.851,1.342,1.342,0,0,0,.422-.384,1.407,1.407,0,0,0,.134-.233,1.655,1.655,0,0,0,.093-.255,2.2,2.2,0,0,0,.064-.331,2.935,2.935,0,0,0,.019-.351c0-.054,0-.109,0-.163a4.627,4.627,0,0,0-.088-.681,6.266,6.266,0,0,1-.13-.979c0-.1-.007-.192-.007-.287a5.168,5.168,0,0,1,.036-.613,4.986,4.986,0,0,1,.151-.763,5.052,5.052,0,0,1,.286-.772,6.007,6.007,0,0,1,.562-.964,8.17,8.17,0,0,1,.873-1.027,3.98,3.98,0,0,0,.421-.5,3.811,3.811,0,0,0,.684-1.769,3.9,3.9,0,0,0,.027-.457c0-.069,0-.138-.005-.208a4.012,4.012,0,0,0-.645-1.975l-6.156-9.4a3.994,3.994,0,0,1,.5,1.1c.016.059.016.123.03.183a3.839,3.839,0,0,0-2.945-2.657,8.775,8.775,0,0,0-1.761-.17,9.279,9.279,0,0,0-3.756.871c-2.236.976-4.91.891-7.376,1.366a25.086,25.086,0,0,1-4.532.421,54.253,54.253,0,0,1-7.444-.6,2.6,2.6,0,0,0-1.736.71,4.121,4.121,0,0,1-2.608,1.122,3.948,3.948,0,0,1-3.027-1.691c-3.035-3.689-6.059-7.39-9.036-11.125a4,4,0,0,0-3.164-1.926,4.177,4.177,0,0,0-1.107.169,3.242,3.242,0,0,1-.858.119,7.756,7.756,0,0,1-3.458-1.19,8.091,8.091,0,0,0-3.785-.989,7.569,7.569,0,0,0-3.719,1.063,3.814,3.814,0,0,1-1.939.5,11.472,11.472,0,0,1-1.422-.108,74.356,74.356,0,0,0-8.7-.59c-.9.007-1.8.042-2.7.116-.721.06-1.347.1-1.9.1a6.546,6.546,0,0,1-1.456-.13l-2.053-3.134c.008-.1.009-.2.021-.3a9.232,9.232,0,0,1,.277-1.41,8.87,8.87,0,0,1,.486-1.321,9.7,9.7,0,0,1,.694-1.246,3.434,3.434,0,0,0,.251-.451,3.753,3.753,0,0,0,.2-.55,4.109,4.109,0,0,0,.121-.618,4.481,4.481,0,0,0,.031-.539c0-.083,0-.165-.007-.248a5.6,5.6,0,0,0-.205-1.224,6.4,6.4,0,0,0-.8-1.765l-4.559-6.96a20.094,20.094,0,0,1-.661-1.931,22.5,22.5,0,0,1-.532-2.421,4.669,4.669,0,0,0-.11-.509,2.576,2.576,0,0,0-.317-.726l-5.587-8.529a14.018,14.018,0,0,0,1.112-1.959,17.247,17.247,0,0,0,.934-2.572,30.873,30.873,0,0,0,.867-4.7c.083-.7.154-1.406.222-2.1.01-.1.02-.2.032-.3A15.092,15.092,0,0,1,182.6,76a18.055,18.055,0,0,1,1.013-2.714,69.787,69.787,0,0,1,3.754-6.48c.3-.506.615-1.008.955-1.486a7.124,7.124,0,0,1,4.718-3.245,1.835,1.835,0,0,0,1.166-.827,4.987,4.987,0,0,0,.449-.8c.278-.605.5-1.277.732-1.834.065-.153.132-.3.2-.45a12.859,12.859,0,0,1,1.172-2.058,8.489,8.489,0,0,1,5.906-3.6,15.222,15.222,0,0,0,8.346-4.372,5.664,5.664,0,0,0,.629-.72,2.662,2.662,0,0,0,.244-.414,1.96,1.96,0,0,0,.1-.28,1.683,1.683,0,0,0,.051-.255,1.754,1.754,0,0,0,.011-.2c0-.03,0-.06,0-.09a2.044,2.044,0,0,0-.078-.453,3.437,3.437,0,0,0-.274-.665c-.244-.466-.5-.915-.776-1.337l-6.154-9.4c.277.423.531.872.775,1.337a3.393,3.393,0,0,1,.275.665,2.152,2.152,0,0,1,.043.249,3.353,3.353,0,0,0-.255-.628c-1.07-2.042-2.346-3.762-4.769-4.33a14.086,14.086,0,0,1-2.193-.936l-2.868.019" transform="translate(-70.354 -30.691)" fill="none"/>
    </clipPath>
    <linearGradient id="linear-gradient" x1="-0.194" y1="1.007" x2="-0.192" y2="1.007" gradientUnits="objectBoundingBox">
      <stop offset="0" stop-color="#14245c"/>
      <stop offset="0.999" stop-color="#273074"/>
      <stop offset="1" stop-color="#273074"/>
    </linearGradient>
    <clipPath id="clip-path-3">
      <path id="Trazado_244182" data-name="Trazado 244182" d="M172.241,389.839l4.2,8.559a10.56,10.56,0,0,1,2.018,1.075,7.764,7.764,0,0,0,3.524,1.35,5.327,5.327,0,0,0,2.479-.83,3.855,3.855,0,0,1,1.686.768c1.136.658,2.02,1.975,3.452,1.965a4.743,4.743,0,0,1,1.26.1l.754,1.151a5.451,5.451,0,0,0,1.579,1.508,4.179,4.179,0,0,0,1.027,1.64l5.573,8.506a3.427,3.427,0,0,0,1.746,1.348c1.87.711,3.947,1.27,5.817,3.285l5.689,8.685a1.375,1.375,0,0,0,.326.327,2.952,2.952,0,0,0,.506.587l5.618,8.577a6.789,6.789,0,0,0,1.746,1.521,5.882,5.882,0,0,0,3.6,1.121,20.244,20.244,0,0,0,3.869-.6,6.24,6.24,0,0,1,1.2-.121,7.99,7.99,0,0,1,2.782.506,5.911,5.911,0,0,0,2.051.4,3.953,3.953,0,0,0,2.916-1.313,2.22,2.22,0,0,1,2.1-.675,2.306,2.306,0,0,0,1.749-1.149,3.919,3.919,0,0,1,2.974-1.769,4.584,4.584,0,0,1,3.176,1.647c.446.462,4.955,1.541,6.577,1.49a1.641,1.641,0,0,0,.654-.584c.133-.189.253-.4.4-.6a2.331,2.331,0,0,1,1.3-.951,5.032,5.032,0,0,1,1.479-.253c1.771-.012,2.807,1.179,3.975,2.289a7.054,7.054,0,0,0,1.436,1.143c-2.016,3.3-4.042,6.578-6.005,9.9-.664,1.138-2.222,2.2-1.142,3.8a3.222,3.222,0,0,0,.435.474l5.658,8.636a3.808,3.808,0,0,0,3.234,1.57,3.912,3.912,0,0,0,1.323-.226,4.535,4.535,0,0,1,1.53-.311c1.563-.01,2.418,1.118,3.385,2.35.232.291.468.582.7.873l.927,1.415a1.233,1.233,0,0,0,1.174.636,1,1,0,0,0,.58-.385,1.04,1.04,0,0,0,.1-.175,1.447,1.447,0,0,0,.079-.218,2.512,2.512,0,0,0,.071-.377c.037-.319.035-.659.07-.96.007-.059.016-.115.026-.169q2.338-12.346,4.575-24.7,1.876-10.35,3.7-20.723.1-.538.159-1.069a14.348,14.348,0,0,0,.094-2.409,10.535,10.535,0,0,0-.37-2.322,9.3,9.3,0,0,0-1.183-2.6L280.922,411a2.711,2.711,0,0,1-.09-.552,3.137,3.137,0,0,1,.019-.525,3.84,3.84,0,0,1,.12-.6l0-.006,0,0a3.473,3.473,0,0,0,.1-.513,3.154,3.154,0,0,0,.019-.541,2.923,2.923,0,0,0-.105-.649,2.741,2.741,0,0,0-.347-.766l-6.155-9.4a2.744,2.744,0,0,1,.347.766c.022.076.023.158.038.236a2.761,2.761,0,0,0-1.67-1.79c-.014-.681,0-1.38.049-2.116.026-.362.048-.7.07-1.024l-5.884-4.119Z" transform="translate(-172.241 -389.401)" fill="none"/>
    </clipPath>
    <linearGradient id="linear-gradient-2" x1="-0.659" y1="0.834" x2="-0.654" y2="0.834" gradientUnits="objectBoundingBox">
      <stop offset="0" stop-color="#8a1e25"/>
      <stop offset="0.282" stop-color="#901f26"/>
      <stop offset="0.682" stop-color="#a3222a"/>
      <stop offset="1" stop-color="#b7262f"/>
    </linearGradient>
    <clipPath id="clip-path-4">
      <path id="Trazado_244183" data-name="Trazado 244183" d="M209.367,30.71c-.615,2.787-3.531,2.3-5.261,3.5-1.066.74-2,.884-2.119,2.511a5.678,5.678,0,0,1-4.318,5.227c-5.494,1.5-9.6,5.159-14.089,8.326a8.807,8.807,0,0,1-5.144,1.546,20.284,20.284,0,0,1-5.71-.969,10.654,10.654,0,0,0-2.9-.521c-1.877.013-2.754,1.143-3.188,3.985a2.2,2.2,0,0,1-2.269,2.019c-.272.029-.54.043-.806.046a11.909,11.909,0,0,1-4.99-1.254,3.863,3.863,0,0,0-1.653-.406,3.532,3.532,0,0,0-2.442,1.166c-2.417,2.318-5.191,4.236-7.655,6.474a8.3,8.3,0,0,0-2.776,8.112c.37,2.013-.693,4.332-1.252,6.476-.275,1.044-.582,1.87.348,2.8.827.83.588,1.92.039,2.9-.462.831-1.186,1-2.512.99q-.418-.022-.808-.019c-3.2.021-5.035,1.292-6.494,4.362-2.207,4.663-6.093,7.436-10.737,9.265-2.029.792-2.064.976-.615,2.718.075.089.123.185.19.276l.533.814c1.234,2.321.815,5.013.759,7.578,0,.016-.01.027-.011.043l-2.026-3.095a1.845,1.845,0,0,1,.233.5,1.744,1.744,0,0,1,.037.219c-.345-1.019-1.652-1.622-2.233-2.342-1.3-1.576-2.889-2.931-4.208-4.538l-1.066-1.626c.059.09.115.18.17.264l.876,1.339c-.265-.324-.537-.642-.773-.992-.377-.556-.748-1.431-2.125-1.13-.939.7-1.03,1.77-.328,2.979a24.431,24.431,0,0,1,3.189,7.362c.069.377.266,1.017.128,1.11-2.407,1.561-2.907,4.621-5.119,6.33a1.6,1.6,0,0,1-.908.414.591.591,0,0,1-.15-.038l-1.283-1.959a6.05,6.05,0,0,1,.338.646,5.508,5.508,0,0,0,.312.572l.449.685a2.258,2.258,0,0,1-.7-.97c-.279-.563-.551-1.367-1.677-1.259-.837.361-.5,1.252-.306,1.925a1.91,1.91,0,0,1-.662,2.077c-1.916,2.035-1.873,4.026-.074,6.023l1.637,2.5a8.734,8.734,0,0,1,.275,1.036,5.347,5.347,0,0,0,1.4,2.474l3.887,5.935c-.234,1.146.2,2.53-1.3,3.288-.4.209-.125,1.112.244,1.532,1.3,1.491,1.612,3.424,2.4,5.148.875,1.963.038,3.079-1.635,3.766-1.705.684-3.238,1.149-1.513,2.855l1.3,1.981a8.863,8.863,0,0,1,.133,1.873,34.3,34.3,0,0,0,1.01,7.778c.681,3.11.434,6.282-2.156,8.624a3.755,3.755,0,0,0-.3.3l168.1.163,3.966,2.174q-.023-.213-.034-.427a10.415,10.415,0,0,1,.08-1.76c.125-1.045.35-2.1.474-3.14.04-.332.069-.662.082-.991,0-.045.007-.09.012-.135.024-.2.069-.4.092-.592a1.62,1.62,0,0,0,.013-.278.922.922,0,0,0-.027-.186,12.236,12.236,0,0,1-.328-2.16,7.54,7.54,0,0,1,.036-1.279,5.953,5.953,0,0,1,.177-.909,5.333,5.333,0,0,1,.289-.788,5.156,5.156,0,0,1,.48-.828,6.648,6.648,0,0,1,2.1-1.851,1.342,1.342,0,0,0,.422-.384,1.4,1.4,0,0,0,.134-.233,1.655,1.655,0,0,0,.093-.255,2.193,2.193,0,0,0,.064-.331,3.051,3.051,0,0,0,.014-.514,4.631,4.631,0,0,0-.088-.681,6.266,6.266,0,0,1-.13-.979,5.327,5.327,0,0,1,.029-.9,4.986,4.986,0,0,1,.151-.763,5.049,5.049,0,0,1,.286-.772,6,6,0,0,1,.562-.964,8.17,8.17,0,0,1,.873-1.027,3.98,3.98,0,0,0,.421-.5,3.81,3.81,0,0,0,.684-1.769,4,4,0,0,0-.624-2.641l-6.156-9.4a4,4,0,0,1,.5,1.1c.016.059.016.123.03.183a3.839,3.839,0,0,0-2.945-2.657,8.775,8.775,0,0,0-1.761-.17,9.279,9.279,0,0,0-3.756.871c-2.236.976-4.91.891-7.376,1.366a25.086,25.086,0,0,1-4.532.421,54.253,54.253,0,0,1-7.444-.6,2.6,2.6,0,0,0-1.736.71,4.121,4.121,0,0,1-2.608,1.122,3.948,3.948,0,0,1-3.027-1.691c-3.035-3.689-6.059-7.39-9.036-11.125a4,4,0,0,0-3.164-1.926,4.177,4.177,0,0,0-1.107.169,3.242,3.242,0,0,1-.858.119,7.756,7.756,0,0,1-3.458-1.19,8.091,8.091,0,0,0-3.785-.989,7.569,7.569,0,0,0-3.719,1.063,3.814,3.814,0,0,1-1.939.5,11.472,11.472,0,0,1-1.422-.108,74.356,74.356,0,0,0-8.7-.59c-.9.007-1.8.042-2.7.116-.721.06-1.347.1-1.9.1a6.546,6.546,0,0,1-1.456-.13l-2.053-3.134c.008-.1.009-.2.021-.3a9.232,9.232,0,0,1,.277-1.41,8.872,8.872,0,0,1,.486-1.321,9.7,9.7,0,0,1,.694-1.246,3.441,3.441,0,0,0,.251-.451,3.753,3.753,0,0,0,.2-.55,4.109,4.109,0,0,0,.121-.618,4.664,4.664,0,0,0,.024-.788,5.6,5.6,0,0,0-.205-1.224,6.4,6.4,0,0,0-.8-1.765l-4.559-6.96a20.1,20.1,0,0,1-.661-1.931,22.505,22.505,0,0,1-.532-2.421,4.662,4.662,0,0,0-.11-.509,2.576,2.576,0,0,0-.317-.726l-5.587-8.529a14.013,14.013,0,0,0,1.112-1.959,17.247,17.247,0,0,0,.934-2.572,30.875,30.875,0,0,0,.867-4.7c.083-.7.154-1.406.222-2.1.01-.1.02-.2.032-.3A15.094,15.094,0,0,1,196.2,76a18.052,18.052,0,0,1,1.013-2.714,69.787,69.787,0,0,1,3.754-6.48c.3-.506.615-1.008.955-1.486a7.124,7.124,0,0,1,4.718-3.245,1.835,1.835,0,0,0,1.166-.827,4.988,4.988,0,0,0,.449-.8c.278-.605.5-1.277.732-1.834.065-.153.132-.3.2-.45a12.859,12.859,0,0,1,1.172-2.058,8.489,8.489,0,0,1,5.906-3.6,15.222,15.222,0,0,0,8.346-4.372,5.666,5.666,0,0,0,.629-.72,2.662,2.662,0,0,0,.244-.414,1.962,1.962,0,0,0,.1-.28,1.633,1.633,0,0,0,.059-.541,2.044,2.044,0,0,0-.078-.453,3.439,3.439,0,0,0-.274-.665c-.244-.466-.5-.915-.776-1.337l-6.154-9.4c.277.423.531.872.775,1.337a3.393,3.393,0,0,1,.275.665,2.152,2.152,0,0,1,.043.249,3.354,3.354,0,0,0-.255-.628c-1.07-2.042-2.346-3.762-4.769-4.33a14.085,14.085,0,0,1-2.193-.936l-2.868.019" transform="translate(-104.227 -30.691)" fill="none"/>
    </clipPath>
    <linearGradient id="linear-gradient-3" x1="-0.332" y1="2.064" x2="-0.329" y2="2.064" gradientUnits="objectBoundingBox">
      <stop offset="0" stop-color="#eb7617"/>
      <stop offset="0.181" stop-color="#ec7f18"/>
      <stop offset="0.671" stop-color="#ef931c"/>
      <stop offset="1" stop-color="#f19b1e"/>
    </linearGradient>
    <clipPath id="clip-path-5">
      <path id="Trazado_244184" data-name="Trazado 244184" d="M209.674,28.912c-.618,2.8-3.54,2.287-5.27,3.484-1.065.737-2,.878-2.126,2.506a5.66,5.66,0,0,1-4.332,5.218c-5.508,1.47-9.625,5.121-14.131,8.268-3.291,2.3-7.291,1.571-10.872.506-3.981-1.183-5.48-.6-6.107,3.439a2.188,2.188,0,0,1-2.272,2.006,11.034,11.034,0,0,1-5.8-1.258,3.285,3.285,0,0,0-4.107.738c-2.421,2.312-5.2,4.223-7.673,6.455a8.3,8.3,0,0,0-2.8,8.123c.364,2.027-.7,4.342-1.263,6.491-.273,1.043-.588,1.88.341,2.82.825.834.591,1.927.04,2.9-.569,1.009-1.523,1.033-2.515.976-3.723-.214-5.737.99-7.323,4.318-2.225,4.663-6.121,7.426-10.773,9.223-2.035.785-2.073.964-.625,2.724,2.114,2.57,1.544,5.729,1.477,8.712-.02.918-.991,1.268-1.857.908-1.023-.426-.5-.983-.124-1.694,1.115-2.095-1.188-2.9-2.024-3.929-1.558-1.925-3.583-3.495-5-5.61-.491-.735-.973-2.022-2.127-1.156-.942.708-1.03,1.769-.333,2.989a24.468,24.468,0,0,1,3.18,7.414c.073.38.271,1.026.132,1.116-2.41,1.547-2.919,4.618-5.139,6.32-1.12.857-1.495.26-1.941-.663-.332-.686-.652-1.7-1.676-1.277-.842.35-.505,1.249-.313,1.925a1.922,1.922,0,0,1-.665,2.083c-2.042,2.153-1.9,4.272.232,6.41a5.687,5.687,0,0,1,1.6,3.2c.363,1.8,2.066,3.341,3.735,4.412,1.45.931,2.365,1.9,1.656,3.671-.485,1.209.26,2.851-1.418,3.689-.405.2-.129,1.115.236,1.535,1.308,1.509,1.613,3.45,2.39,5.188.883,1.974.043,3.1-1.644,3.769-1.851.739-3.525,1.213-.987,3.347.819.688.918,2.157.9,3.389a34.608,34.608,0,0,0,1.006,7.817c.669,3.127.421,6.314-2.18,8.648a2.318,2.318,0,0,0-.863,1.466H278.868a9.408,9.408,0,0,1-.287-2.144c-.008-.551.163-1.281-.118-1.624-2.468-3-.824-6.266-.691-9.427a4.72,4.72,0,0,0,.093-1.189c-.755-3.211-.43-5.972,2.769-7.827.795-.461.829-1.482.636-2.412a5.612,5.612,0,0,1,1.789-5.411,3.928,3.928,0,0,0-1.99-6.6,8.852,8.852,0,0,0-5.532.661c-2.236.964-4.915.869-7.385,1.325a34.749,34.749,0,0,1-11.55-.227,2.567,2.567,0,0,0-2.191.663c-1.978,1.673-3.965,1.453-5.645-.608q-4.552-5.583-9.023-11.231c-1.125-1.429-2.285-2.338-4.278-1.794-1.553.424-3.036-.426-4.32-1.1a7.365,7.365,0,0,0-7.518.019,5.027,5.027,0,0,1-3.375.377,58.927,58.927,0,0,0-11.41-.557c-3.9.3-5.076.059-6.123-3.639-.437-1.543-.934-2.423-2.714-2.233a2.126,2.126,0,0,1-2.357-1.96c-.506-3.04-.742-5.916,1.184-8.843,1.225-1.861.453-4.646-1.033-6.233a19.44,19.44,0,0,1-5.116-10.587c-.218-1.36-.858-2.462-2.556-2.214-.66.1-1.13-.128-1.23-.808-.366-2.458-1.661-1.763-3.033-.933a9.947,9.947,0,0,1-1.3.622,1.2,1.2,0,0,1-1.355-.044c-.474-.421-.18-.9.04-1.306a14.053,14.053,0,0,1,1.918-3.3c3.64-3.69,4.2-8.594,4.658-13.2.469-4.721,3.071-8.123,5.294-11.819,1.282-2.133,2.733-4.2,5.683-4.708,1.344-.23,1.8-2.162,2.361-3.459,1.415-3.3,3.517-5.494,7.294-6.08a15.131,15.131,0,0,0,8.367-4.333c1.042-1.022,1.368-1.782.693-3.085-1.068-2.057-2.347-3.788-4.766-4.378a13.426,13.426,0,0,1-2.195-.957Z" transform="translate(-104.209 -28.912)" fill="none"/>
    </clipPath>
    <linearGradient id="linear-gradient-4" x1="-0.34" y1="2.09" x2="-0.337" y2="2.09" gradientUnits="objectBoundingBox">
      <stop offset="0" stop-color="#ebb129"/>
      <stop offset="0.581" stop-color="#efc32e"/>
      <stop offset="1" stop-color="#f1cb30"/>
    </linearGradient>
    <clipPath id="clip-path-6">
      <path id="Trazado_244185" data-name="Trazado 244185" d="M96.652,267.157a2.777,2.777,0,0,0,.345,1.5c.884,1.832,2.5,3.092,3.793,4.612.439.517,1.853-.093,1.534,1.024-.352,1.232-.156,2.569-1.349,3.7-2.832,2.68-4.816,6.083-7.079,9.243a2.209,2.209,0,0,0-.243.906c-.7,4.21-3.362,6.008-7.639,5.166a6.082,6.082,0,0,0-3.938.729c-3.956,2-5.832,7.376-4.306,11.565.284.777,1.222,1.815.414,2.612-.615.608-1.7.249-2.526-.025-3.075-1.016-3.939,1.684-5.507,3.209v1.44c2.056.7,3.433,2.274,4.875,3.764,1.9,1.969,3.92,3.74,6.871,3.814.675.017.919.448,1.209.972,1.938,3.505,4.721,5.481,8.922,4.756.517-.09,1.152-.063,1.262.4.384,1.606,1.561,2.31,2.892,2.944a1.008,1.008,0,0,1,.372.8c-.026.937-.65,2.23.2,2.709a10.452,10.452,0,0,0,4.318,1.241,4.621,4.621,0,0,1,3.014,1.029,4.26,4.26,0,0,0,2.467.79c1.842.069,3.688.062,5.533.055.834,0,1.667-.007,2.5,0,.875,0,1.242-.4,1.379-1.279.247-1.575,1.286-1.785,2.679-1.416a7.143,7.143,0,0,1,4.47,2.893c1.225,1.813,2.875,3.228,5.316,3.137,1.127-.041,1.932.705,2.83,1.2,1.749.96,3.388,2.152,5.516.716.673-.454,1.486.207,2.19.626,1.367.814,2.363,2.562,4.4,1.826a.68.68,0,0,1,.569.336c.754,2.62,3.469,3.1,5.14,4.715,1.836,1.776,2.026,4.224,2.775,6.409.5,1.451.909,2.479,2.506,3.1,1.954.765,4.141,1.334,5.449,3.269a1.048,1.048,0,0,0,.626.33c1.689.34,3.448.3,4.149,2.546.5,1.614,1.449,2.883,1.109,4.889-.32,1.9,2.015,2.112,3.441,2.53a2.8,2.8,0,0,0,1.042.023c.727-.072,1.456-.144,1.858.845.635,1.564,1.1,3.26.35,4.833-1.008,2.114.191,2.871,1.674,3.944,2.471,1.789,4.9,1.092,7.484.575a7.459,7.459,0,0,1,3.99.41c1.852.691,3.543.608,4.976-.886a1.735,1.735,0,0,1,1.676-.7c1.038.224,1.613-.371,2.188-1.1,1.843-2.323,3.968-2.336,6.161-.074.493.509,5.972,1.828,6.587,1.541.956-.446.84-1.673,2.348-2.136,2.757-.846,4,.687,5.467,2.08a4.147,4.147,0,0,0,2.684,1.551c2.857.3,4.806,2.635,7.239,3.934.711.381-.211,1.283-.552,1.846-2.612,4.313-5.309,8.576-7.877,12.915-.672,1.135-2.228,2.192-1.152,3.8a4.038,4.038,0,0,0,4.56,1.384c2.621-.948,3.678.477,4.925,2.072.344.441.684.884,1.037,1.318.52.638.638,1.923,1.766,1.635,1.049-.267.78-1.476.934-2.284q2.35-12.377,4.614-24.77,1.9-10.383,3.737-20.777c.616-3.493.3-6.787-2.178-9.616a3.054,3.054,0,0,1-.732-3.082,2.892,2.892,0,0,0-1.693-3.594c-5.243-2.1-6.392-6.017-6.014-11.3.435-6.077.1-6.116,6.092-7.282.541-.105,1.115,0,1.55-.441a1.778,1.778,0,0,1,2.879.032,3.875,3.875,0,0,0,1.717.787c1.755.444,2.7-.414,2.578-2.236-.036-.554.036-1.115,0-1.67-.193-3.2-1.391-4.34-4.637-4.448-6.65-.221-6.65-.221-6.643-6.645,0-3.856,2.028-5.522,5.911-4.643,4.567,1.034,9.166.9,13.765.77,2.425-.07,4.85-.139,7.27-.038,1.106.045,1.778-.406.905-1.6-.52-.712-.828-1.567.049-2.08s1.453.359,1.948.957a6.294,6.294,0,0,0,1.913,1.786c.964.485,1.919.754,2.11-.766a3.157,3.157,0,0,1,2.342-2.5,8.058,8.058,0,0,0,4.058-2.67c.712-.972,1.646-1,1.823.588a9.162,9.162,0,0,0,2.706,5.276,8.773,8.773,0,0,1,2.021,7,3.781,3.781,0,0,0,1.1,3.481,1.791,1.791,0,0,0,2.244-.2c1.294-1.024,1.229-2.431.691-3.854-1.073-2.84-2.472-5.606-3.133-8.538-.619-2.748-2.682-4.961-2.585-7.939.032-.986-1.084-1.535-1.767-2.18-2.415-2.281-3.871-5.621-7.555-6.53-1.344-.332-.272-1.119.164-1.533,1.8-1.711,3.641-3.371,5.468-5.05,1.6-1.473,2.85-2.937.589-4.939-.473-.418-.524-1.309-.783-1.977-.475-1.228-.621-2.739-2.483-2.751a.971.971,0,0,1-.735-.526c-.7-2.326-2.024-4.451-2.607-6.814Z" transform="translate(-70.152 -267.157)" fill="none"/>
    </clipPath>
    <linearGradient id="linear-gradient-5" x1="-0.199" y1="1.073" x2="-0.196" y2="1.073" gradientUnits="objectBoundingBox">
      <stop offset="0" stop-color="#1d3383"/>
      <stop offset="0.999" stop-color="#34409b"/>
      <stop offset="1" stop-color="#34409b"/>
    </linearGradient>
    <clipPath id="clip-path-7">
      <path id="Trazado_244186" data-name="Trazado 244186" d="M171.88,389.7c.072.043.144.084.216.124,1.749.96,3.388,2.152,5.516.716.673-.454,1.486.207,2.19.626,1.367.814,2.363,2.562,4.4,1.826a.68.68,0,0,1,.569.336c.754,2.62,3.469,3.1,5.14,4.715,1.836,1.776,2.026,4.224,2.775,6.409.5,1.451.909,2.479,2.506,3.1,1.954.765,4.141,1.334,5.449,3.269a1.048,1.048,0,0,0,.626.33c1.689.34,3.448.3,4.149,2.546.5,1.614,1.449,2.883,1.109,4.889-.32,1.9,2.015,2.112,3.441,2.53a2.8,2.8,0,0,0,1.042.023c.727-.072,1.456-.144,1.858.845.635,1.564,1.1,3.26.35,4.833-1.008,2.114.191,2.871,1.674,3.944,2.471,1.789,4.9,1.092,7.484.575a7.458,7.458,0,0,1,3.99.41c1.852.691,3.543.608,4.976-.886a1.735,1.735,0,0,1,1.676-.7c1.038.224,1.613-.371,2.188-1.1,1.843-2.323,3.968-2.336,6.161-.074.493.509,5.972,1.828,6.587,1.541.956-.446.84-1.673,2.348-2.136,2.757-.846,4,.687,5.467,2.08a4.147,4.147,0,0,0,2.684,1.551c2.857.3,4.806,2.635,7.239,3.934.711.381-.211,1.283-.552,1.846-2.612,4.313-5.309,8.576-7.877,12.915-.672,1.135-2.228,2.192-1.152,3.8a4.038,4.038,0,0,0,4.56,1.384c2.621-.948,3.678.476,4.925,2.072.344.441.684.884,1.037,1.318.52.638.638,1.923,1.766,1.635,1.049-.267.78-1.476.934-2.284q2.35-12.377,4.614-24.77,1.9-10.383,3.737-20.777c.616-3.493.3-6.787-2.178-9.616a3.054,3.054,0,0,1-.732-3.082,2.892,2.892,0,0,0-1.693-3.594c-3.743-1.5-5.4-3.925-5.9-7.11Z" transform="translate(-171.88 -389.697)" fill="none"/>
    </clipPath>
    <linearGradient id="linear-gradient-6" x1="-0.967" y1="1.149" x2="-0.961" y2="1.149" gradientUnits="objectBoundingBox">
      <stop offset="0" stop-color="#a9252e"/>
      <stop offset="0.282" stop-color="#af262f"/>
      <stop offset="0.683" stop-color="#c22833"/>
      <stop offset="1" stop-color="#d62c37"/>
    </linearGradient>
  </defs>
  <g id="Grupo_243984" data-name="Grupo 243984" transform="translate(-287.286 -1238)">
    <g id="Grupo_243804" data-name="Grupo 243804" transform="translate(287.286 1238)">
      <g id="Grupo_243791" data-name="Grupo 243791">
        <g id="Grupo_243790" data-name="Grupo 243790" clip-path="url(#clip-path)">
          <path id="Trazado_244152" data-name="Trazado 244152" d="M4.734,273.519a12.087,12.087,0,0,1-2.548,1.251A150.948,150.948,0,0,0,.07,304.929a14.547,14.547,0,0,1,3.209-2.554c1.617-.939,3.441-1.514,4.995-2.563,1.289-.875,2.359-2.053,3.7-2.855a7.956,7.956,0,0,1,5.709-.94,3.679,3.679,0,0,1,1.578.694c1.426,1.2.844,3.68-.6,4.874s-3.385,1.5-5.184,1.984A24.107,24.107,0,0,0,.5,312.615q.594,7.309,1.9,14.53A52.408,52.408,0,0,0,5.6,338.7a34.865,34.865,0,0,1,2.227,5.51c.006.024.014.043.02.067.011.06.028.115.039.174a11.545,11.545,0,0,1,.252,2.938c.506-.394,1.017-.782,1.537-1.162,0-.006.008-.01.015-.015a71.725,71.725,0,0,1,20.026-10.345c.291-.794.583-1.6.869-2.391,1.625-4.523,3.273-9.156,3.271-13.965a20.917,20.917,0,0,0-1.1-6.618,5.572,5.572,0,0,1-.482-2.55c.133-.862.959-1.694,1.8-1.463a1.83,1.83,0,0,1,.779.506c1.334,1.315,1.716,3.293,1.964,5.146.863,6.553.732,13.445-1.26,19.683a69.515,69.515,0,0,1,12.479-1.828c.44-.024.886-.04,1.326-.058a38,38,0,0,0,2.74-8.079,32.914,32.914,0,0,0,.887-7.327c-.011-1.333-.131-2.661-.166-3.988a65.951,65.951,0,0,1,.379-7.65q.331-3.675.656-7.351c.212-2.354.425-4.709.866-7.032.152-.818.46-1.775,1.264-2,1.055-.3,1.894.885,2.273,1.911a18.173,18.173,0,0,1,1.075,5.14c.175,2.727-.269,5.51.3,8.187.642,3,2.5,5.63,3.147,8.627.69,3.207-.065,6.545-1.057,9.672a31.858,31.858,0,0,1-4.672,9.618q.8-.049,1.611-.131a43.738,43.738,0,0,0,26.887-13.135,116.439,116.439,0,0,0-1.681-17.038,18.78,18.78,0,0,0-1.443-5.113c-1.479-3.026-4.327-5.119-7.149-6.954a12.07,12.07,0,0,1-2.872-2.282,3.866,3.866,0,0,1-.916-3.415,2.334,2.334,0,0,1,2.836-1.644,4.011,4.011,0,0,1,1.394,1.081,15.4,15.4,0,0,0,2.9,2.409c3.411,2.118,7.927,2.416,10.7,5.309a13.508,13.508,0,0,1,2.656,4.767,56.438,56.438,0,0,1,2.794,10.5,164.89,164.89,0,0,0,10.975-18.663,24.355,24.355,0,0,0-2.966-5.261A18.284,18.284,0,0,0,91.2,275.2c-1.4-.21-2.828-.224-4.2-.543a5.372,5.372,0,0,1-3.474-2.228,4.389,4.389,0,0,1,.828-5.159,6.5,6.5,0,0,1,5.187-1.663,12.826,12.826,0,0,1,5.237,1.917,29.666,29.666,0,0,1,10.954,11.988,37.782,37.782,0,0,1,1.85,4.256,72.8,72.8,0,0,0,3.67-10.629c1.316-5.138,1.912-10.9-.719-15.5a22.391,22.391,0,0,0-4.148-4.9,43.78,43.78,0,0,0-6.4-5.25A26.96,26.96,0,0,0,65.042,252.4c0,.006-.007,0-.008.01a26.036,26.036,0,0,0-2.159,2.806,15.707,15.707,0,0,1,.361-2.433,24.291,24.291,0,0,1,1.476-4.359c.758-1.748,1.662-3.454,2.516-5.142,3.775-7.422,5.408-19.047-4.26-22.839-3.1-1.217-6.706-1.223-9.96-1.776-5.236-.895-10.294-2.1-15.475-.158a16.452,16.452,0,0,0-1.764.788c.939.287,1.868.622,2.779.96,3.165,1.172,6.386,2.465,8.888,4.733s4.186,5.743,3.44,9.043a2.173,2.173,0,0,1-1.236,1.729,2.223,2.223,0,0,1-2.059-.811,25.567,25.567,0,0,1-3.2-4.72,22.52,22.52,0,0,0-4.213-4.923,9.328,9.328,0,0,0-3.93-2.243,11.571,11.571,0,0,0-2.794-.165c-1,.022-1.988.041-2.986.064-.864.734-1.7,1.494-2.534,2.264a121.278,121.278,0,0,0-9.295,9.446,58.161,58.161,0,0,1,15.991,5.4,26.6,26.6,0,0,1,5.864,3.848,21.683,21.683,0,0,1,6.426,12.467c.158.951.105,2.207-.808,2.518a1.875,1.875,0,0,1-1.754-.616,17.847,17.847,0,0,1-3.07-4.652,26.81,26.81,0,0,0-10.144-10.163,11.768,11.768,0,0,0-5.179-1.726c-2.082-.087-4.083.686-6.114,1.155a21.485,21.485,0,0,1-6.954.447c-.2-.023-.393-.041-.595-.066q-.653,1.078-1.259,2.2a72.365,72.365,0,0,0-5.643,14.919c-.508,1.845-.967,3.7-1.4,5.561a24.828,24.828,0,0,1,3.813-1.982,9.975,9.975,0,0,1,2.6-.788,20.079,20.079,0,0,1,2.764.01c3.41.046,6.71-1.261,10.118-1.347a14.432,14.432,0,0,1,11.524,5.416,3.215,3.215,0,0,1,.828,1.8,2.4,2.4,0,0,1-1.887,2.185,6.146,6.146,0,0,1-3.067-.205,30.476,30.476,0,0,1-6.031-2.27c-2.256-1.128-4.482-2.569-7-2.69s-4.94,1.134-6.956,2.673-3.8,3.383-5.942,4.754" transform="translate(0 -95.29)" fill="#06000a"/>
          <path id="Trazado_244153" data-name="Trazado 244153" d="M8.317,261.1a12.086,12.086,0,0,1-2.548,1.251,150.948,150.948,0,0,0-2.116,30.16,14.547,14.547,0,0,1,3.209-2.554c1.617-.939,3.441-1.514,4.995-2.563,1.289-.875,2.359-2.053,3.7-2.855a7.956,7.956,0,0,1,5.709-.941,3.679,3.679,0,0,1,1.578.694c1.426,1.2.844,3.68-.6,4.874s-3.385,1.5-5.184,1.984A24.107,24.107,0,0,0,4.086,300.2q.594,7.309,1.9,14.53a52.408,52.408,0,0,0,3.2,11.553,34.865,34.865,0,0,1,2.227,5.51c.006.024.014.043.02.067.011.06.028.115.038.174a11.52,11.52,0,0,1,.252,2.938c.506-.394,1.017-.782,1.537-1.162,0-.006.008-.01.015-.015A71.726,71.726,0,0,1,33.3,323.448c.291-.794.583-1.6.869-2.391,1.625-4.523,3.273-9.156,3.271-13.965a20.918,20.918,0,0,0-1.1-6.618,5.572,5.572,0,0,1-.482-2.55c.133-.862.959-1.694,1.8-1.463a1.829,1.829,0,0,1,.779.506c1.334,1.315,1.716,3.293,1.964,5.146.863,6.553.732,13.445-1.26,19.683a69.515,69.515,0,0,1,12.479-1.828c.44-.024.886-.04,1.326-.058a38.005,38.005,0,0,0,2.74-8.079,32.914,32.914,0,0,0,.887-7.327c-.011-1.333-.131-2.661-.167-3.988a66.076,66.076,0,0,1,.38-7.65q.331-3.675.656-7.351c.212-2.354.425-4.709.866-7.032.152-.818.46-1.775,1.264-2,1.055-.3,1.894.885,2.273,1.911a18.173,18.173,0,0,1,1.075,5.14c.175,2.727-.269,5.51.3,8.187.642,3,2.5,5.63,3.147,8.627.69,3.207-.065,6.545-1.057,9.672a31.858,31.858,0,0,1-4.672,9.618q.8-.049,1.611-.131A43.738,43.738,0,0,0,89.14,306.367a116.44,116.44,0,0,0-1.681-17.038,18.774,18.774,0,0,0-1.443-5.113c-1.479-3.026-4.327-5.119-7.149-6.954A12.07,12.07,0,0,1,76,274.98a3.866,3.866,0,0,1-.916-3.415,2.334,2.334,0,0,1,2.836-1.644A4.011,4.011,0,0,1,79.31,271a15.411,15.411,0,0,0,2.9,2.409c3.411,2.118,7.928,2.416,10.7,5.309a13.508,13.508,0,0,1,2.656,4.767,56.439,56.439,0,0,1,2.794,10.5,164.887,164.887,0,0,0,10.975-18.663,24.355,24.355,0,0,0-2.966-5.261,18.284,18.284,0,0,0-11.59-7.283c-1.4-.21-2.828-.224-4.2-.543a5.372,5.372,0,0,1-3.474-2.228,4.389,4.389,0,0,1,.828-5.159,6.5,6.5,0,0,1,5.187-1.663,12.826,12.826,0,0,1,5.237,1.917,29.666,29.666,0,0,1,10.954,11.988,37.782,37.782,0,0,1,1.85,4.256,72.8,72.8,0,0,0,3.67-10.629c1.316-5.138,1.912-10.9-.72-15.5a22.375,22.375,0,0,0-4.148-4.9,43.809,43.809,0,0,0-6.4-5.25,26.96,26.96,0,0,0-34.939,4.921c0,.006-.007,0-.008.01a26.034,26.034,0,0,0-2.159,2.806,15.707,15.707,0,0,1,.361-2.433,24.292,24.292,0,0,1,1.476-4.359c.758-1.748,1.662-3.454,2.516-5.142,3.775-7.422,5.408-19.047-4.26-22.839-3.1-1.217-6.706-1.223-9.96-1.776-5.236-.895-10.294-2.1-15.475-.158a16.453,16.453,0,0,0-1.764.788c.939.287,1.868.622,2.779.96,3.165,1.172,6.386,2.465,8.888,4.733s4.186,5.743,3.44,9.043a2.173,2.173,0,0,1-1.236,1.729,2.223,2.223,0,0,1-2.059-.811,25.567,25.567,0,0,1-3.2-4.72,22.521,22.521,0,0,0-4.213-4.923,9.328,9.328,0,0,0-3.93-2.243,11.57,11.57,0,0,0-2.794-.165c-1,.022-1.988.041-2.986.064-.864.734-1.7,1.494-2.534,2.264a121.279,121.279,0,0,0-9.295,9.446,58.162,58.162,0,0,1,15.991,5.4,26.6,26.6,0,0,1,5.864,3.848,21.683,21.683,0,0,1,6.426,12.467c.158.951.105,2.207-.808,2.518a1.875,1.875,0,0,1-1.754-.616,17.848,17.848,0,0,1-3.07-4.652,26.81,26.81,0,0,0-10.144-10.163,11.768,11.768,0,0,0-5.179-1.726c-2.082-.087-4.083.686-6.114,1.155a21.485,21.485,0,0,1-6.954.447c-.2-.023-.393-.041-.595-.066q-.653,1.078-1.259,2.2a72.365,72.365,0,0,0-5.643,14.919c-.508,1.845-.967,3.7-1.4,5.561a24.824,24.824,0,0,1,3.813-1.982,9.973,9.973,0,0,1,2.6-.788,20.069,20.069,0,0,1,2.764.01c3.41.046,6.71-1.261,10.118-1.347a14.432,14.432,0,0,1,11.523,5.416,3.215,3.215,0,0,1,.828,1.8,2.4,2.4,0,0,1-1.887,2.185,6.146,6.146,0,0,1-3.067-.205,30.478,30.478,0,0,1-6.031-2.27c-2.256-1.128-4.482-2.569-7-2.69s-4.94,1.134-6.956,2.673-3.8,3.383-5.942,4.754" transform="translate(-1.57 -89.849)" fill="#cb2129"/>
          <path id="Trazado_244154" data-name="Trazado 244154" d="M14.219,283.843a36.335,36.335,0,0,1,25.693-4.251c1.361.266,2.733.617,4.061.953l1.044.26a76.5,76.5,0,0,1,11.507-10.7l-.012-.01c-2.591-2.191-4.365-5.137-6.081-7.986a35.774,35.774,0,0,0-4.932-6.9c-6.689-6.734-17.211-6.512-22.887-5.781a.422.422,0,1,1-.108-.836c5.832-.752,16.651-.969,23.594,6.023a36.383,36.383,0,0,1,5.055,7.055c1.681,2.79,3.419,5.676,5.9,7.777.054.046.111.089.167.134.492-.36.857-.616,1.056-.752,1.845-2.42,3.41-4.66,4.74-6.7a26.131,26.131,0,0,1-1.476-5.029c-.313-1.6-.531-3.241-.741-4.828a44.467,44.467,0,0,0-1.656-8.347A22.131,22.131,0,0,0,44.418,229.9a.422.422,0,0,1-.29-.521.427.427,0,0,1,.521-.29,22.985,22.985,0,0,1,15.3,14.574,45.05,45.05,0,0,1,1.693,8.505c.209,1.575.425,3.2.732,4.778a25.963,25.963,0,0,0,1.214,4.314,76.884,76.884,0,0,0,4.307-7.628,19.887,19.887,0,0,1-.775-7.514c.117-1.467.331-2.956.539-4.4.457-3.176.931-6.46.36-9.627-.764-4.238-3.345-8.323-7.89-12.487a.281.281,0,1,1,.379-.414c4.64,4.25,7.277,8.437,8.064,12.8.587,3.256.107,6.586-.357,9.806-.206,1.431-.419,2.911-.535,4.36a19.867,19.867,0,0,0,.567,6.733,31.579,31.579,0,0,0,1.7-4.224s.661-1.057,1.447-2.139a15.708,15.708,0,0,0-.361,2.433,26.1,26.1,0,0,1,2.159-2.806c0-.005.007,0,.008-.01a19.412,19.412,0,0,1-1.081,3.115,26.084,26.084,0,0,1-1.1,2.979,23.774,23.774,0,0,0,2.733-.608c1.649-.472,3.3-1.084,4.89-1.675a43.9,43.9,0,0,1,7.78-2.351c7.1-1.216,14.853,1.158,20.745,6.35a.421.421,0,1,1-.557.632c-5.7-5.025-13.2-7.325-20.045-6.152a43.274,43.274,0,0,0-7.628,2.31c-1.608.6-3.271,1.215-4.951,1.7a24.772,24.772,0,0,1-3.369.72c-.661,1.468-1.584,3.329-2.846,5.542a15.783,15.783,0,0,1,6.291,3.514,31.714,31.714,0,0,1,2.623,2.848,21.386,21.386,0,0,0,3.675,3.692c2.706,1.952,6.006,2.475,9.5,3.027,3,.474,6.1.966,8.786,2.453a13.346,13.346,0,0,1,6.323,8.136.421.421,0,0,1-.815.214,12.489,12.489,0,0,0-5.917-7.613c-2.553-1.414-5.581-1.893-8.509-2.357-3.436-.545-6.989-1.108-9.858-3.176a22.327,22.327,0,0,1-3.824-3.83,31.032,31.032,0,0,0-2.551-2.773,14.969,14.969,0,0,0-6.168-3.359,103.216,103.216,0,0,1-6.158,9.261c.471.326.923.654,1.325.975a59.272,59.272,0,0,1,4.6,4.241c1.185,1.171,2.41,2.382,3.688,3.479.42.359.849.711,1.279,1.062a19.942,19.942,0,0,1,4.416,4.47,16.03,16.03,0,0,1,1.952,5.212,37.554,37.554,0,0,1,.738,11.193.42.42,0,0,1-.455.384.4.4,0,0,1-.051-.007.422.422,0,0,1-.334-.448A36.736,36.736,0,0,0,77.6,288.36a15.264,15.264,0,0,0-1.839-4.938,19.3,19.3,0,0,0-4.239-4.272c-.435-.356-.87-.712-1.293-1.075-1.3-1.116-2.538-2.338-3.733-3.519a58.586,58.586,0,0,0-4.537-4.182c-.4-.316-.839-.638-1.3-.958-.231.307-.462.615-.7.929l-.11.143-.154.106a75.247,75.247,0,0,0-12.675,11.373A14.938,14.938,0,0,1,49.35,286.7a24.072,24.072,0,0,1,.625,4.282c.084,1,.171,2.03.349,3.02a32.379,32.379,0,0,0,1.1,4.037c.332,1.044.676,2.124.931,3.215,1.552,6.648-.16,13.572-1.67,19.681a.421.421,0,0,1-.494.312l-.016,0a.42.42,0,0,1-.308-.51c1.487-6.017,3.173-12.836,1.667-19.287-.247-1.06-.586-2.123-.914-3.151a33.229,33.229,0,0,1-1.124-4.143c-.185-1.029-.274-2.082-.36-3.1a23.354,23.354,0,0,0-.6-4.132,13.984,13.984,0,0,0-2.091-4.3,45.286,45.286,0,0,0-6.776,10.268c-1.461,3.173-3.1,6.288-4.847,9.5.106.347.206.694.3,1.041,2.019,7.8-.69,15.766-3.318,21.075a.421.421,0,0,1-.755-.374c2.564-5.181,5.211-12.941,3.257-20.49-.017-.066-.039-.131-.057-.2-.31.566-.615,1.128-.929,1.7-4.995,9.126-10.627,19.423-15.487,34.826-.52.38-1.031.767-1.537,1.162a11.539,11.539,0,0,0-.252-2.938c4.839-15,10.381-25.138,15.307-34.129.381-.7.753-1.379,1.126-2.064a15.115,15.115,0,0,0-4.577,1.161,16.58,16.58,0,0,0-2.979,1.951,71.4,71.4,0,0,0-9.648,9.057.422.422,0,0,1-.632-.558,72.2,72.2,0,0,1,9.763-9.164,17.23,17.23,0,0,1,3.134-2.047,17.134,17.134,0,0,1,5.434-1.309c1.678-3.094,3.259-6.1,4.656-9.14a47.214,47.214,0,0,1,6.778-10.43l-.639-.16c-1.32-.333-2.692-.683-4.02-.944a35.481,35.481,0,0,0-25.09,4.145.422.422,0,0,1-.438-.72" transform="translate(-6.142 -96.013)" fill="#e3c42e"/>
          <path id="Trazado_244155" data-name="Trazado 244155" d="M408.688,155.73a55.11,55.11,0,0,0-1.275,9.079c-.258,4.8.107,9.7-1.073,14.366-.073.275-.146.545-.23.815-.034.124-.067.242-.107.365a34.571,34.571,0,0,1-3.163,6.933c-.073.124-.14.247-.219.371-.8,1.371-1.652,2.714-2.494,4.045l-2.714,4.264c-.079.118-.157.236-.23.354q-1.77,2.781-3.551,5.551c-.073.112-.146.225-.225.337q-3.371,5.233-6.832,10.416a19.771,19.771,0,0,1-5.871.011,42.812,42.812,0,0,1-12.152-2.865q1.643,1.559,3.292,3.129c2.736,2.607,5.579,5.365,6.742,8.955a9.075,9.075,0,0,1,.36,1.736q-.868,1.205-1.753,2.4c-.079.112-.163.225-.247.337q-2.671,3.615-5.467,7.146c-.433.551-.876,1.1-1.315,1.646l-.287.354c-1.663,2.045-3.365,4.062-5.129,6.017-.107.118-.219.242-.331.36a97.649,97.649,0,0,1-9.551,9.309c-.124.107-.258.214-.388.326-.809.674-1.629,1.326-2.466,1.966a92.333,92.333,0,0,1-9.433,6.253c-.2.118-.393.236-.6.348-1.759,1.017-3.545,2-5.343,2.95-.219.118-.438.236-.652.348-2.416,1.27-4.843,2.494-7.27,3.719-2.1,1.062-4.2,2.124-6.332,3.107-.23.112-.455.213-.68.315a56.529,56.529,0,0,1-9.658,3.5c-10.006,2.506-20.512,1.129-30.833.933a107.452,107.452,0,0,0-12.753.478q4.846-9,9.691-18.006c.6-1.112,1.2-2.219,1.8-3.332.09-.169.18-.343.27-.511q2.671-4.955,5.343-9.922c.1-.185.2-.371.3-.556.006-.011.011-.017.017-.028,1.753-3.264,3.517-6.54,5.545-9.635.112-.174.23-.348.348-.522.871-1.3,1.792-2.568,2.787-3.792a49.514,49.514,0,0,1,3.545-3.9l.343-.343c.612-.6,1.236-1.185,1.865-1.758a2.159,2.159,0,0,1,.27-.006c1.562.051,2.877,1.141,3.978,2.253a14.03,14.03,0,0,1,2.034,2.506,45.566,45.566,0,0,1,1.118-10.967c.14-.107.275-.213.41-.326,1.242-1,2.494-1.994,3.736-2.994.135-.1.264-.208.388-.309q2.9-2.318,5.8-4.641c.124-.1.247-.2.376-.3q3.91-3.143,7.826-6.27l.371-.3c.871-.691,1.736-1.388,2.607-2.084a9.35,9.35,0,0,1,1.4,2.242c.736,1.534,1.4,3.1,2.006,4.691.017.039.028.073.045.112v-.185a52.686,52.686,0,0,1,.478-8.146c.1-.725.213-1.438.36-2.152l.079-.062q2.4-1.921,4.8-3.848c.174-.14.354-.281.528-.421.129-.1.258-.208.388-.309.927-.747,1.854-1.483,2.781-2.23.045-.034.084-.067.129-.107,1.157-.927,2.332-1.865,3.489-2.8.124-.107.253-.208.382-.309,3.051-2.494,6.045-5.051,8.843-7.815.124-.118.242-.236.365-.354.36-.36.719-.73,1.079-1.1.4-.41.792-.831,1.18-1.253a6.752,6.752,0,0,1,4.264,2.972c.208.275.41.551.607.831a28.045,28.045,0,0,1,.607-9.821c1.18-1.264,2.393-2.489,3.669-3.629.118-.112.236-.219.365-.326a27.73,27.73,0,0,1,7.023-4.657,23.133,23.133,0,0,1,2.517-.955c.118-.039.247-.079.371-.112a36.758,36.758,0,0,1,7.944-1.337c.124-.011.242-.017.365-.028,3.517-.23,7.1-.174,10.613-.32a36.737,36.737,0,0,0,12.781-2.494" transform="translate(-117.635 -68.238)" fill="#e3c42e"/>
          <path id="Trazado_244156" data-name="Trazado 244156" d="M357.829,276.783a161.124,161.124,0,0,1-1.214-27.158c.124-.1.248-.2.375-.3a161.044,161.044,0,0,0,1.194,27.411Z" transform="translate(-156.206 -109.25)" fill="#2a2ab7"/>
          <path id="Trazado_244157" data-name="Trazado 244157" d="M373.062,263.253a130.479,130.479,0,0,1-1.784-25.322l.371-.3a129.834,129.834,0,0,0,1.766,25.564Z" transform="translate(-162.665 -104.125)" fill="#2a2ab7"/>
          <path id="Trazado_244158" data-name="Trazado 244158" d="M335.251,354.083c-.229.11-.456.212-.683.315a158.381,158.381,0,0,1-22.24-3.055q-7.339-1.545-14.507-3.783l.106-.345a157.76,157.76,0,0,0,37.325,6.868" transform="translate(-130.499 -152.143)" fill="#2a2ab7"/>
          <path id="Trazado_244159" data-name="Trazado 244159" d="M393.741,246.288a133.727,133.727,0,0,1-.268-26.441c.128-.1.256-.207.384-.308a134,134,0,0,0,.24,26.711Z" transform="translate(-172.18 -96.198)" fill="#2a2ab7"/>
          <path id="Trazado_244160" data-name="Trazado 244160" d="M309.894,337.563a242.282,242.282,0,0,0,44.866,5.115c-.219.119-.435.235-.653.347a242.788,242.788,0,0,1-44.287-5.111Z" transform="translate(-135.757 -147.913)" fill="#2a2ab7"/>
          <path id="Trazado_244161" data-name="Trazado 244161" d="M407.275,236.024a101.406,101.406,0,0,1-1.506-25.88c.125-.106.253-.207.381-.309a101.021,101.021,0,0,0,1.476,26.123Z" transform="translate(-177.691 -91.945)" fill="#2a2ab7"/>
          <path id="Trazado_244162" data-name="Trazado 244162" d="M366.38,334.7c-.2.12-.395.237-.594.348a129.484,129.484,0,0,1-43-7.828l.122-.338A129.28,129.28,0,0,0,366.38,334.7" transform="translate(-141.437 -143.233)" fill="#2a2ab7"/>
          <path id="Trazado_244163" data-name="Trazado 244163" d="M425.206,219.487a100.192,100.192,0,0,1-2.821-23.833c.12-.118.24-.236.361-.357a99.725,99.725,0,0,0,2.809,24.1Z" transform="translate(-185.08 -85.575)" fill="#2a2ab7"/>
          <path id="Trazado_244164" data-name="Trazado 244164" d="M386.945,319.324c-.126.11-.258.217-.388.326a266.94,266.94,0,0,1-30.718-4.619q-7.134-1.5-14.172-3.387l.092-.348a266.7,266.7,0,0,0,45.186,8.027" transform="translate(-149.712 -136.404)" fill="#2a2ab7"/>
          <path id="Trazado_244165" data-name="Trazado 244165" d="M446.856,199.187a76.885,76.885,0,0,1-3.552-25.5c.119-.111.241-.221.366-.327a76.513,76.513,0,0,0,3.528,25.722Z" transform="translate(-194.233 -75.962)" fill="#2a2ab7"/>
          <path id="Trazado_244166" data-name="Trazado 244166" d="M402.9,304.364q-.159.181-.329.36a205.752,205.752,0,0,1-43.627-4.41q-1.709-.359-3.414-.748l.081-.35a205.333,205.333,0,0,0,47.289,5.148" transform="translate(-155.784 -131.11)" fill="#2a2ab7"/>
          <path id="Trazado_244167" data-name="Trazado 244167" d="M460.493,187.657a129.631,129.631,0,0,1,.014-24.378c.121-.037.247-.076.372-.112a128.677,128.677,0,0,0-.027,24.456Z" transform="translate(-201.53 -71.496)" fill="#2a2ab7"/>
          <path id="Trazado_244168" data-name="Trazado 244168" d="M415.374,291.794c-.095.12-.189.235-.288.354a172.253,172.253,0,0,1-31.025-3.645q-6.243-1.314-12.417-3.091l.1-.346a172.686,172.686,0,0,0,43.628,6.727" transform="translate(-162.847 -124.911)" fill="#2a2ab7"/>
          <path id="Trazado_244169" data-name="Trazado 244169" d="M474.2,178.968a75.153,75.153,0,0,1,.769-18.2c.123-.011.246-.018.369-.029a74.875,74.875,0,0,0-.784,18.2Z" transform="translate(-207.682 -70.433)" fill="#2a2ab7"/>
          <path id="Trazado_244170" data-name="Trazado 244170" d="M430.081,276.606c-.082.111-.165.226-.251.337a232.239,232.239,0,0,1-38-4.771c-.893-.188-1.78-.382-2.671-.58l.078-.351a232.192,232.192,0,0,0,40.842,5.366" transform="translate(-170.523 -118.852)" fill="#2a2ab7"/>
          <path id="Trazado_244171" data-name="Trazado 244171" d="M433.238,232.635l32.581,2.933c-.075.113-.147.226-.222.339l-32.39-2.915Z" transform="translate(-189.822 -101.936)" fill="#2a2ab7"/>
          <path id="Trazado_244172" data-name="Trazado 244172" d="M443.9,221.654a184.088,184.088,0,0,0,30.355,3.2c-.076.116-.152.236-.229.356a184.539,184.539,0,0,1-30.193-3.2Z" transform="translate(-194.477 -97.124)" fill="#2a2ab7"/>
          <path id="Trazado_244173" data-name="Trazado 244173" d="M457.417,208.78a109.3,109.3,0,0,0,28.185,1.755c-.07.121-.14.246-.217.369a109.456,109.456,0,0,1-28.038-1.772Z" transform="translate(-200.4 -91.483)" fill="#2a2ab7"/>
          <path id="Trazado_244174" data-name="Trazado 244174" d="M494.47,198.287c-.033.121-.069.242-.11.362a199.745,199.745,0,0,1-24.244-.808l.035-.356a199,199,0,0,0,24.318.8" transform="translate(-205.996 -86.534)" fill="#2a2ab7"/>
          <path id="Trazado_244175" data-name="Trazado 244175" d="M226.547,300.3c10.186-6.791,20.264-13.821,30.062-20.964,9.773-7.174,19.3-14.417,28.378-21.643,18.168-14.437,34.616-28.692,48.423-41.282s24.957-23.543,32.661-31.321c3.876-3.865,6.849-6.983,8.9-9.09l3.126-3.247c-9.19,8.4-18.4,16.749-27.5,24.9-9.135,8.118-18.144,16.06-26.927,23.659-17.575,15.188-34.2,29.053-48.588,40.752-14.4,11.684-26.542,21.23-35.091,27.845L226.547,300.3" transform="translate(-99.268 -75.699)" fill="#2a2ab7"/>
          <path id="Trazado_244176" data-name="Trazado 244176" d="M338.187,236.162c.736,1.534,1.4,3.1,2.006,4.691-.253.438-.511.876-.77,1.309-.371.635-.753,1.264-1.135,1.9-.079.135-.163.27-.242.4q-1.7,2.815-3.495,5.584c-.09.146-.185.292-.287.433-1.523,2.348-3.107,4.663-4.759,6.922-.1.135-.191.27-.292.4-1.753,2.376-3.573,4.686-5.489,6.91-.112.135-.225.27-.343.4h-.006a86.028,86.028,0,0,1-6.59,6.832c-.146.14-.292.281-.438.41a74.194,74.194,0,0,1-5.888,4.871c-1.539,1.135-3.124,2.208-4.731,3.236-.18.118-.36.23-.539.343-3.618,2.275-7.382,4.326-11.141,6.377-2.77,1.506-5.545,3.017-8.337,4.478.6-1.112,1.2-2.219,1.8-3.332.09-.169.18-.343.27-.511q2.671-4.955,5.343-9.922c.1-.185.2-.371.3-.556.006-.011.011-.017.017-.028,1.753-3.264,3.517-6.54,5.545-9.635.112-.174.23-.348.348-.522.871-1.3,1.792-2.568,2.787-3.792a49.515,49.515,0,0,1,3.545-3.9l.343-.343c.612-.6,1.236-1.185,1.865-1.758a2.156,2.156,0,0,1,.27-.006c1.562.051,2.877,1.141,3.978,2.253a14.03,14.03,0,0,1,2.034,2.506,45.568,45.568,0,0,1,1.118-10.967c.14-.107.275-.213.41-.326,1.242-1,2.494-1.994,3.736-2.995.135-.1.264-.208.388-.309q2.9-2.317,5.8-4.641c.124-.1.247-.2.376-.3q3.91-3.143,7.826-6.27l.371-.3c.871-.691,1.736-1.388,2.607-2.084a9.351,9.351,0,0,1,1.4,2.242" transform="translate(-125.194 -102.499)" fill="#06000a"/>
          <path id="Trazado_244177" data-name="Trazado 244177" d="M385.694,231.87c.079.225.152.449.225.68l-.764,1.337c-.073.14-.152.27-.23.4q-1.07,1.888-2.169,3.759a52.682,52.682,0,0,1,.478-8.146c.1-.725.213-1.438.36-2.152l.079-.062a20.945,20.945,0,0,1,2.023,4.18" transform="translate(-167.712 -99.769)" fill="#06000a"/>
          <path id="Trazado_244178" data-name="Trazado 244178" d="M377.872,36.708a.408.408,0,0,1-.056.032,15.612,15.612,0,0,1-6.522,1.063c-1.815.016-3.635-.02-5.447-.1-.314-.012-.632-.033-.95-.052q2.615,1.25,5.229,2.5a11.6,11.6,0,0,1,3.954,2.616,5.972,5.972,0,0,1,1.184,2.17c-.085.213-.173.426-.262.64-.057.145-.117.286-.173.427-.475,1.139-.966,2.27-1.457,3.389s-.987,2.262-1.482,3.394l-.193.435c-.781,1.792-1.57,3.587-2.355,5.378-.065.141-.125.282-.185.423q-2.427,5.507-4.879,11c-.294,0-.592-.016-.885-.033-3.9-.221-7.786-.628-11.643-1.224a25.577,25.577,0,0,1-3.37-.7,45.771,45.771,0,0,1,5.2,3.744,21.06,21.06,0,0,1,5.471,6.345,12.2,12.2,0,0,1,.737,1.767c-.274.6-.552,1.2-.83,1.792-.056.125-.112.249-.173.374q-1.594,3.454-3.237,6.885c-.056.125-.113.246-.177.37q-1.522,3.212-3.1,6.4c-.064.137-.133.27-.2.4q-1.878,3.829-3.82,7.617c-.069.129-.137.257-.2.387q-1.382,2.693-2.8,5.362a11.769,11.769,0,0,1-3.6.443,19.631,19.631,0,0,1-3.792-.624q-2.669-.635-5.3-1.409a21.4,21.4,0,0,1,7.472,10.036c.081.225.153.451.226.68l-.761,1.34c-.076.137-.153.27-.229.4q-1.474,2.585-2.983,5.141-.562.948-1.135,1.9c-.08.137-.165.27-.246.4q-1.7,2.814-3.491,5.584c-.092.145-.189.29-.285.435q-2.289,3.52-4.759,6.917c-.1.137-.193.27-.294.406q-2.628,3.563-5.491,6.913c-.113.133-.226.266-.343.4h0a87.33,87.33,0,0,1-6.59,6.832c-.145.14-.294.278-.439.406a72.676,72.676,0,0,1-5.89,4.872c-1.538,1.139-3.12,2.21-4.73,3.237-.177.117-.358.23-.535.342-3.619,2.275-7.383,4.328-11.144,6.377-4.582,2.5-9.175,5-13.857,7.311a110.713,110.713,0,0,1-1.876-19.377c0-.165,0-.33,0-.495q-.042-6.239.547-12.48c.012-.157.029-.318.044-.475q.393-4.064,1.027-8.108c.028-.165.052-.33.08-.491q.706-4.42,1.687-8.8s0,0,0,0c.033-.157.069-.314.105-.467q.785-3.485,1.731-6.929c.044-.157.089-.31.129-.463q1.631-5.864,3.672-11.578.188-.519.375-1.039c.06-.169.121-.338.185-.5q1.722-4.7,3.68-9.3c.056-.145.117-.286.185-.426q1.781-4.185,3.74-8.294c.157-.012.313-.024.471-.032.056,0,.113,0,.169-.008.157-.008.322-.008.479-.008,3.184-.012,6.3,1.011,9.323,2.017q2.851.942,5.7,1.888l-11.2-8.515c-.64-.487-1.288-.99-1.892-1.529q2.253-4.421,4.67-8.769c.069-.129.141-.253.213-.382q3.056-5.5,6.317-10.9c.085-.137.169-.274.25-.415q2.542-4.2,5.173-8.354c.088-.137.173-.274.261-.411q2.863-4.517,5.8-8.977c.08-.125.165-.25.246-.375.254-.387.507-.769.761-1.155,1.324-2.013,2.681-4.034,4.07-6.039.08.024.161.048.242.076,1.731.624,2.919,2.182,4.316,3.382a24.051,24.051,0,0,0,4.408,2.786c-.253-.33-.5-.664-.74-.994-1.948-2.677-3.933-5.427-4.9-8.6-.1-.318-.177-.644-.245-.974,1.667-2.27,3.394-4.5,5.193-6.638.1-.121.205-.242.306-.362a87.29,87.29,0,0,1,6.224-6.655c.112-.109.225-.217.342-.326a61.865,61.865,0,0,1,7.665-6.211c.121-.085.242-.169.366-.25a47.758,47.758,0,0,1,10.021-5.153C362.119,4.622,368.741,3.422,373.552,0c-1.493,4.235-.882,9.223.411,13.648.89,3.047,2.065,6.042,2.987,9.082.04.129.076.253.117.382a31.789,31.789,0,0,1,1.32,6.7c.012.137.02.27.024.407a.934.934,0,0,1,.008.1,25.484,25.484,0,0,1-.548,6.381" transform="translate(-120.574)" fill="#cb2129"/>
          <path id="Trazado_244179" data-name="Trazado 244179" d="M369,41.566l9.408-2.069c0-.137-.012-.27-.024-.407l-9.473,2.085c-4.268.938-8.68,1.909-13.108,1.542l-.032.4c.664.052,1.329.08,1.993.08A52.646,52.646,0,0,0,369,41.566m8.064-9.179c-.04-.129-.076-.253-.117-.383q-9.807,2.706-19.4,6.027l.129.382q9.571-3.315,19.388-6.027M349.842,56.394c-4.392-8.9-9.095-18.575-11.518-28.765-.117.109-.23.217-.342.326,2.427,10.048,7.041,19.582,11.377,28.37L349.2,56.3l-.064.4c.145.024.294.04.439.061.088.181.177.362.266.539l.362-.177c-.048-.1-.1-.2-.145-.294a43.264,43.264,0,0,0,5.825.379,108.081,108.081,0,0,0,14.694-1.357c1.414-.2,2.834-.394,4.256-.571.056-.141.116-.282.173-.427-1.5.185-3,.394-4.481.6-6.828.946-13.881,1.916-20.681.942M346.029,63l-.1.387a35,35,0,0,0,9.01,1.091A94.182,94.182,0,0,0,370.82,62.65c.294-.048.584-.1.878-.153l.193-.435c-.379.06-.761.129-1.139.193-8.2,1.413-16.675,2.878-24.723.749m-2.971,5.93-.04.4c2.375.234,4.759.334,7.142.334a173.443,173.443,0,0,0,18.479-1.316c.173-.02.346-.036.519-.056.06-.141.121-.282.185-.423-.25.028-.5.052-.749.081-8.378.9-17.042,1.828-25.536.978m-7.613,16.031a112.62,112.62,0,0,0,23.342,6.4c.061-.125.117-.249.173-.374a112.324,112.324,0,0,1-23.366-6.4Zm-3.615,9.094c-6.006-8.325-12.215-16.933-16.989-26.22q-1.389-2.7-2.544-5.359c-.089.137-.173.274-.262.411q1.117,2.548,2.448,5.133c4.771,9.276,10.958,17.863,16.949,26.168-.181-.012-.362-.028-.544-.044l-.032.4a134.74,134.74,0,0,1,24.518,4.066c.064-.125.121-.246.177-.37a135.305,135.305,0,0,0-23.926-4.038Zm22.215-45.943a130.642,130.642,0,0,1-7.69-26.949c-.125.081-.246.165-.366.25a131.453,131.453,0,0,0,7.681,26.852ZM328.074,100.26l-.169.362a49.732,49.732,0,0,0,16.828,4.541c2.44.217,4.916.254,7.344.258.069-.133.137-.266.2-.4-2.484,0-5.02-.036-7.508-.253a49.548,49.548,0,0,1-16.7-4.5m-4.2,8.6c-8.233-8.37-16.124-17.174-23.583-26.3-.072.129-.145.253-.214.382,7.436,9.082,15.3,17.851,23.491,26.184l-.02.085a210.512,210.512,0,0,0,24.5,4.215c.065-.129.133-.258.2-.387a209.448,209.448,0,0,1-24.389-4.171Zm7.573-73.887a119.408,119.408,0,0,0,14.6,29.328l.334-.229c-.157-.226-.31-.455-.459-.68A118.751,118.751,0,0,1,331.757,34.61c-.1.121-.2.242-.306.362m-15.737,91.612a90.287,90.287,0,0,0,23.555,3.072c.076-.133.153-.266.229-.4a89.817,89.817,0,0,1-23.68-3.06Zm10.979-60.07a151.712,151.712,0,0,1,10.064,15.644l.358-.189a152.438,152.438,0,0,0-10.093-15.685c-1.872-2.665-3.809-5.419-5.616-8.189-.966-1.482-2.013-3.148-3.064-4.968-.08.125-.165.249-.245.375,1.019,1.759,2.033,3.378,2.971,4.815,1.812,2.774,3.748,5.532,5.624,8.2m-2.078,70.98c-5.648.717-11.486,1.457-16.84-.434l-.133.378a23.678,23.678,0,0,0,7.959,1.224,72.2,72.2,0,0,0,9.066-.769c2.174-.274,4.425-.56,6.615-.693,1.188-.072,2.4-.1,3.623-.1.08-.133.165-.266.246-.4-1.308,0-2.613.032-3.893.108-2.2.129-4.461.415-6.643.692m-20.709,6.345-.028.4q3.526.23,7.061.226a175.1,175.1,0,0,0,20.19-1.353c.1-.145.193-.29.286-.435a151.387,151.387,0,0,1-27.508,1.16m23.748-41.052a127.96,127.96,0,0,1-20.794-31.543c-.08.141-.165.278-.249.415a128.3,128.3,0,0,0,20.745,31.4ZM315.8,150.441c-5.109.3-10.386.6-14.988-1.5l-.165.366a22.977,22.977,0,0,0,9.69,1.751c1.824,0,3.668-.109,5.483-.213l.616-.036c3.2-.185,6.417-.31,9.641-.371.1-.137.2-.27.294-.406q-4.995.09-9.961.374Zm-18.571,6.076c7.625.729,15.318,1.139,23.012,1.232h0c.117-.133.23-.266.342-.4-7.8-.08-15.592-.491-23.322-1.232Zm20.963-40.54c-8.269-5.9-16.546-11.973-24.711-18.129-.157,0-.322,0-.479.008-.057,0-.113,0-.169.008,8.3,6.26,16.715,12.44,25.125,18.442ZM306.6,164.782c-5.073.242-10.318.491-14.4-2.259l-.226.334c4.2,2.822,9.513,2.573,14.65,2.327l.455-.024q3.062-.145,6.136-.173c.145-.129.294-.266.439-.406-2.2.016-4.4.076-6.595.181Zm2.959-32.018c-7.129-8.672-14.139-17.565-20.938-26.575-.068.14-.129.281-.185.426,6.763,8.95,13.728,17.791,20.814,26.406Zm-4.484,9.1.27-.3a99.337,99.337,0,0,1-20.588-25.649c-.064.165-.125.334-.185.5a99.785,99.785,0,0,0,20.5,25.443m-18.257,29.715,15.238,1.856c.178-.112.358-.225.535-.342l-15.725-1.912Zm15.315-23.128.225-.33a124,124,0,0,1-21.832-19.083c-.04.153-.085.306-.129.463a124.163,124.163,0,0,0,21.736,18.95m-2.4,3.293.141-.378c-7.327-2.73-14.284-7.629-21.209-14.936-.036.153-.072.31-.1.467,0,0,0,0,0,0,6.9,7.246,13.849,12.11,21.172,14.843m-5.922,7.267.225-.338c-5.531-3.639-11.252-7.4-16.164-12.013-.342-.318-.672-.64-1-.962-.028.161-.053.326-.081.491.266.254.531.512.806.765,4.936,4.634,10.668,8.406,16.212,12.057m-1.908,7.279q-8.14-5.833-16.135-11.993c-.016.157-.032.318-.044.475q7.887,6.075,15.943,11.844Zm-16.723,1.457a66.571,66.571,0,0,0,10.89,6.385l.169-.366a66.3,66.3,0,0,1-11.063-6.514c0,.165,0,.33,0,.495" transform="translate(-120.576 -9.275)" fill="#2a2ab7"/>
          <path id="Trazado_244180" data-name="Trazado 244180" d="M352.563,43.885c-2.577,5.381-5.078,10.8-7.695,16.15-2.556,5.377-5.211,10.688-7.795,15.987L333.124,83.9l-1.962,3.913q-1,1.942-1.988,3.874c-1.327,2.573-2.61,5.15-3.942,7.681s-2.64,5.052-3.946,7.55q-.968,1.879-1.967,3.723t-1.969,3.682c-1.31,2.442-2.578,4.877-3.9,7.254l-3.861,7.081c-1.267,2.337-2.571,4.618-3.826,6.887-2.5,4.544-5.024,8.917-7.436,13.167-1.2,2.132-2.419,4.2-3.605,6.241s-2.35,4.045-3.49,6.008l-6.663,11.211-6.115,10.07q-2.926,4.718-5.467,8.817c-1.689,2.727-3.29,5.2-4.705,7.46s-2.685,4.273-3.819,6.006l-2.852,4.428-2.367,3.7c3.6-4.883,7.213-9.754,10.668-14.7,3.514-4.913,6.864-9.9,10.214-14.84,3.27-4.986,6.546-9.913,9.634-14.871l2.328-3.7,1.156-1.841,1.126-1.848q2.243-3.7,4.451-7.334c1.467-2.428,2.868-4.867,4.279-7.269s2.8-4.786,4.126-7.17,2.658-4.732,3.964-7.055c1.289-2.333,2.532-4.655,3.77-6.937,2.5-4.555,4.791-9.055,7.048-13.387,1.138-2.161,2.184-4.323,3.246-6.426s2.082-4.177,3.09-6.2c1.958-4.083,3.85-7.987,5.6-11.721,1.724-3.747,3.365-7.3,4.877-10.646q2.217-5.045,4.141-9.421c1.262-2.916,2.375-5.615,3.4-8.043s1.928-4.6,2.678-6.5,1.4-3.516,1.928-4.827c1.037-2.623,1.591-4.021,1.591-4.021" transform="translate(-113.598 -19.23)" fill="#2a2ab7"/>
        </g>
      </g>
      <g id="Grupo_243805" data-name="Grupo 243805">
        <g id="Grupo_243793" data-name="Grupo 243793" transform="translate(37.268 1.065)">
          <g id="Grupo_243792" data-name="Grupo 243792" transform="translate(0 0)" clip-path="url(#clip-path-2)">
            <rect id="Rectángulo_316608" data-name="Rectángulo 316608" width="216.637" height="295.013" transform="translate(0 0)" fill="url(#linear-gradient)"/>
          </g>
        </g>
        <g id="Grupo_243795" data-name="Grupo 243795" transform="translate(98.26 215.795)">
          <g id="Grupo_243794" data-name="Grupo 243794" transform="translate(0 0.001)" clip-path="url(#clip-path-3)">
            <rect id="Rectángulo_316609" data-name="Rectángulo 316609" width="137.279" height="126.343" transform="translate(-35.353 21.128) rotate(-30.864)" fill="url(#linear-gradient-2)"/>
          </g>
        </g>
        <g id="Grupo_243797" data-name="Grupo 243797" transform="translate(57.545 1.065)">
          <g id="Grupo_243796" data-name="Grupo 243796" transform="translate(0 0)" clip-path="url(#clip-path-4)">
            <rect id="Rectángulo_316610" data-name="Rectángulo 316610" width="186.282" height="143.9" transform="translate(-0.486 0)" fill="url(#linear-gradient-3)"/>
          </g>
        </g>
        <g id="Grupo_243799" data-name="Grupo 243799" transform="translate(57.534)">
          <g id="Grupo_243798" data-name="Grupo 243798" transform="translate(0 0)" clip-path="url(#clip-path-5)">
            <rect id="Rectángulo_316611" data-name="Rectángulo 316611" width="181.631" height="142.617" transform="translate(-0.588 0)" fill="url(#linear-gradient-4)"/>
          </g>
        </g>
        <g id="Grupo_243801" data-name="Grupo 243801" transform="translate(37.147 142.617)">
          <g id="Grupo_243800" data-name="Grupo 243800" transform="translate(0 0)" clip-path="url(#clip-path-6)">
            <rect id="Rectángulo_316612" data-name="Rectángulo 316612" width="211.074" height="144.875" transform="translate(0)" fill="url(#linear-gradient-5)"/>
          </g>
        </g>
        <g id="Grupo_243803" data-name="Grupo 243803" transform="translate(98.043 215.972)">
          <g id="Grupo_243802" data-name="Grupo 243802" transform="translate(0 0)" clip-path="url(#clip-path-7)">
            <rect id="Rectángulo_316613" data-name="Rectángulo 316613" width="106.414" height="71.52" transform="translate(0 0)" fill="url(#linear-gradient-6)"/>
          </g>
        </g>
      </g>
    </g>
  </g>
</svg>