<svg id="Grupo_243459" data-name="Grupo 243459" xmlns="http://www.w3.org/2000/svg" xmlns:xlink="http://www.w3.org/1999/xlink" width="818.164" height="693.775" viewBox="0 0 818.164 693.775">
  <defs>
    <clipPath id="clip-path">
      <rect id="Rectángulo_316468" data-name="Rectángulo 316468" width="818.164" height="693.775" fill="none"/>
    </clipPath>
  </defs>
  <line id="Línea_485" data-name="Línea 485" x2="5" transform="translate(707.109 96.212)" fill="none" stroke="#12263f" stroke-miterlimit="10" stroke-width="1"/>
  <g id="Grupo_243456" data-name="Grupo 243456">
    <g id="Grupo_243455" data-name="Grupo 243455" clip-path="url(#clip-path)">
      <path id="Trazado_243949" data-name="Trazado 243949" d="M722.128,96.212h11.6a47.376,47.376,0,0,1,47.237,47.237v291.01A47.376,47.376,0,0,1,733.727,481.7H84.437A47.377,47.377,0,0,1,37.2,434.459V143.449A47.377,47.377,0,0,1,84.437,96.212h18.454" fill="none" stroke="#12263f" stroke-miterlimit="10" stroke-width="1" stroke-dasharray="10.019 10.019"/>
      <line id="Línea_486" data-name="Línea 486" x2="5" transform="translate(107.9 96.212)" fill="none" stroke="#12263f" stroke-miterlimit="10" stroke-width="1"/>
      <line id="Línea_487" data-name="Línea 487" x2="6.878" y2="0.012" transform="translate(586.165 28.451)" fill="none" stroke="#12263f" stroke-miterlimit="10" stroke-width="1.376"/>
      <path id="Trazado_243950" data-name="Trazado 243950" d="M606.741,28.486l158.859.272c28.532,0,51.875,16.633,51.875,61.407V631.679c0,44.774-23.343,61.408-51.875,61.408H52.563c-28.532,0-51.876-16.634-51.876-61.408V90.165c0-44.774,23.344-61.407,51.876-61.407l165.708-.284" fill="none" stroke="#12263f" stroke-miterlimit="10" stroke-width="1.376" stroke-dasharray="13.698 13.698"/>
      <line id="Línea_488" data-name="Línea 488" y1="0.012" x2="6.879" transform="translate(225.121 28.451)" fill="none" stroke="#12263f" stroke-miterlimit="10" stroke-width="1.376"/>
    </g>
  </g>
  <text id="EVALUACIÓN_DE_LA_HUELLA_DE_AGUA" data-name="EVALUACIÓN DE LA HUELLA DE AGUA" transform="translate(276.828 31.661)" fill="#12263f" font-size="16" font-family="Roboto-Bold, Roboto" font-weight="700"><tspan x="0" y="0" letter-spacing="-0.024em">E</tspan><tspan y="0" letter-spacing="-0.061em">V</tspan><tspan y="0" letter-spacing="-0.024em">A</tspan><tspan y="0" letter-spacing="-0.036em">L</tspan><tspan y="0" letter-spacing="-0.035em">UA</tspan><tspan y="0" letter-spacing="-0.025em">CIÓN </tspan><tspan y="0" letter-spacing="-0.024em">DE</tspan><tspan y="0" letter-spacing="-0.025em"> </tspan><tspan y="0" letter-spacing="-0.015em">L</tspan><tspan y="0" letter-spacing="-0.024em">A</tspan><tspan y="0" xml:space="preserve" letter-spacing="-0.025em"> HU</tspan><tspan y="0" letter-spacing="-0.024em">EL</tspan><tspan y="0" letter-spacing="-0.015em">L</tspan><tspan y="0" letter-spacing="-0.024em">A</tspan><tspan y="0" letter-spacing="-0.025em"> </tspan><tspan y="0" letter-spacing="-0.024em">DE</tspan><tspan y="0" letter-spacing="-0.025em"> </tspan><tspan y="0" letter-spacing="-0.035em">A</tspan><tspan y="0" letter-spacing="-0.025em">G</tspan><tspan y="0" letter-spacing="-0.035em">U</tspan><tspan y="0">A</tspan></text>
  <text id="EVALUACIÓN_DEL_INVENTARIO_DE_LA_HUELLA_DE_AGUA" data-name="EVALUACIÓN DEL INVENTARIO DE LA HUELLA DE AGUA" transform="translate(215.74 103.693)" fill="#12263f" font-size="16" font-family="Roboto-Bold, Roboto" font-weight="700"><tspan x="0" y="0" letter-spacing="-0.024em">E</tspan><tspan y="0" letter-spacing="-0.061em">V</tspan><tspan y="0" letter-spacing="-0.024em">A</tspan><tspan y="0" letter-spacing="-0.036em">L</tspan><tspan y="0" letter-spacing="-0.035em">UA</tspan><tspan y="0" letter-spacing="-0.025em">CIÓN </tspan><tspan y="0" letter-spacing="-0.024em">DEL</tspan><tspan y="0" letter-spacing="-0.025em"> </tspan><tspan y="0" letter-spacing="-0.024em">I</tspan><tspan y="0" letter-spacing="-0.025em">N</tspan><tspan y="0" letter-spacing="-0.024em">VE</tspan><tspan y="0" letter-spacing="-0.039em">N</tspan><tspan y="0" letter-spacing="-0.083em">T</tspan><tspan y="0" letter-spacing="-0.024em">A</tspan><tspan y="0" letter-spacing="-0.025em">R</tspan><tspan y="0" letter-spacing="-0.024em">I</tspan><tspan y="0" letter-spacing="-0.025em">O </tspan><tspan y="0" letter-spacing="-0.024em">DE</tspan><tspan y="0" letter-spacing="-0.025em"> </tspan><tspan y="0" letter-spacing="-0.015em">L</tspan><tspan y="0" letter-spacing="-0.024em">A</tspan><tspan y="0" letter-spacing="-0.025em"> </tspan><tspan y="0" letter-spacing="-0.024em">H</tspan><tspan y="0" letter-spacing="-0.025em">U</tspan><tspan y="0" letter-spacing="-0.024em">EL</tspan><tspan y="0" letter-spacing="-0.015em">L</tspan><tspan y="0" letter-spacing="-0.024em">A</tspan><tspan y="0" letter-spacing="-0.025em"> </tspan><tspan y="0" letter-spacing="-0.024em">DE</tspan><tspan y="0" letter-spacing="-0.025em"> </tspan><tspan y="0" letter-spacing="-0.035em">A</tspan><tspan y="0" letter-spacing="-0.025em">G</tspan><tspan y="0" letter-spacing="-0.035em">U</tspan><tspan y="0">A</tspan></text>
  <g id="Grupo_243458" data-name="Grupo 243458">
    <g id="Grupo_243457" data-name="Grupo 243457" clip-path="url(#clip-path)">
      <rect id="Rectángulo_316469" data-name="Rectángulo 316469" width="354.165" height="52.243" rx="12" transform="translate(232 0.5)" fill="none" stroke="#12263f" stroke-miterlimit="10" stroke-width="1" stroke-dasharray="9.902 9.902"/>
      <path id="Rectángulo_316470" data-name="Rectángulo 316470" d="M14.04,0H568.433a14.04,14.04,0,0,1,14.04,14.04V29.446a14.041,14.041,0,0,1-14.041,14.041H14.04A14.04,14.04,0,0,1,0,29.447V14.04A14.04,14.04,0,0,1,14.04,0Z" transform="translate(117.845 75.746)" fill="none" stroke="#12263f" stroke-miterlimit="10" stroke-width="1.17" stroke-dasharray="10.063 10.063"/>
      <path id="Trazado_243951" data-name="Trazado 243951" d="M693.254,668.622H537.274a37.6,37.6,0,0,1-37.487-37.487V194.218a37.6,37.6,0,0,1,37.487-37.487h155.98a37.6,37.6,0,0,1,37.487,37.487V631.135a37.6,37.6,0,0,1-37.487,37.487" fill="#35b0e5"/>
      <path id="Trazado_243952" data-name="Trazado 243952" d="M351.161,363.8v90.49A20.325,20.325,0,0,1,330.9,474.555H107.734A20.325,20.325,0,0,1,87.469,454.29V363.8a20.324,20.324,0,0,1,20.265-20.265H330.9A20.324,20.324,0,0,1,351.161,363.8" fill="#144677"/>
      <path id="Trazado_243953" data-name="Trazado 243953" d="M351.115,177v90.49a20.325,20.325,0,0,1-20.265,20.265H107.688a20.325,20.325,0,0,1-20.265-20.265V177a20.324,20.324,0,0,1,20.265-20.265H330.85A20.324,20.324,0,0,1,351.115,177" fill="#00574f"/>
      <path id="Trazado_243954" data-name="Trazado 243954" d="M352.115,557.978v90.49a20.325,20.325,0,0,1-20.265,20.265H108.688a20.325,20.325,0,0,1-20.265-20.265v-90.49a20.324,20.324,0,0,1,20.265-20.265H331.85a20.324,20.324,0,0,1,20.265,20.265" fill="#f9d9d9"/>
      <line id="Línea_489" data-name="Línea 489" x1="121.873" transform="translate(369.049 389.947)" fill="none" stroke="#35b0e5" stroke-miterlimit="10" stroke-width="4"/>
      <path id="Trazado_243955" data-name="Trazado 243955" d="M360.026,389.947l13.536,7.815v-15.63Z" fill="#35b0e5"/>
      <line id="Línea_490" data-name="Línea 490" x2="121.873" transform="translate(360.026 428.492)" fill="none" stroke="#144677" stroke-miterlimit="10" stroke-width="4"/>
      <path id="Trazado_243956" data-name="Trazado 243956" d="M490.922,428.492l-13.536-7.815v15.63Z" fill="#144677"/>
      <line id="Línea_491" data-name="Línea 491" x1="121.873" transform="translate(369.526 202.969)" fill="none" stroke="#35b0e5" stroke-miterlimit="10" stroke-width="4"/>
      <path id="Trazado_243957" data-name="Trazado 243957" d="M360.5,202.969l13.536,7.815v-15.63Z" fill="#35b0e5"/>
      <line id="Línea_492" data-name="Línea 492" x2="121.873" transform="translate(360.502 241.513)" fill="none" stroke="#00574f" stroke-miterlimit="10" stroke-width="4"/>
      <path id="Trazado_243958" data-name="Trazado 243958" d="M491.4,241.513,477.863,233.7v15.63Z" fill="#00574f"/>
      <line id="Línea_493" data-name="Línea 493" x1="121.873" transform="translate(369.049 583.851)" fill="none" stroke="#35b0e5" stroke-miterlimit="10" stroke-width="4"/>
      <path id="Trazado_243959" data-name="Trazado 243959" d="M360.026,583.851l13.536,7.815v-15.63Z" fill="#35b0e5"/>
      <line id="Línea_494" data-name="Línea 494" x2="121.873" transform="translate(360.026 622.396)" fill="none" stroke="#c7adad" stroke-miterlimit="10" stroke-width="4"/>
      <path id="Trazado_243960" data-name="Trazado 243960" d="M490.922,622.4l-13.536-7.815v15.63Z" fill="#c7adad"/>
      <line id="Línea_495" data-name="Línea 495" y2="29.448" transform="translate(184.951 295.744)" fill="none" stroke="#00574f" stroke-miterlimit="10" stroke-width="4"/>
      <path id="Trazado_243961" data-name="Trazado 243961" d="M184.951,334.215l7.815-13.536h-15.63Z" fill="#00574f"/>
      <line id="Línea_496" data-name="Línea 496" y1="29.448" transform="translate(258.979 305.43)" fill="none" stroke="#144677" stroke-miterlimit="10" stroke-width="4"/>
      <path id="Trazado_243962" data-name="Trazado 243962" d="M258.979,296.407l-7.815,13.536h15.63Z" fill="#144677"/>
      <line id="Línea_497" data-name="Línea 497" y2="29.448" transform="translate(184.51 486.566)" fill="none" stroke="#144677" stroke-miterlimit="10" stroke-width="4"/>
      <path id="Trazado_243963" data-name="Trazado 243963" d="M184.51,525.038l7.815-13.536h-15.63Z" fill="#144677"/>
      <line id="Línea_498" data-name="Línea 498" y1="29.448" transform="translate(258.538 496.253)" fill="none" stroke="#c7adad" stroke-miterlimit="10" stroke-width="4"/>
      <path id="Trazado_243964" data-name="Trazado 243964" d="M258.538,487.23l-7.815,13.536h15.63Z" fill="#c7adad"/>
    </g>
  </g>
  <text id="INTERPRETACIÓN" transform="translate(552.08 404.492)" fill="#12263f" font-size="16" font-family="Roboto-Bold, Roboto" font-weight="700"><tspan x="0" y="0" letter-spacing="-0.024em">I</tspan><tspan y="0" letter-spacing="-0.039em">N</tspan><tspan y="0" letter-spacing="-0.024em">TE</tspan><tspan y="0" letter-spacing="-0.025em">RPR</tspan><tspan y="0" letter-spacing="-0.015em">E</tspan><tspan y="0" letter-spacing="-0.083em">T</tspan><tspan y="0" letter-spacing="-0.035em">A</tspan><tspan y="0" letter-spacing="-0.025em">C</tspan><tspan y="0" letter-spacing="-0.024em">I</tspan><tspan y="0" letter-spacing="-0.025em">Ó</tspan><tspan y="0">N</tspan></text>
  <text id="DE_RESULTADOS" data-name="DE RESULTADOS" transform="translate(557.151 423.692)" fill="#12263f" font-size="16" font-family="Roboto-Bold, Roboto" font-weight="700"><tspan x="0" y="0" letter-spacing="-0.024em">DE</tspan><tspan y="0" xml:space="preserve" letter-spacing="-0.025em"> R</tspan><tspan y="0" letter-spacing="-0.024em">ES</tspan><tspan y="0" letter-spacing="-0.025em">U</tspan><tspan y="0" letter-spacing="-0.125em">L</tspan><tspan y="0" letter-spacing="-0.083em">T</tspan><tspan y="0" letter-spacing="-0.024em">AD</tspan><tspan y="0" letter-spacing="-0.025em">O</tspan><tspan y="0">S</tspan></text>
  <text id="EVALUACIÓN_DEL_" data-name="EVALUACIÓN DEL " transform="translate(158.512 588.828)" fill="#12263f" font-size="16" font-family="Roboto-Bold, Roboto" font-weight="700"><tspan x="0" y="0" letter-spacing="-0.024em">E</tspan><tspan y="0" letter-spacing="-0.061em">V</tspan><tspan y="0" letter-spacing="-0.024em">A</tspan><tspan y="0" letter-spacing="-0.036em">L</tspan><tspan y="0" letter-spacing="-0.035em">UA</tspan><tspan y="0" letter-spacing="-0.025em">C</tspan><tspan y="0" letter-spacing="-0.024em">I</tspan><tspan y="0" letter-spacing="-0.025em">ÓN </tspan><tspan y="0" letter-spacing="-0.024em">DEL</tspan><tspan y="0"> </tspan></text>
  <text id="IMPACTO_DE_LA_HUELLA" data-name="IMPACTO DE LA HUELLA" transform="translate(136.208 608.028)" fill="#12263f" font-size="16" font-family="Roboto-Bold, Roboto" font-weight="700"><tspan x="0" y="0" letter-spacing="-0.024em">IM</tspan><tspan y="0" letter-spacing="-0.111em">P</tspan><tspan y="0" letter-spacing="-0.035em">A</tspan><tspan y="0" letter-spacing="-0.039em">C</tspan><tspan y="0" letter-spacing="-0.038em">T</tspan><tspan y="0" letter-spacing="-0.025em">O </tspan><tspan y="0" letter-spacing="-0.024em">DE</tspan><tspan y="0" letter-spacing="-0.025em"> </tspan><tspan y="0" letter-spacing="-0.015em">L</tspan><tspan y="0" letter-spacing="-0.024em">A</tspan><tspan y="0" letter-spacing="-0.025em"> </tspan><tspan y="0" letter-spacing="-0.024em">H</tspan><tspan y="0" letter-spacing="-0.025em">U</tspan><tspan y="0" letter-spacing="-0.024em">EL</tspan><tspan y="0" letter-spacing="-0.015em">L</tspan><tspan y="0">A</tspan></text>
  <text id="DEL_AGUA" data-name="DEL AGUA" transform="translate(186.063 627.228)" fill="#12263f" font-size="16" font-family="Roboto-Bold, Roboto" font-weight="700"><tspan x="0" y="0" letter-spacing="-0.024em">DEL</tspan><tspan y="0" letter-spacing="-0.025em"> </tspan><tspan y="0" letter-spacing="-0.035em">A</tspan><tspan y="0" letter-spacing="-0.025em">G</tspan><tspan y="0" letter-spacing="-0.035em">U</tspan><tspan y="0">A</tspan></text>
  <text id="ANÁLISIS_DEL_INVENTARIO" data-name="ANÁLISIS DEL INVENTARIO" transform="translate(128.255 404.492)" fill="#fff" font-size="16" font-family="Roboto-Bold, Roboto" font-weight="700"><tspan x="0" y="0" letter-spacing="-0.024em">A</tspan><tspan y="0" letter-spacing="-0.016em">N</tspan><tspan y="0" letter-spacing="-0.024em">ÁLISIS</tspan><tspan y="0" letter-spacing="-0.025em"> </tspan><tspan y="0" letter-spacing="-0.024em">DEL</tspan><tspan y="0" letter-spacing="-0.025em"> </tspan><tspan y="0" letter-spacing="-0.024em">I</tspan><tspan y="0" letter-spacing="-0.025em">N</tspan><tspan y="0" letter-spacing="-0.024em">VE</tspan><tspan y="0" letter-spacing="-0.039em">N</tspan><tspan y="0" letter-spacing="-0.083em">T</tspan><tspan y="0" letter-spacing="-0.024em">A</tspan><tspan y="0" letter-spacing="-0.025em">R</tspan><tspan y="0" letter-spacing="-0.024em">I</tspan><tspan y="0">O</tspan></text>
  <text id="DE_LA_HUELLA_DE_AGUA" data-name="DE LA HUELLA DE AGUA" transform="translate(139.056 423.692)" fill="#fff" font-size="16" font-family="Roboto-Bold, Roboto" font-weight="700"><tspan x="0" y="0" letter-spacing="-0.024em">DE</tspan><tspan y="0" letter-spacing="-0.025em"> </tspan><tspan y="0" letter-spacing="-0.015em">L</tspan><tspan y="0" letter-spacing="-0.024em">A</tspan><tspan y="0" letter-spacing="-0.025em"> </tspan><tspan y="0" letter-spacing="-0.024em">H</tspan><tspan y="0" letter-spacing="-0.025em">U</tspan><tspan y="0" letter-spacing="-0.024em">EL</tspan><tspan y="0" letter-spacing="-0.015em">L</tspan><tspan y="0" letter-spacing="-0.024em">A</tspan><tspan y="0" letter-spacing="-0.025em"> </tspan><tspan y="0" letter-spacing="-0.024em">DE</tspan><tspan y="0" letter-spacing="-0.025em"> </tspan><tspan y="0" letter-spacing="-0.035em">A</tspan><tspan y="0" letter-spacing="-0.025em">G</tspan><tspan y="0" letter-spacing="-0.035em">U</tspan><tspan y="0">A</tspan></text>
  <text id="DEFINICIÓN_DEL_OBJETIVO_" data-name="DEFINICIÓN DEL OBJETIVO " transform="translate(127.023 219.836)" fill="#fff" font-size="16" font-family="Roboto-Bold, Roboto" font-weight="700"><tspan x="0" y="0" letter-spacing="-0.024em">DEFI</tspan><tspan y="0" letter-spacing="-0.025em">N</tspan><tspan y="0" letter-spacing="-0.024em">I</tspan><tspan y="0" letter-spacing="-0.025em">CIÓN </tspan><tspan y="0" letter-spacing="-0.024em">D</tspan><tspan y="0" letter-spacing="-0.025em">E</tspan><tspan y="0" letter-spacing="-0.024em">L</tspan><tspan y="0" xml:space="preserve" letter-spacing="-0.025em"> OBJ</tspan><tspan y="0" letter-spacing="-0.015em">E</tspan><tspan y="0" letter-spacing="-0.024em">T</tspan><tspan y="0" letter-spacing="-0.025em">I</tspan><tspan y="0" letter-spacing="-0.031em">V</tspan><tspan y="0" letter-spacing="-0.025em">O</tspan><tspan y="0"> </tspan></text>
  <text id="Y_EL_ALCANCE" data-name="Y EL ALCANCE" transform="translate(172.191 239.036)" fill="#fff" font-size="16" font-family="Roboto-Bold, Roboto" font-weight="700"><tspan x="0" y="0" letter-spacing="-0.025em">Y </tspan><tspan y="0" letter-spacing="-0.024em">EL</tspan><tspan y="0" letter-spacing="-0.025em"> </tspan><tspan y="0" letter-spacing="-0.024em">A</tspan><tspan y="0" letter-spacing="-0.056em">L</tspan><tspan y="0" letter-spacing="-0.025em">C</tspan><tspan y="0" letter-spacing="-0.024em">A</tspan><tspan y="0" letter-spacing="-0.025em">NC</tspan><tspan y="0">E</tspan></text>
</svg>
