<svg xmlns="http://www.w3.org/2000/svg" width="119.128" height="119.128" viewBox="0 0 119.128 119.128">
  <g id="Grupo_243985" data-name="Grupo 243985" transform="translate(-949.81 -6589.885)">
    <path id="Trazado_243991" data-name="Trazado 243991" d="M678.312,59.564A59.564,59.564,0,1,1,618.748,0a59.564,59.564,0,0,1,59.564,59.564" transform="translate(390.626 6589.885)" fill="#fff59d"/>
    <path id="Trazado_243992" data-name="Trazado 243992" d="M630.5,36.954a25.992,25.992,0,1,0-4.339,40.332,23.014,23.014,0,0,0,4.339-3.573,28.549,28.549,0,0,0,3.446-4.341A25.937,25.937,0,0,0,630.5,36.954" transform="translate(390.626 6589.885)" fill="#fff"/>
    <path id="Trazado_243993" data-name="Trazado 243993" d="M644.885,74.076l-1.66,1.788-7.785,7.784-1.787,1.66L628.8,80.33l1.659-1.659,7.786-7.785,1.659-1.66Z" transform="translate(390.626 6589.885)" fill="#fff"/>
    <rect id="Rectángulo_316473" data-name="Rectángulo 316473" width="11.104" height="14.805" transform="translate(1031.096 6672.488) rotate(-45)" fill="#8bb0bf"/>
    <path id="Trazado_243994" data-name="Trazado 243994" d="M636.849,63.213l6.637,6.637-7.913,7.785L628.936,71a23.169,23.169,0,0,0,4.339-3.573,22.378,22.378,0,0,0,3.574-4.213" transform="translate(390.626 6589.885)" fill="#8bb0bf"/>
    <path id="Trazado_243995" data-name="Trazado 243995" d="M600.213,50.21a9.642,9.642,0,0,0,9.572,9.572,25.81,25.81,0,0,1-20.293-9.572,25.639,25.639,0,0,1,20.293-9.572,9.559,9.559,0,0,0-9.572,9.572" transform="translate(390.626 6589.885)" fill="#fff"/>
    <path id="Trazado_243996" data-name="Trazado 243996" d="M609.786,40.638A25.644,25.644,0,0,1,630.08,50.21a25.648,25.648,0,0,1-20.294,9.573,9.642,9.642,0,0,0,9.572-9.573,9.479,9.479,0,0,0-9.572-9.572" transform="translate(390.626 6589.885)" fill="#fff"/>
    <path id="Trazado_243997" data-name="Trazado 243997" d="M612.976,42.551a9.573,9.573,0,1,0,9.572,9.572,9.479,9.479,0,0,0-9.572-9.572" transform="translate(390.626 6589.885)" fill="#a5d6a7"/>
    <rect id="Rectángulo_316474" data-name="Rectángulo 316474" width="4.85" height="3.191" transform="translate(1036.914 6645.2)" fill="#144677"/>
    <rect id="Rectángulo_316475" data-name="Rectángulo 316475" width="4.85" height="3.19" transform="translate(1036.914 6638.819)" fill="#144677"/>
    <rect id="Rectángulo_316476" data-name="Rectángulo 316476" width="4.85" height="3.191" transform="translate(1036.914 6632.436)" fill="#144677"/>
    <rect id="Rectángulo_316477" data-name="Rectángulo 316477" width="4.85" height="3.191" transform="translate(1036.914 6626.055)" fill="#144677"/>
    <rect id="Rectángulo_316478" data-name="Rectángulo 316478" width="4.85" height="3.191" transform="translate(1036.914 6619.673)" fill="#144677"/>
    <rect id="Rectángulo_316479" data-name="Rectángulo 316479" width="4.85" height="3.19" transform="translate(1032.064 6648.391)" fill="#144677"/>
    <rect id="Rectángulo_316480" data-name="Rectángulo 316480" width="4.85" height="3.191" transform="translate(1032.064 6642.009)" fill="#144677"/>
    <rect id="Rectángulo_316481" data-name="Rectángulo 316481" width="4.85" height="3.191" transform="translate(1032.064 6635.627)" fill="#144677"/>
    <rect id="Rectángulo_316482" data-name="Rectángulo 316482" width="4.85" height="3.19" transform="translate(1032.064 6629.246)" fill="#144677"/>
    <rect id="Rectángulo_316483" data-name="Rectángulo 316483" width="4.85" height="3.191" transform="translate(1032.064 6622.864)" fill="#144677"/>
    <path id="Trazado_243998" data-name="Trazado 243998" d="M609.786,61.314a11.232,11.232,0,1,1,11.231-11.232,11.248,11.248,0,0,1-11.231,11.232m0-19.145a8.041,8.041,0,1,0,8.041,8.041,8.007,8.007,0,0,0-8.041-8.041" transform="translate(390.626 6589.885)" fill="#144677"/>
    <path id="Trazado_243999" data-name="Trazado 243999" d="M609.786,53.4a3.191,3.191,0,1,1,3.191-3.19,3.241,3.241,0,0,1-3.191,3.19" transform="translate(390.626 6589.885)" fill="#144677"/>
    <path id="Trazado_244000" data-name="Trazado 244000" d="M609.786,61.314A27.38,27.38,0,0,1,588.216,51.1a1.386,1.386,0,0,1,0-1.914,27.888,27.888,0,0,1,43.14,0,1.386,1.386,0,0,1,0,1.914,27.382,27.382,0,0,1-21.57,10.211m-18.124-11.1a24.579,24.579,0,0,0,18.251,8.041,24.124,24.124,0,0,0,18.252-8.041A24.466,24.466,0,0,0,609.913,42.3a23.393,23.393,0,0,0-18.251,7.914" transform="translate(390.626 6589.885)" fill="#144677"/>
    <path id="Trazado_244001" data-name="Trazado 244001" d="M638.247,72.418a1.558,1.558,0,0,1-1.148-.511l-6.51-6.51a1.624,1.624,0,0,1,2.3-2.3l6.636,6.636a1.617,1.617,0,0,1,0,2.3,2.462,2.462,0,0,1-1.276.383" transform="translate(390.626 6589.885)" fill="#144677"/>
    <path id="Trazado_244002" data-name="Trazado 244002" d="M630.462,80.331a1.559,1.559,0,0,1-1.149-.51l-6.637-6.638a1.624,1.624,0,0,1,2.3-2.3l6.637,6.636a1.619,1.619,0,0,1,0,2.3,2.3,2.3,0,0,1-1.149.51" transform="translate(390.626 6589.885)" fill="#144677"/>
    <path id="Trazado_244003" data-name="Trazado 244003" d="M645.905,95.774a1.562,1.562,0,0,1-1.149-.51L634.29,84.8a1.625,1.625,0,0,1,2.3-2.3l9.317,9.318,5.616-5.616L642.2,76.884a1.624,1.624,0,0,1,2.3-2.3l10.466,10.465a1.9,1.9,0,0,1,.51,1.149,1.555,1.555,0,0,1-.51,1.148l-7.913,7.914a1.562,1.562,0,0,1-1.149.51" transform="translate(390.626 6589.885)" fill="#144677"/>
    <path id="Trazado_244004" data-name="Trazado 244004" d="M633.653,86.968h0a1.557,1.557,0,0,1-1.148-.511l-4.978-4.978a1.616,1.616,0,0,1,0-2.3l11.231-11.232a1.616,1.616,0,0,1,2.3,0l4.978,4.977a1.905,1.905,0,0,1,.511,1.149,1.556,1.556,0,0,1-.511,1.149L634.8,86.457a1.62,1.62,0,0,1-1.149.511m-2.68-6.637,2.68,2.68,8.934-8.934-2.68-2.68Z" transform="translate(390.626 6589.885)" fill="#144677"/>
    <path id="Trazado_244005" data-name="Trazado 244005" d="M609.786,77.778h0a27.615,27.615,0,0,1-19.528-47.095,27.732,27.732,0,0,1,39.055,0,27.724,27.724,0,0,1,3.7,34.46,25.373,25.373,0,0,1-3.7,4.594,22.36,22.36,0,0,1-4.722,3.7,27.164,27.164,0,0,1-14.8,4.339m0-52.074a24.378,24.378,0,0,0,0,48.756,23.956,23.956,0,0,0,13.146-3.828,17.264,17.264,0,0,0,4.084-3.319,22.87,22.87,0,0,0,3.191-3.958,24.5,24.5,0,0,0-3.191-30.5,23.8,23.8,0,0,0-17.23-7.148" transform="translate(390.626 6589.885)" fill="#144677"/>
    <path id="Trazado_244006" data-name="Trazado 244006" d="M654.2,96.795H590.385a1.659,1.659,0,0,1,0-3.318H654.2a1.659,1.659,0,1,1,0,3.318" transform="translate(390.626 6589.885)" fill="#1e81ce"/>
    <path id="Trazado_244007" data-name="Trazado 244007" d="M609.531,90.413H582.473a1.659,1.659,0,1,1,0-3.318h27.186a1.69,1.69,0,0,1,1.659,1.659,1.906,1.906,0,0,1-1.787,1.659" transform="translate(390.626 6589.885)" fill="#1e81ce"/>
  </g>
</svg>
