<svg xmlns="http://www.w3.org/2000/svg" xmlns:xlink="http://www.w3.org/1999/xlink" width="62.552" height="61.728" viewBox="0 0 62.552 61.728">
  <defs>
    <clipPath id="clip-path">
      <rect id="Rectángulo_316721" data-name="Rectángulo 316721" width="62.552" height="61.728" fill="none"/>
    </clipPath>
  </defs>
  <g id="Grupo_243886" data-name="Grupo 243886" transform="translate(0 0)">
    <g id="Grupo_243885" data-name="Grupo 243885" transform="translate(0 0)" clip-path="url(#clip-path)">
      <path id="Trazado_244816" data-name="Trazado 244816" d="M12.179,8.16c-.139-.309.152-.374.329-.5.59-.426,1.174-.86,1.777-1.269.188-.127.413-.386.667-.056a2.89,2.89,0,0,1,.261.373c.24.489.485.556.956.163a12.273,12.273,0,0,1,3.094-1.647A29.822,29.822,0,0,1,33.072,2.672a38.776,38.776,0,0,1,5.176.578A29.091,29.091,0,0,1,45.724,5.8a28.756,28.756,0,0,1,9.027,7.138A26.222,26.222,0,0,1,60.8,27.121a24.613,24.613,0,0,1-.312,6.831,25.311,25.311,0,0,1-5.234,11.669c-.423.547-.577.9,0,1.348a.223.223,0,0,1,.02.337,15.113,15.113,0,0,1-2.631,2.554c-.854-.644-.848-.637-1.659.091-.249.224-.548.4-.807.612A24.579,24.579,0,0,1,43.6,54.347a31.631,31.631,0,0,1-9.071,2.241,24.108,24.108,0,0,1-7.185-.429A59.438,59.438,0,0,1,17,53.006c-.9-.373-1.258-.076-1.779.509a31.916,31.916,0,0,1-4.935,4.8,1.207,1.207,0,0,1-.092-.758c-.007-3.118,0-6.236-.011-9.353a1.037,1.037,0,0,0-.2-.843,36.344,36.344,0,0,1-3.048-3.87,15.533,15.533,0,0,1-1.7-3.306c-.384-1.006-.908-1.964-1.217-3.013a24.929,24.929,0,0,1-1.086-5.691,22.257,22.257,0,0,1-.019-3.512,35.135,35.135,0,0,1,.942-5.42,29.884,29.884,0,0,1,1.681-4.257A23.153,23.153,0,0,1,7.921,14.3a35.388,35.388,0,0,1,2.739-3.21A8.338,8.338,0,0,1,12.006,9.88c.979-.7,1-.678.261-1.6-.031-.04-.059-.083-.087-.124M27.832,24.744h.01c0,5.475.021,10.95-.024,16.426-.006.808.257.96,1.047.937,1.846-.053,3.695-.017,5.543-.016a1.9,1.9,0,0,1,.646.031c.776.3.955-.023.955-.683Q36,24.823,36.016,8.206c0-.612-.2-.786-.839-.777-2.2.03-4.4.034-6.6,0-.634-.01-.758.187-.756.739.021,5.526.013,11.053.013,16.579M7.138,28.15c0,.377.01.58,0,.783-.026.406.118.843.584.637.444-.2,1.336.345,1.34-.633A18.221,18.221,0,0,1,9.2,26.985a18.566,18.566,0,0,1,1.616-5.621,21.319,21.319,0,0,1,9.1-9.889c.992-.566.928-.568.447-1.564-.274-.567-.545-.54-1.02-.268a26.431,26.431,0,0,0-5.69,4.341A21.985,21.985,0,0,0,9.108,20.49a22.524,22.524,0,0,0-1.971,7.66M56.56,30.994a2.62,2.62,0,0,1,0-.456c.127-.712-.134-1.058-.95-.917a1.109,1.109,0,0,1-.325,0c-.527-.069-.736.123-.689.63a10.71,10.71,0,0,1-.356,3.437,21.55,21.55,0,0,1-7.092,11.756c-.125.108-.462.182-.316.364a4.107,4.107,0,0,0,1.12,1.077c.35.193.664-.223.927-.457A23.668,23.668,0,0,0,53,41.673,21.935,21.935,0,0,0,56.56,30.994m-28.729,16.9a3.921,3.921,0,0,0,4.159,3.894c2.6-.229,4.023-1.57,4-4.708-.008-1.13-2.4-3.052-3.764-3-2.55.1-4.346,1.39-4.4,3.814m27.7-22.081c-.436-.019-1.088-.17-.962.85.119.971.026.981,1.095.981,1.221,0,1.221,0,1.221-.921s0-.91-1.354-.91m.282-3.8c-1.212,0-1.212,0-1.213.843,0,.98,0,.935,1.074.994.8.044,1.061-.169,1.081-.953.022-.832-.3-1.027-.941-.884M8.11,35.556c-.731-.082-1.307-.122-1.194.855s.024.987,1.1.987,1.017-.005,1.105-.978c.077-.836-.273-1.037-1.014-.864m-.071-3.949c-.7-.115-1.255-.094-1.111.808.08.5-.165,1.091.79,1.048,1.217-.056,1.314-.14,1.405-.974.1-.874-.309-1.054-1.084-.882" transform="translate(-0.626 -0.575)" fill="#fd6d8a"/>
      <path id="Trazado_244817" data-name="Trazado 244817" d="M11.554,9.583c.029.041.056.084.088.124.736.918.718.9-.261,1.6a8.375,8.375,0,0,0-1.346,1.208A35.291,35.291,0,0,0,7.3,15.722a23.146,23.146,0,0,0-2.388,3.99,29.976,29.976,0,0,0-1.681,4.257,35.135,35.135,0,0,0-.942,5.42A22.163,22.163,0,0,0,2.3,32.9a24.919,24.919,0,0,0,1.085,5.691C3.7,39.641,4.222,40.6,4.606,41.6a15.569,15.569,0,0,0,1.7,3.306,36.431,36.431,0,0,0,3.048,3.87,1.032,1.032,0,0,1,.2.843c.01,3.118,0,6.236.011,9.354a1.21,1.21,0,0,0,.092.758,31.846,31.846,0,0,0,4.935-4.8c.522-.585.879-.881,1.78-.509a59.343,59.343,0,0,0,10.344,3.153,24.108,24.108,0,0,0,7.185.429,31.631,31.631,0,0,0,9.071-2.241,24.546,24.546,0,0,0,6.579-3.782c.26-.215.559-.389.807-.612.811-.729.805-.734,1.659-.09.782.328.871.64.252,1.194a29,29,0,0,1-5.129,3.588,30.782,30.782,0,0,1-8,3.122,27.606,27.606,0,0,1-12.37.479A82.693,82.693,0,0,1,16.526,56.7a.6.6,0,0,0-.795.191c-1.2,1.347-2.583,2.528-3.886,3.781a25.829,25.829,0,0,1-3.851,2.9c-.488.32-.691.1-.756-.345a4.867,4.867,0,0,1-.014-.683c0-4.081-.009-8.163.01-12.244a1.872,1.872,0,0,0-.494-1.315A27.314,27.314,0,0,1,.606,36.644a26.335,26.335,0,0,1,.511-13.207,28.18,28.18,0,0,1,5.935-10.78A23.338,23.338,0,0,1,10.4,9.381c.477-.36.893-.479,1.153.2" transform="translate(0 -1.999)" fill="#231f20"/>
      <path id="Trazado_244818" data-name="Trazado 244818" d="M58.491,46.394c-.58-.452-.427-.8,0-1.348a25.306,25.306,0,0,0,5.233-11.669,24.582,24.582,0,0,0,.313-6.831,26.222,26.222,0,0,0-6.047-14.183A28.75,28.75,0,0,0,48.96,5.225a29.075,29.075,0,0,0-7.475-2.55A38.788,38.788,0,0,0,36.308,2.1,29.836,29.836,0,0,0,22.5,4.647a12.281,12.281,0,0,0-3.093,1.647c-.471.393-.717.326-.956-.163a2.89,2.89,0,0,0-.261-.373.582.582,0,0,1-.608-.507c-.079-.345.25-.488.489-.63a32.2,32.2,0,0,1,6.187-2.867,32.864,32.864,0,0,1,9.2-1.726A34.659,34.659,0,0,1,45.743,1.68a31.644,31.644,0,0,1,9.019,4.765,29.077,29.077,0,0,1,7.553,8.343A26,26,0,0,1,65.89,24.42a20.257,20.257,0,0,1,.488,4.966,36.075,36.075,0,0,1-1.364,7.9,29.492,29.492,0,0,1-4.188,8.185c-.272.377-.551.751-.854,1.106-.508.594-.974.528-1.48-.187" transform="translate(-3.862 0)" fill="#231f20"/>
      <path id="Trazado_244819" data-name="Trazado 244819" d="M34.867,26.1c0-5.527.009-11.053-.013-16.579,0-.552.122-.749.756-.739,2.2.036,4.4.032,6.6,0,.637-.009.839.165.839.777q-.028,16.616-.009,33.233c0,.661-.179.985-.955.683a1.894,1.894,0,0,0-.645-.031c-1.848,0-3.7-.037-5.544.016-.79.023-1.052-.13-1.046-.937.045-5.475.023-10.95.023-16.426h-.01m1.964-15.424-.052,0,.054-.01c-.173.409.02.814.019,1.223-.014,9.657-.005,19.314-.023,28.971,0,.573.117.783.79.773a12.467,12.467,0,0,1,3.063.09c.234.055.42-.155.365-.293-.211-.524.051-1.02.049-1.528q-.037-13.877-.02-27.754c0-.329-.034-.66-.01-.988.03-.4-.158-.541-.57-.533-1.222.025-2.443.033-3.664.048" transform="translate(-7.662 -1.931)" fill="#231f20"/>
      <path id="Trazado_244820" data-name="Trazado 244820" d="M8.345,30.077a22.517,22.517,0,0,1,1.971-7.66,21.951,21.951,0,0,1,4.546-6.507,26.382,26.382,0,0,1,5.689-4.341c.475-.273.746-.3,1.02.268.481,1,.545,1-.447,1.564a21.318,21.318,0,0,0-9.1,9.889,18.547,18.547,0,0,0-1.615,5.622,18.192,18.192,0,0,0-.145,1.951c0,.978-.9.437-1.34.633-.467.207-.611-.232-.585-.637.013-.2,0-.406,0-.783" transform="translate(-1.833 -2.502)" fill="#f8fafb"/>
      <path id="Trazado_244821" data-name="Trazado 244821" d="M68.944,38.594a21.931,21.931,0,0,1-3.555,10.679,23.65,23.65,0,0,1-4.122,4.755c-.262.235-.577.651-.926.458a4.1,4.1,0,0,1-1.12-1.078c-.146-.182.19-.256.316-.364a21.546,21.546,0,0,0,7.091-11.756,10.728,10.728,0,0,0,.357-3.437c-.048-.508.161-.7.688-.631a1.109,1.109,0,0,0,.325,0c.816-.14,1.078.206.95.918a2.61,2.61,0,0,0,0,.456" transform="translate(-13.011 -8.176)" fill="#f8fafb"/>
      <path id="Trazado_244822" data-name="Trazado 244822" d="M34.866,59.578c.051-2.424,1.847-3.715,4.4-3.814,1.361-.052,3.756,1.869,3.764,3,.023,3.138-1.4,4.48-4,4.708a3.921,3.921,0,0,1-4.16-3.894m4.028-1.832a1.9,1.9,0,1,0-.041,3.788,1.983,1.983,0,0,0,2.2-1.965,1.932,1.932,0,0,0-2.163-1.822" transform="translate(-7.662 -12.259)" fill="#231f20"/>
      <path id="Trazado_244823" data-name="Trazado 244823" d="M70.1,32.346c1.354,0,1.354,0,1.354.91s0,.922-1.221.921c-1.069,0-.975-.011-1.095-.982-.126-1.02.526-.868.962-.849" transform="translate(-15.196 -7.107)" fill="#231f20"/>
      <path id="Trazado_244824" data-name="Trazado 244824" d="M70.4,27.461c.642-.144.962.052.941.884-.02.784-.283,1-1.08.953-1.072-.059-1.076-.014-1.074-.994,0-.843,0-.843,1.213-.843" transform="translate(-15.209 -6.027)" fill="#f8fafb"/>
      <path id="Trazado_244825" data-name="Trazado 244825" d="M9.253,44.821c.741-.173,1.091.028,1.014.864-.09.973-.021.978-1.105.978s-.992-.009-1.1-.986.464-.938,1.2-.856" transform="translate(-1.768 -9.841)" fill="#231f20"/>
      <path id="Trazado_244826" data-name="Trazado 244826" d="M9.183,39.759c.775-.172,1.18.009,1.084.882-.091.834-.188.917-1.405.974-.955.044-.71-.551-.79-1.048-.144-.9.409-.923,1.111-.808" transform="translate(-1.77 -8.727)" fill="#231f20"/>
      <path id="Trazado_244827" data-name="Trazado 244827" d="M37.368,11.2c1.222-.015,2.443-.023,3.664-.048.412-.009.6.13.57.533-.023.328.01.658.01.988q0,13.878.02,27.754c0,.509-.26,1-.049,1.528.055.137-.131.348-.365.293a12.467,12.467,0,0,0-3.063-.09c-.673.009-.79-.2-.79-.773.018-9.657.009-19.314.023-28.971,0-.409-.192-.814-.018-1.223l0,.009" transform="translate(-8.199 -2.451)" fill="#f8fafb"/>
      <path id="Trazado_244828" data-name="Trazado 244828" d="M37.373,11.207l0-.009-.055.01.052,0" transform="translate(-8.204 -2.462)" fill="#fd6d8a"/>
      <path id="Trazado_244829" data-name="Trazado 244829" d="M39.455,58.3a1.932,1.932,0,0,1,2.163,1.822,1.983,1.983,0,0,1-2.2,1.965,1.9,1.9,0,1,1,.041-3.788" transform="translate(-8.222 -12.812)" fill="#f8fafb"/>
    </g>
  </g>
</svg>
