<svg xmlns="http://www.w3.org/2000/svg" width="317.142" height="144.714" viewBox="0 0 317.142 144.714">
  <g id="Grupo_243985" data-name="Grupo 243985" transform="translate(-329.819 -1148.598)">
    <path id="Trazado_243568" data-name="Trazado 243568" d="M252.273,131.41c-.69,2.306-1.345,4.436-1.964,6.576q-3.947,13.647-7.86,27.3c-.42,1.477-1.123,2.393-2.771,2.415-1.7.023-2.334-.982-2.748-2.429-3.547-12.414-7.134-24.817-10.675-37.232-.263-.917-.795-1.972.345-2.77,1.5-1.049,2.653-.49,3.235,1.6q3.763,13.522,7.517,27.048a74.908,74.908,0,0,0,2.668,8.251c.817-2.788,1.645-5.572,2.451-8.363q3.846-13.323,7.666-26.655c.373-1.311.912-2.35,2.439-2.349,1.572,0,2,1.159,2.36,2.426q4.828,16.912,9.707,33.811a1.514,1.514,0,0,0,.692,1.156c.721-2.555,1.435-5.047,2.131-7.545q3.928-14.091,7.827-28.19c.342-1.245.9-1.9,2.264-1.569,1.416.347,1.542,1.317,1.207,2.485Q276.3,136,273.807,144.611c-1.941,6.716-3.9,13.425-5.829,20.145-.432,1.511-.762,2.981-2.837,2.945-2.051-.036-2.386-1.534-2.821-3.021q-4.517-15.42-9.054-30.834a5.989,5.989,0,0,0-.993-2.436" transform="translate(179.705 1043)" fill="#fff"/>
    <path id="Trazado_243569" data-name="Trazado 243569" d="M227.576,207.828q0-9.221,0-18.441c0-2.3.375-2.717,2.605-2.724,7.445-.021,14.89.005,22.335-.015,1.222,0,1.986.411,1.965,1.724-.021,1.328-.823,1.637-2.031,1.629-6.317-.038-12.634-.02-18.95-.019-2.243,0-2.246,0-2.247,2.161q0,5.667.008,11.335c0,2.133.008,2.135,2.23,2.136q8.46,0,16.92,0c.9,0,1.87-.083,2.187,1.1.374,1.388-.29,2.222-1.851,2.227-5.809.019-11.619.063-17.427-.021-1.586-.023-2.137.372-2.1,2.046.106,5.186.022,10.375.046,15.563.006,1.336-.025,2.561-1.818,2.6s-1.889-1.153-1.884-2.515c.025-6.26.011-12.519.011-18.779" transform="translate(179.705 1043)" fill="#fff"/>
    <path id="Trazado_243570" data-name="Trazado 243570" d="M420.988,204.134c.9-.266.981-.9,1.269-1.344a12.8,12.8,0,0,1,15.915-4.286,8.1,8.1,0,0,1,4.74,7.293c.174,7.271.084,14.547.108,21.821,0,1.219-.737,1.54-1.772,1.5a1.574,1.574,0,0,1-1.712-1.82c.028-4.06.01-8.12.009-12.181,0-2.03.032-4.061-.014-6.09-.069-3.078-.4-6.219-3.715-7.519a9.6,9.6,0,0,0-10.185,1.51c-3.205,2.7-4.324,6.392-4.411,10.417-.1,4.4-.041,8.8-.023,13.2.005,1.277-.063,2.427-1.755,2.484-1.729.059-1.816-1.065-1.813-2.37.019-8.8.006-17.594.018-26.391,0-.818-.192-1.752.794-2.223a1.687,1.687,0,0,1,2.536,1.6c.049,1.436.011,2.876.011,4.4" transform="translate(179.705 1043)" fill="#fff"/>
    <path id="Trazado_243571" data-name="Trazado 243571" d="M317.622,151.4c0-3.271-.059-6.543.029-9.811.035-1.3-.409-1.729-1.646-1.58-.611.074-1.241-.025-1.859.008-1.1.059-1.548-.495-1.543-1.524,0-1,.38-1.513,1.51-1.55,3.507-.117,3.5-.158,3.514-3.714,0-1.24.016-2.481.017-3.721a1.912,1.912,0,0,1,1.645-2.04c1.23-.284,1.964.03,1.935,1.477-.045,2.2.046,4.4-.034,6.6-.041,1.121.324,1.493,1.435,1.44,1.632-.078,3.273.043,4.9-.038,1.254-.062,1.781.485,1.764,1.662-.018,1.218-.793,1.444-1.831,1.419-1.635-.04-3.272.038-4.906-.02-.987-.036-1.435.249-1.425,1.315.057,6.371.123,12.743.08,19.113-.031,4.578,3.058,5.378,6.845,4.362,1.1-.3,2.295-1.539,3.061.386.507,1.274-.219,2.188-2.218,2.713a13.814,13.814,0,0,1-6.539.1,5.635,5.635,0,0,1-4.4-4.437,11.075,11.075,0,0,1-.334-3.017c0-.113,0-.226,0-.338v-8.8Z" transform="translate(179.705 1043)" fill="#fff"/>
    <path id="Trazado_243572" data-name="Trazado 243572" d="M329.552,212.868c0-3.271-.05-6.542.022-9.811.028-1.226-.281-1.808-1.6-1.629-.609.082-1.24-.023-1.858.014-1.165.068-1.648-.485-1.625-1.614.023-1.074.549-1.427,1.6-1.457,3.447-.1,3.446-.132,3.453-3.6,0-1.3,0-2.594.018-3.891a1.917,1.917,0,0,1,1.69-2.009c1.121-.232,1.888-.012,1.861,1.383-.039,2.086.071,4.177-.037,6.258-.073,1.422.262,2.061,1.835,1.907,1.508-.147,3.045.023,4.564-.045,1.16-.052,1.66.4,1.653,1.555-.008,1.183-.6,1.56-1.712,1.527-1.691-.051-3.385.034-5.075-.029-.973-.037-1.26.32-1.254,1.267.036,6.372-.007,12.744.041,19.116.031,3.977,2.4,5.671,6.311,4.606a7.288,7.288,0,0,0,1.41-.562c.8-.412,1.541-.527,2.024.39.47.894.465,1.867-.5,2.368a10.853,10.853,0,0,1-9.317.311c-2.709-1.084-3.394-3.563-3.495-6.244-.006-.169-.007-.339-.007-.508q0-4.651,0-9.3" transform="translate(179.705 1043)" fill="#fff"/>
    <path id="Trazado_243573" data-name="Trazado 243573" d="M457.142,193.711c0,1.072.074,2.151-.019,3.215-.109,1.239.425,1.538,1.563,1.485,1.69-.079,3.386.02,5.078-.021,1.1-.027,1.523.459,1.488,1.526-.034,1.02-.4,1.567-1.519,1.536-1.8-.049-3.612.026-5.417-.023-.872-.023-1.2.264-1.19,1.157.042,6.6-.034,13.205.1,19.8.075,3.744,2.453,4.729,6.366,4a5.343,5.343,0,0,0,1.414-.558c.734-.376,1.4-.493,1.909.32a1.691,1.691,0,0,1-.239,2.3,1,1,0,0,1-.256.219,11.276,11.276,0,0,1-9.346.23c-2.607-1.094-3.39-3.487-3.4-6.129-.029-6.545-.042-13.091.014-19.636.011-1.294-.289-1.92-1.682-1.713-.553.081-1.129-.02-1.691.019-1.11.075-1.7-.333-1.7-1.528,0-1.176.542-1.528,1.673-1.546,3.367-.052,3.366-.092,3.367-3.518,0-1.354-.045-2.711.019-4.062a2.1,2.1,0,0,1,2.735-1.958c.653.165.726.617.726,1.153v3.724Z" transform="translate(179.705 1043)" fill="#fff"/>
    <path id="Trazado_243574" data-name="Trazado 243574" d="M372.129,143.307a21.713,21.713,0,0,1,3.337-4.151,10.548,10.548,0,0,1,7.222-2.815c1.238.033,2.049.537,2.068,1.91s-.6,2.017-2.026,2.107c-6.388.4-10.012,4.108-10.251,10.668-.175,4.784-.111,9.577-.116,14.365,0,1.256-.16,2.29-1.74,2.306-1.526.016-1.844-.9-1.84-2.219.026-8.9.017-17.8.024-26.707,0-.96-.108-2.026,1.257-2.184,1.271-.147,2.092.285,2.07,1.737-.023,1.492-.005,2.985-.005,4.983" transform="translate(179.705 1043)" fill="#fff"/>
    <path id="Trazado_243575" data-name="Trazado 243575" d="M387.046,204.19c1.214-1.044,1.931-2.326,3.025-3.311a10.588,10.588,0,0,1,7.624-3.1c1.275.044,1.985.629,1.989,1.986a1.733,1.733,0,0,1-1.953,1.995c-6.082-.053-10.078,4.09-10.337,10.98-.179,4.733-.062,9.478-.061,14.217,0,1.047-.191,1.926-1.416,2.145-1.461.262-2.171-.42-2.174-2.175q-.017-9.395,0-18.789c0-2.708.011-5.417.01-8.125,0-1.122.2-2.037,1.633-2.027,1.39.009,1.687.842,1.667,2.006-.023,1.4-.005,2.8-.005,4.2" transform="translate(179.705 1043)" fill="#fff"/>
    <path id="Trazado_243576" data-name="Trazado 243576" d="M404.922,213.488q0-6.672,0-13.345c0-1.151.064-2.157,1.643-2.161s1.811.9,1.808,2.2q-.036,13.43.005,26.86c0,1.273-.33,2.085-1.756,2.1-1.5.012-1.71-.928-1.7-2.136.021-4.5.008-9.009.008-13.514" transform="translate(179.705 1043)" fill="#fff"/>
    <path id="Trazado_243577" data-name="Trazado 243577" d="M153.134,150.61a10.789,10.789,0,0,1,8.194-11.124,6.051,6.051,0,0,0,3.361-2.342,8.6,8.6,0,0,1,6.776-3.722,8.657,8.657,0,0,0,4.481-1.729,8.772,8.772,0,0,1,8.478-1.126c3.46,1.249,6.589.4,9.427-1.641,2.643-1.9,3.079-4.649,2.406-7.641-.317-1.406-.823-2.768-1.183-4.166a12.124,12.124,0,0,1,.181-7.111A5.9,5.9,0,0,1,199,106.223a9.659,9.659,0,0,1,6.943.041c2.8,1.1,3.809,3.483,4.024,6.25a17.794,17.794,0,0,1-1.921,9.4,37.533,37.533,0,0,0-3.373,8.242,11.082,11.082,0,0,0,.495,6.682,19.534,19.534,0,0,1,1.019,12.361c-1.635,6.077-6.111,9.175-11.954,10.514-3.928.9-7.9,1.594-11.482,3.582-5.278,2.929-7.817,7.337-7.722,13.432.093,5.9,1.17,11.655,1.987,17.457a34.594,34.594,0,0,1-.572,11.359c-.129.676-.247,1.5-1.193,1.466-1.019-.034-1.163-.913-1.129-1.633.225-4.792-2.017-8.59-4.8-12.184-4.443-5.736-8.43-11.735-10.746-18.694-1.387-4.167-1.883-8.542-2.977-12.777-.613-2.372-1.282-4.729-1.942-7.089a17.224,17.224,0,0,1-.523-4.027" transform="translate(179.705 1043)" fill="#fff"/>
    <path id="Trazado_243578" data-name="Trazado 243578" d="M174.3,219.133a14.786,14.786,0,0,0-.328-3.422c-.155-.809-.028-1.553.932-1.718.9-.155,1.237.505,1.381,1.242a5.111,5.111,0,0,0,1.581,2.66c2.326,2.308,4.869,4.4,6.86,7.04a19.333,19.333,0,0,1,3.757,16.325,11.635,11.635,0,0,1-12.091,9.032c-6.224-.366-10.452-4.249-11.148-10.164a13.707,13.707,0,0,1,3.67-11.593c.96-1.018,1.867-2.09,2.862-3.072a7.7,7.7,0,0,0,2.524-6.33" transform="translate(179.705 1043)" fill="#fff"/>
    <path id="Trazado_243579" data-name="Trazado 243579" d="M180.783,119.828c-1.844-.534-3.105.562-4.209,2.281a5.95,5.95,0,0,1-5.014,2.681c-1.309.051-2.626-.015-3.935-.1a3.137,3.137,0,0,0-2.59.99,19.539,19.539,0,0,1-2.265,1.99,3.146,3.146,0,0,1-3.468.241,1.921,1.921,0,0,1-.989-2.121,3.09,3.09,0,0,1,2.2-2.535,6.8,6.8,0,0,1,2.714-.387,3.94,3.94,0,0,0,3.594-1.766c.306-.427.636-.835.946-1.258a5.84,5.84,0,0,1,5.619-2.7c2.779.314,4.494-.829,5.61-3.424,1.358-3.157,5.643-4.659,8.846-3.366,2.68,1.083,3.254,4.322,1.18,6.653-1.625,1.826-4.393,2.809-8.243,2.814" transform="translate(179.705 1043)" fill="#fff"/>
    <path id="Trazado_243580" data-name="Trazado 243580" d="M158.656,131.746c-.437,1.086-.564,2.079-.9,3a5.427,5.427,0,0,1-2.983,3.307,3.168,3.168,0,0,1-4.5-3.643,3.279,3.279,0,0,1,2.916-2.3,2.972,2.972,0,0,1,1.171.038c1.451.412,2.886.855,4.3-.406" transform="translate(179.705 1043)" fill="#fff"/>
    <path id="Trazado_243581" data-name="Trazado 243581" d="M410.572,189a2.38,2.38,0,0,1-2.536,2.522,2.493,2.493,0,0,1-2.458-2.66,2.544,2.544,0,0,1,2.505-2.633A2.468,2.468,0,0,1,410.572,189" transform="translate(179.705 1043)" fill="#fff"/>
    <path id="Trazado_243582" data-name="Trazado 243582" d="M375.616,207.142c-2.127-7.557-8.293-11.182-15.855-9.41-3.055.715-5.266,2.68-7.666,5.329,0-1.359-.019-2.191,0-3.022.036-1.273-.4-2.046-1.832-2.045-1.459,0-1.607.919-1.608,2.032q-.021,19.206-.049,38.414c0,.563.056,1.127.059,1.69.008,1.208.753,1.556,1.784,1.493,1.3-.079,1.661-.9,1.656-2.088q-.035-6.937.007-13.876c0-.437-.285-1,.362-1.362,3.223,5.052,8.075,6.137,13.475,5.136,5.419-1,8.345-4.82,9.726-9.925a22.92,22.92,0,0,0-.063-12.366m-3.775,12.088c-1.372,4.546-4.705,7.179-9.265,7.291a9.638,9.638,0,0,1-9.648-6.816,18.959,18.959,0,0,1,.009-12.615,9.417,9.417,0,0,1,8.913-6.38c4.418-.208,7.583,1.659,9.365,5.579a16.064,16.064,0,0,1,1.32,7.428,16.442,16.442,0,0,1-.694,5.513" transform="translate(179.705 1043)" fill="#fff"/>
    <path id="Trazado_243583" data-name="Trazado 243583" d="M338.964,152.438c3.442.068,6.885.024,10.327.025q4.487,0,8.973,0c3.679,0,3.813-.067,3.421-3.687-.623-5.761-3.191-10.18-8.948-12.2a14.046,14.046,0,0,0-15.011,3.919c-3.417,3.917-4.142,8.669-3.781,13.647.713,9.81,7.212,15.209,16.862,13.986a11.908,11.908,0,0,0,9.022-5.9c.456-.751.733-1.631-.215-2.243a1.6,1.6,0,0,0-2.479.48c-.122.189-.264.366-.388.554-2.515,3.815-6.261,4.564-10.414,4.02s-6.61-3.129-7.885-6.978a22.56,22.56,0,0,1-.818-4.142c-.144-1.072.16-1.507,1.334-1.484m-1.062-4.406c.873-5.632,4.977-9.125,10.659-8.99,5.058.121,9.036,4.036,9.62,9.39.108.992-.314,1.133-1.127,1.127-2.986-.024-5.973-.009-8.959-.009-2.931,0-5.862-.043-8.791.021-1.185.026-1.594-.3-1.4-1.539" transform="translate(179.705 1043)" fill="#fff"/>
    <path id="Trazado_243584" data-name="Trazado 243584" d="M307.026,145.1a8.594,8.594,0,0,0-5.341-7.986,16.317,16.317,0,0,0-16.82,2.6c-1.53,1.389-1.934,2.578-1.167,3.428.824.914,1.815.668,3.421-.915,3.7-3.648,8.069-3.883,12.706-2.421a5.4,5.4,0,0,1,3.287,3.436,12.616,12.616,0,0,1,.609,4.323c.038,1.045-.345,1.349-1.359,1.361-2.535.03-5.077.08-7.6.293-3.676.311-7.3.949-10.3,3.334-2.656,2.113-3.212,5.052-2.816,8.225.374,2.994,1.944,5.285,4.865,6.123,5.832,1.672,11.275,1.092,15.75-3.549.366-.379.611-.942,1.435-1.085,0,1.332-.007,2.6,0,3.879.009,1.15.648,1.592,1.743,1.545,1.058-.045,1.694-.454,1.689-1.626-.029-6.99.068-13.982-.1-20.967m-3.349,10.458a8.733,8.733,0,0,1-3.646,6.4,12.531,12.531,0,0,1-10.49,2.523c-2.377-.459-3.78-1.787-4.131-3.867-.508-3,.311-5.3,2.366-6.544a15.321,15.321,0,0,1,6.447-1.82c2.011-.218,4.04-.265,6.061-.387,3.638.03,3.653.031,3.393,3.69" transform="translate(179.705 1043)" fill="#fff"/>
    <path id="Trazado_243585" data-name="Trazado 243585" d="M319.846,206.634a13.2,13.2,0,0,0-12.8-9.26c-7.159-.094-11.9,2.873-14.2,8.968a22.8,22.8,0,0,0-1,10.332c.721,7.723,6.457,13.016,14.215,13.006,7.306-.01,12.048-3.367,14.04-10.074a20.745,20.745,0,0,0-.259-12.972m-6.088,17.055c-5.182,5.268-14.862,3.133-17.249-3.833a19.176,19.176,0,0,1,.086-12.945c1.589-4.442,5.009-6.528,10.2-6.44a9.544,9.544,0,0,1,9.357,6.721,16.279,16.279,0,0,1,.907,5.852c-.007,4.34-.571,7.871-3.3,10.645" transform="translate(179.705 1043)" fill="#fff"/>
    <path id="Trazado_243586" data-name="Trazado 243586" d="M285.417,207.121c-1.736-5.432-5.414-8.817-11.111-9.578-5.849-.781-11.035.543-14.529,5.784-2.388,3.58-2.891,7.64-2.663,11.829.492,9.05,6.081,14.568,14.683,14.523,7.214-.037,12.214-3.847,13.91-10.708a21.46,21.46,0,0,0-.29-11.85m-6.33,16.662c-5,5.021-14.4,3.164-16.967-3.413a18.537,18.537,0,0,1,.037-13.878c1.668-4.254,5.223-6.22,10.494-6.014a9.58,9.58,0,0,1,9,6.985,17.846,17.846,0,0,1,.837,6.009c-.029,3.8-.559,7.461-3.4,10.311" transform="translate(179.705 1043)" fill="#fff"/>
  </g>
</svg>
