<svg id="Grupo_242775" data-name="Grupo 242775" xmlns="http://www.w3.org/2000/svg" xmlns:xlink="http://www.w3.org/1999/xlink" width="266.526" height="283" viewBox="0 0 266.526 283">
  <defs>
    <clipPath id="clip-path">
      <rect id="Rectángulo_316136" data-name="Rectángulo 316136" width="266.525" height="283" fill="none"/>
    </clipPath>
    <clipPath id="clip-path-3">
      <rect id="Rectángulo_316118" data-name="Rectángulo 316118" width="30.99" height="16.497" fill="none"/>
    </clipPath>
    <clipPath id="clip-path-4">
      <rect id="Rectángulo_316120" data-name="Rectángulo 316120" width="17.51" height="17.801" fill="none"/>
    </clipPath>
    <clipPath id="clip-path-6">
      <rect id="Rectángulo_316121" data-name="Rectángulo 316121" width="17.842" height="6.04" fill="none"/>
    </clipPath>
    <clipPath id="clip-path-7">
      <rect id="Rectángulo_316122" data-name="Rectángulo 316122" width="10.3" height="12.029" fill="none"/>
    </clipPath>
    <clipPath id="clip-path-8">
      <rect id="Rectángulo_316123" data-name="Rectángulo 316123" width="46.584" height="37.388" fill="none"/>
    </clipPath>
    <clipPath id="clip-path-9">
      <rect id="Rectángulo_316124" data-name="Rectángulo 316124" width="7.319" height="7.506" fill="none"/>
    </clipPath>
    <clipPath id="clip-path-10">
      <rect id="Rectángulo_316125" data-name="Rectángulo 316125" width="6.276" height="6.437" fill="none"/>
    </clipPath>
    <clipPath id="clip-path-11">
      <rect id="Rectángulo_316126" data-name="Rectángulo 316126" width="3.22" height="3.303" fill="none"/>
    </clipPath>
    <clipPath id="clip-path-13">
      <rect id="Rectángulo_316128" data-name="Rectángulo 316128" width="2.035" height="2.087" fill="none"/>
    </clipPath>
    <clipPath id="clip-path-15">
      <rect id="Rectángulo_316130" data-name="Rectángulo 316130" width="11.865" height="9.069" fill="none"/>
    </clipPath>
    <clipPath id="clip-path-16">
      <rect id="Rectángulo_316131" data-name="Rectángulo 316131" width="10.787" height="7.618" fill="none"/>
    </clipPath>
    <clipPath id="clip-path-17">
      <rect id="Rectángulo_316132" data-name="Rectángulo 316132" width="3.794" height="1.027" fill="none"/>
    </clipPath>
    <clipPath id="clip-path-18">
      <rect id="Rectángulo_316133" data-name="Rectángulo 316133" width="0.359" height="0.358" fill="none"/>
    </clipPath>
    <clipPath id="clip-path-19">
      <rect id="Rectángulo_316134" data-name="Rectángulo 316134" width="16.373" height="21.204" fill="none"/>
    </clipPath>
  </defs>
  <g id="Grupo_242774" data-name="Grupo 242774" clip-path="url(#clip-path)">
    <g id="Grupo_242773" data-name="Grupo 242773">
      <g id="Grupo_242772" data-name="Grupo 242772" clip-path="url(#clip-path)">
        <path id="Trazado_243103" data-name="Trazado 243103" d="M250.3,150.482A125.151,125.151,0,1,1,125.152,25.332,125.15,125.15,0,0,1,250.3,150.482" transform="translate(0 4.002)" fill="#2160bb"/>
        <path id="Trazado_243104" data-name="Trazado 243104" d="M208.476,118.8c6.854,20.843,13.474,43.245,19.549,67.134,5.536,21.773,10.082,42.665,13.818,62.513a131.246,131.246,0,0,1-44.746-5.264,133.51,133.51,0,0,1-57.967-35.766q-16.859-40.465-33.72-80.928a192.853,192.853,0,0,1,28.1,15.2,193.885,193.885,0,0,1,38.371,32.975l24.086,16.379-10.539-72Z" transform="translate(16.654 18.77)" fill="#f29e79"/>
        <path id="Trazado_243105" data-name="Trazado 243105" d="M196.207,190.045s51.146,34.106,53.843,62.865-94.365-11.684-94.365-11.684L103.922,125.149c7.578-.278,19.239.476,30.333,7.189a48.359,48.359,0,0,1,10.816,8.983c8.95,9.624,24.233,24.48,51.137,48.725" transform="translate(16.419 19.765)" fill="#3fd5fe"/>
        <path id="Trazado_243106" data-name="Trazado 243106" d="M160.138,261.232l-130.73-.862s-4.022-93.389,0-113.471c4.894-24.436,32.008-28.286,32.008-28.286,1.394-.587,2.565-1.019,3.341-1.292.643-.264,1.6-.633,2.772-1.01,19.623-6.293,38.432,7.456,48.449,10.482,29.022,8.767,43.4,43.323,53.1,69.211a68.325,68.325,0,0,1,4.645,22.792,48.885,48.885,0,0,1-.775,9.629c-2.086,11.377-8.4,21.705-11.227,32.82Z" transform="translate(4.364 18.119)" fill="#3fd5fe"/>
        <rect id="Rectángulo_316117" data-name="Rectángulo 316117" width="1.249" height="67.985" transform="translate(85.617 209.221) rotate(-2.337)" fill="#005195"/>
        <path id="Trazado_243107" data-name="Trazado 243107" d="M151.995,58.63c-2.059.991-3.723,2.967-2,5.323,3.53,1.452,3.959,6.682,1.523,9.232,1.127.611,3.748,8.237.536,11.246,4,3.264,4.016,9.175.792,12.971-3.011,3.782-7.629,4.242-12.107,5.118a29.075,29.075,0,0,0-4.287,1.137,12.626,12.626,0,0,0-3.962,2.253,44.537,44.537,0,0,0-11.967,16.371c-5.321,11.791-7.307,25.659-10.339,37.084L62.507,145.983,81.988,98.015l2.5-6.151c-1.671-.105-24.348-2-35.651-22.1a44.252,44.252,0,0,1,2.722-46.946A55.356,55.356,0,0,1,57.443,16.5C70.535,4.471,88.425-.234,104.532,4.5c20.2,5.953,28.785,24.155,30.121,27.094.032,10.92,14.341,14.019,19.4,19.377,2.3,2.448.6,6.4-2.061,7.665" transform="translate(6.85 0.424)" fill="#f29e79"/>
        <path id="Trazado_243108" data-name="Trazado 243108" d="M35.366,187.727c-12.8-10.549-17.313-29.982-10.479-45.094,5.546-12.261,17.422-21.318,20.809-34.34,3.261-12.536-2.111-25.454-5.245-38.023-2.627-10.541-3.688-21.619-1.685-32.3S46.028,17.028,54.45,10.167C64.479,2,78.093-.688,91,.145,101.217.8,111.229,3.378,121.06,6.4a10.466,10.466,0,0,1,7.149,12.586c-2.709,10.3-11.524,19.138-22.17,20.721a22.3,22.3,0,0,1-5.13,22.982c-2.385,2.361-5.327,4.185-7.313,6.891-3.329,4.537-3.364,10.65-2.832,16.252,1,10.535,1.29,12.534-.343,16.739-2.009,5.176-6.564,8.238-9.988,9.989,1.595,4.371,4.864,15.371-.051,25.934-5.246,11.275-17.258,17.727-20.905,18.689-4.872,1.285-8.459,4.017-13.018,6.161s-8.76,5.38-11.167,9.807c-2.517,4.632-.272,9.313.073,14.573" transform="translate(3.43 0)" fill="#21215b"/>
        <path id="Trazado_243109" data-name="Trazado 243109" d="M112.673,30.439a21.148,21.148,0,0,0-6.2,3.481,21.506,21.506,0,0,0-6.325,8.58l11.405-7.407,10.725-2.8-.029-4.31Z" transform="translate(15.823 4.422)" fill="#21215b"/>
        <path id="Trazado_243110" data-name="Trazado 243110" d="M86.519,82.77c.347.488,11.8,16.082,26.867,26.647l.316.214A44.36,44.36,0,0,1,125.674,93.26,12.6,12.6,0,0,1,129.629,91c-7.283-.008-15.091-.152-19.594-.6a57.853,57.853,0,0,1-13.85-3.167,64.627,64.627,0,0,1-9.666-4.462" transform="translate(13.67 13.077)" fill="#21215b"/>
        <g id="Grupo_242723" data-name="Grupo 242723" transform="translate(110.507 53.776)" opacity="0.32" style="mix-blend-mode: multiply;isolation: isolate">
          <g id="Grupo_242722" data-name="Grupo 242722">
            <g id="Grupo_242721" data-name="Grupo 242721" clip-path="url(#clip-path-3)">
              <path id="Trazado_243111" data-name="Trazado 243111" d="M95.437,55.581c.261,4.528,7.407,7.8,15.96,7.3s15.276-4.565,15.016-9.093-7.409-7.8-15.962-7.306-15.276,4.565-15.013,9.094" transform="translate(-95.429 -46.439)" fill="#f29e79"/>
            </g>
          </g>
        </g>
        <path id="Trazado_243112" data-name="Trazado 243112" d="M131.308,51.75a.22.22,0,0,0,.16-.147,2.58,2.58,0,0,1,3.777-1.187.224.224,0,0,0,.315-.047.227.227,0,0,0-.047-.316,3.03,3.03,0,0,0-4.471,1.407.224.224,0,0,0,.141.285.231.231,0,0,0,.125.006" transform="translate(20.702 7.829)" fill="#b92e17"/>
        <g id="Grupo_242729" data-name="Grupo 242729" transform="translate(143.041 65.957)" style="mix-blend-mode: multiply;isolation: isolate">
          <g id="Grupo_242728" data-name="Grupo 242728">
            <g id="Grupo_242727" data-name="Grupo 242727" clip-path="url(#clip-path-4)">
              <g id="Grupo_242726" data-name="Grupo 242726" opacity="0.8">
                <g id="Grupo_242725" data-name="Grupo 242725">
                  <g id="Grupo_242724" data-name="Grupo 242724" clip-path="url(#clip-path-4)">
                    <path id="Trazado_243113" data-name="Trazado 243113" d="M139.193,64.609c.389.648,2.609,4.44,1.568,8.646a10.32,10.32,0,0,1-.523,1.5,7.639,7.639,0,0,1-1.2-.129c-5-.871-14.866-6.456-15.517-6.819a17.51,17.51,0,0,0,10.04-3.565,21.664,21.664,0,0,0,6.081-7.175.432.432,0,0,1,.057-.111c.082.167.153.356.235.521l.022.108a13.071,13.071,0,0,1,.376,4.327,7.627,7.627,0,0,1-1.143,2.693" transform="translate(-123.525 -56.958)" fill="#f5804e"/>
                  </g>
                </g>
              </g>
            </g>
          </g>
        </g>
        <g id="Grupo_242732" data-name="Grupo 242732" transform="translate(141.779 72.144)" style="mix-blend-mode: multiply;isolation: isolate">
          <g id="Grupo_242731" data-name="Grupo 242731">
            <g id="Grupo_242730" data-name="Grupo 242730" clip-path="url(#clip-path-6)">
              <path id="Trazado_243114" data-name="Trazado 243114" d="M131.735,67.4l.2-.058a25.564,25.564,0,0,0,8.171-4.212.506.506,0,0,0,.115-.623.344.344,0,0,0-.523-.135,24.866,24.866,0,0,1-7.947,4.1,22.426,22.426,0,0,1-8.9.849.405.405,0,0,0-.41.411.434.434,0,0,0,.345.488,23.32,23.32,0,0,0,8.952-.815" transform="translate(-122.435 -62.301)" fill="#f29e79"/>
            </g>
          </g>
        </g>
        <path id="Trazado_243115" data-name="Trazado 243115" d="M65.484,78.468c3.966,7.451,11.554,11.161,16.95,8.289s6.551-11.24,2.585-18.689-11.556-11.162-16.95-8.29-6.551,11.24-2.585,18.69" transform="translate(9.974 9.291)" fill="#f29e79"/>
        <g id="Grupo_242735" data-name="Grupo 242735" transform="translate(79.96 77.069)" style="mix-blend-mode: multiply;isolation: isolate">
          <g id="Grupo_242734" data-name="Grupo 242734">
            <g id="Grupo_242733" data-name="Grupo 242733" clip-path="url(#clip-path-7)">
              <path id="Trazado_243116" data-name="Trazado 243116" d="M69.163,72.91a4.587,4.587,0,0,1,1.93-1.541A6.565,6.565,0,0,1,73.56,70.9a4.634,4.634,0,0,1,1.364.2,15.744,15.744,0,0,0-1.49-1.368,22.8,22.8,0,0,0-3.145-2.161.548.548,0,0,1,.424-1,10.941,10.941,0,0,1,4.037,1.976,14.817,14.817,0,0,1,3.122,3.381,7.8,7.8,0,0,1,1.45,3.476c.124,1.124-.118,2.645-1.318,3.109A.876.876,0,0,1,77.06,77.1c.979-1.216.3-2.778-.513-4a2.876,2.876,0,0,0-.941-.378,10.163,10.163,0,0,0-1.882-.167,5.436,5.436,0,0,0-3.413,1.4.71.71,0,0,1-.967-.029.822.822,0,0,1-.181-1.019" transform="translate(-69.05 -66.554)" fill="#f29e79"/>
            </g>
          </g>
        </g>
        <path id="Trazado_243117" data-name="Trazado 243117" d="M119.428,36.591c-.564-.332-.858,3.66-3.745,4.917-2.652,1.155-5.462-.884-5.55-.312-.116.754,4.558,5.777,7.741,4.2s2.247-8.4,1.554-8.81" transform="translate(17.4 5.778)" fill="#21215b"/>
        <path id="Trazado_243118" data-name="Trazado 243118" d="M108.277,128.515s35.589,49.515,13.411,47.451S56.7,120.778,56.7,120.778s20.116-19.6,51.578,7.737" transform="translate(8.958 18.008)" fill="#f29e79"/>
        <path id="Trazado_243119" data-name="Trazado 243119" d="M73.237,79.65a2,2,0,1,1-2.424-1.472,2,2,0,0,1,2.424,1.472" transform="translate(10.947 12.343)" fill="#fff"/>
        <path id="Trazado_243120" data-name="Trazado 243120" d="M74.829,81.574c.736.437,1.474.862,2.211,1.287a3.507,3.507,0,1,0,3.409-2.7,2.59,2.59,0,0,0-.624.063q-.3-1.218-.6-2.435a5.77,5.77,0,0,1,1.224-.125,6.007,6.007,0,1,1-6.007,6.008,5.846,5.846,0,0,1,.387-2.1" transform="translate(11.762 12.271)" fill="#fff"/>
        <path id="Trazado_243121" data-name="Trazado 243121" d="M35.366,174.943c-.35-5.257-2.585-9.94-.075-14.562,2.411-4.433,6.606-7.668,11.165-9.815s8.155-4.871,13.025-6.157A30.856,30.856,0,0,0,77.527,97.826L46.231,80.88a36.811,36.811,0,0,1-.537,14.636c-3.385,13.025-15.261,22.08-20.806,34.344-6.832,15.111-2.323,34.543,10.478,45.083" transform="translate(3.431 12.779)" fill="#21215b"/>
        <path id="Trazado_243122" data-name="Trazado 243122" d="M35.366,174.943c-.35-5.257-2.585-9.94-.075-14.562a22.939,22.939,0,0,1,11.165-9.815c6.96-3.167,10.284-1.429,16.483-2.848,9.2-2.105,20.081-10.1,22.989-21.84,3.653-14.756-7.387-26.966-8.4-28.052L46.231,80.88a36.811,36.811,0,0,1-.537,14.636c-3.385,13.025-15.261,22.08-20.806,34.344-6.832,15.111-2.323,34.543,10.478,45.083" transform="translate(3.431 12.779)" fill="#21215b"/>
        <path id="Trazado_243123" data-name="Trazado 243123" d="M152.953,73.2l7.668,19.107s3.31,16.523,14.161,20.719l3.547,15.324,24.61,5.727-5.527-16.043s8.081-27.226.95-40.575l2.373-2.91L168.875,59.817l1.049,28.312-2.9-1.649S163.706,69.958,152.953,73.2" transform="translate(24.166 9.451)" fill="#f29e79"/>
        <path id="Trazado_243124" data-name="Trazado 243124" d="M214.639,117.69a4.018,4.018,0,0,0,3.212-5.788,3.183,3.183,0,0,0,3.376-1.908,3.132,3.132,0,0,0-.639-3.23,3.282,3.282,0,0,0,2.813-5.28,4.609,4.609,0,0,0,3.288-2.763,4.244,4.244,0,0,0-.178-3.073,4.828,4.828,0,0,0,3.076-2.7,4.585,4.585,0,0,0,.052-3.174L191.175,69.288c-2.85-1.478-5.846,1.312-8.573.139a5.415,5.415,0,0,1-2.491-3.543c-.541-1.207-2.358-2.467-4.556-3.611l-.112-.059a61.063,61.063,0,0,0-6.749-2.888c-5.47-4-11.315-1.172-15.511,2.175L150.2,59.679l-.5-.309-2.725-1.662a8.8,8.8,0,0,0-4.5,3.835c-.814,1.492-1.7,4.278-.573,5.438a20.337,20.337,0,0,0,2.645,1.327c1.694.8,2.684,1.151,3.252,1.413,1.481.666.137.765,1.054,6.714l0,.006a10.391,10.391,0,0,0,6.685,7.755,59.709,59.709,0,0,0,6.284,4.055l.069.037c2.207,1.2,4.283,2,5.571,1.73,5.944-1.906,5.239,2.674,7.6,5.953,0,.006,0,.006.006,0,.571.447,1.32.968,2.212,1.553,1.611,1.034,3.7,2.266,6.06,3.594,11.808,6.63,30.525,15.742,31.3,16.567" transform="translate(22.336 9.063)" fill="#fff"/>
        <path id="Trazado_243125" data-name="Trazado 243125" d="M174.483,96.866A117.8,117.8,0,0,0,182.1,84.558a118.711,118.711,0,0,0,6.96-15.567l-.683-.365c-2.85-1.478-5.846,1.312-8.573.139a5.408,5.408,0,0,1-2.491-3.543c-.541-1.205-2.358-2.465-4.557-3.609l-.111-.059A79.406,79.406,0,0,1,159.09,87.626c2.207,1.2,4.283,2,5.571,1.73,5.944-1.906,5.238,2.675,7.6,5.954,0,.006,0,.006,0,0,.572.447,1.32.969,2.213,1.553" transform="translate(25.136 9.725)" fill="#3fd5fe"/>
        <path id="Trazado_243126" data-name="Trazado 243126" d="M194.736,74.487a12.558,12.558,0,0,1-2.768,4.839c-2.211,2.294-5.333,3.314-8.131,4.777a22.36,22.36,0,0,0-1.947,1.134c1.119-3.747,4.12-12.57,7.657-13.2.731.327,1.512.691,2.336,1.078.355.161.717.339,1.086.514q.865.41,1.767.862" transform="translate(28.738 11.381)" fill="#2160bb"/>
        <g id="Grupo_242738" data-name="Grupo 242738" transform="translate(201.885 85.868)" style="mix-blend-mode: multiply;isolation: isolate">
          <g id="Grupo_242737" data-name="Grupo 242737">
            <g id="Grupo_242736" data-name="Grupo 242736" clip-path="url(#clip-path-8)">
              <path id="Trazado_243127" data-name="Trazado 243127" d="M220.528,86.839a3.6,3.6,0,0,1-2.549,5.194,2.781,2.781,0,0,1,.252,3.336c0,.006-.008.016-.016.019a2.7,2.7,0,0,1-2.548,1.172,2.958,2.958,0,0,1,.135,3.276,2.911,2.911,0,0,1-2.512,1.379,4.112,4.112,0,0,1-.387,3.717,3.752,3.752,0,0,1-2.243,1.435,4.274,4.274,0,0,1-.445,3.526,4.072,4.072,0,0,1-2.2,1.648L175.536,94.955a3.241,3.241,0,0,1-1.2-1.1,27.87,27.87,0,0,1,10.689-10.092c2.8-1.463,5.921-2.483,8.131-4.777a12.558,12.558,0,0,0,2.768-4.839c10.115,4.99,23.71,12.57,24.6,12.687" transform="translate(-174.34 -74.152)" fill="#3fd5fe"/>
            </g>
          </g>
        </g>
        <g id="Grupo_242741" data-name="Grupo 242741" transform="translate(217.867 101.193)" style="mix-blend-mode: screen;isolation: isolate">
          <g id="Grupo_242740" data-name="Grupo 242740">
            <g id="Grupo_242739" data-name="Grupo 242739" clip-path="url(#clip-path-9)">
              <path id="Trazado_243128" data-name="Trazado 243128" d="M193.521,87.768a3.788,3.788,0,1,1-4.949,1.722,3.707,3.707,0,0,1,4.949-1.722" transform="translate(-188.141 -87.386)" fill="#3fd5fe"/>
            </g>
          </g>
        </g>
        <g id="Grupo_242744" data-name="Grupo 242744" transform="translate(228.693 112.842)" style="mix-blend-mode: screen;isolation: isolate">
          <g id="Grupo_242743" data-name="Grupo 242743">
            <g id="Grupo_242742" data-name="Grupo 242742" clip-path="url(#clip-path-10)">
              <path id="Trazado_243129" data-name="Trazado 243129" d="M202.1,97.774a3.248,3.248,0,1,1-4.245,1.476,3.181,3.181,0,0,1,4.245-1.476" transform="translate(-197.49 -97.446)" fill="#3fd5fe"/>
            </g>
          </g>
        </g>
        <g id="Grupo_242747" data-name="Grupo 242747" transform="translate(229.445 104.081)" style="mix-blend-mode: screen;isolation: isolate">
          <g id="Grupo_242746" data-name="Grupo 242746">
            <g id="Grupo_242745" data-name="Grupo 242745" clip-path="url(#clip-path-11)">
              <path id="Trazado_243130" data-name="Trazado 243130" d="M200.508,90.048a1.667,1.667,0,1,1-2.178.757,1.632,1.632,0,0,1,2.178-.757" transform="translate(-198.14 -89.88)" fill="#3fd5fe"/>
            </g>
          </g>
        </g>
        <g id="Grupo_242750" data-name="Grupo 242750" transform="translate(221.505 92.209)" style="mix-blend-mode: screen;isolation: isolate">
          <g id="Grupo_242749" data-name="Grupo 242749">
            <g id="Grupo_242748" data-name="Grupo 242748" clip-path="url(#clip-path-11)">
              <path id="Trazado_243131" data-name="Trazado 243131" d="M193.65,79.8a1.667,1.667,0,1,1-2.178.757,1.632,1.632,0,0,1,2.178-.757" transform="translate(-191.283 -79.628)" fill="#3fd5fe"/>
            </g>
          </g>
        </g>
        <g id="Grupo_242753" data-name="Grupo 242753" transform="translate(210.086 104.019)" style="mix-blend-mode: screen;isolation: isolate">
          <g id="Grupo_242752" data-name="Grupo 242752">
            <g id="Grupo_242751" data-name="Grupo 242751" clip-path="url(#clip-path-13)">
              <path id="Trazado_243132" data-name="Trazado 243132" d="M182.918,89.933a1.053,1.053,0,1,1-1.376.478,1.031,1.031,0,0,1,1.376-.478" transform="translate(-181.422 -89.827)" fill="#3fd5fe"/>
            </g>
          </g>
        </g>
        <g id="Grupo_242756" data-name="Grupo 242756" transform="translate(237.777 97.966)" style="mix-blend-mode: screen;isolation: isolate">
          <g id="Grupo_242755" data-name="Grupo 242755">
            <g id="Grupo_242754" data-name="Grupo 242754" clip-path="url(#clip-path-11)">
              <path id="Trazado_243133" data-name="Trazado 243133" d="M207.7,84.768a1.667,1.667,0,1,1-2.178.757,1.632,1.632,0,0,1,2.178-.757" transform="translate(-205.335 -84.6)" fill="#3fd5fe"/>
            </g>
          </g>
        </g>
        <g id="Grupo_242759" data-name="Grupo 242759" transform="translate(194.497 85.002)" style="mix-blend-mode: screen;isolation: isolate">
          <g id="Grupo_242758" data-name="Grupo 242758">
            <g id="Grupo_242757" data-name="Grupo 242757" clip-path="url(#clip-path-15)">
              <path id="Trazado_243134" data-name="Trazado 243134" d="M174.112,82.34a4.645,4.645,0,0,0,5.4-2.648,4.244,4.244,0,0,0,.306-1.417,4.716,4.716,0,0,0-1.581-3.684,5.407,5.407,0,0,0-1.881-1c-1.542-.452-2.638.035-5.227.284-.557.054-1.4.117-2.445.123a2.834,2.834,0,0,1-.5-.029.2.2,0,0,0-.2.076.206.206,0,0,0,.01.236l.013.015a2.116,2.116,0,0,1,.243.358c.609,1.068,1.076,1.943,1.381,2.531,1.369,2.624,1.823,3.868,3.2,4.661a4.691,4.691,0,0,0,1.269.5" transform="translate(-167.96 -73.404)" fill="#3fd5fe"/>
            </g>
          </g>
        </g>
        <path id="Trazado_243135" data-name="Trazado 243135" d="M174,81.82a4.223,4.223,0,0,0,4.912-2.407,3.891,3.891,0,0,0,.278-1.289,4.284,4.284,0,0,0-1.438-3.349,4.909,4.909,0,0,0-1.709-.91c-1.4-.41-2.4.031-4.751.258-.506.049-1.269.107-2.222.111a2.545,2.545,0,0,1-.45-.027.175.175,0,0,0-.173.285l.012.014a1.931,1.931,0,0,1,.221.324c.554.972.977,1.767,1.255,2.3,1.245,2.385,1.657,3.516,2.911,4.237a4.231,4.231,0,0,0,1.155.45" transform="translate(26.607 11.644)" fill="#0090c3"/>
        <g id="Grupo_242762" data-name="Grupo 242762" transform="translate(195.012 85.968)" style="mix-blend-mode: multiply;isolation: isolate">
          <g id="Grupo_242761" data-name="Grupo 242761">
            <g id="Grupo_242760" data-name="Grupo 242760" clip-path="url(#clip-path-16)">
              <path id="Trazado_243136" data-name="Trazado 243136" d="M174,81.736a4.222,4.222,0,0,0,4.912-2.409,3.848,3.848,0,0,0,.277-1.288,4.278,4.278,0,0,0-1.275-3.2,3.563,3.563,0,0,1-1.038,3.03c-1.011.783-2.321.456-3.29.214a9.251,9.251,0,0,1-5.173-3.848.192.192,0,0,0,.032.167.04.04,0,0,0,.01.014,1.991,1.991,0,0,1,.221.325c.555.97.979,1.767,1.256,2.3,1.245,2.385,1.656,3.516,2.911,4.237a4.231,4.231,0,0,0,1.155.45" transform="translate(-168.405 -74.239)" fill="#3fd5fe"/>
            </g>
          </g>
        </g>
        <g id="Grupo_242765" data-name="Grupo 242765" transform="translate(198.294 85.717)" style="mix-blend-mode: screen;isolation: isolate">
          <g id="Grupo_242764" data-name="Grupo 242764">
            <g id="Grupo_242763" data-name="Grupo 242763" clip-path="url(#clip-path-17)">
              <path id="Trazado_243137" data-name="Trazado 243137" d="M174.026,74.872l.051.02a1.318,1.318,0,0,0,.616.153.381.381,0,0,0,.211-.668.9.9,0,0,0-.45-.23,3.809,3.809,0,0,0-1.641-.063c-.337.059-1.5.153-1.569.551-.087.529.928.107,1.166.075a3.422,3.422,0,0,1,1.617.162" transform="translate(-171.239 -74.022)" fill="#3fd5fe"/>
            </g>
          </g>
        </g>
        <g id="Grupo_242768" data-name="Grupo 242768" transform="translate(197.485 86.116)" style="mix-blend-mode: screen;isolation: isolate">
          <g id="Grupo_242767" data-name="Grupo 242767">
            <g id="Grupo_242766" data-name="Grupo 242766" clip-path="url(#clip-path-18)">
              <path id="Trazado_243138" data-name="Trazado 243138" d="M170.635,74.7a.179.179,0,1,0-.074-.242.179.179,0,0,0,.074.242" transform="translate(-170.54 -74.366)" fill="#3fd5fe"/>
            </g>
          </g>
        </g>
        <path id="Trazado_243139" data-name="Trazado 243139" d="M155.806,222.38c4.333-23.065-9.639-45.026-10.812-46.819l-3.752-21.883-1.231.212,3.872,22.258c.152.223,15.1,22.568,10.7,46Z" transform="translate(22.121 24.28)" fill="#005195"/>
        <path id="Trazado_243140" data-name="Trazado 243140" d="M197.985,71.91c-.353-2.714-2.057-4.337-3.406-4.2a2.749,2.749,0,0,0-1.816,1.4c-.475-3.865-3.131-6.381-5.564-6.284a4.944,4.944,0,0,0-3.367,1.928c-.474-3.8-3.209-6.144-5.489-5.9a4.847,4.847,0,0,0-3.224,2.416c-.8-4.312-3.05-6.817-4.723-6.617a2.045,2.045,0,0,0-1.144.6,3.854,3.854,0,0,0-1.029,3.556l2.105,10.525a2.808,2.808,0,0,0,5.009,1.307V63.448q1.277,4,2.552,8.009c.3,2.68,1.657,4.718,3.406,5.109a2.856,2.856,0,0,0,2.157-.34,3.634,3.634,0,0,0,1.034-4.065l-.872-5.009q1.516,4.325,3.034,8.651c.831,2.511,3.374,3.462,4.865,2.693a3.542,3.542,0,0,0,1.468-3.721q-.109-1.416-.218-2.832l1.524,3.921c.291,1.911,1.805,2.9,2.79,2.632a2.314,2.314,0,0,0,1.349-1.978l-.441-4.608" transform="translate(26.565 8.633)" fill="#f29e79"/>
        <path id="Trazado_243141" data-name="Trazado 243141" d="M152.953,71.436l7.668,19.107s3.31,16.523,14.161,20.719l3.547,15.324c8.754-1.723,7.306-12.426,7.306-12.426,1.786-8.13-2.135-15.074-6.507-19.994a37.359,37.359,0,0,0-9.2-7.8l-2.9-1.649s-3.321-16.522-14.074-13.275" transform="translate(24.166 11.22)" fill="#f29e79"/>
        <g id="Grupo_242771" data-name="Grupo 242771" transform="translate(190.941 95.288)" style="mix-blend-mode: multiply;isolation: isolate">
          <g id="Grupo_242770" data-name="Grupo 242770">
            <g id="Grupo_242769" data-name="Grupo 242769" clip-path="url(#clip-path-19)">
              <path id="Trazado_243142" data-name="Trazado 243142" d="M181.22,103.491a17.844,17.844,0,0,0-.677-6.277C178.5,90.3,172.7,86.673,170.31,85.438l-4.728-3.151-.692,1.04,4.788,3.186c2.311,1.2,7.759,4.6,9.668,11.055a16.629,16.629,0,0,1,.629,5.84Z" transform="translate(-164.889 -82.287)" fill="#f29e79"/>
            </g>
          </g>
        </g>
        <path id="Trazado_243143" data-name="Trazado 243143" d="M183.047,200.881l1.243-.119c-.28-2.936-.255-6.477-.23-9.9.014-1.842.027-3.718-.007-5.524a27.67,27.67,0,0,0,12.919,13.638l.555-1.12a26.367,26.367,0,0,1-13.718-17.107l-1.227.208c.28,2.934.255,6.473.23,9.9-.024,3.455-.051,7.028.236,10.028" transform="translate(28.847 28.557)" fill="#005195"/>
        <path id="Trazado_243144" data-name="Trazado 243144" d="M72.024,140.011a12.469,12.469,0,0,0,2.464-.244,13.153,13.153,0,0,0,9.031-6.992c2.4-4.934,1.34-10.722.331-14.646A64.773,64.773,0,0,0,74.4,97.4l-1.026.71a63.545,63.545,0,0,1,9.27,20.33c1.526,5.934,1.449,10.315-.243,13.791A11.644,11.644,0,0,1,64.27,135.9l-.822.941a13.181,13.181,0,0,0,8.576,3.168" transform="translate(10.025 15.389)" fill="#21215b"/>
        <path id="Trazado_243145" data-name="Trazado 243145" d="M70.9,133.071a10.8,10.8,0,0,0,8.867-5.168,16.8,16.8,0,0,0,1.882-11.668,48.875,48.875,0,0,0-3.739-11.141l-1.149.493a47.829,47.829,0,0,1,3.656,10.85,15.576,15.576,0,0,1-1.706,10.8c-2.071,3.292-5.856,5.123-9.211,4.448l-.247,1.224a8.357,8.357,0,0,0,1.647.161" transform="translate(10.941 16.604)" fill="#21215b"/>
      </g>
    </g>
  </g>
</svg>
