<svg xmlns="http://www.w3.org/2000/svg" width="715" height="402.589" viewBox="0 0 715 402.589">
  <g id="Grupo_243984" data-name="Grupo 243984" transform="translate(3116 10132.996)">
    <path id="Trazado_243430" data-name="Trazado 243430" d="M470,432V68q0-.935.091-1.863t.274-1.844q.182-.915.453-1.809t.628-1.755q.357-.863.8-1.686t.959-1.6q.519-.776,1.111-1.5t1.252-1.381q.66-.66,1.381-1.252t1.5-1.111q.777-.519,1.6-.959t1.686-.8q.862-.357,1.756-.628t1.808-.453q.916-.181,1.845-.274T489,49h677q.933,0,1.862.091t1.845.274q.915.182,1.808.453t1.756.628q.862.357,1.685.8t1.6.959q.775.517,1.5,1.111t1.382,1.252q.66.66,1.252,1.381t1.111,1.5q.519.775.958,1.6t.8,1.686q.357.862.628,1.755t.453,1.809q.181.915.274,1.844T1185,68V432q0,.933-.091,1.862t-.274,1.845q-.183.915-.453,1.808t-.628,1.756q-.359.863-.8,1.685t-.958,1.6q-.519.775-1.111,1.5t-1.252,1.382q-.66.66-1.382,1.252t-1.5,1.111q-.777.519-1.6.958t-1.685.8q-.862.357-1.756.628t-1.808.453q-.917.182-1.845.273T1166,451H489q-.933,0-1.862-.092t-1.845-.273q-.915-.183-1.808-.453t-1.756-.628q-.863-.359-1.686-.8t-1.6-.958q-.775-.519-1.5-1.111t-1.381-1.252q-.66-.66-1.252-1.382t-1.111-1.5q-.519-.777-.959-1.6t-.8-1.686q-.357-.862-.628-1.756t-.453-1.808q-.182-.916-.274-1.845T470,432" transform="translate(-3586 -10182)" fill="#fff"/>
    <path id="Trazado_243439" data-name="Trazado 243439" d="M729.321,449.666A107.2,107.2,0,0,0,710.008,409l-41.383-53.888a27.177,27.177,0,0,1-5.489-19.269l8.707-91.683a19.278,19.278,0,0,1,19.563,19.249l.088,59.92a27.19,27.19,0,0,0,7.152,18.337l27.808,30.316a10.2,10.2,0,0,0,12.929,1.756h0a10.207,10.207,0,0,0,3.716-13.224l-19.4-38.742a10.374,10.374,0,0,1,17.077-11.485l24.763,28.242a121.183,121.183,0,0,1,30.064,79.89v31.248" transform="translate(-3586 -10182)" fill="none" stroke="#04294f" stroke-linecap="round" stroke-miterlimit="10" stroke-width="3.204"/>
    <path id="Trazado_243440" data-name="Trazado 243440" d="M691.4,258.751h0a15.731,15.731,0,0,1,19.972,14.765l1.407,57.871" transform="translate(-3586 -10182)" fill="none" stroke="#04294f" stroke-linecap="round" stroke-miterlimit="10" stroke-width="3.204"/>
    <path id="Trazado_243441" data-name="Trazado 243441" d="M711.41,275.078h0a14.892,14.892,0,0,1,16.458,13.666l1.434,18.69" transform="translate(-3586 -10182)" fill="none" stroke="#04294f" stroke-linecap="round" stroke-miterlimit="10" stroke-width="3.204"/>
    <path id="Trazado_243442" data-name="Trazado 243442" d="M930.016,449.666A107.2,107.2,0,0,1,949.329,409l41.383-53.888a27.177,27.177,0,0,0,5.489-19.269l-8.707-91.683a19.279,19.279,0,0,0-19.563,19.249l-.088,59.92a27.19,27.19,0,0,1-7.152,18.337l-27.808,30.316a10.205,10.205,0,0,1-16.646-11.468l19.4-38.742a10.374,10.374,0,0,0-17.077-11.485L893.8,338.528a121.183,121.183,0,0,0-30.064,79.89v31.248" transform="translate(-3586 -10182)" fill="none" stroke="#04294f" stroke-linecap="round" stroke-miterlimit="10" stroke-width="3.204"/>
    <path id="Trazado_243443" data-name="Trazado 243443" d="M967.938,258.751h0a15.731,15.731,0,0,0-19.972,14.765l-1.408,57.871" transform="translate(-3586 -10182)" fill="none" stroke="#04294f" stroke-linecap="round" stroke-miterlimit="10" stroke-width="3.204"/>
    <path id="Trazado_243444" data-name="Trazado 243444" d="M947.928,275.078h0a14.892,14.892,0,0,0-16.458,13.666l-1.434,18.69" transform="translate(-3586 -10182)" fill="none" stroke="#04294f" stroke-linecap="round" stroke-miterlimit="10" stroke-width="3.204"/>
    <line id="Línea_449" data-name="Línea 449" y2="28.099" transform="translate(-2905.5 -10014.247)" fill="none" stroke="#04294f" stroke-linecap="round" stroke-miterlimit="10" stroke-width="3.204"/>
    <line id="Línea_450" data-name="Línea 450" x1="28.099" transform="translate(-2919.55 -10000.197)" fill="none" stroke="#04294f" stroke-linecap="round" stroke-miterlimit="10" stroke-width="3.204"/>
    <line id="Línea_451" data-name="Línea 451" y2="28.099" transform="translate(-2756.318 -10127.938)" fill="none" stroke="#04294f" stroke-linecap="round" stroke-miterlimit="10" stroke-width="3.204"/>
    <line id="Línea_452" data-name="Línea 452" x1="28.099" transform="translate(-2770.368 -10113.888)" fill="none" stroke="#04294f" stroke-linecap="round" stroke-miterlimit="10" stroke-width="3.204"/>
    <line id="Línea_453" data-name="Línea 453" y2="28.099" transform="translate(-2599.392 -9995.001)" fill="none" stroke="#04294f" stroke-linecap="round" stroke-miterlimit="10" stroke-width="3.204"/>
    <line id="Línea_454" data-name="Línea 454" x1="28.099" transform="translate(-2613.441 -9980.951)" fill="none" stroke="#04294f" stroke-linecap="round" stroke-miterlimit="10" stroke-width="3.204"/>
    <line id="Línea_455" data-name="Línea 455" y2="16.406" transform="translate(-2620.549 -10035.894)" fill="none" stroke="#04294f" stroke-linecap="round" stroke-miterlimit="10" stroke-width="3.204"/>
    <line id="Línea_456" data-name="Línea 456" x1="16.406" transform="translate(-2628.752 -10027.691)" fill="none" stroke="#04294f" stroke-linecap="round" stroke-miterlimit="10" stroke-width="3.204"/>
    <line id="Línea_457" data-name="Línea 457" y2="16.406" transform="translate(-2777.475 -10086.294)" fill="none" stroke="#04294f" stroke-linecap="round" stroke-miterlimit="10" stroke-width="3.204"/>
    <line id="Línea_458" data-name="Línea 458" x1="16.406" transform="translate(-2785.679 -10078.092)" fill="none" stroke="#04294f" stroke-linecap="round" stroke-miterlimit="10" stroke-width="3.204"/>
    <line id="Línea_459" data-name="Línea 459" y2="16.406" transform="translate(-2909.131 -10068.762)" fill="none" stroke="#04294f" stroke-linecap="round" stroke-miterlimit="10" stroke-width="3.204"/>
    <line id="Línea_460" data-name="Línea 460" x1="16.406" transform="translate(-2917.334 -10060.56)" fill="none" stroke="#04294f" stroke-linecap="round" stroke-miterlimit="10" stroke-width="3.204"/>
    <path id="Trazado_243445" data-name="Trazado 243445" d="M880.439,186.471c-39.285-48.746-40.845-57.6-40.845-57.6s-1.559,8.857-40.844,57.6c0,0-41.921,41.92-20.381,88.239l.01,0a66.082,66.082,0,0,0,122.431,0l.01,0c21.539-46.319-20.381-88.239-20.381-88.239" transform="translate(-3586 -10182)" fill="#baeaff"/>
    <path id="Trazado_243446" data-name="Trazado 243446" d="M867.735,190.106c-39.059-48.465-40.61-57.271-40.61-57.271s-1.55,8.806-40.609,57.271c0,0-41.68,41.68-20.264,87.733l.01,0a65.7,65.7,0,0,0,121.727,0l.01,0C909.414,231.786,867.735,190.106,867.735,190.106Z" transform="translate(-3586 -10182)" fill="none" stroke="#04294f" stroke-linecap="round" stroke-miterlimit="10" stroke-width="3.204"/>
    <path id="Trazado_243447" data-name="Trazado 243447" d="M827.126,294.489a46.7,46.7,0,0,1-46.7-46.7" transform="translate(-3586 -10182)" fill="none" stroke="#04294f" stroke-linecap="round" stroke-miterlimit="10" stroke-width="3.204"/>
  </g>
</svg>
