<svg id="Grupo_243369" data-name="Grupo 243369" xmlns="http://www.w3.org/2000/svg" xmlns:xlink="http://www.w3.org/1999/xlink" width="417.259" height="376.274" viewBox="0 0 417.259 376.274">
  <defs>
    <clipPath id="clip-path">
      <rect id="Rectángulo_316430" data-name="Rectángulo 316430" width="417.259" height="376.274" fill="none"/>
    </clipPath>
    <clipPath id="clip-path-2">
      <rect id="Rectángulo_316425" data-name="Rectángulo 316425" width="502.259" height="376.274" fill="none"/>
    </clipPath>
    <clipPath id="clip-path-3">
      <rect id="Rectángulo_316405" data-name="Rectángulo 316405" width="390.273" height="42.791" fill="none"/>
    </clipPath>
    <clipPath id="clip-path-4">
      <path id="Trazado_243687" data-name="Trazado 243687" d="M397.259,354.878c0,11.817-87.365,21.4-195.136,21.4S6.986,366.7,6.986,354.878s87.366-21.395,195.137-21.395,195.136,9.579,195.136,21.395" transform="translate(-6.986 -333.483)" fill="none"/>
    </clipPath>
    <radialGradient id="radial-gradient" cx="0.5" cy="0.5" r="5.61" gradientTransform="matrix(0.086, 0, 0, -0.081, -0.013, 1.081)" gradientUnits="objectBoundingBox">
      <stop offset="0" stop-color="#c8c8c8"/>
      <stop offset="1" stop-color="#fff"/>
    </radialGradient>
    <clipPath id="clip-path-5">
      <rect id="Rectángulo_316406" data-name="Rectángulo 316406" width="297.255" height="273.546" transform="translate(10.779 70.637)" fill="none"/>
    </clipPath>
    <clipPath id="clip-path-6">
      <rect id="Rectángulo_316407" data-name="Rectángulo 316407" width="170.698" height="175.828" transform="translate(10.777 168.355)" fill="none"/>
    </clipPath>
    <clipPath id="clip-path-7">
      <rect id="Rectángulo_316408" data-name="Rectángulo 316408" width="41.027" height="41.027" transform="translate(190.33 96.058)" fill="none"/>
    </clipPath>
    <clipPath id="clip-path-8">
      <rect id="Rectángulo_316409" data-name="Rectángulo 316409" width="41.026" height="41.026" transform="translate(99.823 256.497)" fill="none"/>
    </clipPath>
    <clipPath id="clip-path-9">
      <rect id="Rectángulo_316410" data-name="Rectángulo 316410" width="22.091" height="22.091" transform="translate(183.262 171.871)" fill="none"/>
    </clipPath>
    <clipPath id="clip-path-10">
      <rect id="Rectángulo_316411" data-name="Rectángulo 316411" width="14.727" height="14.727" transform="translate(33.177 245.747)" fill="none"/>
    </clipPath>
    <clipPath id="clip-path-11">
      <rect id="Rectángulo_316412" data-name="Rectángulo 316412" width="22.091" height="22.092" transform="translate(253.119 176.056)" fill="none"/>
    </clipPath>
    <clipPath id="clip-path-12">
      <rect id="Rectángulo_316413" data-name="Rectángulo 316413" width="22.091" height="22.091" transform="translate(96.27 181.628)" fill="none"/>
    </clipPath>
    <clipPath id="clip-path-13">
      <rect id="Rectángulo_316414" data-name="Rectángulo 316414" width="70.476" height="73.875" transform="translate(140.147 81.797)" fill="none"/>
    </clipPath>
    <clipPath id="clip-path-14">
      <rect id="Rectángulo_316415" data-name="Rectángulo 316415" width="38.967" height="38.704" transform="translate(155.208 92.546)" fill="none"/>
    </clipPath>
    <clipPath id="clip-path-15">
      <rect id="Rectángulo_316416" data-name="Rectángulo 316416" width="33" height="121.217" transform="translate(220.203 94.081)" fill="none"/>
    </clipPath>
    <clipPath id="clip-path-16">
      <rect id="Rectángulo_316417" data-name="Rectángulo 316417" width="36.571" height="69.217" transform="translate(245.762 127.584)" fill="none"/>
    </clipPath>
    <clipPath id="clip-path-17">
      <rect id="Rectángulo_316418" data-name="Rectángulo 316418" width="175.998" height="118.744" transform="translate(63.249 163.799)" fill="none"/>
    </clipPath>
    <clipPath id="clip-path-18">
      <rect id="Rectángulo_316419" data-name="Rectángulo 316419" width="94.774" height="62.474" transform="translate(114.627 191.42)" fill="none"/>
    </clipPath>
    <clipPath id="clip-path-19">
      <rect id="Rectángulo_316420" data-name="Rectángulo 316420" width="76.952" height="118.051" transform="translate(48.085 205.575)" fill="none"/>
    </clipPath>
    <clipPath id="clip-path-20">
      <rect id="Rectángulo_316421" data-name="Rectángulo 316421" width="69.095" height="121.731" transform="translate(27.173 222.452)" fill="none"/>
    </clipPath>
    <clipPath id="clip-path-21">
      <rect id="Rectángulo_316422" data-name="Rectángulo 316422" width="43.181" height="50.24" transform="translate(11.873 251.456)" fill="none"/>
    </clipPath>
    <clipPath id="clip-path-22">
      <rect id="Rectángulo_316424" data-name="Rectángulo 316424" width="62.712" height="64.217" transform="translate(339.291 2.507)" fill="none"/>
    </clipPath>
    <clipPath id="clip-path-24">
      <rect id="Rectángulo_316426" data-name="Rectángulo 316426" width="93.351" height="99.254" transform="translate(176.9 104.306)" fill="none"/>
    </clipPath>
    <clipPath id="clip-path-26">
      <rect id="Rectángulo_316428" data-name="Rectángulo 316428" width="93.352" height="99.254" transform="translate(45.555 211.18)" fill="none"/>
    </clipPath>
  </defs>
  <g id="Grupo_243368" data-name="Grupo 243368" clip-path="url(#clip-path)">
    <g id="Grupo_243357" data-name="Grupo 243357">
      <g id="Grupo_243356" data-name="Grupo 243356" clip-path="url(#clip-path-2)">
        <g id="Grupo_243301" data-name="Grupo 243301" style="mix-blend-mode: multiply;isolation: isolate">
          <g id="Grupo_243300" data-name="Grupo 243300" transform="translate(6.986 333.483)">
            <g id="Grupo_243299" data-name="Grupo 243299" clip-path="url(#clip-path-3)">
              <g id="Grupo_243298" data-name="Grupo 243298" transform="translate(0 0)">
                <g id="Grupo_243297" data-name="Grupo 243297" clip-path="url(#clip-path-4)">
                  <rect id="Rectángulo_316404" data-name="Rectángulo 316404" width="390.273" height="42.791" transform="translate(0)" fill="url(#radial-gradient)"/>
                </g>
              </g>
            </g>
          </g>
        </g>
        <path id="Trazado_243688" data-name="Trazado 243688" d="M171.955,295.672l-11.322,8.98Q145,317.41,129.392,330.189a15.091,15.091,0,0,1-3.986,2.4q-11.365,9.015-22.744,18.029l-.106.085a19.3,19.3,0,0,1-22.771.873C39.461,324.487,15.213,283.41,1.588,252.1a19.238,19.238,0,0,1,5.535-22.579l66.433-54.055,1.974-1.646c3.737-3.092,7.52-6.144,11.313-9.166l26.9-21.888.292.755c5.193-2.871,10.59-2.2,16.125.519a6.4,6.4,0,0,0,.6.3,6.547,6.547,0,0,0,.914.094,16.384,16.384,0,0,1-.476-11.692c.77-2.239,1.836-4.731,3.539-6.219,5.9-5.145,12.028-10.045,18.277-14.756,5.154-3.885,10.851-4.885,16.856-1.687a15.153,15.153,0,0,0,2.282.7c-.242-1.66-.322-2.962-.627-4.209a12.22,12.22,0,0,1,2.909-11.365,91.709,91.709,0,0,1,20.408-17.651c4.852-3.084,10.119-2.806,15.413-1.2.764.242,1.515.547,2.68.965a16.645,16.645,0,0,0-.3-2.562c-1.476-5.077-.154-9.5,3.15-13.431,5.2-6.162,11.528-11.056,18.1-15.6a78.531,78.531,0,0,1,53.091-14.179c10.841.964,20.9,4.613,30.535,9.5a2.988,2.988,0,0,0,3.9-.508c1.864-1.671,3.88-3.17,5.987-4.859-1.546-2.106-3.025-4.113-4.592-6.229,1.939-1.578,3.823-3.1,5.529-4.486,14.261,17.558,28.459,35.038,42.791,52.668-1.608,1.4-3.427,2.982-5.354,4.653-1.764-1.994-3.377-3.8-5.168-5.812-2.42,1.969-4.853,3.859-7.126,5.914-.414.363-.373,1.49-.211,2.2.851,3.9,2.019,7.742,2.661,11.668a37.933,37.933,0,0,1,.638,9.911c-.9,8.736-1.3,17.687-3.6,26.08-4.214,15.355-13.849,27.487-25.942,37.611a159.578,159.578,0,0,1-14.051,10.427,12.9,12.9,0,0,1-13.9.6,21.827,21.827,0,0,0-2.547-.944c.114,1.17.184,1.938.261,2.714.611,6.3-.549,12.127-5.625,16.283q-9.245,7.579-19.061,14.426a12.448,12.448,0,0,1-13.478.911,11.765,11.765,0,0,0-2.079-.732,6.854,6.854,0,0,0-1.231-.055,25.749,25.749,0,0,0,.4,3,13.449,13.449,0,0,1-2.984,12.652,82.608,82.608,0,0,1-21.056,17.52c-5.391,3.135-10.877,2.778-16.3-.11-.363-.194-.754-.341-1.548-.7.275,1.052.506,1.716.627,2.4,1.046,6.15.85,11.866-4.6,16.3q-19.008,15.447-37.985,30.921Z" fill="#3fd5fe"/>
        <path id="Trazado_243689" data-name="Trazado 243689" d="M171.176,286.338c-3.668,2.907-7.337,5.829-11,8.729q-15.187,12.4-30.363,24.81a15.614,15.614,0,0,1-3.841,2.377q-11.042,8.772-22.082,17.543a.567.567,0,0,1-.107.074C97.4,344.965,88.7,345.6,82.28,341.486,45.2,317.745,23.772,280.451,12.023,251.863c-2.975-7.222-.487-15.874,6.013-21.163l64.55-52.524,1.921-1.6q5.451-4.494,10.994-8.907l26.14-21.27.242.693c5-2.848,10.064-2.413,15.192-.088.183.083.364.194.549.262a7.592,7.592,0,0,0,.861.06A16.477,16.477,0,0,1,142,130.577c5.743-4.983,11.692-9.745,17.751-14.341,5-3.786,10.414-4.915,15.959-2.156a12.7,12.7,0,0,0,2.132.56c-.17-1.524-.2-2.736-.44-3.883-.878-3.979.422-7.563,3.142-10.653A95.877,95.877,0,0,1,200.417,83c4.676-3.032,9.637-2.956,14.578-1.652.705.2,1.4.457,2.5.8a16.2,16.2,0,0,0-.2-2.374,12.3,12.3,0,0,1,1.074-9.137,17.473,17.473,0,0,1,2.372-3.439c5.112-5.9,11.261-10.671,17.611-15.129,15.466-10.844,32.346-15.941,50.57-15.029,10.19.514,19.56,3.552,28.469,7.751a2.931,2.931,0,0,0,3.7-.614c1.816-1.619,3.771-3.082,5.816-4.72-1.382-1.905-2.711-3.712-4.113-5.626,1.885-1.533,3.714-3.009,5.374-4.36C341,45.277,353.776,61.012,366.675,76.881c-1.567,1.353-3.338,2.884-5.218,4.5-1.586-1.79-3.047-3.412-4.668-5.213-2.35,1.912-4.707,3.753-6.93,5.742-.4.35-.4,1.395-.274,2.04.669,3.595,1.635,7.127,2.1,10.744a34.572,34.572,0,0,1,.251,9.181c-1.15,8.142-1.849,16.472-4.307,24.351-4.515,14.4-14.024,26-25.788,35.835a168.654,168.654,0,0,1-13.613,10.174,1.573,1.573,0,0,1-.2.122,12.443,12.443,0,0,1-12.94.924,18.161,18.161,0,0,0-2.371-.791c.067,1.08.107,1.795.155,2.5.353,5.837-.946,11.29-5.881,15.318q-8.99,7.372-18.484,14.074c-3.969,2.791-8.411,3.4-12.738,1.314a11.1,11.1,0,0,0-1.936-.6,7.1,7.1,0,0,0-1.157-.012,22.737,22.737,0,0,0,.27,2.772,12.966,12.966,0,0,1-3.258,11.856,86.68,86.68,0,0,1-20.47,17,15.166,15.166,0,0,1-15.368.476c-.337-.177-.7-.293-1.438-.6.22.968.414,1.571.505,2.206.775,5.673.385,10.993-4.9,15.3q-18.474,15.014-36.908,30.044Z" fill="#feffff"/>
        <g id="Grupo_243304" data-name="Grupo 243304" style="mix-blend-mode: multiply;isolation: isolate">
          <g id="Grupo_243303" data-name="Grupo 243303">
            <g id="Grupo_243302" data-name="Grupo 243302" clip-path="url(#clip-path-5)">
              <path id="Trazado_243690" data-name="Trazado 243690" d="M213.856,239.2c-.337-.177-.7-.292-1.439-.6.221.968.415,1.571.506,2.206.775,5.674.385,10.994-4.9,15.3q-13.286,10.791-26.544,21.6l-4.972,4.045c-.311.267-.637.532-.963.8l-4.429,3.6.066.191c-3.668,2.908-7.338,5.829-11,8.73q-15.187,12.4-30.363,24.809a15.656,15.656,0,0,1-3.841,2.378c-.311.252-.627.5-.937.749-.27.207-.526.416-.8.622q-10.171,8.084-20.349,16.171a.623.623,0,0,1-.107.075,19.511,19.511,0,0,1-12.222,4.31c-.356.006-.7-.008-1.056-.03a17.185,17.185,0,0,1-8.227-2.665A164.135,164.135,0,0,1,40.014,301.7c-.219-.286-.437-.585-.649-.877a225.444,225.444,0,0,1-27.1-48.377l-.239-.579c-.057-.134-.107-.274-.15-.406-2.736-7.134-.214-15.568,6.162-20.756l64.551-52.524,1.92-1.6q5.022-4.145,10.135-8.221c.287-.234.573-.453.86-.687l26.14-21.269.241.693c5.006-2.848,10.065-2.414,15.193-.089.183.083.364.194.549.263a7.6,7.6,0,0,0,.861.06,14.946,14.946,0,0,1-.037-10.851,22.334,22.334,0,0,1,1.7-3.6c.18-.3.373-.587.572-.865A8.312,8.312,0,0,1,142,130.578q6.45-5.6,13.2-10.835c.263-.214.526-.415.8-.622,1.244-.974,2.494-1.926,3.751-2.884a20.145,20.145,0,0,1,3.626-2.229,13.484,13.484,0,0,1,12.333.073,12.868,12.868,0,0,0,2.132.56c-.171-1.525-.2-2.736-.44-3.884-.878-3.978.421-7.562,3.141-10.652a93.422,93.422,0,0,1,6.706-6.875l.745-.684A96.581,96.581,0,0,1,200.417,83c.441-.282.887-.541,1.33-.773a9.844,9.844,0,0,1,.9-.426c4.007-1.778,8.177-1.549,12.344-.452.7.2,1.4.457,2.5.8a16.2,16.2,0,0,0-.2-2.374,12.307,12.307,0,0,1,1.073-9.138A63.4,63.4,0,0,1,235.8,91.493c.438.855.855,1.715,1.255,2.588.239.515.484,1.038.707,1.565,4.573,10.422,7.15,21.875,12.115,31.938.193.411.393.816.6,1.2a50.213,50.213,0,0,0,5.761,8.9c8.426,10.277,21.012,15.984,32.39,22.854a157.318,157.318,0,0,1,19.407,13.822,12.444,12.444,0,0,1-12.939.924,17.912,17.912,0,0,0-2.371-.791c.066,1.08.107,1.795.155,2.5.353,5.836-.947,11.29-5.881,15.318-1.538,1.264-3.1,2.518-4.664,3.743-.31.253-.627.5-.944.742q-6.309,4.961-12.877,9.588c-3.969,2.791-8.41,3.4-12.738,1.315a10.9,10.9,0,0,0-1.935-.6,6.985,6.985,0,0,0-1.157-.012,22.526,22.526,0,0,0,.269,2.771,13.351,13.351,0,0,1,.252,4.334,9.639,9.639,0,0,1-.171,1.105,13.753,13.753,0,0,1-3.339,6.417c-.063.065-.12.137-.184.2a87.5,87.5,0,0,1-10.262,9.807c-.295.24-.59.479-.9.718a85.448,85.448,0,0,1-9.125,6.277,15.164,15.164,0,0,1-15.367.476" fill="#3fd5fe"/>
            </g>
          </g>
        </g>
        <path id="Trazado_243691" data-name="Trazado 243691" d="M187.193,93.156a93.611,93.611,0,0,0-6.706,6.874c-2.72,3.09-4.019,6.674-3.141,10.653.237,1.147.269,2.359.44,3.883a12.669,12.669,0,0,1-2.132-.56,13.487,13.487,0,0,0-12.333-.072h0a78.179,78.179,0,0,1,6.729,10.82c10.12,19.742,12.755,43.434,26.819,60.624,11.061,13.483,27.572,20.972,42.512,29.985q5.13,3.1,10.067,6.479h0c.064-.064.121-.137.184-.2a13.753,13.753,0,0,0,3.339-6.417,9.656,9.656,0,0,0,.171-1.106,13.346,13.346,0,0,0-.252-4.333,22.547,22.547,0,0,1-.269-2.772,7.067,7.067,0,0,1,1.157.013,10.9,10.9,0,0,1,1.935.6c4.328,2.086,8.769,1.476,12.738-1.315q6.552-4.615,12.877-9.588c.317-.245.634-.49.944-.742,1.569-1.225,3.126-2.48,4.664-3.743,4.934-4.028,6.234-9.482,5.881-15.319-.048-.708-.088-1.423-.155-2.5a18.079,18.079,0,0,1,2.371.79,12.439,12.439,0,0,0,12.939-.924,157.529,157.529,0,0,0-19.407-13.822c-11.378-6.869-23.964-12.576-32.39-22.853a50.186,50.186,0,0,1-5.761-8.9c-.209-.384-.409-.788-.6-1.2-4.966-10.063-7.543-21.517-12.116-31.938-.223-.528-.468-1.05-.707-1.565-.4-.873-.817-1.733-1.255-2.589A63.394,63.394,0,0,0,218.3,70.563a12.307,12.307,0,0,0-1.073,9.138,16.181,16.181,0,0,1,.2,2.373c-1.1-.347-1.794-.6-2.5-.8-4.167-1.1-8.337-1.325-12.344.453a9.842,9.842,0,0,0-.9.426c-.443.231-.889.491-1.33.773a96.413,96.413,0,0,0-12.418,9.55c-.252.23-.495.454-.746.684" fill="#3fd556"/>
        <g id="Grupo_243307" data-name="Grupo 243307" style="mix-blend-mode: multiply;isolation: isolate">
          <g id="Grupo_243306" data-name="Grupo 243306">
            <g id="Grupo_243305" data-name="Grupo 243305" clip-path="url(#clip-path-6)">
              <path id="Trazado_243692" data-name="Trazado 243692" d="M84.507,176.575c3.347-2.762,6.736-5.506,10.135-8.221a79.607,79.607,0,0,1,8.232,12.795c10.12,19.741,12.755,43.434,26.827,60.617,11.053,13.49,27.572,20.973,42.5,29.992q4.708,2.84,9.27,5.942-5.178,4.213-10.364,8.446l.065.192c-3.668,2.907-7.337,5.828-11,8.729q-15.189,12.4-30.364,24.809a15.589,15.589,0,0,1-3.841,2.378q-11.04,8.772-22.082,17.542a.541.541,0,0,1-.107.075C97.4,344.965,88.7,345.6,82.28,341.486,45.2,317.745,23.773,280.45,12.024,251.862c-2.976-7.222-.488-15.873,6.012-21.162l64.551-52.524,1.92-1.6" fill="#3fd5fe"/>
            </g>
          </g>
        </g>
        <path id="Trazado_243693" data-name="Trazado 243693" d="M129.7,241.771c11.054,13.49,27.572,20.973,42.5,29.992q4.71,2.84,9.27,5.942,13.268-10.813,26.544-21.6c5.29-4.3,5.68-9.624,4.9-15.3-.091-.634-.285-1.237-.506-2.205.737.3,1.1.418,1.439.6a15.164,15.164,0,0,0,15.367-.475,86.476,86.476,0,0,0,20.286-16.8q-4.941-3.387-10.068-6.479c-14.94-9.013-31.45-16.5-42.512-29.986-14.064-17.189-16.7-40.882-26.819-60.623a78.247,78.247,0,0,0-6.729-10.821,20.2,20.2,0,0,0-3.626,2.229c-6.059,4.6-12.008,9.358-17.751,14.341a16.477,16.477,0,0,0-3.519,16.748,7.6,7.6,0,0,1-.861-.06c-.185-.069-.366-.18-.549-.262-5.128-2.326-10.187-2.76-15.193.088l-.241-.693L95.5,167.673c-.287.233-.573.453-.86.686a79.682,79.682,0,0,1,8.233,12.8C113,200.9,115.632,224.588,129.7,241.771" fill="#777b82"/>
        <g id="Grupo_243310" data-name="Grupo 243310" style="mix-blend-mode: screen;isolation: isolate">
          <g id="Grupo_243309" data-name="Grupo 243309">
            <g id="Grupo_243308" data-name="Grupo 243308" clip-path="url(#clip-path-7)">
              <path id="Trazado_243694" data-name="Trazado 243694" d="M223.79,132.482a20.513,20.513,0,1,1,2.964-28.857,20.513,20.513,0,0,1-2.964,28.857" fill="#3fd5fe"/>
            </g>
          </g>
        </g>
        <g id="Grupo_243313" data-name="Grupo 243313" style="mix-blend-mode: screen;isolation: isolate">
          <g id="Grupo_243312" data-name="Grupo 243312">
            <g id="Grupo_243311" data-name="Grupo 243311" clip-path="url(#clip-path-8)">
              <path id="Trazado_243695" data-name="Trazado 243695" d="M133.283,292.921a20.513,20.513,0,1,1,2.964-28.857,20.513,20.513,0,0,1-2.964,28.857" fill="#3fd5fe"/>
            </g>
          </g>
        </g>
        <g id="Grupo_243316" data-name="Grupo 243316" style="mix-blend-mode: screen;isolation: isolate">
          <g id="Grupo_243315" data-name="Grupo 243315">
            <g id="Grupo_243314" data-name="Grupo 243314" clip-path="url(#clip-path-9)">
              <path id="Trazado_243696" data-name="Trazado 243696" d="M201.279,191.484a11.045,11.045,0,1,1,1.6-15.538,11.045,11.045,0,0,1-1.6,15.538" fill="#3fd5fe"/>
            </g>
          </g>
        </g>
        <g id="Grupo_243319" data-name="Grupo 243319" style="mix-blend-mode: screen;isolation: isolate">
          <g id="Grupo_243318" data-name="Grupo 243318">
            <g id="Grupo_243317" data-name="Grupo 243317" clip-path="url(#clip-path-10)">
              <path id="Trazado_243697" data-name="Trazado 243697" d="M45.188,258.822a7.363,7.363,0,1,1,1.064-10.359,7.364,7.364,0,0,1-1.064,10.359" fill="#3fd5fe"/>
            </g>
          </g>
        </g>
        <g id="Grupo_243322" data-name="Grupo 243322" style="mix-blend-mode: screen;isolation: isolate">
          <g id="Grupo_243321" data-name="Grupo 243321">
            <g id="Grupo_243320" data-name="Grupo 243320" clip-path="url(#clip-path-11)">
              <path id="Trazado_243698" data-name="Trazado 243698" d="M271.136,195.669a11.045,11.045,0,1,1,1.6-15.538,11.045,11.045,0,0,1-1.6,15.538" fill="#3fd5fe"/>
            </g>
          </g>
        </g>
        <g id="Grupo_243325" data-name="Grupo 243325" style="mix-blend-mode: screen;isolation: isolate">
          <g id="Grupo_243324" data-name="Grupo 243324">
            <g id="Grupo_243323" data-name="Grupo 243323" clip-path="url(#clip-path-12)">
              <path id="Trazado_243699" data-name="Trazado 243699" d="M114.287,201.241a11.045,11.045,0,1,1,1.6-15.538,11.045,11.045,0,0,1-1.6,15.538" fill="#3fd5fe"/>
            </g>
          </g>
        </g>
        <g id="Grupo_243328" data-name="Grupo 243328" style="mix-blend-mode: multiply;isolation: isolate">
          <g id="Grupo_243327" data-name="Grupo 243327">
            <g id="Grupo_243326" data-name="Grupo 243326" clip-path="url(#clip-path-13)">
              <path id="Trazado_243700" data-name="Trazado 243700" d="M204.89,135.012a56.346,56.346,0,0,0,2.4-43.867,50.089,50.089,0,0,0-4.641-9.348,9.97,9.97,0,0,0-.9.426,49.176,49.176,0,0,1,4.6,9.265A55.292,55.292,0,0,1,204,134.565c-5.53,11-17.038,21.444-30.279,19.97-7.977-.883-14.834-5.888-21.045-11.161a129.266,129.266,0,0,1-11.955-11.364c-.2.278-.392.564-.572.865a132.088,132.088,0,0,0,11.872,11.263c6.344,5.372,13.347,10.477,21.591,11.388,13.711,1.53,25.59-9.206,31.28-20.514" fill="#3fd5fe"/>
            </g>
          </g>
        </g>
        <g id="Grupo_243331" data-name="Grupo 243331" style="mix-blend-mode: multiply;isolation: isolate">
          <g id="Grupo_243330" data-name="Grupo 243330">
            <g id="Grupo_243329" data-name="Grupo 243329" clip-path="url(#clip-path-14)">
              <path id="Trazado_243701" data-name="Trazado 243701" d="M194.154,108.4c-.239-6.458-2.505-12.078-6.155-15.851l-.746.684a13.085,13.085,0,0,1,1.028,1.136,23.563,23.563,0,0,1,4.874,14.071c.354,9.767-4.109,17.924-11.36,20.769-4.926,1.932-11.144,1.151-16.626-2.085a37.406,37.406,0,0,1-9.165-8c-.27.207-.532.407-.8.622a38.753,38.753,0,0,0,9.453,8.243,23.265,23.265,0,0,0,8.95,3.109,17.4,17.4,0,0,0,8.551-.963c7.657-3,12.366-11.532,11.992-21.735" fill="#3fd5fe"/>
            </g>
          </g>
        </g>
        <g id="Grupo_243334" data-name="Grupo 243334" style="mix-blend-mode: multiply;isolation: isolate">
          <g id="Grupo_243333" data-name="Grupo 243333">
            <g id="Grupo_243332" data-name="Grupo 243332" clip-path="url(#clip-path-15)">
              <path id="Trazado_243702" data-name="Trazado 243702" d="M253.033,215.3a77.974,77.974,0,0,1-15.642-14.565,74.952,74.952,0,0,1-6.365-9.106,78.175,78.175,0,0,1-6.018-66.654c1.4-3.758,3.119-7.463,4.773-11.039,2.53-5.463,5.151-11.115,6.659-17.009.236-.914.441-1.867.612-2.844.239.515.484,1.038.707,1.565-.11.515-.234,1.028-.356,1.527-1.525,5.985-4.164,11.678-6.713,17.181-1.652,3.562-3.352,7.24-4.744,10.964a77.189,77.189,0,0,0,5.943,65.8A76.353,76.353,0,0,0,253.2,214.192a9.622,9.622,0,0,1-.17,1.106" fill="#3fd5fe"/>
            </g>
          </g>
        </g>
        <g id="Grupo_243337" data-name="Grupo 243337" style="mix-blend-mode: multiply;isolation: isolate">
          <g id="Grupo_243336" data-name="Grupo 243336">
            <g id="Grupo_243335" data-name="Grupo 243335" clip-path="url(#clip-path-16)">
              <path id="Trazado_243703" data-name="Trazado 243703" d="M252.851,172.644c-7.335-13.15-7.933-29.824-2.375-43.86-.209-.384-.41-.789-.6-1.2-6.008,14.481-5.535,31.874,2.1,45.545a47.816,47.816,0,0,0,4.62,6.787,53.874,53.874,0,0,0,24.8,16.885c.317-.245.633-.489.943-.742-12.282-3.877-23.252-12.241-29.482-23.415" fill="#3fd5fe"/>
            </g>
          </g>
        </g>
        <g id="Grupo_243340" data-name="Grupo 243340" style="mix-blend-mode: multiply;isolation: isolate">
          <g id="Grupo_243339" data-name="Grupo 243339">
            <g id="Grupo_243338" data-name="Grupo 243338" clip-path="url(#clip-path-17)">
              <path id="Trazado_243704" data-name="Trazado 243704" d="M176.5,281.746c-2.655-.65-5.389-1.443-8.217-2.352a196.065,196.065,0,0,1-90.646-61.919l-.038-.047a96.368,96.368,0,0,1-13.553-24.166l-.8.649a97.057,97.057,0,0,0,13.583,24.157l.032.037a197.094,197.094,0,0,0,91.11,62.239q3.9,1.252,7.565,2.2c.326-.265.652-.53.963-.8m37.34-94.728c-10.3-9.836-26.52-21.327-45.317-20.122-5.88.362-11.636,2-17.2,3.579a101.366,101.366,0,0,1-13.456,3.188c-12.065,1.746-24.747-1.291-35.716-8.545-.633-.414-1.263-.856-1.9-1.319l-.8.65c.713.528,1.422,1.035,2.141,1.507,11.183,7.39,24.115,10.481,36.41,8.7a104.686,104.686,0,0,0,13.588-3.217c5.52-1.567,11.217-3.184,16.991-3.552,18.438-1.168,34.414,10.147,44.563,19.847,10.059,9.606,22.452,25.075,25.2,44.705.309-.237.6-.477.9-.718-2.938-19.629-15.333-35.084-25.4-44.705" fill="#3fd5fe"/>
            </g>
          </g>
        </g>
        <g id="Grupo_243343" data-name="Grupo 243343" style="mix-blend-mode: multiply;isolation: isolate">
          <g id="Grupo_243342" data-name="Grupo 243342">
            <g id="Grupo_243341" data-name="Grupo 243341" clip-path="url(#clip-path-18)">
              <path id="Trazado_243705" data-name="Trazado 243705" d="M204.77,244.538c6.109-8.606,6.181-21.209.173-31.366-5.125-8.658-14.318-15.488-25.881-19.242-10.726-3.469-39.949-4.7-55.292,5.437-5.522,3.656-8.582,8.388-9.089,14.087-.46,5.17,2.021,10.152,5.549,14.488,6.053,7.438,15.184,13,17.781,14.5a63.507,63.507,0,0,0,18.971,7.2,43.626,43.626,0,0,0,7.768.151c4.141-.107,9.3-.253,10.6.7a19.25,19.25,0,0,0,14.552,3.1,23.078,23.078,0,0,0,14.87-9.056M189.739,252.6a18.221,18.221,0,0,1-13.8-2.925c-1.575-1.143-6.265-1.013-11.22-.875a44.148,44.148,0,0,1-7.527-.141,62.086,62.086,0,0,1-18.671-7.085c-11.12-6.41-23.774-17.6-22.838-28.036.474-5.375,3.387-9.859,8.642-13.336,15.078-9.973,43.861-8.744,54.435-5.319,11.33,3.673,20.318,10.347,25.322,18.794,5.808,9.816,5.759,21.987-.125,30.282a22.055,22.055,0,0,1-14.216,8.641" fill="#3fd5fe"/>
            </g>
          </g>
        </g>
        <g id="Grupo_243346" data-name="Grupo 243346" style="mix-blend-mode: multiply;isolation: isolate">
          <g id="Grupo_243345" data-name="Grupo 243345">
            <g id="Grupo_243344" data-name="Grupo 243344" clip-path="url(#clip-path-19)">
              <path id="Trazado_243706" data-name="Trazado 243706" d="M125.037,323c-.27.207-.526.415-.8.622a186.918,186.918,0,0,1-11.657-22.771c-2.473-5.685-4.841-11.558-7.121-17.244-7.1-17.69-14.437-35.98-26.3-51.1A101.793,101.793,0,0,0,48.085,206.25l.83-.676a102.614,102.614,0,0,1,31.032,26.319c11.948,15.237,19.317,33.6,26.444,51.337,2.28,5.686,4.634,11.558,7.108,17.228A184.537,184.537,0,0,0,125.037,323" fill="#3fd5fe"/>
            </g>
          </g>
        </g>
        <g id="Grupo_243349" data-name="Grupo 243349" style="mix-blend-mode: multiply;isolation: isolate">
          <g id="Grupo_243348" data-name="Grupo 243348">
            <g id="Grupo_243347" data-name="Grupo 243347" clip-path="url(#clip-path-20)">
              <path id="Trazado_243707" data-name="Trazado 243707" d="M83.154,266.207c-9.976-16.855-32.437-39.073-54.98-43.755l-1,.814C44.922,226.589,62.756,241.2,74.4,255.513a93.95,93.95,0,0,1,7.9,11.2,94.726,94.726,0,0,1,8.209,77.442c.353.022.7.037,1.056.031a95.7,95.7,0,0,0-8.41-77.975" fill="#3fd5fe"/>
            </g>
          </g>
        </g>
        <g id="Grupo_243352" data-name="Grupo 243352" style="mix-blend-mode: multiply;isolation: isolate">
          <g id="Grupo_243351" data-name="Grupo 243351">
            <g id="Grupo_243350" data-name="Grupo 243350" clip-path="url(#clip-path-21)">
              <path id="Trazado_243708" data-name="Trazado 243708" d="M54.882,287.407c.712-4.654-.809-9.914-4.15-14.415-.256-.346-.519-.686-.785-1.012A46.337,46.337,0,0,0,39.4,263c-8.429-5.608-19.267-11.512-27.53-11.543.043.132.092.272.149.406.081.193.159.386.24.579,6.459.159,15.489,4.015,26.594,11.39,3.74,2.488,7.983,5.6,11.076,9.746,3.182,4.307,4.626,9.282,3.961,13.678-1.1,7.237-7.593,12.121-14.529,13.563.212.292.43.591.649.877,7.135-1.642,13.719-6.78,14.868-14.289" fill="#3fd5fe"/>
            </g>
          </g>
        </g>
        <rect id="Rectángulo_316423" data-name="Rectángulo 316423" width="21.71" height="54.374" transform="translate(332.672 30.023) rotate(-39.135)" fill="#21215b"/>
        <path id="Trazado_243709" data-name="Trazado 243709" d="M377.432,69.392a4.168,4.168,0,0,1-5.4-1.024L336.849,25.125a4.042,4.042,0,0,1,.913-5.913,4.167,4.167,0,0,1,5.459.974l.176.217c7.667-6.612,15.459-13.34,23.649-20.4.681.838,1.371,1.669,2.052,2.507.158.194.316.388.481.576,1.547,1.9,3.088,3.778,4.63,5.657l.473.582,4.631,5.643.473.582q2.532,3.065,5.03,6.118l.473.582q2.928,3.573,5.844,7.118l.473.582,5.174,6.311.479.589,4.271,5.2.474.582c.435.535.872,1.056,1.308,1.592C395.066,50.867,386.958,57.412,378.8,64a4.038,4.038,0,0,1-1.364,5.39" fill="#3fd5fe"/>
        <g id="Grupo_243355" data-name="Grupo 243355" style="mix-blend-mode: multiply;isolation: isolate">
          <g id="Grupo_243354" data-name="Grupo 243354">
            <g id="Grupo_243353" data-name="Grupo 243353" clip-path="url(#clip-path-22)">
              <path id="Trazado_243710" data-name="Trazado 243710" d="M339.765,28.709l-.473-.582L369.1,2.507c.158.194.316.388.482.576Z" fill="#3fd5fe"/>
              <path id="Trazado_243711" data-name="Trazado 243711" d="M344.852,34.96l-.473-.582L374.209,8.74l.473.582Z" fill="#3fd5fe"/>
              <path id="Trazado_243712" data-name="Trazado 243712" d="M349.932,41.2l-.473-.582,29.853-25.658.473.582Z" fill="#3fd5fe"/>
              <path id="Trazado_243713" data-name="Trazado 243713" d="M355.4,47.929l-.473-.582,29.884-25.683.473.582Z" fill="#3fd5fe"/>
              <path id="Trazado_243714" data-name="Trazado 243714" d="M391.606,29.947,360.353,54.011l-.474-.582,31.254-24.064Z" fill="#3fd5fe"/>
              <path id="Trazado_243715" data-name="Trazado 243715" d="M397.259,36.847,365.976,60.922l-.473-.582,31.276-24.083Z" fill="#3fd5fe"/>
              <path id="Trazado_243716" data-name="Trazado 243716" d="M402,42.63,370.7,66.724l-.474-.582L401.53,42.048Z" fill="#3fd5fe"/>
            </g>
          </g>
        </g>
      </g>
    </g>
    <text id="Usos_del_agua" data-name="Usos del agua" transform="matrix(0.631, 0.776, -0.776, 0.631, 264.561, 81.524)" fill="#0090c3" font-size="8.65" font-family="Montserrat-Regular, Montserrat"><tspan x="0" y="0" letter-spacing="-0.012em">U</tspan><tspan y="0">sos del agua</tspan></text>
    <g id="Grupo_243362" data-name="Grupo 243362">
      <g id="Grupo_243361" data-name="Grupo 243361" clip-path="url(#clip-path-2)">
        <g id="Grupo_243360" data-name="Grupo 243360" style="mix-blend-mode: multiply;isolation: isolate">
          <g id="Grupo_243359" data-name="Grupo 243359">
            <g id="Grupo_243358" data-name="Grupo 243358" clip-path="url(#clip-path-24)">
              <text id="HUELLA" transform="matrix(0.631, 0.776, -0.776, 0.631, 198.233, 117.264)" fill="#0090c3" font-size="24" font-family="Roboto-Black, Roboto" font-weight="800"><tspan x="0" y="0">HUEL</tspan><tspan y="0" letter-spacing="0.008em">L</tspan><tspan y="0">A</tspan></text>
              <text id="VERDE" transform="matrix(0.631, 0.776, -0.776, 0.631, 186.655, 136.308)" fill="#0090c3" font-size="24" font-family="Roboto-Black, Roboto" font-weight="800"><tspan x="0" y="0">VERDE</tspan></text>
            </g>
          </g>
        </g>
      </g>
    </g>
    <text id="HUELLA-2" data-name="HUELLA" transform="matrix(0.631, 0.776, -0.776, 0.631, 133.669, 169.798)" fill="#feffff" font-size="24" font-family="Roboto-Black, Roboto" font-weight="800"><tspan x="0" y="0">HUEL</tspan><tspan y="0" letter-spacing="0.008em">L</tspan><tspan y="0">A</tspan></text>
    <text id="GRIS" transform="matrix(0.631, 0.776, -0.776, 0.631, 128.287, 196.456)" fill="#feffff" font-size="24" font-family="Roboto-Black, Roboto" font-weight="800"><tspan x="0" y="0">GRIS</tspan></text>
    <g id="Grupo_243367" data-name="Grupo 243367">
      <g id="Grupo_243366" data-name="Grupo 243366" clip-path="url(#clip-path-2)">
        <g id="Grupo_243365" data-name="Grupo 243365" style="mix-blend-mode: multiply;isolation: isolate">
          <g id="Grupo_243364" data-name="Grupo 243364">
            <g id="Grupo_243363" data-name="Grupo 243363" clip-path="url(#clip-path-26)">
              <text id="HUELLA-3" data-name="HUELLA" transform="matrix(0.631, 0.776, -0.776, 0.631, 66.888, 224.138)" fill="#0090c3" font-size="24" font-family="Roboto-Black, Roboto" font-weight="800"><tspan x="0" y="0">HUEL</tspan><tspan y="0" letter-spacing="0.008em">L</tspan><tspan y="0">A</tspan></text>
              <text id="AZUL" transform="matrix(0.631, 0.776, -0.776, 0.631, 59.717, 248.599)" fill="#0090c3" font-size="24" font-family="Roboto-Black, Roboto" font-weight="800"><tspan x="0" y="0">AZUL</tspan></text>
            </g>
          </g>
        </g>
      </g>
    </g>
  </g>
</svg>
