<svg xmlns="http://www.w3.org/2000/svg" width="715" height="402" viewBox="0 0 715 402">
  <g id="Grupo_243987" data-name="Grupo 243987" transform="translate(3116 8749.96)">
    <path id="Trazado_243371" data-name="Trazado 243371" d="M470,1815.04v-364q0-.935.091-1.863t.274-1.844q.182-.915.453-1.809t.628-1.755q.357-.863.8-1.686t.959-1.6q.519-.775,1.111-1.5t1.252-1.381q.66-.66,1.381-1.252t1.5-1.111q.777-.519,1.6-.959t1.686-.8q.862-.357,1.756-.628t1.808-.453q.916-.181,1.845-.274t1.862-.091h677q.933,0,1.862.091t1.845.274q.915.181,1.808.453t1.756.628q.862.357,1.685.8t1.6.959q.775.518,1.5,1.111t1.382,1.252q.66.66,1.252,1.381t1.111,1.5q.519.775.958,1.6t.8,1.686q.357.862.628,1.755t.453,1.809q.181.915.274,1.844t.091,1.863v364q0,.933-.091,1.862t-.274,1.845q-.183.915-.453,1.808t-.628,1.756q-.359.862-.8,1.685t-.958,1.6q-.519.776-1.111,1.5t-1.252,1.382q-.66.66-1.382,1.252t-1.5,1.111q-.777.519-1.6.958t-1.685.8q-.862.357-1.756.628t-1.808.453q-.917.181-1.845.273t-1.862.092H489q-.933,0-1.862-.092t-1.845-.273q-.915-.183-1.808-.453t-1.756-.628q-.863-.359-1.686-.8t-1.6-.958q-.775-.519-1.5-1.111t-1.381-1.252q-.66-.66-1.252-1.382t-1.111-1.5q-.519-.777-.959-1.6t-.8-1.686q-.357-.863-.628-1.756t-.453-1.808q-.182-.916-.274-1.845T470,1815.04" transform="translate(-3586 -10182)" fill="#fff"/>
    <path id="Trazado_243380" data-name="Trazado 243380" d="M644.33,1609.409a38.848,38.848,0,0,1-34.439-41.305c.036-.538.086-1.076.145-1.616s.133-1.074.216-1.606a38.844,38.844,0,0,1,42.706-32.684c39.461,4.409,76.383,47.623,76.383,47.623s-46.776,33.861-85.011,29.588" transform="translate(-3586 -10182)" fill="#baeaff"/>
    <path id="Trazado_243381" data-name="Trazado 243381" d="M797.611,1615.7c-46.136-13.912-77.206-67.874-108.518-79.177,0,0,82.375-45.478,138.3-30.252a56.7,56.7,0,0,1,40.4,67.311c-.174.766-.367,1.534-.574,2.3s-.43,1.523-.668,2.272c-9.135,28.833-39.712,46.364-68.941,37.55" transform="translate(-3586 -10182)" fill="#baeaff"/>
    <path id="Trazado_243382" data-name="Trazado 243382" d="M901.223,1617.116a19.566,19.566,0,0,1,4.619,26.689c-.152.226-.31.448-.471.668s-.328.435-.5.647a19.565,19.565,0,0,1-26.859,3.5c-16.1-11.862-21.322-40.009-21.322-40.009s28.93-2.988,44.531,8.505" transform="translate(-3586 -10182)" fill="#baeaff"/>
    <path id="Trazado_243383" data-name="Trazado 243383" d="M913.634,1577.639a16.57,16.57,0,0,1,10.008,20.64q-.107.328-.227.654c-.081.216-.165.431-.254.643a16.569,16.569,0,0,1-21.04,9.137c-15.882-5.884-26.72-27.57-26.72-27.57s22.845-9.2,38.233-3.5" transform="translate(-3586 -10182)" fill="#baeaff"/>
    <path id="Trazado_243384" data-name="Trazado 243384" d="M910.844,1539.378a15.232,15.232,0,0,1,16.281,13.4q.038.315.061.633t.035.635a15.232,15.232,0,0,1-14.07,15.707c-15.525,1.179-32.9-12.777-32.9-12.777s15.552-16.457,30.595-17.6" transform="translate(-3586 -10182)" fill="#baeaff"/>
    <path id="Trazado_243385" data-name="Trazado 243385" d="M898.369,1508.457a13.47,13.47,0,0,1,16.739,8.218c.064.176.124.354.182.533s.11.358.159.539a13.47,13.47,0,0,1-8.91,16.381c-13.12,4.176-30.915-4.3-30.915-4.3s10.032-17.328,22.745-21.374" transform="translate(-3586 -10182)" fill="#baeaff"/>
    <path id="Trazado_243386" data-name="Trazado 243386" d="M870.721,1487.387a12.189,12.189,0,0,1,16.589,3.1q.148.205.289.42t.269.431a12.189,12.189,0,0,1-3.785,16.446c-10.422,6.83-27.994,3.771-27.994,3.771s4.532-17.545,14.632-24.163" transform="translate(-3586 -10182)" fill="#baeaff"/>
    <path id="Trazado_243387" data-name="Trazado 243387" d="M649.039,1600.591a38.847,38.847,0,0,1-34.439-41.3c.037-.538.087-1.076.146-1.616s.132-1.074.215-1.606a38.845,38.845,0,0,1,42.706-32.684C697.129,1527.789,734.05,1571,734.05,1571S687.275,1604.864,649.039,1600.591Z" transform="translate(-3586 -10182)" fill="none" stroke="#04294f" stroke-linecap="round" stroke-miterlimit="10" stroke-width="3.204"/>
    <path id="Trazado_243388" data-name="Trazado 243388" d="M802.321,1606.885c-46.136-13.912-77.206-67.874-108.518-79.177,0,0,82.375-45.478,138.3-30.252a56.7,56.7,0,0,1,40.4,67.311c-.174.766-.367,1.534-.574,2.3s-.43,1.523-.668,2.272C862.127,1598.168,831.55,1615.7,802.321,1606.885Z" transform="translate(-3586 -10182)" fill="none" stroke="#04294f" stroke-linecap="round" stroke-miterlimit="10" stroke-width="3.204"/>
    <path id="Trazado_243389" data-name="Trazado 243389" d="M905.933,1608.3a19.566,19.566,0,0,1,4.619,26.689c-.152.226-.31.448-.471.668s-.328.435-.5.647a19.565,19.565,0,0,1-26.859,3.5c-16.1-11.862-21.322-40.009-21.322-40.009S890.332,1596.8,905.933,1608.3Z" transform="translate(-3586 -10182)" fill="none" stroke="#04294f" stroke-linecap="round" stroke-miterlimit="10" stroke-width="3.204"/>
    <path id="Trazado_243390" data-name="Trazado 243390" d="M918.343,1568.82a16.57,16.57,0,0,1,10.008,20.64q-.106.328-.227.654c-.081.216-.165.431-.254.643a16.569,16.569,0,0,1-21.04,9.137c-15.882-5.884-26.72-27.57-26.72-27.57S902.955,1563.119,918.343,1568.82Z" transform="translate(-3586 -10182)" fill="none" stroke="#04294f" stroke-linecap="round" stroke-miterlimit="10" stroke-width="3.204"/>
    <path id="Trazado_243391" data-name="Trazado 243391" d="M915.554,1530.559a15.232,15.232,0,0,1,16.281,13.4q.037.315.061.633t.035.635a15.232,15.232,0,0,1-14.07,15.707c-15.525,1.179-32.9-12.777-32.9-12.777S900.511,1531.7,915.554,1530.559Z" transform="translate(-3586 -10182)" fill="none" stroke="#04294f" stroke-linecap="round" stroke-miterlimit="10" stroke-width="3.204"/>
    <path id="Trazado_243392" data-name="Trazado 243392" d="M903.078,1499.638a13.47,13.47,0,0,1,16.739,8.218c.065.176.124.354.182.533s.11.358.159.539a13.469,13.469,0,0,1-8.91,16.381c-13.12,4.176-30.915-4.3-30.915-4.3S890.365,1503.684,903.078,1499.638Z" transform="translate(-3586 -10182)" fill="none" stroke="#04294f" stroke-linecap="round" stroke-miterlimit="10" stroke-width="3.204"/>
    <path id="Trazado_243393" data-name="Trazado 243393" d="M875.43,1478.568a12.19,12.19,0,0,1,16.59,3.095c.1.137.194.277.288.42s.183.286.27.431a12.19,12.19,0,0,1-3.785,16.446c-10.422,6.83-27.994,3.771-27.994,3.771S865.331,1485.186,875.43,1478.568Z" transform="translate(-3586 -10182)" fill="none" stroke="#04294f" stroke-linecap="round" stroke-miterlimit="10" stroke-width="3.204"/>
    <path id="Trazado_243394" data-name="Trazado 243394" d="M763.465,1680.6a38.847,38.847,0,0,0-34.439,41.305c.037.538.087,1.076.146,1.616s.132,1.074.215,1.606a38.845,38.845,0,0,0,42.706,32.684c39.462-4.409,76.384-47.623,76.384-47.623s-46.776-33.861-85.012-29.588" transform="translate(-3586 -10182)" fill="#baeaff"/>
    <path id="Trazado_243395" data-name="Trazado 243395" d="M918.433,1679c-46.136,13.912-77.206,67.874-108.518,79.177,0,0,82.375,45.478,138.3,30.252a56.7,56.7,0,0,0,40.4-67.311c-.174-.766-.367-1.534-.574-2.3s-.43-1.523-.668-2.272c-9.135-28.833-39.712-46.364-68.941-37.55" transform="translate(-3586 -10182)" fill="#baeaff"/>
    <path id="Trazado_243396" data-name="Trazado 243396" d="M1020.359,1672.9a19.566,19.566,0,0,0,4.619-26.689c-.152-.226-.311-.448-.472-.668s-.328-.435-.5-.647a19.565,19.565,0,0,0-26.859-3.5c-16.1,11.862-21.322,40.009-21.322,40.009s28.93,2.988,44.531-8.505" transform="translate(-3586 -10182)" fill="#baeaff"/>
    <path id="Trazado_243397" data-name="Trazado 243397" d="M1032.769,1712.376a16.57,16.57,0,0,0,10.008-20.64q-.106-.328-.227-.654c-.081-.216-.165-.431-.254-.643a16.569,16.569,0,0,0-21.04-9.137c-15.882,5.884-26.72,27.57-26.72,27.57s22.845,9.205,38.233,3.5" transform="translate(-3586 -10182)" fill="#baeaff"/>
    <path id="Trazado_243398" data-name="Trazado 243398" d="M1029.98,1750.636a15.232,15.232,0,0,0,16.281-13.4q.038-.315.061-.633t.035-.635a15.232,15.232,0,0,0-14.07-15.707c-15.525-1.179-32.9,12.777-32.9,12.777s15.552,16.457,30.595,17.6" transform="translate(-3586 -10182)" fill="#baeaff"/>
    <path id="Trazado_243399" data-name="Trazado 243399" d="M1017.505,1781.558a13.469,13.469,0,0,0,16.738-8.218c.065-.176.124-.354.182-.533s.11-.358.159-.539a13.469,13.469,0,0,0-8.91-16.381c-13.119-4.176-30.915,4.3-30.915,4.3s10.033,17.328,22.746,21.374" transform="translate(-3586 -10182)" fill="#baeaff"/>
    <path id="Trazado_243400" data-name="Trazado 243400" d="M989.856,1802.627a12.19,12.19,0,0,0,16.59-3.095c.1-.137.194-.277.288-.42s.183-.286.27-.431a12.19,12.19,0,0,0-3.785-16.446c-10.422-6.83-27.994-3.771-27.994-3.771s4.532,17.545,14.631,24.163" transform="translate(-3586 -10182)" fill="#baeaff"/>
    <path id="Trazado_243401" data-name="Trazado 243401" d="M766.669,1673.179a38.848,38.848,0,0,0-34.439,41.305c.037.538.087,1.076.146,1.616s.132,1.074.215,1.606A38.845,38.845,0,0,0,775.3,1750.39c39.462-4.409,76.383-47.623,76.383-47.623S804.905,1668.906,766.669,1673.179Z" transform="translate(-3586 -10182)" fill="none" stroke="#04294f" stroke-linecap="round" stroke-miterlimit="10" stroke-width="3.204"/>
    <path id="Trazado_243402" data-name="Trazado 243402" d="M919.95,1666.885c-46.136,13.912-77.206,67.874-108.518,79.177,0,0,82.375,45.478,138.3,30.252a56.7,56.7,0,0,0,40.4-67.311c-.174-.766-.367-1.534-.574-2.3s-.43-1.523-.668-2.272C979.756,1675.6,949.179,1658.071,919.95,1666.885Z" transform="translate(-3586 -10182)" fill="none" stroke="#04294f" stroke-linecap="round" stroke-miterlimit="10" stroke-width="3.204"/>
    <path id="Trazado_243403" data-name="Trazado 243403" d="M1023.562,1665.473a19.566,19.566,0,0,0,4.619-26.689c-.152-.226-.31-.448-.471-.668s-.328-.435-.5-.647a19.565,19.565,0,0,0-26.859-3.5c-16.1,11.862-21.322,40.009-21.322,40.009S1007.961,1676.966,1023.562,1665.473Z" transform="translate(-3586 -10182)" fill="none" stroke="#04294f" stroke-linecap="round" stroke-miterlimit="10" stroke-width="3.204"/>
    <path id="Trazado_243404" data-name="Trazado 243404" d="M1035.973,1704.95a16.57,16.57,0,0,0,10.008-20.64q-.106-.329-.227-.654c-.081-.216-.165-.431-.254-.643a16.569,16.569,0,0,0-21.04-9.137c-15.882,5.884-26.72,27.57-26.72,27.57S1020.585,1710.651,1035.973,1704.95Z" transform="translate(-3586 -10182)" fill="none" stroke="#04294f" stroke-linecap="round" stroke-miterlimit="10" stroke-width="3.204"/>
    <path id="Trazado_243405" data-name="Trazado 243405" d="M1033.184,1743.21a15.231,15.231,0,0,0,16.28-13.4c.026-.21.046-.421.062-.633s.028-.424.035-.635a15.233,15.233,0,0,0-14.071-15.707c-15.524-1.179-32.9,12.777-32.9,12.777S1018.141,1742.067,1033.184,1743.21Z" transform="translate(-3586 -10182)" fill="none" stroke="#04294f" stroke-linecap="round" stroke-miterlimit="10" stroke-width="3.204"/>
    <path id="Trazado_243406" data-name="Trazado 243406" d="M1020.708,1774.132a13.47,13.47,0,0,0,16.739-8.218c.064-.176.124-.354.182-.533s.11-.358.159-.539a13.469,13.469,0,0,0-8.91-16.381c-13.12-4.176-30.915,4.3-30.915,4.3S1007.995,1770.086,1020.708,1774.132Z" transform="translate(-3586 -10182)" fill="none" stroke="#04294f" stroke-linecap="round" stroke-miterlimit="10" stroke-width="3.204"/>
    <path id="Trazado_243407" data-name="Trazado 243407" d="M993.06,1795.2a12.19,12.19,0,0,0,16.59-3.1c.1-.137.194-.277.288-.42s.183-.286.27-.431a12.19,12.19,0,0,0-3.785-16.446c-10.422-6.83-27.995-3.771-27.995-3.771S982.961,1788.583,993.06,1795.2Z" transform="translate(-3586 -10182)" fill="none" stroke="#04294f" stroke-linecap="round" stroke-miterlimit="10" stroke-width="3.204"/>
    <line id="Línea_437" data-name="Línea 437" y1="10.257" x2="22.477" transform="translate(-2582.097 -8637.08)" fill="none" stroke="#04294f" stroke-linecap="round" stroke-miterlimit="10" stroke-width="3.204"/>
    <line id="Línea_438" data-name="Línea 438" y1="7.19" x2="15.757" transform="translate(-2600.381 -8608.37)" fill="none" stroke="#04294f" stroke-linecap="round" stroke-miterlimit="10" stroke-width="3.204"/>
    <line id="Línea_439" data-name="Línea 439" y1="7.853" x2="17.208" transform="translate(-2607.202 -8641.673)" fill="none" stroke="#04294f" stroke-linecap="round" stroke-miterlimit="10" stroke-width="3.204"/>
    <line id="Línea_440" data-name="Línea 440" y1="10.257" x2="22.477" transform="translate(-2921.686 -8496.239)" fill="none" stroke="#04294f" stroke-linecap="round" stroke-miterlimit="10" stroke-width="3.204"/>
    <line id="Línea_441" data-name="Línea 441" y1="7.19" x2="15.757" transform="translate(-2939.969 -8467.529)" fill="none" stroke="#04294f" stroke-linecap="round" stroke-miterlimit="10" stroke-width="3.204"/>
    <line id="Línea_442" data-name="Línea 442" y1="7.853" x2="17.208" transform="translate(-2946.791 -8500.831)" fill="none" stroke="#04294f" stroke-linecap="round" stroke-miterlimit="10" stroke-width="3.204"/>
    <line id="Línea_443" data-name="Línea 443" y1="10.257" x2="22.477" transform="translate(-3041.686 -8564.614)" fill="none" stroke="#04294f" stroke-linecap="round" stroke-miterlimit="10" stroke-width="3.204"/>
    <line id="Línea_444" data-name="Línea 444" y1="7.19" x2="15.757" transform="translate(-3059.969 -8535.904)" fill="none" stroke="#04294f" stroke-linecap="round" stroke-miterlimit="10" stroke-width="3.204"/>
    <line id="Línea_445" data-name="Línea 445" y1="7.853" x2="17.208" transform="translate(-3066.791 -8569.206)" fill="none" stroke="#04294f" stroke-linecap="round" stroke-miterlimit="10" stroke-width="3.204"/>
    <line id="Línea_446" data-name="Línea 446" y1="10.257" x2="22.477" transform="translate(-2455.887 -8579.663)" fill="none" stroke="#04294f" stroke-linecap="round" stroke-miterlimit="10" stroke-width="3.204"/>
    <line id="Línea_447" data-name="Línea 447" y1="7.19" x2="15.757" transform="translate(-2474.17 -8550.953)" fill="none" stroke="#04294f" stroke-linecap="round" stroke-miterlimit="10" stroke-width="3.204"/>
    <line id="Línea_448" data-name="Línea 448" y1="7.853" x2="17.208" transform="translate(-2480.992 -8584.255)" fill="none" stroke="#04294f" stroke-linecap="round" stroke-miterlimit="10" stroke-width="3.204"/>
  </g>
</svg>
