<svg xmlns="http://www.w3.org/2000/svg" width="1000.517" height="412.551" viewBox="0 0 1000.517 412.551">
  <g id="Grupo_243992" data-name="Grupo 243992" transform="translate(-285 -3216.449)">
    <text id="FUENTE" transform="translate(347.049 3251.824)" fill="#12263f" font-size="16" font-family="Roboto-Bold, Roboto" font-weight="700"><tspan x="0" y="0" letter-spacing="-0.024em">F</tspan><tspan y="0" letter-spacing="-0.025em">UE</tspan><tspan y="0" letter-spacing="-0.039em">N</tspan><tspan y="0" letter-spacing="-0.024em">T</tspan><tspan y="0">E</tspan></text>
    <text id="EXTRACCIONES" transform="translate(556.265 3251.824)" fill="#12263f" font-size="16" font-family="Roboto-Bold, Roboto" font-weight="700"><tspan x="0" y="0" letter-spacing="-0.024em">E</tspan><tspan y="0" letter-spacing="-0.025em">X</tspan><tspan y="0" letter-spacing="-0.024em">T</tspan><tspan y="0" letter-spacing="-0.025em">R</tspan><tspan y="0" letter-spacing="-0.035em">A</tspan><tspan y="0" letter-spacing="-0.025em">CCION</tspan><tspan y="0" letter-spacing="-0.024em">E</tspan><tspan y="0">S</tspan></text>
    <text id="HUELLA_HÍDRICA_TOTAL_DE_LA_PRODUCCIÓN" data-name="HUELLA HÍDRICA
TOTAL DE LA PRODUCCIÓN" transform="translate(839.17 3231.449)" fill="#12263f" font-size="16" font-family="Roboto-Bold, Roboto" font-weight="700"><tspan x="-60.298" y="0" letter-spacing="-0.025em">HU</tspan><tspan y="0" letter-spacing="-0.024em">EL</tspan><tspan y="0" letter-spacing="-0.015em">L</tspan><tspan y="0" letter-spacing="-0.024em">A</tspan><tspan y="0" xml:space="preserve" letter-spacing="-0.025em"> H</tspan><tspan y="0" letter-spacing="-0.024em">ÍD</tspan><tspan y="0" letter-spacing="-0.025em">R</tspan><tspan y="0" letter-spacing="-0.024em">I</tspan><tspan y="0" letter-spacing="-0.025em">C</tspan><tspan y="0">A</tspan><tspan x="-99.918" y="19.2">TOTAL DE LA PRODUCCIÓN</tspan></text>
    <text id="HUELLA_HÍDRICA" data-name="HUELLA HÍDRICA" transform="translate(1147.068 3233.176)" fill="#12263f" font-size="16" font-family="Roboto-Bold, Roboto" font-weight="700"><tspan x="0" y="0" letter-spacing="-0.025em">HU</tspan><tspan y="0" letter-spacing="-0.024em">EL</tspan><tspan y="0" letter-spacing="-0.015em">L</tspan><tspan y="0" letter-spacing="-0.024em">A</tspan><tspan y="0" xml:space="preserve" letter-spacing="-0.025em"> H</tspan><tspan y="0" letter-spacing="-0.024em">ÍD</tspan><tspan y="0" letter-spacing="-0.025em">R</tspan><tspan y="0" letter-spacing="-0.024em">I</tspan><tspan y="0" letter-spacing="-0.025em">C</tspan><tspan y="0">A</tspan></text>
    <text id="_TOTAL_DEL_CONSUMO" data-name=" TOTAL DEL CONSUMO" transform="translate(1127.517 3252.375)" fill="#12263f" font-size="16" font-family="Roboto-Bold, Roboto" font-weight="700"><tspan x="0" y="0" letter-spacing="-0.054em"> </tspan><tspan y="0" letter-spacing="-0.038em">T</tspan><tspan y="0" letter-spacing="-0.066em">O</tspan><tspan y="0" letter-spacing="-0.083em">T</tspan><tspan y="0" letter-spacing="-0.024em">AL</tspan><tspan y="0" letter-spacing="-0.025em"> </tspan><tspan y="0" letter-spacing="-0.024em">DEL</tspan><tspan y="0" xml:space="preserve" letter-spacing="-0.025em"> CON</tspan><tspan y="0" letter-spacing="-0.024em">S</tspan><tspan y="0" letter-spacing="-0.025em">U</tspan><tspan y="0" letter-spacing="-0.024em">M</tspan><tspan y="0">O</tspan></text>
    <text id="COMERCIO" transform="translate(986.905 3251.824)" fill="#12263f" font-size="16" font-family="Roboto-Bold, Roboto" font-weight="700"><tspan x="0" y="0" letter-spacing="-0.025em">CO</tspan><tspan y="0" letter-spacing="-0.024em">ME</tspan><tspan y="0" letter-spacing="-0.025em">RC</tspan><tspan y="0" letter-spacing="-0.024em">I</tspan><tspan y="0">O</tspan></text>
    <line id="Línea_463" data-name="Línea 463" y1="6.5" transform="translate(1025.563 3546.974)" fill="none" stroke="#bfb876" stroke-miterlimit="10" stroke-width="4"/>
    <line id="Línea_464" data-name="Línea 464" y1="173.513" transform="translate(1025.563 3360.607)" fill="none" stroke="#bfb876" stroke-miterlimit="10" stroke-width="4" stroke-dasharray="12.853 12.853"/>
    <line id="Línea_465" data-name="Línea 465" y1="6.5" transform="translate(1025.563 3347.681)" fill="none" stroke="#bfb876" stroke-miterlimit="10" stroke-width="4"/>
    <path id="Trazado_243728" data-name="Trazado 243728" d="M920.524,402.642H865a24.956,24.956,0,0,1-24.957-24.957V122.01H945.481V377.685a24.957,24.957,0,0,1-24.957,24.957" transform="translate(313 3217)" fill="#144677"/>
    <path id="Trazado_243729" data-name="Trazado 243729" d="M945.48,346.11H840.042V87.684a22.207,22.207,0,0,1,22.207-22.206h61.025A22.206,22.206,0,0,1,945.48,87.684Z" transform="translate(313 3217)" fill="#35b0e5"/>
    <rect id="Rectángulo_316435" data-name="Rectángulo 316435" width="100.34" height="100.34" transform="translate(789 3323.007)" fill="#baeaff"/>
    <path id="Trazado_243732" data-name="Trazado 243732" d="M357.607,402.642H244.348A18.653,18.653,0,0,1,225.7,383.989V355.127a18.654,18.654,0,0,1,18.653-18.654H357.607a18.654,18.654,0,0,1,18.653,18.654v28.862a18.653,18.653,0,0,1-18.653,18.653" transform="translate(313.305 3216.527)" fill="#009688"/>
    <path id="Trazado_243733" data-name="Trazado 243733" d="M359.714,295.09H242.241A16.546,16.546,0,0,1,225.7,278.544V245.467a16.546,16.546,0,0,1,16.546-16.546H359.714a16.546,16.546,0,0,1,16.546,16.546v33.077a16.546,16.546,0,0,1-16.546,16.546" transform="translate(313.305 3217.079)" fill="#009688"/>
    <path id="Trazado_243734" data-name="Trazado 243734" d="M363.518,106.007H238.437A12.742,12.742,0,0,1,225.7,93.265V78.6a12.742,12.742,0,0,1,12.742-12.742H363.518A12.742,12.742,0,0,1,376.26,78.6V93.265a12.742,12.742,0,0,1-12.742,12.742" transform="translate(313.305 3217)" fill="#009688"/>
    <path id="Trazado_243735" data-name="Trazado 243735" d="M361.616,187.539H240.339A14.644,14.644,0,0,1,225.7,172.9v-10.86a14.644,14.644,0,0,1,14.644-14.644H361.616a14.644,14.644,0,0,1,14.644,14.644V172.9a14.644,14.644,0,0,1-14.644,14.644" transform="translate(313.305 3216.609)" fill="#009688"/>
    <path id="Trazado_243736" data-name="Trazado 243736" d="M554.321,402.642H498.936a22.477,22.477,0,0,1-22.478-22.477V193.99H576.8V380.165a22.477,22.477,0,0,1-22.477,22.477" transform="translate(312.542 3217)" fill="#00574f"/>
    <path id="Trazado_243737" data-name="Trazado 243737" d="M576.8,148.783H476.459V86.021a20.162,20.162,0,0,1,20.162-20.162h60.016A20.162,20.162,0,0,1,576.8,86.021Z" transform="translate(312.541 3217)" fill="#8bb0bf"/>
    <path id="Trazado_243738" data-name="Trazado 243738" d="M753.218,130.681h-80.5a12.868,12.868,0,0,1-12.868-12.868V78.727a12.868,12.868,0,0,1,12.868-12.868h80.5a12.868,12.868,0,0,1,12.868,12.868v39.086a12.868,12.868,0,0,1-12.868,12.868" transform="translate(313.152 3217)" fill="#fff59d"/>
    <path id="Trazado_243739" data-name="Trazado 243739" d="M749.923,402.642H676.01a16.163,16.163,0,0,1-16.163-16.162V344.141a16.163,16.163,0,0,1,16.163-16.162h73.913a16.162,16.162,0,0,1,16.162,16.162V386.48a16.162,16.162,0,0,1-16.162,16.162" transform="translate(313.153 3217)" fill="#fff59d"/>
    <path id="Trazado_243740" data-name="Trazado 243740" d="M752.995,254.325H672.937a13.091,13.091,0,0,1-13.09-13.09V230.653a13.09,13.09,0,0,1,13.09-13.09h80.058a13.09,13.09,0,0,1,13.09,13.09v10.582a13.091,13.091,0,0,1-13.09,13.09" transform="translate(313.153 3217)" fill="#fff59d"/>
    <text id="Agricultura_de_secano_" data-name="Agricultura de
secano  " transform="translate(614 3583)" fill="#fff" font-size="16" font-family="Roboto-Regular, Roboto"><tspan letter-spacing="-0.025em"><tspan x="-46.847" y="0">Agr</tspan><tspan y="0" letter-spacing="-0.024em">i</tspan><tspan y="0">cu</tspan><tspan y="0" letter-spacing="-0.024em">lt</tspan><tspan y="0">u</tspan><tspan y="0" letter-spacing="-0.044em">r</tspan><tspan y="0" letter-spacing="-0.024em">a de</tspan></tspan><tspan x="-29.84" y="19.2" xml:space="preserve">secano  </tspan></text>
    <text id="Agricultura_de_riego_" data-name="Agricultura de
riego " transform="translate(614 3475)" fill="#fff" font-size="16" font-family="Roboto-Regular, Roboto"><tspan letter-spacing="-0.025em"><tspan x="-46.847" y="0">Agr</tspan><tspan y="0" letter-spacing="-0.024em">i</tspan><tspan y="0">cu</tspan><tspan y="0" letter-spacing="-0.024em">lt</tspan><tspan y="0">u</tspan><tspan y="0" letter-spacing="-0.044em">r</tspan><tspan y="0" letter-spacing="-0.024em">a de</tspan></tspan><tspan x="-19.918" y="19.2">riego </tspan></text>
    <text id="Agua_doméstica" data-name="Agua doméstica" transform="translate(559 3390)" fill="#fff" font-size="16" font-family="Roboto-Regular, Roboto"><tspan x="0" y="0" letter-spacing="-0.025em">Agu</tspan><tspan y="0" letter-spacing="-0.024em">a</tspan><tspan y="0" letter-spacing="-0.025em"> </tspan><tspan y="0" letter-spacing="-0.024em">d</tspan><tspan y="0" letter-spacing="-0.025em">om</tspan><tspan y="0" letter-spacing="-0.024em">ésti</tspan><tspan y="0" letter-spacing="-0.025em">c</tspan><tspan y="0">a</tspan></text>
    <text id="Industria" transform="translate(585 3307.613)" fill="#fff" font-size="16" font-family="Roboto-Regular, Roboto" letter-spacing="-0.024em"><tspan x="0" y="0">Ind</tspan><tspan y="0" letter-spacing="-0.025em">u</tspan><tspan y="0">st</tspan><tspan y="0" letter-spacing="-0.025em">r</tspan><tspan y="0">ia</tspan></text>
    <text id="Aguas_grises" data-name="Aguas
grises" transform="translate(839 3318.093)" fill="#fff" font-size="16" font-family="Roboto-Regular, Roboto" letter-spacing="-0.025em"><tspan x="-21.802" y="0">Agu</tspan><tspan y="0" letter-spacing="-0.024em">as</tspan><tspan letter-spacing="-0.024em"><tspan x="-20.665" y="19.2">grises</tspan></tspan></text>
    <text id="Interna_" data-name="Interna " transform="translate(1182.021 3415.389)" fill="#fff" font-size="16" font-family="Roboto-Regular, Roboto"><tspan x="0" y="0" letter-spacing="-0.024em">Inte</tspan><tspan y="0" letter-spacing="-0.025em">r</tspan><tspan y="0" letter-spacing="-0.024em">na</tspan><tspan y="0"> </tspan></text>
    <text id="_84_" data-name="(84%)" transform="translate(1186.182 3434.588)" fill="#fff" font-size="16" font-family="Roboto-Regular, Roboto"><tspan x="0" y="0" letter-spacing="-0.024em">(</tspan><tspan y="0" letter-spacing="-0.025em">84%</tspan><tspan y="0">)</tspan></text>
    <text id="Externa_" data-name="Externa " transform="translate(1180.102 3585.997)" fill="#fff" font-size="16" font-family="Roboto-Regular, Roboto"><tspan x="0" y="0" letter-spacing="-0.025em">E</tspan><tspan y="0" letter-spacing="-0.024em">xte</tspan><tspan y="0" letter-spacing="-0.025em">r</tspan><tspan y="0" letter-spacing="-0.024em">na</tspan><tspan y="0"> </tspan></text>
    <text id="_16_" data-name="(16%)" transform="translate(1186.182 3605.197)" fill="#fff" font-size="16" font-family="Roboto-Regular, Roboto"><tspan x="0" y="0" letter-spacing="-0.024em">(</tspan><tspan y="0" letter-spacing="-0.025em">16%</tspan><tspan y="0">)</tspan></text>
    <text id="Aguas_verdes" data-name="Aguas
verdes" transform="translate(839 3509.405)" fill="#fff" font-size="16" font-family="Roboto-Regular, Roboto" letter-spacing="-0.025em"><tspan x="-21.802" y="0">Agu</tspan><tspan y="0" letter-spacing="-0.024em">as</tspan><tspan letter-spacing="-0.024em"><tspan x="-22.61" y="19.2">verdes</tspan></tspan></text>
    <text id="Aguas_azules" data-name="Aguas
azules" transform="translate(839 3382.877)" fill="#144677" font-size="16" font-family="Roboto-Regular, Roboto" letter-spacing="-0.025em"><tspan x="-21.802" y="0">Agu</tspan><tspan y="0" letter-spacing="-0.024em">as</tspan><tspan letter-spacing="-0.024em"><tspan x="-22.071" y="19.2">azules</tspan></tspan></text>
    <text id="Exportación_de_agua_en_productos" data-name="Exportación
de agua en
productos" transform="translate(1026 3301.037)" fill="#144677" font-size="16" font-family="Roboto-Regular, Roboto" letter-spacing="-0.025em"><tspan x="-40.767" y="0">E</tspan><tspan y="0" letter-spacing="-0.024em">x</tspan><tspan y="0">po</tspan><tspan y="0" letter-spacing="-0.024em">r</tspan><tspan y="0" letter-spacing="-0.024em">ta</tspan><tspan y="0">c</tspan><tspan y="0" letter-spacing="-0.024em">i</tspan><tspan y="0">ó</tspan><tspan y="0" letter-spacing="-0.024em">n</tspan><tspan letter-spacing="-0.024em"><tspan x="-37.237" y="19.2">de agua en</tspan><tspan x="-34.476" y="38.4">productos</tspan></tspan></text>
    <text id="Reexportación" transform="translate(977 3458.605)" fill="#144677" font-size="16" font-family="Roboto-Regular, Roboto"><tspan x="0" y="0" letter-spacing="-0.024em">Reex</tspan><tspan y="0" letter-spacing="-0.025em">po</tspan><tspan y="0">r</tspan><tspan y="0" letter-spacing="-0.024em">ta</tspan><tspan y="0" letter-spacing="-0.025em">c</tspan><tspan y="0" letter-spacing="-0.024em">i</tspan><tspan y="0" letter-spacing="-0.025em">ó</tspan><tspan y="0">n</tspan></text>
    <text id="Importación_de_agua_en_productos" data-name="Importación
de agua en
productos" transform="translate(1026 3567.933)" fill="#144677" font-size="16" font-family="Roboto-Regular, Roboto" letter-spacing="-0.024em"><tspan x="-41.443" y="0">I</tspan><tspan y="0" letter-spacing="-0.025em">mpo</tspan><tspan y="0">r</tspan><tspan y="0">ta</tspan><tspan y="0" letter-spacing="-0.025em">c</tspan><tspan y="0">i</tspan><tspan y="0" letter-spacing="-0.025em">ó</tspan><tspan y="0">n</tspan><tspan x="-37.237" y="19.2">de agua en</tspan><tspan x="-34.476" y="38.4">productos</tspan></text>
    <line id="Línea_466" data-name="Línea 466" x2="100.097" transform="translate(435.319 3586.558)" fill="none" stroke="#a5d6a7" stroke-miterlimit="10" stroke-width="3"/>
    <line id="Línea_467" data-name="Línea 467" x2="97.996" transform="translate(435.319 3493.5)" fill="none" stroke="#a5d6a7" stroke-miterlimit="10" stroke-width="3"/>
    <line id="Línea_468" data-name="Línea 468" x2="101.215" y2="40.139" transform="translate(432.1 3424.11)" fill="none" stroke="#12263f" stroke-miterlimit="10" stroke-width="3"/>
    <line id="Línea_469" data-name="Línea 469" x1="100.485" transform="translate(433.982 3384.465)" fill="none" stroke="#12263f" stroke-miterlimit="10" stroke-width="3"/>
    <line id="Línea_470" data-name="Línea 470" x1="103.901" transform="translate(432.1 3302.934)" fill="none" stroke="#12263f" stroke-miterlimit="10" stroke-width="3"/>
    <line id="Línea_471" data-name="Línea 471" x2="89.639" y2="23.566" transform="translate(687.977 3303.486)" fill="none" stroke="#009688" stroke-miterlimit="10" stroke-width="2"/>
    <line id="Línea_472" data-name="Línea 472" y1="58.653" x2="94.418" transform="translate(685.588 3325.812)" fill="none" stroke="#009688" stroke-miterlimit="10" stroke-width="2"/>
    <path id="Trazado_243741" data-name="Trazado 243741" d="M473.164,173.781l-96.9,87.561L465.9,109.5" transform="translate(313 3217)" fill="none" stroke="#009688" stroke-miterlimit="10" stroke-width="2"/>
    <line id="Línea_473" data-name="Línea 473" x1="89.523" transform="translate(689.26 3478.343)" fill="none" stroke="#009688" stroke-miterlimit="10" stroke-width="2"/>
    <line id="Línea_474" data-name="Línea 474" x2="92.422" transform="translate(689.26 3587.124)" fill="none" stroke="#009688" stroke-miterlimit="10" stroke-width="2"/>
    <line id="Línea_475" data-name="Línea 475" x2="77.234" transform="translate(889.799 3315.27)" fill="none" stroke="#8bb0bf" stroke-miterlimit="10" stroke-width="3"/>
    <line id="Línea_476" data-name="Línea 476" x2="256.978" transform="translate(889.799 3355.876)" fill="none" stroke="#8bb0bf" stroke-miterlimit="10" stroke-width="3"/>
    <line id="Línea_477" data-name="Línea 477" y1="56.175" x2="79.572" transform="translate(889.799 3331.629)" fill="none" stroke="#baeaff" stroke-miterlimit="10" stroke-width="3"/>
    <line id="Línea_478" data-name="Línea 478" x2="261.769" transform="translate(886.663 3387.804)" fill="none" stroke="#baeaff" stroke-miterlimit="10" stroke-width="3"/>
    <line id="Línea_479" data-name="Línea 479" x2="255.644" y2="0.131" transform="translate(889.799 3514.327)" fill="none" stroke="#00574f" stroke-miterlimit="10" stroke-width="3"/>
    <path id="Trazado_243742" data-name="Trazado 243742" d="M225.656,249.534l-9.419-12.473-6.092,14.394Z" transform="translate(313 3217)" fill="#12263f"/>
    <path id="Trazado_243743" data-name="Trazado 243743" d="M226.313,276.5l-13.536-7.815v15.63Z" transform="translate(313 3217)" fill="#a5d6a7"/>
    <path id="Trazado_243744" data-name="Trazado 243744" d="M225.695,167.465l-13.536-7.815v15.63Z" transform="translate(313 3217)" fill="#12263f"/>
    <path id="Trazado_243745" data-name="Trazado 243745" d="M225.537,85.933,212,78.118v15.63Z" transform="translate(313 3217)" fill="#12263f"/>
    <path id="Trazado_243746" data-name="Trazado 243746" d="M660.591,111.425l-15.483,2.139L654.7,125.9Z" transform="translate(313 3217)" fill="#baeaff"/>
    <path id="Trazado_243747" data-name="Trazado 243747" d="M660.516,97.857,646.98,90.042v15.63Z" transform="translate(313 3217)" fill="#8bb0bf"/>
    <path id="Trazado_243748" data-name="Trazado 243748" d="M840.043,138.876l-13.536-7.815v15.63Z" transform="translate(313 3217)" fill="#8bb0bf"/>
    <path id="Trazado_243749" data-name="Trazado 243749" d="M840.043,170.8l-13.536-7.815v15.63Z" transform="translate(313 3217)" fill="#baeaff"/>
    <path id="Trazado_243750" data-name="Trazado 243750" d="M842.2,297.458l-13.536-7.815v15.63Z" transform="translate(313 3217)" fill="#00574f"/>
    <path id="Trazado_243751" data-name="Trazado 243751" d="M225.695,369.558l-13.536-7.815v15.63Z" transform="translate(313 3217)" fill="#a5d6a7"/>
    <path id="Trazado_243752" data-name="Trazado 243752" d="M476.607,370.124l-13.536-7.815v15.63Z" transform="translate(313 3217)" fill="#009688"/>
    <path id="Trazado_243753" data-name="Trazado 243753" d="M476.459,261.342l-13.536-7.815v15.63Z" transform="translate(313 3217)" fill="#009688"/>
    <path id="Trazado_243754" data-name="Trazado 243754" d="M476.459,170.8l-15.25,3.425L471.8,185.723Z" transform="translate(313 3217)" fill="#009688"/>
    <path id="Trazado_243755" data-name="Trazado 243755" d="M476.752,104.252l-15.62-.548,7.335,13.8Z" transform="translate(313 3217)" fill="#009688"/>
    <path id="Rectángulo_316790" data-name="Rectángulo 316790" d="M20,0H130a20,20,0,0,1,20,20V178a0,0,0,0,1,0,0H0a0,0,0,0,1,0,0V20A20,20,0,0,1,20,0Z" transform="translate(285 3273)" fill="#12263f"/>
    <path id="Rectángulo_316791" data-name="Rectángulo 316791" d="M0,0H150a0,0,0,0,1,0,0V158a20,20,0,0,1-20,20H20A20,20,0,0,1,0,158V0A0,0,0,0,1,0,0Z" transform="translate(285 3451)" fill="#a5d6a7"/>
    <text id="AGUAS_SUPERFICIALES_Y_SUBTERRANEAS" data-name="AGUAS 
SUPERFICIALES
Y SUBTERRANEAS" transform="translate(360 3349)" fill="#fff" font-size="16" font-family="Roboto-Regular, Roboto" letter-spacing="-0.025em"><tspan x="-26.672" y="0">AGUAS </tspan><tspan x="-54.92" y="19.2">SUPERFICIALES</tspan><tspan x="-63.599" y="38.4">Y SUBTERRANEAS</tspan></text>
    <text id="HUMEDAD_DEL_SUELO" data-name="HUMEDAD DEL
SUELO" transform="translate(360 3536)" fill="#144677" font-size="16" font-family="Roboto-Regular, Roboto" letter-spacing="-0.024em"><tspan x="-52.137" y="0">H</tspan><tspan y="0" letter-spacing="-0.025em">UMEDAD DEL</tspan><tspan letter-spacing="-0.025em"><tspan x="-23.231" y="19.2">SUELO</tspan></tspan></text>
  </g>
</svg>
