<svg id="Grupo_243415" data-name="Grupo 243415" xmlns="http://www.w3.org/2000/svg" xmlns:xlink="http://www.w3.org/1999/xlink" width="718.552" height="478.656" viewBox="0 0 718.552 478.656">
  <defs>
    <clipPath id="clip-path">
      <rect id="Rectángulo_316439" data-name="Rectángulo 316439" width="718.552" height="478.656" fill="none"/>
    </clipPath>
    <clipPath id="clip-path-4">
      <rect id="Rectángulo_316442" data-name="Rectángulo 316442" width="18.466" height="36.255" transform="translate(373.327 22.461)" fill="none"/>
    </clipPath>
    <clipPath id="clip-path-6">
      <rect id="Rectángulo_316443" data-name="Rectángulo 316443" width="18.466" height="36.255" transform="translate(372.404 419.06)" fill="none"/>
    </clipPath>
    <clipPath id="clip-path-7">
      <rect id="Rectángulo_316445" data-name="Rectángulo 316445" width="18.466" height="36.256" transform="translate(450.924 89.242)" fill="none"/>
    </clipPath>
    <clipPath id="clip-path-9">
      <rect id="Rectángulo_316447" data-name="Rectángulo 316447" width="18.466" height="36.255" transform="translate(455.215 344.292)" fill="none"/>
    </clipPath>
  </defs>
  <g id="Grupo_243389" data-name="Grupo 243389">
    <g id="Grupo_243388" data-name="Grupo 243388" clip-path="url(#clip-path)">
      <path id="Trazado_243756" data-name="Trazado 243756" d="M513.359,238.98c0,131.8-106.845,238.644-238.644,238.644S36.07,370.78,36.07,238.98,142.915.336,274.715.336,513.359,107.18,513.359,238.98" fill="#d6f2ff"/>
      <path id="Trazado_243757" data-name="Trazado 243757" d="M340.254,478.656H14.749s24.519-16.581,115.722-27.709,209.783,27.709,209.783,27.709" fill="#8bb0bf"/>
      <path id="Trazado_243758" data-name="Trazado 243758" d="M466.059,227.6c2.614,2.121,5.511,3.978,7.791,6.413,6.862,7.329,6.125,15.988-1.688,22.3-1.366,1.1-2.523,1.67-2.173,4.134,1,7.022-2.764,11.789-10.346,13.9-2.5.7-4.919.434-4.635,4.639.233,3.453-7.54,8.351-11.91,8.38-6.539.042-11.851-2.287-15.152-8.239-1.121-2.02-2.192-4.067-3.286-6.1-.852-1.99-.3-4.083-.467-6.125a11.542,11.542,0,0,1,1.494-6.055,6.357,6.357,0,0,1,1.515-1.663c.3-1.592,4.579.283,2.727-3.17a13.682,13.682,0,0,1-3.22-4.688c-.414-1.425-1.325-2.623-1.841-4.006-.1-6.022.973-11.714,4.577-16.729a14.039,14.039,0,0,1,2.35-2.9c1.4-1.143,3.189-2.614,4.762-1.453,2.081,1.535-.082,3.175-.9,4.534-5.45,9.007-5.774,14.4-1.214,20.12,2.569,3.225,5.717,4.8,9.841,3.889,3.961-.876,4.3-4.327,5.1-7.421.311-1.214.421-2.463.615-3.7,2.046-13.031-4.481-23.189-17.237-27.023-4.21-1.265-7.335.253-9.963,3.335a40.623,40.623,0,0,0-7.761,13.978c-3.308,10.3-10.086,16.553-20.139,20.466-11.625,4.525-22.849,10.089-34.307,15.072-5.756,2.5-10.316,1.26-15-1.866-9.2-6.145-18.731-11.809-27.558-18.516a27.092,27.092,0,0,0-3.6-2.47c-.549,2,.467,3.59.621,5.275.042,3.7,1.829,6.283,4.833,8.385,9.024,6.314,17.439,13.555,27.9,17.621a14.494,14.494,0,0,0,10.832.068c15.487-5.6,29.388-14.426,44.226-21.328,5.861-2.726,6.826-2.522,10.957,2.219.248,3.475-2.271,4.555-4.85,5.585-.96-3.855-3.316-2.265-5.356-1.281-12.534,6.047-25.132,11.972-37.53,18.288-8.674,4.42-16.65,3.524-24.923-1.122-8.685-4.877-16.8-10.608-25.578-16.628,1.594,16.835,1,32.814-4.4,48.211-8.749,24.931-25.225,44.1-45.81,60.021-18.7,14.458-39.609,23.957-63.116,27.429-2.1.309-4.012.466-3.956,3.709.214,12.309.086,24.625.086,37.468,8.4-3.019,16.471-5.849,25.03-6.545,20.22-1.644,39.084,2.258,55.858,14.176,3.8,2.7,7.254,5.865,9.318,10.167,2.573,5.364.792,8.17-5.144,8.17-32.88-.005-65.761-.1-98.64.017-3.828.013-4.8-1.147-4.724-4.845.368-18.579.438-37.162.721-55.743.048-3.125.2-5.336-4.22-5.314-4.389.021-3.838,2.456-3.8,5.167.256,18.4.335,36.806.826,55.2.123,4.571-1.353,5.552-5.663,5.534-32.522-.14-65.045-.023-97.568-.008-6.3,0-8.281-3.373-4.943-8.959,4.068-6.813,10.361-11.292,17.337-14.7,22.475-10.973,45.478-12.556,68.987-3.439a25.067,25.067,0,0,0,2.545.76c.154.041.347-.063.908-.182,0-12.914-.048-25.914.044-38.912.016-2.346-1.036-2.932-3.091-3.334-26.7-5.226-49.722-17.331-68.58-37.055-1.936-2.026-2.884-1.69-4.375.416-5.064,7.149-10.371,14.094-17.411,19.514a35.755,35.755,0,0,1-9.779,5.445C42.5,389.5,34.78,384.374,34.1,374.174c-.146-2.166.257-3.945-3.012-4.365-6.28-.807-11.22-4.064-12.766-10.569-1.614-6.791,1.9-11.661,7.028-15.62.821-.633,1.637-1.273,2.507-1.951a94.47,94.47,0,0,1-8.013-5.593c-4.49-3.851-5.068-8.267-2.15-13.42,5.135-9.067,16.644-11.371,26.1-5.363,1.353.86,2.705,3.347,4.422,1.854a8.2,8.2,0,0,0,2.165-5.336c.136-2.447-2.536-2.081-4.03-2.542A200.408,200.408,0,0,1,19,300.407a53.574,53.574,0,0,1-12.8-8.694c-8.577-7.738-8.26-16.1.982-23.135,15.657-11.919,32.567-21.924,49.409-32.012a18.491,18.491,0,0,0,8.083-8.725c8.244-18.594,19.895-35.01,32.9-50.555,14.352-17.156,27.785-34.974,36.714-55.694,11.463-26.605,11.664-52.989-2.061-78.984-1.079-2.045-1.919-4.217-2.849-6.34-.351-.8-.643-1.63-1-2.532,2.107-1.084,3.492.454,4.939,1.166,17.171,8.444,32.313,19.944,45.708,33.332,34.118,34.1,67.12,69.281,97.549,106.757a189.9,189.9,0,0,1,31.216,56.427,13.882,13.882,0,0,0,4.928,6.7c11.78,9,23.69,17.8,36.308,25.615,3.443,2.132,6.447,2.478,10.381.6,12.4-5.908,25.011-11.359,37.6-16.848a18.069,18.069,0,0,0,9.882-9.963c3.354-7.906,7.169-15.555,13.1-21.952,4.967-5.353,8.343-6.042,15.3-3.831,6.386,2.029,10.491,7.216,15.882,10.586,1.16.68,2.525.624,3.761,1.036,1.318.377,2.625.783,3.94,1.167,1.358.454,2.777.67,4.147,1.08a5.1,5.1,0,0,1,3.031,1.986" fill="#12263f"/>
      <path id="Trazado_243759" data-name="Trazado 243759" d="M452.808,225.548c-.853.113-1.473-.127-1.627-1.073,4.363-4.459,8.675-8.971,13.1-13.37q38.37-38.158,76.766-76.292c1.264-1.258,2.461-2.249,3.973-.658,1.6,1.691.119,2.876-.985,3.989-19,19.153-37.172,39.1-55.68,58.718-8.779,9.307-17.3,18.86-25.943,28.293-.773.843-1.609,1.628-2.415,2.441-.606-.068-1.275.055-1.7-.562.578-2.266,2.4-3.686,3.805-5.34,5.137-6.043,10.788-11.622,16.188-17.426,8.641-9.287,17.417-18.447,25.861-27.917,4.219-3.681,7.507-8.247,11.507-12.137,8.832-8.808,17.061-18.2,24.252-25.08-6.489,6.758-15.214,14.845-23.516,23.356q-27.537,27.4-54.915,54.966a61.758,61.758,0,0,0-6.3,6.659,3.439,3.439,0,0,1-2.374,1.433" fill="#503110"/>
      <path id="Trazado_243760" data-name="Trazado 243760" d="M425.362,247.566c1.8.366,2.455,1.465,2.058,3.232-.266,2.551-2.235,3.949-3.838,5.56q-13.514,13.578-27.091,27.094a70.508,70.508,0,0,0-5.845,6.889c-1.67,2.152-1.914,4.125.22,6.07,2.992,2.526,4.9.226,6.776-1.616,8.1-7.941,15.135-16.9,23.53-24.551,1.234-1.125,1.9-3.132,4.1-2.926.194,1.946.4,3.893-.611,5.708-8.923,8.487-16.642,18.086-24.976,27.118-4.219,4.574-7.206,4.843-11.636.5-4.715-4.619-6.662-8.02-1.93-12.888,7.572-7.79,14.794-15.923,22.82-23.29l4.474-4.858c-.209-2.346,1.717-3.411,2.928-4.91,3.087-2.275,4.738-6.375,9.023-7.135" fill="#523313"/>
      <path id="Trazado_243761" data-name="Trazado 243761" d="M58.633,282.151c-.728-27.431,9.115-51.629,22.754-74.7,10.054-17,23.739-31.215,35.66-46.782,11.214-14.641,21.009-30.1,26.634-47.92,6.531-20.689,5.117-40.761-3.68-60.476-1.765-3.956-4.632-7.519-5.028-12.872a225.792,225.792,0,0,1,21.806,15.523c19.01,15.28,34.971,33.614,51.387,51.476,17.147,18.659,34.086,37.51,51.088,56.3,13.933,15.4,26.725,31.624,35.856,50.44,1.554,3.2,3.235,6.363,3.935,9.908a113.441,113.441,0,0,1,6.7,42.521c-.631,22.775-5.882,44.064-19.515,62.908-21.927,30.311-50.853,49.927-87.777,56.27-30.19,5.186-59.36.148-85.707-15.564C88.456,354.7,70.325,334.4,62.353,306.418a117.322,117.322,0,0,1-3.72-24.267" fill="#baeaff"/>
      <path id="Trazado_243762" data-name="Trazado 243762" d="M58.633,282.151c1.594,7.739,2.924,15.544,4.838,23.2C67.16,320.113,74.9,332.773,84.812,344.12a115.172,115.172,0,0,0,65.736,38.014c21.656,4.318,43.25,4.137,64.652-2.736,17.243-5.538,32.135-14.791,46.266-25.805a110.111,110.111,0,0,0,18.578-19.053c11.4-14.487,20.134-30.418,22.23-49.312.939-8.471,2.419-16.866,2.059-25.44-.433-10.311-1.52-20.526-4.552-30.427a17,17,0,0,1-.736-6.3c5.644,9.3,8.088,19.7,10.107,30.192,4.312,22.41,3.208,44.513-6.258,65.466C293.987,338.429,280,354.4,262.946,367.57s-36.039,22.358-57.325,26.313a134.32,134.32,0,0,1-55.168-1.54c-21.734-4.992-40.934-14.789-56.925-30.288C73.468,342.612,59.441,319.968,58.63,291c-.082-2.934-1.974-5.91,0-8.846" fill="#8bb0bf"/>
      <path id="Trazado_243763" data-name="Trazado 243763" d="M425.362,247.566l-8.391,7.955c-.723.167-1.621.242-2.02-.322-3.447-4.884-7.021-3.364-11.371-.981-12.848,7.036-26.416,12.589-39.8,18.506-7.984,3.53-15.5,4.2-23.287-1.128-7.2-4.929-14.817-9.275-21.958-14.337a15.437,15.437,0,0,1-4.592-5.108c-.642-2.561-1.283-5.122-2.267-9.053,3.075,2.09,5.229,3.431,7.25,4.949,9.579,7.191,19.786,13.429,29.871,19.856,3.236,2.062,6.149,2.342,9.946.78,15.029-6.18,29.77-12.98,44.521-19.773a12.367,12.367,0,0,0,6.141-6.4c3.05-6.453,5.913-13.017,9.35-19.261,5.361-9.74,11.263-11.042,20.712-5.108C452,226.017,455.75,238.63,449.613,252.26c-2.088,4.638-8.648,5.947-13.34,2.663a15.7,15.7,0,0,1-4.863-20.041c1.472-2.746,3.386-5.255,4.734-8.115-5.863,3.037-8.675,8.219-9.6,14.552-.307,2.11-.263,4.26-1.183,6.247" fill="#baeaff"/>
      <path id="Trazado_243764" data-name="Trazado 243764" d="M42.6,379.828c-2.722-3.887-2.167-8.559,1.674-12.816,2.893-3.209,6.6-5.422,10.106-7.868,1.741-1.216,3.532-2.322,4.011-5.1-5.46.8-9.239,4.112-13.042,7.143a16.363,16.363,0,0,1-15.079,3.174c-7.7-1.988-9.551-8.8-4.075-14.624,5.14-5.46,11.972-6.693,18.968-7.453,2.256-.245,4.66.129,6.575-1.707-1.469-2.809-4.047-1.727-6.158-1.72-7.259.026-14.192-1.177-20.513-4.923-4.961-2.94-5.357-6.745-1.214-10.814,4.656-4.574,10.585-5.387,16.707-2.2a39.06,39.06,0,0,1,9.225,7.238c1.721,1.7,3.392,3.77,7.309,2.613-5.68-4.659-4.765-9.746-1.372-16.357,3.688,13.3,10.124,23.871,17.026,34.2-.487,5.239-4.015,8.959-6.859,12.87-5.383,7.4-12.695,12.791-20.285,17.769a3.158,3.158,0,0,1-3,.578" fill="#baeaff"/>
      <path id="Trazado_243765" data-name="Trazado 243765" d="M185.452,456.916c.021-17.3.152-34.594-.026-51.888-.038-3.741,1.852-3.7,4.559-4.053,4-.524,2.817,2.217,2.83,4.015.1,13.194.254,26.392.035,39.583-.079,4.762.993,5.563,5.295,3.383,16.4-8.31,33.666-11.792,51.756-7.071,11.143,2.908,22.5,5.958,29.885,16.086-2.009,1.979-4.605,1.712-7.062,1.717q-40.111.078-80.223,0c-2.466,0-5.052.209-7.049-1.774" fill="#baeaff"/>
      <path id="Trazado_243766" data-name="Trazado 243766" d="M73.683,456.943c7.326-9.87,18.436-13.08,29.417-15.919,18.024-4.66,35.321-1.619,51.846,6.634,5.588,2.792,5.6,2.7,5.594-3.634,0-11.412.041-22.824.066-34.236,2.468-1.68,4.887-.614,7.312.13q.044,23.5.087,47.007c-2.019,1.938-4.594,1.74-7.066,1.746q-41.175.093-82.352-.016c-1.676,0-4.071,1.1-4.9-1.712" fill="#baeaff"/>
      <path id="Trazado_243767" data-name="Trazado 243767" d="M14.532,281.583a153.6,153.6,0,0,0,28.835,11.155c9.72,2.851,10.305,3.495,9.7,14.878-14.62-3.732-28.821-8.129-41.135-17.142a28.281,28.281,0,0,1-3.943-3.615c-4.086-4.409-4.089-7.068.3-11.427,9.444-9.387,20.751-16.309,31.8-23.54,5.785-3.788,11.858-7.137,18.5-11.1-.656,5.447-2.347,9.007-6.371,11.828-10.956,7.682-21.853,15.466-32.157,24.029-1.76,1.462-3.418,3.048-5.523,4.936" fill="#baeaff"/>
      <path id="Trazado_243768" data-name="Trazado 243768" d="M516.079,164.727l-11.37,12.028a67.793,67.793,0,0,0-9.154,9.1c-3.4,3.9-7.162,7.425-10.63,11.241-8.075,8.887-16.872,17.087-24.859,26.064-1.176,1.322-2.14,3.249-4.427,3.125a5.554,5.554,0,0,1-2.831-.733c18.225-19.088,37.007-37.621,55.8-56.146q3.717-3.663,7.445-7.316c1.991.858.09,1.759.029,2.639" fill="#fff59d"/>
      <path id="Trazado_243769" data-name="Trazado 243769" d="M313.94,252.151a269.076,269.076,0,0,0,31.089,20.333,12.654,12.654,0,0,0,10.662,1.391c14.675-4.528,28.209-11.636,41.975-18.2,3.489-1.664,7.141-3.051,10.381-5.341,1.708-1.207,3.871-1.331,5.163,1.5.68,1.491,2.473,2.475,3.763,3.689l-3.56,4.09c-3.108-4.565-6.565-3.443-10.837-1.37-14.853,7.208-29.03,15.819-44.638,21.487a11.869,11.869,0,0,1-8.224.284c-11.247-3.628-20.061-11.2-29.495-17.806-3.6-2.52-7.188-4.82-6.279-10.054" fill="#8bb0bf"/>
      <path id="Trazado_243770" data-name="Trazado 243770" d="M24.178,280.721A206.5,206.5,0,0,1,54.151,257.3a177.456,177.456,0,0,0-2.535,30.614c.045,3.015-1.4,2.45-3.338,1.931a142.763,142.763,0,0,1-24.1-9.122" fill="#fafdfd"/>
      <path id="Trazado_243771" data-name="Trazado 243771" d="M185.452,456.916l94.334.055c2.735,3.038,2.316,4.473-2.028,4.453q-44.16-.2-88.32-.217c-3.257,0-4.758-.9-3.986-4.291" fill="#8bb0bf"/>
      <path id="Trazado_243772" data-name="Trazado 243772" d="M73.683,456.943l94.322-.018c.556,2.831-.181,4.279-3.494,4.278q-44.446-.006-88.892.215c-4.461.018-4.646-1.532-1.936-4.475" fill="#8bb0bf"/>
      <path id="Trazado_243773" data-name="Trazado 243773" d="M389.891,297.339c-3.665-2.57-2.574-5.184-.22-8,9.285-11.1,19.9-20.895,30.129-31.077,2.52-2.509,5.082-4.977,7.622-7.465q1.641,2.4,3.286,4.811c.664,2.506-2.177,2.654-2.86,4.255l-1.06.912q-15,17.239-31.264,33.29c-1.544,1.528-2.773,3.89-5.633,3.272" fill="#fff59d"/>
      <path id="Trazado_243774" data-name="Trazado 243774" d="M455.639,226.283c6.633-6.891,13.3-13.747,19.874-20.7,1.792-1.894,3.754-3.6,5.531-5.524,6.78-7.345,13.844-14.427,20.822-21.588.783-.8,1.443-1.9,2.843-1.72-9.29,10.823-19.347,20.94-28.987,31.441-5.785,6.3-11.617,12.561-17.427,18.839a3.778,3.778,0,0,1-2.656-.752" fill="#fff59d"/>
      <path id="Trazado_243775" data-name="Trazado 243775" d="M455.46,242.469c-.06-4.641,3.633-9.429-1.129-13.917,12.388.178,22.165,10.205,19.4,19.3-6.813,3.009-13.592,1.01-18.267-5.385" fill="#baeaff"/>
      <path id="Trazado_243776" data-name="Trazado 243776" d="M42.6,379.828c12.766-7.782,23.155-17.859,30.147-31.217,3.514,2.816,2.885,5.475.5,8.969a118.253,118.253,0,0,1-17.623,20.446c-4.85,4.459-9.083,4.9-13.021,1.8" fill="#8bb0bf"/>
      <path id="Trazado_243777" data-name="Trazado 243777" d="M389.891,297.339c6.32-5.233,11.714-11.39,17.443-17.224,6.4-6.521,11.772-14.1,19.454-19.338q-.758,3.267-1.516,6.538-13.916,14.8-27.81,29.61c-2.479,2.659-4.866,3.554-7.571.414" fill="#fff59d"/>
      <path id="Trazado_243778" data-name="Trazado 243778" d="M443.7,260.657a11.971,11.971,0,0,0,8.32-6.152c1.172-2.177,2.07-2.379,3.923-.71a11.169,11.169,0,0,0,4.619,2.548c5.366,1.3,5.8,4.443,3.73,8.773-5.93,4.281-11.977,2.666-17.9.136-1.721-.734-3.193-2.247-2.687-4.6" fill="#baeaff"/>
      <path id="Trazado_243779" data-name="Trazado 243779" d="M429.691,263.9c2.318-4.049,5-2.612,6.737.129a22.678,22.678,0,0,0,11.071,9.361c2.773,1.09,3.285,2.886,2.347,5.441-7.824,3.567-16.2-.863-19.373-10.216a19.371,19.371,0,0,1-.782-4.715" fill="#baeaff"/>
      <path id="Trazado_243780" data-name="Trazado 243780" d="M443.7,260.657c5.542,7.589,13.181,5.492,20.591,4.458-3.106,6.138-11.238,8.514-17.717,4.774-3.333-1.925-6.262-4.6-7.555-8.542,1.548-1.306,3.171-.578,4.681-.69" fill="#8bb0bf"/>
      <path id="Trazado_243781" data-name="Trazado 243781" d="M429.691,263.9A13.645,13.645,0,0,1,431,266.07c4.055,10.752,7.6,13.169,18.85,12.766-4.668,6.042-14.876,4.82-19.1-2.367-2.333-3.971-3.266-8.161-1.058-12.564" fill="#8bb0bf"/>
      <path id="Trazado_243782" data-name="Trazado 243782" d="M455.46,242.469a23.235,23.235,0,0,0,18.267,5.384c-2.766,5.753-7.063,7.066-14.059,4.112-4.28-1.807-6.588-4.656-4.208-9.5" fill="#8bb0bf"/>
      <path id="Trazado_243783" data-name="Trazado 243783" d="M167.918,409.919c-2.472,1.884-4.868-.482-7.312-.131a43.468,43.468,0,0,1-.065-5.871c.181-1.579-1.32-4.517,2.078-4.2,2.484.232,6.257-.457,5.538,4.336a51.525,51.525,0,0,0-.239,5.866" fill="#8bb0bf"/>
      <path id="Trazado_243784" data-name="Trazado 243784" d="M427.848,259.865c.19-1.931,2.282-2.585,2.86-4.255,1.371.235,1.967,1.282,2.893,2.359l-5.753,1.9" fill="#a49d85"/>
      <path id="Trazado_243785" data-name="Trazado 243785" d="M516.079,164.727c-.362-.876,1.11-1.771-.029-2.639,8.252-9.074,17.619-17.009,26.372-25.593-8.812,9.389-17.032,19.315-26.343,28.232" fill="#fff59d"/>
      <path id="Trazado_243786" data-name="Trazado 243786" d="M264.542,273.541c-9.167,12.7-20.491,22.76-35.27,28.475a122.017,122.017,0,0,1-12.7,4.121,10.477,10.477,0,0,0-7.613,6.823c-2.827,7.47-5,14.961-.367,22.557-1.573,1.9-3.409,1.585-5.321.632-3.972-5.889-2.432-12.213-1.454-18.495.229-.882.39-1.785.7-2.643,2.069-4.724-.616-4.351-4.005-4.075-22.968,1.87-45.5-.152-67.348-7.915-2.962-1.95-6.233-3.368-9.617-5.382.888,5.618,3.585,10.248,5.881,15.027,7.206,13.916,16.437,26.056,30.06,34.349,1.524.928,2.9,2.069,4.423,2.994a12.065,12.065,0,0,0,3.382,1.8c17.53,6.078,33.573,2.592,48.582-7.519a17.428,17.428,0,0,1,3.7-2.871,23.679,23.679,0,0,0,2.372-1.192c2.442-1.575,4.9-3.287,7.871-1.406,2.95,1.87,2.927,4.776,1.956,7.63-.8,2.349.183,3.17,2.181,3.874,1.336.471,2.867,1.552,2.557,3.07-.487,2.384-2.338.255-3.519.62a3.077,3.077,0,0,1-1.064-.058c-6.956-.532-6.952-.531-5-7.561.23-.832.386-1.684.69-3.027-2.847.379-4.344,2.125-5.979,3.557-15.277,13.374-47.567,18.548-67.018,3.714-13.6-10.37-25.094-22.862-31.364-39.271-2.164-5.663-4.019-11.444-6.123-17.131-.738-1.995-1.441-4.178-2.781-5.743-4.207-4.909-7.421-10.433-10.653-15.966-2.863-2.259-3.579-5.661-4.6-8.858-.914-2.876-2.3-3.325-4.591-1.385-1.085.919-2.175,1.843-3.3,2.706s-2.107,3.141-3.861,1.6c-1.441-1.27-1.079-3.34-.216-5,2.312-4.441,6.288-7.177,10.341-9.8,3.363-2.177,7.186-3.078,11.051-3.763,2.065-.366,4.07-.085,4.509,2.492.382,2.24-.78,3.679-2.8,4.6-6.322,2.868-6.3,2.883-3.872,9.227.759,1.982,1.776,3.916,1.44,6.16,6.158,13.746,16.454,23.4,30.421,28.464,32.91,11.935,65.726,11.973,97.687-3.328,10.529-5.04,19.492-12.5,25.523-22.892.341-2.931,2.207-5.2,3.392-7.759,3.436-7.427,6.775-14.872,7.861-23.112.186-1.406.158-3.725,2.294-3.471,1.491.177,1.568,2.216,1.6,3.614.289,11.659-1.806,22.576-10.04,31.528" fill="#12263f"/>
      <path id="Trazado_243787" data-name="Trazado 243787" d="M128.593,256.214c-6-12.179-8.7-24.888-5.458-38.322,3.089-12.8,9.32-23.433,23.052-26.856,12.433-3.1,24.967,3.846,32.647,17.09,1.242,2.142,2.274,4.4,3.653,7.1,2.508-3.792,4.507-7.459,7.49-10.46,15.654-15.751,38.469-10.277,45.443,10.893,3.872,11.753,2.924,23.15-1.832,34.393-6.04,15.826-22.724,23.6-37.217,17.3-5.565-2.42-9.537-6.738-13.018-12.071-7.29,11.112-15.252,20.657-29.577,19.452-11.921-1-19.679-8.409-25.183-18.52" fill="#0a4b7d"/>
      <path id="Trazado_243788" data-name="Trazado 243788" d="M157.475,129.285c.321,2.616-.947,5.007-2.288,7.32-7.355,12.685-16.393,24.129-26.158,35.01-1.433,1.6-3.061,4.214-5.722,2.619-2.413-1.446-1.278-4.187-1.07-6.406a11.316,11.316,0,0,1,1.039-3.58c6.418-13.989,14.258-27.085,24.66-38.516,1.789-1.966,3.965-4.046,6.936-2.679,2.39,1.1,2.648,3.6,2.6,6.232" fill="#f9fdfd"/>
      <path id="Trazado_243789" data-name="Trazado 243789" d="M130.484,187.686c2.382-8.268,7.052-15.485,16.49-18.471,2.567-.812,5.747-3.634,7.8-1.506,2.747,2.844,4.212,6.965,5.025,11.054.354,1.776-1.021,2.14-2.188,2.422-8.748,2.116-17.006,5.269-24.075,11.039-.706.576-1.661,1.184-2.364.413-1.029-1.127-.592-2.7-.689-4.951" fill="#093043"/>
      <path id="Trazado_243790" data-name="Trazado 243790" d="M229.5,196.014c-8.938-5.335-17.592-6.987-26.559-7.409-2.818-.133-3.373-1.458-2.708-4.223,2.639-10.966,2.534-10.969,13.185-6.769,7.929,3.126,14.416,7.533,16.082,18.4" fill="#0b3143"/>
      <path id="Trazado_243791" data-name="Trazado 243791" d="M217.575,341.418c-.339,1.226-.728,2.415-2.126,2.851-1.732-.109-2.733-1.556-4.15-2.246a21.685,21.685,0,0,0-2.486-1.269,17.678,17.678,0,0,0-6.916-.244c-2.618.319-4.554,1.279-3.39,4.541.423,1.184.774,2.588-.525,3.385s-2.395-.269-3.341-1a22.281,22.281,0,0,0-13.828-4.975c-6.368-.059-11.567,1.879-14.713,7.8a7.512,7.512,0,0,1-2.111,2.385c-1.308.048-1.844-.9-2.379-1.846-1.369-2.667.553-4.437,1.916-6.15,5.52-6.937,13.038-8.767,21.473-8.043a14.307,14.307,0,0,0,13.481-.828c1.511-.851,3.249-1.385,5-.377l5.115.124c3.611,1.02,6.372,3.345,8.982,5.9" fill="#6a283c"/>
      <path id="Trazado_243792" data-name="Trazado 243792" d="M122.676,186.247c.065,4.814-2.8,9.036-5.748,9.028-2.816-.008-6.756-4.72-6.429-8.143.4-4.146,3.185-6.4,7.118-6.609,4.123-.219,4.4,3.326,5.059,5.724" fill="#f1fdfd"/>
      <path id="Trazado_243793" data-name="Trazado 243793" d="M185.171,337.832c-10.411-.329-19.335,2.046-23.561,12.961-10.451-4.444-17.977-12.208-24.567-21.19-3.863-5.266-8.981-9.662-10.758-16.3,1.589-1.357,3.411-.843,5.111-.476a256.524,256.524,0,0,0,35.95,4.616c10.683-.444,13.944,7.558,17.362,15.332.7,1.59,1.412,3.27.463,5.053" fill="#144677"/>
      <path id="Trazado_243794" data-name="Trazado 243794" d="M163.988,352.638c1.914-12.3,20.967-16.825,33.55-4.452.2-.227.492-.423.567-.682.708-2.453-3.832-3.723-1.887-5.918,2.468-2.787,6.221-3.18,9.9-2.878,1.415.117,2.877.1,3.877,1.379-.535,2.323.327,2.4,1.972,1.228l3.482,2.954c-7.63,8.477-18.281,9.814-28.545,11.6a35.884,35.884,0,0,1-22.915-3.229" fill="#f395bb"/>
      <path id="Trazado_243795" data-name="Trazado 243795" d="M130.629,301.288c24.377,8.782,49.473,10.427,75.495,7.342a19.071,19.071,0,0,1-2.32,6.925A11.482,11.482,0,0,1,197.4,317.9c-20.586.4-41.136.172-61.465-3.673-4.708-.89-7.167-6.986-5.3-12.941" fill="#f5fafc"/>
      <path id="Trazado_243796" data-name="Trazado 243796" d="M185.171,337.832c-1.585-3.568-3.22-7.116-4.743-10.71-2.313-5.461-6.439-8.187-12.309-8.393,1.051-1.269,2.53-1.117,3.936-1.158,9.931-.3,19.893.638,29.8-.762.554-.078.983.357,1.444.616a35.3,35.3,0,0,0,.18,17.972,32.386,32.386,0,0,0-5.408,2.078c-4.294,2.568-8.523,2.9-12.9.357" fill="#436b92"/>
      <path id="Trazado_243797" data-name="Trazado 243797" d="M203.3,317.424c-11.674,1.83-23.453.828-35.177,1.3a253.774,253.774,0,0,1-41.834-5.423,70.508,70.508,0,0,1-7.048-18.315l11.392,6.3c-.229,3.326,1.833,6.105,2.212,9.3.269,2.269,2.117,2.363,3.979,2.7,22.222,4.056,44.572,4.032,66.984,2.259q-.254.936-.508,1.87" fill="#d2edf8"/>
      <path id="Trazado_243798" data-name="Trazado 243798" d="M155.43,193.065c7.52.706,12.687,5.214,17.029,10.826,11.936,15.431,13.249,39.646,3.079,54.627-4.743,3.14-9.45,6.356-15.39,6.79-10.857.794-23.739-4.748-28.976-19.846-4.595-13.244-4.384-26.261,2.639-38.644A29.371,29.371,0,0,1,151.8,192.744a4.667,4.667,0,0,1,3.633.321" fill="#fdfefe"/>
      <path id="Trazado_243799" data-name="Trazado 243799" d="M224.04,203.418c12.456,11.181,14.087,33.873,3.508,49.614a51.583,51.583,0,0,1-3.735,4.43c-9.3,6.5-18.8,6.441-28.377.732-4.663-2.779-7.185-7.256-8.733-12.255-.614-1.984-.952-4.353,2.087-5.057,2.2.46,2.845,2.526,4.038,4.011,3.457,4.3,7.665,4.263,10.962-.151,3.445-4.611,3.556-12.891.239-17.71-2.746-3.988-6.117-4.322-9.938-1.087a11.562,11.562,0,0,0-3.719,6.921c-.884,2.3-.094,6.564-3.432,6.123-2.469-.326-.907-4.247-1.029-6.52a103.367,103.367,0,0,1,.416-13.613c2.806-9.1,8.842-15.09,17.758-18.208,6.341-2.217,12.486-2.428,17.961,2.321a2.386,2.386,0,0,0,1.994.449" fill="#fefefe"/>
      <path id="Trazado_243800" data-name="Trazado 243800" d="M155.43,193.065c-11.324,2.08-21,11.671-24.09,23.745-2.179,8.522-1.555,16.283.186,24.557,4.021,19.108,24.289,29.2,40.726,17.8,1.132-.785,1.987-1.421,3.286-.649-8.3,13.847-23.754,16.306-35.8,5.7-16.279-14.335-19.377-44.968-6.041-62.071,5.424-6.954,12.363-11.152,21.736-9.079" fill="#e3f4fa"/>
      <path id="Trazado_243801" data-name="Trazado 243801" d="M187.444,217.821c.475,6.83-2.187,13.551-.639,20.718,3.078-1.516.424-5.211,2.7-6.8,2.338,3.19,2.244,6.41.121,9.656-2.328.234-2.279,1.783-1.974,3.514,1.308,7.439,10.9,15.272,18.648,15.88,6.238.489,11.809-1.526,17.509-3.329-5.714,6.458-12.744,9.861-21.38,7.935-9.181-2.049-14.476-8.666-17.816-17.021a7.07,7.07,0,0,1-.023-3.673,55.039,55.039,0,0,0-.134-21.285c-.4-1.972-.51-3.913.891-5.606a1.429,1.429,0,0,1,2.094.009" fill="#e6f6fa"/>
      <path id="Trazado_243802" data-name="Trazado 243802" d="M187.444,217.821l-2.094-.009A29.749,29.749,0,0,1,200.136,199.9c8.22-4.408,16.87-3,23.9,3.519-.557,1.243-1.439,1.6-2.485.661-7.87-7.028-15.508-3.241-22.941.7-5.33,2.824-8.429,7.851-11.17,13.046" fill="#def1f7"/>
      <path id="Trazado_243803" data-name="Trazado 243803" d="M211.967,341.316c-.056,1.114.564,2.588-1.23,2.87a2.386,2.386,0,0,1-2.713-1.863c-.536-1.683.69-2.034,1.97-2.236l1.973,1.229" fill="#fddaf0"/>
      <path id="Trazado_243804" data-name="Trazado 243804" d="M167.988,237.383a17.59,17.59,0,0,1-3.885,10.889c-4.017,4.73-9.308,4.593-13.2-.252-4.6-5.726-4.636-16.845-.067-22.62,4.176-5.278,10.613-4.987,14.195.763a19.971,19.971,0,0,1,2.961,11.22" fill="#144677"/>
      <path id="Trazado_243805" data-name="Trazado 243805" d="M189.629,241.4q-.06-4.829-.121-9.656c1.163-5.318,5.208-9.787,9.139-9.567,5.4.3,7.492,4.359,8.643,8.84,1.386,5.4.915,10.721-2.714,15.208-5.263,6.507-10.769,4.678-14.947-4.825" fill="#144677"/>
      <path id="Trazado_243806" data-name="Trazado 243806" d="M153.866,237.856c.236-.827-2.382-.658-.695-1.991,2.476-1.5,3.614-4.1,5.221-6.316,4.806,2.847,6.071,9.346,2.518,13.309-2.228,2.485-4.515,2.4-6.674-.175-1.128-1.532-.824-3.174-.37-4.827" fill="#071b29"/>
      <path id="Trazado_243807" data-name="Trazado 243807" d="M158.393,229.549c-.468,3.157.232,7.279-5.221,6.316a14.089,14.089,0,0,1-1.741-3.176c-.648-2.56-.3-5.114,2.383-6.27,2.783-1.2,3.422,1.519,4.579,3.13" fill="#e8f3f6"/>
      <path id="Trazado_243808" data-name="Trazado 243808" d="M153.866,237.856c1.737,1.484,1.4,3.128.371,4.827-1.721.269-2.814-.473-2.978-2.176-.173-1.781.985-2.505,2.607-2.651" fill="#c5dce7"/>
      <path id="Trazado_243809" data-name="Trazado 243809" d="M194.648,236.8l2.1-1.437c.371-2.1.9-4.137,2.509-5.692a7.323,7.323,0,0,1,2.851,11c-1.785,2.751-3.963,3.523-6.4.633a6.279,6.279,0,0,1-1.058-4.5" fill="#0b1c2b"/>
      <path id="Trazado_243810" data-name="Trazado 243810" d="M199.258,229.674c-.039,2.246-.157,4.457-2.506,5.69-1.611-.287-3.063-.812-3.6-2.576-.717-2.367-.558-4.8,1.675-6.037,2.747-1.516,3.483,1.107,4.429,2.923" fill="#e0f1f4"/>
      <path id="Trazado_243811" data-name="Trazado 243811" d="M194.648,236.8c2.231,1.057,1.545,2.8,1.058,4.5-3.944-.654-3.716-2.29-1.058-4.5" fill="#cae5f0"/>
      <path id="Trazado_243812" data-name="Trazado 243812" d="M702.966,457.006H413.429A12.164,12.164,0,0,1,401.3,444.878V425.487a12.164,12.164,0,0,1,12.128-12.128H702.966a12.163,12.163,0,0,1,12.128,12.128v19.391a12.164,12.164,0,0,1-12.128,12.128" fill="#12263f"/>
    </g>
  </g>
  <text id="Fase_IV:_Formulación_de_respuesta" data-name="Fase IV: Formulación de respuesta" transform="translate(443.948 439.867)" fill="#fff" font-size="16" font-family="Roboto-Bold, Roboto" font-weight="700"><tspan x="0" y="0" letter-spacing="-0.041em">F</tspan><tspan y="0" letter-spacing="-0.025em">ase </tspan><tspan y="0" letter-spacing="-0.024em">IV</tspan><tspan y="0" letter-spacing="-0.025em">: </tspan><tspan y="0" letter-spacing="-0.035em">F</tspan><tspan y="0" letter-spacing="-0.025em">o</tspan><tspan y="0" letter-spacing="-0.024em">rm</tspan><tspan y="0" letter-spacing="-0.025em">ulación de </tspan><tspan y="0" letter-spacing="-0.034em">r</tspan><tspan y="0" letter-spacing="-0.025em">es</tspan><tspan y="0" letter-spacing="-0.024em">pu</tspan><tspan y="0" letter-spacing="-0.025em">es</tspan><tspan y="0" letter-spacing="-0.024em">t</tspan><tspan y="0">a</tspan></text>
  <g id="Grupo_243391" data-name="Grupo 243391">
    <g id="Grupo_243390" data-name="Grupo 243390" clip-path="url(#clip-path)">
      <path id="Trazado_243813" data-name="Trazado 243813" d="M703.126,387.722H490.014a11.5,11.5,0,0,1-11.467-11.468v-28.94a11.5,11.5,0,0,1,11.467-11.468H703.126a11.5,11.5,0,0,1,11.468,11.468v28.94a11.5,11.5,0,0,1-11.468,11.468" fill="#12263f"/>
    </g>
  </g>
  <text id="Fase_III:_Evaluación_de_" data-name="Fase III: Evaluación de " transform="translate(529.45 358.001)" fill="#fff" font-size="16" font-family="Roboto-Bold, Roboto" font-weight="700"><tspan x="0" y="0" letter-spacing="-0.041em">F</tspan><tspan y="0" letter-spacing="-0.025em">ase </tspan><tspan y="0" letter-spacing="-0.024em">II</tspan><tspan y="0" letter-spacing="-0.025em">I: </tspan><tspan y="0" letter-spacing="-0.037em">E</tspan><tspan y="0" letter-spacing="-0.032em">v</tspan><tspan y="0" letter-spacing="-0.025em">al</tspan><tspan y="0" letter-spacing="-0.024em">u</tspan><tspan y="0" letter-spacing="-0.025em">ación de</tspan><tspan y="0"> </tspan></text>
  <text id="sostenibilidad" transform="translate(556.986 377.201)" fill="#fff" font-size="16" font-family="Roboto-Bold, Roboto" font-weight="700"><tspan x="0" y="0" letter-spacing="-0.025em">sos</tspan><tspan y="0" letter-spacing="-0.024em">t</tspan><tspan y="0" letter-spacing="-0.025em">eni</tspan><tspan y="0" letter-spacing="-0.024em">b</tspan><tspan y="0" letter-spacing="-0.025em">ilida</tspan><tspan y="0">d</tspan></text>
  <g id="Grupo_243414" data-name="Grupo 243414">
    <g id="Grupo_243413" data-name="Grupo 243413" clip-path="url(#clip-path)">
      <path id="Trazado_243814" data-name="Trazado 243814" d="M702.466,61.137H412.929A12.164,12.164,0,0,1,400.8,49.009V29.618A12.164,12.164,0,0,1,412.929,17.49H702.466a12.164,12.164,0,0,1,12.128,12.128V49.009a12.164,12.164,0,0,1-12.128,12.128" fill="#12263f"/>
      <path id="Trazado_243815" data-name="Trazado 243815" d="M704.075,129.381H489.066a10.55,10.55,0,0,1-10.519-10.519V96.253a10.549,10.549,0,0,1,10.519-10.519H704.075a10.55,10.55,0,0,1,10.519,10.519v22.609a10.551,10.551,0,0,1-10.519,10.519" fill="#12263f"/>
      <path id="Trazado_243816" data-name="Trazado 243816" d="M422.129,39.656A38.047,38.047,0,1,1,384.082,1.609a38.047,38.047,0,0,1,38.047,38.047" fill="#baeaff"/>
      <circle id="Elipse_4262" data-name="Elipse 4262" cx="38.047" cy="38.047" r="38.047" transform="translate(338.311 67.944) rotate(-76.717)" fill="none" stroke="#12263f" stroke-miterlimit="10" stroke-width="3.219"/>
      <g id="Grupo_243397" data-name="Grupo 243397" style="isolation: isolate">
        <g id="Grupo_243396" data-name="Grupo 243396">
          <g id="Grupo_243395" data-name="Grupo 243395" clip-path="url(#clip-path-4)">
            <g id="Grupo_243394" data-name="Grupo 243394" style="isolation: isolate">
              <g id="Grupo_243393" data-name="Grupo 243393">
                <g id="Grupo_243392" data-name="Grupo 243392" clip-path="url(#clip-path-4)">
                  <text id="_1" data-name="1" transform="translate(373.327 49.994)" fill="#12263f" font-size="32.185" font-family="Roboto-Bold, Roboto" font-weight="700"><tspan x="0" y="0">1</tspan></text>
                </g>
              </g>
            </g>
          </g>
        </g>
      </g>
      <path id="Trazado_243817" data-name="Trazado 243817" d="M422.281,435.183a38.047,38.047,0,1,1-38.047-38.047,38.047,38.047,0,0,1,38.047,38.047" fill="#baeaff"/>
      <circle id="Elipse_4263" data-name="Elipse 4263" cx="38.047" cy="38.047" r="38.047" transform="translate(346.187 397.136)" fill="none" stroke="#12263f" stroke-miterlimit="10" stroke-width="3.219"/>
      <g id="Grupo_243400" data-name="Grupo 243400" style="isolation: isolate">
        <g id="Grupo_243399" data-name="Grupo 243399">
          <g id="Grupo_243398" data-name="Grupo 243398" clip-path="url(#clip-path-6)">
            <text id="_4" data-name="4" transform="translate(372.404 446.594)" fill="#12263f" font-size="32.185" font-family="Roboto-Bold, Roboto" font-weight="700"><tspan x="0" y="0">4</tspan></text>
          </g>
        </g>
      </g>
      <path id="Trazado_243818" data-name="Trazado 243818" d="M497.581,107.51a38.048,38.048,0,1,1-38.048-38.047,38.048,38.048,0,0,1,38.048,38.047" fill="#baeaff"/>
      <circle id="Elipse_4264" data-name="Elipse 4264" cx="38.047" cy="38.047" r="38.047" transform="translate(413.763 135.797) rotate(-76.717)" fill="none" stroke="#12263f" stroke-miterlimit="10" stroke-width="3.219"/>
      <g id="Grupo_243406" data-name="Grupo 243406" style="isolation: isolate">
        <g id="Grupo_243405" data-name="Grupo 243405">
          <g id="Grupo_243404" data-name="Grupo 243404" clip-path="url(#clip-path-7)">
            <g id="Grupo_243403" data-name="Grupo 243403" style="isolation: isolate">
              <g id="Grupo_243402" data-name="Grupo 243402">
                <g id="Grupo_243401" data-name="Grupo 243401" clip-path="url(#clip-path-7)">
                  <text id="_2" data-name="2" transform="translate(450.924 116.776)" fill="#12263f" font-size="32.185" font-family="Roboto-Bold, Roboto" font-weight="700"><tspan x="0" y="0">2</tspan></text>
                </g>
              </g>
            </g>
          </g>
        </g>
      </g>
      <path id="Trazado_243819" data-name="Trazado 243819" d="M501.872,361.486a38.047,38.047,0,1,1-38.047-38.047,38.047,38.047,0,0,1,38.047,38.047" fill="#baeaff"/>
      <circle id="Elipse_4265" data-name="Elipse 4265" cx="38.047" cy="38.047" r="38.047" transform="translate(425.778 323.439)" fill="none" stroke="#12263f" stroke-miterlimit="10" stroke-width="3.219"/>
      <g id="Grupo_243412" data-name="Grupo 243412" style="isolation: isolate">
        <g id="Grupo_243411" data-name="Grupo 243411">
          <g id="Grupo_243410" data-name="Grupo 243410" clip-path="url(#clip-path-9)">
            <g id="Grupo_243409" data-name="Grupo 243409" style="isolation: isolate">
              <g id="Grupo_243408" data-name="Grupo 243408">
                <g id="Grupo_243407" data-name="Grupo 243407" clip-path="url(#clip-path-9)">
                  <text id="_3" data-name="3" transform="translate(455.215 371.825)" fill="#12263f" font-size="32.185" font-family="Roboto-Bold, Roboto" font-weight="700"><tspan x="0" y="0">3</tspan></text>
                </g>
              </g>
            </g>
          </g>
        </g>
      </g>
    </g>
  </g>
  <text id="Fase_I:_Definición_de_alcance_" data-name="Fase I: Definición de alcance " transform="translate(466.448 43.083)" fill="#fff" font-size="16" font-family="Roboto-Bold, Roboto" font-weight="700"><tspan x="0" y="0" letter-spacing="-0.041em">F</tspan><tspan y="0" letter-spacing="-0.025em">ase </tspan><tspan y="0" letter-spacing="-0.024em">I</tspan><tspan y="0" letter-spacing="-0.025em">: </tspan><tspan y="0" letter-spacing="-0.024em">D</tspan><tspan y="0" letter-spacing="-0.025em">efinición de alcance</tspan><tspan y="0"> </tspan></text>
  <text id="Fase_II:_Cuantificación" data-name="Fase II: Cuantificación" transform="translate(526.736 112.011)" fill="#fff" font-size="16" font-family="Roboto-Bold, Roboto" font-weight="700"><tspan x="0" y="0" letter-spacing="-0.041em">F</tspan><tspan y="0" letter-spacing="-0.025em">ase </tspan><tspan y="0" letter-spacing="-0.024em">II</tspan><tspan y="0" letter-spacing="-0.025em">: C</tspan><tspan y="0" letter-spacing="-0.024em">u</tspan><tspan y="0" letter-spacing="-0.025em">an</tspan><tspan y="0" letter-spacing="-0.024em">t</tspan><tspan y="0" letter-spacing="-0.025em">ificació</tspan><tspan y="0">n</tspan></text>
</svg>
